<svg id="49268dda-41b8-4b88-b99e-ff8ebf489770" data-name="レイヤー 1" xmlns="http://www.w3.org/2000/svg" xmlns:xlink="http://www.w3.org/1999/xlink" viewBox="0 0 100 156"><defs><style>.\39 b1baa2f-f340-4d83-b632-02e865ac306d{fill:none;}.ea44ac1e-141c-492b-a414-b3790c6bb671{fill:#fff;}.e94c14f4-098e-44bf-ab26-979dddd50ec0{fill:#7f7f7f;}.\34 20308bc-0d23-4223-9440-b5305f2770ab{clip-path:url(#0e70d719-c5cc-4ba8-b161-c78ad8902fba);}.\35 4c65edb-c77f-4b18-b531-d862dd9e92e1{clip-path:url(#75bbfed4-6926-4b02-a325-5e77d10703ff);}.\30 99f7be6-9cde-4a5d-a485-30dc1b170aae{clip-path:url(#426cafd8-b863-4c93-b5d9-60751e23ddcb);}.\39 6643a9e-e842-4f66-9921-45e339bcf03c{clip-path:url(#6bf3d017-6e91-4772-b8c4-b58a28064c39);}.\33 8dc575b-307f-4c9e-988e-4e12b729c85e{clip-path:url(#ba92045f-2bf8-4d87-bcda-f7c45908100b);}.a9277b2e-6999-4c4d-b53a-217e661033ff{clip-path:url(#29d39314-4ff3-41f3-a97e-6f43fc0fd026);}.fa0e5bc7-fef4-4bb3-81ce-26e13877eb7f{clip-path:url(#56d1f2c0-ca69-49c0-9b36-42a0ef58f8e0);}.\36 71de4e2-04e9-4452-9e7d-3c03f9def3e2{clip-path:url(#b98cc2b3-a9b3-461e-aa6c-c8c2f9e39b67);}.\35 0e147b9-ec70-4d67-9d33-004822bffcf9{clip-path:url(#51ddc7a7-30b1-42bb-87f0-4aff09e6a7d0);}.\30 40cf148-41c9-4d5d-8583-ef2457272a46{clip-path:url(#a2a27dad-935c-4e22-9501-7e9e4e7a38bb);}.e065ffd8-48af-4ef2-bb23-bb6550ff2a3a{clip-path:url(#618b4b3e-f7ef-4a8c-93aa-fc0e19dfaf9c);}.e882e5f6-fb05-4d5d-bba9-c75350b182d7{clip-path:url(#6b81fd99-2296-4a4f-b6df-4b846dc97a9b);}</style><clipPath id="0e70d719-c5cc-4ba8-b161-c78ad8902fba"><rect class="9b1baa2f-f340-4d83-b632-02e865ac306d" width="29.91235" height="29.91235"/></clipPath><clipPath id="75bbfed4-6926-4b02-a325-5e77d10703ff"><rect class="9b1baa2f-f340-4d83-b632-02e865ac306d" x="70.08765" y="126.08765" width="29.91235" height="29.91235"/></clipPath><clipPath id="426cafd8-b863-4c93-b5d9-60751e23ddcb"><rect class="9b1baa2f-f340-4d83-b632-02e865ac306d" x="8.2462" y="29.91235" width="13.41995" height="15.62453"/></clipPath><clipPath id="6bf3d017-6e91-4772-b8c4-b58a28064c39"><rect class="9b1baa2f-f340-4d83-b632-02e865ac306d" x="6.32111" y="29.04849" width="17.27228" height="17.27228"/></clipPath><clipPath id="ba92045f-2bf8-4d87-bcda-f7c45908100b"><rect class="9b1baa2f-f340-4d83-b632-02e865ac306d" x="78.33385" y="110.46313" width="13.41995" height="15.62453"/></clipPath><clipPath id="29d39314-4ff3-41f3-a97e-6f43fc0fd026"><rect class="9b1baa2f-f340-4d83-b632-02e865ac306d" x="76.40661" y="109.67923" width="17.27228" height="17.27228"/></clipPath><clipPath id="56d1f2c0-ca69-49c0-9b36-42a0ef58f8e0"><rect class="9b1baa2f-f340-4d83-b632-02e865ac306d" x="42.36574" y="14.95617" width="15.26852" height="17.77676"/></clipPath><clipPath id="b98cc2b3-a9b3-461e-aa6c-c8c2f9e39b67"><rect class="9b1baa2f-f340-4d83-b632-02e865ac306d" x="40.17548" y="13.97332" width="19.65149" height="19.65149"/></clipPath><clipPath id="51ddc7a7-30b1-42bb-87f0-4aff09e6a7d0"><rect class="9b1baa2f-f340-4d83-b632-02e865ac306d" x="42.36574" y="66.80233" width="15.26852" height="17.77676"/></clipPath><clipPath id="a2a27dad-935c-4e22-9501-7e9e4e7a38bb"><rect class="9b1baa2f-f340-4d83-b632-02e865ac306d" x="40.17548" y="65.81948" width="19.65149" height="19.65149"/></clipPath><clipPath id="618b4b3e-f7ef-4a8c-93aa-fc0e19dfaf9c"><rect class="9b1baa2f-f340-4d83-b632-02e865ac306d" x="42.36574" y="118.64849" width="15.26852" height="17.77676"/></clipPath><clipPath id="6b81fd99-2296-4a4f-b6df-4b846dc97a9b"><rect class="9b1baa2f-f340-4d83-b632-02e865ac306d" x="40.17304" y="117.75662" width="19.65149" height="19.65149"/></clipPath></defs><title>3</title><rect class="ea44ac1e-141c-492b-a414-b3790c6bb671" x="0.5" y="0.5" width="99" height="155" rx="5.5" ry="5.5"/><path class="e94c14f4-098e-44bf-ab26-979dddd50ec0" d="M94,1a5.00567,5.00567,0,0,1,5,5V150a5.00567,5.00567,0,0,1-5,5H6a5.00567,5.00567,0,0,1-5-5V6A5.00567,5.00567,0,0,1,6,1H94m0-1H6A6,6,0,0,0,0,6V150a6,6,0,0,0,6,6H94a6,6,0,0,0,6-6V6a6,6,0,0,0-6-6Z"/><g class="420308bc-0d23-4223-9440-b5305f2770ab"><g class="420308bc-0d23-4223-9440-b5305f2770ab"><path d="M10.93262,6.69287a5.12229,5.12229,0,0,1,2.5376-.561,8.29808,8.29808,0,0,1,2.0752.25244,5.28808,5.28808,0,0,1,1.71045.75684,3.63805,3.63805,0,0,1,1.1499,1.29,3.93093,3.93093,0,0,1,.4209,1.87891,4.31888,4.31888,0,0,1-.36475,1.80908,4.95915,4.95915,0,0,1-.91162,1.374,4.87874,4.87874,0,0,1-1.21973.93945,6.09859,6.09859,0,0,1-1.29.53271v.168a8.99016,8.99016,0,0,1,1.54248.2666,4.65293,4.65293,0,0,1,1.51416.70117,3.9413,3.9413,0,0,1,1.16406,1.30371,4.15826,4.15826,0,0,1,.4624,2.0752,5.39846,5.39846,0,0,1-.51855,2.36963,5.5282,5.5282,0,0,1-1.4585,1.86523,6.6079,6.6079,0,0,1-2.25732,1.20557,9.5617,9.5617,0,0,1-2.9165.4209,9.82835,9.82835,0,0,1-2.46777-.2666,9.88587,9.88587,0,0,1-1.7666-.63086,3.11059,3.11059,0,0,0,.21045-.74316,7.91254,7.91254,0,0,0,.126-.93945l.16846-.1123q.252.28052.6167.61719a4.66651,4.66651,0,0,0,.85547.6167,5.47367,5.47367,0,0,0,1.06543.46289,4.10778,4.10778,0,0,0,1.248.18213,4.99676,4.99676,0,0,0,1.89307-.33643,4.03061,4.03061,0,0,0,1.416-.95361,4.10875,4.10875,0,0,0,.89746-1.48633,5.66491,5.66491,0,0,0,.30859-1.90674,5.66818,5.66818,0,0,0-.29443-1.94922,3.32019,3.32019,0,0,0-.81348-1.28955,3.12772,3.12772,0,0,0-1.248-.71533,5.42126,5.42126,0,0,0-1.59814-.22412,4.15322,4.15322,0,0,0-.65918.05615q-.35083.0564-.603.11182a2.92311,2.92311,0,0,0,.04248-.29443c.00879-.10254.01367-.20068.01367-.29443,0-.09326-.00488-.19141-.01367-.29443a2.96429,2.96429,0,0,0-.04248-.29443,6.43153,6.43153,0,0,0,1.26221.1123,2.85064,2.85064,0,0,0,1.59814-.40674,2.93354,2.93354,0,0,0,.96777-1.0376,4.28579,4.28579,0,0,0,.47656-1.38818,8.88777,8.88777,0,0,0,.12646-1.458,4.14941,4.14941,0,0,0-.2666-1.55664,3.2093,3.2093,0,0,0-.687-1.07959,2.62,2.62,0,0,0-.95361-.6167,3.14109,3.14109,0,0,0-1.09375-.19629,3.0345,3.0345,0,0,0-2.00488.687,3.58448,3.58448,0,0,0-1.13574,1.55615l-.19629.05615L9.376,7.81445A7.208,7.208,0,0,1,10.93262,6.69287Z"/></g></g><g class="54c65edb-c77f-4b18-b531-d862dd9e92e1"><g class="54c65edb-c77f-4b18-b531-d862dd9e92e1"><path d="M89.06836,149.30762a5.13761,5.13761,0,0,1-2.53809.56055,8.31526,8.31526,0,0,1-2.0752-.252,5.30254,5.30254,0,0,1-1.71094-.75781,3.63358,3.63358,0,0,1-1.14941-1.29,3.92822,3.92822,0,0,1-.4209-1.87891,4.3107,4.3107,0,0,1,.36523-1.80859,4.94715,4.94715,0,0,1,.91113-1.374,4.89289,4.89289,0,0,1,1.21973-.93945,6.03424,6.03424,0,0,1,1.29-.53223v-.16895a8.85518,8.85518,0,0,1-1.543-.2666,4.6629,4.6629,0,0,1-1.51367-.7002,3.95986,3.95986,0,0,1-1.16406-1.30469,4.1556,4.1556,0,0,1-.46289-2.0752,5.40147,5.40147,0,0,1,.51953-2.36914,5.53152,5.53152,0,0,1,1.458-1.86523,6.62308,6.62308,0,0,1,2.25684-1.20605,9.56774,9.56774,0,0,1,2.917-.41992,9.24632,9.24632,0,0,1,4.23438.89746,3.108,3.108,0,0,0-.21.74316,8.11047,8.11047,0,0,0-.127.93945l-.168.11133q-.252-.27979-.61719-.61621a4.57982,4.57982,0,0,0-.85547-.61719,5.37755,5.37755,0,0,0-1.06543-.46289,4.08812,4.08812,0,0,0-1.248-.18262,4.98637,4.98637,0,0,0-1.89258.33691,4.04042,4.04042,0,0,0-1.416.95313A4.12118,4.12118,0,0,0,83.165,134.248a6.30953,6.30953,0,0,0-.01367,3.85645,3.32425,3.32425,0,0,0,.8125,1.29,3.15431,3.15431,0,0,0,1.248.71484,5.42434,5.42434,0,0,0,1.59863.22461,4.2146,4.2146,0,0,0,.65918-.05664c.23438-.03711.43457-.07422.60254-.1123a2.93578,2.93578,0,0,0-.042.29492c-.00879.10254-.01367.2002-.01367.29395s.00488.19141.01367.29492a2.95637,2.95637,0,0,0,.042.29395,6.49918,6.49918,0,0,0-1.26172-.11133,2.85454,2.85454,0,0,0-1.59863.40625,2.9331,2.9331,0,0,0-.9668,1.03711,4.29392,4.29392,0,0,0-.47754,1.38867,8.8811,8.8811,0,0,0-.126,1.458,4.138,4.138,0,0,0,.2666,1.55664,3.19288,3.19288,0,0,0,.6875,1.0791,2.60289,2.60289,0,0,0,.95313.61719,3.14109,3.14109,0,0,0,1.09375.19629,3.03839,3.03839,0,0,0,2.00488-.68652,3.58744,3.58744,0,0,0,1.13574-1.55664l.19629-.05664.64453,1.51465A7.19924,7.19924,0,0,1,89.06836,149.30762Z"/></g></g><g class="099f7be6-9cde-4a5d-a485-30dc1b170aae"><g class="96643a9e-e842-4f66-9921-45e339bcf03c"><path d="M15.10727,30.00235a.20294.20294,0,0,0-.30227,0C11.92148,33.206,8.2462,35.113,8.2462,39.135c0,3.995,4.27415,4.70811,6.54687,1.65531a.20281.20281,0,0,1,.32622,0c2.27259,3.05281,6.54687,2.33972,6.54687-1.65531,0-4.022-3.67535-5.929-6.55888-9.13265"/><path d="M14.85,39.71254a10.74666,10.74666,0,0,1-2.57991,5.64358.10746.10746,0,0,0,.079.18075h5.21407a.10747.10747,0,0,0,.079-.18075,10.74666,10.74666,0,0,1-2.57991-5.64358.10731.10731,0,0,0-.21226,0"/></g></g><g class="38dc575b-307f-4c9e-988e-4e12b729c85e"><g class="a9277b2e-6999-4c4d-b53a-217e661033ff"><path d="M84.89273,125.99765a.20294.20294,0,0,0,.30227,0c2.88353-3.20367,6.55881-5.11064,6.55881-9.13265,0-3.995-4.27415-4.70811-6.54687-1.65531a.20281.20281,0,0,1-.32622,0c-2.27259-3.05281-6.54687-2.33972-6.54687,1.65531,0,4.022,3.67535,5.929,6.55888,9.13265"/><path d="M85.15,116.28746a10.74666,10.74666,0,0,1,2.57991-5.64358.10746.10746,0,0,0-.079-.18075H82.43683a.10747.10747,0,0,0-.079.18075,10.74666,10.74666,0,0,1,2.57991,5.64358.10731.10731,0,0,0,.21226,0"/></g></g><g class="fa0e5bc7-fef4-4bb3-81ce-26e13877eb7f"><g class="671de4e2-04e9-4452-9e7d-3c03f9def3e2"><path d="M50.17191,15.05858a.23089.23089,0,0,0-.3439,0c-3.28072,3.645-7.46227,5.81462-7.46227,10.39065,0,4.54533,4.8629,5.35664,7.44868,1.88332a.23075.23075,0,0,1,.37115,0c2.58563,3.47332,7.44868,2.662,7.44868-1.88332,0-4.576-4.18162-6.74568-7.46234-10.39065"/><path d="M49.87921,26.10631a12.227,12.227,0,0,1-2.93529,6.421.12226.12226,0,0,0,.08989.20565h5.93229a.12228.12228,0,0,0,.08989-.20565,12.227,12.227,0,0,1-2.93529-6.421.12209.12209,0,0,0-.2415,0"/></g></g><g class="50e147b9-ec70-4d67-9d33-004822bffcf9"><g class="040cf148-41c9-4d5d-8583-ef2457272a46"><path d="M50.17191,66.90474a.23089.23089,0,0,0-.3439,0c-3.28072,3.645-7.46227,5.81462-7.46227,10.39065,0,4.54533,4.8629,5.35664,7.44868,1.88332a.23075.23075,0,0,1,.37115,0c2.58563,3.47332,7.44868,2.662,7.44868-1.88332,0-4.576-4.18162-6.74568-7.46234-10.39065"/><path d="M49.87921,77.95247a12.227,12.227,0,0,1-2.93529,6.421.12226.12226,0,0,0,.08989.20565h5.93229a.12228.12228,0,0,0,.08989-.20565,12.227,12.227,0,0,1-2.93529-6.421.12209.12209,0,0,0-.2415,0"/></g></g><g class="e065ffd8-48af-4ef2-bb23-bb6550ff2a3a"><g class="e882e5f6-fb05-4d5d-bba9-c75350b182d7"><path d="M49.82809,136.32285a.23089.23089,0,0,0,.3439,0c3.28072-3.645,7.46227-5.81462,7.46227-10.39065,0-4.54533-4.8629-5.35664-7.44868-1.88332a.23075.23075,0,0,1-.37115,0c-2.58563-3.47332-7.44868-2.662-7.44868,1.88332,0,4.576,4.18162,6.74568,7.46234,10.39065"/><path d="M50.12079,125.27511a12.227,12.227,0,0,1,2.93529-6.421.12226.12226,0,0,0-.08989-.20565H47.03389a.12228.12228,0,0,0-.08989.20565,12.227,12.227,0,0,1,2.93529,6.421.12209.12209,0,0,0,.2415,0"/></g></g></svg>