<svg id="5867b504-0bb2-45db-8f75-fa1c79af5f3c" data-name="レイヤー 1" xmlns="http://www.w3.org/2000/svg" xmlns:xlink="http://www.w3.org/1999/xlink" viewBox="0 0 100 156"><defs><style>.\39 2de2522-0b1e-4879-abab-b87858b2e7a2{fill:none;}.\30 3a911dc-03e8-41de-8fc3-04893d0252e0{fill:#fff;}.\30 410b11d-efcc-4aa0-a01d-6e7c590ab93f{fill:#7f7f7f;}.\32 988b7f3-1a31-4254-beb3-c6939b482f92{clip-path:url(#9c44338b-cf8a-441c-85d8-f5ee7018f83a);}.\38 d7465b7-ac23-4c5b-8771-8cf22dc61df6{clip-path:url(#5b70886a-ebec-4888-8b44-8ef95d50cb5d);}.a310a4a7-e2ea-4a52-903d-d4cfaea31c35{clip-path:url(#1ad4d1a7-ad4d-4fd9-a65d-21936a53bbfd);}.de65f247-5657-48e4-a7fb-8889b9336402{clip-path:url(#fd9d166b-9a03-41c3-a627-53614efc9125);}.\33 75a9416-69ce-4d69-b7c5-e6c24a342d32{clip-path:url(#e5621c39-c262-447f-acbe-ccd222de1d40);}.\30 00d8522-847d-4e08-a0aa-e4ab2add90c9{clip-path:url(#ba9fa1c5-27ab-4120-bd86-f604b940e6df);}.\32 95c75d0-b175-43ce-b4ee-15c29717636f{clip-path:url(#b410b19d-b349-4016-aeb5-daad488cf9cb);}.\31 08363da-dbd7-4a99-9edd-8d5cfdb890b0{clip-path:url(#0b25853c-9398-4cb7-bb6d-0f3d116fbe4c);}.\36 e463141-8a12-4e50-93dd-c4f42e9fb397{clip-path:url(#5274b7fb-cd95-4b67-ae3f-48a7f0f66a5f);}.ee798bcf-9e79-4b13-9221-c250a1b58552{clip-path:url(#b45827fd-5533-49d0-afce-806a5b3c8dda);}.\38 5dfeb39-6be9-45b3-b858-146b0cfdecc6{clip-path:url(#ea1d6dd9-6e68-420f-82ab-71bd1194d3c9);}.\30 9017958-0782-47b7-85b3-9e03ad6d4a17{clip-path:url(#88f7c1ae-49cb-4ccb-b663-9b8220d777f6);}.\38 6d88166-405a-4c86-be61-3c8d44a9f060{clip-path:url(#53b8cc8f-63e3-4a22-a32f-9669157190e4);}.\37 da08ac3-2744-4954-bb45-5dc69872e570{clip-path:url(#0d4b2d27-8078-4ebc-8e68-20a0a5dd5ff0);}</style><clipPath id="9c44338b-cf8a-441c-85d8-f5ee7018f83a"><rect class="92de2522-0b1e-4879-abab-b87858b2e7a2" width="29.91235" height="29.91235"/></clipPath><clipPath id="5b70886a-ebec-4888-8b44-8ef95d50cb5d"><rect class="92de2522-0b1e-4879-abab-b87858b2e7a2" x="70.08765" y="126.08765" width="29.91235" height="29.91235"/></clipPath><clipPath id="1ad4d1a7-ad4d-4fd9-a65d-21936a53bbfd"><rect class="92de2522-0b1e-4879-abab-b87858b2e7a2" x="8.2462" y="29.91235" width="13.41995" height="15.62453"/></clipPath><clipPath id="fd9d166b-9a03-41c3-a627-53614efc9125"><rect class="92de2522-0b1e-4879-abab-b87858b2e7a2" x="6.32111" y="29.04849" width="17.27228" height="17.27228"/></clipPath><clipPath id="e5621c39-c262-447f-acbe-ccd222de1d40"><rect class="92de2522-0b1e-4879-abab-b87858b2e7a2" x="78.33385" y="110.46313" width="13.41995" height="15.62453"/></clipPath><clipPath id="ba9fa1c5-27ab-4120-bd86-f604b940e6df"><rect class="92de2522-0b1e-4879-abab-b87858b2e7a2" x="76.40661" y="109.67923" width="17.27228" height="17.27228"/></clipPath><clipPath id="b410b19d-b349-4016-aeb5-daad488cf9cb"><rect class="92de2522-0b1e-4879-abab-b87858b2e7a2" x="27" y="14.95617" width="15.26852" height="17.77676"/></clipPath><clipPath id="0b25853c-9398-4cb7-bb6d-0f3d116fbe4c"><rect class="92de2522-0b1e-4879-abab-b87858b2e7a2" x="24.80973" y="13.97332" width="19.65149" height="19.65149"/></clipPath><clipPath id="5274b7fb-cd95-4b67-ae3f-48a7f0f66a5f"><rect class="92de2522-0b1e-4879-abab-b87858b2e7a2" x="57.73148" y="118.64849" width="15.26852" height="17.77676"/></clipPath><clipPath id="b45827fd-5533-49d0-afce-806a5b3c8dda"><rect class="92de2522-0b1e-4879-abab-b87858b2e7a2" x="55.53878" y="117.75662" width="19.65149" height="19.65149"/></clipPath><clipPath id="ea1d6dd9-6e68-420f-82ab-71bd1194d3c9"><rect class="92de2522-0b1e-4879-abab-b87858b2e7a2" x="57.73148" y="14.95617" width="15.26852" height="17.77676"/></clipPath><clipPath id="88f7c1ae-49cb-4ccb-b663-9b8220d777f6"><rect class="92de2522-0b1e-4879-abab-b87858b2e7a2" x="55.54122" y="13.97332" width="19.65149" height="19.65149"/></clipPath><clipPath id="53b8cc8f-63e3-4a22-a32f-9669157190e4"><rect class="92de2522-0b1e-4879-abab-b87858b2e7a2" x="27" y="118.64849" width="15.26852" height="17.77676"/></clipPath><clipPath id="0d4b2d27-8078-4ebc-8e68-20a0a5dd5ff0"><rect class="92de2522-0b1e-4879-abab-b87858b2e7a2" x="24.80729" y="117.75662" width="19.65149" height="19.65149"/></clipPath></defs><title>4</title><rect class="03a911dc-03e8-41de-8fc3-04893d0252e0" x="0.5" y="0.5" width="99" height="155" rx="5.5" ry="5.5"/><path class="0410b11d-efcc-4aa0-a01d-6e7c590ab93f" d="M94,1a5.00567,5.00567,0,0,1,5,5V150a5.00567,5.00567,0,0,1-5,5H6a5.00567,5.00567,0,0,1-5-5V6A5.00567,5.00567,0,0,1,6,1H94m0-1H6A6,6,0,0,0,0,6V150a6,6,0,0,0,6,6H94a6,6,0,0,0,6-6V6a6,6,0,0,0-6-6Z"/><g class="2988b7f3-1a31-4254-beb3-c6939b482f92"><g class="2988b7f3-1a31-4254-beb3-c6939b482f92"><path d="M7.74951,19.45215q1.2334-1.73877,2.56592-3.61768Q11.647,13.95654,12.89551,12.189q1.24731-1.7666,2.29932-3.29492,1.05176-1.52783,1.72461-2.59424a4.00362,4.00362,0,0,0,.95361.14063,3.371,3.371,0,0,0,.89746-.14062q-.08423,1.85083-.14014,4.16455-.05713,2.31372-.05615,4.75342v3.08447q.813,0,1.542-.06982.72949-.06958,1.20605-.1543a3.95866,3.95866,0,0,0-.14014.92529,3.95151,3.95151,0,0,0,.14014.92529,10.63036,10.63036,0,0,0-1.20605-.126q-.72949-.04248-1.542-.042v1.17773q0,1.09351.05615,2.25732.05566,1.16382.11182,1.83691-.561-.0564-1.23389-.05615-.6731,0-1.23389.05615.0564-.72876.14014-1.87891.08423-1.1499.08447-2.21533V19.76074q-.64526,0-1.86475.01367-1.22021.01465-2.55225.04248-1.33228.02783-2.5376.06982-1.2063.04248-1.79492.07031ZM16.44287,8.87988q-.58887.81372-1.48633,2.08936Q14.05859,12.24585,13.106,13.605q-.95435,1.36084-1.80908,2.62207-.85547,1.262-1.332,2.0752H16.499V8.87988Z"/></g></g><g class="8d7465b7-ac23-4c5b-8771-8cf22dc61df6"><g class="8d7465b7-ac23-4c5b-8771-8cf22dc61df6"><path d="M92.251,136.54785q-1.2334,1.73877-2.56641,3.61719-1.33154,1.87939-2.5791,3.64551-1.248,1.7666-2.2998,3.2959-1.05176,1.52783-1.72461,2.59375a4.02863,4.02863,0,0,0-.95312-.14062,3.388,3.388,0,0,0-.89746.14063q.0835-1.85156.13965-4.165.05713-2.313.05664-4.75293v-3.085q-.813,0-1.543.07031-.728.07031-1.20605.1543a3.11446,3.11446,0,0,0,0-1.85059,10.89992,10.89992,0,0,0,1.20605.126q.72949.04248,1.543.042v-1.17773q0-1.09424-.05664-2.25781-.05566-1.16309-.1123-1.83594c.375.03711.78516.05566,1.23438.05566.44824,0,.86035-.01855,1.2334-.05566q-.05566.728-.13965,1.87891-.085,1.14844-.084,2.21484v1.17773q.64453,0,1.86426-.01367,1.22021-.01465,2.55176-.042,1.333-.0293,2.53809-.07031,1.20557-.04248,1.79492-.07031Zm-8.69336,10.57227q.58887-.81445,1.48633-2.08887.89795-1.27734,1.85059-2.63672.95361-1.35937,1.80859-2.62207.85693-1.26123,1.332-2.0752H83.502v9.42285Z"/></g></g><g class="a310a4a7-e2ea-4a52-903d-d4cfaea31c35"><g class="de65f247-5657-48e4-a7fb-8889b9336402"><path d="M15.10727,30.00235a.20294.20294,0,0,0-.30227,0C11.92148,33.206,8.2462,35.113,8.2462,39.135c0,3.995,4.27415,4.70811,6.54687,1.65531a.20281.20281,0,0,1,.32622,0c2.27259,3.05281,6.54687,2.33972,6.54687-1.65531,0-4.022-3.67535-5.929-6.55888-9.13265"/><path d="M14.85,39.71254a10.74666,10.74666,0,0,1-2.57991,5.64358.10746.10746,0,0,0,.079.18075h5.21407a.10747.10747,0,0,0,.079-.18075,10.74666,10.74666,0,0,1-2.57991-5.64358.10731.10731,0,0,0-.21226,0"/></g></g><g class="375a9416-69ce-4d69-b7c5-e6c24a342d32"><g class="000d8522-847d-4e08-a0aa-e4ab2add90c9"><path d="M84.89273,125.99765a.20294.20294,0,0,0,.30227,0c2.88353-3.20367,6.55881-5.11064,6.55881-9.13265,0-3.995-4.27415-4.70811-6.54687-1.65531a.20281.20281,0,0,1-.32622,0c-2.27259-3.05281-6.54687-2.33972-6.54687,1.65531,0,4.022,3.67535,5.929,6.55888,9.13265"/><path d="M85.15,116.28746a10.74666,10.74666,0,0,1,2.57991-5.64358.10746.10746,0,0,0-.079-.18075H82.43683a.10747.10747,0,0,0-.079.18075,10.74666,10.74666,0,0,1,2.57991,5.64358.10731.10731,0,0,0,.21226,0"/></g></g><g class="295c75d0-b175-43ce-b4ee-15c29717636f"><g class="108363da-dbd7-4a99-9edd-8d5cfdb890b0"><path d="M34.80617,15.05858a.23089.23089,0,0,0-.3439,0C31.18154,18.70355,27,20.87319,27,25.44922c0,4.54533,4.8629,5.35664,7.44868,1.88332a.23075.23075,0,0,1,.37115,0c2.58563,3.47332,7.44868,2.662,7.44868-1.88332,0-4.576-4.18162-6.74568-7.46234-10.39065"/><path d="M34.51347,26.10631a12.227,12.227,0,0,1-2.93529,6.421.12226.12226,0,0,0,.08989.20565h5.93229a.12228.12228,0,0,0,.08989-.20565,12.227,12.227,0,0,1-2.93529-6.421.12209.12209,0,0,0-.2415,0"/></g></g><g class="6e463141-8a12-4e50-93dd-c4f42e9fb397"><g class="ee798bcf-9e79-4b13-9221-c250a1b58552"><path d="M65.19383,136.32285a.23089.23089,0,0,0,.3439,0C68.81846,132.67788,73,130.50823,73,125.9322c0-4.54533-4.8629-5.35664-7.44868-1.88332a.23075.23075,0,0,1-.37115,0c-2.58563-3.47332-7.44868-2.662-7.44868,1.88332,0,4.576,4.18162,6.74568,7.46234,10.39065"/><path d="M65.48653,125.27511a12.227,12.227,0,0,1,2.93529-6.421.12226.12226,0,0,0-.08989-.20565H62.39963a.12228.12228,0,0,0-.08989.20565,12.227,12.227,0,0,1,2.93529,6.421.12209.12209,0,0,0,.2415,0"/></g></g><g class="85dfeb39-6be9-45b3-b858-146b0cfdecc6"><g class="09017958-0782-47b7-85b3-9e03ad6d4a17"><path d="M65.53765,15.05858a.23089.23089,0,0,0-.3439,0c-3.28072,3.645-7.46227,5.81462-7.46227,10.39065,0,4.54533,4.8629,5.35664,7.44868,1.88332a.23075.23075,0,0,1,.37115,0C68.13695,30.80587,73,29.99455,73,25.44922c0-4.576-4.18162-6.74568-7.46234-10.39065"/><path d="M65.245,26.10631a12.227,12.227,0,0,1-2.93529,6.421.12226.12226,0,0,0,.08989.20565h5.93229a.12228.12228,0,0,0,.08989-.20565,12.227,12.227,0,0,1-2.93529-6.421.12209.12209,0,0,0-.2415,0"/></g></g><g class="86d88166-405a-4c86-be61-3c8d44a9f060"><g class="7da08ac3-2744-4954-bb45-5dc69872e570"><path d="M34.46235,136.32285a.23089.23089,0,0,0,.3439,0c3.28072-3.645,7.46227-5.81462,7.46227-10.39065,0-4.54533-4.8629-5.35664-7.44868-1.88332a.23075.23075,0,0,1-.37115,0C31.86305,120.57556,27,121.38687,27,125.9322c0,4.576,4.18162,6.74568,7.46234,10.39065"/><path d="M34.755,125.27511a12.227,12.227,0,0,1,2.93529-6.421.12226.12226,0,0,0-.08989-.20565H31.66815a.12228.12228,0,0,0-.08989.20565,12.227,12.227,0,0,1,2.93529,6.421.12209.12209,0,0,0,.2415,0"/></g></g></svg>