<svg id="97ad0683-d1f2-424d-b571-7b9bdbdfe52a" data-name="レイヤー 1" xmlns="http://www.w3.org/2000/svg" xmlns:xlink="http://www.w3.org/1999/xlink" viewBox="0 0 100 156"><defs><style>.\35 3df75ba-2da3-44c8-85c1-f9fcc0105144{fill:none;}.\39 514d765-b151-44b7-bd69-296a59d4b695{fill:#fff;}.\32 b902429-1691-438f-ae13-b992521a46fb{fill:#7f7f7f;}.\38 61ea3a0-ebec-4e1e-883e-83b83c756ded{clip-path:url(#73156979-4194-4238-9a37-21132d34d4e9);}.\35 58b4489-1939-42ac-a768-8a759b98d570{clip-path:url(#824bac3c-883d-43d4-9fe7-2b6bbf136c10);}.\35 ac68a93-7de5-4892-a854-adbac2c7640b{clip-path:url(#64fbacba-c910-42cc-ada1-5911015c0409);}.\32 0076cd5-680e-4ae8-be5c-2dff5b7269f5{clip-path:url(#b045eedf-55db-4061-a19a-f30439bed4fd);}.f007a3cb-40fa-4aff-8522-4bebaa496f37{clip-path:url(#dc9eb0eb-5a37-4e75-b9d2-0e56b5dfc8d3);}.c056db1d-1897-4e57-973a-ae3cba4e3a15{clip-path:url(#4ce4ec34-abd7-4078-bc95-208f512ae0e7);}.f19a5802-fe1a-443b-9280-e6ff1057bb75{clip-path:url(#71a80b06-56ff-41e6-97c2-ebc04f66ccb0);}.fb11d25b-01bb-47be-b640-9165eb34a066{clip-path:url(#70a7f017-413c-4868-afad-03e05d148004);}.\34 f713ff7-dd40-40c2-9f48-f67238c9a14d{clip-path:url(#7fdcfb06-9315-4dd1-93eb-b1f9f910c5e6);}.\31 f93fce9-dfb7-4c6c-b8d1-bfcd1486d963{clip-path:url(#f78bcdc7-fe35-4787-a565-df3818187fd2);}.\34 92dcb1c-b35b-4288-b5f9-ad6089634c97{clip-path:url(#8e197821-e669-4ea3-88d2-881af009ddbe);}.\34 d1ec6a2-30e6-4564-9bb6-01b79be7dc71{clip-path:url(#df25891f-31ae-4608-9f01-b9085664bf95);}.\36 4dfaa6c-0960-4e78-816b-aa10821dc40a{clip-path:url(#b0d43f1c-1e01-414a-bdf4-ee80c99bdeb3);}.\37 183c7a0-de3c-4ed4-85f7-2cfccf4fa3e9{clip-path:url(#a0d5def6-f311-4bae-b9d2-f8e4c0e81634);}.\38 f0118e2-e222-4cfe-9754-a9f896acf1e7{clip-path:url(#d5b2f724-3583-4002-9948-a00984d9759f);}.fa17ac71-23f6-4d85-b533-40d4f3dc0bf1{clip-path:url(#38bcca77-e417-408a-8927-199346533569);}</style><clipPath id="73156979-4194-4238-9a37-21132d34d4e9"><rect class="53df75ba-2da3-44c8-85c1-f9fcc0105144" width="29.91235" height="29.91235"/></clipPath><clipPath id="824bac3c-883d-43d4-9fe7-2b6bbf136c10"><rect class="53df75ba-2da3-44c8-85c1-f9fcc0105144" x="70.08765" y="126.08765" width="29.91235" height="29.91235"/></clipPath><clipPath id="64fbacba-c910-42cc-ada1-5911015c0409"><rect class="53df75ba-2da3-44c8-85c1-f9fcc0105144" x="8.2462" y="29.91235" width="13.41995" height="15.62453"/></clipPath><clipPath id="b045eedf-55db-4061-a19a-f30439bed4fd"><rect class="53df75ba-2da3-44c8-85c1-f9fcc0105144" x="6.32111" y="29.04849" width="17.27228" height="17.27228"/></clipPath><clipPath id="dc9eb0eb-5a37-4e75-b9d2-0e56b5dfc8d3"><rect class="53df75ba-2da3-44c8-85c1-f9fcc0105144" x="78.33385" y="110.46313" width="13.41995" height="15.62453"/></clipPath><clipPath id="4ce4ec34-abd7-4078-bc95-208f512ae0e7"><rect class="53df75ba-2da3-44c8-85c1-f9fcc0105144" x="76.40661" y="109.67923" width="17.27228" height="17.27228"/></clipPath><clipPath id="71a80b06-56ff-41e6-97c2-ebc04f66ccb0"><rect class="53df75ba-2da3-44c8-85c1-f9fcc0105144" x="27" y="14.95617" width="15.26852" height="17.77676"/></clipPath><clipPath id="70a7f017-413c-4868-afad-03e05d148004"><rect class="53df75ba-2da3-44c8-85c1-f9fcc0105144" x="24.80973" y="13.97332" width="19.65149" height="19.65149"/></clipPath><clipPath id="7fdcfb06-9315-4dd1-93eb-b1f9f910c5e6"><rect class="53df75ba-2da3-44c8-85c1-f9fcc0105144" x="42.36574" y="66.80233" width="15.26852" height="17.77676"/></clipPath><clipPath id="f78bcdc7-fe35-4787-a565-df3818187fd2"><rect class="53df75ba-2da3-44c8-85c1-f9fcc0105144" x="40.17548" y="65.81948" width="19.65149" height="19.65149"/></clipPath><clipPath id="8e197821-e669-4ea3-88d2-881af009ddbe"><rect class="53df75ba-2da3-44c8-85c1-f9fcc0105144" x="57.73148" y="118.64849" width="15.26852" height="17.77676"/></clipPath><clipPath id="df25891f-31ae-4608-9f01-b9085664bf95"><rect class="53df75ba-2da3-44c8-85c1-f9fcc0105144" x="55.53878" y="117.75662" width="19.65149" height="19.65149"/></clipPath><clipPath id="b0d43f1c-1e01-414a-bdf4-ee80c99bdeb3"><rect class="53df75ba-2da3-44c8-85c1-f9fcc0105144" x="57.73148" y="14.95617" width="15.26852" height="17.77676"/></clipPath><clipPath id="a0d5def6-f311-4bae-b9d2-f8e4c0e81634"><rect class="53df75ba-2da3-44c8-85c1-f9fcc0105144" x="55.54122" y="13.97332" width="19.65149" height="19.65149"/></clipPath><clipPath id="d5b2f724-3583-4002-9948-a00984d9759f"><rect class="53df75ba-2da3-44c8-85c1-f9fcc0105144" x="27" y="118.64849" width="15.26852" height="17.77676"/></clipPath><clipPath id="38bcca77-e417-408a-8927-199346533569"><rect class="53df75ba-2da3-44c8-85c1-f9fcc0105144" x="24.80729" y="117.75662" width="19.65149" height="19.65149"/></clipPath></defs><title>5</title><rect class="9514d765-b151-44b7-bd69-296a59d4b695" x="0.5" y="0.5" width="99" height="155" rx="5.5" ry="5.5"/><path class="2b902429-1691-438f-ae13-b992521a46fb" d="M94,1a5.00567,5.00567,0,0,1,5,5V150a5.00567,5.00567,0,0,1-5,5H6a5.00567,5.00567,0,0,1-5-5V6A5.00567,5.00567,0,0,1,6,1H94m0-1H6A6,6,0,0,0,0,6V150a6,6,0,0,0,6,6H94a6,6,0,0,0,6-6V6a6,6,0,0,0-6-6Z"/><g class="861ea3a0-ebec-4e1e-883e-83b83c756ded"><g class="861ea3a0-ebec-4e1e-883e-83b83c756ded"><path d="M12.811,13.96973a6.68768,6.68768,0,0,1,1.92139-.21045,5.66828,5.66828,0,0,1,2.229.4209,5.04634,5.04634,0,0,1,1.69678,1.14941,5.15357,5.15357,0,0,1,1.07959,1.68262,5.42145,5.42145,0,0,1,.37842,2.019,6.16706,6.16706,0,0,1-.50439,2.48193,5.93892,5.93892,0,0,1-1.43018,2.019,6.59789,6.59789,0,0,1-2.20166,1.332,8.079,8.079,0,0,1-2.84619.47705,13.62372,13.62372,0,0,1-2.42578-.21045,5.232,5.232,0,0,1-2.061-.82715V24.0791a6.81592,6.81592,0,0,0,.25244-.82715q.11133-.46289.168-.79932h.19629a3.026,3.026,0,0,0,.687.89746,4.19184,4.19184,0,0,0,.98193.65918,4.90869,4.90869,0,0,0,1.14941.39258,5.68485,5.68485,0,0,0,1.16406.126,4.29646,4.29646,0,0,0,1.6123-.30859,3.67005,3.67005,0,0,0,1.35986-.95312,4.92619,4.92619,0,0,0,.95361-1.62646,6.60441,6.60441,0,0,0,.36475-2.2998,5.43909,5.43909,0,0,0-.33643-2.019,3.92382,3.92382,0,0,0-.88379-1.374,3.287,3.287,0,0,0-1.24756-.771,4.508,4.508,0,0,0-1.4585-.23877,4.13939,4.13939,0,0,0-1.90674.37891q-.72949.37866-.98145.54688l-.30859-.19629a16.32044,16.32044,0,0,0,.23828-2.31348q.04248-1.22021.042-2.42578,0-1.17773-.042-2.42578a19.94075,19.94075,0,0,0-.18213-2.20166l.25244-.168q.47607.08423,1.57031.168,1.2334.08423,3.42139.08447,1.34546,0,2.3833-.01416,1.03711-.01392,1.54248-.042l.14014.1123a4.05339,4.05339,0,0,0-.1543.771,7.82492,7.82492,0,0,0-.042.79932,2.19161,2.19161,0,0,0,.02832.47656,15.70682,15.70682,0,0,0-1.64062-.18213q-1.02393-.06958-2.14551-.1123-1.12134-.04175-2.15918-.05615Q12.62866,8.1228,11.98389,8.123l-.39258,6.36572A6.838,6.838,0,0,1,12.811,13.96973Z"/></g></g><g class="558b4489-1939-42ac-a768-8a759b98d570"><g class="558b4489-1939-42ac-a768-8a759b98d570"><path d="M87.18945,142.03027a6.67179,6.67179,0,0,1-1.9209.21,5.68107,5.68107,0,0,1-2.22949-.41992,5.05789,5.05789,0,0,1-1.69727-1.15039,5.14206,5.14206,0,0,1-1.0791-1.68262,5.40953,5.40953,0,0,1-.37891-2.01855,6.1831,6.1831,0,0,1,.50488-2.48242,5.94113,5.94113,0,0,1,1.43066-2.01855,6.59388,6.59388,0,0,1,2.20117-1.332,8.09294,8.09294,0,0,1,2.84668-.47656,13.57194,13.57194,0,0,1,2.4248.21,5.23556,5.23556,0,0,1,2.06152.82715v.22461a6.54326,6.54326,0,0,0-.252.82715c-.0752.30859-.13086.5752-.16895.79883h-.19629a3.0061,3.0061,0,0,0-.68652-.89648,4.15419,4.15419,0,0,0-.98145-.65918,4.90913,4.90913,0,0,0-1.15039-.39258,5.6788,5.6788,0,0,0-1.16309-.127,4.29777,4.29777,0,0,0-1.61328.30859,3.675,3.675,0,0,0-1.35937.9541,4.91947,4.91947,0,0,0-.9541,1.626,6.61628,6.61628,0,0,0-.36426,2.2998,5.42422,5.42422,0,0,0,.33691,2.01855,3.91074,3.91074,0,0,0,.88281,1.375,3.30725,3.30725,0,0,0,1.248.77051,4.49155,4.49155,0,0,0,1.458.23828,4.15,4.15,0,0,0,1.90723-.37793q.72949-.37939.98145-.54687l.30859.19629a16.298,16.298,0,0,0-.23828,2.31348q-.04248,1.21875-.042,2.42578,0,1.17773.042,2.42578a19.92164,19.92164,0,0,0,.18262,2.20117l-.25293.168q-.47607-.0835-1.57031-.168-1.2334-.085-3.4209-.084-1.34619,0-2.38379.01367-1.03711.01318-1.543.042l-.13965-.1123a4.01339,4.01339,0,0,0,.1543-.77148,7.67156,7.67156,0,0,0,.042-.79883,2.2228,2.2228,0,0,0-.02832-.47656,15.65514,15.65514,0,0,0,1.64063.18262q1.02393.06885,2.14551.11133,1.12207.04248,2.15918.05664,1.03711.01318,1.68262.01367l.39258-6.36523A6.90891,6.90891,0,0,1,87.18945,142.03027Z"/></g></g><g class="5ac68a93-7de5-4892-a854-adbac2c7640b"><g class="20076cd5-680e-4ae8-be5c-2dff5b7269f5"><path d="M15.10727,30.00235a.20294.20294,0,0,0-.30227,0C11.92148,33.206,8.2462,35.113,8.2462,39.135c0,3.995,4.27415,4.70811,6.54687,1.65531a.20281.20281,0,0,1,.32622,0c2.27259,3.05281,6.54687,2.33972,6.54687-1.65531,0-4.022-3.67535-5.929-6.55888-9.13265"/><path d="M14.85,39.71254a10.74666,10.74666,0,0,1-2.57991,5.64358.10746.10746,0,0,0,.079.18075h5.21407a.10747.10747,0,0,0,.079-.18075,10.74666,10.74666,0,0,1-2.57991-5.64358.10731.10731,0,0,0-.21226,0"/></g></g><g class="f007a3cb-40fa-4aff-8522-4bebaa496f37"><g class="c056db1d-1897-4e57-973a-ae3cba4e3a15"><path d="M84.89273,125.99765a.20294.20294,0,0,0,.30227,0c2.88353-3.20367,6.55881-5.11064,6.55881-9.13265,0-3.995-4.27415-4.70811-6.54687-1.65531a.20281.20281,0,0,1-.32622,0c-2.27259-3.05281-6.54687-2.33972-6.54687,1.65531,0,4.022,3.67535,5.929,6.55888,9.13265"/><path d="M85.15,116.28746a10.74666,10.74666,0,0,1,2.57991-5.64358.10746.10746,0,0,0-.079-.18075H82.43683a.10747.10747,0,0,0-.079.18075,10.74666,10.74666,0,0,1,2.57991,5.64358.10731.10731,0,0,0,.21226,0"/></g></g><g class="f19a5802-fe1a-443b-9280-e6ff1057bb75"><g class="fb11d25b-01bb-47be-b640-9165eb34a066"><path d="M34.80617,15.05858a.23089.23089,0,0,0-.3439,0C31.18154,18.70355,27,20.87319,27,25.44922c0,4.54533,4.8629,5.35664,7.44868,1.88332a.23075.23075,0,0,1,.37115,0c2.58563,3.47332,7.44868,2.662,7.44868-1.88332,0-4.576-4.18162-6.74568-7.46234-10.39065"/><path d="M34.51347,26.10631a12.227,12.227,0,0,1-2.93529,6.421.12226.12226,0,0,0,.08989.20565h5.93229a.12228.12228,0,0,0,.08989-.20565,12.227,12.227,0,0,1-2.93529-6.421.12209.12209,0,0,0-.2415,0"/></g></g><g class="4f713ff7-dd40-40c2-9f48-f67238c9a14d"><g class="1f93fce9-dfb7-4c6c-b8d1-bfcd1486d963"><path d="M50.17191,66.90474a.23089.23089,0,0,0-.3439,0c-3.28072,3.645-7.46227,5.81462-7.46227,10.39065,0,4.54533,4.8629,5.35664,7.44868,1.88332a.23075.23075,0,0,1,.37115,0c2.58563,3.47332,7.44868,2.662,7.44868-1.88332,0-4.576-4.18162-6.74568-7.46234-10.39065"/><path d="M49.87921,77.95247a12.227,12.227,0,0,1-2.93529,6.421.12226.12226,0,0,0,.08989.20565h5.93229a.12228.12228,0,0,0,.08989-.20565,12.227,12.227,0,0,1-2.93529-6.421.12209.12209,0,0,0-.2415,0"/></g></g><g class="492dcb1c-b35b-4288-b5f9-ad6089634c97"><g class="4d1ec6a2-30e6-4564-9bb6-01b79be7dc71"><path d="M65.19383,136.32285a.23089.23089,0,0,0,.3439,0C68.81846,132.67788,73,130.50823,73,125.9322c0-4.54533-4.8629-5.35664-7.44868-1.88332a.23075.23075,0,0,1-.37115,0c-2.58563-3.47332-7.44868-2.662-7.44868,1.88332,0,4.576,4.18162,6.74568,7.46234,10.39065"/><path d="M65.48653,125.27511a12.227,12.227,0,0,1,2.93529-6.421.12226.12226,0,0,0-.08989-.20565H62.39963a.12228.12228,0,0,0-.08989.20565,12.227,12.227,0,0,1,2.93529,6.421.12209.12209,0,0,0,.2415,0"/></g></g><g class="64dfaa6c-0960-4e78-816b-aa10821dc40a"><g class="7183c7a0-de3c-4ed4-85f7-2cfccf4fa3e9"><path d="M65.53765,15.05858a.23089.23089,0,0,0-.3439,0c-3.28072,3.645-7.46227,5.81462-7.46227,10.39065,0,4.54533,4.8629,5.35664,7.44868,1.88332a.23075.23075,0,0,1,.37115,0C68.13695,30.80587,73,29.99455,73,25.44922c0-4.576-4.18162-6.74568-7.46234-10.39065"/><path d="M65.245,26.10631a12.227,12.227,0,0,1-2.93529,6.421.12226.12226,0,0,0,.08989.20565h5.93229a.12228.12228,0,0,0,.08989-.20565,12.227,12.227,0,0,1-2.93529-6.421.12209.12209,0,0,0-.2415,0"/></g></g><g class="8f0118e2-e222-4cfe-9754-a9f896acf1e7"><g class="fa17ac71-23f6-4d85-b533-40d4f3dc0bf1"><path d="M34.46235,136.32285a.23089.23089,0,0,0,.3439,0c3.28072-3.645,7.46227-5.81462,7.46227-10.39065,0-4.54533-4.8629-5.35664-7.44868-1.88332a.23075.23075,0,0,1-.37115,0C31.86305,120.57556,27,121.38687,27,125.9322c0,4.576,4.18162,6.74568,7.46234,10.39065"/><path d="M34.755,125.27511a12.227,12.227,0,0,1,2.93529-6.421.12226.12226,0,0,0-.08989-.20565H31.66815a.12228.12228,0,0,0-.08989.20565,12.227,12.227,0,0,1,2.93529,6.421.12209.12209,0,0,0,.2415,0"/></g></g></svg>