<svg id="6e6e556f-b85f-4919-93c8-8be9dbcb06de" data-name="レイヤー 1" xmlns="http://www.w3.org/2000/svg" xmlns:xlink="http://www.w3.org/1999/xlink" viewBox="0 0 100 156"><defs><style>.\38 91a2728-5f37-4ebe-bb04-347c01b2792c{fill:none;}.b8e9ba77-ba76-46c7-95a9-a917fc7d7bf5{fill:#fff;}.\36 df168df-20d3-4d0f-84ce-1aabc2ec7f17{fill:#7f7f7f;}.\31 4c9b64d-0146-4389-b97d-86ee6f63c461{clip-path:url(#321d27bf-cd35-41e8-a6fc-c4dc8b843fa2);}.\30 9a17ad8-e34c-425c-9b99-d1cbbeef4423{clip-path:url(#55293e51-ce5c-4bae-9f3f-96828142e548);}.\37 8d2a653-3b16-424d-9730-af4827b6ca7c{clip-path:url(#8fe62c68-a0db-40d2-970a-cecc519cc114);}.\34 acfd40b-4c6d-4a58-9264-0c58918d595e{clip-path:url(#ceb16e30-4080-4f1c-b9fb-45c66e5e75e1);}.e86f1efb-a0c6-4339-a74a-0a8a744bc628{clip-path:url(#f28c8a96-bf49-4bb2-926f-660e02ae3aef);}.\39 fd2e9ed-bcd4-4416-80f9-32a4f19b63da{clip-path:url(#547a6a3e-fa59-4b4c-8896-f79e8bec2086);}.afd5ef80-3563-474f-a250-a6be8d438fd6{clip-path:url(#f465b466-0f1b-40d6-a198-bd757119be1e);}.\37 ab2ccaf-4a36-4fe9-aac8-960f2384b407{clip-path:url(#1c86750c-507c-45f2-8577-6902e7c0f7c3);}.\33 93e6882-54fd-4cc7-a889-6be391e628d3{clip-path:url(#03c55aec-0b83-47e7-8bbb-d9fa3efbb350);}.\39 da4ed62-86dc-4420-a25d-24cba23fdc47{clip-path:url(#038bbee7-0073-4e82-8bac-f7be6da46873);}.ca6069af-3800-4272-90c3-f3130d56e696{clip-path:url(#a6a1f706-6495-43d5-8176-ecbf3ca5f0a5);}.\37 b0142e4-9e4d-4517-9c55-fc00b04e033d{clip-path:url(#2fc34443-ef12-4e8f-adfc-01cd1f3be3bc);}.\36 ec57a85-f79d-4c9e-8783-63a71af840b1{clip-path:url(#3f40faf3-be8a-4f84-84b7-39d460fbb4e1);}.ac38799c-6039-4cb8-85c5-6a8b65ff9693{clip-path:url(#e386e087-2f4d-4fa7-89d4-386e94a4fb76);}.\34 862a550-5acd-4834-85b8-9376bc6362f4{clip-path:url(#00856d77-8dcd-4b6f-89cc-521a4af955a4);}.\32 de5f582-372a-4e22-97fa-56fcde356659{clip-path:url(#b2cc0493-108b-41b0-8516-83790284b1c9);}.e3e4eaef-6fff-4bc0-a750-3b5b37ce429b{clip-path:url(#7405b4bd-a79e-454b-a4dd-fead48c12c3e);}.\37 393ee39-985b-4e19-84d6-4d17e8cbd75a{clip-path:url(#51748d27-2603-4473-bfb0-588f23276b34);}</style><clipPath id="321d27bf-cd35-41e8-a6fc-c4dc8b843fa2"><rect class="891a2728-5f37-4ebe-bb04-347c01b2792c" width="29.91235" height="29.91235"/></clipPath><clipPath id="55293e51-ce5c-4bae-9f3f-96828142e548"><rect class="891a2728-5f37-4ebe-bb04-347c01b2792c" x="70.08765" y="126.08765" width="29.91235" height="29.91235"/></clipPath><clipPath id="8fe62c68-a0db-40d2-970a-cecc519cc114"><rect class="891a2728-5f37-4ebe-bb04-347c01b2792c" x="8.2462" y="29.91235" width="13.41995" height="15.62453"/></clipPath><clipPath id="ceb16e30-4080-4f1c-b9fb-45c66e5e75e1"><rect class="891a2728-5f37-4ebe-bb04-347c01b2792c" x="6.32111" y="29.04849" width="17.27228" height="17.27228"/></clipPath><clipPath id="f28c8a96-bf49-4bb2-926f-660e02ae3aef"><rect class="891a2728-5f37-4ebe-bb04-347c01b2792c" x="78.33385" y="110.46313" width="13.41995" height="15.62453"/></clipPath><clipPath id="547a6a3e-fa59-4b4c-8896-f79e8bec2086"><rect class="891a2728-5f37-4ebe-bb04-347c01b2792c" x="76.40661" y="109.67923" width="17.27228" height="17.27228"/></clipPath><clipPath id="f465b466-0f1b-40d6-a198-bd757119be1e"><rect class="891a2728-5f37-4ebe-bb04-347c01b2792c" x="27" y="14.95617" width="15.26852" height="17.77676"/></clipPath><clipPath id="1c86750c-507c-45f2-8577-6902e7c0f7c3"><rect class="891a2728-5f37-4ebe-bb04-347c01b2792c" x="24.80973" y="13.97332" width="19.65149" height="19.65149"/></clipPath><clipPath id="03c55aec-0b83-47e7-8bbb-d9fa3efbb350"><rect class="891a2728-5f37-4ebe-bb04-347c01b2792c" x="27" y="66.80233" width="15.26852" height="17.77676"/></clipPath><clipPath id="038bbee7-0073-4e82-8bac-f7be6da46873"><rect class="891a2728-5f37-4ebe-bb04-347c01b2792c" x="24.80973" y="65.81948" width="19.65149" height="19.65149"/></clipPath><clipPath id="a6a1f706-6495-43d5-8176-ecbf3ca5f0a5"><rect class="891a2728-5f37-4ebe-bb04-347c01b2792c" x="57.73148" y="118.64849" width="15.26852" height="17.77676"/></clipPath><clipPath id="2fc34443-ef12-4e8f-adfc-01cd1f3be3bc"><rect class="891a2728-5f37-4ebe-bb04-347c01b2792c" x="55.53878" y="117.75662" width="19.65149" height="19.65149"/></clipPath><clipPath id="3f40faf3-be8a-4f84-84b7-39d460fbb4e1"><rect class="891a2728-5f37-4ebe-bb04-347c01b2792c" x="57.73148" y="14.95617" width="15.26852" height="17.77676"/></clipPath><clipPath id="e386e087-2f4d-4fa7-89d4-386e94a4fb76"><rect class="891a2728-5f37-4ebe-bb04-347c01b2792c" x="55.54122" y="13.97332" width="19.65149" height="19.65149"/></clipPath><clipPath id="00856d77-8dcd-4b6f-89cc-521a4af955a4"><rect class="891a2728-5f37-4ebe-bb04-347c01b2792c" x="57.73148" y="66.80233" width="15.26852" height="17.77676"/></clipPath><clipPath id="b2cc0493-108b-41b0-8516-83790284b1c9"><rect class="891a2728-5f37-4ebe-bb04-347c01b2792c" x="55.54122" y="65.81948" width="19.65149" height="19.65149"/></clipPath><clipPath id="7405b4bd-a79e-454b-a4dd-fead48c12c3e"><rect class="891a2728-5f37-4ebe-bb04-347c01b2792c" x="27" y="118.64849" width="15.26852" height="17.77676"/></clipPath><clipPath id="51748d27-2603-4473-bfb0-588f23276b34"><rect class="891a2728-5f37-4ebe-bb04-347c01b2792c" x="24.80729" y="117.75662" width="19.65149" height="19.65149"/></clipPath></defs><title>6</title><rect class="b8e9ba77-ba76-46c7-95a9-a917fc7d7bf5" x="0.5" y="0.5" width="99" height="155" rx="5.5" ry="5.5"/><path class="6df168df-20d3-4d0f-84ce-1aabc2ec7f17" d="M94,1a5.00567,5.00567,0,0,1,5,5V150a5.00567,5.00567,0,0,1-5,5H6a5.00567,5.00567,0,0,1-5-5V6A5.00567,5.00567,0,0,1,6,1H94m0-1H6A6,6,0,0,0,0,6V150a6,6,0,0,0,6,6H94a6,6,0,0,0,6-6V6a6,6,0,0,0-6-6Z"/><g class="14c9b64d-0146-4389-b97d-86ee6f63c461"><g class="14c9b64d-0146-4389-b97d-86ee6f63c461"><path d="M18.71436,7.22559q-.30908-.08423-.645-.14014a5.01847,5.01847,0,0,0-.81348-.05615,4.11635,4.11635,0,0,0-1.96289.4624,5.42162,5.42162,0,0,0-1.54248,1.23389,7.7924,7.7924,0,0,0-1.14941,1.76709,13.30351,13.30351,0,0,0-.78516,2.061,14.59921,14.59921,0,0,0-.44873,2.08887,13.98575,13.98575,0,0,0-.14014,1.89307h.05566a7.43482,7.43482,0,0,1,.67334-.95361,4.862,4.862,0,0,1,3.8418-1.7666,7.47161,7.47161,0,0,1,1.68262.22461,5.33088,5.33088,0,0,1,1.80859.813,4.85291,4.85291,0,0,1,1.44434,1.6123,5.21251,5.21251,0,0,1,.58887,2.62207,7.284,7.284,0,0,1-.43457,2.56592,5.58823,5.58823,0,0,1-1.248,1.99121,5.37767,5.37767,0,0,1-1.96289,1.26172,7.24719,7.24719,0,0,1-2.58008.43506,6.78952,6.78952,0,0,1-2.32764-.40674A4.86145,4.86145,0,0,1,10.792,23.57422a6.90072,6.90072,0,0,1-1.35986-2.48145,12.04911,12.04911,0,0,1-.50488-3.74365,17.06708,17.06708,0,0,1,.54688-4.38867,11.46529,11.46529,0,0,1,1.59863-3.58984,7.69626,7.69626,0,0,1,2.60791-2.39746,7.008,7.008,0,0,1,3.5752-.84131q.47681,0,.71533.01416a2.53887,2.53887,0,0,1,.46289.06982l.42041.89746Zm.14014,12.45068a6.23056,6.23056,0,0,0-.8833-3.47705A2.98552,2.98552,0,0,0,15.293,14.853a3.43024,3.43024,0,0,0-1.52832.35059,3.61593,3.61593,0,0,0-1.23389.99561,5.08572,5.08572,0,0,0-.82715,1.52832,5.86833,5.86833,0,0,0-.30859,1.94873,6.53593,6.53593,0,0,0,.28076,1.96338,4.776,4.776,0,0,0,.78516,1.542,3.546,3.546,0,0,0,1.19141.99561,3.19164,3.19164,0,0,0,1.47266.35059,3.43519,3.43519,0,0,0,1.584-.35059,3.29425,3.29425,0,0,0,1.16406-.99561,4.70492,4.70492,0,0,0,.729-1.542A7.22369,7.22369,0,0,0,18.85449,19.67627Z"/></g></g><g class="09a17ad8-e34c-425c-9b99-d1cbbeef4423"><g class="09a17ad8-e34c-425c-9b99-d1cbbeef4423"><path d="M81.28613,148.77441a6.59176,6.59176,0,0,0,.64551.14063,5.06308,5.06308,0,0,0,.8125.05566,4.10819,4.10819,0,0,0,1.96289-.46289,5.42184,5.42184,0,0,0,1.543-1.2334,7.79994,7.79994,0,0,0,1.14941-1.7666,13.29725,13.29725,0,0,0,.78516-2.06152,14.698,14.698,0,0,0,.44922-2.08887,13.97067,13.97067,0,0,0,.13965-1.89355h-.05566a7.39941,7.39941,0,0,1-.67285.9541,4.92774,4.92774,0,0,1-2.20215,1.51367,4.89635,4.89635,0,0,1-1.63965.25293,7.46811,7.46811,0,0,1-1.68262-.22461,5.3315,5.3315,0,0,1-1.80957-.81348,4.85622,4.85622,0,0,1-1.44336-1.6123,5.20849,5.20849,0,0,1-.58984-2.62207,7.27212,7.27212,0,0,1,.43555-2.56543,5.58184,5.58184,0,0,1,1.24707-1.99121,5.37527,5.37527,0,0,1,1.96387-1.26172,7.24181,7.24181,0,0,1,2.5791-.43457,6.79183,6.79183,0,0,1,2.32813.40625,4.84554,4.84554,0,0,1,1.97656,1.36035,6.90866,6.90866,0,0,1,1.36035,2.48145,12.03356,12.03356,0,0,1,.50488,3.74414,17.06708,17.06708,0,0,1-.54687,4.38867,11.44352,11.44352,0,0,1-1.59863,3.58887,7.69733,7.69733,0,0,1-2.60742,2.39844,7.01023,7.01023,0,0,1-3.57617.84082q-.47607,0-.71484-.01367a2.59572,2.59572,0,0,1-.46289-.07031l-.4209-.89746Zm-.14062-12.45117a6.23118,6.23118,0,0,0,.88379,3.47754,2.98432,2.98432,0,0,0,2.67773,1.3457,3.41416,3.41416,0,0,0,1.52832-.35059,3.60127,3.60127,0,0,0,1.23438-.99512,5.09163,5.09163,0,0,0,.82715-1.52832,5.86716,5.86716,0,0,0,.30859-1.94922,6.5709,6.5709,0,0,0-.28027-1.96289,4.79043,4.79043,0,0,0-.78516-1.542,3.55739,3.55739,0,0,0-1.19238-.99609,3.1952,3.1952,0,0,0-1.47168-.35059,3.44691,3.44691,0,0,0-1.585.35059,3.2941,3.2941,0,0,0-1.16309.99609,4.69108,4.69108,0,0,0-.72949,1.542A7.24646,7.24646,0,0,0,81.14551,136.32324Z"/></g></g><g class="78d2a653-3b16-424d-9730-af4827b6ca7c"><g class="4acfd40b-4c6d-4a58-9264-0c58918d595e"><path d="M15.10727,30.00235a.20294.20294,0,0,0-.30227,0C11.92148,33.206,8.2462,35.113,8.2462,39.135c0,3.995,4.27415,4.70811,6.54687,1.65531a.20281.20281,0,0,1,.32622,0c2.27259,3.05281,6.54687,2.33972,6.54687-1.65531,0-4.022-3.67535-5.929-6.55888-9.13265"/><path d="M14.85,39.71254a10.74666,10.74666,0,0,1-2.57991,5.64358.10746.10746,0,0,0,.079.18075h5.21407a.10747.10747,0,0,0,.079-.18075,10.74666,10.74666,0,0,1-2.57991-5.64358.10731.10731,0,0,0-.21226,0"/></g></g><g class="e86f1efb-a0c6-4339-a74a-0a8a744bc628"><g class="9fd2e9ed-bcd4-4416-80f9-32a4f19b63da"><path d="M84.89273,125.99765a.20294.20294,0,0,0,.30227,0c2.88353-3.20367,6.55881-5.11064,6.55881-9.13265,0-3.995-4.27415-4.70811-6.54687-1.65531a.20281.20281,0,0,1-.32622,0c-2.27259-3.05281-6.54687-2.33972-6.54687,1.65531,0,4.022,3.67535,5.929,6.55888,9.13265"/><path d="M85.15,116.28746a10.74666,10.74666,0,0,1,2.57991-5.64358.10746.10746,0,0,0-.079-.18075H82.43683a.10747.10747,0,0,0-.079.18075,10.74666,10.74666,0,0,1,2.57991,5.64358.10731.10731,0,0,0,.21226,0"/></g></g><g class="afd5ef80-3563-474f-a250-a6be8d438fd6"><g class="7ab2ccaf-4a36-4fe9-aac8-960f2384b407"><path d="M34.80617,15.05858a.23089.23089,0,0,0-.3439,0C31.18154,18.70355,27,20.87319,27,25.44922c0,4.54533,4.8629,5.35664,7.44868,1.88332a.23075.23075,0,0,1,.37115,0c2.58563,3.47332,7.44868,2.662,7.44868-1.88332,0-4.576-4.18162-6.74568-7.46234-10.39065"/><path d="M34.51347,26.10631a12.227,12.227,0,0,1-2.93529,6.421.12226.12226,0,0,0,.08989.20565h5.93229a.12228.12228,0,0,0,.08989-.20565,12.227,12.227,0,0,1-2.93529-6.421.12209.12209,0,0,0-.2415,0"/></g></g><g class="393e6882-54fd-4cc7-a889-6be391e628d3"><g class="9da4ed62-86dc-4420-a25d-24cba23fdc47"><path d="M34.80617,66.90474a.23089.23089,0,0,0-.3439,0C31.18154,70.5497,27,72.71935,27,77.29538c0,4.54533,4.8629,5.35664,7.44868,1.88332a.23075.23075,0,0,1,.37115,0c2.58563,3.47332,7.44868,2.662,7.44868-1.88332,0-4.576-4.18162-6.74568-7.46234-10.39065"/><path d="M34.51347,77.95247a12.227,12.227,0,0,1-2.93529,6.421.12226.12226,0,0,0,.08989.20565h5.93229a.12228.12228,0,0,0,.08989-.20565,12.227,12.227,0,0,1-2.93529-6.421.12209.12209,0,0,0-.2415,0"/></g></g><g class="ca6069af-3800-4272-90c3-f3130d56e696"><g class="7b0142e4-9e4d-4517-9c55-fc00b04e033d"><path d="M65.19383,136.32285a.23089.23089,0,0,0,.3439,0C68.81846,132.67788,73,130.50823,73,125.9322c0-4.54533-4.8629-5.35664-7.44868-1.88332a.23075.23075,0,0,1-.37115,0c-2.58563-3.47332-7.44868-2.662-7.44868,1.88332,0,4.576,4.18162,6.74568,7.46234,10.39065"/><path d="M65.48653,125.27511a12.227,12.227,0,0,1,2.93529-6.421.12226.12226,0,0,0-.08989-.20565H62.39963a.12228.12228,0,0,0-.08989.20565,12.227,12.227,0,0,1,2.93529,6.421.12209.12209,0,0,0,.2415,0"/></g></g><g class="6ec57a85-f79d-4c9e-8783-63a71af840b1"><g class="ac38799c-6039-4cb8-85c5-6a8b65ff9693"><path d="M65.53765,15.05858a.23089.23089,0,0,0-.3439,0c-3.28072,3.645-7.46227,5.81462-7.46227,10.39065,0,4.54533,4.8629,5.35664,7.44868,1.88332a.23075.23075,0,0,1,.37115,0C68.13695,30.80587,73,29.99455,73,25.44922c0-4.576-4.18162-6.74568-7.46234-10.39065"/><path d="M65.245,26.10631a12.227,12.227,0,0,1-2.93529,6.421.12226.12226,0,0,0,.08989.20565h5.93229a.12228.12228,0,0,0,.08989-.20565,12.227,12.227,0,0,1-2.93529-6.421.12209.12209,0,0,0-.2415,0"/></g></g><g class="4862a550-5acd-4834-85b8-9376bc6362f4"><g class="2de5f582-372a-4e22-97fa-56fcde356659"><path d="M65.53765,66.90474a.23089.23089,0,0,0-.3439,0c-3.28072,3.645-7.46227,5.81462-7.46227,10.39065,0,4.54533,4.8629,5.35664,7.44868,1.88332a.23075.23075,0,0,1,.37115,0C68.13695,82.652,73,81.84071,73,77.29538c0-4.576-4.18162-6.74568-7.46234-10.39065"/><path d="M65.245,77.95247a12.227,12.227,0,0,1-2.93529,6.421.12226.12226,0,0,0,.08989.20565h5.93229a.12228.12228,0,0,0,.08989-.20565,12.227,12.227,0,0,1-2.93529-6.421.12209.12209,0,0,0-.2415,0"/></g></g><g class="e3e4eaef-6fff-4bc0-a750-3b5b37ce429b"><g class="7393ee39-985b-4e19-84d6-4d17e8cbd75a"><path d="M34.46235,136.32285a.23089.23089,0,0,0,.3439,0c3.28072-3.645,7.46227-5.81462,7.46227-10.39065,0-4.54533-4.8629-5.35664-7.44868-1.88332a.23075.23075,0,0,1-.37115,0C31.86305,120.57556,27,121.38687,27,125.9322c0,4.576,4.18162,6.74568,7.46234,10.39065"/><path d="M34.755,125.27511a12.227,12.227,0,0,1,2.93529-6.421.12226.12226,0,0,0-.08989-.20565H31.66815a.12228.12228,0,0,0-.08989.20565,12.227,12.227,0,0,1,2.93529,6.421.12209.12209,0,0,0,.2415,0"/></g></g></svg>