<svg id="6c80659a-0cb1-454b-9a07-bf207fb72013" data-name="レイヤー 1" xmlns="http://www.w3.org/2000/svg" xmlns:xlink="http://www.w3.org/1999/xlink" viewBox="0 0 100 156"><defs><style>.\32 06bce30-20f6-48ba-ab1c-f793c7fbf9dd{fill:none;}.a763fa72-0ff6-4066-ac1d-d6fe208b2995{fill:#fff;}.bf9bbf5c-c257-4252-acc9-e54de7868726{fill:#7f7f7f;}.c26f90be-e8fe-43e5-ac11-58ea08eaa687{clip-path:url(#51b0f14b-7f10-4425-96c3-5ce092345a97);}.\33 27e3286-04d7-4b18-9d1d-cf077bf4bd3a{clip-path:url(#3122051c-7d61-4deb-a267-f70cbef872bc);}.\36 0322831-da85-4e67-aa90-f384c8ab8881{clip-path:url(#edafdaf9-bb05-4399-b26d-1761b34b1be0);}.\38 dc85563-7766-4ff6-a13d-ac387d36cbb1{clip-path:url(#1959d621-ab42-4839-9424-de51313d4950);}.\30 5b61887-dab3-428b-bc14-e4da4caf3f28{clip-path:url(#c7c963f1-cc92-4c64-9889-4c06f00e6cd9);}.e451123b-8c1c-4a5e-a85d-36c61c190715{clip-path:url(#35493672-d8a8-40c1-95ba-7bc8f3040b4e);}.\31 c73fcee-8b1e-4ad0-a978-13beb421fb26{clip-path:url(#37545753-b762-4cfa-bf62-af3b3f541256);}.be9756b0-4c34-43c0-87e8-e49987836d00{clip-path:url(#4e683333-1827-48fd-a0cc-e808b3ec0356);}.\36 039c877-0417-401e-b250-710d98255e8a{clip-path:url(#4268561b-482f-4d67-aa27-1c247aae8791);}.d9fe2529-2301-4839-a5db-3e99c98b0147{clip-path:url(#b24eafa2-ac2a-40a4-860d-e3b35fd6a426);}.\36 9d548b3-46df-448f-a2f6-70f88597ffb5{clip-path:url(#30c7f3bf-91fd-487b-b9f8-07f3f77466cb);}.cef81f30-c8b2-49d3-b58e-389b8f43f3ee{clip-path:url(#2ec72cb5-77c8-45c9-b8b8-a8052d24e749);}.a4aa0676-427b-4469-bb02-b17b77d4f211{clip-path:url(#a1892990-903b-4af3-a870-6666e53e7f01);}.ff8e5d9c-bc4d-4579-9a80-6f07e822533c{clip-path:url(#4e06446b-6f88-4a0b-8f04-e104b493fe57);}.b71f38d1-057a-420a-8f9c-c3ba1090f359{clip-path:url(#7d6feb59-ab75-4042-8239-6ecc4cbff16b);}.fcecd5ce-583c-41c4-b687-d936f85328ce{clip-path:url(#4bab9cbf-3a0d-46a4-8d33-670da4b3cc19);}.\35 3f01208-5378-4f4e-b507-3011780808aa{clip-path:url(#823aa24c-6d1c-4f78-b2bb-714cf2cc03c6);}.ad574bcb-233b-4179-9b05-fd0fdaf40375{clip-path:url(#63e1b6ba-a3db-40f3-ba94-4f586ba24ca8);}.\35 2d84e16-c809-46b0-804d-e2fef563da43{clip-path:url(#e76c6742-9f26-4702-b631-4aa812207ed9);}.\38 d4b03c7-1daa-4756-864a-cce24ff8ef7a{clip-path:url(#19e9400f-66c7-41ed-b024-b6b036e55b8e);}</style><clipPath id="51b0f14b-7f10-4425-96c3-5ce092345a97"><rect class="206bce30-20f6-48ba-ab1c-f793c7fbf9dd" width="29.91235" height="29.91235"/></clipPath><clipPath id="3122051c-7d61-4deb-a267-f70cbef872bc"><rect class="206bce30-20f6-48ba-ab1c-f793c7fbf9dd" x="70.08765" y="126.08765" width="29.91235" height="29.91235"/></clipPath><clipPath id="edafdaf9-bb05-4399-b26d-1761b34b1be0"><rect class="206bce30-20f6-48ba-ab1c-f793c7fbf9dd" x="8.2462" y="29.91235" width="13.41995" height="15.62453"/></clipPath><clipPath id="1959d621-ab42-4839-9424-de51313d4950"><rect class="206bce30-20f6-48ba-ab1c-f793c7fbf9dd" x="6.32111" y="29.04849" width="17.27228" height="17.27228"/></clipPath><clipPath id="c7c963f1-cc92-4c64-9889-4c06f00e6cd9"><rect class="206bce30-20f6-48ba-ab1c-f793c7fbf9dd" x="78.33385" y="110.46313" width="13.41995" height="15.62453"/></clipPath><clipPath id="35493672-d8a8-40c1-95ba-7bc8f3040b4e"><rect class="206bce30-20f6-48ba-ab1c-f793c7fbf9dd" x="76.40661" y="109.67923" width="17.27228" height="17.27228"/></clipPath><clipPath id="37545753-b762-4cfa-bf62-af3b3f541256"><rect class="206bce30-20f6-48ba-ab1c-f793c7fbf9dd" x="27" y="14.95617" width="15.26852" height="17.77676"/></clipPath><clipPath id="4e683333-1827-48fd-a0cc-e808b3ec0356"><rect class="206bce30-20f6-48ba-ab1c-f793c7fbf9dd" x="24.80973" y="13.97332" width="19.65149" height="19.65149"/></clipPath><clipPath id="4268561b-482f-4d67-aa27-1c247aae8791"><rect class="206bce30-20f6-48ba-ab1c-f793c7fbf9dd" x="27" y="66.80233" width="15.26852" height="17.77676"/></clipPath><clipPath id="b24eafa2-ac2a-40a4-860d-e3b35fd6a426"><rect class="206bce30-20f6-48ba-ab1c-f793c7fbf9dd" x="24.80973" y="65.81948" width="19.65149" height="19.65149"/></clipPath><clipPath id="30c7f3bf-91fd-487b-b9f8-07f3f77466cb"><rect class="206bce30-20f6-48ba-ab1c-f793c7fbf9dd" x="57.73148" y="118.64849" width="15.26852" height="17.77676"/></clipPath><clipPath id="2ec72cb5-77c8-45c9-b8b8-a8052d24e749"><rect class="206bce30-20f6-48ba-ab1c-f793c7fbf9dd" x="55.53878" y="117.75662" width="19.65149" height="19.65149"/></clipPath><clipPath id="a1892990-903b-4af3-a870-6666e53e7f01"><rect class="206bce30-20f6-48ba-ab1c-f793c7fbf9dd" x="42.36617" y="40.87881" width="15.26852" height="17.77676"/></clipPath><clipPath id="4e06446b-6f88-4a0b-8f04-e104b493fe57"><rect class="206bce30-20f6-48ba-ab1c-f793c7fbf9dd" x="40.1759" y="39.89596" width="19.65149" height="19.65149"/></clipPath><clipPath id="7d6feb59-ab75-4042-8239-6ecc4cbff16b"><rect class="206bce30-20f6-48ba-ab1c-f793c7fbf9dd" x="57.73148" y="14.95617" width="15.26852" height="17.77676"/></clipPath><clipPath id="4bab9cbf-3a0d-46a4-8d33-670da4b3cc19"><rect class="206bce30-20f6-48ba-ab1c-f793c7fbf9dd" x="55.54122" y="13.97332" width="19.65149" height="19.65149"/></clipPath><clipPath id="823aa24c-6d1c-4f78-b2bb-714cf2cc03c6"><rect class="206bce30-20f6-48ba-ab1c-f793c7fbf9dd" x="57.73148" y="66.80233" width="15.26852" height="17.77676"/></clipPath><clipPath id="63e1b6ba-a3db-40f3-ba94-4f586ba24ca8"><rect class="206bce30-20f6-48ba-ab1c-f793c7fbf9dd" x="55.54122" y="65.81948" width="19.65149" height="19.65149"/></clipPath><clipPath id="e76c6742-9f26-4702-b631-4aa812207ed9"><rect class="206bce30-20f6-48ba-ab1c-f793c7fbf9dd" x="27" y="118.64849" width="15.26852" height="17.77676"/></clipPath><clipPath id="19e9400f-66c7-41ed-b024-b6b036e55b8e"><rect class="206bce30-20f6-48ba-ab1c-f793c7fbf9dd" x="24.80729" y="117.75662" width="19.65149" height="19.65149"/></clipPath></defs><title>7</title><rect class="a763fa72-0ff6-4066-ac1d-d6fe208b2995" x="0.5" y="0.5" width="99" height="155" rx="5.5" ry="5.5"/><path class="bf9bbf5c-c257-4252-acc9-e54de7868726" d="M94,1a5.00567,5.00567,0,0,1,5,5V150a5.00567,5.00567,0,0,1-5,5H6a5.00567,5.00567,0,0,1-5-5V6A5.00567,5.00567,0,0,1,6,1H94m0-1H6A6,6,0,0,0,0,6V150a6,6,0,0,0,6,6H94a6,6,0,0,0,6-6V6a6,6,0,0,0-6-6Z"/><g class="c26f90be-e8fe-43e5-ac11-58ea08eaa687"><g class="c26f90be-e8fe-43e5-ac11-58ea08eaa687"><path d="M16.23242,15.93262q-2.59424,4.61353-4.89355,9.1001a8.69281,8.69281,0,0,0-1.06543-.05615,8.60484,8.60484,0,0,0-1.00977.05615q1.31836-2.04712,2.76221-4.417,1.44434-2.36938,2.79053-4.627,1.34619-2.25659,2.49561-4.22021,1.1499-1.96289,1.87891-3.25293-1.262,0-3.71582.02783-2.45361.02856-6.0708.25244a6.50937,6.50937,0,0,0,.11182-1.26221A6.35528,6.35528,0,0,0,9.4043,6.2998q1.17773.08423,2.08887.14063t1.69678.084q.64453,0,1.78076.02783,1.13525.02856,2.20117.02832h1.31787q.86938,0,1.51465-.01416.64453-.01392,1.374-.01416V7.001Q18.82593,11.32007,16.23242,15.93262Z"/></g></g><g class="327e3286-04d7-4b18-9d1d-cf077bf4bd3a"><g class="327e3286-04d7-4b18-9d1d-cf077bf4bd3a"><path d="M83.76758,140.06738q2.59424-4.61279,4.89355-9.09961a8.82406,8.82406,0,0,0,1.06641.05566,8.70408,8.70408,0,0,0,1.00879-.05566q-1.31689,2.04639-2.76172,4.416-1.44434,2.37012-2.79,4.627-1.34619,2.25732-2.49609,4.2207-1.1499,1.96289-1.87891,3.25293,1.26123,0,3.71582-.02832,2.45361-.02783,6.07129-.252a6.4334,6.4334,0,0,0-.1123,1.26172,6.27282,6.27282,0,0,0,.1123,1.23438q-1.17773-.085-2.08984-.14062-.90967-.05566-1.69629-.084-.64453,0-1.78027-.02832-1.13672-.02783-2.20215-.02734H81.51074q-.86865,0-1.51465.01367-.64453.01318-1.374.01367V148.999Q81.17383,144.68066,83.76758,140.06738Z"/></g></g><g class="60322831-da85-4e67-aa90-f384c8ab8881"><g class="8dc85563-7766-4ff6-a13d-ac387d36cbb1"><path d="M15.10727,30.00235a.20294.20294,0,0,0-.30227,0C11.92148,33.206,8.2462,35.113,8.2462,39.135c0,3.995,4.27415,4.70811,6.54687,1.65531a.20281.20281,0,0,1,.32622,0c2.27259,3.05281,6.54687,2.33972,6.54687-1.65531,0-4.022-3.67535-5.929-6.55888-9.13265"/><path d="M14.85,39.71254a10.74666,10.74666,0,0,1-2.57991,5.64358.10746.10746,0,0,0,.079.18075h5.21407a.10747.10747,0,0,0,.079-.18075,10.74666,10.74666,0,0,1-2.57991-5.64358.10731.10731,0,0,0-.21226,0"/></g></g><g class="05b61887-dab3-428b-bc14-e4da4caf3f28"><g class="e451123b-8c1c-4a5e-a85d-36c61c190715"><path d="M84.89273,125.99765a.20294.20294,0,0,0,.30227,0c2.88353-3.20367,6.55881-5.11064,6.55881-9.13265,0-3.995-4.27415-4.70811-6.54687-1.65531a.20281.20281,0,0,1-.32622,0c-2.27259-3.05281-6.54687-2.33972-6.54687,1.65531,0,4.022,3.67535,5.929,6.55888,9.13265"/><path d="M85.15,116.28746a10.74666,10.74666,0,0,1,2.57991-5.64358.10746.10746,0,0,0-.079-.18075H82.43683a.10747.10747,0,0,0-.079.18075,10.74666,10.74666,0,0,1,2.57991,5.64358.10731.10731,0,0,0,.21226,0"/></g></g><g class="1c73fcee-8b1e-4ad0-a978-13beb421fb26"><g class="be9756b0-4c34-43c0-87e8-e49987836d00"><path d="M34.80617,15.05858a.23089.23089,0,0,0-.3439,0C31.18154,18.70355,27,20.87319,27,25.44922c0,4.54533,4.8629,5.35664,7.44868,1.88332a.23075.23075,0,0,1,.37115,0c2.58563,3.47332,7.44868,2.662,7.44868-1.88332,0-4.576-4.18162-6.74568-7.46234-10.39065"/><path d="M34.51347,26.10631a12.227,12.227,0,0,1-2.93529,6.421.12226.12226,0,0,0,.08989.20565h5.93229a.12228.12228,0,0,0,.08989-.20565,12.227,12.227,0,0,1-2.93529-6.421.12209.12209,0,0,0-.2415,0"/></g></g><g class="6039c877-0417-401e-b250-710d98255e8a"><g class="d9fe2529-2301-4839-a5db-3e99c98b0147"><path d="M34.80617,66.90474a.23089.23089,0,0,0-.3439,0C31.18154,70.5497,27,72.71935,27,77.29538c0,4.54533,4.8629,5.35664,7.44868,1.88332a.23075.23075,0,0,1,.37115,0c2.58563,3.47332,7.44868,2.662,7.44868-1.88332,0-4.576-4.18162-6.74568-7.46234-10.39065"/><path d="M34.51347,77.95247a12.227,12.227,0,0,1-2.93529,6.421.12226.12226,0,0,0,.08989.20565h5.93229a.12228.12228,0,0,0,.08989-.20565,12.227,12.227,0,0,1-2.93529-6.421.12209.12209,0,0,0-.2415,0"/></g></g><g class="69d548b3-46df-448f-a2f6-70f88597ffb5"><g class="cef81f30-c8b2-49d3-b58e-389b8f43f3ee"><path d="M65.19383,136.32285a.23089.23089,0,0,0,.3439,0C68.81846,132.67788,73,130.50823,73,125.9322c0-4.54533-4.8629-5.35664-7.44868-1.88332a.23075.23075,0,0,1-.37115,0c-2.58563-3.47332-7.44868-2.662-7.44868,1.88332,0,4.576,4.18162,6.74568,7.46234,10.39065"/><path d="M65.48653,125.27511a12.227,12.227,0,0,1,2.93529-6.421.12226.12226,0,0,0-.08989-.20565H62.39963a.12228.12228,0,0,0-.08989.20565,12.227,12.227,0,0,1,2.93529,6.421.12209.12209,0,0,0,.2415,0"/></g></g><g class="a4aa0676-427b-4469-bb02-b17b77d4f211"><g class="ff8e5d9c-bc4d-4579-9a80-6f07e822533c"><path d="M50.17234,40.98122a.23089.23089,0,0,0-.3439,0c-3.28072,3.645-7.46227,5.81462-7.46227,10.39065,0,4.54533,4.8629,5.35664,7.44868,1.88332a.23075.23075,0,0,1,.37115,0c2.58563,3.47332,7.44868,2.662,7.44868-1.88332,0-4.576-4.18162-6.74568-7.46234-10.39065"/><path d="M49.87964,52.029a12.227,12.227,0,0,1-2.93529,6.421.12226.12226,0,0,0,.08989.20565h5.93229a.12228.12228,0,0,0,.08989-.20565,12.227,12.227,0,0,1-2.93529-6.421.12209.12209,0,0,0-.2415,0"/></g></g><g class="b71f38d1-057a-420a-8f9c-c3ba1090f359"><g class="fcecd5ce-583c-41c4-b687-d936f85328ce"><path d="M65.53765,15.05858a.23089.23089,0,0,0-.3439,0c-3.28072,3.645-7.46227,5.81462-7.46227,10.39065,0,4.54533,4.8629,5.35664,7.44868,1.88332a.23075.23075,0,0,1,.37115,0C68.13695,30.80587,73,29.99455,73,25.44922c0-4.576-4.18162-6.74568-7.46234-10.39065"/><path d="M65.245,26.10631a12.227,12.227,0,0,1-2.93529,6.421.12226.12226,0,0,0,.08989.20565h5.93229a.12228.12228,0,0,0,.08989-.20565,12.227,12.227,0,0,1-2.93529-6.421.12209.12209,0,0,0-.2415,0"/></g></g><g class="53f01208-5378-4f4e-b507-3011780808aa"><g class="ad574bcb-233b-4179-9b05-fd0fdaf40375"><path d="M65.53765,66.90474a.23089.23089,0,0,0-.3439,0c-3.28072,3.645-7.46227,5.81462-7.46227,10.39065,0,4.54533,4.8629,5.35664,7.44868,1.88332a.23075.23075,0,0,1,.37115,0C68.13695,82.652,73,81.84071,73,77.29538c0-4.576-4.18162-6.74568-7.46234-10.39065"/><path d="M65.245,77.95247a12.227,12.227,0,0,1-2.93529,6.421.12226.12226,0,0,0,.08989.20565h5.93229a.12228.12228,0,0,0,.08989-.20565,12.227,12.227,0,0,1-2.93529-6.421.12209.12209,0,0,0-.2415,0"/></g></g><g class="52d84e16-c809-46b0-804d-e2fef563da43"><g class="8d4b03c7-1daa-4756-864a-cce24ff8ef7a"><path d="M34.46235,136.32285a.23089.23089,0,0,0,.3439,0c3.28072-3.645,7.46227-5.81462,7.46227-10.39065,0-4.54533-4.8629-5.35664-7.44868-1.88332a.23075.23075,0,0,1-.37115,0C31.86305,120.57556,27,121.38687,27,125.9322c0,4.576,4.18162,6.74568,7.46234,10.39065"/><path d="M34.755,125.27511a12.227,12.227,0,0,1,2.93529-6.421.12226.12226,0,0,0-.08989-.20565H31.66815a.12228.12228,0,0,0-.08989.20565,12.227,12.227,0,0,1,2.93529,6.421.12209.12209,0,0,0,.2415,0"/></g></g></svg>