<svg id="1b81be25-f956-4abb-b8f6-3d7b11c7aceb" data-name="レイヤー 1" xmlns="http://www.w3.org/2000/svg" xmlns:xlink="http://www.w3.org/1999/xlink" viewBox="0 0 100 156"><defs><style>.\34 5e5b780-fbc6-4bd6-8608-9a5bfa42be33{fill:none;}.\31 b686ac3-801a-422c-9bdb-4e543b416c15{fill:#fff;}.e99cd650-a5b9-4b3c-8e4e-153c639e88f7{fill:#7f7f7f;}.\33 a2dc10f-b3d5-4bdf-bfd9-8f767c499e22{clip-path:url(#e550d2d2-10b3-4b79-937b-846d41656f36);}.a2f3468d-f969-4e60-aa7e-8573f1815843{clip-path:url(#06996e5a-4eb5-4328-a880-36909b3e50c5);}.dc1fbc21-30dd-44c5-a836-25e8fa844812{clip-path:url(#b4602921-899e-4a78-a630-1257e197f073);}.d279cb5b-8e18-4294-ab5a-1e89646e32bf{clip-path:url(#112421fd-66d8-4866-b256-0d08761790bc);}.afe52450-ed0d-4d92-b951-f751f7829657{clip-path:url(#6323121d-399a-4636-88d5-12fc06d0db94);}.\39 c0571b5-a394-40db-991d-34d6b56c7c46{clip-path:url(#dc3a91c0-e678-4e26-b9d1-a88bdd37d4e4);}.a4b4567d-81a6-43e3-af1d-832df66c9387{clip-path:url(#25862c21-f4f3-421b-8d53-d866dfd8669b);}.b659d446-7615-4121-8883-3cf54207bd52{clip-path:url(#4a751ab9-c6bc-48ae-9e2a-6d6b5f3a92c7);}</style><clipPath id="e550d2d2-10b3-4b79-937b-846d41656f36"><rect class="45e5b780-fbc6-4bd6-8608-9a5bfa42be33" width="29.91235" height="29.91235"/></clipPath><clipPath id="06996e5a-4eb5-4328-a880-36909b3e50c5"><rect class="45e5b780-fbc6-4bd6-8608-9a5bfa42be33" x="70.08765" y="126.08765" width="29.91235" height="29.91235"/></clipPath><clipPath id="b4602921-899e-4a78-a630-1257e197f073"><rect class="45e5b780-fbc6-4bd6-8608-9a5bfa42be33" x="8.2462" y="29.91235" width="13.41995" height="15.62453"/></clipPath><clipPath id="112421fd-66d8-4866-b256-0d08761790bc"><rect class="45e5b780-fbc6-4bd6-8608-9a5bfa42be33" x="6.32111" y="29.04849" width="17.27228" height="17.27228"/></clipPath><clipPath id="6323121d-399a-4636-88d5-12fc06d0db94"><rect class="45e5b780-fbc6-4bd6-8608-9a5bfa42be33" x="78.33385" y="110.46313" width="13.41995" height="15.62453"/></clipPath><clipPath id="dc3a91c0-e678-4e26-b9d1-a88bdd37d4e4"><rect class="45e5b780-fbc6-4bd6-8608-9a5bfa42be33" x="76.40661" y="109.67923" width="17.27228" height="17.27228"/></clipPath><clipPath id="25862c21-f4f3-421b-8d53-d866dfd8669b"><rect class="45e5b780-fbc6-4bd6-8608-9a5bfa42be33" x="42.36574" y="69.11162" width="15.26852" height="17.77676"/></clipPath><clipPath id="4a751ab9-c6bc-48ae-9e2a-6d6b5f3a92c7"><rect class="45e5b780-fbc6-4bd6-8608-9a5bfa42be33" x="40.17548" y="68.12876" width="19.65149" height="19.65149"/></clipPath></defs><title>A</title><rect class="1b686ac3-801a-422c-9bdb-4e543b416c15" x="0.5" y="0.5" width="99" height="155" rx="5.5" ry="5.5"/><path class="e99cd650-a5b9-4b3c-8e4e-153c639e88f7" d="M94,1a5.00567,5.00567,0,0,1,5,5V150a5.00567,5.00567,0,0,1-5,5H6a5.00567,5.00567,0,0,1-5-5V6A5.00567,5.00567,0,0,1,6,1H94m0-1H6A6,6,0,0,0,0,6V150a6,6,0,0,0,6,6H94a6,6,0,0,0,6-6V6a6,6,0,0,0-6-6Z"/><g class="3a2dc10f-b3d5-4bdf-bfd9-8f767c499e22"><g class="3a2dc10f-b3d5-4bdf-bfd9-8f767c499e22"><path d="M23.98682,25.03271a5.24335,5.24335,0,0,0-.74316-.05615H21.75732a5.23279,5.23279,0,0,0-.74316.05615q-.19629-.64453-.53271-1.55664-.33691-.9104-.74316-1.90674-.40723-.99536-.82764-2.019-.42041-1.02319-.78516-1.94922-.89722-.0271-1.82275-.042-.925-.01392-1.85059-.01367-.86938,0-1.71094.01367-.84082.01465-1.71045.042-.89795,2.18774-1.62646,4.16455-.72949,1.97681-1.09375,3.26709a8.86418,8.86418,0,0,0-1.0376-.05615,8.86418,8.86418,0,0,0-1.0376.05615q2.272-4.90723,4.43115-9.75879Q12.825,10.42236,15.0127,5.40283h.5332q.6731,1.62671,1.458,3.519.78516,1.89331,1.59863,3.82813.813,1.93506,1.62646,3.8418.813,1.90723,1.52832,3.54736.71484,1.64063,1.29,2.93066Q23.62158,24.35962,23.98682,25.03271ZM11.56348,16.31152q.72949,0,1.51465.02783.78442.02856,1.51416.02783.78442,0,1.57031-.01367.78516-.01392,1.57031-.042l-3.11279-7.123Z"/></g></g><g class="a2f3468d-f969-4e60-aa7e-8573f1815843"><g class="a2f3468d-f969-4e60-aa7e-8573f1815843"><path d="M76.01465,130.96777a5.30744,5.30744,0,0,0,.74316.05566h1.48633a5.30744,5.30744,0,0,0,.74316-.05566q.19629.64453.53223,1.55566.33691.91113.74316,1.90723.40723.99463.82715,2.01953.42041,1.02246.78516,1.94824.89795.02783,1.82324.042.92578.01465,1.85059.01465c.58008,0,1.14941-.00488,1.71094-.01465q.84082-.01465,1.71-.042.89795-2.187,1.627-4.16406.72949-1.97754,1.09375-3.2666a9.69842,9.69842,0,0,0,2.0752,0q-2.272,4.90576-4.43066,9.75879-2.15918,4.8501-4.34668,9.87109h-.5332q-.67236-1.62744-1.458-3.51953-.78516-1.89258-1.59863-3.82812-.813-1.93506-1.626-3.8418-.813-1.90723-1.52832-3.54785-.71631-1.63916-1.29-2.92969Q76.37988,131.64014,76.01465,130.96777Zm12.42285,8.7207q-.72949,0-1.51465-.02832-.78516-.02783-1.51367-.02734-.78516,0-1.57129.01367-.78369.01465-1.57031.042l3.11328,7.123Z"/></g></g><g class="dc1fbc21-30dd-44c5-a836-25e8fa844812"><g class="d279cb5b-8e18-4294-ab5a-1e89646e32bf"><path d="M15.10727,30.00235a.20294.20294,0,0,0-.30227,0C11.92148,33.206,8.2462,35.113,8.2462,39.135c0,3.995,4.27415,4.70811,6.54687,1.65531a.20281.20281,0,0,1,.32622,0c2.27259,3.05281,6.54687,2.33972,6.54687-1.65531,0-4.022-3.67535-5.929-6.55888-9.13265"/><path d="M14.85,39.71254a10.74666,10.74666,0,0,1-2.57991,5.64358.10746.10746,0,0,0,.079.18075h5.21407a.10747.10747,0,0,0,.079-.18075,10.74666,10.74666,0,0,1-2.57991-5.64358.10731.10731,0,0,0-.21226,0"/></g></g><g class="afe52450-ed0d-4d92-b951-f751f7829657"><g class="9c0571b5-a394-40db-991d-34d6b56c7c46"><path d="M84.89273,125.99765a.20294.20294,0,0,0,.30227,0c2.88353-3.20367,6.55881-5.11064,6.55881-9.13265,0-3.995-4.27415-4.70811-6.54687-1.65531a.20281.20281,0,0,1-.32622,0c-2.27259-3.05281-6.54687-2.33972-6.54687,1.65531,0,4.022,3.67535,5.929,6.55888,9.13265"/><path d="M85.15,116.28746a10.74666,10.74666,0,0,1,2.57991-5.64358.10746.10746,0,0,0-.079-.18075H82.43683a.10747.10747,0,0,0-.079.18075,10.74666,10.74666,0,0,1,2.57991,5.64358.10731.10731,0,0,0,.21226,0"/></g></g><g class="a4b4567d-81a6-43e3-af1d-832df66c9387"><g class="b659d446-7615-4121-8883-3cf54207bd52"><path d="M50.17191,69.214a.23089.23089,0,0,0-.3439,0c-3.28072,3.645-7.46227,5.81462-7.46227,10.39065,0,4.54533,4.8629,5.35664,7.44868,1.88332a.23075.23075,0,0,1,.37115,0c2.58563,3.47332,7.44868,2.662,7.44868-1.88332,0-4.576-4.18162-6.74568-7.46234-10.39065"/><path d="M49.87921,80.26176a12.227,12.227,0,0,1-2.93529,6.421.12226.12226,0,0,0,.08989.20565h5.93229a.12228.12228,0,0,0,.08989-.20565,12.227,12.227,0,0,1-2.93529-6.421.12209.12209,0,0,0-.2415,0"/></g></g></svg>