<svg xmlns="http://www.w3.org/2000/svg" xmlns:xlink="http://www.w3.org/1999/xlink" viewBox="0 0 100 156"><defs><style>.beab189d-a589-4291-a365-023ec40c4b2d{fill:none;}.\30 0e22d0c-dca4-472b-84c3-f9ddf8004e05{isolation:isolate;}.\33 eedaa8d-48b4-42e4-bc30-f7301ba75646{fill:#fff;}.f4e8bcc4-718d-46f8-a563-d260456b4025{fill:#7f7f7f;}.e9c00453-fa0c-4a54-b568-bb8833e80517{clip-path:url(#baaab506-3778-49e5-8301-e742c3a2b4f6);}.\34 28dac75-fa57-49dd-96b1-ab6e717fe9f3{clip-path:url(#82897556-6db1-4a9a-ac0a-3e9711cb1e20);}.a2b5aa10-86f3-49bd-a7b6-4547cf438711{clip-path:url(#25668726-2e6e-406a-a9c0-1e1aeef19f79);}.b8f2cf11-ba87-42f3-a7b1-8bda487ea27d{clip-path:url(#7a5c7a28-af06-41ec-aa7e-29fe13bb3bcd);}.\32 89ea81c-a139-40ee-9acd-e7652cf3ce3c{clip-path:url(#9d206e5a-fc7f-4168-9f77-d1d057c4eaa8);}.bb1f11f0-1408-45f7-8b17-27cc9b085cf6{clip-path:url(#b7f5eb27-2f93-4bd2-b769-f0321c7611af);}.\32 8bffda6-90e6-4ba9-8188-13ad8bc6f7a2{clip-path:url(#671e8dee-dd32-4703-ad5e-775460a86caa);}.\35 edbde99-6421-41e8-82c7-3bb396fb6b13{mix-blend-mode:multiply;}.c1c31ced-19e6-4923-8b3a-ce62a2c6f20d{clip-path:url(#68adf933-4b55-4fa7-863a-0da8121888b7);}.\36 fe3c969-ee9a-4d77-8253-72dc8fdc006d{fill:#545454;}.\35 a4ef0fc-acf2-41b3-9e8b-0e6a0010d180{clip-path:url(#9a71c569-ee19-4073-be36-6b98fc909f0e);}</style><clipPath id="baaab506-3778-49e5-8301-e742c3a2b4f6"><rect class="beab189d-a589-4291-a365-023ec40c4b2d" width="29.91235" height="29.91235"/></clipPath><clipPath id="82897556-6db1-4a9a-ac0a-3e9711cb1e20"><rect class="beab189d-a589-4291-a365-023ec40c4b2d" x="70.08765" y="126.08765" width="29.91235" height="29.91235"/></clipPath><clipPath id="25668726-2e6e-406a-a9c0-1e1aeef19f79"><rect class="beab189d-a589-4291-a365-023ec40c4b2d" x="8.2462" y="29.91235" width="13.41995" height="15.62453"/></clipPath><clipPath id="7a5c7a28-af06-41ec-aa7e-29fe13bb3bcd"><rect class="beab189d-a589-4291-a365-023ec40c4b2d" x="6.32111" y="29.04849" width="17.27228" height="17.27228"/></clipPath><clipPath id="9d206e5a-fc7f-4168-9f77-d1d057c4eaa8"><rect class="beab189d-a589-4291-a365-023ec40c4b2d" x="78.33385" y="110.46313" width="13.41995" height="15.62453"/></clipPath><clipPath id="b7f5eb27-2f93-4bd2-b769-f0321c7611af"><rect class="beab189d-a589-4291-a365-023ec40c4b2d" x="76.40661" y="109.67923" width="17.27228" height="17.27228"/></clipPath><clipPath id="671e8dee-dd32-4703-ad5e-775460a86caa"><rect class="beab189d-a589-4291-a365-023ec40c4b2d" x="25" y="23" width="50" height="110"/></clipPath><clipPath id="68adf933-4b55-4fa7-863a-0da8121888b7"><rect class="beab189d-a589-4291-a365-023ec40c4b2d" x="50" y="23" width="25" height="110"/></clipPath><clipPath id="9a71c569-ee19-4073-be36-6b98fc909f0e"><rect class="beab189d-a589-4291-a365-023ec40c4b2d" x="25" y="78" width="25" height="55"/></clipPath></defs><title>J</title><g class="00e22d0c-dca4-472b-84c3-f9ddf8004e05"><g id="2baa4e92-1656-474e-ac1b-60c6f49c2adb" data-name="レイヤー 1"><rect class="3eedaa8d-48b4-42e4-bc30-f7301ba75646" x="0.5" y="0.5" width="99" height="155" rx="5.5" ry="5.5"/><path class="f4e8bcc4-718d-46f8-a563-d260456b4025" d="M94,1a5.00567,5.00567,0,0,1,5,5V150a5.00567,5.00567,0,0,1-5,5H6a5.00567,5.00567,0,0,1-5-5V6A5.00567,5.00567,0,0,1,6,1H94m0-1H6A6,6,0,0,0,0,6V150a6,6,0,0,0,6,6H94a6,6,0,0,0,6-6V6a6,6,0,0,0-6-6Z"/><g class="e9c00453-fa0c-4a54-b568-bb8833e80517"><g class="e9c00453-fa0c-4a54-b568-bb8833e80517"><path d="M12.55859,27.59863a3.371,3.371,0,0,0,1.06592-1.52832,8.49582,8.49582,0,0,0,.4624-2.32764q.09814-1.34619.09814-3.00049V13.03027q0-1.85083-.06982-3.63135-.07031-1.78052-.1543-3.63184.364.0564.70117.09814a5.41163,5.41163,0,0,0,1.3457,0q.33691-.04175.70117-.09814-.08423,1.85083-.1543,3.63184-.07031,1.78125-.06982,3.63135,0,1.262.01367,2.60791.01392,1.34619.02832,2.65039.01392,1.30371.02783,2.50977.01392,1.20557.01416,2.21533a6.366,6.366,0,0,1-.40674,2.31348,5.75472,5.75472,0,0,1-1.16357,1.86475,5.43247,5.43247,0,0,1-1.80908,1.27588,5.60782,5.60782,0,0,1-2.28516.46289l-.22461-.78516A2.976,2.976,0,0,0,12.55859,27.59863Z"/></g></g><g class="428dac75-fa57-49dd-96b1-ab6e717fe9f3"><g class="428dac75-fa57-49dd-96b1-ab6e717fe9f3"><path d="M87.44141,128.40137a3.37129,3.37129,0,0,0-1.06543,1.52832,8.54993,8.54993,0,0,0-.46289,2.32715q-.09814,1.34619-.09766,3.001v7.71191q0,1.8501.07031,3.63184.07031,1.77979.1543,3.63086c-.24316-.03711-.47754-.06934-.70117-.09766a5.41945,5.41945,0,0,0-1.34668,0c-.22363.02832-.458.06055-.70117.09766q.085-1.8501.1543-3.63086.07031-1.78125.07031-3.63184,0-1.2627-.01367-2.6084-.01465-1.34619-.02832-2.64941-.01318-1.30371-.02832-2.50977-.01318-1.207-.01367-2.21582a6.37814,6.37814,0,0,1,.40625-2.31348,5.7717,5.7717,0,0,1,1.16406-1.86523,5.42919,5.42919,0,0,1,1.80859-1.27539,5.6108,5.6108,0,0,1,2.28613-.46289l.22363.78516A2.97691,2.97691,0,0,0,87.44141,128.40137Z"/></g></g><g class="a2b5aa10-86f3-49bd-a7b6-4547cf438711"><g class="b8f2cf11-ba87-42f3-a7b1-8bda487ea27d"><path d="M15.10727,30.00235a.20294.20294,0,0,0-.30227,0C11.92148,33.206,8.2462,35.113,8.2462,39.135c0,3.995,4.27415,4.70811,6.54687,1.65531a.20281.20281,0,0,1,.32622,0c2.27259,3.05281,6.54687,2.33972,6.54687-1.65531,0-4.022-3.67535-5.929-6.55888-9.13265"/><path d="M14.85,39.71254a10.74666,10.74666,0,0,1-2.57991,5.64358.10746.10746,0,0,0,.079.18075h5.21407a.10747.10747,0,0,0,.079-.18075,10.74666,10.74666,0,0,1-2.57991-5.64358.10731.10731,0,0,0-.21226,0"/></g></g><g class="289ea81c-a139-40ee-9acd-e7652cf3ce3c"><g class="bb1f11f0-1408-45f7-8b17-27cc9b085cf6"><path d="M84.89273,125.99765a.20294.20294,0,0,0,.30227,0c2.88353-3.20367,6.55881-5.11064,6.55881-9.13265,0-3.995-4.27415-4.70811-6.54687-1.65531a.20281.20281,0,0,1-.32622,0c-2.27259-3.05281-6.54687-2.33972-6.54687,1.65531,0,4.022,3.67535,5.929,6.55888,9.13265"/><path d="M85.15,116.28746a10.74666,10.74666,0,0,1,2.57991-5.64358.10746.10746,0,0,0-.079-.18075H82.43683a.10747.10747,0,0,0-.079.18075,10.74666,10.74666,0,0,1,2.57991,5.64358.10731.10731,0,0,0,.21226,0"/></g></g></g><g id="94f093d4-909d-4918-967b-ec242102186a" data-name="レイヤー 2"><g class="28bffda6-90e6-4ba9-8188-13ad8bc6f7a2"><g class="28bffda6-90e6-4ba9-8188-13ad8bc6f7a2"><g class="28bffda6-90e6-4ba9-8188-13ad8bc6f7a2"><g class="5edbde99-6421-41e8-82c7-3bb396fb6b13"><g class="c1c31ced-19e6-4923-8b3a-ce62a2c6f20d"><polyline class="6fe3c969-ee9a-4d77-8253-72dc8fdc006d" points="50 23 75 23 75 133"/></g></g><g class="5edbde99-6421-41e8-82c7-3bb396fb6b13"><g class="5a4ef0fc-acf2-41b3-9e8b-0e6a0010d180"><polyline class="6fe3c969-ee9a-4d77-8253-72dc8fdc006d" points="50 133 25 133 25 78"/></g></g><g class="5edbde99-6421-41e8-82c7-3bb396fb6b13"><g class="c1c31ced-19e6-4923-8b3a-ce62a2c6f20d"><polyline class="6fe3c969-ee9a-4d77-8253-72dc8fdc006d" points="50 133 75 133 75 23"/></g></g></g></g></g></g></g></svg>