<svg xmlns="http://www.w3.org/2000/svg" xmlns:xlink="http://www.w3.org/1999/xlink" viewBox="0 0 100 156"><defs><style>.b04d0a82-e7c1-4179-9ac7-4ca2e36f579c{fill:none;}.\39 757109a-812b-4e10-b74d-32deae10a50e{isolation:isolate;}.d7dbd536-b893-4c6d-8bb6-79e4d1cfd147{fill:#fff;}.de139222-6b2a-44d3-99af-ec02f30eb14f{fill:#7f7f7f;}.\33 ec450ff-7687-4597-be78-9d3bfadfed1b{clip-path:url(#3ecabbb5-6080-411d-8989-46b2cb79cfd9);}.e3c48a49-be0c-4ea9-ad92-4edf8dafdfe1{clip-path:url(#c7fa305a-6846-4aa1-8700-d7300b40c508);}.\34 72f91d6-0220-4f8b-bd97-19afadf42f4f{clip-path:url(#906fb578-af92-4664-9a30-80eaf362036c);}.e9825440-ab54-476a-a715-dcbe8e5b9077{clip-path:url(#55a0062a-5466-49ea-8777-d338e271e707);}.\36 65080d6-0a27-444f-8bc9-aa6ff19b6426{clip-path:url(#e8b218f6-1105-4fe5-830d-524927066383);}.e168e71a-54c2-4d58-bf69-68fc3c05d585{clip-path:url(#fbb7694e-54a4-401e-b8c7-903dbf505ba5);}.e3cfb242-ffe4-4cec-89e0-00979529f398{clip-path:url(#b91b30ef-86e4-4dc7-8a6f-ab9cd81b9a03);}.\33 f09960e-ddde-4309-8bc2-d039bf44ee2f{mix-blend-mode:multiply;}.b9a4e93b-7cb1-400e-a173-e9853ce65ad9{clip-path:url(#6b336ef8-2c3b-4aba-bec3-56c2372b8047);}.\39 252c3ac-ada7-4ccd-af43-bbde475372ba{fill:#545454;}.\37 c93b332-8579-41ef-96a1-d519d6195bab{clip-path:url(#ab98d27b-c091-4c33-96d4-2f2c689cbd58);}.\33 df966ba-fd1b-4134-93f9-f9746d923ce6{clip-path:url(#e2827d05-b9ba-41d0-9f23-768c3461cd9e);}.\36 9a6ab2b-384d-4509-9bbf-43b2b9d4b756{clip-path:url(#39bb0085-b430-4450-b0f5-6cf644d9bfba);}</style><clipPath id="3ecabbb5-6080-411d-8989-46b2cb79cfd9"><rect class="b04d0a82-e7c1-4179-9ac7-4ca2e36f579c" width="29.91235" height="29.91235"/></clipPath><clipPath id="c7fa305a-6846-4aa1-8700-d7300b40c508"><rect class="b04d0a82-e7c1-4179-9ac7-4ca2e36f579c" x="70.08765" y="126.08765" width="29.91235" height="29.91235"/></clipPath><clipPath id="906fb578-af92-4664-9a30-80eaf362036c"><rect class="b04d0a82-e7c1-4179-9ac7-4ca2e36f579c" x="8.2462" y="29.91235" width="13.41995" height="15.62453"/></clipPath><clipPath id="55a0062a-5466-49ea-8777-d338e271e707"><rect class="b04d0a82-e7c1-4179-9ac7-4ca2e36f579c" x="6.32111" y="29.04849" width="17.27228" height="17.27228"/></clipPath><clipPath id="e8b218f6-1105-4fe5-830d-524927066383"><rect class="b04d0a82-e7c1-4179-9ac7-4ca2e36f579c" x="78.33385" y="110.46313" width="13.41995" height="15.62453"/></clipPath><clipPath id="fbb7694e-54a4-401e-b8c7-903dbf505ba5"><rect class="b04d0a82-e7c1-4179-9ac7-4ca2e36f579c" x="76.40661" y="109.67923" width="17.27228" height="17.27228"/></clipPath><clipPath id="b91b30ef-86e4-4dc7-8a6f-ab9cd81b9a03"><rect class="b04d0a82-e7c1-4179-9ac7-4ca2e36f579c" x="25" y="23" width="50" height="110"/></clipPath><clipPath id="6b336ef8-2c3b-4aba-bec3-56c2372b8047"><rect class="b04d0a82-e7c1-4179-9ac7-4ca2e36f579c" x="25.00002" y="78.0001" width="24.99998" height="55.00001"/></clipPath><clipPath id="ab98d27b-c091-4c33-96d4-2f2c689cbd58"><rect class="b04d0a82-e7c1-4179-9ac7-4ca2e36f579c" x="25" y="23" width="25" height="55.0001"/></clipPath><clipPath id="e2827d05-b9ba-41d0-9f23-768c3461cd9e"><rect class="b04d0a82-e7c1-4179-9ac7-4ca2e36f579c" x="50.0001" y="23" width="25" height="55"/></clipPath><clipPath id="39bb0085-b430-4450-b0f5-6cf644d9bfba"><rect class="b04d0a82-e7c1-4179-9ac7-4ca2e36f579c" x="50" y="78" width="25.0001" height="55.00014"/></clipPath></defs><title>Q</title><g class="9757109a-812b-4e10-b74d-32deae10a50e"><g id="ccf986c4-cda3-4a4f-a49a-7384ef37a435" data-name="レイヤー 1"><rect class="d7dbd536-b893-4c6d-8bb6-79e4d1cfd147" x="0.5" y="0.5" width="99" height="155" rx="5.5" ry="5.5"/><path class="de139222-6b2a-44d3-99af-ec02f30eb14f" d="M94,1a5.00567,5.00567,0,0,1,5,5V150a5.00567,5.00567,0,0,1-5,5H6a5.00567,5.00567,0,0,1-5-5V6A5.00567,5.00567,0,0,1,6,1H94m0-1H6A6,6,0,0,0,0,6V150a6,6,0,0,0,6,6H94a6,6,0,0,0,6-6V6a6,6,0,0,0-6-6Z"/><g class="3ec450ff-7687-4597-be78-9d3bfadfed1b"><g class="3ec450ff-7687-4597-be78-9d3bfadfed1b"><path d="M4.45459,15.44189a11.0278,11.0278,0,0,1,.77148-4.24854A8.85919,8.85919,0,0,1,7.38525,8.03857,9.31085,9.31085,0,0,1,10.708,6.07568a12.81257,12.81257,0,0,1,4.23486-.67285,12.901,12.901,0,0,1,4.26221.67285,9.30874,9.30874,0,0,1,3.32324,1.96289,8.87171,8.87171,0,0,1,2.15918,3.15479,11.037,11.037,0,0,1,.771,4.24854,11.35341,11.35341,0,0,1-.53271,3.57568,9.46343,9.46343,0,0,1-1.5,2.86035,8.32087,8.32087,0,0,1-2.32764,2.061,9.05064,9.05064,0,0,1-3.04248,1.12158q1.51392,1.20557,3.07031,2.41162,1.5564,1.20557,3.26709,2.41211a3.06694,3.06694,0,0,0-1.34619.42041,2.39579,2.39579,0,0,0-.84131.729q-1.54248-1.42969-3.11279-2.832-1.57031-1.40259-3.33691-2.83252a2.34264,2.34264,0,0,1-.42041.02783h-.39258a13.587,13.587,0,0,1-4.23486-.63086,8.65166,8.65166,0,0,1-5.48193-5.07568A11.02433,11.02433,0,0,1,4.45459,15.44189Zm18.25586,0a12.30279,12.30279,0,0,0-.58887-4.02393A7.65086,7.65086,0,0,0,20.481,8.61377a6.54084,6.54084,0,0,0-2.46777-1.64063,9.03547,9.03547,0,0,0-6.11328,0A6.54084,6.54084,0,0,0,9.43213,8.61377,7.65008,7.65008,0,0,0,7.792,11.418a12.28907,12.28907,0,0,0-.58936,4.02393A12.286,12.286,0,0,0,7.792,19.46631a7.642,7.642,0,0,0,1.64014,2.8042,6.52943,6.52943,0,0,0,2.46777,1.64063,9.03547,9.03547,0,0,0,6.11328,0A6.52943,6.52943,0,0,0,20.481,22.27051a7.64281,7.64281,0,0,0,1.64063-2.8042A12.29972,12.29972,0,0,0,22.71045,15.44189Z"/></g></g><g class="e3c48a49-be0c-4ea9-ad92-4edf8dafdfe1"><g class="e3c48a49-be0c-4ea9-ad92-4edf8dafdfe1"><path d="M95.5459,140.55762a11.03207,11.03207,0,0,1-.77148,4.249,8.84864,8.84864,0,0,1-2.15918,3.1543,9.28334,9.28334,0,0,1-3.32324,1.96289,13.73043,13.73043,0,0,1-8.49707,0,9.27911,9.27911,0,0,1-3.32227-1.96289,8.86339,8.86339,0,0,1-2.16016-3.1543,11.05052,11.05052,0,0,1-.77051-4.249,11.36893,11.36893,0,0,1,.53223-3.5752,9.47128,9.47128,0,0,1,1.501-2.86035,8.336,8.336,0,0,1,2.32715-2.06152,9.04873,9.04873,0,0,1,3.043-1.12109q-1.51465-1.20557-3.07129-2.41211-1.55566-1.20557-3.2666-2.41113a3.06551,3.06551,0,0,0,1.3457-.4209,2.39454,2.39454,0,0,0,.8418-.72949q1.54248,1.43115,3.1123,2.833,1.57178,1.40186,3.33691,2.832a2.33929,2.33929,0,0,1,.4209-.02832h.39258a13.61253,13.61253,0,0,1,4.23438.63086,8.65,8.65,0,0,1,5.48242,5.07617A11.02354,11.02354,0,0,1,95.5459,140.55762Zm-18.25586,0a12.30177,12.30177,0,0,0,.58887,4.02441,7.65708,7.65708,0,0,0,1.64063,2.80469,6.54085,6.54085,0,0,0,2.46777,1.64063,9.04327,9.04327,0,0,0,6.11328,0,6.54085,6.54085,0,0,0,2.46777-1.64062A7.65708,7.65708,0,0,0,92.209,144.582a14.04285,14.04285,0,0,0,0-8.04785,7.641,7.641,0,0,0-1.64062-2.80469,6.54084,6.54084,0,0,0-2.46777-1.64062,9.04327,9.04327,0,0,0-6.11328,0,6.54084,6.54084,0,0,0-2.46777,1.64063,7.641,7.641,0,0,0-1.64062,2.80469A12.2956,12.2956,0,0,0,77.29,140.55762Z"/></g></g><g class="472f91d6-0220-4f8b-bd97-19afadf42f4f"><g class="e9825440-ab54-476a-a715-dcbe8e5b9077"><path d="M15.10727,30.00235a.20294.20294,0,0,0-.30227,0C11.92148,33.206,8.2462,35.113,8.2462,39.135c0,3.995,4.27415,4.70811,6.54687,1.65531a.20281.20281,0,0,1,.32622,0c2.27259,3.05281,6.54687,2.33972,6.54687-1.65531,0-4.022-3.67535-5.929-6.55888-9.13265"/><path d="M14.85,39.71254a10.74666,10.74666,0,0,1-2.57991,5.64358.10746.10746,0,0,0,.079.18075h5.21407a.10747.10747,0,0,0,.079-.18075,10.74666,10.74666,0,0,1-2.57991-5.64358.10731.10731,0,0,0-.21226,0"/></g></g><g class="665080d6-0a27-444f-8bc9-aa6ff19b6426"><g class="e168e71a-54c2-4d58-bf69-68fc3c05d585"><path d="M84.89273,125.99765a.20294.20294,0,0,0,.30227,0c2.88353-3.20367,6.55881-5.11064,6.55881-9.13265,0-3.995-4.27415-4.70811-6.54687-1.65531a.20281.20281,0,0,1-.32622,0c-2.27259-3.05281-6.54687-2.33972-6.54687,1.65531,0,4.022,3.67535,5.929,6.55888,9.13265"/><path d="M85.15,116.28746a10.74666,10.74666,0,0,1,2.57991-5.64358.10746.10746,0,0,0-.079-.18075H82.43683a.10747.10747,0,0,0-.079.18075,10.74666,10.74666,0,0,1,2.57991,5.64358.10731.10731,0,0,0,.21226,0"/></g></g></g><g id="966ec064-a7a3-4774-a61a-6da2b9766789" data-name="レイヤー 2"><g class="e3cfb242-ffe4-4cec-89e0-00979529f398"><g class="e3cfb242-ffe4-4cec-89e0-00979529f398"><g class="e3cfb242-ffe4-4cec-89e0-00979529f398"><g class="3f09960e-ddde-4309-8bc2-d039bf44ee2f"><g class="b9a4e93b-7cb1-400e-a173-e9853ce65ad9"><polyline class="9252c3ac-ada7-4ccd-af43-bbde475372ba" points="50 133 25 133 25 78"/></g></g><g class="3f09960e-ddde-4309-8bc2-d039bf44ee2f"><g class="7c93b332-8579-41ef-96a1-d519d6195bab"><polyline class="9252c3ac-ada7-4ccd-af43-bbde475372ba" points="50 23 25 23 25 78"/></g></g><g class="3f09960e-ddde-4309-8bc2-d039bf44ee2f"><g class="3df966ba-fd1b-4134-93f9-f9746d923ce6"><polyline class="9252c3ac-ada7-4ccd-af43-bbde475372ba" points="50 23 75 23 75 78"/></g></g><g class="3f09960e-ddde-4309-8bc2-d039bf44ee2f"><g class="69a6ab2b-384d-4509-9bbf-43b2b9d4b756"><polyline class="9252c3ac-ada7-4ccd-af43-bbde475372ba" points="50 133 75 133 75 78"/></g></g><g class="3f09960e-ddde-4309-8bc2-d039bf44ee2f"><g class="69a6ab2b-384d-4509-9bbf-43b2b9d4b756"><polyline class="9252c3ac-ada7-4ccd-af43-bbde475372ba" points="50 133 75 133 75 78"/></g></g></g></g></g></g></g></svg>