<svg id="52ac5578-2945-44aa-888c-784ca96501ad" data-name="レイヤー 1" xmlns="http://www.w3.org/2000/svg" xmlns:xlink="http://www.w3.org/1999/xlink" viewBox="0 0 100 156"><defs><style>.\38 5a54b8d-9308-4373-95d1-675cc89edfd8{fill:none;}.a617ccf8-fee9-477b-a797-2929ccf43310{fill:#fff;}.\39 59f2bd8-67b1-449f-a893-a445a97e598c{fill:#7f7f7f;}.\36 555e906-f647-411a-87ac-da903115b21c{clip-path:url(#bdb22866-6d07-4a8c-902f-5346b8560855);}.e71837b2-51e0-46bf-a7a5-86db1d24dd42{fill:#a00;}.\32 cc5dd80-4657-4dec-a3ab-b46ce7c13e0e{clip-path:url(#302e2646-3eb7-4fb2-8ac5-b724e6452050);}.cf7b5357-139d-4d65-a21d-d64e44a7f423{clip-path:url(#07cec830-1244-494f-81d2-3e85fa90c3e9);}.\37 274b26e-9666-4309-8d94-a7f68e8e3f63{clip-path:url(#f2c4b7e3-9293-4694-a65a-92c28e57ece2);}.c4761c83-f466-4af5-8fc1-14bf5030a2f0{clip-path:url(#96786b03-d879-469a-94aa-3de50bba015f);}.\37 7dfe177-72e9-4472-a771-e88e7fbc07bc{clip-path:url(#05da13a4-6e0c-4003-b076-2b683b8b93d9);}.\35 b74185a-3a15-4758-8e76-cb2c4f1b1843{clip-path:url(#e435a89b-80b3-4799-95dc-370e09a6052d);}.\33 3a084d3-6480-4a00-ac3b-dda1cee902f1{clip-path:url(#8149f6f7-0d5c-4ff8-8e54-ec2ea786c78b);}.\39 1d03369-a253-42be-b8c6-a5f27964c974{clip-path:url(#4f6097f7-1e99-4e25-90bd-3574d56f1a72);}.\38 81dad16-7c8e-4788-a67b-09c449b8b563{clip-path:url(#cf735812-9589-4a8d-957b-f2c621a6ddc6);}</style><clipPath id="bdb22866-6d07-4a8c-902f-5346b8560855"><rect class="85a54b8d-9308-4373-95d1-675cc89edfd8" width="29.91235" height="29.91235"/></clipPath><clipPath id="302e2646-3eb7-4fb2-8ac5-b724e6452050"><rect class="85a54b8d-9308-4373-95d1-675cc89edfd8" x="70.08765" y="126.08765" width="29.91235" height="29.91235"/></clipPath><clipPath id="07cec830-1244-494f-81d2-3e85fa90c3e9"><rect class="85a54b8d-9308-4373-95d1-675cc89edfd8" x="7.81135" y="30.30795" width="14.28964" height="14.83331"/></clipPath><clipPath id="f2c4b7e3-9293-4694-a65a-92c28e57ece2"><rect class="85a54b8d-9308-4373-95d1-675cc89edfd8" x="6.65392" y="29.72916" width="16.60658" height="16.60658"/></clipPath><clipPath id="96786b03-d879-469a-94aa-3de50bba015f"><rect class="85a54b8d-9308-4373-95d1-675cc89edfd8" x="77.89901" y="110.85873" width="14.28964" height="14.83331"/></clipPath><clipPath id="05da13a4-6e0c-4003-b076-2b683b8b93d9"><rect class="85a54b8d-9308-4373-95d1-675cc89edfd8" x="76.7395" y="109.66426" width="16.60658" height="16.60658"/></clipPath><clipPath id="e435a89b-80b3-4799-95dc-370e09a6052d"><rect class="85a54b8d-9308-4373-95d1-675cc89edfd8" x="41.871" y="15.40627" width="16.258" height="16.87656"/></clipPath><clipPath id="8149f6f7-0d5c-4ff8-8e54-ec2ea786c78b"><rect class="85a54b8d-9308-4373-95d1-675cc89edfd8" x="40.55413" y="14.74775" width="18.89409" height="18.89409"/></clipPath><clipPath id="4f6097f7-1e99-4e25-90bd-3574d56f1a72"><rect class="85a54b8d-9308-4373-95d1-675cc89edfd8" x="41.871" y="119.09859" width="16.258" height="16.87656"/></clipPath><clipPath id="cf735812-9589-4a8d-957b-f2c621a6ddc6"><rect class="85a54b8d-9308-4373-95d1-675cc89edfd8" x="40.55177" y="117.73958" width="18.89409" height="18.89409"/></clipPath></defs><title>2</title><rect class="a617ccf8-fee9-477b-a797-2929ccf43310" x="0.5" y="0.5" width="99" height="155" rx="5.5" ry="5.5"/><path class="959f2bd8-67b1-449f-a893-a445a97e598c" d="M94,1a5.00567,5.00567,0,0,1,5,5V150a5.00567,5.00567,0,0,1-5,5H6a5.00567,5.00567,0,0,1-5-5V6A5.00567,5.00567,0,0,1,6,1H94m0-1H6A6,6,0,0,0,0,6V150a6,6,0,0,0,6,6H94a6,6,0,0,0,6-6V6a6,6,0,0,0-6-6Z"/><g class="6555e906-f647-411a-87ac-da903115b21c"><g class="6555e906-f647-411a-87ac-da903115b21c"><path class="e71837b2-51e0-46bf-a7a5-86db1d24dd42" d="M11.08643,6.80469a6.19082,6.19082,0,0,1,3.001-.67285,7.53849,7.53849,0,0,1,2.0752.28027,4.30168,4.30168,0,0,1,2.832,2.43994,5.40021,5.40021,0,0,1,.4209,2.24316,6.78668,6.78668,0,0,1-.22461,1.78076,7.252,7.252,0,0,1-.65869,1.61279,10.576,10.576,0,0,1-1.09375,1.584q-.65918.7998-1.55664,1.69678l-1.23389,1.23389q-.70093.70166-1.416,1.44434-.71484.74341-1.35986,1.47217-.646.72949-1.09375,1.34619h2.66406q2.01855,0,3.5752-.07031,1.5564-.06958,2.73438-.1543a4.81482,4.81482,0,0,0-.14014,1.0376,4.02495,4.02495,0,0,0,.14014.95361q-1.51465-.0564-3.00049-.05615H10.73633q-1.50073,0-3.01465.05615v-.33643q1.96216-1.93506,3.40723-3.40723,1.4436-1.47217,2.45361-2.65039a22.11462,22.11462,0,0,0,1.64063-2.13086,11.45233,11.45233,0,0,0,.99512-1.80908,6.95328,6.95328,0,0,0,.49072-1.68262,11.7717,11.7717,0,0,0,.12646-1.78076A4.34365,4.34365,0,0,0,15.896,8.165a2.9352,2.9352,0,0,0-2.20117-.99561,3.42178,3.42178,0,0,0-1.54248.32227,3.60316,3.60316,0,0,0-1.06592.78516,3.49563,3.49563,0,0,0-.64453.99561,5.05427,5.05427,0,0,0-.30859.95361l-.19629.05615-.98145-1.374A5.86291,5.86291,0,0,1,11.08643,6.80469Z"/></g></g><g class="2cc5dd80-4657-4dec-a3ab-b46ce7c13e0e"><g class="2cc5dd80-4657-4dec-a3ab-b46ce7c13e0e"><path class="e71837b2-51e0-46bf-a7a5-86db1d24dd42" d="M88.91406,149.19531a6.195,6.195,0,0,1-3.001.67285,7.54359,7.54359,0,0,1-2.0752-.28027,4.30266,4.30266,0,0,1-2.832-2.43945,5.405,5.405,0,0,1-.4209-2.24414,6.78027,6.78027,0,0,1,.22461-1.78027,7.1854,7.1854,0,0,1,.65918-1.6123,10.535,10.535,0,0,1,1.09375-1.585q.65918-.79834,1.55566-1.69629.5332-.5332,1.23438-1.23437.70166-.7002,1.416-1.44336.71484-.74414,1.36035-1.47266.64453-.72949,1.09375-1.3457H86.55859q-2.02,0-3.57617.06934-1.55566.07031-2.7334.1543a4.80235,4.80235,0,0,0,.13965-1.03711,4.01415,4.01415,0,0,0-.13965-.95312q1.51318.05566,3,.05566h6.01563q1.5,0,3.01465-.05566v.33594q-1.96289,1.93506-3.40723,3.40723t-2.4541,2.65039a22.11462,22.11462,0,0,0-1.64062,2.13086,11.43112,11.43112,0,0,0-.99512,1.80859,6.96145,6.96145,0,0,0-.49121,1.68262,11.85376,11.85376,0,0,0-.126,1.78125,4.34528,4.34528,0,0,0,.93945,3.07031,2.939,2.939,0,0,0,2.20117.99609,3.42024,3.42024,0,0,0,1.543-.32324,3.58387,3.58387,0,0,0,1.06543-.78516,3.50015,3.50015,0,0,0,.64453-.99512,4.98081,4.98081,0,0,0,.30859-.95312l.19629-.05664.98145,1.374A5.86291,5.86291,0,0,1,88.91406,149.19531Z"/></g></g><g class="cf7b5357-139d-4d65-a21d-d64e44a7f423"><g class="7274b26e-9666-4309-8d94-a7f68e8e3f63"><path class="e71837b2-51e0-46bf-a7a5-86db1d24dd42" d="M14.72884,45.00738a.30754.30754,0,0,0,.45467,0C18.2436,41.64013,22.101,39.6081,22.101,35.35616c0-4.35786-4.7766-5.04821-7.14485-1.51671C12.58789,30.308,7.81135,30.9983,7.81135,35.35616c0,4.25193,3.8574,6.284,6.91748,9.65121"/></g></g><g class="c4761c83-f466-4af5-8fc1-14bf5030a2f0"><g class="77dfe177-72e9-4472-a771-e88e7fbc07bc"><path class="e71837b2-51e0-46bf-a7a5-86db1d24dd42" d="M85.27116,110.99262a.30754.30754,0,0,0-.45467,0c-3.06009,3.36724-6.91749,5.39928-6.91749,9.65121,0,4.35786,4.7766,5.04821,7.14485,1.51671,2.36825,3.53149,7.14479,2.84115,7.14479-1.51671,0-4.25193-3.8574-6.284-6.91748-9.65121"/></g></g><g class="5b74185a-3a15-4758-8e76-cb2c4f1b1843"><g class="33a084d3-6480-4a00-ac3b-dda1cee902f1"><path class="e71837b2-51e0-46bf-a7a5-86db1d24dd42" d="M49.74135,32.1305a.3499.3499,0,0,0,.5173,0c3.48161-3.83107,7.87035-6.143,7.87035-10.98064,0-4.95815-5.43456-5.74358-8.129-1.72564-2.69447-4.01795-8.129-3.23251-8.129,1.72564,0,4.83763,4.38874,7.14957,7.87035,10.98064"/></g></g><g class="91d03369-a253-42be-b8c6-a5f27964c974"><g class="881dad16-7c8e-4788-a67b-09c449b8b563"><path class="e71837b2-51e0-46bf-a7a5-86db1d24dd42" d="M50.25865,119.25093a.3499.3499,0,0,0-.5173,0c-3.48161,3.83107-7.87035,6.143-7.87035,10.98064,0,4.95815,5.43456,5.74358,8.129,1.72564,2.69447,4.01795,8.129,3.23251,8.129-1.72564,0-4.83763-4.38874-7.14957-7.87035-10.98064"/></g></g></svg>