<svg id="47c79839-3892-4e82-8503-cffb1805f098" data-name="レイヤー 1" xmlns="http://www.w3.org/2000/svg" xmlns:xlink="http://www.w3.org/1999/xlink" viewBox="0 0 100 156"><defs><style>.ebfd9745-ac61-45cf-8be5-a55c2857cd35{fill:none;}.\37 0b7387c-e046-46ba-96a4-a582a5426ef9{fill:#fff;}.\34 bf31d1e-9a2a-4677-95e9-e147e5581010{fill:#7f7f7f;}.c8f8138a-d7f5-4d01-bea4-f2ce8e7917e5{clip-path:url(#3a67cef7-622b-4257-b6ff-5fefdb543d17);}.f3cf273b-cbda-4d0e-9616-aaf14812932d{fill:#a00;}.\36 596ecdf-c3b7-4ac1-a331-443530ffa616{clip-path:url(#cf8f9c6b-de1a-4443-9558-d01284df94bb);}.\33 d67d241-22c0-40b1-85c4-a4843a12c4b5{clip-path:url(#c85b45fe-d09c-4ba0-83ad-339f6bc3857e);}.\33 fb7edcf-2a56-4d66-b352-4a2f3521325b{clip-path:url(#aad428a1-3b20-417c-a04e-7d4703ecdd81);}.\33 e30a22c-d903-4943-99d5-a8407cca8188{clip-path:url(#e92e1b94-10b9-4f78-86ad-66bd009d178d);}.d93db215-2e5c-44d8-91b8-01c6569200dd{clip-path:url(#eca9818f-989e-4fc0-97ee-de8e183e1399);}.\30 dd95248-d42a-4d24-ab1b-cbc61e42e6f8{clip-path:url(#d1288cf9-a188-4b48-812d-62776812bc5d);}.e0326985-edc1-42a9-bff1-a84e5f4e442e{clip-path:url(#dc485008-ce80-4d3c-9d87-56e959f75547);}.\35 266c4b7-5dd8-44bf-8731-62b31436bd9b{clip-path:url(#21b4ba31-7681-47e1-a43e-ae12a4dd3cae);}.\38 53511fa-148d-4fd0-9cda-6222192dc90d{clip-path:url(#8ad665be-2774-4a61-9f04-99a61291748f);}.\33 4abe572-7b78-4284-bf05-413b4af915a8{clip-path:url(#57fd0581-35cc-4de8-9656-5569ffe42f1c);}.a8a08374-a71e-4fb3-b2cd-4cf82dd27281{clip-path:url(#1e8aef90-d8f4-4177-b1f9-3a29b794e9e2);}.c0b6a81d-af1f-4ff4-8468-5b0593c02a51{clip-path:url(#9355a4ab-450f-4bcd-8341-7d87e4ba7404);}.\34 25a2e69-abe0-4d03-82d1-3229070eaaa6{clip-path:url(#5b66bc77-cc06-455c-b044-15473dca4639);}.\33 8b0cc83-1d5e-40e4-bb54-c30181edd27a{clip-path:url(#b6a2e911-4c82-454e-9d56-c0818c1aa1cb);}.\33 cf1811a-a1ea-4017-895c-c19fd765afd3{clip-path:url(#0d7a3b0e-77ad-4a61-bcbe-ed09f970ad7c);}</style><clipPath id="3a67cef7-622b-4257-b6ff-5fefdb543d17"><rect class="ebfd9745-ac61-45cf-8be5-a55c2857cd35" width="29.91235" height="29.91235"/></clipPath><clipPath id="cf8f9c6b-de1a-4443-9558-d01284df94bb"><rect class="ebfd9745-ac61-45cf-8be5-a55c2857cd35" x="70.08765" y="126.08765" width="29.91235" height="29.91235"/></clipPath><clipPath id="c85b45fe-d09c-4ba0-83ad-339f6bc3857e"><rect class="ebfd9745-ac61-45cf-8be5-a55c2857cd35" x="7.81135" y="30.30795" width="14.28964" height="14.83331"/></clipPath><clipPath id="aad428a1-3b20-417c-a04e-7d4703ecdd81"><rect class="ebfd9745-ac61-45cf-8be5-a55c2857cd35" x="6.65392" y="29.72916" width="16.60658" height="16.60658"/></clipPath><clipPath id="e92e1b94-10b9-4f78-86ad-66bd009d178d"><rect class="ebfd9745-ac61-45cf-8be5-a55c2857cd35" x="77.89901" y="110.85873" width="14.28964" height="14.83331"/></clipPath><clipPath id="eca9818f-989e-4fc0-97ee-de8e183e1399"><rect class="ebfd9745-ac61-45cf-8be5-a55c2857cd35" x="76.7395" y="109.66426" width="16.60658" height="16.60658"/></clipPath><clipPath id="d1288cf9-a188-4b48-812d-62776812bc5d"><rect class="ebfd9745-ac61-45cf-8be5-a55c2857cd35" x="26.50526" y="15.40627" width="16.258" height="16.87656"/></clipPath><clipPath id="dc485008-ce80-4d3c-9d87-56e959f75547"><rect class="ebfd9745-ac61-45cf-8be5-a55c2857cd35" x="25.18839" y="14.74775" width="18.89409" height="18.89409"/></clipPath><clipPath id="21b4ba31-7681-47e1-a43e-ae12a4dd3cae"><rect class="ebfd9745-ac61-45cf-8be5-a55c2857cd35" x="41.871" y="67.25243" width="16.258" height="16.87656"/></clipPath><clipPath id="8ad665be-2774-4a61-9f04-99a61291748f"><rect class="ebfd9745-ac61-45cf-8be5-a55c2857cd35" x="40.55413" y="66.59391" width="18.89409" height="18.89409"/></clipPath><clipPath id="57fd0581-35cc-4de8-9656-5569ffe42f1c"><rect class="ebfd9745-ac61-45cf-8be5-a55c2857cd35" x="57.23674" y="119.09859" width="16.258" height="16.87656"/></clipPath><clipPath id="1e8aef90-d8f4-4177-b1f9-3a29b794e9e2"><rect class="ebfd9745-ac61-45cf-8be5-a55c2857cd35" x="55.91752" y="117.73958" width="18.89409" height="18.89409"/></clipPath><clipPath id="9355a4ab-450f-4bcd-8341-7d87e4ba7404"><rect class="ebfd9745-ac61-45cf-8be5-a55c2857cd35" x="57.23674" y="15.40627" width="16.258" height="16.87656"/></clipPath><clipPath id="5b66bc77-cc06-455c-b044-15473dca4639"><rect class="ebfd9745-ac61-45cf-8be5-a55c2857cd35" x="55.91988" y="14.74775" width="18.89409" height="18.89409"/></clipPath><clipPath id="b6a2e911-4c82-454e-9d56-c0818c1aa1cb"><rect class="ebfd9745-ac61-45cf-8be5-a55c2857cd35" x="26.50526" y="119.09859" width="16.258" height="16.87656"/></clipPath><clipPath id="0d7a3b0e-77ad-4a61-bcbe-ed09f970ad7c"><rect class="ebfd9745-ac61-45cf-8be5-a55c2857cd35" x="25.18603" y="117.73958" width="18.89409" height="18.89409"/></clipPath></defs><title>5</title><rect class="70b7387c-e046-46ba-96a4-a582a5426ef9" x="0.5" y="0.5" width="99" height="155" rx="5.5" ry="5.5"/><path class="4bf31d1e-9a2a-4677-95e9-e147e5581010" d="M94,1a5.00567,5.00567,0,0,1,5,5V150a5.00567,5.00567,0,0,1-5,5H6a5.00567,5.00567,0,0,1-5-5V6A5.00567,5.00567,0,0,1,6,1H94m0-1H6A6,6,0,0,0,0,6V150a6,6,0,0,0,6,6H94a6,6,0,0,0,6-6V6a6,6,0,0,0-6-6Z"/><g class="c8f8138a-d7f5-4d01-bea4-f2ce8e7917e5"><g class="c8f8138a-d7f5-4d01-bea4-f2ce8e7917e5"><path class="f3cf273b-cbda-4d0e-9616-aaf14812932d" d="M12.811,13.96973a6.68768,6.68768,0,0,1,1.92139-.21045,5.66828,5.66828,0,0,1,2.229.4209,5.04634,5.04634,0,0,1,1.69678,1.14941,5.15357,5.15357,0,0,1,1.07959,1.68262,5.42145,5.42145,0,0,1,.37842,2.019,6.16706,6.16706,0,0,1-.50439,2.48193,5.93892,5.93892,0,0,1-1.43018,2.019,6.59789,6.59789,0,0,1-2.20166,1.332,8.079,8.079,0,0,1-2.84619.47705,13.62372,13.62372,0,0,1-2.42578-.21045,5.232,5.232,0,0,1-2.061-.82715V24.0791a6.81592,6.81592,0,0,0,.25244-.82715q.11133-.46289.168-.79932h.19629a3.026,3.026,0,0,0,.687.89746,4.19184,4.19184,0,0,0,.98193.65918,4.90869,4.90869,0,0,0,1.14941.39258,5.68485,5.68485,0,0,0,1.16406.126,4.29646,4.29646,0,0,0,1.6123-.30859,3.67005,3.67005,0,0,0,1.35986-.95312,4.92619,4.92619,0,0,0,.95361-1.62646,6.60441,6.60441,0,0,0,.36475-2.2998,5.43909,5.43909,0,0,0-.33643-2.019,3.92382,3.92382,0,0,0-.88379-1.374,3.287,3.287,0,0,0-1.24756-.771,4.508,4.508,0,0,0-1.4585-.23877,4.13939,4.13939,0,0,0-1.90674.37891q-.72949.37866-.98145.54688l-.30859-.19629a16.32044,16.32044,0,0,0,.23828-2.31348q.04248-1.22021.042-2.42578,0-1.17773-.042-2.42578a19.94075,19.94075,0,0,0-.18213-2.20166l.25244-.168q.47607.08423,1.57031.168,1.2334.08423,3.42139.08447,1.34546,0,2.3833-.01416,1.03711-.01392,1.54248-.042l.14014.1123a4.05339,4.05339,0,0,0-.1543.771,7.82492,7.82492,0,0,0-.042.79932,2.19161,2.19161,0,0,0,.02832.47656,15.70682,15.70682,0,0,0-1.64062-.18213q-1.02393-.06958-2.14551-.1123-1.12134-.04175-2.15918-.05615Q12.62866,8.1228,11.98389,8.123l-.39258,6.36572A6.838,6.838,0,0,1,12.811,13.96973Z"/></g></g><g class="6596ecdf-c3b7-4ac1-a331-443530ffa616"><g class="6596ecdf-c3b7-4ac1-a331-443530ffa616"><path class="f3cf273b-cbda-4d0e-9616-aaf14812932d" d="M87.18945,142.03027a6.67179,6.67179,0,0,1-1.9209.21,5.68107,5.68107,0,0,1-2.22949-.41992,5.05789,5.05789,0,0,1-1.69727-1.15039,5.14206,5.14206,0,0,1-1.0791-1.68262,5.40953,5.40953,0,0,1-.37891-2.01855,6.1831,6.1831,0,0,1,.50488-2.48242,5.94113,5.94113,0,0,1,1.43066-2.01855,6.59388,6.59388,0,0,1,2.20117-1.332,8.09294,8.09294,0,0,1,2.84668-.47656,13.57194,13.57194,0,0,1,2.4248.21,5.23556,5.23556,0,0,1,2.06152.82715v.22461a6.54326,6.54326,0,0,0-.252.82715c-.0752.30859-.13086.5752-.16895.79883h-.19629a3.0061,3.0061,0,0,0-.68652-.89648,4.15419,4.15419,0,0,0-.98145-.65918,4.90913,4.90913,0,0,0-1.15039-.39258,5.6788,5.6788,0,0,0-1.16309-.127,4.29777,4.29777,0,0,0-1.61328.30859,3.675,3.675,0,0,0-1.35937.9541,4.91947,4.91947,0,0,0-.9541,1.626,6.61628,6.61628,0,0,0-.36426,2.2998,5.42422,5.42422,0,0,0,.33691,2.01855,3.91074,3.91074,0,0,0,.88281,1.375,3.30725,3.30725,0,0,0,1.248.77051,4.49155,4.49155,0,0,0,1.458.23828,4.15,4.15,0,0,0,1.90723-.37793q.72949-.37939.98145-.54687l.30859.19629a16.298,16.298,0,0,0-.23828,2.31348q-.04248,1.21875-.042,2.42578,0,1.17773.042,2.42578a19.92164,19.92164,0,0,0,.18262,2.20117l-.25293.168q-.47607-.0835-1.57031-.168-1.2334-.085-3.4209-.084-1.34619,0-2.38379.01367-1.03711.01318-1.543.042l-.13965-.1123a4.01339,4.01339,0,0,0,.1543-.77148,7.67156,7.67156,0,0,0,.042-.79883,2.2228,2.2228,0,0,0-.02832-.47656,15.65514,15.65514,0,0,0,1.64063.18262q1.02393.06885,2.14551.11133,1.12207.04248,2.15918.05664,1.03711.01318,1.68262.01367l.39258-6.36523A6.90891,6.90891,0,0,1,87.18945,142.03027Z"/></g></g><g class="3d67d241-22c0-40b1-85c4-a4843a12c4b5"><g class="3fb7edcf-2a56-4d66-b352-4a2f3521325b"><path class="f3cf273b-cbda-4d0e-9616-aaf14812932d" d="M14.72884,45.00738a.30754.30754,0,0,0,.45467,0C18.2436,41.64013,22.101,39.6081,22.101,35.35616c0-4.35786-4.7766-5.04821-7.14485-1.51671C12.58789,30.308,7.81135,30.9983,7.81135,35.35616c0,4.25193,3.8574,6.284,6.91748,9.65121"/></g></g><g class="3e30a22c-d903-4943-99d5-a8407cca8188"><g class="d93db215-2e5c-44d8-91b8-01c6569200dd"><path class="f3cf273b-cbda-4d0e-9616-aaf14812932d" d="M85.27116,110.99262a.30754.30754,0,0,0-.45467,0c-3.06009,3.36724-6.91749,5.39928-6.91749,9.65121,0,4.35786,4.7766,5.04821,7.14485,1.51671,2.36825,3.53149,7.14479,2.84115,7.14479-1.51671,0-4.25193-3.8574-6.284-6.91748-9.65121"/></g></g><g class="0dd95248-d42a-4d24-ab1b-cbc61e42e6f8"><g class="e0326985-edc1-42a9-bff1-a84e5f4e442e"><path class="f3cf273b-cbda-4d0e-9616-aaf14812932d" d="M34.37561,32.1305a.3499.3499,0,0,0,.5173,0c3.48161-3.83107,7.87035-6.143,7.87035-10.98064,0-4.95815-5.43456-5.74358-8.129-1.72564-2.69447-4.01795-8.129-3.23251-8.129,1.72564,0,4.83763,4.38874,7.14957,7.87035,10.98064"/></g></g><g class="5266c4b7-5dd8-44bf-8731-62b31436bd9b"><g class="853511fa-148d-4fd0-9cda-6222192dc90d"><path class="f3cf273b-cbda-4d0e-9616-aaf14812932d" d="M49.74135,83.97666a.3499.3499,0,0,0,.5173,0c3.48161-3.83107,7.87035-6.143,7.87035-10.98064,0-4.95815-5.43456-5.74358-8.129-1.72564-2.69447-4.01795-8.129-3.23251-8.129,1.72564,0,4.83763,4.38874,7.14957,7.87035,10.98064"/></g></g><g class="34abe572-7b78-4284-bf05-413b4af915a8"><g class="a8a08374-a71e-4fb3-b2cd-4cf82dd27281"><path class="f3cf273b-cbda-4d0e-9616-aaf14812932d" d="M65.62439,119.25093a.3499.3499,0,0,0-.5173,0c-3.48161,3.83107-7.87035,6.143-7.87035,10.98064,0,4.95815,5.43456,5.74358,8.129,1.72564,2.69447,4.01795,8.129,3.23251,8.129-1.72564,0-4.83763-4.38874-7.14957-7.87035-10.98064"/></g></g><g class="c0b6a81d-af1f-4ff4-8468-5b0593c02a51"><g class="425a2e69-abe0-4d03-82d1-3229070eaaa6"><path class="f3cf273b-cbda-4d0e-9616-aaf14812932d" d="M65.10709,32.1305a.3499.3499,0,0,0,.5173,0c3.48161-3.83107,7.87035-6.143,7.87035-10.98064,0-4.95815-5.43456-5.74358-8.129-1.72564-2.69447-4.01795-8.129-3.23251-8.129,1.72564,0,4.83763,4.38874,7.14957,7.87035,10.98064"/></g></g><g class="38b0cc83-1d5e-40e4-bb54-c30181edd27a"><g class="3cf1811a-a1ea-4017-895c-c19fd765afd3"><path class="f3cf273b-cbda-4d0e-9616-aaf14812932d" d="M34.89291,119.25093a.3499.3499,0,0,0-.5173,0c-3.48161,3.83107-7.87035,6.143-7.87035,10.98064,0,4.95815,5.43456,5.74358,8.129,1.72564,2.69447,4.01795,8.129,3.23251,8.129-1.72564,0-4.83763-4.38874-7.14957-7.87035-10.98064"/></g></g></svg>