<svg id="7c9b5688-8c9e-45f1-a592-ee7739840cb6" data-name="レイヤー 1" xmlns="http://www.w3.org/2000/svg" xmlns:xlink="http://www.w3.org/1999/xlink" viewBox="0 0 100 156"><defs><style>.\39 864d84b-5c0c-4737-b4d9-61da7c83baa7{fill:none;}.\38 1063dbf-da0d-4ed8-98c5-49cc64ce6993{fill:#fff;}.ce2410d8-eda1-4d35-b762-1939adf689d9{fill:#7f7f7f;}.\39 9a10ce4-2a5f-4ad3-9c30-006dec15f00c{clip-path:url(#1cf96b87-f7e4-43e7-b3f2-724bd0ad78b3);}.\32 bd290df-61dc-494d-ab7a-8ddc328c6f21{fill:#a00;}.\36 69e5a1e-8337-4a83-8c32-8f4cde473d86{clip-path:url(#e9c97db9-f923-421c-8689-673294cfcbd6);}.\39 bbba6e7-36c4-4a45-8a71-6d815a66838a{clip-path:url(#c044c38c-3f52-467f-8bb2-7f5985e5117c);}.\30 ac3dd45-0287-451b-874d-9999aee39ed5{clip-path:url(#30f77a04-f3ba-49d4-97ca-f3a2fbdce548);}.\38 9a91d4d-575a-4f43-9752-047300716836{clip-path:url(#e2ad0bcd-d434-4366-b256-641dc29b0376);}.\30 7a83b08-7ea3-4d2f-95c1-0d93424ecba7{clip-path:url(#5fbff14b-0946-421c-bd20-e717ad1f23f0);}.\36 44a1686-be4e-4eac-a84a-9f26c9378458{clip-path:url(#0d55df51-6104-4526-9aba-d2ddbb1fa792);}.\34 18b2c97-dcc1-4dc3-81b8-522647423ca9{clip-path:url(#22cad8dc-08fc-41ef-9f50-01236ef19b8e);}.b7b68869-87ee-4344-b937-fcee70dbbb41{clip-path:url(#3e00fdc1-68e9-43c5-ab00-3a1c3daccc9c);}.\35 e9f1af7-787f-4e37-b858-7335fd1ee7a6{clip-path:url(#3c13efde-0c70-45d3-b05f-065e13e31d73);}.\36 24456b7-3a7a-4b50-a7c1-bcea8047047d{clip-path:url(#d5020418-e0ba-4f70-9bfd-6dcfe50bb411);}.\33 4b326c4-933e-4cf8-b043-1256dea3a7ff{clip-path:url(#841cfdac-1804-47ef-b3f6-203dfe6eafa3);}.\34 e78a552-bb79-4851-9fcf-4a2be455ad17{clip-path:url(#0c1235b3-b73b-41c9-a338-1962a75faad7);}.b3f75240-220c-4bed-a8c3-dbc44835646d{clip-path:url(#21bb865c-07f7-43fc-a521-f87e3447959d);}.\36 6322169-3851-4699-aac7-0a7abf047919{clip-path:url(#d077de3c-0118-4bde-acc7-f955b9b1126a);}.\33 b3e8e24-2b0b-4513-bdc6-c5b9ad6d5361{clip-path:url(#b245188c-1043-45f9-b48f-388e6b1634d6);}.\37 52cdce3-1de6-49ac-92ff-c16f395e8092{clip-path:url(#f7b481aa-8e4f-4c76-a4f4-bb71e028e908);}.a081a9bc-8477-4b27-b1e6-4f6caefe9bee{clip-path:url(#0b5fcd29-6d6f-40f5-8421-ecc89c25701d);}.\35 c009146-e7b6-47c7-a9e3-0424da0accfb{clip-path:url(#75171764-1376-4202-aa4a-c2b0726faf5c);}.ee434506-7b4f-4003-9d57-ebcd3e7061ee{clip-path:url(#1e0f3121-cacd-4422-86e9-3ca270d738c1);}</style><clipPath id="1cf96b87-f7e4-43e7-b3f2-724bd0ad78b3"><rect class="9864d84b-5c0c-4737-b4d9-61da7c83baa7" width="29.91235" height="29.91235"/></clipPath><clipPath id="e9c97db9-f923-421c-8689-673294cfcbd6"><rect class="9864d84b-5c0c-4737-b4d9-61da7c83baa7" x="70.08765" y="126.08765" width="29.91235" height="29.91235"/></clipPath><clipPath id="c044c38c-3f52-467f-8bb2-7f5985e5117c"><rect class="9864d84b-5c0c-4737-b4d9-61da7c83baa7" x="7.81135" y="30.30795" width="14.28964" height="14.83331"/></clipPath><clipPath id="30f77a04-f3ba-49d4-97ca-f3a2fbdce548"><rect class="9864d84b-5c0c-4737-b4d9-61da7c83baa7" x="6.65392" y="29.72916" width="16.60658" height="16.60658"/></clipPath><clipPath id="e2ad0bcd-d434-4366-b256-641dc29b0376"><rect class="9864d84b-5c0c-4737-b4d9-61da7c83baa7" x="77.89901" y="110.85873" width="14.28964" height="14.83331"/></clipPath><clipPath id="5fbff14b-0946-421c-bd20-e717ad1f23f0"><rect class="9864d84b-5c0c-4737-b4d9-61da7c83baa7" x="76.7395" y="109.66426" width="16.60658" height="16.60658"/></clipPath><clipPath id="0d55df51-6104-4526-9aba-d2ddbb1fa792"><rect class="9864d84b-5c0c-4737-b4d9-61da7c83baa7" x="26.50526" y="15.40627" width="16.258" height="16.87656"/></clipPath><clipPath id="22cad8dc-08fc-41ef-9f50-01236ef19b8e"><rect class="9864d84b-5c0c-4737-b4d9-61da7c83baa7" x="25.18839" y="14.74775" width="18.89409" height="18.89409"/></clipPath><clipPath id="3e00fdc1-68e9-43c5-ab00-3a1c3daccc9c"><rect class="9864d84b-5c0c-4737-b4d9-61da7c83baa7" x="26.50526" y="67.25243" width="16.258" height="16.87656"/></clipPath><clipPath id="3c13efde-0c70-45d3-b05f-065e13e31d73"><rect class="9864d84b-5c0c-4737-b4d9-61da7c83baa7" x="25.18839" y="66.59391" width="18.89409" height="18.89409"/></clipPath><clipPath id="d5020418-e0ba-4f70-9bfd-6dcfe50bb411"><rect class="9864d84b-5c0c-4737-b4d9-61da7c83baa7" x="57.23674" y="119.09859" width="16.258" height="16.87656"/></clipPath><clipPath id="841cfdac-1804-47ef-b3f6-203dfe6eafa3"><rect class="9864d84b-5c0c-4737-b4d9-61da7c83baa7" x="55.91752" y="117.73958" width="18.89409" height="18.89409"/></clipPath><clipPath id="0c1235b3-b73b-41c9-a338-1962a75faad7"><rect class="9864d84b-5c0c-4737-b4d9-61da7c83baa7" x="41.87143" y="41.32891" width="16.258" height="16.87656"/></clipPath><clipPath id="21bb865c-07f7-43fc-a521-f87e3447959d"><rect class="9864d84b-5c0c-4737-b4d9-61da7c83baa7" x="40.55456" y="40.67039" width="18.89409" height="18.89409"/></clipPath><clipPath id="d077de3c-0118-4bde-acc7-f955b9b1126a"><rect class="9864d84b-5c0c-4737-b4d9-61da7c83baa7" x="57.23674" y="15.40627" width="16.258" height="16.87656"/></clipPath><clipPath id="b245188c-1043-45f9-b48f-388e6b1634d6"><rect class="9864d84b-5c0c-4737-b4d9-61da7c83baa7" x="55.91988" y="14.74775" width="18.89409" height="18.89409"/></clipPath><clipPath id="f7b481aa-8e4f-4c76-a4f4-bb71e028e908"><rect class="9864d84b-5c0c-4737-b4d9-61da7c83baa7" x="57.23674" y="67.25243" width="16.258" height="16.87656"/></clipPath><clipPath id="0b5fcd29-6d6f-40f5-8421-ecc89c25701d"><rect class="9864d84b-5c0c-4737-b4d9-61da7c83baa7" x="55.91988" y="66.59391" width="18.89409" height="18.89409"/></clipPath><clipPath id="75171764-1376-4202-aa4a-c2b0726faf5c"><rect class="9864d84b-5c0c-4737-b4d9-61da7c83baa7" x="26.50526" y="119.09859" width="16.258" height="16.87656"/></clipPath><clipPath id="1e0f3121-cacd-4422-86e9-3ca270d738c1"><rect class="9864d84b-5c0c-4737-b4d9-61da7c83baa7" x="25.18603" y="117.73958" width="18.89409" height="18.89409"/></clipPath></defs><title>7</title><rect class="81063dbf-da0d-4ed8-98c5-49cc64ce6993" x="0.5" y="0.5" width="99" height="155" rx="5.5" ry="5.5"/><path class="ce2410d8-eda1-4d35-b762-1939adf689d9" d="M94,1a5.00567,5.00567,0,0,1,5,5V150a5.00567,5.00567,0,0,1-5,5H6a5.00567,5.00567,0,0,1-5-5V6A5.00567,5.00567,0,0,1,6,1H94m0-1H6A6,6,0,0,0,0,6V150a6,6,0,0,0,6,6H94a6,6,0,0,0,6-6V6a6,6,0,0,0-6-6Z"/><g class="99a10ce4-2a5f-4ad3-9c30-006dec15f00c"><g class="99a10ce4-2a5f-4ad3-9c30-006dec15f00c"><path class="2bd290df-61dc-494d-ab7a-8ddc328c6f21" d="M16.23242,15.93262q-2.59424,4.61353-4.89355,9.1001a8.69281,8.69281,0,0,0-1.06543-.05615,8.60484,8.60484,0,0,0-1.00977.05615q1.31836-2.04712,2.76221-4.417,1.44434-2.36938,2.79053-4.627,1.34619-2.25659,2.49561-4.22021,1.1499-1.96289,1.87891-3.25293-1.262,0-3.71582.02783-2.45361.02856-6.0708.25244a6.50937,6.50937,0,0,0,.11182-1.26221A6.35528,6.35528,0,0,0,9.4043,6.2998q1.17773.08423,2.08887.14063t1.69678.084q.64453,0,1.78076.02783,1.13525.02856,2.20117.02832h1.31787q.86938,0,1.51465-.01416.64453-.01392,1.374-.01416V7.001Q18.82593,11.32007,16.23242,15.93262Z"/></g></g><g class="669e5a1e-8337-4a83-8c32-8f4cde473d86"><g class="669e5a1e-8337-4a83-8c32-8f4cde473d86"><path class="2bd290df-61dc-494d-ab7a-8ddc328c6f21" d="M83.76758,140.06738q2.59424-4.61279,4.89355-9.09961a8.82406,8.82406,0,0,0,1.06641.05566,8.70408,8.70408,0,0,0,1.00879-.05566q-1.31689,2.04639-2.76172,4.416-1.44434,2.37012-2.79,4.627-1.34619,2.25732-2.49609,4.2207-1.1499,1.96289-1.87891,3.25293,1.26123,0,3.71582-.02832,2.45361-.02783,6.07129-.252a6.4334,6.4334,0,0,0-.1123,1.26172,6.27282,6.27282,0,0,0,.1123,1.23438q-1.17773-.085-2.08984-.14062-.90967-.05566-1.69629-.084-.64453,0-1.78027-.02832-1.13672-.02783-2.20215-.02734H81.51074q-.86865,0-1.51465.01367-.64453.01318-1.374.01367V148.999Q81.17383,144.68066,83.76758,140.06738Z"/></g></g><g class="9bbba6e7-36c4-4a45-8a71-6d815a66838a"><g class="0ac3dd45-0287-451b-874d-9999aee39ed5"><path class="2bd290df-61dc-494d-ab7a-8ddc328c6f21" d="M14.72884,45.00738a.30754.30754,0,0,0,.45467,0C18.2436,41.64013,22.101,39.6081,22.101,35.35616c0-4.35786-4.7766-5.04821-7.14485-1.51671C12.58789,30.308,7.81135,30.9983,7.81135,35.35616c0,4.25193,3.8574,6.284,6.91748,9.65121"/></g></g><g class="89a91d4d-575a-4f43-9752-047300716836"><g class="07a83b08-7ea3-4d2f-95c1-0d93424ecba7"><path class="2bd290df-61dc-494d-ab7a-8ddc328c6f21" d="M85.27116,110.99262a.30754.30754,0,0,0-.45467,0c-3.06009,3.36724-6.91749,5.39928-6.91749,9.65121,0,4.35786,4.7766,5.04821,7.14485,1.51671,2.36825,3.53149,7.14479,2.84115,7.14479-1.51671,0-4.25193-3.8574-6.284-6.91748-9.65121"/></g></g><g class="644a1686-be4e-4eac-a84a-9f26c9378458"><g class="418b2c97-dcc1-4dc3-81b8-522647423ca9"><path class="2bd290df-61dc-494d-ab7a-8ddc328c6f21" d="M34.37561,32.1305a.3499.3499,0,0,0,.5173,0c3.48161-3.83107,7.87035-6.143,7.87035-10.98064,0-4.95815-5.43456-5.74358-8.129-1.72564-2.69447-4.01795-8.129-3.23251-8.129,1.72564,0,4.83763,4.38874,7.14957,7.87035,10.98064"/></g></g><g class="b7b68869-87ee-4344-b937-fcee70dbbb41"><g class="5e9f1af7-787f-4e37-b858-7335fd1ee7a6"><path class="2bd290df-61dc-494d-ab7a-8ddc328c6f21" d="M34.37561,83.97666a.3499.3499,0,0,0,.5173,0c3.48161-3.83107,7.87035-6.143,7.87035-10.98064,0-4.95815-5.43456-5.74358-8.129-1.72564-2.69447-4.01795-8.129-3.23251-8.129,1.72564,0,4.83763,4.38874,7.14957,7.87035,10.98064"/></g></g><g class="624456b7-3a7a-4b50-a7c1-bcea8047047d"><g class="34b326c4-933e-4cf8-b043-1256dea3a7ff"><path class="2bd290df-61dc-494d-ab7a-8ddc328c6f21" d="M65.62439,119.25093a.3499.3499,0,0,0-.5173,0c-3.48161,3.83107-7.87035,6.143-7.87035,10.98064,0,4.95815,5.43456,5.74358,8.129,1.72564,2.69447,4.01795,8.129,3.23251,8.129-1.72564,0-4.83763-4.38874-7.14957-7.87035-10.98064"/></g></g><g class="4e78a552-bb79-4851-9fcf-4a2be455ad17"><g class="b3f75240-220c-4bed-a8c3-dbc44835646d"><path class="2bd290df-61dc-494d-ab7a-8ddc328c6f21" d="M49.74177,58.05314a.3499.3499,0,0,0,.5173,0c3.48161-3.83107,7.87035-6.143,7.87035-10.98064,0-4.95815-5.43456-5.74358-8.129-1.72564-2.69447-4.01795-8.129-3.23251-8.129,1.72564,0,4.83763,4.38874,7.14957,7.87035,10.98064"/></g></g><g class="66322169-3851-4699-aac7-0a7abf047919"><g class="3b3e8e24-2b0b-4513-bdc6-c5b9ad6d5361"><path class="2bd290df-61dc-494d-ab7a-8ddc328c6f21" d="M65.10709,32.1305a.3499.3499,0,0,0,.5173,0c3.48161-3.83107,7.87035-6.143,7.87035-10.98064,0-4.95815-5.43456-5.74358-8.129-1.72564-2.69447-4.01795-8.129-3.23251-8.129,1.72564,0,4.83763,4.38874,7.14957,7.87035,10.98064"/></g></g><g class="752cdce3-1de6-49ac-92ff-c16f395e8092"><g class="a081a9bc-8477-4b27-b1e6-4f6caefe9bee"><path class="2bd290df-61dc-494d-ab7a-8ddc328c6f21" d="M65.10709,83.97666a.3499.3499,0,0,0,.5173,0c3.48161-3.83107,7.87035-6.143,7.87035-10.98064,0-4.95815-5.43456-5.74358-8.129-1.72564-2.69447-4.01795-8.129-3.23251-8.129,1.72564,0,4.83763,4.38874,7.14957,7.87035,10.98064"/></g></g><g class="5c009146-e7b6-47c7-a9e3-0424da0accfb"><g class="ee434506-7b4f-4003-9d57-ebcd3e7061ee"><path class="2bd290df-61dc-494d-ab7a-8ddc328c6f21" d="M34.89291,119.25093a.3499.3499,0,0,0-.5173,0c-3.48161,3.83107-7.87035,6.143-7.87035,10.98064,0,4.95815,5.43456,5.74358,8.129,1.72564,2.69447,4.01795,8.129,3.23251,8.129-1.72564,0-4.83763-4.38874-7.14957-7.87035-10.98064"/></g></g></svg>