<svg id="a0b3a58a-51b9-4045-9d4f-50850f9b13a7" data-name="レイヤー 1" xmlns="http://www.w3.org/2000/svg" xmlns:xlink="http://www.w3.org/1999/xlink" viewBox="0 0 100 156"><defs><style>.d2a0ea7d-9051-406b-b54e-c70325fba969{fill:none;}.\36 ca32c4f-3d23-47a0-aace-a3f8035ca960{fill:#fff;}.aac425ba-88c7-4a62-b142-b25346b833cb{fill:#7f7f7f;}.a1df1dd4-ca33-4db5-967d-75fa21aa348a{clip-path:url(#7a3896af-d512-48cf-bdbf-7ee1eb216d62);}.\39 5d935f1-4f42-47ad-abbb-07a771538c3a{fill:#a00;}.\35 881df08-239e-47e9-995c-faec9dd5f035{clip-path:url(#cf3b244e-5434-4209-8299-d04359d13e01);}.\30 7ca74f1-f545-40c2-bf00-b356907fe360{clip-path:url(#ba12bf66-f523-40b2-add2-6616a1558310);}.ab1f9820-4f04-4a2d-95e0-7744f6097611{clip-path:url(#bff00814-0928-43e8-b906-46cdbebf9ab1);}.\36 8182db4-2ac1-4720-bfbf-ffe057ce733f{clip-path:url(#8b833554-e1ec-41d2-928e-c6c9e86f7950);}.df6002d1-5e40-468c-9230-a6b4efb0e527{clip-path:url(#e2ead761-d86a-4d7e-80c3-2852377b0fbe);}.\33 d5a7767-1858-42f6-a84c-114bac241e02{clip-path:url(#1a9f7a3b-c7b4-4364-aa46-58aa63919bf0);}.b83e5d90-8b32-46ad-a94c-ab76814a53d0{clip-path:url(#8800290d-2d39-4250-9231-a360a40b7bc2);}.\35 bbc3377-e26f-487d-87a9-12482a99daf6{clip-path:url(#58fd89df-f1fe-47c5-88d5-a3fc9e9083ed);}.\39 0ff02be-e152-400e-89ce-aee39ab66b6d{clip-path:url(#407845f0-0bc5-4cf1-90ca-02f7b0abf192);}.fe4d0dc6-e93f-485d-88d4-5d71dd35747b{clip-path:url(#7521297f-9377-40de-a7a4-40d41a2a06e9);}.\30 678f9e6-63ef-457c-b682-b1dadf0f80ea{clip-path:url(#9092d18d-c396-4e80-89c9-860acb7e5fab);}.\38 3bd4f98-91ee-4f4c-a51f-dc12c1923435{clip-path:url(#320261e2-857b-4f16-94ef-49497caf3b9c);}.\37 76798db-0446-45d2-b101-8887f1e9dd48{clip-path:url(#dd359ef6-5dfa-47d3-b3f2-c7b241e843cc);}.\32 5590dd2-dfdf-46c2-8f0f-6c5234d06a6a{clip-path:url(#b2d938a9-52ee-44c5-b501-185bc2c8cc5e);}.f40a4f18-6cac-49fa-872e-4fac53f3157a{clip-path:url(#7c806340-ec39-45b2-a178-e88941a3af39);}.\36 7d71c7d-01c5-4dcb-944e-66246ce98f31{clip-path:url(#a0dfdc8b-864a-41d3-ab59-e4a9cbf5244a);}.\34 a885169-e976-4eec-b9e3-1532f1befe4c{clip-path:url(#a80d9820-5798-4a5f-bd04-659ef59e5923);}.ea4a5c9e-f272-4c28-83df-6fe2d3ed73f7{clip-path:url(#2bec438e-9561-45d7-bd2a-8d48baa07940);}.\32 04da963-0c34-4bc5-bed1-0bf79e065c0f{clip-path:url(#462a306c-afa2-4a3a-95e5-3aead396776f);}.\38 c05730e-2d6f-4fa1-807d-88b8952a1fb6{clip-path:url(#c0792a10-34d3-48ce-93c1-cf5230142f3e);}.fbc1af71-153a-4244-86b3-1634d5abb1b7{clip-path:url(#59668fce-d2bf-4491-bf79-b3c8376b2ca0);}</style><clipPath id="7a3896af-d512-48cf-bdbf-7ee1eb216d62" transform="translate(0 0)"><rect class="d2a0ea7d-9051-406b-b54e-c70325fba969" width="29.91235" height="29.91235"/></clipPath><clipPath id="cf3b244e-5434-4209-8299-d04359d13e01" transform="translate(0 0)"><rect class="d2a0ea7d-9051-406b-b54e-c70325fba969" x="70.08765" y="126.08765" width="29.91235" height="29.91235"/></clipPath><clipPath id="ba12bf66-f523-40b2-add2-6616a1558310" transform="translate(0 0)"><rect class="d2a0ea7d-9051-406b-b54e-c70325fba969" x="7.81135" y="30.30795" width="14.28964" height="14.83331"/></clipPath><clipPath id="bff00814-0928-43e8-b906-46cdbebf9ab1" transform="translate(0 0)"><rect class="d2a0ea7d-9051-406b-b54e-c70325fba969" x="6.65392" y="29.72916" width="16.60658" height="16.60658"/></clipPath><clipPath id="8b833554-e1ec-41d2-928e-c6c9e86f7950" transform="translate(0 0)"><rect class="d2a0ea7d-9051-406b-b54e-c70325fba969" x="77.89901" y="110.85873" width="14.28964" height="14.83331"/></clipPath><clipPath id="e2ead761-d86a-4d7e-80c3-2852377b0fbe" transform="translate(0 0)"><rect class="d2a0ea7d-9051-406b-b54e-c70325fba969" x="76.7395" y="109.66426" width="16.60658" height="16.60658"/></clipPath><clipPath id="1a9f7a3b-c7b4-4364-aa46-58aa63919bf0" transform="translate(0 0)"><rect class="d2a0ea7d-9051-406b-b54e-c70325fba969" x="26.50526" y="15.40627" width="16.258" height="16.87656"/></clipPath><clipPath id="8800290d-2d39-4250-9231-a360a40b7bc2" transform="translate(0 0)"><rect class="d2a0ea7d-9051-406b-b54e-c70325fba969" x="25.18839" y="14.74775" width="18.89409" height="18.89409"/></clipPath><clipPath id="58fd89df-f1fe-47c5-88d5-a3fc9e9083ed" transform="translate(0 0)"><rect class="d2a0ea7d-9051-406b-b54e-c70325fba969" x="26.50526" y="67.25243" width="16.258" height="16.87656"/></clipPath><clipPath id="407845f0-0bc5-4cf1-90ca-02f7b0abf192" transform="translate(0 0)"><rect class="d2a0ea7d-9051-406b-b54e-c70325fba969" x="25.18839" y="66.59391" width="18.89409" height="18.89409"/></clipPath><clipPath id="7521297f-9377-40de-a7a4-40d41a2a06e9" transform="translate(0 0)"><rect class="d2a0ea7d-9051-406b-b54e-c70325fba969" x="57.23674" y="119.09859" width="16.258" height="16.87656"/></clipPath><clipPath id="9092d18d-c396-4e80-89c9-860acb7e5fab" transform="translate(0 0)"><rect class="d2a0ea7d-9051-406b-b54e-c70325fba969" x="55.91752" y="117.73958" width="18.89409" height="18.89409"/></clipPath><clipPath id="320261e2-857b-4f16-94ef-49497caf3b9c" transform="translate(0 0)"><rect class="d2a0ea7d-9051-406b-b54e-c70325fba969" x="41.87143" y="41.32891" width="16.258" height="16.87656"/></clipPath><clipPath id="dd359ef6-5dfa-47d3-b3f2-c7b241e843cc" transform="translate(0 0)"><rect class="d2a0ea7d-9051-406b-b54e-c70325fba969" x="40.55456" y="40.67039" width="18.89409" height="18.89409"/></clipPath><clipPath id="b2d938a9-52ee-44c5-b501-185bc2c8cc5e" transform="translate(0 0)"><rect class="d2a0ea7d-9051-406b-b54e-c70325fba969" x="57.23674" y="15.40627" width="16.258" height="16.87656"/></clipPath><clipPath id="7c806340-ec39-45b2-a178-e88941a3af39" transform="translate(0 0)"><rect class="d2a0ea7d-9051-406b-b54e-c70325fba969" x="55.91988" y="14.74775" width="18.89409" height="18.89409"/></clipPath><clipPath id="a0dfdc8b-864a-41d3-ab59-e4a9cbf5244a" transform="translate(0 0)"><rect class="d2a0ea7d-9051-406b-b54e-c70325fba969" x="57.23674" y="67.25243" width="16.258" height="16.87656"/></clipPath><clipPath id="a80d9820-5798-4a5f-bd04-659ef59e5923" transform="translate(0 0)"><rect class="d2a0ea7d-9051-406b-b54e-c70325fba969" x="55.91988" y="66.59391" width="18.89409" height="18.89409"/></clipPath><clipPath id="2bec438e-9561-45d7-bd2a-8d48baa07940" transform="translate(0 0)"><rect class="d2a0ea7d-9051-406b-b54e-c70325fba969" x="26.50526" y="119.09859" width="16.258" height="16.87656"/></clipPath><clipPath id="462a306c-afa2-4a3a-95e5-3aead396776f" transform="translate(0 0)"><rect class="d2a0ea7d-9051-406b-b54e-c70325fba969" x="25.18603" y="117.73958" width="18.89409" height="18.89409"/></clipPath><clipPath id="c0792a10-34d3-48ce-93c1-cf5230142f3e" transform="translate(0 0)"><rect class="d2a0ea7d-9051-406b-b54e-c70325fba969" x="41.871" y="93.17551" width="16.258" height="16.87656"/></clipPath><clipPath id="59668fce-d2bf-4491-bf79-b3c8376b2ca0" transform="translate(0 0)"><rect class="d2a0ea7d-9051-406b-b54e-c70325fba969" x="40.55177" y="91.81651" width="18.89409" height="18.89409"/></clipPath></defs><title>8</title><rect class="6ca32c4f-3d23-47a0-aace-a3f8035ca960" x="0.5" y="0.5" width="99" height="155" rx="5.5" ry="5.5"/><path class="aac425ba-88c7-4a62-b142-b25346b833cb" d="M94,1a5.00567,5.00567,0,0,1,5,5V150a5.00567,5.00567,0,0,1-5,5H6a5.00567,5.00567,0,0,1-5-5V6A5.00567,5.00567,0,0,1,6,1H94m0-1H6A6,6,0,0,0,0,6V150a6,6,0,0,0,6,6H94a6,6,0,0,0,6-6V6a6,6,0,0,0-6-6Z" transform="translate(0 0)"/><g class="a1df1dd4-ca33-4db5-967d-75fa21aa348a"><g class="a1df1dd4-ca33-4db5-967d-75fa21aa348a"><path class="95d935f1-4f42-47ad-abbb-07a771538c3a" d="M8.70313,19.957a5.6004,5.6004,0,0,1,.93945-3.14111A5.74015,5.74015,0,0,1,12.769,14.65674v-.19629a3.56585,3.56585,0,0,1-1.07959-.43457,4.30329,4.30329,0,0,1-.99561-.81348,3.94608,3.94608,0,0,1-.729-1.16357,3.75139,3.75139,0,0,1-.28027-1.458A3.91412,3.91412,0,0,1,10.063,8.894a4.44828,4.44828,0,0,1,1.06592-1.416,5.1767,5.1767,0,0,1,1.6543-.98145,6.12265,6.12265,0,0,1,2.17334-.36475,7.37183,7.37183,0,0,1,2.41162.35059,4.99772,4.99772,0,0,1,1.65479.91113,3.64668,3.64668,0,0,1,.96729,1.3042,3.87139,3.87139,0,0,1,.32227,1.55615,4.22268,4.22268,0,0,1-.79883,2.48193,4.44616,4.44616,0,0,1-2.3418,1.64063v.19629a6.74476,6.74476,0,0,1,1.17773.35059,4.45168,4.45168,0,0,1,1.332.813A4.50432,4.50432,0,0,1,21.21,19.312a6.23345,6.23345,0,0,1-.49072,2.52393,5.75352,5.75352,0,0,1-1.3457,1.9209,5.52907,5.52907,0,0,1-1.99121,1.19189,7.38831,7.38831,0,0,1-2.42578.39258,9.10882,9.10882,0,0,1-2.46777-.32275,5.303,5.303,0,0,1-1.99121-1.02344,4.95132,4.95132,0,0,1-1.31787-1.71045A5.39219,5.39219,0,0,1,8.70313,19.957Zm10.03906-.14014a6.35954,6.35954,0,0,0-.26611-1.89307,4.66927,4.66927,0,0,0-.75732-1.48633,3.49422,3.49422,0,0,0-5.52441,0,4.64943,4.64943,0,0,0-.75732,1.48633,6.86473,6.86473,0,0,0,0,3.78564,4.63925,4.63925,0,0,0,.75732,1.48633,3.49422,3.49422,0,0,0,5.52441,0,4.659,4.659,0,0,0,.75732-1.48633A6.35161,6.35161,0,0,0,18.74219,19.81689Zm-.729-9.19824a5.42162,5.42162,0,0,0-.16846-1.374,3.12828,3.12828,0,0,0-.54639-1.13574,2.83949,2.83949,0,0,0-.93945-.78516,2.93189,2.93189,0,0,0-1.37451-.29443,2.946,2.946,0,0,0-1.35986.29443,2.657,2.657,0,0,0-.93945.78516,3.26237,3.26237,0,0,0-.53271,1.13574,5.63011,5.63011,0,0,0,0,2.73389,3.25079,3.25079,0,0,0,.53271,1.1499,2.657,2.657,0,0,0,.93945.78516,2.946,2.946,0,0,0,1.35986.29443,2.93189,2.93189,0,0,0,1.37451-.29443,2.83949,2.83949,0,0,0,.93945-.78516,3.11856,3.11856,0,0,0,.54639-1.1499A5.46666,5.46666,0,0,0,18.01318,10.61865Z" transform="translate(0 0)"/></g></g><g class="5881df08-239e-47e9-995c-faec9dd5f035"><g class="5881df08-239e-47e9-995c-faec9dd5f035"><path class="95d935f1-4f42-47ad-abbb-07a771538c3a" d="M91.29785,136.043a5.60421,5.60421,0,0,1-.93945,3.14063,5.74018,5.74018,0,0,1-3.127,2.15918v.19629a3.5695,3.5695,0,0,1,1.0791.43555,4.26853,4.26853,0,0,1,.99609.8125,3.97025,3.97025,0,0,1,.72852,1.16406,3.74124,3.74124,0,0,1,.28125,1.458,3.92368,3.92368,0,0,1-.37891,1.69727,4.47734,4.47734,0,0,1-1.06543,1.416,5.18159,5.18159,0,0,1-1.65527.98145,6.14186,6.14186,0,0,1-2.17285.36426,7.39209,7.39209,0,0,1-2.41211-.35059,4.98264,4.98264,0,0,1-1.6543-.91113,3.64792,3.64792,0,0,1-.96777-1.30371,3.892,3.892,0,0,1-.32227-1.55664,4.22285,4.22285,0,0,1,.7998-2.48242,4.44021,4.44021,0,0,1,2.34082-1.63965v-.19629a6.90078,6.90078,0,0,1-1.17773-.35059,4.48573,4.48573,0,0,1-1.332-.81348,4.50633,4.50633,0,0,1-1.52832-3.5752,6.23589,6.23589,0,0,1,.49121-2.52441,5.76051,5.76051,0,0,1,1.3457-1.9209,5.53485,5.53485,0,0,1,1.99121-1.19141,7.37553,7.37553,0,0,1,2.42578-.39258,9.109,9.109,0,0,1,2.46777.32227,5.29963,5.29963,0,0,1,1.99121,1.02344,4.94139,4.94139,0,0,1,1.31738,1.71094A5.3814,5.3814,0,0,1,91.29785,136.043Zm-10.04.14063a6.34016,6.34016,0,0,0,.2666,1.89258,4.66842,4.66842,0,0,0,.75684,1.48633,3.49545,3.49545,0,0,0,5.52539,0,4.64858,4.64858,0,0,0,.75684-1.48633,6.85438,6.85438,0,0,0,0-3.78613,4.64858,4.64858,0,0,0-.75684-1.48633,3.49545,3.49545,0,0,0-5.52539,0,4.66842,4.66842,0,0,0-.75684,1.48633A6.34217,6.34217,0,0,0,81.25781,136.18359Zm.72949,9.19824a5.42733,5.42733,0,0,0,.168,1.374,3.1486,3.1486,0,0,0,.54688,1.13574,2.85119,2.85119,0,0,0,.93945.78516,3.32641,3.32641,0,0,0,2.73438,0,2.66713,2.66713,0,0,0,.93945-.78516,3.27562,3.27562,0,0,0,.5332-1.13574,5.648,5.648,0,0,0,0-2.73437,3.25792,3.25792,0,0,0-.5332-1.15039,2.657,2.657,0,0,0-.93945-.78516,3.32641,3.32641,0,0,0-2.73437,0,2.83949,2.83949,0,0,0-.93945.78516,3.133,3.133,0,0,0-.54687,1.15039A5.46461,5.46461,0,0,0,81.9873,145.38184Z" transform="translate(0 0)"/></g></g><g class="07ca74f1-f545-40c2-bf00-b356907fe360"><g class="ab1f9820-4f04-4a2d-95e0-7744f6097611"><path class="95d935f1-4f42-47ad-abbb-07a771538c3a" d="M14.72884,45.00738a.30754.30754,0,0,0,.45467,0C18.2436,41.64013,22.101,39.6081,22.101,35.35616c0-4.35786-4.7766-5.04821-7.14485-1.51671C12.58789,30.308,7.81135,30.9983,7.81135,35.35616c0,4.25193,3.8574,6.284,6.91748,9.65121" transform="translate(0 0)"/></g></g><g class="68182db4-2ac1-4720-bfbf-ffe057ce733f"><g class="df6002d1-5e40-468c-9230-a6b4efb0e527"><path class="95d935f1-4f42-47ad-abbb-07a771538c3a" d="M85.27116,110.99262a.30754.30754,0,0,0-.45467,0c-3.06009,3.36724-6.91749,5.39928-6.91749,9.65121,0,4.35786,4.7766,5.04821,7.14485,1.51671,2.36825,3.53149,7.14479,2.84115,7.14479-1.51671,0-4.25193-3.8574-6.284-6.91748-9.65121" transform="translate(0 0)"/></g></g><g class="3d5a7767-1858-42f6-a84c-114bac241e02"><g class="b83e5d90-8b32-46ad-a94c-ab76814a53d0"><path class="95d935f1-4f42-47ad-abbb-07a771538c3a" d="M34.37561,32.1305a.3499.3499,0,0,0,.5173,0c3.48161-3.83107,7.87035-6.143,7.87035-10.98064,0-4.95815-5.43456-5.74358-8.129-1.72564-2.69447-4.01795-8.129-3.23251-8.129,1.72564,0,4.83763,4.38874,7.14957,7.87035,10.98064" transform="translate(0 0)"/></g></g><g class="5bbc3377-e26f-487d-87a9-12482a99daf6"><g class="90ff02be-e152-400e-89ce-aee39ab66b6d"><path class="95d935f1-4f42-47ad-abbb-07a771538c3a" d="M34.37561,83.97666a.3499.3499,0,0,0,.5173,0c3.48161-3.83107,7.87035-6.143,7.87035-10.98064,0-4.95815-5.43456-5.74358-8.129-1.72564-2.69447-4.01795-8.129-3.23251-8.129,1.72564,0,4.83763,4.38874,7.14957,7.87035,10.98064" transform="translate(0 0)"/></g></g><g class="fe4d0dc6-e93f-485d-88d4-5d71dd35747b"><g class="0678f9e6-63ef-457c-b682-b1dadf0f80ea"><path class="95d935f1-4f42-47ad-abbb-07a771538c3a" d="M65.62439,119.25093a.3499.3499,0,0,0-.5173,0c-3.48161,3.83107-7.87035,6.143-7.87035,10.98064,0,4.95815,5.43456,5.74358,8.129,1.72564,2.69447,4.01795,8.129,3.23251,8.129-1.72564,0-4.83763-4.38874-7.14957-7.87035-10.98064" transform="translate(0 0)"/></g></g><g class="83bd4f98-91ee-4f4c-a51f-dc12c1923435"><g class="776798db-0446-45d2-b101-8887f1e9dd48"><path class="95d935f1-4f42-47ad-abbb-07a771538c3a" d="M49.74177,58.05314a.3499.3499,0,0,0,.5173,0c3.48161-3.83107,7.87035-6.143,7.87035-10.98064,0-4.95815-5.43456-5.74358-8.129-1.72564-2.69447-4.01795-8.129-3.23251-8.129,1.72564,0,4.83763,4.38874,7.14957,7.87035,10.98064" transform="translate(0 0)"/></g></g><g class="25590dd2-dfdf-46c2-8f0f-6c5234d06a6a"><g class="f40a4f18-6cac-49fa-872e-4fac53f3157a"><path class="95d935f1-4f42-47ad-abbb-07a771538c3a" d="M65.10709,32.1305a.3499.3499,0,0,0,.5173,0c3.48161-3.83107,7.87035-6.143,7.87035-10.98064,0-4.95815-5.43456-5.74358-8.129-1.72564-2.69447-4.01795-8.129-3.23251-8.129,1.72564,0,4.83763,4.38874,7.14957,7.87035,10.98064" transform="translate(0 0)"/></g></g><g class="67d71c7d-01c5-4dcb-944e-66246ce98f31"><g class="4a885169-e976-4eec-b9e3-1532f1befe4c"><path class="95d935f1-4f42-47ad-abbb-07a771538c3a" d="M65.10709,83.97666a.3499.3499,0,0,0,.5173,0c3.48161-3.83107,7.87035-6.143,7.87035-10.98064,0-4.95815-5.43456-5.74358-8.129-1.72564-2.69447-4.01795-8.129-3.23251-8.129,1.72564,0,4.83763,4.38874,7.14957,7.87035,10.98064" transform="translate(0 0)"/></g></g><g class="ea4a5c9e-f272-4c28-83df-6fe2d3ed73f7"><g class="204da963-0c34-4bc5-bed1-0bf79e065c0f"><path class="95d935f1-4f42-47ad-abbb-07a771538c3a" d="M34.89291,119.25093a.3499.3499,0,0,0-.5173,0c-3.48161,3.83107-7.87035,6.143-7.87035,10.98064,0,4.95815,5.43456,5.74358,8.129,1.72564,2.69447,4.01795,8.129,3.23251,8.129-1.72564,0-4.83763-4.38874-7.14957-7.87035-10.98064" transform="translate(0 0)"/></g></g><g class="8c05730e-2d6f-4fa1-807d-88b8952a1fb6"><g class="fbc1af71-153a-4244-86b3-1634d5abb1b7"><path class="95d935f1-4f42-47ad-abbb-07a771538c3a" d="M50.25865,93.32785a.3499.3499,0,0,0-.5173,0c-3.48161,3.83107-7.87035,6.143-7.87035,10.98064,0,4.95815,5.43456,5.74358,8.129,1.72564,2.69447,4.01795,8.129,3.23251,8.129-1.72564,0-4.83763-4.38874-7.14957-7.87035-10.98064" transform="translate(0 0)"/></g></g></svg>