<svg id="0752db41-6be7-4736-9c0f-1331d1aa022b" data-name="レイヤー 1" xmlns="http://www.w3.org/2000/svg" xmlns:xlink="http://www.w3.org/1999/xlink" viewBox="0 0 100 156"><defs><style>.\39 b33e4f2-ec16-45c7-b5f1-5b393547b8e5{fill:none;}.\37 9a703a1-dce2-4f86-b487-92c21ab02caf{fill:#fff;}.\34 04d74e0-f559-496a-8a89-6350d94aab80{fill:#7f7f7f;}.\30 8fe8444-25b0-4d40-9e31-36ba818f3d20{clip-path:url(#ab17bc51-8d29-482e-9c93-00183f25c381);}.b5212a18-a003-45fe-9336-6538ef1ba13f{fill:#a00;}.\35 a7c94f5-34fe-48e9-a638-49ccdc62b2e0{clip-path:url(#4f2abac2-5b3a-4de2-ba15-c3b466b8d97c);}.\39 018e092-1c60-4c42-9f34-b8e031f299c6{clip-path:url(#0f934e22-4370-44d9-948b-35f3c55ac200);}.\32 3ff6fa3-fe1c-47ee-9fc5-44f5236c2f4e{clip-path:url(#dc7e57a4-7cbc-42f3-b786-06f887040971);}.\31 1c3e385-d3e8-417e-acfc-6dc9447d79f8{clip-path:url(#bca4cd41-d5f6-424e-90ba-0c62e2be3314);}.\30 991dafd-a489-4f9d-aeec-cdf46b3d147a{clip-path:url(#678dd638-618f-4fd5-b3b6-dab877466104);}.\30 bc0cead-5b8e-4448-9c74-0d36a093647e{clip-path:url(#9c05c2cc-af0e-4621-9f0a-2b896cefaa79);}.bf1b6a55-41aa-4eaa-b2d4-d129ae9d65e1{clip-path:url(#78fb3bfd-fad2-493e-be24-13fdc5db94f4);}</style><clipPath id="ab17bc51-8d29-482e-9c93-00183f25c381"><rect class="9b33e4f2-ec16-45c7-b5f1-5b393547b8e5" width="29.91235" height="29.91235"/></clipPath><clipPath id="4f2abac2-5b3a-4de2-ba15-c3b466b8d97c"><rect class="9b33e4f2-ec16-45c7-b5f1-5b393547b8e5" x="70.08765" y="126.08765" width="29.91235" height="29.91235"/></clipPath><clipPath id="0f934e22-4370-44d9-948b-35f3c55ac200"><rect class="9b33e4f2-ec16-45c7-b5f1-5b393547b8e5" x="7.81135" y="30.30795" width="14.28964" height="14.83331"/></clipPath><clipPath id="dc7e57a4-7cbc-42f3-b786-06f887040971"><rect class="9b33e4f2-ec16-45c7-b5f1-5b393547b8e5" x="6.65392" y="29.72916" width="16.60658" height="16.60658"/></clipPath><clipPath id="bca4cd41-d5f6-424e-90ba-0c62e2be3314"><rect class="9b33e4f2-ec16-45c7-b5f1-5b393547b8e5" x="77.89901" y="110.85873" width="14.28964" height="14.83331"/></clipPath><clipPath id="678dd638-618f-4fd5-b3b6-dab877466104"><rect class="9b33e4f2-ec16-45c7-b5f1-5b393547b8e5" x="76.7395" y="109.66426" width="16.60658" height="16.60658"/></clipPath><clipPath id="9c05c2cc-af0e-4621-9f0a-2b896cefaa79"><rect class="9b33e4f2-ec16-45c7-b5f1-5b393547b8e5" x="41.871" y="69.56172" width="16.258" height="16.87656"/></clipPath><clipPath id="78fb3bfd-fad2-493e-be24-13fdc5db94f4"><rect class="9b33e4f2-ec16-45c7-b5f1-5b393547b8e5" x="40.55413" y="68.9032" width="18.89409" height="18.89409"/></clipPath></defs><title>A</title><rect class="79a703a1-dce2-4f86-b487-92c21ab02caf" x="0.5" y="0.5" width="99" height="155" rx="5.5" ry="5.5"/><path class="404d74e0-f559-496a-8a89-6350d94aab80" d="M94,1a5.00567,5.00567,0,0,1,5,5V150a5.00567,5.00567,0,0,1-5,5H6a5.00567,5.00567,0,0,1-5-5V6A5.00567,5.00567,0,0,1,6,1H94m0-1H6A6,6,0,0,0,0,6V150a6,6,0,0,0,6,6H94a6,6,0,0,0,6-6V6a6,6,0,0,0-6-6Z"/><g class="08fe8444-25b0-4d40-9e31-36ba818f3d20"><g class="08fe8444-25b0-4d40-9e31-36ba818f3d20"><path class="b5212a18-a003-45fe-9336-6538ef1ba13f" d="M23.98682,25.03271a5.24335,5.24335,0,0,0-.74316-.05615H21.75732a5.23279,5.23279,0,0,0-.74316.05615q-.19629-.64453-.53271-1.55664-.33691-.9104-.74316-1.90674-.40723-.99536-.82764-2.019-.42041-1.02319-.78516-1.94922-.89722-.0271-1.82275-.042-.925-.01392-1.85059-.01367-.86938,0-1.71094.01367-.84082.01465-1.71045.042-.89795,2.18774-1.62646,4.16455-.72949,1.97681-1.09375,3.26709a8.86418,8.86418,0,0,0-1.0376-.05615,8.86418,8.86418,0,0,0-1.0376.05615q2.272-4.90723,4.43115-9.75879Q12.825,10.42236,15.0127,5.40283h.5332q.6731,1.62671,1.458,3.519.78516,1.89331,1.59863,3.82813.813,1.93506,1.62646,3.8418.813,1.90723,1.52832,3.54736.71484,1.64063,1.29,2.93066Q23.62158,24.35962,23.98682,25.03271ZM11.56348,16.31152q.72949,0,1.51465.02783.78442.02856,1.51416.02783.78442,0,1.57031-.01367.78516-.01392,1.57031-.042l-3.11279-7.123Z"/></g></g><g class="5a7c94f5-34fe-48e9-a638-49ccdc62b2e0"><g class="5a7c94f5-34fe-48e9-a638-49ccdc62b2e0"><path class="b5212a18-a003-45fe-9336-6538ef1ba13f" d="M76.01465,130.96777a5.30744,5.30744,0,0,0,.74316.05566h1.48633a5.30744,5.30744,0,0,0,.74316-.05566q.19629.64453.53223,1.55566.33691.91113.74316,1.90723.40723.99463.82715,2.01953.42041,1.02246.78516,1.94824.89795.02783,1.82324.042.92578.01465,1.85059.01465c.58008,0,1.14941-.00488,1.71094-.01465q.84082-.01465,1.71-.042.89795-2.187,1.627-4.16406.72949-1.97754,1.09375-3.2666a9.69842,9.69842,0,0,0,2.0752,0q-2.272,4.90576-4.43066,9.75879-2.15918,4.8501-4.34668,9.87109h-.5332q-.67236-1.62744-1.458-3.51953-.78516-1.89258-1.59863-3.82812-.813-1.93506-1.626-3.8418-.813-1.90723-1.52832-3.54785-.71631-1.63916-1.29-2.92969Q76.37988,131.64014,76.01465,130.96777Zm12.42285,8.7207q-.72949,0-1.51465-.02832-.78516-.02783-1.51367-.02734-.78516,0-1.57129.01367-.78369.01465-1.57031.042l3.11328,7.123Z"/></g></g><g class="9018e092-1c60-4c42-9f34-b8e031f299c6"><g class="23ff6fa3-fe1c-47ee-9fc5-44f5236c2f4e"><path class="b5212a18-a003-45fe-9336-6538ef1ba13f" d="M14.72884,45.00738a.30754.30754,0,0,0,.45467,0C18.2436,41.64013,22.101,39.6081,22.101,35.35616c0-4.35786-4.7766-5.04821-7.14485-1.51671C12.58789,30.308,7.81135,30.9983,7.81135,35.35616c0,4.25193,3.8574,6.284,6.91748,9.65121"/></g></g><g class="11c3e385-d3e8-417e-acfc-6dc9447d79f8"><g class="0991dafd-a489-4f9d-aeec-cdf46b3d147a"><path class="b5212a18-a003-45fe-9336-6538ef1ba13f" d="M85.27116,110.99262a.30754.30754,0,0,0-.45467,0c-3.06009,3.36724-6.91749,5.39928-6.91749,9.65121,0,4.35786,4.7766,5.04821,7.14485,1.51671,2.36825,3.53149,7.14479,2.84115,7.14479-1.51671,0-4.25193-3.8574-6.284-6.91748-9.65121"/></g></g><g class="0bc0cead-5b8e-4448-9c74-0d36a093647e"><g class="bf1b6a55-41aa-4eaa-b2d4-d129ae9d65e1"><path class="b5212a18-a003-45fe-9336-6538ef1ba13f" d="M49.74135,86.28595a.3499.3499,0,0,0,.5173,0c3.48161-3.83107,7.87035-6.143,7.87035-10.98064,0-4.95815-5.43456-5.74358-8.129-1.72564-2.69447-4.01795-8.129-3.23251-8.129,1.72564,0,4.83763,4.38874,7.14957,7.87035,10.98064"/></g></g></svg>