<svg xmlns="http://www.w3.org/2000/svg" xmlns:xlink="http://www.w3.org/1999/xlink" viewBox="0 0 100 156"><defs><style>.\33 10dca81-4cf4-4c08-83c8-43fcec72a779{fill:none;}.c5f4c403-106c-44b7-84d6-2d00ba41fc8b{isolation:isolate;}.\30 12432db-c042-4054-8c15-6b54ced8c26c{fill:#fff;}.aeff984d-fafc-4e50-991f-6e11cffc937c{fill:#7f7f7f;}.\33 04b2582-d749-479c-acc7-c0de18b6fe40{clip-path:url(#8a7fe7fd-1f5d-48fd-98ee-b51c16cfe1a5);}.\30 17e05c9-65d5-43b3-b7e2-82ef57ea7096{fill:#a00;}.\32 5132c3e-4f4e-4548-be86-aff5fbaf0607{clip-path:url(#07aa0738-29b0-47ad-910f-68924cff2025);}.\33 30eee82-b04a-4cd8-b661-4b42b1d3aa8e{clip-path:url(#941f1e5b-0780-48fa-a01b-2bb51d5e3e05);}.e530334c-d6a3-473b-89ce-5b39dff23848{clip-path:url(#46738aa8-9fdc-4582-895f-feb595512f32);}.\35 01ec935-26df-4b70-8a69-e5ab69376c7b{clip-path:url(#9b719185-f2f5-4082-8c9e-f4dbe23b7a3c);}.\38 51cfd7a-a056-48e9-9822-1531e81059d2{clip-path:url(#17071179-d64f-402f-a203-63f02d846c23);}.\36 6bd5f99-9916-453d-bc11-eba8489a4453{clip-path:url(#3bdd7a8a-7b93-45c4-9b97-f7a6c3aa1c53);}.\36 5b00133-a166-4dbc-8160-63ca5de97e1c{mix-blend-mode:multiply;}.f1428d3e-7a8f-439a-a713-587cb88664fd{clip-path:url(#1f6df935-039f-4716-8b18-82e1d1442020);}.\30 c3ae747-6e4b-44b3-a114-941431da4e4c{fill:#aa5454;}.\34 d74d825-dc43-46a2-bf18-864868bd1994{clip-path:url(#bd9362a2-b41b-4b79-883a-dbe6611107e9);}.\37 d08f8f2-8eca-4202-af3d-c207ac3f73e3{clip-path:url(#22cb9260-5595-4baf-858e-14de537bc333);}.b0ec73e5-e6ef-4d8c-8f22-f31490a61acc{clip-path:url(#ea2571ab-576f-4077-a458-f9cee389bef1);}</style><clipPath id="8a7fe7fd-1f5d-48fd-98ee-b51c16cfe1a5"><rect class="310dca81-4cf4-4c08-83c8-43fcec72a779" width="29.91235" height="29.91235"/></clipPath><clipPath id="07aa0738-29b0-47ad-910f-68924cff2025"><rect class="310dca81-4cf4-4c08-83c8-43fcec72a779" x="70.08765" y="126.08765" width="29.91235" height="29.91235"/></clipPath><clipPath id="941f1e5b-0780-48fa-a01b-2bb51d5e3e05"><rect class="310dca81-4cf4-4c08-83c8-43fcec72a779" x="7.81135" y="30.30795" width="14.28964" height="14.83331"/></clipPath><clipPath id="46738aa8-9fdc-4582-895f-feb595512f32"><rect class="310dca81-4cf4-4c08-83c8-43fcec72a779" x="6.65392" y="29.72916" width="16.60658" height="16.60658"/></clipPath><clipPath id="9b719185-f2f5-4082-8c9e-f4dbe23b7a3c"><rect class="310dca81-4cf4-4c08-83c8-43fcec72a779" x="77.89901" y="110.85873" width="14.28964" height="14.83331"/></clipPath><clipPath id="17071179-d64f-402f-a203-63f02d846c23"><rect class="310dca81-4cf4-4c08-83c8-43fcec72a779" x="76.7395" y="109.66426" width="16.60658" height="16.60658"/></clipPath><clipPath id="3bdd7a8a-7b93-45c4-9b97-f7a6c3aa1c53"><rect class="310dca81-4cf4-4c08-83c8-43fcec72a779" x="25" y="23" width="50" height="110"/></clipPath><clipPath id="1f6df935-039f-4716-8b18-82e1d1442020"><rect class="310dca81-4cf4-4c08-83c8-43fcec72a779" x="25.00002" y="78.0001" width="24.99998" height="55.00001"/></clipPath><clipPath id="bd9362a2-b41b-4b79-883a-dbe6611107e9"><rect class="310dca81-4cf4-4c08-83c8-43fcec72a779" x="25" y="23" width="25" height="55.0001"/></clipPath><clipPath id="22cb9260-5595-4baf-858e-14de537bc333"><rect class="310dca81-4cf4-4c08-83c8-43fcec72a779" x="50.0001" y="23" width="25" height="55"/></clipPath><clipPath id="ea2571ab-576f-4077-a458-f9cee389bef1"><rect class="310dca81-4cf4-4c08-83c8-43fcec72a779" x="50" y="78" width="25.0001" height="55.00014"/></clipPath></defs><title>Q</title><g class="c5f4c403-106c-44b7-84d6-2d00ba41fc8b"><g id="bad8fead-dc6d-4631-b5b4-2bd0f379cb04" data-name="レイヤー 1"><rect class="012432db-c042-4054-8c15-6b54ced8c26c" x="0.5" y="0.5" width="99" height="155" rx="5.5" ry="5.5"/><path class="aeff984d-fafc-4e50-991f-6e11cffc937c" d="M94,1a5.00567,5.00567,0,0,1,5,5V150a5.00567,5.00567,0,0,1-5,5H6a5.00567,5.00567,0,0,1-5-5V6A5.00567,5.00567,0,0,1,6,1H94m0-1H6A6,6,0,0,0,0,6V150a6,6,0,0,0,6,6H94a6,6,0,0,0,6-6V6a6,6,0,0,0-6-6Z"/><g class="304b2582-d749-479c-acc7-c0de18b6fe40"><g class="304b2582-d749-479c-acc7-c0de18b6fe40"><path class="017e05c9-65d5-43b3-b7e2-82ef57ea7096" d="M4.45459,15.44189a11.0278,11.0278,0,0,1,.77148-4.24854A8.85919,8.85919,0,0,1,7.38525,8.03857,9.31085,9.31085,0,0,1,10.708,6.07568a12.81257,12.81257,0,0,1,4.23486-.67285,12.901,12.901,0,0,1,4.26221.67285,9.30874,9.30874,0,0,1,3.32324,1.96289,8.87171,8.87171,0,0,1,2.15918,3.15479,11.037,11.037,0,0,1,.771,4.24854,11.35341,11.35341,0,0,1-.53271,3.57568,9.46343,9.46343,0,0,1-1.5,2.86035,8.32087,8.32087,0,0,1-2.32764,2.061,9.05064,9.05064,0,0,1-3.04248,1.12158q1.51392,1.20557,3.07031,2.41162,1.5564,1.20557,3.26709,2.41211a3.06694,3.06694,0,0,0-1.34619.42041,2.39579,2.39579,0,0,0-.84131.729q-1.54248-1.42969-3.11279-2.832-1.57031-1.40259-3.33691-2.83252a2.34264,2.34264,0,0,1-.42041.02783h-.39258a13.587,13.587,0,0,1-4.23486-.63086,8.65166,8.65166,0,0,1-5.48193-5.07568A11.02433,11.02433,0,0,1,4.45459,15.44189Zm18.25586,0a12.30279,12.30279,0,0,0-.58887-4.02393A7.65086,7.65086,0,0,0,20.481,8.61377a6.54084,6.54084,0,0,0-2.46777-1.64063,9.03547,9.03547,0,0,0-6.11328,0A6.54084,6.54084,0,0,0,9.43213,8.61377,7.65008,7.65008,0,0,0,7.792,11.418a12.28907,12.28907,0,0,0-.58936,4.02393A12.286,12.286,0,0,0,7.792,19.46631a7.642,7.642,0,0,0,1.64014,2.8042,6.52943,6.52943,0,0,0,2.46777,1.64063,9.03547,9.03547,0,0,0,6.11328,0A6.52943,6.52943,0,0,0,20.481,22.27051a7.64281,7.64281,0,0,0,1.64063-2.8042A12.29972,12.29972,0,0,0,22.71045,15.44189Z"/></g></g><g class="25132c3e-4f4e-4548-be86-aff5fbaf0607"><g class="25132c3e-4f4e-4548-be86-aff5fbaf0607"><path class="017e05c9-65d5-43b3-b7e2-82ef57ea7096" d="M95.5459,140.55762a11.03207,11.03207,0,0,1-.77148,4.249,8.84864,8.84864,0,0,1-2.15918,3.1543,9.28334,9.28334,0,0,1-3.32324,1.96289,13.73043,13.73043,0,0,1-8.49707,0,9.27911,9.27911,0,0,1-3.32227-1.96289,8.86339,8.86339,0,0,1-2.16016-3.1543,11.05052,11.05052,0,0,1-.77051-4.249,11.36893,11.36893,0,0,1,.53223-3.5752,9.47128,9.47128,0,0,1,1.501-2.86035,8.336,8.336,0,0,1,2.32715-2.06152,9.04873,9.04873,0,0,1,3.043-1.12109q-1.51465-1.20557-3.07129-2.41211-1.55566-1.20557-3.2666-2.41113a3.06551,3.06551,0,0,0,1.3457-.4209,2.39454,2.39454,0,0,0,.8418-.72949q1.54248,1.43115,3.1123,2.833,1.57178,1.40186,3.33691,2.832a2.33929,2.33929,0,0,1,.4209-.02832h.39258a13.61253,13.61253,0,0,1,4.23438.63086,8.65,8.65,0,0,1,5.48242,5.07617A11.02354,11.02354,0,0,1,95.5459,140.55762Zm-18.25586,0a12.30177,12.30177,0,0,0,.58887,4.02441,7.65708,7.65708,0,0,0,1.64063,2.80469,6.54085,6.54085,0,0,0,2.46777,1.64063,9.04327,9.04327,0,0,0,6.11328,0,6.54085,6.54085,0,0,0,2.46777-1.64062A7.65708,7.65708,0,0,0,92.209,144.582a14.04285,14.04285,0,0,0,0-8.04785,7.641,7.641,0,0,0-1.64062-2.80469,6.54084,6.54084,0,0,0-2.46777-1.64062,9.04327,9.04327,0,0,0-6.11328,0,6.54084,6.54084,0,0,0-2.46777,1.64063,7.641,7.641,0,0,0-1.64062,2.80469A12.2956,12.2956,0,0,0,77.29,140.55762Z"/></g></g><g class="330eee82-b04a-4cd8-b661-4b42b1d3aa8e"><g class="e530334c-d6a3-473b-89ce-5b39dff23848"><path class="017e05c9-65d5-43b3-b7e2-82ef57ea7096" d="M14.72884,45.00738a.30754.30754,0,0,0,.45467,0C18.2436,41.64013,22.101,39.6081,22.101,35.35616c0-4.35786-4.7766-5.04821-7.14485-1.51671C12.58789,30.308,7.81135,30.9983,7.81135,35.35616c0,4.25193,3.8574,6.284,6.91748,9.65121"/></g></g><g class="501ec935-26df-4b70-8a69-e5ab69376c7b"><g class="851cfd7a-a056-48e9-9822-1531e81059d2"><path class="017e05c9-65d5-43b3-b7e2-82ef57ea7096" d="M85.27116,110.99262a.30754.30754,0,0,0-.45467,0c-3.06009,3.36724-6.91749,5.39928-6.91749,9.65121,0,4.35786,4.7766,5.04821,7.14485,1.51671,2.36825,3.53149,7.14479,2.84115,7.14479-1.51671,0-4.25193-3.8574-6.284-6.91748-9.65121"/></g></g></g><g id="1b3bf9b5-95af-469a-b0f6-43f3f5bdcb35" data-name="レイヤー 2"><g class="66bd5f99-9916-453d-bc11-eba8489a4453"><g class="66bd5f99-9916-453d-bc11-eba8489a4453"><g class="66bd5f99-9916-453d-bc11-eba8489a4453"><g class="65b00133-a166-4dbc-8160-63ca5de97e1c"><g class="f1428d3e-7a8f-439a-a713-587cb88664fd"><polyline class="0c3ae747-6e4b-44b3-a114-941431da4e4c" points="50 133 25 133 25 78"/></g></g><g class="65b00133-a166-4dbc-8160-63ca5de97e1c"><g class="4d74d825-dc43-46a2-bf18-864868bd1994"><polyline class="0c3ae747-6e4b-44b3-a114-941431da4e4c" points="50 23 25 23 25 78"/></g></g><g class="65b00133-a166-4dbc-8160-63ca5de97e1c"><g class="7d08f8f2-8eca-4202-af3d-c207ac3f73e3"><polyline class="0c3ae747-6e4b-44b3-a114-941431da4e4c" points="50 23 75 23 75 78"/></g></g><g class="65b00133-a166-4dbc-8160-63ca5de97e1c"><g class="b0ec73e5-e6ef-4d8c-8f22-f31490a61acc"><polyline class="0c3ae747-6e4b-44b3-a114-941431da4e4c" points="50 133 75 133 75 78"/></g></g><g class="65b00133-a166-4dbc-8160-63ca5de97e1c"><g class="b0ec73e5-e6ef-4d8c-8f22-f31490a61acc"><polyline class="0c3ae747-6e4b-44b3-a114-941431da4e4c" points="50 133 75 133 75 78"/></g></g></g></g></g></g></g></svg>