<svg id="a34bb36c-b5c3-4006-b3e9-b9d9cb2a95d0" data-name="レイヤー 1" xmlns="http://www.w3.org/2000/svg" xmlns:xlink="http://www.w3.org/1999/xlink" viewBox="0 0 100 156"><defs><style>.\31 c30a9c3-f977-4b1c-a440-af7eb94ef3ef{fill:none;}.a197c5da-1b1d-4ea0-bcd5-66184e8e7bb2{fill:#fff;}.\33 192feb3-2ccb-4c85-9f26-827a82ec237a{fill:#7f7f7f;}.\32 ebaa97d-7269-47c9-a15f-e58bd6c12ca5{clip-path:url(#b67ee80b-fefa-4426-86b0-d1faa26d3ba0);}.a9f34f0c-aab6-4ce4-a0ac-2f69d0d4e425{fill:#a00;}.\31 2f46fa8-acb8-4319-8c7f-a4ec84065028{clip-path:url(#256fafd5-1551-4ea6-a0ca-6c19ae87ea64);}.\30 a77565a-f70c-4e0f-a408-a4844d4a61a1{clip-path:url(#0f265b70-f8ee-4916-a1d6-ccff8939c73d);}.\39 c1c5239-0ea7-4bb3-a2d3-66c8adcce07f{clip-path:url(#a5df7fb7-76aa-48ff-b263-ba75308dba7e);}.e1785b6d-fefe-4707-8deb-8b15038d6960{clip-path:url(#c861e06a-bd30-45cb-a55c-c7d0cf521ab5);}.f3f0a493-53bb-4f65-80b3-4064b23e72fb{clip-path:url(#9cb9754e-ad62-4565-9413-c72bdf37a1df);}.\33 0d21b73-340c-47f0-803b-c91096359270{clip-path:url(#27fd7842-51a5-49c1-946f-87cea4f4f038);}.\37 36466f0-38bc-4d09-a830-f10096973921{clip-path:url(#ff97eef3-07a4-4ffb-8390-c5cc4f143fa2);}.\35 8ae9525-44bb-444d-b51a-88cff9c1abb8{clip-path:url(#69055724-6f98-430f-963e-c09793c2f771);}.\30 67823e9-01ba-4711-9f75-c07ff7e94d63{clip-path:url(#91df57b2-b276-4c98-9c53-f7dd7dec6611);}.\33 37fd6fe-7a3c-438a-bc46-e93ea3c64faa{clip-path:url(#f22cdc4c-297e-4f68-88b3-bad84c42d9bd);}.a2099a28-12ae-4e1c-8b8a-4e00ba2bf410{clip-path:url(#1f0680dc-9b0d-4951-af65-7b8f07ab04aa);}.\37 f7694a0-7db9-4069-9beb-831d55a7ff69{clip-path:url(#fe4b26df-8ce4-49dd-881f-2ab7d5294b73);}.ab5f9d68-166e-4627-8848-d4cee8471ab5{clip-path:url(#ee1894f2-6ae7-47b1-b26c-4adc66778328);}.\37 d601204-bee7-4ca4-b2cb-ec417d7deb81{clip-path:url(#002533e1-a188-439c-9145-c35a01138a5a);}.\37 54c104d-0e49-4221-a20d-7afd263de230{clip-path:url(#97c3d3cb-4d15-4dac-b34e-768d626e4fd2);}.\35 101bc8a-f0e0-4ff4-a9c7-3e029db7aaf2{clip-path:url(#8432daee-6cb1-4c63-a188-9d41cb18bce9);}.\32 8021c0f-4d56-4571-9892-b22e799578f1{clip-path:url(#e7f4cade-e051-4a68-b191-1f07968e4b55);}.c4558a99-553a-479a-95a3-ee1a03827728{clip-path:url(#055c14ca-50ae-48c9-a856-def8746c8867);}.ab39ca10-18b3-45a4-8cb7-be3578e72c92{clip-path:url(#edb3757c-3c54-4276-a7d2-c6300517a5ff);}.\30 47a7522-9e66-408b-8ffb-030a9344d0cf{clip-path:url(#bd5c07ea-2614-4006-9c38-b995d54a635f);}.\36 33fdfa7-8b6d-4b38-90a1-f33efd108af8{clip-path:url(#e56f22cd-fdb4-49fa-b105-4b92b1792ce3);}.\37 e74bd91-fb91-4a02-a19f-552db9cadc26{clip-path:url(#d2f20abd-c9c2-4122-ad16-d1ce0a4f64e1);}.\33 d6b4510-146d-4224-bf35-60ba3e522aaa{clip-path:url(#d18753a6-66c0-43d7-b55c-41e2b43d871f);}.\34 d20a625-4227-4270-90a4-381f843d0132{clip-path:url(#d82a0046-cc9c-4702-b4cb-8bc2311aaf79);}.\32 9cc2e65-bc26-40a4-ab52-17211394a4f5{clip-path:url(#943c40d7-2894-4251-98d2-7a1749e72503);}</style><clipPath id="b67ee80b-fefa-4426-86b0-d1faa26d3ba0"><rect class="1c30a9c3-f977-4b1c-a440-af7eb94ef3ef" width="29.91235" height="29.91235"/></clipPath><clipPath id="256fafd5-1551-4ea6-a0ca-6c19ae87ea64"><rect class="1c30a9c3-f977-4b1c-a440-af7eb94ef3ef" x="70.08765" y="126.08765" width="29.91235" height="29.91235"/></clipPath><clipPath id="0f265b70-f8ee-4916-a1d6-ccff8939c73d"><rect class="1c30a9c3-f977-4b1c-a440-af7eb94ef3ef" x="7.81135" y="30.30795" width="14.28964" height="14.83331"/></clipPath><clipPath id="a5df7fb7-76aa-48ff-b263-ba75308dba7e"><rect class="1c30a9c3-f977-4b1c-a440-af7eb94ef3ef" x="6.65392" y="29.72916" width="16.60658" height="16.60658"/></clipPath><clipPath id="c861e06a-bd30-45cb-a55c-c7d0cf521ab5"><rect class="1c30a9c3-f977-4b1c-a440-af7eb94ef3ef" x="77.89901" y="110.85873" width="14.28964" height="14.83331"/></clipPath><clipPath id="9cb9754e-ad62-4565-9413-c72bdf37a1df"><rect class="1c30a9c3-f977-4b1c-a440-af7eb94ef3ef" x="76.7395" y="109.66426" width="16.60658" height="16.60658"/></clipPath><clipPath id="27fd7842-51a5-49c1-946f-87cea4f4f038"><rect class="1c30a9c3-f977-4b1c-a440-af7eb94ef3ef" x="26.50526" y="15.40627" width="16.258" height="16.87656"/></clipPath><clipPath id="ff97eef3-07a4-4ffb-8390-c5cc4f143fa2"><rect class="1c30a9c3-f977-4b1c-a440-af7eb94ef3ef" x="25.18839" y="14.74775" width="18.89409" height="18.89409"/></clipPath><clipPath id="69055724-6f98-430f-963e-c09793c2f771"><rect class="1c30a9c3-f977-4b1c-a440-af7eb94ef3ef" x="26.50526" y="49.97038" width="16.258" height="16.87656"/></clipPath><clipPath id="91df57b2-b276-4c98-9c53-f7dd7dec6611"><rect class="1c30a9c3-f977-4b1c-a440-af7eb94ef3ef" x="25.18839" y="49.31186" width="18.89409" height="18.89409"/></clipPath><clipPath id="f22cdc4c-297e-4f68-88b3-bad84c42d9bd"><rect class="1c30a9c3-f977-4b1c-a440-af7eb94ef3ef" x="57.23674" y="119.09859" width="16.258" height="16.87656"/></clipPath><clipPath id="1f0680dc-9b0d-4951-af65-7b8f07ab04aa"><rect class="1c30a9c3-f977-4b1c-a440-af7eb94ef3ef" x="55.91752" y="117.73958" width="18.89409" height="18.89409"/></clipPath><clipPath id="fe4b26df-8ce4-49dd-881f-2ab7d5294b73"><rect class="1c30a9c3-f977-4b1c-a440-af7eb94ef3ef" x="57.23674" y="84.53449" width="16.258" height="16.87656"/></clipPath><clipPath id="ee1894f2-6ae7-47b1-b26c-4adc66778328"><rect class="1c30a9c3-f977-4b1c-a440-af7eb94ef3ef" x="55.91752" y="83.17548" width="18.89409" height="18.89409"/></clipPath><clipPath id="002533e1-a188-439c-9145-c35a01138a5a"><rect class="1c30a9c3-f977-4b1c-a440-af7eb94ef3ef" x="57.23674" y="15.40627" width="16.258" height="16.87656"/></clipPath><clipPath id="97c3d3cb-4d15-4dac-b34e-768d626e4fd2"><rect class="1c30a9c3-f977-4b1c-a440-af7eb94ef3ef" x="55.91988" y="14.74775" width="18.89409" height="18.89409"/></clipPath><clipPath id="8432daee-6cb1-4c63-a188-9d41cb18bce9"><rect class="1c30a9c3-f977-4b1c-a440-af7eb94ef3ef" x="41.871" y="33.18303" width="16.258" height="16.87656"/></clipPath><clipPath id="e7f4cade-e051-4a68-b191-1f07968e4b55"><rect class="1c30a9c3-f977-4b1c-a440-af7eb94ef3ef" x="40.55413" y="32.52451" width="18.89409" height="18.89409"/></clipPath><clipPath id="055c14ca-50ae-48c9-a856-def8746c8867"><rect class="1c30a9c3-f977-4b1c-a440-af7eb94ef3ef" x="57.23674" y="49.97038" width="16.258" height="16.87656"/></clipPath><clipPath id="edb3757c-3c54-4276-a7d2-c6300517a5ff"><rect class="1c30a9c3-f977-4b1c-a440-af7eb94ef3ef" x="55.91988" y="49.31186" width="18.89409" height="18.89409"/></clipPath><clipPath id="bd5c07ea-2614-4006-9c38-b995d54a635f"><rect class="1c30a9c3-f977-4b1c-a440-af7eb94ef3ef" x="26.50526" y="119.09859" width="16.258" height="16.87656"/></clipPath><clipPath id="e56f22cd-fdb4-49fa-b105-4b92b1792ce3"><rect class="1c30a9c3-f977-4b1c-a440-af7eb94ef3ef" x="25.18603" y="117.73958" width="18.89409" height="18.89409"/></clipPath><clipPath id="d2f20abd-c9c2-4122-ad16-d1ce0a4f64e1"><rect class="1c30a9c3-f977-4b1c-a440-af7eb94ef3ef" x="41.871" y="101.32183" width="16.258" height="16.87656"/></clipPath><clipPath id="d18753a6-66c0-43d7-b55c-41e2b43d871f"><rect class="1c30a9c3-f977-4b1c-a440-af7eb94ef3ef" x="40.55177" y="99.96282" width="18.89409" height="18.89409"/></clipPath><clipPath id="d82a0046-cc9c-4702-b4cb-8bc2311aaf79"><rect class="1c30a9c3-f977-4b1c-a440-af7eb94ef3ef" x="26.50526" y="84.53449" width="16.258" height="16.87656"/></clipPath><clipPath id="943c40d7-2894-4251-98d2-7a1749e72503"><rect class="1c30a9c3-f977-4b1c-a440-af7eb94ef3ef" x="25.18603" y="83.17548" width="18.89409" height="18.89409"/></clipPath></defs><title>10</title><rect class="a197c5da-1b1d-4ea0-bcd5-66184e8e7bb2" x="0.5" y="0.5" width="99" height="155" rx="5.5" ry="5.5"/><path class="3192feb3-2ccb-4c85-9f26-827a82ec237a" d="M94,1a5.00567,5.00567,0,0,1,5,5V150a5.00567,5.00567,0,0,1-5,5H6a5.00567,5.00567,0,0,1-5-5V6A5.00567,5.00567,0,0,1,6,1H94m0-1H6A6,6,0,0,0,0,6V150a6,6,0,0,0,6,6H94a6,6,0,0,0,6-6V6a6,6,0,0,0-6-6Z"/><g class="2ebaa97d-7269-47c9-a15f-e58bd6c12ca5"><g class="2ebaa97d-7269-47c9-a15f-e58bd6c12ca5"><path class="a9f34f0c-aab6-4ce4-a0ac-2f69d0d4e425" d="M4.25,9.77734a2.43964,2.43964,0,0,0-.84131-.89746V8.68359q1.59814-.64453,3.2666-1.416,1.66846-.77124,3.127-1.50049l.19629.14014q-.11206,1.85083-.16846,3.65967-.0564,1.80908-.05566,3.65967v4.68311q0,1.85083.05566,3.63184.0564,1.78052.16846,3.49121a3.98406,3.98406,0,0,0-.65918-.05615H8.02148a3.98406,3.98406,0,0,0-.65918.05615q.14063-1.73877.18262-3.50537.04175-1.7666.042-3.61768V7.92676Z"/><path class="a9f34f0c-aab6-4ce4-a0ac-2f69d0d4e425" d="M13.11133,15.77832a19.86847,19.86847,0,0,1,.33643-3.74365A9.46639,9.46639,0,0,1,14.55566,8.978a5.92578,5.92578,0,0,1,2.0332-2.0752,5.81213,5.81213,0,0,1,3.08447-.771,6.30148,6.30148,0,0,1,3.29492.771A5.55686,5.55686,0,0,1,24.97363,8.978a8.99427,8.99427,0,0,1,.99512,3.05664,24.92032,24.92032,0,0,1,.2666,3.74365,16.64294,16.64294,0,0,1-.39258,3.67383,10.187,10.187,0,0,1-1.19189,3.05664,6.086,6.086,0,0,1-2.0332,2.0752,5.51986,5.51986,0,0,1-2.94434.75732,6.58757,6.58757,0,0,1-3.29492-.72949A5.23819,5.23819,0,0,1,14.373,22.5791a8.96952,8.96952,0,0,1-.99512-3.05664A24.85354,24.85354,0,0,1,13.11133,15.77832Zm2.29932,0a26.50886,26.50886,0,0,0,.21045,3.44922,10.52738,10.52738,0,0,0,.71533,2.77637A4.79764,4.79764,0,0,0,17.6543,23.855a3.05979,3.05979,0,0,0,2.019.67285,3.06161,3.06161,0,0,0,2.019-.67285,4.80271,4.80271,0,0,0,1.31787-1.85107,10.52738,10.52738,0,0,0,.71533-2.77637,26.50886,26.50886,0,0,0,.21045-3.44922,26.51429,26.51429,0,0,0-.21045-3.44922,10.52857,10.52857,0,0,0-.71533-2.77588,4.799,4.799,0,0,0-1.31787-1.85107,3.06161,3.06161,0,0,0-2.019-.67285,3.24391,3.24391,0,0,0-2.019.6167,4.35183,4.35183,0,0,0-1.31787,1.7666,10.14822,10.14822,0,0,0-.71533,2.76221A28.05816,28.05816,0,0,0,15.41064,15.77832Z"/></g></g><g class="12f46fa8-acb8-4319-8c7f-a4ec84065028"><g class="12f46fa8-acb8-4319-8c7f-a4ec84065028"><path class="a9f34f0c-aab6-4ce4-a0ac-2f69d0d4e425" d="M95.751,146.22266a2.42923,2.42923,0,0,0,.8418.89746v.19629q-1.59814.64453-3.26758,1.416-1.667.77051-3.127,1.5l-.19629-.13965q.11279-1.85156.16895-3.66016.05566-1.80762.05566-3.65918v-4.68359q0-1.8501-.05566-3.63086-.05566-1.78125-.16895-3.49121a4.04044,4.04044,0,0,0,.65918.05566h1.31836a4.04044,4.04044,0,0,0,.65918-.05566q-.14062,1.7373-.18262,3.50488-.04248,1.7666-.042,3.61719v9.9834Z"/><path class="a9f34f0c-aab6-4ce4-a0ac-2f69d0d4e425" d="M86.88965,140.22168a19.81431,19.81431,0,0,1-.33691,3.74316,9.47621,9.47621,0,0,1-1.10742,3.05664,5.92192,5.92192,0,0,1-2.0332,2.0752,5.80627,5.80627,0,0,1-3.085.77148,6.29326,6.29326,0,0,1-3.29492-.77148,5.54129,5.54129,0,0,1-2.00488-2.0752,8.97347,8.97347,0,0,1-.99609-3.05664,25.03317,25.03317,0,0,1-.2666-3.74316,16.64226,16.64226,0,0,1,.39355-3.67383,10.16594,10.16594,0,0,1,1.19141-3.05664,6.0948,6.0948,0,0,1,2.0332-2.0752,5.51968,5.51968,0,0,1,2.94434-.75684,6.59956,6.59956,0,0,1,3.29492.72852,5.2382,5.2382,0,0,1,2.00488,2.0332,8.98056,8.98056,0,0,1,.99609,3.05664A24.90812,24.90812,0,0,1,86.88965,140.22168Zm-2.2998,0a26.4144,26.4144,0,0,0-.21094-3.44922,10.5141,10.5141,0,0,0-.71484-2.77637,4.7912,4.7912,0,0,0-1.31738-1.85059,3.36328,3.36328,0,0,0-4.03906,0,4.7912,4.7912,0,0,0-1.31738,1.85059,10.5141,10.5141,0,0,0-.71484,2.77637,28.306,28.306,0,0,0,0,6.89844,10.5141,10.5141,0,0,0,.71484,2.77637,4.7912,4.7912,0,0,0,1.31738,1.85059,3.06646,3.06646,0,0,0,2.01953.67285,3.24659,3.24659,0,0,0,2.01953-.61719,4.34437,4.34437,0,0,0,1.31738-1.7666,10.12746,10.12746,0,0,0,.71484-2.76172A27.95929,27.95929,0,0,0,84.58984,140.22168Z"/></g></g><g class="0a77565a-f70c-4e0f-a408-a4844d4a61a1"><g class="9c1c5239-0ea7-4bb3-a2d3-66c8adcce07f"><path class="a9f34f0c-aab6-4ce4-a0ac-2f69d0d4e425" d="M14.72884,45.00738a.30754.30754,0,0,0,.45467,0C18.2436,41.64013,22.101,39.6081,22.101,35.35616c0-4.35786-4.7766-5.04821-7.14485-1.51671C12.58789,30.308,7.81135,30.9983,7.81135,35.35616c0,4.25193,3.8574,6.284,6.91748,9.65121"/></g></g><g class="e1785b6d-fefe-4707-8deb-8b15038d6960"><g class="f3f0a493-53bb-4f65-80b3-4064b23e72fb"><path class="a9f34f0c-aab6-4ce4-a0ac-2f69d0d4e425" d="M85.27116,110.99262a.30754.30754,0,0,0-.45467,0c-3.06009,3.36724-6.91749,5.39928-6.91749,9.65121,0,4.35786,4.7766,5.04821,7.14485,1.51671,2.36825,3.53149,7.14479,2.84115,7.14479-1.51671,0-4.25193-3.8574-6.284-6.91748-9.65121"/></g></g><g class="30d21b73-340c-47f0-803b-c91096359270"><g class="736466f0-38bc-4d09-a830-f10096973921"><path class="a9f34f0c-aab6-4ce4-a0ac-2f69d0d4e425" d="M34.37561,32.1305a.3499.3499,0,0,0,.5173,0c3.48161-3.83107,7.87035-6.143,7.87035-10.98064,0-4.95815-5.43456-5.74358-8.129-1.72564-2.69447-4.01795-8.129-3.23251-8.129,1.72564,0,4.83763,4.38874,7.14957,7.87035,10.98064"/></g></g><g class="58ae9525-44bb-444d-b51a-88cff9c1abb8"><g class="067823e9-01ba-4711-9f75-c07ff7e94d63"><path class="a9f34f0c-aab6-4ce4-a0ac-2f69d0d4e425" d="M34.37561,66.69461a.3499.3499,0,0,0,.5173,0c3.48161-3.83107,7.87035-6.143,7.87035-10.98064,0-4.95815-5.43456-5.74358-8.129-1.72564-2.69447-4.01795-8.129-3.23251-8.129,1.72564,0,4.83763,4.38874,7.14957,7.87035,10.98064"/></g></g><g class="337fd6fe-7a3c-438a-bc46-e93ea3c64faa"><g class="a2099a28-12ae-4e1c-8b8a-4e00ba2bf410"><path class="a9f34f0c-aab6-4ce4-a0ac-2f69d0d4e425" d="M65.62439,119.25093a.3499.3499,0,0,0-.5173,0c-3.48161,3.83107-7.87035,6.143-7.87035,10.98064,0,4.95815,5.43456,5.74358,8.129,1.72564,2.69447,4.01795,8.129,3.23251,8.129-1.72564,0-4.83763-4.38874-7.14957-7.87035-10.98064"/></g></g><g class="7f7694a0-7db9-4069-9beb-831d55a7ff69"><g class="ab5f9d68-166e-4627-8848-d4cee8471ab5"><path class="a9f34f0c-aab6-4ce4-a0ac-2f69d0d4e425" d="M65.62439,84.68682a.3499.3499,0,0,0-.5173,0c-3.48161,3.83107-7.87035,6.143-7.87035,10.98064,0,4.95815,5.43456,5.74358,8.129,1.72564,2.69447,4.01795,8.129,3.23251,8.129-1.72564,0-4.83763-4.38874-7.14957-7.87035-10.98064"/></g></g><g class="7d601204-bee7-4ca4-b2cb-ec417d7deb81"><g class="754c104d-0e49-4221-a20d-7afd263de230"><path class="a9f34f0c-aab6-4ce4-a0ac-2f69d0d4e425" d="M65.10709,32.1305a.3499.3499,0,0,0,.5173,0c3.48161-3.83107,7.87035-6.143,7.87035-10.98064,0-4.95815-5.43456-5.74358-8.129-1.72564-2.69447-4.01795-8.129-3.23251-8.129,1.72564,0,4.83763,4.38874,7.14957,7.87035,10.98064"/></g></g><g class="5101bc8a-f0e0-4ff4-a9c7-3e029db7aaf2"><g class="28021c0f-4d56-4571-9892-b22e799578f1"><path class="a9f34f0c-aab6-4ce4-a0ac-2f69d0d4e425" d="M49.74135,49.90726a.3499.3499,0,0,0,.5173,0c3.48161-3.83107,7.87035-6.143,7.87035-10.98064,0-4.95815-5.43456-5.74358-8.129-1.72564-2.69447-4.01795-8.129-3.23251-8.129,1.72564,0,4.83763,4.38874,7.14957,7.87035,10.98064"/></g></g><g class="c4558a99-553a-479a-95a3-ee1a03827728"><g class="ab39ca10-18b3-45a4-8cb7-be3578e72c92"><path class="a9f34f0c-aab6-4ce4-a0ac-2f69d0d4e425" d="M65.10709,66.69461a.3499.3499,0,0,0,.5173,0c3.48161-3.83107,7.87035-6.143,7.87035-10.98064,0-4.95815-5.43456-5.74358-8.129-1.72564-2.69447-4.01795-8.129-3.23251-8.129,1.72564,0,4.83763,4.38874,7.14957,7.87035,10.98064"/></g></g><g class="047a7522-9e66-408b-8ffb-030a9344d0cf"><g class="633fdfa7-8b6d-4b38-90a1-f33efd108af8"><path class="a9f34f0c-aab6-4ce4-a0ac-2f69d0d4e425" d="M34.89291,119.25093a.3499.3499,0,0,0-.5173,0c-3.48161,3.83107-7.87035,6.143-7.87035,10.98064,0,4.95815,5.43456,5.74358,8.129,1.72564,2.69447,4.01795,8.129,3.23251,8.129-1.72564,0-4.83763-4.38874-7.14957-7.87035-10.98064"/></g></g><g class="7e74bd91-fb91-4a02-a19f-552db9cadc26"><g class="3d6b4510-146d-4224-bf35-60ba3e522aaa"><path class="a9f34f0c-aab6-4ce4-a0ac-2f69d0d4e425" d="M50.25865,101.47417a.3499.3499,0,0,0-.5173,0c-3.48161,3.83107-7.87035,6.143-7.87035,10.98064,0,4.95815,5.43456,5.74358,8.129,1.72564,2.69447,4.01795,8.129,3.23251,8.129-1.72564,0-4.83763-4.38874-7.14957-7.87035-10.98064"/></g></g><g class="4d20a625-4227-4270-90a4-381f843d0132"><g class="29cc2e65-bc26-40a4-ab52-17211394a4f5"><path class="a9f34f0c-aab6-4ce4-a0ac-2f69d0d4e425" d="M34.89291,84.68682a.3499.3499,0,0,0-.5173,0c-3.48161,3.83107-7.87035,6.143-7.87035,10.98064,0,4.95815,5.43456,5.74358,8.129,1.72564,2.69447,4.01795,8.129,3.23251,8.129-1.72564,0-4.83763-4.38874-7.14957-7.87035-10.98064"/></g></g></svg>