<svg id="9265a474-4219-44bc-83a4-23b1b270278f" data-name="レイヤー 1" xmlns="http://www.w3.org/2000/svg" xmlns:xlink="http://www.w3.org/1999/xlink" viewBox="0 0 100 156"><defs><style>.\30 b2a698d-2e01-4324-aa3b-89e4a213ebca{fill:none;}.\31 8d455bd-28a5-4581-bd47-623baad93d68{fill:#fff;}.cf547356-8126-4c68-a96d-e253beda722a{fill:#7f7f7f;}.bd9b02c6-92fc-4667-83d7-5a21102f34f9{clip-path:url(#9215588a-dade-4e01-8f73-2c069918a2a1);}.b5b5441a-6953-43b7-a0aa-d33df3acbf4f{fill:#a00;}.\37 bc43aca-b940-4cb3-9032-781df8ab349e{clip-path:url(#a16298bd-ba27-4e65-9d48-2ad3f8f1419e);}.\39 04ecec9-7e5a-474f-be71-eff8b21842de{clip-path:url(#8a47d231-656d-40e8-b423-26e397ee2e41);}.f36e5fc0-a87f-47a8-9776-8af8f86e866f{clip-path:url(#5710c033-715d-4bb1-b191-8c5da81711a2);}.\37 fde4114-a4c0-4897-8029-4832f5083d83{clip-path:url(#6687cb22-f71a-430b-b44b-a62264476d17);}.\34 d93b4bc-1955-45f7-ae43-cbfb892ef142{clip-path:url(#fb197f78-55da-43cb-9f8c-d619192c6214);}.d164ee88-6e38-4832-ae1f-a9b552a458cb{clip-path:url(#c270aa0f-6db0-45f2-b32d-ec901e7c6c0e);}.fe189e7a-2d10-4813-b4c1-4cbc41fadb84{clip-path:url(#6dd9ff73-d589-4bad-9815-bacd7dea28b3);}.\34 7ef5b05-ea33-4162-aab0-a7237ed87228{clip-path:url(#309737db-9703-4d43-93f3-9df105769618);}.\31 dc1f174-c999-458c-ae9d-a8895ea18a65{clip-path:url(#01880abe-e41b-404f-8f65-bb4cf877c7c4);}.f6794068-1545-4a6d-b0f2-7e92abff765c{clip-path:url(#e5cd5162-4a6c-433a-80fa-70265fc9daf4);}.\31 b1badc6-8288-494f-b81d-face29389149{clip-path:url(#e962c475-0038-4f86-b155-422f3238306e);}</style><clipPath id="9215588a-dade-4e01-8f73-2c069918a2a1"><rect class="0b2a698d-2e01-4324-aa3b-89e4a213ebca" width="29.91235" height="29.91235"/></clipPath><clipPath id="a16298bd-ba27-4e65-9d48-2ad3f8f1419e"><rect class="0b2a698d-2e01-4324-aa3b-89e4a213ebca" x="70.08765" y="126.08765" width="29.91235" height="29.91235"/></clipPath><clipPath id="8a47d231-656d-40e8-b423-26e397ee2e41"><rect class="0b2a698d-2e01-4324-aa3b-89e4a213ebca" x="7.81135" y="30.30795" width="14.28964" height="14.83331"/></clipPath><clipPath id="5710c033-715d-4bb1-b191-8c5da81711a2"><rect class="0b2a698d-2e01-4324-aa3b-89e4a213ebca" x="6.65392" y="29.72916" width="16.60658" height="16.60658"/></clipPath><clipPath id="6687cb22-f71a-430b-b44b-a62264476d17"><rect class="0b2a698d-2e01-4324-aa3b-89e4a213ebca" x="77.89901" y="110.85873" width="14.28964" height="14.83331"/></clipPath><clipPath id="fb197f78-55da-43cb-9f8c-d619192c6214"><rect class="0b2a698d-2e01-4324-aa3b-89e4a213ebca" x="76.7395" y="109.66426" width="16.60658" height="16.60658"/></clipPath><clipPath id="c270aa0f-6db0-45f2-b32d-ec901e7c6c0e"><rect class="0b2a698d-2e01-4324-aa3b-89e4a213ebca" x="41.871" y="15.40627" width="16.258" height="16.87656"/></clipPath><clipPath id="6dd9ff73-d589-4bad-9815-bacd7dea28b3"><rect class="0b2a698d-2e01-4324-aa3b-89e4a213ebca" x="40.55413" y="14.74775" width="18.89409" height="18.89409"/></clipPath><clipPath id="309737db-9703-4d43-93f3-9df105769618"><rect class="0b2a698d-2e01-4324-aa3b-89e4a213ebca" x="41.871" y="67.25243" width="16.258" height="16.87656"/></clipPath><clipPath id="01880abe-e41b-404f-8f65-bb4cf877c7c4"><rect class="0b2a698d-2e01-4324-aa3b-89e4a213ebca" x="40.55413" y="66.59391" width="18.89409" height="18.89409"/></clipPath><clipPath id="e5cd5162-4a6c-433a-80fa-70265fc9daf4"><rect class="0b2a698d-2e01-4324-aa3b-89e4a213ebca" x="41.871" y="119.09859" width="16.258" height="16.87656"/></clipPath><clipPath id="e962c475-0038-4f86-b155-422f3238306e"><rect class="0b2a698d-2e01-4324-aa3b-89e4a213ebca" x="40.55177" y="117.73958" width="18.89409" height="18.89409"/></clipPath></defs><title>3</title><rect class="18d455bd-28a5-4581-bd47-623baad93d68" x="0.5" y="0.5" width="99" height="155" rx="5.5" ry="5.5"/><path class="cf547356-8126-4c68-a96d-e253beda722a" d="M94,1a5.00567,5.00567,0,0,1,5,5V150a5.00567,5.00567,0,0,1-5,5H6a5.00567,5.00567,0,0,1-5-5V6A5.00567,5.00567,0,0,1,6,1H94m0-1H6A6,6,0,0,0,0,6V150a6,6,0,0,0,6,6H94a6,6,0,0,0,6-6V6a6,6,0,0,0-6-6Z"/><g class="bd9b02c6-92fc-4667-83d7-5a21102f34f9"><g class="bd9b02c6-92fc-4667-83d7-5a21102f34f9"><path class="b5b5441a-6953-43b7-a0aa-d33df3acbf4f" d="M10.93262,6.69287a5.12229,5.12229,0,0,1,2.5376-.561,8.29808,8.29808,0,0,1,2.0752.25244,5.28808,5.28808,0,0,1,1.71045.75684,3.63805,3.63805,0,0,1,1.1499,1.29,3.93093,3.93093,0,0,1,.4209,1.87891,4.31888,4.31888,0,0,1-.36475,1.80908,4.95915,4.95915,0,0,1-.91162,1.374,4.87874,4.87874,0,0,1-1.21973.93945,6.09859,6.09859,0,0,1-1.29.53271v.168a8.99016,8.99016,0,0,1,1.54248.2666,4.65293,4.65293,0,0,1,1.51416.70117,3.9413,3.9413,0,0,1,1.16406,1.30371,4.15826,4.15826,0,0,1,.4624,2.0752,5.39846,5.39846,0,0,1-.51855,2.36963,5.5282,5.5282,0,0,1-1.4585,1.86523,6.6079,6.6079,0,0,1-2.25732,1.20557,9.5617,9.5617,0,0,1-2.9165.4209,9.82835,9.82835,0,0,1-2.46777-.2666,9.88587,9.88587,0,0,1-1.7666-.63086,3.11059,3.11059,0,0,0,.21045-.74316,7.91254,7.91254,0,0,0,.126-.93945l.16846-.1123q.252.28052.6167.61719a4.66651,4.66651,0,0,0,.85547.6167,5.47367,5.47367,0,0,0,1.06543.46289,4.10778,4.10778,0,0,0,1.248.18213,4.99676,4.99676,0,0,0,1.89307-.33643,4.03061,4.03061,0,0,0,1.416-.95361,4.10875,4.10875,0,0,0,.89746-1.48633,5.66491,5.66491,0,0,0,.30859-1.90674,5.66818,5.66818,0,0,0-.29443-1.94922,3.32019,3.32019,0,0,0-.81348-1.28955,3.12772,3.12772,0,0,0-1.248-.71533,5.42126,5.42126,0,0,0-1.59814-.22412,4.15322,4.15322,0,0,0-.65918.05615q-.35083.0564-.603.11182a2.92311,2.92311,0,0,0,.04248-.29443c.00879-.10254.01367-.20068.01367-.29443,0-.09326-.00488-.19141-.01367-.29443a2.96429,2.96429,0,0,0-.04248-.29443,6.43153,6.43153,0,0,0,1.26221.1123,2.85064,2.85064,0,0,0,1.59814-.40674,2.93354,2.93354,0,0,0,.96777-1.0376,4.28579,4.28579,0,0,0,.47656-1.38818,8.88777,8.88777,0,0,0,.12646-1.458,4.14941,4.14941,0,0,0-.2666-1.55664,3.2093,3.2093,0,0,0-.687-1.07959,2.62,2.62,0,0,0-.95361-.6167,3.14109,3.14109,0,0,0-1.09375-.19629,3.0345,3.0345,0,0,0-2.00488.687,3.58448,3.58448,0,0,0-1.13574,1.55615l-.19629.05615L9.376,7.81445A7.208,7.208,0,0,1,10.93262,6.69287Z"/></g></g><g class="7bc43aca-b940-4cb3-9032-781df8ab349e"><g class="7bc43aca-b940-4cb3-9032-781df8ab349e"><path class="b5b5441a-6953-43b7-a0aa-d33df3acbf4f" d="M89.06836,149.30762a5.13761,5.13761,0,0,1-2.53809.56055,8.31526,8.31526,0,0,1-2.0752-.252,5.30254,5.30254,0,0,1-1.71094-.75781,3.63358,3.63358,0,0,1-1.14941-1.29,3.92822,3.92822,0,0,1-.4209-1.87891,4.3107,4.3107,0,0,1,.36523-1.80859,4.94715,4.94715,0,0,1,.91113-1.374,4.89289,4.89289,0,0,1,1.21973-.93945,6.03424,6.03424,0,0,1,1.29-.53223v-.16895a8.85518,8.85518,0,0,1-1.543-.2666,4.6629,4.6629,0,0,1-1.51367-.7002,3.95986,3.95986,0,0,1-1.16406-1.30469,4.1556,4.1556,0,0,1-.46289-2.0752,5.40147,5.40147,0,0,1,.51953-2.36914,5.53152,5.53152,0,0,1,1.458-1.86523,6.62308,6.62308,0,0,1,2.25684-1.20605,9.56774,9.56774,0,0,1,2.917-.41992,9.24632,9.24632,0,0,1,4.23438.89746,3.108,3.108,0,0,0-.21.74316,8.11047,8.11047,0,0,0-.127.93945l-.168.11133q-.252-.27979-.61719-.61621a4.57982,4.57982,0,0,0-.85547-.61719,5.37755,5.37755,0,0,0-1.06543-.46289,4.08812,4.08812,0,0,0-1.248-.18262,4.98637,4.98637,0,0,0-1.89258.33691,4.04042,4.04042,0,0,0-1.416.95313A4.12118,4.12118,0,0,0,83.165,134.248a6.30953,6.30953,0,0,0-.01367,3.85645,3.32425,3.32425,0,0,0,.8125,1.29,3.15431,3.15431,0,0,0,1.248.71484,5.42434,5.42434,0,0,0,1.59863.22461,4.2146,4.2146,0,0,0,.65918-.05664c.23438-.03711.43457-.07422.60254-.1123a2.93578,2.93578,0,0,0-.042.29492c-.00879.10254-.01367.2002-.01367.29395s.00488.19141.01367.29492a2.95637,2.95637,0,0,0,.042.29395,6.49918,6.49918,0,0,0-1.26172-.11133,2.85454,2.85454,0,0,0-1.59863.40625,2.9331,2.9331,0,0,0-.9668,1.03711,4.29392,4.29392,0,0,0-.47754,1.38867,8.8811,8.8811,0,0,0-.126,1.458,4.138,4.138,0,0,0,.2666,1.55664,3.19288,3.19288,0,0,0,.6875,1.0791,2.60289,2.60289,0,0,0,.95313.61719,3.14109,3.14109,0,0,0,1.09375.19629,3.03839,3.03839,0,0,0,2.00488-.68652,3.58744,3.58744,0,0,0,1.13574-1.55664l.19629-.05664.64453,1.51465A7.19924,7.19924,0,0,1,89.06836,149.30762Z"/></g></g><g class="904ecec9-7e5a-474f-be71-eff8b21842de"><g class="f36e5fc0-a87f-47a8-9776-8af8f86e866f"><path class="b5b5441a-6953-43b7-a0aa-d33df3acbf4f" d="M14.72884,45.00738a.30754.30754,0,0,0,.45467,0C18.2436,41.64013,22.101,39.6081,22.101,35.35616c0-4.35786-4.7766-5.04821-7.14485-1.51671C12.58789,30.308,7.81135,30.9983,7.81135,35.35616c0,4.25193,3.8574,6.284,6.91748,9.65121"/></g></g><g class="7fde4114-a4c0-4897-8029-4832f5083d83"><g class="4d93b4bc-1955-45f7-ae43-cbfb892ef142"><path class="b5b5441a-6953-43b7-a0aa-d33df3acbf4f" d="M85.27116,110.99262a.30754.30754,0,0,0-.45467,0c-3.06009,3.36724-6.91749,5.39928-6.91749,9.65121,0,4.35786,4.7766,5.04821,7.14485,1.51671,2.36825,3.53149,7.14479,2.84115,7.14479-1.51671,0-4.25193-3.8574-6.284-6.91748-9.65121"/></g></g><g class="d164ee88-6e38-4832-ae1f-a9b552a458cb"><g class="fe189e7a-2d10-4813-b4c1-4cbc41fadb84"><path class="b5b5441a-6953-43b7-a0aa-d33df3acbf4f" d="M49.74135,32.1305a.3499.3499,0,0,0,.5173,0c3.48161-3.83107,7.87035-6.143,7.87035-10.98064,0-4.95815-5.43456-5.74358-8.129-1.72564-2.69447-4.01795-8.129-3.23251-8.129,1.72564,0,4.83763,4.38874,7.14957,7.87035,10.98064"/></g></g><g class="47ef5b05-ea33-4162-aab0-a7237ed87228"><g class="1dc1f174-c999-458c-ae9d-a8895ea18a65"><path class="b5b5441a-6953-43b7-a0aa-d33df3acbf4f" d="M49.74135,83.97666a.3499.3499,0,0,0,.5173,0c3.48161-3.83107,7.87035-6.143,7.87035-10.98064,0-4.95815-5.43456-5.74358-8.129-1.72564-2.69447-4.01795-8.129-3.23251-8.129,1.72564,0,4.83763,4.38874,7.14957,7.87035,10.98064"/></g></g><g class="f6794068-1545-4a6d-b0f2-7e92abff765c"><g class="1b1badc6-8288-494f-b81d-face29389149"><path class="b5b5441a-6953-43b7-a0aa-d33df3acbf4f" d="M50.25865,119.25093a.3499.3499,0,0,0-.5173,0c-3.48161,3.83107-7.87035,6.143-7.87035,10.98064,0,4.95815,5.43456,5.74358,8.129,1.72564,2.69447,4.01795,8.129,3.23251,8.129-1.72564,0-4.83763-4.38874-7.14957-7.87035-10.98064"/></g></g></svg>