<svg id="40a6898f-cb7c-4988-b4f3-91ae4339598e" data-name="レイヤー 1" xmlns="http://www.w3.org/2000/svg" xmlns:xlink="http://www.w3.org/1999/xlink" viewBox="0 0 100 156"><defs><style>.cfa6955d-9320-41c4-9942-ffe6fd65be63{fill:none;}.\33 6828fed-ed2d-4f95-a87d-7f9d0413d808{fill:#fff;}.d8da4a53-f6f1-4732-8db3-e819c6f86635{fill:#7f7f7f;}.\39 2a9fc48-f0e2-4875-9ced-2c6d76101b04{clip-path:url(#0bbd45a7-da6f-4021-9ebe-c2a3e7873417);}.\36 500dc9b-35e4-4a65-9b5d-a5fbf5142ed7{fill:#a00;}.f3f10f40-a2de-498a-a0b0-3c501fc2b83c{clip-path:url(#e02b35e0-8b76-4be5-9a14-c05d25d4b4ff);}.aa272f2d-9dd5-4f0b-83ba-42c96a9d776d{clip-path:url(#64953dc2-1f56-46b7-8012-8ca4585f2ace);}.da94f135-3fed-41f9-9f7b-ccc06c1c3cdf{clip-path:url(#151b6703-482e-4652-9b2e-315dd7bd2898);}.\33 0cd083e-9391-41ae-af58-c7172d3cd0af{clip-path:url(#bad9a12e-a503-4fa1-8087-a4b4a0a590ee);}.cea61c53-bd15-4d48-9f3f-4f781e90a77b{clip-path:url(#546af0d2-25ce-4348-9f6e-d684268b5846);}.\36 aac07cc-5bca-4ca4-b09a-b9a30905ebec{clip-path:url(#3eba9f45-a498-46d2-ab44-ac02b74162a7);}.c9a0ac97-bd8e-4256-b292-ca960b314b2e{clip-path:url(#0e948deb-53b6-4eec-97d2-6f84bc23442f);}.\31 5535de4-de1b-453b-8a33-3547776c1403{clip-path:url(#7bf5d06a-257c-4a9f-b70e-8213f1fd10e2);}.be24c33a-a60a-4077-885c-53a50e1742ef{clip-path:url(#4cce58c9-5b7b-4ad9-a2e5-c4b01f92a33a);}.c6708978-e3a9-436e-9edd-b6cdbad73ad8{clip-path:url(#498bbd1f-9e5c-4b4c-80b0-20775daae6ec);}.\36 65f98d5-1cbc-41d1-ae9d-c6c4355fec50{clip-path:url(#bbd6cac7-f52c-4ebe-baa9-e83ba751eedc);}.\32 f020c87-c102-484f-a6c6-47b9974b4350{clip-path:url(#b82047e3-4689-4f1b-81a9-a37bf8722f31);}.\37 04f11ff-3cd9-446f-ba59-e0bcec7e3cba{clip-path:url(#8e9aca24-f7cb-4af5-9b87-08e8671bf847);}</style><clipPath id="0bbd45a7-da6f-4021-9ebe-c2a3e7873417"><rect class="cfa6955d-9320-41c4-9942-ffe6fd65be63" width="29.91235" height="29.91235"/></clipPath><clipPath id="e02b35e0-8b76-4be5-9a14-c05d25d4b4ff"><rect class="cfa6955d-9320-41c4-9942-ffe6fd65be63" x="70.08765" y="126.08765" width="29.91235" height="29.91235"/></clipPath><clipPath id="64953dc2-1f56-46b7-8012-8ca4585f2ace"><rect class="cfa6955d-9320-41c4-9942-ffe6fd65be63" x="7.81135" y="30.30795" width="14.28964" height="14.83331"/></clipPath><clipPath id="151b6703-482e-4652-9b2e-315dd7bd2898"><rect class="cfa6955d-9320-41c4-9942-ffe6fd65be63" x="6.65392" y="29.72916" width="16.60658" height="16.60658"/></clipPath><clipPath id="bad9a12e-a503-4fa1-8087-a4b4a0a590ee"><rect class="cfa6955d-9320-41c4-9942-ffe6fd65be63" x="77.89901" y="110.85873" width="14.28964" height="14.83331"/></clipPath><clipPath id="546af0d2-25ce-4348-9f6e-d684268b5846"><rect class="cfa6955d-9320-41c4-9942-ffe6fd65be63" x="76.7395" y="109.66426" width="16.60658" height="16.60658"/></clipPath><clipPath id="3eba9f45-a498-46d2-ab44-ac02b74162a7"><rect class="cfa6955d-9320-41c4-9942-ffe6fd65be63" x="26.50526" y="15.40627" width="16.258" height="16.87656"/></clipPath><clipPath id="0e948deb-53b6-4eec-97d2-6f84bc23442f"><rect class="cfa6955d-9320-41c4-9942-ffe6fd65be63" x="25.18839" y="14.74775" width="18.89409" height="18.89409"/></clipPath><clipPath id="7bf5d06a-257c-4a9f-b70e-8213f1fd10e2"><rect class="cfa6955d-9320-41c4-9942-ffe6fd65be63" x="57.23674" y="119.09859" width="16.258" height="16.87656"/></clipPath><clipPath id="4cce58c9-5b7b-4ad9-a2e5-c4b01f92a33a"><rect class="cfa6955d-9320-41c4-9942-ffe6fd65be63" x="55.91752" y="117.73958" width="18.89409" height="18.89409"/></clipPath><clipPath id="498bbd1f-9e5c-4b4c-80b0-20775daae6ec"><rect class="cfa6955d-9320-41c4-9942-ffe6fd65be63" x="57.23674" y="15.40627" width="16.258" height="16.87656"/></clipPath><clipPath id="bbd6cac7-f52c-4ebe-baa9-e83ba751eedc"><rect class="cfa6955d-9320-41c4-9942-ffe6fd65be63" x="55.91988" y="14.74775" width="18.89409" height="18.89409"/></clipPath><clipPath id="b82047e3-4689-4f1b-81a9-a37bf8722f31"><rect class="cfa6955d-9320-41c4-9942-ffe6fd65be63" x="26.50526" y="119.09859" width="16.258" height="16.87656"/></clipPath><clipPath id="8e9aca24-f7cb-4af5-9b87-08e8671bf847"><rect class="cfa6955d-9320-41c4-9942-ffe6fd65be63" x="25.18603" y="117.73958" width="18.89409" height="18.89409"/></clipPath></defs><title>4</title><rect class="36828fed-ed2d-4f95-a87d-7f9d0413d808" x="0.5" y="0.5" width="99" height="155" rx="5.5" ry="5.5"/><path class="d8da4a53-f6f1-4732-8db3-e819c6f86635" d="M94,1a5.00567,5.00567,0,0,1,5,5V150a5.00567,5.00567,0,0,1-5,5H6a5.00567,5.00567,0,0,1-5-5V6A5.00567,5.00567,0,0,1,6,1H94m0-1H6A6,6,0,0,0,0,6V150a6,6,0,0,0,6,6H94a6,6,0,0,0,6-6V6a6,6,0,0,0-6-6Z"/><g class="92a9fc48-f0e2-4875-9ced-2c6d76101b04"><g class="92a9fc48-f0e2-4875-9ced-2c6d76101b04"><path class="6500dc9b-35e4-4a65-9b5d-a5fbf5142ed7" d="M7.74951,19.45215q1.2334-1.73877,2.56592-3.61768Q11.647,13.95654,12.89551,12.189q1.24731-1.7666,2.29932-3.29492,1.05176-1.52783,1.72461-2.59424a4.00362,4.00362,0,0,0,.95361.14063,3.371,3.371,0,0,0,.89746-.14062q-.08423,1.85083-.14014,4.16455-.05713,2.31372-.05615,4.75342v3.08447q.813,0,1.542-.06982.72949-.06958,1.20605-.1543a3.95866,3.95866,0,0,0-.14014.92529,3.95151,3.95151,0,0,0,.14014.92529,10.63036,10.63036,0,0,0-1.20605-.126q-.72949-.04248-1.542-.042v1.17773q0,1.09351.05615,2.25732.05566,1.16382.11182,1.83691-.561-.0564-1.23389-.05615-.6731,0-1.23389.05615.0564-.72876.14014-1.87891.08423-1.1499.08447-2.21533V19.76074q-.64526,0-1.86475.01367-1.22021.01465-2.55225.04248-1.33228.02783-2.5376.06982-1.2063.04248-1.79492.07031ZM16.44287,8.87988q-.58887.81372-1.48633,2.08936Q14.05859,12.24585,13.106,13.605q-.95435,1.36084-1.80908,2.62207-.85547,1.262-1.332,2.0752H16.499V8.87988Z"/></g></g><g class="f3f10f40-a2de-498a-a0b0-3c501fc2b83c"><g class="f3f10f40-a2de-498a-a0b0-3c501fc2b83c"><path class="6500dc9b-35e4-4a65-9b5d-a5fbf5142ed7" d="M92.251,136.54785q-1.2334,1.73877-2.56641,3.61719-1.33154,1.87939-2.5791,3.64551-1.248,1.7666-2.2998,3.2959-1.05176,1.52783-1.72461,2.59375a4.02863,4.02863,0,0,0-.95312-.14062,3.388,3.388,0,0,0-.89746.14063q.0835-1.85156.13965-4.165.05713-2.313.05664-4.75293v-3.085q-.813,0-1.543.07031-.728.07031-1.20605.1543a3.11446,3.11446,0,0,0,0-1.85059,10.89992,10.89992,0,0,0,1.20605.126q.72949.04248,1.543.042v-1.17773q0-1.09424-.05664-2.25781-.05566-1.16309-.1123-1.83594c.375.03711.78516.05566,1.23438.05566.44824,0,.86035-.01855,1.2334-.05566q-.05566.728-.13965,1.87891-.085,1.14844-.084,2.21484v1.17773q.64453,0,1.86426-.01367,1.22021-.01465,2.55176-.042,1.333-.0293,2.53809-.07031,1.20557-.04248,1.79492-.07031Zm-8.69336,10.57227q.58887-.81445,1.48633-2.08887.89795-1.27734,1.85059-2.63672.95361-1.35937,1.80859-2.62207.85693-1.26123,1.332-2.0752H83.502v9.42285Z"/></g></g><g class="aa272f2d-9dd5-4f0b-83ba-42c96a9d776d"><g class="da94f135-3fed-41f9-9f7b-ccc06c1c3cdf"><path class="6500dc9b-35e4-4a65-9b5d-a5fbf5142ed7" d="M14.72884,45.00738a.30754.30754,0,0,0,.45467,0C18.2436,41.64013,22.101,39.6081,22.101,35.35616c0-4.35786-4.7766-5.04821-7.14485-1.51671C12.58789,30.308,7.81135,30.9983,7.81135,35.35616c0,4.25193,3.8574,6.284,6.91748,9.65121"/></g></g><g class="30cd083e-9391-41ae-af58-c7172d3cd0af"><g class="cea61c53-bd15-4d48-9f3f-4f781e90a77b"><path class="6500dc9b-35e4-4a65-9b5d-a5fbf5142ed7" d="M85.27116,110.99262a.30754.30754,0,0,0-.45467,0c-3.06009,3.36724-6.91749,5.39928-6.91749,9.65121,0,4.35786,4.7766,5.04821,7.14485,1.51671,2.36825,3.53149,7.14479,2.84115,7.14479-1.51671,0-4.25193-3.8574-6.284-6.91748-9.65121"/></g></g><g class="6aac07cc-5bca-4ca4-b09a-b9a30905ebec"><g class="c9a0ac97-bd8e-4256-b292-ca960b314b2e"><path class="6500dc9b-35e4-4a65-9b5d-a5fbf5142ed7" d="M34.37561,32.1305a.3499.3499,0,0,0,.5173,0c3.48161-3.83107,7.87035-6.143,7.87035-10.98064,0-4.95815-5.43456-5.74358-8.129-1.72564-2.69447-4.01795-8.129-3.23251-8.129,1.72564,0,4.83763,4.38874,7.14957,7.87035,10.98064"/></g></g><g class="15535de4-de1b-453b-8a33-3547776c1403"><g class="be24c33a-a60a-4077-885c-53a50e1742ef"><path class="6500dc9b-35e4-4a65-9b5d-a5fbf5142ed7" d="M65.62439,119.25093a.3499.3499,0,0,0-.5173,0c-3.48161,3.83107-7.87035,6.143-7.87035,10.98064,0,4.95815,5.43456,5.74358,8.129,1.72564,2.69447,4.01795,8.129,3.23251,8.129-1.72564,0-4.83763-4.38874-7.14957-7.87035-10.98064"/></g></g><g class="c6708978-e3a9-436e-9edd-b6cdbad73ad8"><g class="665f98d5-1cbc-41d1-ae9d-c6c4355fec50"><path class="6500dc9b-35e4-4a65-9b5d-a5fbf5142ed7" d="M65.10709,32.1305a.3499.3499,0,0,0,.5173,0c3.48161-3.83107,7.87035-6.143,7.87035-10.98064,0-4.95815-5.43456-5.74358-8.129-1.72564-2.69447-4.01795-8.129-3.23251-8.129,1.72564,0,4.83763,4.38874,7.14957,7.87035,10.98064"/></g></g><g class="2f020c87-c102-484f-a6c6-47b9974b4350"><g class="704f11ff-3cd9-446f-ba59-e0bcec7e3cba"><path class="6500dc9b-35e4-4a65-9b5d-a5fbf5142ed7" d="M34.89291,119.25093a.3499.3499,0,0,0-.5173,0c-3.48161,3.83107-7.87035,6.143-7.87035,10.98064,0,4.95815,5.43456,5.74358,8.129,1.72564,2.69447,4.01795,8.129,3.23251,8.129-1.72564,0-4.83763-4.38874-7.14957-7.87035-10.98064"/></g></g></svg>