<svg id="e41242af-121c-4693-85ad-1290bc20f8a3" data-name="レイヤー 1" xmlns="http://www.w3.org/2000/svg" xmlns:xlink="http://www.w3.org/1999/xlink" viewBox="0 0 100 156"><defs><style>.\33 934bef8-3197-4dc8-b413-6f10d9ce4753{fill:none;}.\31 c376281-86fa-4307-a604-752ffba2b706{fill:#fff;}.e98ce6e1-bec7-4253-80ee-a3b701257362{fill:#7f7f7f;}.\32 7e1b8fd-1961-4e4a-abf4-c9d5b1dee9ca{clip-path:url(#5a77f3e3-8846-4aed-aee4-ad15f753a9c7);}.\38 6b6ad12-8603-48bc-a9dd-9f1683d19670{fill:#a00;}.\34 27e6e1f-e4f7-4605-8f24-b211f881976e{clip-path:url(#c977a977-c6d1-4178-9d1e-a2bf105ffd0a);}.e890986e-192b-4014-8bb2-75f29dff348e{clip-path:url(#a536f2f3-9bd1-40ed-af9c-f64d2359e1de);}.e7b195ca-24ca-485e-a273-39e9e71daa8c{clip-path:url(#3d06700b-1cdf-4ed5-ad3d-1b0b208f9820);}.\34 c4a1540-5713-48e5-b083-47868982a18d{clip-path:url(#14956e67-c445-4bad-bc37-bc5716f3d492);}.d63a13e6-87b6-4889-9418-62716c3ee9f6{clip-path:url(#c7bd9dcc-86d9-409d-935a-005cd6eada11);}.\38 171a613-b6e3-4194-8a58-861f4ada3698{clip-path:url(#dc118607-1535-4a61-b47f-2c68a622981e);}.\31 dfae494-0b19-422f-9cba-42780aa454d2{clip-path:url(#86533d2d-6852-4dc7-befe-a992ddf2c027);}.\35 e8577f5-4687-4b9b-8009-714ffebdd2a6{clip-path:url(#82e6f62c-a90c-441e-aaae-e173d688f098);}.b2ddaf66-d45f-4c26-92df-d81938ec3ab2{clip-path:url(#7a05cb87-727f-4495-a886-6889609a9c9e);}.\32 81ee425-19a2-4e2b-beb0-88fa053d454b{clip-path:url(#d33b18ea-ba90-4564-9993-02fb30f906c9);}.e38e8562-a74d-4a49-860e-2ba859f8e771{clip-path:url(#1c32313d-c613-4dff-bbe6-f8ef1a0821cf);}.da9f4fad-ff1d-42ce-9fad-03192d393551{clip-path:url(#29892c22-b841-43b5-9df3-0203af5a6f38);}.f4f04bab-9792-4c2b-98fb-414bcefb76de{clip-path:url(#6262cb20-33a2-40bb-9173-823a84d9403d);}.ffec2416-7d72-4b5c-93c2-5d874f8c6e87{clip-path:url(#2da7fea6-3211-4a8c-b71a-af79ab72aeff);}.\33 e785240-6bc3-48af-b093-1edfb1334ee3{clip-path:url(#b239c7ab-23e8-4ce8-a0ea-696bb29e77ff);}.\33 b754f83-8620-4f9f-9f03-099031947a3e{clip-path:url(#c64f8ef0-4121-4a89-be23-574bc767b2bb);}.\38 ea55f0a-824c-404a-aa59-d60ff2d15446{clip-path:url(#221ed61c-3882-4e42-8fcc-dbbeb142a96b);}</style><clipPath id="5a77f3e3-8846-4aed-aee4-ad15f753a9c7"><rect class="3934bef8-3197-4dc8-b413-6f10d9ce4753" width="29.91235" height="29.91235"/></clipPath><clipPath id="c977a977-c6d1-4178-9d1e-a2bf105ffd0a"><rect class="3934bef8-3197-4dc8-b413-6f10d9ce4753" x="70.08765" y="126.08765" width="29.91235" height="29.91235"/></clipPath><clipPath id="a536f2f3-9bd1-40ed-af9c-f64d2359e1de"><rect class="3934bef8-3197-4dc8-b413-6f10d9ce4753" x="7.81135" y="30.30795" width="14.28964" height="14.83331"/></clipPath><clipPath id="3d06700b-1cdf-4ed5-ad3d-1b0b208f9820"><rect class="3934bef8-3197-4dc8-b413-6f10d9ce4753" x="6.65392" y="29.72916" width="16.60658" height="16.60658"/></clipPath><clipPath id="14956e67-c445-4bad-bc37-bc5716f3d492"><rect class="3934bef8-3197-4dc8-b413-6f10d9ce4753" x="77.89901" y="110.85873" width="14.28964" height="14.83331"/></clipPath><clipPath id="c7bd9dcc-86d9-409d-935a-005cd6eada11"><rect class="3934bef8-3197-4dc8-b413-6f10d9ce4753" x="76.7395" y="109.66426" width="16.60658" height="16.60658"/></clipPath><clipPath id="dc118607-1535-4a61-b47f-2c68a622981e"><rect class="3934bef8-3197-4dc8-b413-6f10d9ce4753" x="26.50526" y="15.40627" width="16.258" height="16.87656"/></clipPath><clipPath id="86533d2d-6852-4dc7-befe-a992ddf2c027"><rect class="3934bef8-3197-4dc8-b413-6f10d9ce4753" x="25.18839" y="14.74775" width="18.89409" height="18.89409"/></clipPath><clipPath id="82e6f62c-a90c-441e-aaae-e173d688f098"><rect class="3934bef8-3197-4dc8-b413-6f10d9ce4753" x="26.50526" y="67.25243" width="16.258" height="16.87656"/></clipPath><clipPath id="7a05cb87-727f-4495-a886-6889609a9c9e"><rect class="3934bef8-3197-4dc8-b413-6f10d9ce4753" x="25.18839" y="66.59391" width="18.89409" height="18.89409"/></clipPath><clipPath id="d33b18ea-ba90-4564-9993-02fb30f906c9"><rect class="3934bef8-3197-4dc8-b413-6f10d9ce4753" x="57.23674" y="119.09859" width="16.258" height="16.87656"/></clipPath><clipPath id="1c32313d-c613-4dff-bbe6-f8ef1a0821cf"><rect class="3934bef8-3197-4dc8-b413-6f10d9ce4753" x="55.91752" y="117.73958" width="18.89409" height="18.89409"/></clipPath><clipPath id="29892c22-b841-43b5-9df3-0203af5a6f38"><rect class="3934bef8-3197-4dc8-b413-6f10d9ce4753" x="57.23674" y="15.40627" width="16.258" height="16.87656"/></clipPath><clipPath id="6262cb20-33a2-40bb-9173-823a84d9403d"><rect class="3934bef8-3197-4dc8-b413-6f10d9ce4753" x="55.91988" y="14.74775" width="18.89409" height="18.89409"/></clipPath><clipPath id="2da7fea6-3211-4a8c-b71a-af79ab72aeff"><rect class="3934bef8-3197-4dc8-b413-6f10d9ce4753" x="57.23674" y="67.25243" width="16.258" height="16.87656"/></clipPath><clipPath id="b239c7ab-23e8-4ce8-a0ea-696bb29e77ff"><rect class="3934bef8-3197-4dc8-b413-6f10d9ce4753" x="55.91988" y="66.59391" width="18.89409" height="18.89409"/></clipPath><clipPath id="c64f8ef0-4121-4a89-be23-574bc767b2bb"><rect class="3934bef8-3197-4dc8-b413-6f10d9ce4753" x="26.50526" y="119.09859" width="16.258" height="16.87656"/></clipPath><clipPath id="221ed61c-3882-4e42-8fcc-dbbeb142a96b"><rect class="3934bef8-3197-4dc8-b413-6f10d9ce4753" x="25.18603" y="117.73958" width="18.89409" height="18.89409"/></clipPath></defs><title>6</title><rect class="1c376281-86fa-4307-a604-752ffba2b706" x="0.5" y="0.5" width="99" height="155" rx="5.5" ry="5.5"/><path class="e98ce6e1-bec7-4253-80ee-a3b701257362" d="M94,1a5.00567,5.00567,0,0,1,5,5V150a5.00567,5.00567,0,0,1-5,5H6a5.00567,5.00567,0,0,1-5-5V6A5.00567,5.00567,0,0,1,6,1H94m0-1H6A6,6,0,0,0,0,6V150a6,6,0,0,0,6,6H94a6,6,0,0,0,6-6V6a6,6,0,0,0-6-6Z"/><g class="27e1b8fd-1961-4e4a-abf4-c9d5b1dee9ca"><g class="27e1b8fd-1961-4e4a-abf4-c9d5b1dee9ca"><path class="86b6ad12-8603-48bc-a9dd-9f1683d19670" d="M18.71436,7.22559q-.30908-.08423-.645-.14014a5.01847,5.01847,0,0,0-.81348-.05615,4.11635,4.11635,0,0,0-1.96289.4624,5.42162,5.42162,0,0,0-1.54248,1.23389,7.7924,7.7924,0,0,0-1.14941,1.76709,13.30351,13.30351,0,0,0-.78516,2.061,14.59921,14.59921,0,0,0-.44873,2.08887,13.98575,13.98575,0,0,0-.14014,1.89307h.05566a7.43482,7.43482,0,0,1,.67334-.95361,4.862,4.862,0,0,1,3.8418-1.7666,7.47161,7.47161,0,0,1,1.68262.22461,5.33088,5.33088,0,0,1,1.80859.813,4.85291,4.85291,0,0,1,1.44434,1.6123,5.21251,5.21251,0,0,1,.58887,2.62207,7.284,7.284,0,0,1-.43457,2.56592,5.58823,5.58823,0,0,1-1.248,1.99121,5.37767,5.37767,0,0,1-1.96289,1.26172,7.24719,7.24719,0,0,1-2.58008.43506,6.78952,6.78952,0,0,1-2.32764-.40674A4.86145,4.86145,0,0,1,10.792,23.57422a6.90072,6.90072,0,0,1-1.35986-2.48145,12.04911,12.04911,0,0,1-.50488-3.74365,17.06708,17.06708,0,0,1,.54688-4.38867,11.46529,11.46529,0,0,1,1.59863-3.58984,7.69626,7.69626,0,0,1,2.60791-2.39746,7.008,7.008,0,0,1,3.5752-.84131q.47681,0,.71533.01416a2.53887,2.53887,0,0,1,.46289.06982l.42041.89746Zm.14014,12.45068a6.23056,6.23056,0,0,0-.8833-3.47705A2.98552,2.98552,0,0,0,15.293,14.853a3.43024,3.43024,0,0,0-1.52832.35059,3.61593,3.61593,0,0,0-1.23389.99561,5.08572,5.08572,0,0,0-.82715,1.52832,5.86833,5.86833,0,0,0-.30859,1.94873,6.53593,6.53593,0,0,0,.28076,1.96338,4.776,4.776,0,0,0,.78516,1.542,3.546,3.546,0,0,0,1.19141.99561,3.19164,3.19164,0,0,0,1.47266.35059,3.43519,3.43519,0,0,0,1.584-.35059,3.29425,3.29425,0,0,0,1.16406-.99561,4.70492,4.70492,0,0,0,.729-1.542A7.22369,7.22369,0,0,0,18.85449,19.67627Z"/></g></g><g class="427e6e1f-e4f7-4605-8f24-b211f881976e"><g class="427e6e1f-e4f7-4605-8f24-b211f881976e"><path class="86b6ad12-8603-48bc-a9dd-9f1683d19670" d="M81.28613,148.77441a6.59176,6.59176,0,0,0,.64551.14063,5.06308,5.06308,0,0,0,.8125.05566,4.10819,4.10819,0,0,0,1.96289-.46289,5.42184,5.42184,0,0,0,1.543-1.2334,7.79994,7.79994,0,0,0,1.14941-1.7666,13.29725,13.29725,0,0,0,.78516-2.06152,14.698,14.698,0,0,0,.44922-2.08887,13.97067,13.97067,0,0,0,.13965-1.89355h-.05566a7.39941,7.39941,0,0,1-.67285.9541,4.92774,4.92774,0,0,1-2.20215,1.51367,4.89635,4.89635,0,0,1-1.63965.25293,7.46811,7.46811,0,0,1-1.68262-.22461,5.3315,5.3315,0,0,1-1.80957-.81348,4.85622,4.85622,0,0,1-1.44336-1.6123,5.20849,5.20849,0,0,1-.58984-2.62207,7.27212,7.27212,0,0,1,.43555-2.56543,5.58184,5.58184,0,0,1,1.24707-1.99121,5.37527,5.37527,0,0,1,1.96387-1.26172,7.24181,7.24181,0,0,1,2.5791-.43457,6.79183,6.79183,0,0,1,2.32813.40625,4.84554,4.84554,0,0,1,1.97656,1.36035,6.90866,6.90866,0,0,1,1.36035,2.48145,12.03356,12.03356,0,0,1,.50488,3.74414,17.06708,17.06708,0,0,1-.54687,4.38867,11.44352,11.44352,0,0,1-1.59863,3.58887,7.69733,7.69733,0,0,1-2.60742,2.39844,7.01023,7.01023,0,0,1-3.57617.84082q-.47607,0-.71484-.01367a2.59572,2.59572,0,0,1-.46289-.07031l-.4209-.89746Zm-.14062-12.45117a6.23118,6.23118,0,0,0,.88379,3.47754,2.98432,2.98432,0,0,0,2.67773,1.3457,3.41416,3.41416,0,0,0,1.52832-.35059,3.60127,3.60127,0,0,0,1.23438-.99512,5.09163,5.09163,0,0,0,.82715-1.52832,5.86716,5.86716,0,0,0,.30859-1.94922,6.5709,6.5709,0,0,0-.28027-1.96289,4.79043,4.79043,0,0,0-.78516-1.542,3.55739,3.55739,0,0,0-1.19238-.99609,3.1952,3.1952,0,0,0-1.47168-.35059,3.44691,3.44691,0,0,0-1.585.35059,3.2941,3.2941,0,0,0-1.16309.99609,4.69108,4.69108,0,0,0-.72949,1.542A7.24646,7.24646,0,0,0,81.14551,136.32324Z"/></g></g><g class="e890986e-192b-4014-8bb2-75f29dff348e"><g class="e7b195ca-24ca-485e-a273-39e9e71daa8c"><path class="86b6ad12-8603-48bc-a9dd-9f1683d19670" d="M14.72884,45.00738a.30754.30754,0,0,0,.45467,0C18.2436,41.64013,22.101,39.6081,22.101,35.35616c0-4.35786-4.7766-5.04821-7.14485-1.51671C12.58789,30.308,7.81135,30.9983,7.81135,35.35616c0,4.25193,3.8574,6.284,6.91748,9.65121"/></g></g><g class="4c4a1540-5713-48e5-b083-47868982a18d"><g class="d63a13e6-87b6-4889-9418-62716c3ee9f6"><path class="86b6ad12-8603-48bc-a9dd-9f1683d19670" d="M85.27116,110.99262a.30754.30754,0,0,0-.45467,0c-3.06009,3.36724-6.91749,5.39928-6.91749,9.65121,0,4.35786,4.7766,5.04821,7.14485,1.51671,2.36825,3.53149,7.14479,2.84115,7.14479-1.51671,0-4.25193-3.8574-6.284-6.91748-9.65121"/></g></g><g class="8171a613-b6e3-4194-8a58-861f4ada3698"><g class="1dfae494-0b19-422f-9cba-42780aa454d2"><path class="86b6ad12-8603-48bc-a9dd-9f1683d19670" d="M34.37561,32.1305a.3499.3499,0,0,0,.5173,0c3.48161-3.83107,7.87035-6.143,7.87035-10.98064,0-4.95815-5.43456-5.74358-8.129-1.72564-2.69447-4.01795-8.129-3.23251-8.129,1.72564,0,4.83763,4.38874,7.14957,7.87035,10.98064"/></g></g><g class="5e8577f5-4687-4b9b-8009-714ffebdd2a6"><g class="b2ddaf66-d45f-4c26-92df-d81938ec3ab2"><path class="86b6ad12-8603-48bc-a9dd-9f1683d19670" d="M34.37561,83.97666a.3499.3499,0,0,0,.5173,0c3.48161-3.83107,7.87035-6.143,7.87035-10.98064,0-4.95815-5.43456-5.74358-8.129-1.72564-2.69447-4.01795-8.129-3.23251-8.129,1.72564,0,4.83763,4.38874,7.14957,7.87035,10.98064"/></g></g><g class="281ee425-19a2-4e2b-beb0-88fa053d454b"><g class="e38e8562-a74d-4a49-860e-2ba859f8e771"><path class="86b6ad12-8603-48bc-a9dd-9f1683d19670" d="M65.62439,119.25093a.3499.3499,0,0,0-.5173,0c-3.48161,3.83107-7.87035,6.143-7.87035,10.98064,0,4.95815,5.43456,5.74358,8.129,1.72564,2.69447,4.01795,8.129,3.23251,8.129-1.72564,0-4.83763-4.38874-7.14957-7.87035-10.98064"/></g></g><g class="da9f4fad-ff1d-42ce-9fad-03192d393551"><g class="f4f04bab-9792-4c2b-98fb-414bcefb76de"><path class="86b6ad12-8603-48bc-a9dd-9f1683d19670" d="M65.10709,32.1305a.3499.3499,0,0,0,.5173,0c3.48161-3.83107,7.87035-6.143,7.87035-10.98064,0-4.95815-5.43456-5.74358-8.129-1.72564-2.69447-4.01795-8.129-3.23251-8.129,1.72564,0,4.83763,4.38874,7.14957,7.87035,10.98064"/></g></g><g class="ffec2416-7d72-4b5c-93c2-5d874f8c6e87"><g class="3e785240-6bc3-48af-b093-1edfb1334ee3"><path class="86b6ad12-8603-48bc-a9dd-9f1683d19670" d="M65.10709,83.97666a.3499.3499,0,0,0,.5173,0c3.48161-3.83107,7.87035-6.143,7.87035-10.98064,0-4.95815-5.43456-5.74358-8.129-1.72564-2.69447-4.01795-8.129-3.23251-8.129,1.72564,0,4.83763,4.38874,7.14957,7.87035,10.98064"/></g></g><g class="3b754f83-8620-4f9f-9f03-099031947a3e"><g class="8ea55f0a-824c-404a-aa59-d60ff2d15446"><path class="86b6ad12-8603-48bc-a9dd-9f1683d19670" d="M34.89291,119.25093a.3499.3499,0,0,0-.5173,0c-3.48161,3.83107-7.87035,6.143-7.87035,10.98064,0,4.95815,5.43456,5.74358,8.129,1.72564,2.69447,4.01795,8.129,3.23251,8.129-1.72564,0-4.83763-4.38874-7.14957-7.87035-10.98064"/></g></g></svg>