<svg id="f23880ac-643f-47a3-a3ee-fde64b4ffc1b" data-name="レイヤー 1" xmlns="http://www.w3.org/2000/svg" xmlns:xlink="http://www.w3.org/1999/xlink" viewBox="0 0 100 156"><defs><style>.\33 6b12601-7e6c-4297-8381-6220a7cd3739{fill:none;}.d740070c-7719-495e-924e-6a8065e86fb7{fill:#fff;}.\33 2241a4c-b86b-4a34-9a5f-2a79e12d25fa{fill:#7f7f7f;}.\34 b2b03a8-bb4d-4efd-abf7-e49bbc535284{clip-path:url(#f09d18cb-0ba3-4bc1-bdf0-186d004faa5b);}.\30 cbbd484-ec9f-4311-a480-295fc7231646{fill:#a00;}.\31 2a9f162-0c1c-4337-a258-d8580bce4c98{clip-path:url(#3155928c-f423-42ba-bcb5-91f935accf26);}.e819ecf0-97da-4485-a3f8-a7655e7ba519{clip-path:url(#7ce61732-cd2c-4838-bfb0-e5359b01fe03);}.\36 1634809-2f63-4e80-82e3-7dd5d5a238e8{clip-path:url(#7797bb70-6531-4580-a1f3-faa3446173ee);}.\30 1fc5502-968b-4b89-981e-702c0dfda6a8{clip-path:url(#f2e1ddc8-58c6-41d1-914e-a82e0a197fa5);}.ca802a31-3c48-4006-aaf3-01f9034e0455{clip-path:url(#b366fc6f-69b8-4aa9-a95e-2a3e0e4cc31a);}.\31 9d401f9-0453-4b2f-b15d-d97f9b1c1165{clip-path:url(#622034a3-a28a-40cd-9218-50b844ca51ca);}.d3795665-e958-4c92-9205-bba2b03b78c4{clip-path:url(#096dc48c-c0fe-403b-b379-726dbd9550de);}.e1966bcb-5bb9-467e-9e6c-912857011d8a{clip-path:url(#ca8c6b5a-b20c-4da4-a0b6-b531dbfbe791);}.\32 af25d50-ff84-4400-bee2-36a581487b2e{clip-path:url(#75085b84-1581-467b-b456-84962462569f);}.bc0dc38f-2eee-4b98-a228-feb5baf9ecb7{clip-path:url(#385c973a-dedb-42fb-bc10-86068936e6cc);}.\33 4d12491-7b0a-4b9a-8837-52c8a2d7b6de{clip-path:url(#a1bd979e-840f-49fa-9aa5-530f3c85c7ff);}.e50af740-bdd9-4144-bd38-b7544ba49a01{clip-path:url(#d87f92ba-e527-4a38-bd1e-a6cdb87131a0);}.\37 f3bb692-b82e-4c2d-91b0-c3ce9e22aca4{clip-path:url(#181d2abf-5406-47e9-8218-e88b2cf52d15);}.\33 e099318-22a8-431f-9309-61e82b3275aa{clip-path:url(#ec9cf74a-75b8-4382-b26d-2cef8645001f);}.bf4d823d-cec2-4fcf-9f46-50826967aadc{clip-path:url(#710442d3-92cf-4f92-8c41-c92dfc2898b3);}.\35 b1b4870-1940-4009-bbd8-40006bb82c8b{clip-path:url(#51dd5cbf-5a1b-40eb-a6d0-bc14385af238);}.\39 e7b39a1-1f66-4934-a9c1-54fd6d1dd77f{clip-path:url(#5acd2b2d-eaa7-480b-ae6a-9c0f3c259f21);}.\30 7fabce5-4301-4ca7-8586-eca1f5e8d886{clip-path:url(#c5186977-5cdc-4b14-a78e-d84874818f36);}.\34 f2c51db-6da3-4309-805f-f400daedefe7{clip-path:url(#b3410a57-4033-4919-8d5d-e3d2f337d8e0);}.\32 eb9b1f4-ea31-4123-80bd-f3447f8ed007{clip-path:url(#971dbd0f-2c02-41fb-9d38-c39772c8fd3f);}.\39 70b6199-b93b-4c89-8e95-70c26a8bc75e{clip-path:url(#90e25f92-daba-41eb-9a3e-5880b752b36d);}.\37 d38b13e-8d1f-4dc1-af62-002d96bc91e5{clip-path:url(#c003dcb9-76c6-407d-b332-4fcf5d7b7f12);}.\32 8d9094c-8803-46ca-b880-80f21ed301e1{clip-path:url(#23c4a18e-61d9-418c-b7fa-ac51f8ada424);}</style><clipPath id="f09d18cb-0ba3-4bc1-bdf0-186d004faa5b"><rect class="36b12601-7e6c-4297-8381-6220a7cd3739" width="29.91235" height="29.91235"/></clipPath><clipPath id="3155928c-f423-42ba-bcb5-91f935accf26"><rect class="36b12601-7e6c-4297-8381-6220a7cd3739" x="70.08765" y="126.08765" width="29.91235" height="29.91235"/></clipPath><clipPath id="7ce61732-cd2c-4838-bfb0-e5359b01fe03"><rect class="36b12601-7e6c-4297-8381-6220a7cd3739" x="7.81135" y="30.30795" width="14.28964" height="14.83331"/></clipPath><clipPath id="7797bb70-6531-4580-a1f3-faa3446173ee"><rect class="36b12601-7e6c-4297-8381-6220a7cd3739" x="6.65392" y="29.72916" width="16.60658" height="16.60658"/></clipPath><clipPath id="f2e1ddc8-58c6-41d1-914e-a82e0a197fa5"><rect class="36b12601-7e6c-4297-8381-6220a7cd3739" x="77.89901" y="110.85873" width="14.28964" height="14.83331"/></clipPath><clipPath id="b366fc6f-69b8-4aa9-a95e-2a3e0e4cc31a"><rect class="36b12601-7e6c-4297-8381-6220a7cd3739" x="76.7395" y="109.66426" width="16.60658" height="16.60658"/></clipPath><clipPath id="622034a3-a28a-40cd-9218-50b844ca51ca"><rect class="36b12601-7e6c-4297-8381-6220a7cd3739" x="26.50526" y="15.40627" width="16.258" height="16.87656"/></clipPath><clipPath id="096dc48c-c0fe-403b-b379-726dbd9550de"><rect class="36b12601-7e6c-4297-8381-6220a7cd3739" x="25.18839" y="14.74775" width="18.89409" height="18.89409"/></clipPath><clipPath id="ca8c6b5a-b20c-4da4-a0b6-b531dbfbe791"><rect class="36b12601-7e6c-4297-8381-6220a7cd3739" x="26.50526" y="49.97038" width="16.258" height="16.87656"/></clipPath><clipPath id="75085b84-1581-467b-b456-84962462569f"><rect class="36b12601-7e6c-4297-8381-6220a7cd3739" x="25.18839" y="49.31186" width="18.89409" height="18.89409"/></clipPath><clipPath id="385c973a-dedb-42fb-bc10-86068936e6cc"><rect class="36b12601-7e6c-4297-8381-6220a7cd3739" x="57.23674" y="119.09859" width="16.258" height="16.87656"/></clipPath><clipPath id="a1bd979e-840f-49fa-9aa5-530f3c85c7ff"><rect class="36b12601-7e6c-4297-8381-6220a7cd3739" x="55.91752" y="117.73958" width="18.89409" height="18.89409"/></clipPath><clipPath id="d87f92ba-e527-4a38-bd1e-a6cdb87131a0"><rect class="36b12601-7e6c-4297-8381-6220a7cd3739" x="57.23674" y="84.53449" width="16.258" height="16.87656"/></clipPath><clipPath id="181d2abf-5406-47e9-8218-e88b2cf52d15"><rect class="36b12601-7e6c-4297-8381-6220a7cd3739" x="55.91752" y="83.17548" width="18.89409" height="18.89409"/></clipPath><clipPath id="ec9cf74a-75b8-4382-b26d-2cef8645001f"><rect class="36b12601-7e6c-4297-8381-6220a7cd3739" x="57.23674" y="15.40627" width="16.258" height="16.87656"/></clipPath><clipPath id="710442d3-92cf-4f92-8c41-c92dfc2898b3"><rect class="36b12601-7e6c-4297-8381-6220a7cd3739" x="55.91988" y="14.74775" width="18.89409" height="18.89409"/></clipPath><clipPath id="51dd5cbf-5a1b-40eb-a6d0-bc14385af238"><rect class="36b12601-7e6c-4297-8381-6220a7cd3739" x="41.871" y="67.25243" width="16.258" height="16.87656"/></clipPath><clipPath id="5acd2b2d-eaa7-480b-ae6a-9c0f3c259f21"><rect class="36b12601-7e6c-4297-8381-6220a7cd3739" x="40.55413" y="66.59391" width="18.89409" height="18.89409"/></clipPath><clipPath id="c5186977-5cdc-4b14-a78e-d84874818f36"><rect class="36b12601-7e6c-4297-8381-6220a7cd3739" x="57.23674" y="49.97038" width="16.258" height="16.87656"/></clipPath><clipPath id="b3410a57-4033-4919-8d5d-e3d2f337d8e0"><rect class="36b12601-7e6c-4297-8381-6220a7cd3739" x="55.91988" y="49.31186" width="18.89409" height="18.89409"/></clipPath><clipPath id="971dbd0f-2c02-41fb-9d38-c39772c8fd3f"><rect class="36b12601-7e6c-4297-8381-6220a7cd3739" x="26.50526" y="119.09859" width="16.258" height="16.87656"/></clipPath><clipPath id="90e25f92-daba-41eb-9a3e-5880b752b36d"><rect class="36b12601-7e6c-4297-8381-6220a7cd3739" x="25.18603" y="117.73958" width="18.89409" height="18.89409"/></clipPath><clipPath id="c003dcb9-76c6-407d-b332-4fcf5d7b7f12"><rect class="36b12601-7e6c-4297-8381-6220a7cd3739" x="26.50526" y="84.53449" width="16.258" height="16.87656"/></clipPath><clipPath id="23c4a18e-61d9-418c-b7fa-ac51f8ada424"><rect class="36b12601-7e6c-4297-8381-6220a7cd3739" x="25.18603" y="83.17548" width="18.89409" height="18.89409"/></clipPath></defs><title>9</title><rect class="d740070c-7719-495e-924e-6a8065e86fb7" x="0.5" y="0.5" width="99" height="155" rx="5.5" ry="5.5"/><path class="32241a4c-b86b-4a34-9a5f-2a79e12d25fa" d="M94,1a5.00567,5.00567,0,0,1,5,5V150a5.00567,5.00567,0,0,1-5,5H6a5.00567,5.00567,0,0,1-5-5V6A5.00567,5.00567,0,0,1,6,1H94m0-1H6A6,6,0,0,0,0,6V150a6,6,0,0,0,6,6H94a6,6,0,0,0,6-6V6a6,6,0,0,0-6-6Z"/><g class="4b2b03a8-bb4d-4efd-abf7-e49bbc535284"><g class="4b2b03a8-bb4d-4efd-abf7-e49bbc535284"><path class="0cbbd484-ec9f-4311-a480-295fc7231646" d="M10.1333,23.37793a4.7757,4.7757,0,0,0,1.29.84131,3.63992,3.63992,0,0,0,1.48633.30859,4.09208,4.09208,0,0,0,2.59375-.84131,6.24624,6.24624,0,0,0,1.75244-2.20117,11.85619,11.85619,0,0,0,.99561-3.043,17.84822,17.84822,0,0,0,.32275-3.36475h-.05615a5.28811,5.28811,0,0,1-1.75293,1.90674,4.97311,4.97311,0,0,1-2.79.729A5.39713,5.39713,0,0,1,9.979,16.269a5.594,5.594,0,0,1-1.44434-4.13623,6.3913,6.3913,0,0,1,.43457-2.3833,5.4306,5.4306,0,0,1,1.248-1.89307,5.9028,5.9028,0,0,1,1.96289-1.26172,6.855,6.855,0,0,1,2.58008-.46289,6.6525,6.6525,0,0,1,2.39746.43457,5.04227,5.04227,0,0,1,1.99121,1.40234,7.23282,7.23282,0,0,1,1.374,2.49561,11.74993,11.74993,0,0,1,.519,3.74365,16.48994,16.48994,0,0,1-.561,4.375,11.33165,11.33165,0,0,1-1.62646,3.561A7.69246,7.69246,0,0,1,16.26074,24.5a7.12666,7.12666,0,0,1-3.4917.84131,6.31522,6.31522,0,0,1-1.31787-.12646,7.21144,7.21144,0,0,1-.89746-.23828q-.08423-.30835-.23828-.75732a5.03451,5.03451,0,0,0-.32227-.75684Zm8.32861-11.97412A4.74322,4.74322,0,0,0,17.43848,8.249,3.35735,3.35735,0,0,0,14.73242,7.0293a3.22427,3.22427,0,0,0-2.70654,1.35986,6.09871,6.09871,0,0,0-1.02344,3.74365,5.26185,5.26185,0,0,0,.92529,3.4917,3.19114,3.19114,0,0,0,2.52393,1.05127,3.26976,3.26976,0,0,0,1.72461-.44873,4.04762,4.04762,0,0,0,1.248-1.17773,5.55838,5.55838,0,0,0,.771-1.68262A7.25326,7.25326,0,0,0,18.46191,11.40381Z"/></g></g><g class="12a9f162-0c1c-4337-a258-d8580bce4c98"><g class="12a9f162-0c1c-4337-a258-d8580bce4c98"><path class="0cbbd484-ec9f-4311-a480-295fc7231646" d="M89.86719,132.62207a4.7891,4.7891,0,0,0-1.29-.8418,3.64159,3.64159,0,0,0-1.48633-.30859,4.09433,4.09433,0,0,0-2.59375.8418,6.24843,6.24843,0,0,0-1.75293,2.20117,11.86844,11.86844,0,0,0-.99512,3.043,17.84489,17.84489,0,0,0-.32227,3.36523h.05566a5.29783,5.29783,0,0,1,1.75293-1.90723,4.971,4.971,0,0,1,2.79-.72949,5.4006,5.4006,0,0,1,3.99609,1.44434,5.59792,5.59792,0,0,1,1.44434,4.13672,6.39569,6.39569,0,0,1-.43457,2.38379,5.44893,5.44893,0,0,1-1.248,1.89258,5.9028,5.9028,0,0,1-1.96289,1.26172,6.85674,6.85674,0,0,1-2.58008.46289,6.644,6.644,0,0,1-2.39746-.43457,5.03392,5.03392,0,0,1-1.99121-1.40234,7.21379,7.21379,0,0,1-1.374-2.49609A11.74568,11.74568,0,0,1,78.959,141.792a16.4901,16.4901,0,0,1,.56055-4.375,11.35483,11.35483,0,0,1,1.626-3.56152A7.69892,7.69892,0,0,1,83.74023,131.5a7.12186,7.12186,0,0,1,3.49121-.84082,6.31206,6.31206,0,0,1,1.31738.126,7.27489,7.27489,0,0,1,.89746.23828c.05664.20508.13574.458.23828.75684a5.06643,5.06643,0,0,0,.32324.75781ZM81.53906,144.5957A4.742,4.742,0,0,0,82.5625,147.751a3.35668,3.35668,0,0,0,2.70605,1.21973,3.22384,3.22384,0,0,0,2.70605-1.36035,6.09519,6.09519,0,0,0,1.02344-3.74316,5.25653,5.25653,0,0,0-.92578-3.49121,3.1875,3.1875,0,0,0-2.52344-1.05176,3.2728,3.2728,0,0,0-1.72461.44824,4.053,4.053,0,0,0-1.248,1.17773,5.55287,5.55287,0,0,0-.77148,1.68262A7.29378,7.29378,0,0,0,81.53906,144.5957Z"/></g></g><g class="e819ecf0-97da-4485-a3f8-a7655e7ba519"><g class="61634809-2f63-4e80-82e3-7dd5d5a238e8"><path class="0cbbd484-ec9f-4311-a480-295fc7231646" d="M14.72884,45.00738a.30754.30754,0,0,0,.45467,0C18.2436,41.64013,22.101,39.6081,22.101,35.35616c0-4.35786-4.7766-5.04821-7.14485-1.51671C12.58789,30.308,7.81135,30.9983,7.81135,35.35616c0,4.25193,3.8574,6.284,6.91748,9.65121"/></g></g><g class="01fc5502-968b-4b89-981e-702c0dfda6a8"><g class="ca802a31-3c48-4006-aaf3-01f9034e0455"><path class="0cbbd484-ec9f-4311-a480-295fc7231646" d="M85.27116,110.99262a.30754.30754,0,0,0-.45467,0c-3.06009,3.36724-6.91749,5.39928-6.91749,9.65121,0,4.35786,4.7766,5.04821,7.14485,1.51671,2.36825,3.53149,7.14479,2.84115,7.14479-1.51671,0-4.25193-3.8574-6.284-6.91748-9.65121"/></g></g><g class="19d401f9-0453-4b2f-b15d-d97f9b1c1165"><g class="d3795665-e958-4c92-9205-bba2b03b78c4"><path class="0cbbd484-ec9f-4311-a480-295fc7231646" d="M34.37561,32.1305a.3499.3499,0,0,0,.5173,0c3.48161-3.83107,7.87035-6.143,7.87035-10.98064,0-4.95815-5.43456-5.74358-8.129-1.72564-2.69447-4.01795-8.129-3.23251-8.129,1.72564,0,4.83763,4.38874,7.14957,7.87035,10.98064"/></g></g><g class="e1966bcb-5bb9-467e-9e6c-912857011d8a"><g class="2af25d50-ff84-4400-bee2-36a581487b2e"><path class="0cbbd484-ec9f-4311-a480-295fc7231646" d="M34.37561,66.69461a.3499.3499,0,0,0,.5173,0c3.48161-3.83107,7.87035-6.143,7.87035-10.98064,0-4.95815-5.43456-5.74358-8.129-1.72564-2.69447-4.01795-8.129-3.23251-8.129,1.72564,0,4.83763,4.38874,7.14957,7.87035,10.98064"/></g></g><g class="bc0dc38f-2eee-4b98-a228-feb5baf9ecb7"><g class="34d12491-7b0a-4b9a-8837-52c8a2d7b6de"><path class="0cbbd484-ec9f-4311-a480-295fc7231646" d="M65.62439,119.25093a.3499.3499,0,0,0-.5173,0c-3.48161,3.83107-7.87035,6.143-7.87035,10.98064,0,4.95815,5.43456,5.74358,8.129,1.72564,2.69447,4.01795,8.129,3.23251,8.129-1.72564,0-4.83763-4.38874-7.14957-7.87035-10.98064"/></g></g><g class="e50af740-bdd9-4144-bd38-b7544ba49a01"><g class="7f3bb692-b82e-4c2d-91b0-c3ce9e22aca4"><path class="0cbbd484-ec9f-4311-a480-295fc7231646" d="M65.62439,84.68682a.3499.3499,0,0,0-.5173,0c-3.48161,3.83107-7.87035,6.143-7.87035,10.98064,0,4.95815,5.43456,5.74358,8.129,1.72564,2.69447,4.01795,8.129,3.23251,8.129-1.72564,0-4.83763-4.38874-7.14957-7.87035-10.98064"/></g></g><g class="3e099318-22a8-431f-9309-61e82b3275aa"><g class="bf4d823d-cec2-4fcf-9f46-50826967aadc"><path class="0cbbd484-ec9f-4311-a480-295fc7231646" d="M65.10709,32.1305a.3499.3499,0,0,0,.5173,0c3.48161-3.83107,7.87035-6.143,7.87035-10.98064,0-4.95815-5.43456-5.74358-8.129-1.72564-2.69447-4.01795-8.129-3.23251-8.129,1.72564,0,4.83763,4.38874,7.14957,7.87035,10.98064"/></g></g><g class="5b1b4870-1940-4009-bbd8-40006bb82c8b"><g class="9e7b39a1-1f66-4934-a9c1-54fd6d1dd77f"><path class="0cbbd484-ec9f-4311-a480-295fc7231646" d="M49.74135,83.97666a.3499.3499,0,0,0,.5173,0c3.48161-3.83107,7.87035-6.143,7.87035-10.98064,0-4.95815-5.43456-5.74358-8.129-1.72564-2.69447-4.01795-8.129-3.23251-8.129,1.72564,0,4.83763,4.38874,7.14957,7.87035,10.98064"/></g></g><g class="07fabce5-4301-4ca7-8586-eca1f5e8d886"><g class="4f2c51db-6da3-4309-805f-f400daedefe7"><path class="0cbbd484-ec9f-4311-a480-295fc7231646" d="M65.10709,66.69461a.3499.3499,0,0,0,.5173,0c3.48161-3.83107,7.87035-6.143,7.87035-10.98064,0-4.95815-5.43456-5.74358-8.129-1.72564-2.69447-4.01795-8.129-3.23251-8.129,1.72564,0,4.83763,4.38874,7.14957,7.87035,10.98064"/></g></g><g class="2eb9b1f4-ea31-4123-80bd-f3447f8ed007"><g class="970b6199-b93b-4c89-8e95-70c26a8bc75e"><path class="0cbbd484-ec9f-4311-a480-295fc7231646" d="M34.89291,119.25093a.3499.3499,0,0,0-.5173,0c-3.48161,3.83107-7.87035,6.143-7.87035,10.98064,0,4.95815,5.43456,5.74358,8.129,1.72564,2.69447,4.01795,8.129,3.23251,8.129-1.72564,0-4.83763-4.38874-7.14957-7.87035-10.98064"/></g></g><g class="7d38b13e-8d1f-4dc1-af62-002d96bc91e5"><g class="28d9094c-8803-46ca-b880-80f21ed301e1"><path class="0cbbd484-ec9f-4311-a480-295fc7231646" d="M34.89291,84.68682a.3499.3499,0,0,0-.5173,0c-3.48161,3.83107-7.87035,6.143-7.87035,10.98064,0,4.95815,5.43456,5.74358,8.129,1.72564,2.69447,4.01795,8.129,3.23251,8.129-1.72564,0-4.83763-4.38874-7.14957-7.87035-10.98064"/></g></g></svg>