<svg xmlns="http://www.w3.org/2000/svg" xmlns:xlink="http://www.w3.org/1999/xlink" viewBox="0 0 100 156"><defs><style>.\30 51d70e7-031c-44c4-8779-74a92db11c4a{fill:none;}.\35 e37a1a6-bc3d-489e-8ed0-32dffc5e9036{isolation:isolate;}.bf5097e5-73ee-4400-8455-22df5a41e1f1{fill:#fff;}.db8e8740-1fe2-47d7-b65e-0ee68b7fc28f{fill:#7f7f7f;}.d089d8a5-9c8b-4202-9a4e-4e35ae547c22{clip-path:url(#c84749c4-bb90-4248-a65d-65246bdfbb0e);}.\35 f21a4e2-5956-4d3a-90d2-bd054a28a576{fill:#a00;}.\31 1d1dc63-057b-4e74-b332-f7d8ee28bd45{clip-path:url(#297a981a-6ed5-4a10-b7b6-3789cc1061d7);}.b28c35ba-b1c9-482a-896f-c040b63b99eb{clip-path:url(#efe0dece-bd84-4d51-ae67-6c576b5d1c7b);}.\39 6c0a109-28d8-4216-a7e7-acc48f7abe75{clip-path:url(#95c6fb34-fc57-4c19-9801-5d2d633ade64);}.\31 8a3488a-3214-49ce-90c1-14fcf08314a7{clip-path:url(#86b424df-946a-426c-927e-6171443057af);}.\36 bb95871-ddec-4b5c-b2ae-dde698ba99bc{clip-path:url(#5831a600-5b5c-417b-b385-dee330e16e8c);}.\34 18dcd79-c8f9-44f9-b018-a3c126cd3e13{clip-path:url(#4c0d5e21-6886-4f6d-86fd-3da15ec80c39);}.\30 6a53a75-6e64-46d1-ae7c-5f72a4b0e9c8{mix-blend-mode:multiply;}.\31 705f9d9-e4d3-45fb-b67e-1fd5c4ea42f3{clip-path:url(#5eb29230-cb12-4554-8680-b99bc3226a39);}.\33 3fa6bec-6550-4238-9edb-6bb63d437f89{fill:#aa5454;}.\34 e936681-63fe-4dde-8cb1-776046548b24{clip-path:url(#17d24630-d1f0-4629-841b-551d62f2c45e);}</style><clipPath id="c84749c4-bb90-4248-a65d-65246bdfbb0e"><rect class="051d70e7-031c-44c4-8779-74a92db11c4a" width="29.91235" height="29.91235"/></clipPath><clipPath id="297a981a-6ed5-4a10-b7b6-3789cc1061d7"><rect class="051d70e7-031c-44c4-8779-74a92db11c4a" x="70.08765" y="126.08765" width="29.91235" height="29.91235"/></clipPath><clipPath id="efe0dece-bd84-4d51-ae67-6c576b5d1c7b"><rect class="051d70e7-031c-44c4-8779-74a92db11c4a" x="7.81135" y="30.30795" width="14.28964" height="14.83331"/></clipPath><clipPath id="95c6fb34-fc57-4c19-9801-5d2d633ade64"><rect class="051d70e7-031c-44c4-8779-74a92db11c4a" x="6.65392" y="29.72916" width="16.60658" height="16.60658"/></clipPath><clipPath id="86b424df-946a-426c-927e-6171443057af"><rect class="051d70e7-031c-44c4-8779-74a92db11c4a" x="77.89901" y="110.85873" width="14.28964" height="14.83331"/></clipPath><clipPath id="5831a600-5b5c-417b-b385-dee330e16e8c"><rect class="051d70e7-031c-44c4-8779-74a92db11c4a" x="76.7395" y="109.66426" width="16.60658" height="16.60658"/></clipPath><clipPath id="4c0d5e21-6886-4f6d-86fd-3da15ec80c39"><rect class="051d70e7-031c-44c4-8779-74a92db11c4a" x="25" y="23" width="50" height="110"/></clipPath><clipPath id="5eb29230-cb12-4554-8680-b99bc3226a39"><rect class="051d70e7-031c-44c4-8779-74a92db11c4a" x="50" y="23" width="25" height="110"/></clipPath><clipPath id="17d24630-d1f0-4629-841b-551d62f2c45e"><rect class="051d70e7-031c-44c4-8779-74a92db11c4a" x="25" y="78" width="25" height="55"/></clipPath></defs><title>J</title><g class="5e37a1a6-bc3d-489e-8ed0-32dffc5e9036"><g id="2888a1da-9457-4c86-8e43-c645f19b5dd4" data-name="レイヤー 1"><rect class="bf5097e5-73ee-4400-8455-22df5a41e1f1" x="0.5" y="0.5" width="99" height="155" rx="5.5" ry="5.5"/><path class="db8e8740-1fe2-47d7-b65e-0ee68b7fc28f" d="M94,1a5.00567,5.00567,0,0,1,5,5V150a5.00567,5.00567,0,0,1-5,5H6a5.00567,5.00567,0,0,1-5-5V6A5.00567,5.00567,0,0,1,6,1H94m0-1H6A6,6,0,0,0,0,6V150a6,6,0,0,0,6,6H94a6,6,0,0,0,6-6V6a6,6,0,0,0-6-6Z"/><g class="d089d8a5-9c8b-4202-9a4e-4e35ae547c22"><g class="d089d8a5-9c8b-4202-9a4e-4e35ae547c22"><path class="5f21a4e2-5956-4d3a-90d2-bd054a28a576" d="M12.55859,27.59863a3.371,3.371,0,0,0,1.06592-1.52832,8.49582,8.49582,0,0,0,.4624-2.32764q.09814-1.34619.09814-3.00049V13.03027q0-1.85083-.06982-3.63135-.07031-1.78052-.1543-3.63184.364.0564.70117.09814a5.41163,5.41163,0,0,0,1.3457,0q.33691-.04175.70117-.09814-.08423,1.85083-.1543,3.63184-.07031,1.78125-.06982,3.63135,0,1.262.01367,2.60791.01392,1.34619.02832,2.65039.01392,1.30371.02783,2.50977.01392,1.20557.01416,2.21533a6.366,6.366,0,0,1-.40674,2.31348,5.75472,5.75472,0,0,1-1.16357,1.86475,5.43247,5.43247,0,0,1-1.80908,1.27588,5.60782,5.60782,0,0,1-2.28516.46289l-.22461-.78516A2.976,2.976,0,0,0,12.55859,27.59863Z"/></g></g><g class="11d1dc63-057b-4e74-b332-f7d8ee28bd45"><g class="11d1dc63-057b-4e74-b332-f7d8ee28bd45"><path class="5f21a4e2-5956-4d3a-90d2-bd054a28a576" d="M87.44141,128.40137a3.37129,3.37129,0,0,0-1.06543,1.52832,8.54993,8.54993,0,0,0-.46289,2.32715q-.09814,1.34619-.09766,3.001v7.71191q0,1.8501.07031,3.63184.07031,1.77979.1543,3.63086c-.24316-.03711-.47754-.06934-.70117-.09766a5.41945,5.41945,0,0,0-1.34668,0c-.22363.02832-.458.06055-.70117.09766q.085-1.8501.1543-3.63086.07031-1.78125.07031-3.63184,0-1.2627-.01367-2.6084-.01465-1.34619-.02832-2.64941-.01318-1.30371-.02832-2.50977-.01318-1.207-.01367-2.21582a6.37814,6.37814,0,0,1,.40625-2.31348,5.7717,5.7717,0,0,1,1.16406-1.86523,5.42919,5.42919,0,0,1,1.80859-1.27539,5.6108,5.6108,0,0,1,2.28613-.46289l.22363.78516A2.97691,2.97691,0,0,0,87.44141,128.40137Z"/></g></g><g class="b28c35ba-b1c9-482a-896f-c040b63b99eb"><g class="96c0a109-28d8-4216-a7e7-acc48f7abe75"><path class="5f21a4e2-5956-4d3a-90d2-bd054a28a576" d="M14.72884,45.00738a.30754.30754,0,0,0,.45467,0C18.2436,41.64013,22.101,39.6081,22.101,35.35616c0-4.35786-4.7766-5.04821-7.14485-1.51671C12.58789,30.308,7.81135,30.9983,7.81135,35.35616c0,4.25193,3.8574,6.284,6.91748,9.65121"/></g></g><g class="18a3488a-3214-49ce-90c1-14fcf08314a7"><g class="6bb95871-ddec-4b5c-b2ae-dde698ba99bc"><path class="5f21a4e2-5956-4d3a-90d2-bd054a28a576" d="M85.27116,110.99262a.30754.30754,0,0,0-.45467,0c-3.06009,3.36724-6.91749,5.39928-6.91749,9.65121,0,4.35786,4.7766,5.04821,7.14485,1.51671,2.36825,3.53149,7.14479,2.84115,7.14479-1.51671,0-4.25193-3.8574-6.284-6.91748-9.65121"/></g></g></g><g id="1647f610-040a-4395-bc21-2e94877f55aa" data-name="レイヤー 2"><g class="418dcd79-c8f9-44f9-b018-a3c126cd3e13"><g class="418dcd79-c8f9-44f9-b018-a3c126cd3e13"><g class="418dcd79-c8f9-44f9-b018-a3c126cd3e13"><g class="06a53a75-6e64-46d1-ae7c-5f72a4b0e9c8"><g class="1705f9d9-e4d3-45fb-b67e-1fd5c4ea42f3"><polyline class="33fa6bec-6550-4238-9edb-6bb63d437f89" points="50 23 75 23 75 133"/></g></g><g class="06a53a75-6e64-46d1-ae7c-5f72a4b0e9c8"><g class="4e936681-63fe-4dde-8cb1-776046548b24"><polyline class="33fa6bec-6550-4238-9edb-6bb63d437f89" points="50 133 25 133 25 78"/></g></g><g class="06a53a75-6e64-46d1-ae7c-5f72a4b0e9c8"><g class="1705f9d9-e4d3-45fb-b67e-1fd5c4ea42f3"><polyline class="33fa6bec-6550-4238-9edb-6bb63d437f89" points="50 133 75 133 75 23"/></g></g></g></g></g></g></g></svg>