<svg xmlns="http://www.w3.org/2000/svg" xmlns:xlink="http://www.w3.org/1999/xlink" viewBox="0 0 100 156"><defs><style>.\31 cfdaf6d-c2a8-433e-b497-f43050a7402b{fill:none;}.\39 832b780-1bb8-4098-b584-7857289bcd1a{isolation:isolate;}.b3affc4f-73eb-4f0a-8091-e18d16e4afb0{fill:#fff;}.dbdd9065-4306-4604-b654-7f39a260a94d{fill:#7f7f7f;}.eff96e76-db71-48a1-888e-495809b9c562{clip-path:url(#1616dccd-1369-4785-a5e9-150e5f6ce1d3);}.e1802640-0581-4c54-bdea-74ebd1409201{fill:#a00;}.\37 c9f97f3-33f8-4f56-b323-3c37e5fb954a{clip-path:url(#5f22ca3e-6bef-49ef-b874-85c6312bb71e);}.\36 5b85e7b-f846-44af-9bf0-c52718986977{clip-path:url(#62542426-4a34-4691-98aa-6d5c9612b433);}.bd0a0306-032c-4b4e-afcf-a8cb920d6b41{clip-path:url(#52cc0c79-7d04-4d9e-be10-dd95131ee712);}.f51ebbfb-6180-4e2e-b3c5-4bbfcd4d5ba4{clip-path:url(#5dab7108-b017-4649-90b0-0c0c62fe8bcf);}.\31 c9719d2-923b-4362-b74e-ef212d8089b8{clip-path:url(#dfb9b5a0-85c9-4698-bfa3-261a10016410);}.\30 23c084a-ce8c-403a-b123-a9db43f324f7{clip-path:url(#e967dcfc-b1bf-4883-85e2-dd2cfde26760);}.\35 846ae3d-fd07-455c-ae3c-a20ec75571bf{mix-blend-mode:multiply;}.\37 f2c139a-c65f-453e-bcdb-75712eec7990{fill:#aa5454;}</style><clipPath id="1616dccd-1369-4785-a5e9-150e5f6ce1d3"><rect class="1cfdaf6d-c2a8-433e-b497-f43050a7402b" width="29.91235" height="29.91235"/></clipPath><clipPath id="5f22ca3e-6bef-49ef-b874-85c6312bb71e"><rect class="1cfdaf6d-c2a8-433e-b497-f43050a7402b" x="70.08765" y="126.08765" width="29.91235" height="29.91235"/></clipPath><clipPath id="62542426-4a34-4691-98aa-6d5c9612b433"><rect class="1cfdaf6d-c2a8-433e-b497-f43050a7402b" x="7.81135" y="30.30795" width="14.28964" height="14.83331"/></clipPath><clipPath id="52cc0c79-7d04-4d9e-be10-dd95131ee712"><rect class="1cfdaf6d-c2a8-433e-b497-f43050a7402b" x="6.65392" y="29.72916" width="16.60658" height="16.60658"/></clipPath><clipPath id="5dab7108-b017-4649-90b0-0c0c62fe8bcf"><rect class="1cfdaf6d-c2a8-433e-b497-f43050a7402b" x="77.89901" y="110.85873" width="14.28964" height="14.83331"/></clipPath><clipPath id="dfb9b5a0-85c9-4698-bfa3-261a10016410"><rect class="1cfdaf6d-c2a8-433e-b497-f43050a7402b" x="76.7395" y="109.66426" width="16.60658" height="16.60658"/></clipPath><clipPath id="e967dcfc-b1bf-4883-85e2-dd2cfde26760"><rect class="1cfdaf6d-c2a8-433e-b497-f43050a7402b" x="25" y="23" width="50" height="110"/></clipPath></defs><title>K</title><g class="9832b780-1bb8-4098-b584-7857289bcd1a"><g id="4528e5f3-0aee-4c55-ad27-5cd43a6cc799" data-name="レイヤー 1"><rect class="b3affc4f-73eb-4f0a-8091-e18d16e4afb0" x="0.5" y="0.5" width="99" height="155" rx="5.5" ry="5.5"/><path class="dbdd9065-4306-4604-b654-7f39a260a94d" d="M94,1a5.00567,5.00567,0,0,1,5,5V150a5.00567,5.00567,0,0,1-5,5H6a5.00567,5.00567,0,0,1-5-5V6A5.00567,5.00567,0,0,1,6,1H94m0-1H6A6,6,0,0,0,0,6V150a6,6,0,0,0,6,6H94a6,6,0,0,0,6-6V6a6,6,0,0,0-6-6Z"/><g class="eff96e76-db71-48a1-888e-495809b9c562"><g class="eff96e76-db71-48a1-888e-495809b9c562"><path class="e1802640-0581-4c54-bdea-74ebd1409201" d="M8.91357,25.03271q.08423-1.73877.1543-3.53369.06958-1.7937.06982-3.64551V13.03027q0-1.85083-.06982-3.63135-.07031-1.78052-.1543-3.63184.364.0564.70117.09814a5.41163,5.41163,0,0,0,1.3457,0q.33691-.04175.70117-.09814-.08423,1.85083-.1543,3.63184-.07031,1.78125-.06982,3.63135v1.54248c0,.1499.05615.22412.168.22412q.11206,0,.39258-.25244.98145-.84082,2.06152-1.90674,1.07886-1.06567,2.17334-2.21533,1.09351-1.1499,2.15918-2.3418Q19.457,6.88892,20.439,5.76709q.30835.0564.58887.09814a3.74121,3.74121,0,0,0,.561.042,5.36512,5.36512,0,0,0,.67285-.042q.33691-.04175.67334-.09814-.98218.84155-2.21533,1.99121-1.23486,1.1499-2.48193,2.35547-1.248,1.2063-2.38379,2.36963-1.13525,1.16382-1.89258,2.0332,2.27124,2.55176,4.585,5.20215,2.313,2.6499,4.69678,5.314a6.31692,6.31692,0,0,0-.84082-.05615H20.78955a5.41552,5.41552,0,0,0-.771.05615q-1.01-1.1499-2.22949-2.63623-1.22021-1.48608-2.38379-2.874-1.16382-1.38867-2.103-2.49609-.9397-1.10742-1.38818-1.55615c-.1499-.14941-.26221-.22461-.33643-.22461-.09375,0-.14014.05615-.14014.16846v2.43945q0,1.85083.06982,3.64551.06958,1.79517.1543,3.53369-.64526-.0564-1.374-.05615Q9.55811,24.97656,8.91357,25.03271Z"/></g></g><g class="7c9f97f3-33f8-4f56-b323-3c37e5fb954a"><g class="7c9f97f3-33f8-4f56-b323-3c37e5fb954a"><path class="e1802640-0581-4c54-bdea-74ebd1409201" d="M91.08789,130.96777q-.085,1.7373-.1543,3.5332-.07031,1.79443-.07031,3.64551v4.82324q0,1.8501.07031,3.63184.07031,1.77979.1543,3.63086c-.24316-.03711-.47754-.06934-.70117-.09766a5.41945,5.41945,0,0,0-1.34668,0c-.22363.02832-.458.06055-.70117.09766q.085-1.8501.1543-3.63086.07031-1.78125.07031-3.63184v-1.542c0-.15039-.05566-.22461-.168-.22461-.07422,0-.20605.084-.39258.252q-.98145.84229-2.06152,1.90723-1.07959,1.06494-2.17285,2.21582-1.09424,1.14844-2.15918,2.34082-1.06641,1.19238-2.04785,2.31348-.30762-.05566-.58887-.09766a3.72519,3.72519,0,0,0-.56055-.042,5.36512,5.36512,0,0,0-.67285.042q-.33691.04248-.67285.09766.98145-.84082,2.21484-1.99023,1.23486-1.15137,2.48242-2.35645,1.248-1.20557,2.38281-2.36914,1.13672-1.16455,1.89355-2.0332-2.272-2.55176-4.585-5.20215-2.31445-2.6499-4.69727-5.31348a6.39911,6.39911,0,0,0,.84082.05566h1.6123a5.48787,5.48787,0,0,0,.77148-.05566q1.00928,1.14844,2.22949,2.63574,1.22021,1.48535,2.38379,2.874,1.16309,1.38867,2.10352,2.49609.939,1.10742,1.3877,1.55664c.14941.14941.26172.22363.33691.22363.09375,0,.13965-.05566.13965-.168v-2.43945q0-1.85156-.07031-3.64551-.06885-1.7959-.1543-3.5332.646.05566,1.374.05566C90.2002,131.02344,90.65723,131.00488,91.08789,130.96777Z"/></g></g><g class="65b85e7b-f846-44af-9bf0-c52718986977"><g class="bd0a0306-032c-4b4e-afcf-a8cb920d6b41"><path class="e1802640-0581-4c54-bdea-74ebd1409201" d="M14.72884,45.00738a.30754.30754,0,0,0,.45467,0C18.2436,41.64013,22.101,39.6081,22.101,35.35616c0-4.35786-4.7766-5.04821-7.14485-1.51671C12.58789,30.308,7.81135,30.9983,7.81135,35.35616c0,4.25193,3.8574,6.284,6.91748,9.65121"/></g></g><g class="f51ebbfb-6180-4e2e-b3c5-4bbfcd4d5ba4"><g class="1c9719d2-923b-4362-b74e-ef212d8089b8"><path class="e1802640-0581-4c54-bdea-74ebd1409201" d="M85.27116,110.99262a.30754.30754,0,0,0-.45467,0c-3.06009,3.36724-6.91749,5.39928-6.91749,9.65121,0,4.35786,4.7766,5.04821,7.14485,1.51671,2.36825,3.53149,7.14479,2.84115,7.14479-1.51671,0-4.25193-3.8574-6.284-6.91748-9.65121"/></g></g></g><g id="c2bfe76a-7597-45ae-8cc8-03d3d0c0042f" data-name="レイヤー 2"><g class="023c084a-ce8c-403a-b123-a9db43f324f7"><g class="023c084a-ce8c-403a-b123-a9db43f324f7"><g class="023c084a-ce8c-403a-b123-a9db43f324f7"><g class="5846ae3d-fd07-455c-ae3c-a20ec75571bf"><g class="023c084a-ce8c-403a-b123-a9db43f324f7"><polyline class="7f2c139a-c65f-453e-bcdb-75712eec7990" points="75 133 25 133 25 23"/></g></g><g class="5846ae3d-fd07-455c-ae3c-a20ec75571bf"><g class="023c084a-ce8c-403a-b123-a9db43f324f7"><polyline class="7f2c139a-c65f-453e-bcdb-75712eec7990" points="75 23 25 23 25 133"/></g></g></g></g></g></g></g></svg>