<svg id="f612c19e-7582-4ca5-94fa-0dc5e363d42e" data-name="レイヤー 1" xmlns="http://www.w3.org/2000/svg" xmlns:xlink="http://www.w3.org/1999/xlink" viewBox="0 0 100 156"><defs><style>.\34 1a241b7-3f75-4bb7-8a88-8f6026c2d9ed{fill:none;}.\32 4a73183-28b8-4301-ba37-c322f13fd3a7{fill:#fff;}.\38 04540f6-68e0-4335-983f-cce6461f5303{fill:#7f7f7f;}.\35 7da8c93-6111-4a0d-81fc-f7bf6cdd65c5{clip-path:url(#ca8c583b-fee2-4729-b1d9-64d4a66b88c4);}.e00f04f8-5839-4110-92d3-8c1bad6e85e0{fill:#a00;}.\33 03badf5-3d4c-4992-90c8-a213cd387eb9{clip-path:url(#796c7e66-eda5-4f91-bdb9-494a9d2cf599);}.a9d76c22-8c1e-46dc-84c4-f1cba2992b32{clip-path:url(#5be858aa-8237-401e-b6e9-9b11058473b8);}.bde2c1b8-3d6f-43fd-bc94-69c6cccc5e6f{clip-path:url(#b689754c-0e8e-4d0b-b4fd-e3c7079b4517);}.c37d7af9-823f-41b8-8411-e62cb3e08d9a{clip-path:url(#6a92f37b-8fd4-4dd7-a459-1641f846eb0f);}.fead5b36-dcd7-4b5e-bfe8-a11c585fa0cf{clip-path:url(#ab3c49ee-b1be-4c82-ac23-2f0cbafe3ead);}.\37 0d74294-065d-4c62-a375-e4fee86e7bf3{clip-path:url(#c6a8b101-5310-4be1-8bcf-0fdd95f44bb8);}.a235a53b-06da-4903-a485-e70c71a09203{clip-path:url(#5b88fad6-0d71-4263-8e2a-8530f6b19348);}.\31 5623e7e-67b7-427b-a600-f5c1200830af{clip-path:url(#8760406d-8b92-4794-bae1-df990a4f9b51);}.\38 a1effdc-028b-4b13-831c-c9b6cdd4e552{clip-path:url(#712e3c79-b75e-4c26-a7d9-68025869534e);}.e9520446-2875-4b8e-8dc9-51d06ab6f67b{clip-path:url(#05566048-75d1-4133-b0f8-8d619fe30a56);}.f5f35756-e676-45f3-a6b1-710e26a74709{clip-path:url(#d8009095-c56f-42d7-b39a-7df507a997d7);}.\37 0f376e5-f1e4-432e-8040-4e7aea520bbd{clip-path:url(#3e343e45-128c-4399-8448-cfc09f03c7c5);}.debec306-73fb-468c-b829-fac15ab4f6ec{clip-path:url(#019ed167-f664-4756-8f71-eabb4dc93336);}.\30 f78bfc7-6b6e-493e-8e7e-c41c9701bef7{clip-path:url(#41ceca5d-eb47-411e-b8cc-1a020cdaa796);}.\31 c7c3205-72e4-4995-8080-b7552d424cca{clip-path:url(#bebeb490-eb31-4215-bd56-42f8c98e3de9);}.\30 1715a34-33a0-4002-9c04-8cac6b4ed5f8{clip-path:url(#9472ac9b-b656-4212-b654-e06c52062306);}.f421b413-8e72-4150-bc11-78b9f6b62602{clip-path:url(#4f315f35-ed28-4e42-8ecd-ea4f54077ca2);}.\31 9296bdc-5e2d-4470-9556-546945db54d9{clip-path:url(#99b69694-b4f2-4a55-8f1f-fda98407f66d);}.\36 680110a-bdb7-4d89-9016-3d110a1f0bae{clip-path:url(#7462c845-d774-463c-a622-40271c0194c1);}.\33 3c377f2-36fc-48ba-aa87-fa0f3075cf9a{clip-path:url(#5ffd46bb-5e80-4a87-a258-00d1a231d57e);}.\34 28628f1-10d6-42fd-b1e8-b8b94302e14a{clip-path:url(#0dcb859d-ff6d-446b-8c68-6e1d96f05b25);}.\30 d9fa3d8-6308-491a-adee-b3766c6ab5ac{clip-path:url(#450ed192-b9ed-4fdb-8076-39f10a86bb6a);}.\39 bcec17b-80df-4570-ab94-f1ee43d8ecac{clip-path:url(#f8dc5ea5-525f-42a2-a6b6-10a8e6487a96);}.e75c2e33-f80e-4cde-8be2-b9e681815282{clip-path:url(#b6d216fb-dbce-4dd8-9bda-00b98083df47);}.c4293b9e-5a3e-4e27-b7ab-1234175d9fc5{clip-path:url(#6a1bb7e0-4157-478d-a3e5-c05a01d3dafb);}</style><clipPath id="ca8c583b-fee2-4729-b1d9-64d4a66b88c4"><rect class="41a241b7-3f75-4bb7-8a88-8f6026c2d9ed" width="29.91235" height="29.91235"/></clipPath><clipPath id="796c7e66-eda5-4f91-bdb9-494a9d2cf599"><rect class="41a241b7-3f75-4bb7-8a88-8f6026c2d9ed" x="70.08765" y="126.08765" width="29.91235" height="29.91235"/></clipPath><clipPath id="5be858aa-8237-401e-b6e9-9b11058473b8"><rect class="41a241b7-3f75-4bb7-8a88-8f6026c2d9ed" x="8.12987" y="30.01379" width="13.65262" height="15.42164"/></clipPath><clipPath id="b689754c-0e8e-4d0b-b4fd-e3c7079b4517"><rect class="41a241b7-3f75-4bb7-8a88-8f6026c2d9ed" x="6.66672" y="29.43517" width="16.57893" height="16.57893"/></clipPath><clipPath id="6a92f37b-8fd4-4dd7-a459-1641f846eb0f"><rect class="41a241b7-3f75-4bb7-8a88-8f6026c2d9ed" x="78.21752" y="110.56457" width="13.65262" height="15.42164"/></clipPath><clipPath id="ab3c49ee-b1be-4c82-ac23-2f0cbafe3ead"><rect class="41a241b7-3f75-4bb7-8a88-8f6026c2d9ed" x="76.75435" y="109.98591" width="16.57893" height="16.57893"/></clipPath><clipPath id="c6a8b101-5310-4be1-8bcf-0fdd95f44bb8"><rect class="41a241b7-3f75-4bb7-8a88-8f6026c2d9ed" x="26.86764" y="15.07159" width="15.53323" height="17.54593"/></clipPath><clipPath id="5b88fad6-0d71-4263-8e2a-8530f6b19348"><rect class="41a241b7-3f75-4bb7-8a88-8f6026c2d9ed" x="25.20296" y="14.41326" width="18.86263" height="18.86263"/></clipPath><clipPath id="8760406d-8b92-4794-bae1-df990a4f9b51"><rect class="41a241b7-3f75-4bb7-8a88-8f6026c2d9ed" x="26.86764" y="49.6357" width="15.53323" height="17.54593"/></clipPath><clipPath id="712e3c79-b75e-4c26-a7d9-68025869534e"><rect class="41a241b7-3f75-4bb7-8a88-8f6026c2d9ed" x="25.20296" y="48.97737" width="18.86263" height="18.86263"/></clipPath><clipPath id="05566048-75d1-4133-b0f8-8d619fe30a56"><rect class="41a241b7-3f75-4bb7-8a88-8f6026c2d9ed" x="57.59913" y="118.76391" width="15.53323" height="17.54593"/></clipPath><clipPath id="d8009095-c56f-42d7-b39a-7df507a997d7"><rect class="41a241b7-3f75-4bb7-8a88-8f6026c2d9ed" x="55.93441" y="118.10554" width="18.86263" height="18.86263"/></clipPath><clipPath id="3e343e45-128c-4399-8448-cfc09f03c7c5"><rect class="41a241b7-3f75-4bb7-8a88-8f6026c2d9ed" x="57.59913" y="84.1998" width="15.53323" height="17.54593"/></clipPath><clipPath id="019ed167-f664-4756-8f71-eabb4dc93336"><rect class="41a241b7-3f75-4bb7-8a88-8f6026c2d9ed" x="55.93441" y="83.54143" width="18.86263" height="18.86263"/></clipPath><clipPath id="41ceca5d-eb47-411e-b8cc-1a020cdaa796"><rect class="41a241b7-3f75-4bb7-8a88-8f6026c2d9ed" x="57.59913" y="15.07159" width="15.53323" height="17.54593"/></clipPath><clipPath id="bebeb490-eb31-4215-bd56-42f8c98e3de9"><rect class="41a241b7-3f75-4bb7-8a88-8f6026c2d9ed" x="55.93444" y="14.41326" width="18.86263" height="18.86263"/></clipPath><clipPath id="9472ac9b-b656-4212-b654-e06c52062306"><rect class="41a241b7-3f75-4bb7-8a88-8f6026c2d9ed" x="42.23339" y="32.84835" width="15.53323" height="17.54593"/></clipPath><clipPath id="4f315f35-ed28-4e42-8ecd-ea4f54077ca2"><rect class="41a241b7-3f75-4bb7-8a88-8f6026c2d9ed" x="40.5687" y="32.19002" width="18.86263" height="18.86263"/></clipPath><clipPath id="99b69694-b4f2-4a55-8f1f-fda98407f66d"><rect class="41a241b7-3f75-4bb7-8a88-8f6026c2d9ed" x="57.59913" y="49.6357" width="15.53323" height="17.54593"/></clipPath><clipPath id="7462c845-d774-463c-a622-40271c0194c1"><rect class="41a241b7-3f75-4bb7-8a88-8f6026c2d9ed" x="55.93444" y="48.97737" width="18.86263" height="18.86263"/></clipPath><clipPath id="5ffd46bb-5e80-4a87-a258-00d1a231d57e"><rect class="41a241b7-3f75-4bb7-8a88-8f6026c2d9ed" x="26.86764" y="118.76391" width="15.53323" height="17.54593"/></clipPath><clipPath id="0dcb859d-ff6d-446b-8c68-6e1d96f05b25"><rect class="41a241b7-3f75-4bb7-8a88-8f6026c2d9ed" x="25.20293" y="118.10554" width="18.86263" height="18.86263"/></clipPath><clipPath id="450ed192-b9ed-4fdb-8076-39f10a86bb6a"><rect class="41a241b7-3f75-4bb7-8a88-8f6026c2d9ed" x="42.23339" y="100.98715" width="15.53323" height="17.54593"/></clipPath><clipPath id="f8dc5ea5-525f-42a2-a6b6-10a8e6487a96"><rect class="41a241b7-3f75-4bb7-8a88-8f6026c2d9ed" x="40.56867" y="100.32878" width="18.86263" height="18.86263"/></clipPath><clipPath id="b6d216fb-dbce-4dd8-9bda-00b98083df47"><rect class="41a241b7-3f75-4bb7-8a88-8f6026c2d9ed" x="26.86764" y="84.1998" width="15.53323" height="17.54593"/></clipPath><clipPath id="6a1bb7e0-4157-478d-a3e5-c05a01d3dafb"><rect class="41a241b7-3f75-4bb7-8a88-8f6026c2d9ed" x="25.20293" y="83.54143" width="18.86263" height="18.86263"/></clipPath></defs><title>10</title><rect class="24a73183-28b8-4301-ba37-c322f13fd3a7" x="0.5" y="0.5" width="99" height="155" rx="5.5" ry="5.5"/><path class="804540f6-68e0-4335-983f-cce6461f5303" d="M94,1a5.00567,5.00567,0,0,1,5,5V150a5.00567,5.00567,0,0,1-5,5H6a5.00567,5.00567,0,0,1-5-5V6A5.00567,5.00567,0,0,1,6,1H94m0-1H6A6,6,0,0,0,0,6V150a6,6,0,0,0,6,6H94a6,6,0,0,0,6-6V6a6,6,0,0,0-6-6Z"/><g class="57da8c93-6111-4a0d-81fc-f7bf6cdd65c5"><g class="57da8c93-6111-4a0d-81fc-f7bf6cdd65c5"><path class="e00f04f8-5839-4110-92d3-8c1bad6e85e0" d="M4.25,9.77734a2.43964,2.43964,0,0,0-.84131-.89746V8.68359q1.59814-.64453,3.2666-1.416,1.66846-.77124,3.127-1.50049l.19629.14014q-.11206,1.85083-.16846,3.65967-.0564,1.80908-.05566,3.65967v4.68311q0,1.85083.05566,3.63184.0564,1.78052.16846,3.49121a3.98406,3.98406,0,0,0-.65918-.05615H8.02148a3.98406,3.98406,0,0,0-.65918.05615q.14063-1.73877.18262-3.50537.04175-1.7666.042-3.61768V7.92676Z"/><path class="e00f04f8-5839-4110-92d3-8c1bad6e85e0" d="M13.11133,15.77832a19.86847,19.86847,0,0,1,.33643-3.74365A9.46639,9.46639,0,0,1,14.55566,8.978a5.92578,5.92578,0,0,1,2.0332-2.0752,5.81213,5.81213,0,0,1,3.08447-.771,6.30148,6.30148,0,0,1,3.29492.771A5.55686,5.55686,0,0,1,24.97363,8.978a8.99427,8.99427,0,0,1,.99512,3.05664,24.92032,24.92032,0,0,1,.2666,3.74365,16.64294,16.64294,0,0,1-.39258,3.67383,10.187,10.187,0,0,1-1.19189,3.05664,6.086,6.086,0,0,1-2.0332,2.0752,5.51986,5.51986,0,0,1-2.94434.75732,6.58757,6.58757,0,0,1-3.29492-.72949A5.23819,5.23819,0,0,1,14.373,22.5791a8.96952,8.96952,0,0,1-.99512-3.05664A24.85354,24.85354,0,0,1,13.11133,15.77832Zm2.29932,0a26.50886,26.50886,0,0,0,.21045,3.44922,10.52738,10.52738,0,0,0,.71533,2.77637A4.79764,4.79764,0,0,0,17.6543,23.855a3.05979,3.05979,0,0,0,2.019.67285,3.06161,3.06161,0,0,0,2.019-.67285,4.80271,4.80271,0,0,0,1.31787-1.85107,10.52738,10.52738,0,0,0,.71533-2.77637,26.50886,26.50886,0,0,0,.21045-3.44922,26.51429,26.51429,0,0,0-.21045-3.44922,10.52857,10.52857,0,0,0-.71533-2.77588,4.799,4.799,0,0,0-1.31787-1.85107,3.06161,3.06161,0,0,0-2.019-.67285,3.24391,3.24391,0,0,0-2.019.6167,4.35183,4.35183,0,0,0-1.31787,1.7666,10.14822,10.14822,0,0,0-.71533,2.76221A28.05816,28.05816,0,0,0,15.41064,15.77832Z"/></g></g><g class="303badf5-3d4c-4992-90c8-a213cd387eb9"><g class="303badf5-3d4c-4992-90c8-a213cd387eb9"><path class="e00f04f8-5839-4110-92d3-8c1bad6e85e0" d="M95.751,146.22266a2.42923,2.42923,0,0,0,.8418.89746v.19629q-1.59814.64453-3.26758,1.416-1.667.77051-3.127,1.5l-.19629-.13965q.11279-1.85156.16895-3.66016.05566-1.80762.05566-3.65918v-4.68359q0-1.8501-.05566-3.63086-.05566-1.78125-.16895-3.49121a4.04044,4.04044,0,0,0,.65918.05566h1.31836a4.04044,4.04044,0,0,0,.65918-.05566q-.14062,1.7373-.18262,3.50488-.04248,1.7666-.042,3.61719v9.9834Z"/><path class="e00f04f8-5839-4110-92d3-8c1bad6e85e0" d="M86.88965,140.22168a19.81431,19.81431,0,0,1-.33691,3.74316,9.47621,9.47621,0,0,1-1.10742,3.05664,5.92192,5.92192,0,0,1-2.0332,2.0752,5.80627,5.80627,0,0,1-3.085.77148,6.29326,6.29326,0,0,1-3.29492-.77148,5.54129,5.54129,0,0,1-2.00488-2.0752,8.97347,8.97347,0,0,1-.99609-3.05664,25.03317,25.03317,0,0,1-.2666-3.74316,16.64226,16.64226,0,0,1,.39355-3.67383,10.16594,10.16594,0,0,1,1.19141-3.05664,6.0948,6.0948,0,0,1,2.0332-2.0752,5.51968,5.51968,0,0,1,2.94434-.75684,6.59956,6.59956,0,0,1,3.29492.72852,5.2382,5.2382,0,0,1,2.00488,2.0332,8.98056,8.98056,0,0,1,.99609,3.05664A24.90812,24.90812,0,0,1,86.88965,140.22168Zm-2.2998,0a26.4144,26.4144,0,0,0-.21094-3.44922,10.5141,10.5141,0,0,0-.71484-2.77637,4.7912,4.7912,0,0,0-1.31738-1.85059,3.36328,3.36328,0,0,0-4.03906,0,4.7912,4.7912,0,0,0-1.31738,1.85059,10.5141,10.5141,0,0,0-.71484,2.77637,28.306,28.306,0,0,0,0,6.89844,10.5141,10.5141,0,0,0,.71484,2.77637,4.7912,4.7912,0,0,0,1.31738,1.85059,3.06646,3.06646,0,0,0,2.01953.67285,3.24659,3.24659,0,0,0,2.01953-.61719,4.34437,4.34437,0,0,0,1.31738-1.7666,10.12746,10.12746,0,0,0,.71484-2.76172A27.95929,27.95929,0,0,0,84.58984,140.22168Z"/></g></g><g class="a9d76c22-8c1e-46dc-84c4-f1cba2992b32"><g class="bde2c1b8-3d6f-43fd-bc94-69c6cccc5e6f"><path class="e00f04f8-5839-4110-92d3-8c1bad6e85e0" d="M14.78954,45.33233,8.255,37.98061a.396.396,0,0,1,0-.512L14.78954,30.117a.21812.21812,0,0,1,.33326,0l6.53456,7.35165a.39612.39612,0,0,1,0,.512L15.1228,45.33233a.2182.2182,0,0,1-.33326,0"/></g></g><g class="c37d7af9-823f-41b8-8411-e62cb3e08d9a"><g class="fead5b36-dcd7-4b5e-bfe8-a11c585fa0cf"><path class="e00f04f8-5839-4110-92d3-8c1bad6e85e0" d="M85.21046,110.66767l6.53449,7.35172a.396.396,0,0,1,0,.512L85.21046,125.883a.21812.21812,0,0,1-.33326,0l-6.53456-7.35165a.39612.39612,0,0,1,0-.512l6.53456-7.35172a.2182.2182,0,0,1,.33326,0"/></g></g><g class="70d74294-065d-4c62-a375-e4fee86e7bf3"><g class="a235a53b-06da-4903-a485-e70c71a09203"><path class="e00f04f8-5839-4110-92d3-8c1bad6e85e0" d="M34.44467,32.50022l-7.4346-8.3644a.4505.4505,0,0,1,0-.58253l7.4346-8.36432a.24816.24816,0,0,1,.37917,0l7.43468,8.36432a.45068.45068,0,0,1,0,.58253l-7.43468,8.3644a.24826.24826,0,0,1-.37917,0"/></g></g><g class="15623e7e-67b7-427b-a600-f5c1200830af"><g class="8a1effdc-028b-4b13-831c-c9b6cdd4e552"><path class="e00f04f8-5839-4110-92d3-8c1bad6e85e0" d="M34.44467,67.06432l-7.4346-8.3644a.4505.4505,0,0,1,0-.58253l7.4346-8.36432a.24816.24816,0,0,1,.37917,0l7.43468,8.36432a.45068.45068,0,0,1,0,.58253l-7.43468,8.3644a.24826.24826,0,0,1-.37917,0"/></g></g><g class="e9520446-2875-4b8e-8dc9-51d06ab6f67b"><g class="f5f35756-e676-45f3-a6b1-710e26a74709"><path class="e00f04f8-5839-4110-92d3-8c1bad6e85e0" d="M65.55533,118.88121l7.4346,8.3644a.4505.4505,0,0,1,0,.58253l-7.4346,8.36432a.24816.24816,0,0,1-.37917,0l-7.43468-8.36432a.45068.45068,0,0,1,0-.58253l7.43468-8.3644a.24826.24826,0,0,1,.37917,0"/></g></g><g class="70f376e5-f1e4-432e-8040-4e7aea520bbd"><g class="debec306-73fb-468c-b829-fac15ab4f6ec"><path class="e00f04f8-5839-4110-92d3-8c1bad6e85e0" d="M65.55533,84.3171l7.4346,8.3644a.4505.4505,0,0,1,0,.58253l-7.4346,8.36432a.24816.24816,0,0,1-.37917,0L57.74148,93.264a.45068.45068,0,0,1,0-.58253l7.43468-8.3644a.24826.24826,0,0,1,.37917,0"/></g></g><g class="0f78bfc7-6b6e-493e-8e7e-c41c9701bef7"><g class="1c7c3205-72e4-4995-8080-b7552d424cca"><path class="e00f04f8-5839-4110-92d3-8c1bad6e85e0" d="M65.17616,32.50022l-7.4346-8.3644a.4505.4505,0,0,1,0-.58253l7.4346-8.36432a.24816.24816,0,0,1,.37917,0L72.99,23.55329a.45068.45068,0,0,1,0,.58253l-7.43468,8.3644a.24826.24826,0,0,1-.37917,0"/></g></g><g class="01715a34-33a0-4002-9c04-8cac6b4ed5f8"><g class="f421b413-8e72-4150-bc11-78b9f6b62602"><path class="e00f04f8-5839-4110-92d3-8c1bad6e85e0" d="M49.81042,50.277l-7.4346-8.3644a.4505.4505,0,0,1,0-.58253l7.4346-8.36432a.24816.24816,0,0,1,.37917,0L57.62426,41.33a.45068.45068,0,0,1,0,.58253L50.18958,50.277a.24826.24826,0,0,1-.37917,0"/></g></g><g class="19296bdc-5e2d-4470-9556-546945db54d9"><g class="6680110a-bdb7-4d89-9016-3d110a1f0bae"><path class="e00f04f8-5839-4110-92d3-8c1bad6e85e0" d="M65.17616,67.06432l-7.4346-8.3644a.4505.4505,0,0,1,0-.58253l7.4346-8.36432a.24816.24816,0,0,1,.37917,0L72.99,58.1174a.45068.45068,0,0,1,0,.58253l-7.43468,8.3644a.24826.24826,0,0,1-.37917,0"/></g></g><g class="33c377f2-36fc-48ba-aa87-fa0f3075cf9a"><g class="428628f1-10d6-42fd-b1e8-b8b94302e14a"><path class="e00f04f8-5839-4110-92d3-8c1bad6e85e0" d="M34.82384,118.88121l7.4346,8.3644a.4505.4505,0,0,1,0,.58253l-7.4346,8.36432a.24816.24816,0,0,1-.37917,0L27.01,127.82814a.45068.45068,0,0,1,0-.58253l7.43468-8.3644a.24826.24826,0,0,1,.37917,0"/></g></g><g class="0d9fa3d8-6308-491a-adee-b3766c6ab5ac"><g class="9bcec17b-80df-4570-ab94-f1ee43d8ecac"><path class="e00f04f8-5839-4110-92d3-8c1bad6e85e0" d="M50.18958,101.10445l7.4346,8.3644a.4505.4505,0,0,1,0,.58253l-7.4346,8.36432a.24816.24816,0,0,1-.37917,0l-7.43468-8.36432a.45068.45068,0,0,1,0-.58253l7.43468-8.3644a.24826.24826,0,0,1,.37917,0"/></g></g><g class="e75c2e33-f80e-4cde-8be2-b9e681815282"><g class="c4293b9e-5a3e-4e27-b7ab-1234175d9fc5"><path class="e00f04f8-5839-4110-92d3-8c1bad6e85e0" d="M34.82384,84.3171l7.4346,8.3644a.4505.4505,0,0,1,0,.58253l-7.4346,8.36432a.24816.24816,0,0,1-.37917,0L27.01,93.264a.45068.45068,0,0,1,0-.58253l7.43468-8.3644a.24826.24826,0,0,1,.37917,0"/></g></g></svg>