<svg id="17fe2a4f-afc2-4425-9ef9-304e92ef0b86" data-name="レイヤー 1" xmlns="http://www.w3.org/2000/svg" xmlns:xlink="http://www.w3.org/1999/xlink" viewBox="0 0 100 156"><defs><style>.\30 478d2d3-e83b-4b49-a9af-7f415be90558{fill:none;}.be72b879-f9f4-4c3e-a7af-8beadc3e0412{fill:#fff;}.e9577bc9-75dd-4ce6-be26-cc73dc40fa0c{fill:#7f7f7f;}.\32 8f08ffe-e1d0-4d93-bd83-5f36b3337844{clip-path:url(#2c49ba38-8d7c-4d97-9a93-7de2e53472fe);}.\32 046da76-e936-4f5d-8889-fe6696c6a03b{fill:#a00;}.\38 3fcb057-6a38-4bb6-9ff8-6deb5b16f260{clip-path:url(#53cd6b1a-c5ed-4207-a90b-0434485df20d);}.efab70f1-3dd1-47c1-85d5-a3a2c6ab2847{clip-path:url(#7c59e492-4d63-47bf-b282-771b254fc9e0);}.\30 96c3349-4b18-485f-bd50-f6324ffb77a2{clip-path:url(#753fe98c-c97b-4ed0-b4d8-cc73c594ae02);}.ea57d051-68ed-49d3-9b6d-45df1f3ff568{clip-path:url(#748e140c-4f65-4890-bd92-7818539247e1);}.\35 cf74546-ffb6-4de0-8796-fd49b0f87137{clip-path:url(#eb8e2b7c-2cf1-4516-8ab2-1d8bd6ba80f5);}.\32 a9788fd-4b14-4ec4-8f08-fcec5f52d9f2{clip-path:url(#68d8e631-c35f-4be4-858a-e42cc1274225);}.\31 9644c3b-98cf-4124-b009-0ec5a5a2ee7a{clip-path:url(#7e3d57c5-5d22-4c72-ad75-d14765d9fa94);}.c6f9fc7e-53e8-4190-a1f8-8e60eabb9d25{clip-path:url(#aa1d4bea-1b6e-4c6a-a0c8-feacba5e8aac);}.\38 75dc86b-808a-44c2-907b-0d363193f5b0{clip-path:url(#c6aea705-91d3-427d-98f0-d5fb61bc8288);}.\32 c435f06-522a-4ddd-b10e-e62c40424e14{clip-path:url(#269afb1e-d490-4d21-823c-08586938d5f3);}.\38 b7b3b97-35b8-4a38-ae99-b84c610d508c{clip-path:url(#e5a5f977-83f2-45af-ba4f-f5b6d8b6f4cd);}</style><clipPath id="2c49ba38-8d7c-4d97-9a93-7de2e53472fe"><rect class="0478d2d3-e83b-4b49-a9af-7f415be90558" width="29.91235" height="29.91235"/></clipPath><clipPath id="53cd6b1a-c5ed-4207-a90b-0434485df20d"><rect class="0478d2d3-e83b-4b49-a9af-7f415be90558" x="70.08765" y="126.08765" width="29.91235" height="29.91235"/></clipPath><clipPath id="7c59e492-4d63-47bf-b282-771b254fc9e0"><rect class="0478d2d3-e83b-4b49-a9af-7f415be90558" x="8.12987" y="30.01379" width="13.65262" height="15.42164"/></clipPath><clipPath id="753fe98c-c97b-4ed0-b4d8-cc73c594ae02"><rect class="0478d2d3-e83b-4b49-a9af-7f415be90558" x="6.66672" y="29.43517" width="16.57893" height="16.57893"/></clipPath><clipPath id="748e140c-4f65-4890-bd92-7818539247e1"><rect class="0478d2d3-e83b-4b49-a9af-7f415be90558" x="78.21752" y="110.56457" width="13.65262" height="15.42164"/></clipPath><clipPath id="eb8e2b7c-2cf1-4516-8ab2-1d8bd6ba80f5"><rect class="0478d2d3-e83b-4b49-a9af-7f415be90558" x="76.75435" y="109.98591" width="16.57893" height="16.57893"/></clipPath><clipPath id="68d8e631-c35f-4be4-858a-e42cc1274225"><rect class="0478d2d3-e83b-4b49-a9af-7f415be90558" x="42.23339" y="15.07159" width="15.53323" height="17.54593"/></clipPath><clipPath id="7e3d57c5-5d22-4c72-ad75-d14765d9fa94"><rect class="0478d2d3-e83b-4b49-a9af-7f415be90558" x="40.5687" y="14.41326" width="18.86263" height="18.86263"/></clipPath><clipPath id="aa1d4bea-1b6e-4c6a-a0c8-feacba5e8aac"><rect class="0478d2d3-e83b-4b49-a9af-7f415be90558" x="42.23339" y="66.91775" width="15.53323" height="17.54593"/></clipPath><clipPath id="c6aea705-91d3-427d-98f0-d5fb61bc8288"><rect class="0478d2d3-e83b-4b49-a9af-7f415be90558" x="40.5687" y="66.25942" width="18.86263" height="18.86263"/></clipPath><clipPath id="269afb1e-d490-4d21-823c-08586938d5f3"><rect class="0478d2d3-e83b-4b49-a9af-7f415be90558" x="42.23339" y="118.76391" width="15.53323" height="17.54593"/></clipPath><clipPath id="e5a5f977-83f2-45af-ba4f-f5b6d8b6f4cd"><rect class="0478d2d3-e83b-4b49-a9af-7f415be90558" x="40.56867" y="118.10554" width="18.86263" height="18.86263"/></clipPath></defs><title>3</title><rect class="be72b879-f9f4-4c3e-a7af-8beadc3e0412" x="0.5" y="0.5" width="99" height="155" rx="5.5" ry="5.5"/><path class="e9577bc9-75dd-4ce6-be26-cc73dc40fa0c" d="M94,1a5.00567,5.00567,0,0,1,5,5V150a5.00567,5.00567,0,0,1-5,5H6a5.00567,5.00567,0,0,1-5-5V6A5.00567,5.00567,0,0,1,6,1H94m0-1H6A6,6,0,0,0,0,6V150a6,6,0,0,0,6,6H94a6,6,0,0,0,6-6V6a6,6,0,0,0-6-6Z"/><g class="28f08ffe-e1d0-4d93-bd83-5f36b3337844"><g class="28f08ffe-e1d0-4d93-bd83-5f36b3337844"><path class="2046da76-e936-4f5d-8889-fe6696c6a03b" d="M10.93262,6.69287a5.12229,5.12229,0,0,1,2.5376-.561,8.29808,8.29808,0,0,1,2.0752.25244,5.28808,5.28808,0,0,1,1.71045.75684,3.63805,3.63805,0,0,1,1.1499,1.29,3.93093,3.93093,0,0,1,.4209,1.87891,4.31888,4.31888,0,0,1-.36475,1.80908,4.95915,4.95915,0,0,1-.91162,1.374,4.87874,4.87874,0,0,1-1.21973.93945,6.09859,6.09859,0,0,1-1.29.53271v.168a8.99016,8.99016,0,0,1,1.54248.2666,4.65293,4.65293,0,0,1,1.51416.70117,3.9413,3.9413,0,0,1,1.16406,1.30371,4.15826,4.15826,0,0,1,.4624,2.0752,5.39846,5.39846,0,0,1-.51855,2.36963,5.5282,5.5282,0,0,1-1.4585,1.86523,6.6079,6.6079,0,0,1-2.25732,1.20557,9.5617,9.5617,0,0,1-2.9165.4209,9.82835,9.82835,0,0,1-2.46777-.2666,9.88587,9.88587,0,0,1-1.7666-.63086,3.11059,3.11059,0,0,0,.21045-.74316,7.91254,7.91254,0,0,0,.126-.93945l.16846-.1123q.252.28052.6167.61719a4.66651,4.66651,0,0,0,.85547.6167,5.47367,5.47367,0,0,0,1.06543.46289,4.10778,4.10778,0,0,0,1.248.18213,4.99676,4.99676,0,0,0,1.89307-.33643,4.03061,4.03061,0,0,0,1.416-.95361,4.10875,4.10875,0,0,0,.89746-1.48633,5.66491,5.66491,0,0,0,.30859-1.90674,5.66818,5.66818,0,0,0-.29443-1.94922,3.32019,3.32019,0,0,0-.81348-1.28955,3.12772,3.12772,0,0,0-1.248-.71533,5.42126,5.42126,0,0,0-1.59814-.22412,4.15322,4.15322,0,0,0-.65918.05615q-.35083.0564-.603.11182a2.92311,2.92311,0,0,0,.04248-.29443c.00879-.10254.01367-.20068.01367-.29443,0-.09326-.00488-.19141-.01367-.29443a2.96429,2.96429,0,0,0-.04248-.29443,6.43153,6.43153,0,0,0,1.26221.1123,2.85064,2.85064,0,0,0,1.59814-.40674,2.93354,2.93354,0,0,0,.96777-1.0376,4.28579,4.28579,0,0,0,.47656-1.38818,8.88777,8.88777,0,0,0,.12646-1.458,4.14941,4.14941,0,0,0-.2666-1.55664,3.2093,3.2093,0,0,0-.687-1.07959,2.62,2.62,0,0,0-.95361-.6167,3.14109,3.14109,0,0,0-1.09375-.19629,3.0345,3.0345,0,0,0-2.00488.687,3.58448,3.58448,0,0,0-1.13574,1.55615l-.19629.05615L9.376,7.81445A7.208,7.208,0,0,1,10.93262,6.69287Z"/></g></g><g class="83fcb057-6a38-4bb6-9ff8-6deb5b16f260"><g class="83fcb057-6a38-4bb6-9ff8-6deb5b16f260"><path class="2046da76-e936-4f5d-8889-fe6696c6a03b" d="M89.06836,149.30762a5.13761,5.13761,0,0,1-2.53809.56055,8.31526,8.31526,0,0,1-2.0752-.252,5.30254,5.30254,0,0,1-1.71094-.75781,3.63358,3.63358,0,0,1-1.14941-1.29,3.92822,3.92822,0,0,1-.4209-1.87891,4.3107,4.3107,0,0,1,.36523-1.80859,4.94715,4.94715,0,0,1,.91113-1.374,4.89289,4.89289,0,0,1,1.21973-.93945,6.03424,6.03424,0,0,1,1.29-.53223v-.16895a8.85518,8.85518,0,0,1-1.543-.2666,4.6629,4.6629,0,0,1-1.51367-.7002,3.95986,3.95986,0,0,1-1.16406-1.30469,4.1556,4.1556,0,0,1-.46289-2.0752,5.40147,5.40147,0,0,1,.51953-2.36914,5.53152,5.53152,0,0,1,1.458-1.86523,6.62308,6.62308,0,0,1,2.25684-1.20605,9.56774,9.56774,0,0,1,2.917-.41992,9.24632,9.24632,0,0,1,4.23438.89746,3.108,3.108,0,0,0-.21.74316,8.11047,8.11047,0,0,0-.127.93945l-.168.11133q-.252-.27979-.61719-.61621a4.57982,4.57982,0,0,0-.85547-.61719,5.37755,5.37755,0,0,0-1.06543-.46289,4.08812,4.08812,0,0,0-1.248-.18262,4.98637,4.98637,0,0,0-1.89258.33691,4.04042,4.04042,0,0,0-1.416.95313A4.12118,4.12118,0,0,0,83.165,134.248a6.30953,6.30953,0,0,0-.01367,3.85645,3.32425,3.32425,0,0,0,.8125,1.29,3.15431,3.15431,0,0,0,1.248.71484,5.42434,5.42434,0,0,0,1.59863.22461,4.2146,4.2146,0,0,0,.65918-.05664c.23438-.03711.43457-.07422.60254-.1123a2.93578,2.93578,0,0,0-.042.29492c-.00879.10254-.01367.2002-.01367.29395s.00488.19141.01367.29492a2.95637,2.95637,0,0,0,.042.29395,6.49918,6.49918,0,0,0-1.26172-.11133,2.85454,2.85454,0,0,0-1.59863.40625,2.9331,2.9331,0,0,0-.9668,1.03711,4.29392,4.29392,0,0,0-.47754,1.38867,8.8811,8.8811,0,0,0-.126,1.458,4.138,4.138,0,0,0,.2666,1.55664,3.19288,3.19288,0,0,0,.6875,1.0791,2.60289,2.60289,0,0,0,.95313.61719,3.14109,3.14109,0,0,0,1.09375.19629,3.03839,3.03839,0,0,0,2.00488-.68652,3.58744,3.58744,0,0,0,1.13574-1.55664l.19629-.05664.64453,1.51465A7.19924,7.19924,0,0,1,89.06836,149.30762Z"/></g></g><g class="efab70f1-3dd1-47c1-85d5-a3a2c6ab2847"><g class="096c3349-4b18-485f-bd50-f6324ffb77a2"><path class="2046da76-e936-4f5d-8889-fe6696c6a03b" d="M14.78954,45.33233,8.255,37.98061a.396.396,0,0,1,0-.512L14.78954,30.117a.21812.21812,0,0,1,.33326,0l6.53456,7.35165a.39612.39612,0,0,1,0,.512L15.1228,45.33233a.2182.2182,0,0,1-.33326,0"/></g></g><g class="ea57d051-68ed-49d3-9b6d-45df1f3ff568"><g class="5cf74546-ffb6-4de0-8796-fd49b0f87137"><path class="2046da76-e936-4f5d-8889-fe6696c6a03b" d="M85.21046,110.66767l6.53449,7.35172a.396.396,0,0,1,0,.512L85.21046,125.883a.21812.21812,0,0,1-.33326,0l-6.53456-7.35165a.39612.39612,0,0,1,0-.512l6.53456-7.35172a.2182.2182,0,0,1,.33326,0"/></g></g><g class="2a9788fd-4b14-4ec4-8f08-fcec5f52d9f2"><g class="19644c3b-98cf-4124-b009-0ec5a5a2ee7a"><path class="2046da76-e936-4f5d-8889-fe6696c6a03b" d="M49.81042,32.50022l-7.4346-8.3644a.4505.4505,0,0,1,0-.58253l7.4346-8.36432a.24816.24816,0,0,1,.37917,0l7.43468,8.36432a.45068.45068,0,0,1,0,.58253l-7.43468,8.3644a.24826.24826,0,0,1-.37917,0"/></g></g><g class="c6f9fc7e-53e8-4190-a1f8-8e60eabb9d25"><g class="875dc86b-808a-44c2-907b-0d363193f5b0"><path class="2046da76-e936-4f5d-8889-fe6696c6a03b" d="M49.81042,84.34638l-7.4346-8.3644a.4505.4505,0,0,1,0-.58253l7.4346-8.36432a.24816.24816,0,0,1,.37917,0l7.43468,8.36432a.45068.45068,0,0,1,0,.58253l-7.43468,8.3644a.24826.24826,0,0,1-.37917,0"/></g></g><g class="2c435f06-522a-4ddd-b10e-e62c40424e14"><g class="8b7b3b97-35b8-4a38-ae99-b84c610d508c"><path class="2046da76-e936-4f5d-8889-fe6696c6a03b" d="M50.18958,118.88121l7.4346,8.3644a.4505.4505,0,0,1,0,.58253l-7.4346,8.36432a.24816.24816,0,0,1-.37917,0l-7.43468-8.36432a.45068.45068,0,0,1,0-.58253l7.43468-8.3644a.24826.24826,0,0,1,.37917,0"/></g></g></svg>