<svg id="0b0dc02d-10c0-4b0f-b89f-f00fb49589ba" data-name="レイヤー 1" xmlns="http://www.w3.org/2000/svg" xmlns:xlink="http://www.w3.org/1999/xlink" viewBox="0 0 100 156"><defs><style>.de7f82ad-79a3-4273-8cdd-2f3ecfa3418a{fill:none;}.e864bce7-1707-4d17-b68e-5d50704371ae{fill:#fff;}.\35 d1041e7-5d9c-44c5-afc1-335927b6f425{fill:#7f7f7f;}.\30 f4f9b03-8219-4bc6-9e5b-c4e42eb11419{clip-path:url(#1927db86-0bac-4880-bcdd-d000b4d596b2);}.\34 a345fc6-98e2-4a37-ab4c-4441edf6b40c{fill:#a00;}.\38 4094d6c-e31b-448f-9144-b326516c4136{clip-path:url(#d423324c-57d7-45b4-8c56-989e568afda5);}.\37 dce6d86-2d41-4fc9-bfdb-65c3491c6895{clip-path:url(#b6256d33-de2e-4759-a486-a10f02fe1109);}.\31 8bf2a8f-13cb-41fb-a866-fd927290357c{clip-path:url(#b3690d7d-faa7-4908-ad7b-297f4866e4c9);}.\36 d651f55-09a3-4c2c-9703-bb468a3bba2c{clip-path:url(#b9b56983-938a-45b6-95d2-64cb5c2d4011);}.\31 06f6eaf-887c-4c05-8af9-ba99a13850eb{clip-path:url(#e62333e9-f8d5-4f80-a577-b58e58963f34);}.\35 bf6376b-ab8d-43f0-b3b6-8a03462e50f2{clip-path:url(#ba5f14c0-b8ff-499a-a8d8-855c020037a6);}.acd0dfc6-81f4-4406-9048-cb39a6592336{clip-path:url(#f2cc71fb-5489-4328-85df-1b0645364377);}.\37 9d32815-7684-4ba5-a5d1-c5833e7a8d3c{clip-path:url(#72b94c45-a94e-4128-bc5f-c652fc6fed5d);}.\31 460a956-5a24-4e48-97c6-2b59d0f4bb2c{clip-path:url(#7c7416c4-614f-40bb-a3bb-48df8b471e2c);}.\32 3b06742-82d8-4109-bc66-6b2273547dd0{clip-path:url(#f855e748-6e67-4ea9-b451-ee5d19b0f174);}.\31 3032332-6ba8-413c-b0b5-0a43a4714862{clip-path:url(#71fdc3db-3d14-4850-959b-7b8c0d1638b9);}.f65de953-5e35-4764-9052-fa106c50904f{clip-path:url(#feb63683-a0b6-4fa2-8ad4-8be10b359d0f);}.a7a54c2e-93c6-4d4f-9a76-6375df227b1c{clip-path:url(#4f83ed1b-8744-4d7b-af90-f0be8fa2e12f);}.\32 d187876-00fb-430d-9eb4-a5af24a38687{clip-path:url(#b4fcc07a-7a76-4c28-8ab7-d81da00851cc);}.\36 2d39517-3e61-4a0d-8769-eeed11d179d1{clip-path:url(#5f58a194-a5d8-4207-9196-ce4baffb3b41);}</style><clipPath id="1927db86-0bac-4880-bcdd-d000b4d596b2"><rect class="de7f82ad-79a3-4273-8cdd-2f3ecfa3418a" width="29.91235" height="29.91235"/></clipPath><clipPath id="d423324c-57d7-45b4-8c56-989e568afda5"><rect class="de7f82ad-79a3-4273-8cdd-2f3ecfa3418a" x="70.08765" y="126.08765" width="29.91235" height="29.91235"/></clipPath><clipPath id="b6256d33-de2e-4759-a486-a10f02fe1109"><rect class="de7f82ad-79a3-4273-8cdd-2f3ecfa3418a" x="8.12987" y="30.01379" width="13.65262" height="15.42164"/></clipPath><clipPath id="b3690d7d-faa7-4908-ad7b-297f4866e4c9"><rect class="de7f82ad-79a3-4273-8cdd-2f3ecfa3418a" x="6.66672" y="29.43517" width="16.57893" height="16.57893"/></clipPath><clipPath id="b9b56983-938a-45b6-95d2-64cb5c2d4011"><rect class="de7f82ad-79a3-4273-8cdd-2f3ecfa3418a" x="78.21752" y="110.56457" width="13.65262" height="15.42164"/></clipPath><clipPath id="e62333e9-f8d5-4f80-a577-b58e58963f34"><rect class="de7f82ad-79a3-4273-8cdd-2f3ecfa3418a" x="76.75435" y="109.98591" width="16.57893" height="16.57893"/></clipPath><clipPath id="ba5f14c0-b8ff-499a-a8d8-855c020037a6"><rect class="de7f82ad-79a3-4273-8cdd-2f3ecfa3418a" x="26.86764" y="15.07159" width="15.53323" height="17.54593"/></clipPath><clipPath id="f2cc71fb-5489-4328-85df-1b0645364377"><rect class="de7f82ad-79a3-4273-8cdd-2f3ecfa3418a" x="25.20296" y="14.41326" width="18.86263" height="18.86263"/></clipPath><clipPath id="72b94c45-a94e-4128-bc5f-c652fc6fed5d"><rect class="de7f82ad-79a3-4273-8cdd-2f3ecfa3418a" x="42.23339" y="66.91775" width="15.53323" height="17.54593"/></clipPath><clipPath id="7c7416c4-614f-40bb-a3bb-48df8b471e2c"><rect class="de7f82ad-79a3-4273-8cdd-2f3ecfa3418a" x="40.5687" y="66.25942" width="18.86263" height="18.86263"/></clipPath><clipPath id="f855e748-6e67-4ea9-b451-ee5d19b0f174"><rect class="de7f82ad-79a3-4273-8cdd-2f3ecfa3418a" x="57.59913" y="118.76391" width="15.53323" height="17.54593"/></clipPath><clipPath id="71fdc3db-3d14-4850-959b-7b8c0d1638b9"><rect class="de7f82ad-79a3-4273-8cdd-2f3ecfa3418a" x="55.93441" y="118.10554" width="18.86263" height="18.86263"/></clipPath><clipPath id="feb63683-a0b6-4fa2-8ad4-8be10b359d0f"><rect class="de7f82ad-79a3-4273-8cdd-2f3ecfa3418a" x="57.59913" y="15.07159" width="15.53323" height="17.54593"/></clipPath><clipPath id="4f83ed1b-8744-4d7b-af90-f0be8fa2e12f"><rect class="de7f82ad-79a3-4273-8cdd-2f3ecfa3418a" x="55.93444" y="14.41326" width="18.86263" height="18.86263"/></clipPath><clipPath id="b4fcc07a-7a76-4c28-8ab7-d81da00851cc"><rect class="de7f82ad-79a3-4273-8cdd-2f3ecfa3418a" x="26.86764" y="118.76391" width="15.53323" height="17.54593"/></clipPath><clipPath id="5f58a194-a5d8-4207-9196-ce4baffb3b41"><rect class="de7f82ad-79a3-4273-8cdd-2f3ecfa3418a" x="25.20293" y="118.10554" width="18.86263" height="18.86263"/></clipPath></defs><title>5</title><rect class="e864bce7-1707-4d17-b68e-5d50704371ae" x="0.5" y="0.5" width="99" height="155" rx="5.5" ry="5.5"/><path class="5d1041e7-5d9c-44c5-afc1-335927b6f425" d="M94,1a5.00567,5.00567,0,0,1,5,5V150a5.00567,5.00567,0,0,1-5,5H6a5.00567,5.00567,0,0,1-5-5V6A5.00567,5.00567,0,0,1,6,1H94m0-1H6A6,6,0,0,0,0,6V150a6,6,0,0,0,6,6H94a6,6,0,0,0,6-6V6a6,6,0,0,0-6-6Z"/><g class="0f4f9b03-8219-4bc6-9e5b-c4e42eb11419"><g class="0f4f9b03-8219-4bc6-9e5b-c4e42eb11419"><path class="4a345fc6-98e2-4a37-ab4c-4441edf6b40c" d="M12.811,13.96973a6.68768,6.68768,0,0,1,1.92139-.21045,5.66828,5.66828,0,0,1,2.229.4209,5.04634,5.04634,0,0,1,1.69678,1.14941,5.15357,5.15357,0,0,1,1.07959,1.68262,5.42145,5.42145,0,0,1,.37842,2.019,6.16706,6.16706,0,0,1-.50439,2.48193,5.93892,5.93892,0,0,1-1.43018,2.019,6.59789,6.59789,0,0,1-2.20166,1.332,8.079,8.079,0,0,1-2.84619.47705,13.62372,13.62372,0,0,1-2.42578-.21045,5.232,5.232,0,0,1-2.061-.82715V24.0791a6.81592,6.81592,0,0,0,.25244-.82715q.11133-.46289.168-.79932h.19629a3.026,3.026,0,0,0,.687.89746,4.19184,4.19184,0,0,0,.98193.65918,4.90869,4.90869,0,0,0,1.14941.39258,5.68485,5.68485,0,0,0,1.16406.126,4.29646,4.29646,0,0,0,1.6123-.30859,3.67005,3.67005,0,0,0,1.35986-.95312,4.92619,4.92619,0,0,0,.95361-1.62646,6.60441,6.60441,0,0,0,.36475-2.2998,5.43909,5.43909,0,0,0-.33643-2.019,3.92382,3.92382,0,0,0-.88379-1.374,3.287,3.287,0,0,0-1.24756-.771,4.508,4.508,0,0,0-1.4585-.23877,4.13939,4.13939,0,0,0-1.90674.37891q-.72949.37866-.98145.54688l-.30859-.19629a16.32044,16.32044,0,0,0,.23828-2.31348q.04248-1.22021.042-2.42578,0-1.17773-.042-2.42578a19.94075,19.94075,0,0,0-.18213-2.20166l.25244-.168q.47607.08423,1.57031.168,1.2334.08423,3.42139.08447,1.34546,0,2.3833-.01416,1.03711-.01392,1.54248-.042l.14014.1123a4.05339,4.05339,0,0,0-.1543.771,7.82492,7.82492,0,0,0-.042.79932,2.19161,2.19161,0,0,0,.02832.47656,15.70682,15.70682,0,0,0-1.64062-.18213q-1.02393-.06958-2.14551-.1123-1.12134-.04175-2.15918-.05615Q12.62866,8.1228,11.98389,8.123l-.39258,6.36572A6.838,6.838,0,0,1,12.811,13.96973Z"/></g></g><g class="84094d6c-e31b-448f-9144-b326516c4136"><g class="84094d6c-e31b-448f-9144-b326516c4136"><path class="4a345fc6-98e2-4a37-ab4c-4441edf6b40c" d="M87.18945,142.03027a6.67179,6.67179,0,0,1-1.9209.21,5.68107,5.68107,0,0,1-2.22949-.41992,5.05789,5.05789,0,0,1-1.69727-1.15039,5.14206,5.14206,0,0,1-1.0791-1.68262,5.40953,5.40953,0,0,1-.37891-2.01855,6.1831,6.1831,0,0,1,.50488-2.48242,5.94113,5.94113,0,0,1,1.43066-2.01855,6.59388,6.59388,0,0,1,2.20117-1.332,8.09294,8.09294,0,0,1,2.84668-.47656,13.57194,13.57194,0,0,1,2.4248.21,5.23556,5.23556,0,0,1,2.06152.82715v.22461a6.54326,6.54326,0,0,0-.252.82715c-.0752.30859-.13086.5752-.16895.79883h-.19629a3.0061,3.0061,0,0,0-.68652-.89648,4.15419,4.15419,0,0,0-.98145-.65918,4.90913,4.90913,0,0,0-1.15039-.39258,5.6788,5.6788,0,0,0-1.16309-.127,4.29777,4.29777,0,0,0-1.61328.30859,3.675,3.675,0,0,0-1.35937.9541,4.91947,4.91947,0,0,0-.9541,1.626,6.61628,6.61628,0,0,0-.36426,2.2998,5.42422,5.42422,0,0,0,.33691,2.01855,3.91074,3.91074,0,0,0,.88281,1.375,3.30725,3.30725,0,0,0,1.248.77051,4.49155,4.49155,0,0,0,1.458.23828,4.15,4.15,0,0,0,1.90723-.37793q.72949-.37939.98145-.54687l.30859.19629a16.298,16.298,0,0,0-.23828,2.31348q-.04248,1.21875-.042,2.42578,0,1.17773.042,2.42578a19.92164,19.92164,0,0,0,.18262,2.20117l-.25293.168q-.47607-.0835-1.57031-.168-1.2334-.085-3.4209-.084-1.34619,0-2.38379.01367-1.03711.01318-1.543.042l-.13965-.1123a4.01339,4.01339,0,0,0,.1543-.77148,7.67156,7.67156,0,0,0,.042-.79883,2.2228,2.2228,0,0,0-.02832-.47656,15.65514,15.65514,0,0,0,1.64063.18262q1.02393.06885,2.14551.11133,1.12207.04248,2.15918.05664,1.03711.01318,1.68262.01367l.39258-6.36523A6.90891,6.90891,0,0,1,87.18945,142.03027Z"/></g></g><g class="7dce6d86-2d41-4fc9-bfdb-65c3491c6895"><g class="18bf2a8f-13cb-41fb-a866-fd927290357c"><path class="4a345fc6-98e2-4a37-ab4c-4441edf6b40c" d="M14.78954,45.33233,8.255,37.98061a.396.396,0,0,1,0-.512L14.78954,30.117a.21812.21812,0,0,1,.33326,0l6.53456,7.35165a.39612.39612,0,0,1,0,.512L15.1228,45.33233a.2182.2182,0,0,1-.33326,0"/></g></g><g class="6d651f55-09a3-4c2c-9703-bb468a3bba2c"><g class="106f6eaf-887c-4c05-8af9-ba99a13850eb"><path class="4a345fc6-98e2-4a37-ab4c-4441edf6b40c" d="M85.21046,110.66767l6.53449,7.35172a.396.396,0,0,1,0,.512L85.21046,125.883a.21812.21812,0,0,1-.33326,0l-6.53456-7.35165a.39612.39612,0,0,1,0-.512l6.53456-7.35172a.2182.2182,0,0,1,.33326,0"/></g></g><g class="5bf6376b-ab8d-43f0-b3b6-8a03462e50f2"><g class="acd0dfc6-81f4-4406-9048-cb39a6592336"><path class="4a345fc6-98e2-4a37-ab4c-4441edf6b40c" d="M34.44467,32.50022l-7.4346-8.3644a.4505.4505,0,0,1,0-.58253l7.4346-8.36432a.24816.24816,0,0,1,.37917,0l7.43468,8.36432a.45068.45068,0,0,1,0,.58253l-7.43468,8.3644a.24826.24826,0,0,1-.37917,0"/></g></g><g class="79d32815-7684-4ba5-a5d1-c5833e7a8d3c"><g class="1460a956-5a24-4e48-97c6-2b59d0f4bb2c"><path class="4a345fc6-98e2-4a37-ab4c-4441edf6b40c" d="M49.81042,84.34638l-7.4346-8.3644a.4505.4505,0,0,1,0-.58253l7.4346-8.36432a.24816.24816,0,0,1,.37917,0l7.43468,8.36432a.45068.45068,0,0,1,0,.58253l-7.43468,8.3644a.24826.24826,0,0,1-.37917,0"/></g></g><g class="23b06742-82d8-4109-bc66-6b2273547dd0"><g class="13032332-6ba8-413c-b0b5-0a43a4714862"><path class="4a345fc6-98e2-4a37-ab4c-4441edf6b40c" d="M65.55533,118.88121l7.4346,8.3644a.4505.4505,0,0,1,0,.58253l-7.4346,8.36432a.24816.24816,0,0,1-.37917,0l-7.43468-8.36432a.45068.45068,0,0,1,0-.58253l7.43468-8.3644a.24826.24826,0,0,1,.37917,0"/></g></g><g class="f65de953-5e35-4764-9052-fa106c50904f"><g class="a7a54c2e-93c6-4d4f-9a76-6375df227b1c"><path class="4a345fc6-98e2-4a37-ab4c-4441edf6b40c" d="M65.17616,32.50022l-7.4346-8.3644a.4505.4505,0,0,1,0-.58253l7.4346-8.36432a.24816.24816,0,0,1,.37917,0L72.99,23.55329a.45068.45068,0,0,1,0,.58253l-7.43468,8.3644a.24826.24826,0,0,1-.37917,0"/></g></g><g class="2d187876-00fb-430d-9eb4-a5af24a38687"><g class="62d39517-3e61-4a0d-8769-eeed11d179d1"><path class="4a345fc6-98e2-4a37-ab4c-4441edf6b40c" d="M34.82384,118.88121l7.4346,8.3644a.4505.4505,0,0,1,0,.58253l-7.4346,8.36432a.24816.24816,0,0,1-.37917,0L27.01,127.82814a.45068.45068,0,0,1,0-.58253l7.43468-8.3644a.24826.24826,0,0,1,.37917,0"/></g></g></svg>