<svg id="e122128d-5977-40cf-b7d9-3393617ecb43" data-name="レイヤー 1" xmlns="http://www.w3.org/2000/svg" xmlns:xlink="http://www.w3.org/1999/xlink" viewBox="0 0 100 156"><defs><style>.\30 189e35e-fa97-4112-bbec-c1c532fedff8{fill:none;}.\35 e1d3558-2d9b-4b5b-bc22-98a4e7488e35{fill:#fff;}.a6c3140d-7d54-4723-97d1-728d83c977b3{fill:#7f7f7f;}.d528f5fc-7caf-4f43-9e13-5f87f4ce3d2c{clip-path:url(#77e88931-6843-448b-9ee0-47b8c0e9a9c6);}.\31 c0b0167-6fc5-4d09-b171-4e25bd80f406{fill:#a00;}.b8b41764-3fdd-4e11-9b91-82ffd610b441{clip-path:url(#52dbdd8b-e257-4a07-b836-f786bd99ea5a);}.\30 84057ef-e2f2-4ce3-8fd4-eb7aba0f158a{clip-path:url(#1d80e5ac-34d7-4f81-ade5-80bbcc9e30b7);}.\34 1b8b756-4498-464b-9bbd-0d0cd27f4285{clip-path:url(#4bffe6ab-b1fd-4def-9149-f35908135bba);}.b5e8b7f3-2d96-4688-8040-15b44e24e87c{clip-path:url(#d2d363d8-6903-4ee0-b243-68dcf92b4ec9);}.\33 a87ef24-5f46-4ba1-9405-0b2e6d5b6694{clip-path:url(#9d2bfa6c-9396-49db-96c9-a470e06e3951);}.d6c53ead-524f-42ce-9754-167ca1cb16d3{clip-path:url(#ec1e12eb-e9de-4c2d-8ec3-a8c94ca40a46);}.a399b68a-6318-4ac2-89bb-e0970cc4dd25{clip-path:url(#234395c3-ce78-4443-ab11-a2dd803d23f5);}.\33 01b0f3d-2d9f-40ea-887b-aac99d8ac23d{clip-path:url(#b6703fb4-0c23-47df-8586-cbe526bda156);}.bdec7398-8e85-447a-ac6c-7e21fdffd65b{clip-path:url(#a65e680b-eddf-44e4-851d-77c6554b195c);}.\39 73a1ee9-cdb1-4546-839a-99ee43f0f5cb{clip-path:url(#d5541d44-f5a1-42ed-8567-ddda4781d44b);}.a23914bf-2676-426c-ba4a-a88e25fc9927{clip-path:url(#76f29c41-235c-4055-b924-a0ea6b004379);}.\34 17b23cb-1a41-480b-b825-c8d66ddf489e{clip-path:url(#0f28c974-99ec-45dc-9237-3e2ddd63ea3b);}.\35 e5bb9ab-8625-40d7-8aa1-512fabc76e6e{clip-path:url(#0bfddfab-c84a-4c40-ad47-a1aed60c1f21);}.\39 6a71f1a-a4c3-41c0-a661-96ab31a42042{clip-path:url(#3381d538-a941-4254-a67b-ba7a9dc6e3cf);}.eba3a161-4c9a-4ffe-a14c-6db32b1d2e13{clip-path:url(#ad777264-95b9-41c1-916f-aa752f193595);}.a3090520-5296-40f3-adec-91adf5f7140c{clip-path:url(#f62a7a9a-a3db-4643-ad3d-43318699172e);}.ae61952a-b47d-4642-bdad-cbec7ca8c8f2{clip-path:url(#f1794ac2-0bbf-43e8-bb4e-b15985c99532);}.\32 9992b7c-3a2a-41ec-af96-a266010535c0{clip-path:url(#8c029bce-5ad8-492a-ae5a-8eb8a469acdf);}.\39 4fbbbe7-9752-40e3-acb5-b5f79bb93216{clip-path:url(#5ddd76c6-5013-4806-a286-ed8dc961b0ac);}.\39 60ae774-7084-4dd9-a292-0f6c2e519af2{clip-path:url(#b62c299f-6c1f-4027-a447-fec022831e75);}.\38 70204b0-c9de-4eda-b3d0-0b6850cfa8b9{clip-path:url(#47e71acb-abae-44f7-8b8e-0167c95cd994);}</style><clipPath id="77e88931-6843-448b-9ee0-47b8c0e9a9c6" transform="translate(0 0)"><rect class="0189e35e-fa97-4112-bbec-c1c532fedff8" width="29.91235" height="29.91235"/></clipPath><clipPath id="52dbdd8b-e257-4a07-b836-f786bd99ea5a" transform="translate(0 0)"><rect class="0189e35e-fa97-4112-bbec-c1c532fedff8" x="70.08765" y="126.08765" width="29.91235" height="29.91235"/></clipPath><clipPath id="1d80e5ac-34d7-4f81-ade5-80bbcc9e30b7" transform="translate(0 0)"><rect class="0189e35e-fa97-4112-bbec-c1c532fedff8" x="8.12987" y="30.01379" width="13.65262" height="15.42164"/></clipPath><clipPath id="4bffe6ab-b1fd-4def-9149-f35908135bba" transform="translate(0 0)"><rect class="0189e35e-fa97-4112-bbec-c1c532fedff8" x="6.66672" y="29.43517" width="16.57893" height="16.57893"/></clipPath><clipPath id="d2d363d8-6903-4ee0-b243-68dcf92b4ec9" transform="translate(0 0)"><rect class="0189e35e-fa97-4112-bbec-c1c532fedff8" x="78.21752" y="110.56457" width="13.65262" height="15.42164"/></clipPath><clipPath id="9d2bfa6c-9396-49db-96c9-a470e06e3951" transform="translate(0 0)"><rect class="0189e35e-fa97-4112-bbec-c1c532fedff8" x="76.75435" y="109.98591" width="16.57893" height="16.57893"/></clipPath><clipPath id="ec1e12eb-e9de-4c2d-8ec3-a8c94ca40a46" transform="translate(0 0)"><rect class="0189e35e-fa97-4112-bbec-c1c532fedff8" x="26.86764" y="15.07159" width="15.53323" height="17.54593"/></clipPath><clipPath id="234395c3-ce78-4443-ab11-a2dd803d23f5" transform="translate(0 0)"><rect class="0189e35e-fa97-4112-bbec-c1c532fedff8" x="25.20296" y="14.41326" width="18.86263" height="18.86263"/></clipPath><clipPath id="b6703fb4-0c23-47df-8586-cbe526bda156" transform="translate(0 0)"><rect class="0189e35e-fa97-4112-bbec-c1c532fedff8" x="26.86764" y="66.91775" width="15.53323" height="17.54593"/></clipPath><clipPath id="a65e680b-eddf-44e4-851d-77c6554b195c" transform="translate(0 0)"><rect class="0189e35e-fa97-4112-bbec-c1c532fedff8" x="25.20296" y="66.25942" width="18.86263" height="18.86263"/></clipPath><clipPath id="d5541d44-f5a1-42ed-8567-ddda4781d44b" transform="translate(0 0)"><rect class="0189e35e-fa97-4112-bbec-c1c532fedff8" x="57.59913" y="118.76391" width="15.53323" height="17.54593"/></clipPath><clipPath id="76f29c41-235c-4055-b924-a0ea6b004379" transform="translate(0 0)"><rect class="0189e35e-fa97-4112-bbec-c1c532fedff8" x="55.93441" y="118.10554" width="18.86263" height="18.86263"/></clipPath><clipPath id="0f28c974-99ec-45dc-9237-3e2ddd63ea3b" transform="translate(0 0)"><rect class="0189e35e-fa97-4112-bbec-c1c532fedff8" x="42.23381" y="40.99423" width="15.53323" height="17.54593"/></clipPath><clipPath id="0bfddfab-c84a-4c40-ad47-a1aed60c1f21" transform="translate(0 0)"><rect class="0189e35e-fa97-4112-bbec-c1c532fedff8" x="40.56912" y="40.3359" width="18.86263" height="18.86263"/></clipPath><clipPath id="3381d538-a941-4254-a67b-ba7a9dc6e3cf" transform="translate(0 0)"><rect class="0189e35e-fa97-4112-bbec-c1c532fedff8" x="57.59913" y="15.07159" width="15.53323" height="17.54593"/></clipPath><clipPath id="ad777264-95b9-41c1-916f-aa752f193595" transform="translate(0 0)"><rect class="0189e35e-fa97-4112-bbec-c1c532fedff8" x="55.93444" y="14.41326" width="18.86263" height="18.86263"/></clipPath><clipPath id="f62a7a9a-a3db-4643-ad3d-43318699172e" transform="translate(0 0)"><rect class="0189e35e-fa97-4112-bbec-c1c532fedff8" x="57.59913" y="66.91775" width="15.53323" height="17.54593"/></clipPath><clipPath id="f1794ac2-0bbf-43e8-bb4e-b15985c99532" transform="translate(0 0)"><rect class="0189e35e-fa97-4112-bbec-c1c532fedff8" x="55.93444" y="66.25942" width="18.86263" height="18.86263"/></clipPath><clipPath id="8c029bce-5ad8-492a-ae5a-8eb8a469acdf" transform="translate(0 0)"><rect class="0189e35e-fa97-4112-bbec-c1c532fedff8" x="26.86764" y="118.76391" width="15.53323" height="17.54593"/></clipPath><clipPath id="5ddd76c6-5013-4806-a286-ed8dc961b0ac" transform="translate(0 0)"><rect class="0189e35e-fa97-4112-bbec-c1c532fedff8" x="25.20293" y="118.10554" width="18.86263" height="18.86263"/></clipPath><clipPath id="b62c299f-6c1f-4027-a447-fec022831e75" transform="translate(0 0)"><rect class="0189e35e-fa97-4112-bbec-c1c532fedff8" x="42.23339" y="92.84083" width="15.53323" height="17.54593"/></clipPath><clipPath id="47e71acb-abae-44f7-8b8e-0167c95cd994" transform="translate(0 0)"><rect class="0189e35e-fa97-4112-bbec-c1c532fedff8" x="40.56867" y="92.18246" width="18.86263" height="18.86263"/></clipPath></defs><title>8</title><rect class="5e1d3558-2d9b-4b5b-bc22-98a4e7488e35" x="0.5" y="0.5" width="99" height="155" rx="5.5" ry="5.5"/><path class="a6c3140d-7d54-4723-97d1-728d83c977b3" d="M94,1a5.00567,5.00567,0,0,1,5,5V150a5.00567,5.00567,0,0,1-5,5H6a5.00567,5.00567,0,0,1-5-5V6A5.00567,5.00567,0,0,1,6,1H94m0-1H6A6,6,0,0,0,0,6V150a6,6,0,0,0,6,6H94a6,6,0,0,0,6-6V6a6,6,0,0,0-6-6Z" transform="translate(0 0)"/><g class="d528f5fc-7caf-4f43-9e13-5f87f4ce3d2c"><g class="d528f5fc-7caf-4f43-9e13-5f87f4ce3d2c"><path class="1c0b0167-6fc5-4d09-b171-4e25bd80f406" d="M8.70313,19.957a5.6004,5.6004,0,0,1,.93945-3.14111A5.74015,5.74015,0,0,1,12.769,14.65674v-.19629a3.56585,3.56585,0,0,1-1.07959-.43457,4.30329,4.30329,0,0,1-.99561-.81348,3.94608,3.94608,0,0,1-.729-1.16357,3.75139,3.75139,0,0,1-.28027-1.458A3.91412,3.91412,0,0,1,10.063,8.894a4.44828,4.44828,0,0,1,1.06592-1.416,5.1767,5.1767,0,0,1,1.6543-.98145,6.12265,6.12265,0,0,1,2.17334-.36475,7.37183,7.37183,0,0,1,2.41162.35059,4.99772,4.99772,0,0,1,1.65479.91113,3.64668,3.64668,0,0,1,.96729,1.3042,3.87139,3.87139,0,0,1,.32227,1.55615,4.22268,4.22268,0,0,1-.79883,2.48193,4.44616,4.44616,0,0,1-2.3418,1.64063v.19629a6.74476,6.74476,0,0,1,1.17773.35059,4.45168,4.45168,0,0,1,1.332.813A4.50432,4.50432,0,0,1,21.21,19.312a6.23345,6.23345,0,0,1-.49072,2.52393,5.75352,5.75352,0,0,1-1.3457,1.9209,5.52907,5.52907,0,0,1-1.99121,1.19189,7.38831,7.38831,0,0,1-2.42578.39258,9.10882,9.10882,0,0,1-2.46777-.32275,5.303,5.303,0,0,1-1.99121-1.02344,4.95132,4.95132,0,0,1-1.31787-1.71045A5.39219,5.39219,0,0,1,8.70313,19.957Zm10.03906-.14014a6.35954,6.35954,0,0,0-.26611-1.89307,4.66927,4.66927,0,0,0-.75732-1.48633,3.49422,3.49422,0,0,0-5.52441,0,4.64943,4.64943,0,0,0-.75732,1.48633,6.86473,6.86473,0,0,0,0,3.78564,4.63925,4.63925,0,0,0,.75732,1.48633,3.49422,3.49422,0,0,0,5.52441,0,4.659,4.659,0,0,0,.75732-1.48633A6.35161,6.35161,0,0,0,18.74219,19.81689Zm-.729-9.19824a5.42162,5.42162,0,0,0-.16846-1.374,3.12828,3.12828,0,0,0-.54639-1.13574,2.83949,2.83949,0,0,0-.93945-.78516,2.93189,2.93189,0,0,0-1.37451-.29443,2.946,2.946,0,0,0-1.35986.29443,2.657,2.657,0,0,0-.93945.78516,3.26237,3.26237,0,0,0-.53271,1.13574,5.63011,5.63011,0,0,0,0,2.73389,3.25079,3.25079,0,0,0,.53271,1.1499,2.657,2.657,0,0,0,.93945.78516,2.946,2.946,0,0,0,1.35986.29443,2.93189,2.93189,0,0,0,1.37451-.29443,2.83949,2.83949,0,0,0,.93945-.78516,3.11856,3.11856,0,0,0,.54639-1.1499A5.46666,5.46666,0,0,0,18.01318,10.61865Z" transform="translate(0 0)"/></g></g><g class="b8b41764-3fdd-4e11-9b91-82ffd610b441"><g class="b8b41764-3fdd-4e11-9b91-82ffd610b441"><path class="1c0b0167-6fc5-4d09-b171-4e25bd80f406" d="M91.29785,136.043a5.60421,5.60421,0,0,1-.93945,3.14063,5.74018,5.74018,0,0,1-3.127,2.15918v.19629a3.5695,3.5695,0,0,1,1.0791.43555,4.26853,4.26853,0,0,1,.99609.8125,3.97025,3.97025,0,0,1,.72852,1.16406,3.74124,3.74124,0,0,1,.28125,1.458,3.92368,3.92368,0,0,1-.37891,1.69727,4.47734,4.47734,0,0,1-1.06543,1.416,5.18159,5.18159,0,0,1-1.65527.98145,6.14186,6.14186,0,0,1-2.17285.36426,7.39209,7.39209,0,0,1-2.41211-.35059,4.98264,4.98264,0,0,1-1.6543-.91113,3.64792,3.64792,0,0,1-.96777-1.30371,3.892,3.892,0,0,1-.32227-1.55664,4.22285,4.22285,0,0,1,.7998-2.48242,4.44021,4.44021,0,0,1,2.34082-1.63965v-.19629a6.90078,6.90078,0,0,1-1.17773-.35059,4.48573,4.48573,0,0,1-1.332-.81348,4.50633,4.50633,0,0,1-1.52832-3.5752,6.23589,6.23589,0,0,1,.49121-2.52441,5.76051,5.76051,0,0,1,1.3457-1.9209,5.53485,5.53485,0,0,1,1.99121-1.19141,7.37553,7.37553,0,0,1,2.42578-.39258,9.109,9.109,0,0,1,2.46777.32227,5.29963,5.29963,0,0,1,1.99121,1.02344,4.94139,4.94139,0,0,1,1.31738,1.71094A5.3814,5.3814,0,0,1,91.29785,136.043Zm-10.04.14063a6.34016,6.34016,0,0,0,.2666,1.89258,4.66842,4.66842,0,0,0,.75684,1.48633,3.49545,3.49545,0,0,0,5.52539,0,4.64858,4.64858,0,0,0,.75684-1.48633,6.85438,6.85438,0,0,0,0-3.78613,4.64858,4.64858,0,0,0-.75684-1.48633,3.49545,3.49545,0,0,0-5.52539,0,4.66842,4.66842,0,0,0-.75684,1.48633A6.34217,6.34217,0,0,0,81.25781,136.18359Zm.72949,9.19824a5.42733,5.42733,0,0,0,.168,1.374,3.1486,3.1486,0,0,0,.54688,1.13574,2.85119,2.85119,0,0,0,.93945.78516,3.32641,3.32641,0,0,0,2.73438,0,2.66713,2.66713,0,0,0,.93945-.78516,3.27562,3.27562,0,0,0,.5332-1.13574,5.648,5.648,0,0,0,0-2.73437,3.25792,3.25792,0,0,0-.5332-1.15039,2.657,2.657,0,0,0-.93945-.78516,3.32641,3.32641,0,0,0-2.73437,0,2.83949,2.83949,0,0,0-.93945.78516,3.133,3.133,0,0,0-.54687,1.15039A5.46461,5.46461,0,0,0,81.9873,145.38184Z" transform="translate(0 0)"/></g></g><g class="084057ef-e2f2-4ce3-8fd4-eb7aba0f158a"><g class="41b8b756-4498-464b-9bbd-0d0cd27f4285"><path class="1c0b0167-6fc5-4d09-b171-4e25bd80f406" d="M14.78954,45.33233,8.255,37.98061a.396.396,0,0,1,0-.512L14.78954,30.117a.21812.21812,0,0,1,.33326,0l6.53456,7.35165a.39612.39612,0,0,1,0,.512L15.1228,45.33233a.2182.2182,0,0,1-.33326,0" transform="translate(0 0)"/></g></g><g class="b5e8b7f3-2d96-4688-8040-15b44e24e87c"><g class="3a87ef24-5f46-4ba1-9405-0b2e6d5b6694"><path class="1c0b0167-6fc5-4d09-b171-4e25bd80f406" d="M85.21046,110.66767l6.53449,7.35172a.396.396,0,0,1,0,.512L85.21046,125.883a.21812.21812,0,0,1-.33326,0l-6.53456-7.35165a.39612.39612,0,0,1,0-.512l6.53456-7.35172a.2182.2182,0,0,1,.33326,0" transform="translate(0 0)"/></g></g><g class="d6c53ead-524f-42ce-9754-167ca1cb16d3"><g class="a399b68a-6318-4ac2-89bb-e0970cc4dd25"><path class="1c0b0167-6fc5-4d09-b171-4e25bd80f406" d="M34.44467,32.50022l-7.4346-8.3644a.4505.4505,0,0,1,0-.58253l7.4346-8.36432a.24816.24816,0,0,1,.37917,0l7.43468,8.36432a.45068.45068,0,0,1,0,.58253l-7.43468,8.3644a.24826.24826,0,0,1-.37917,0" transform="translate(0 0)"/></g></g><g class="301b0f3d-2d9f-40ea-887b-aac99d8ac23d"><g class="bdec7398-8e85-447a-ac6c-7e21fdffd65b"><path class="1c0b0167-6fc5-4d09-b171-4e25bd80f406" d="M34.44467,84.34638l-7.4346-8.3644a.4505.4505,0,0,1,0-.58253l7.4346-8.36432a.24816.24816,0,0,1,.37917,0l7.43468,8.36432a.45068.45068,0,0,1,0,.58253l-7.43468,8.3644a.24826.24826,0,0,1-.37917,0" transform="translate(0 0)"/></g></g><g class="973a1ee9-cdb1-4546-839a-99ee43f0f5cb"><g class="a23914bf-2676-426c-ba4a-a88e25fc9927"><path class="1c0b0167-6fc5-4d09-b171-4e25bd80f406" d="M65.55533,118.88121l7.4346,8.3644a.4505.4505,0,0,1,0,.58253l-7.4346,8.36432a.24816.24816,0,0,1-.37917,0l-7.43468-8.36432a.45068.45068,0,0,1,0-.58253l7.43468-8.3644a.24826.24826,0,0,1,.37917,0" transform="translate(0 0)"/></g></g><g class="417b23cb-1a41-480b-b825-c8d66ddf489e"><g class="5e5bb9ab-8625-40d7-8aa1-512fabc76e6e"><path class="1c0b0167-6fc5-4d09-b171-4e25bd80f406" d="M49.81084,58.42286l-7.4346-8.3644a.4505.4505,0,0,1,0-.58253l7.4346-8.36432a.24816.24816,0,0,1,.37917,0l7.43468,8.36432a.45068.45068,0,0,1,0,.58253L50.19,58.42286a.24826.24826,0,0,1-.37917,0" transform="translate(0 0)"/></g></g><g class="96a71f1a-a4c3-41c0-a661-96ab31a42042"><g class="eba3a161-4c9a-4ffe-a14c-6db32b1d2e13"><path class="1c0b0167-6fc5-4d09-b171-4e25bd80f406" d="M65.17616,32.50022l-7.4346-8.3644a.4505.4505,0,0,1,0-.58253l7.4346-8.36432a.24816.24816,0,0,1,.37917,0L72.99,23.55329a.45068.45068,0,0,1,0,.58253l-7.43468,8.3644a.24826.24826,0,0,1-.37917,0" transform="translate(0 0)"/></g></g><g class="a3090520-5296-40f3-adec-91adf5f7140c"><g class="ae61952a-b47d-4642-bdad-cbec7ca8c8f2"><path class="1c0b0167-6fc5-4d09-b171-4e25bd80f406" d="M65.17616,84.34638l-7.4346-8.3644a.4505.4505,0,0,1,0-.58253l7.4346-8.36432a.24816.24816,0,0,1,.37917,0L72.99,75.39945a.45068.45068,0,0,1,0,.58253l-7.43468,8.3644a.24826.24826,0,0,1-.37917,0" transform="translate(0 0)"/></g></g><g class="29992b7c-3a2a-41ec-af96-a266010535c0"><g class="94fbbbe7-9752-40e3-acb5-b5f79bb93216"><path class="1c0b0167-6fc5-4d09-b171-4e25bd80f406" d="M34.82384,118.88121l7.4346,8.3644a.4505.4505,0,0,1,0,.58253l-7.4346,8.36432a.24816.24816,0,0,1-.37917,0L27.01,127.82814a.45068.45068,0,0,1,0-.58253l7.43468-8.3644a.24826.24826,0,0,1,.37917,0" transform="translate(0 0)"/></g></g><g class="960ae774-7084-4dd9-a292-0f6c2e519af2"><g class="870204b0-c9de-4eda-b3d0-0b6850cfa8b9"><path class="1c0b0167-6fc5-4d09-b171-4e25bd80f406" d="M50.18958,92.95813l7.4346,8.3644a.4505.4505,0,0,1,0,.58253l-7.4346,8.36432a.24816.24816,0,0,1-.37917,0l-7.43468-8.36432a.45068.45068,0,0,1,0-.58253l7.43468-8.3644a.24826.24826,0,0,1,.37917,0" transform="translate(0 0)"/></g></g></svg>