<svg id="dee923a4-d17d-4c90-b250-599a4d93f0b0" data-name="レイヤー 1" xmlns="http://www.w3.org/2000/svg" xmlns:xlink="http://www.w3.org/1999/xlink" viewBox="0 0 100 156"><defs><style>.\35 6d452bd-0651-4122-9ea5-852f118761c3{fill:none;}.e84e0bc1-9f72-4cbf-b317-d8e2a9081410{fill:#fff;}.\39 f214479-0547-41d0-9c7c-9d1ff11ffc54{fill:#7f7f7f;}.\32 e17e9cd-573f-420f-a472-5b8957bfb869{clip-path:url(#63e83d19-f7c5-4105-82e9-d47743afaba0);}.e59b2770-ba72-4111-9de7-1487f93949c1{fill:#a00;}.\34 9e5b482-9c36-4e06-8ed4-a56e2c46e270{clip-path:url(#ebffd594-4148-4866-bab1-77e060b71830);}.\35 54b85cc-3939-4c15-9b27-a1177da47c3c{clip-path:url(#549afa25-33d6-456c-899f-59139a36b318);}.fafcaa9a-1f6a-40ee-9c1f-0ec01f8603de{clip-path:url(#b216f089-d300-47ec-9cf2-e98cdf4a6c63);}.ca6b0eed-321f-4707-8cc5-533656d66869{clip-path:url(#3f651576-5128-49cd-939e-a8109bde7125);}.\33 65f3b30-f9bc-4be2-bb4b-f792bdc38a6d{clip-path:url(#48e657d6-d1c8-4fb0-95fd-775100bf0865);}.\31 930be0b-20c4-4cf6-9ea0-37b7e5051144{clip-path:url(#67ee39ac-a55c-4a02-bf11-2730dff62df8);}.\32 c2ed990-42f3-4df5-a060-b0409086eee5{clip-path:url(#dc2c7d8a-2d04-4bb1-b060-3091afb7c371);}.\31 01155b8-7d64-4736-8fa9-9ded5abb0a68{clip-path:url(#025079b6-446e-46b0-97ce-6bd8358e52c3);}.a9d6beab-fda0-426f-83f1-919fab9c3380{clip-path:url(#09fe72a3-4260-4ffa-a096-1ac42dac420e);}.\36 126b86e-a2f5-4934-b005-dfbf25a7eecc{clip-path:url(#28d2453a-0658-488f-9f50-1d1c0b99f0e1);}.ef4678df-acba-431f-b799-2976c2d70259{clip-path:url(#cb4b9869-900b-4b71-a3b9-1f6d2972393e);}.f50a5850-9760-4e34-88f6-d7a0ef6f9e9b{clip-path:url(#f68b835d-2df2-4ddb-bbd6-cea3912d6fb1);}.\38 093c458-b315-45c0-b858-4eee45c57462{clip-path:url(#9e699af7-7bc0-4b3c-8241-ab1c1cb0c1b5);}.\35 bc68496-ab3d-4403-823a-f6bb69fac6f7{clip-path:url(#d200a3e5-be0d-4346-a025-eb16fa9df845);}.\37 d447d35-8398-467d-a5ef-e96b470890c9{clip-path:url(#523cba8f-8188-4b71-b94d-31e994fe98bd);}.\36 bd1716a-665b-4eab-9b83-2f5606b07e2c{clip-path:url(#bb7db09c-2237-4080-b1ca-e40daf75011d);}.\30 e9e7beb-e712-427f-9f6d-b182d5205f21{clip-path:url(#05539cee-b652-4d76-97ef-36f5992ebede);}.eea12750-9b2b-47ab-9aa0-7328d57637e3{clip-path:url(#8b7e6318-0056-4d12-b8f0-e829f9c66cbb);}.\35 22ed5d4-ef9d-4e33-8257-482b432b93b1{clip-path:url(#5b96bf72-8a56-4b93-9751-a0085037942a);}.a45e9a15-d88c-4b51-bdeb-ef4d81a7436f{clip-path:url(#54b2f443-beff-4d12-a1c5-69dd645a2ec6);}.e29e138b-0935-48b8-a8f2-65ff92a74705{clip-path:url(#42c06374-12a3-40f8-8677-3397bd3711c7);}.\30 4e4a99b-057a-4da4-bcfa-153dab34bcb0{clip-path:url(#ad19674b-5c39-47b8-8178-c80530d4adb5);}.cb1fa621-ae9a-4cb8-a57b-61083372f49f{clip-path:url(#7b79aeb0-0c3d-4673-a2ed-97d775a6dbb5);}</style><clipPath id="63e83d19-f7c5-4105-82e9-d47743afaba0"><rect class="56d452bd-0651-4122-9ea5-852f118761c3" width="29.91235" height="29.91235"/></clipPath><clipPath id="ebffd594-4148-4866-bab1-77e060b71830"><rect class="56d452bd-0651-4122-9ea5-852f118761c3" x="70.08765" y="126.08765" width="29.91235" height="29.91235"/></clipPath><clipPath id="549afa25-33d6-456c-899f-59139a36b318"><rect class="56d452bd-0651-4122-9ea5-852f118761c3" x="8.12987" y="30.01379" width="13.65262" height="15.42164"/></clipPath><clipPath id="b216f089-d300-47ec-9cf2-e98cdf4a6c63"><rect class="56d452bd-0651-4122-9ea5-852f118761c3" x="6.66672" y="29.43517" width="16.57893" height="16.57893"/></clipPath><clipPath id="3f651576-5128-49cd-939e-a8109bde7125"><rect class="56d452bd-0651-4122-9ea5-852f118761c3" x="78.21752" y="110.56457" width="13.65262" height="15.42164"/></clipPath><clipPath id="48e657d6-d1c8-4fb0-95fd-775100bf0865"><rect class="56d452bd-0651-4122-9ea5-852f118761c3" x="76.75435" y="109.98591" width="16.57893" height="16.57893"/></clipPath><clipPath id="67ee39ac-a55c-4a02-bf11-2730dff62df8"><rect class="56d452bd-0651-4122-9ea5-852f118761c3" x="26.86764" y="15.07159" width="15.53323" height="17.54593"/></clipPath><clipPath id="dc2c7d8a-2d04-4bb1-b060-3091afb7c371"><rect class="56d452bd-0651-4122-9ea5-852f118761c3" x="25.20296" y="14.41326" width="18.86263" height="18.86263"/></clipPath><clipPath id="025079b6-446e-46b0-97ce-6bd8358e52c3"><rect class="56d452bd-0651-4122-9ea5-852f118761c3" x="26.86764" y="49.6357" width="15.53323" height="17.54593"/></clipPath><clipPath id="09fe72a3-4260-4ffa-a096-1ac42dac420e"><rect class="56d452bd-0651-4122-9ea5-852f118761c3" x="25.20296" y="48.97737" width="18.86263" height="18.86263"/></clipPath><clipPath id="28d2453a-0658-488f-9f50-1d1c0b99f0e1"><rect class="56d452bd-0651-4122-9ea5-852f118761c3" x="57.59913" y="118.76391" width="15.53323" height="17.54593"/></clipPath><clipPath id="cb4b9869-900b-4b71-a3b9-1f6d2972393e"><rect class="56d452bd-0651-4122-9ea5-852f118761c3" x="55.93441" y="118.10554" width="18.86263" height="18.86263"/></clipPath><clipPath id="f68b835d-2df2-4ddb-bbd6-cea3912d6fb1"><rect class="56d452bd-0651-4122-9ea5-852f118761c3" x="57.59913" y="84.1998" width="15.53323" height="17.54593"/></clipPath><clipPath id="9e699af7-7bc0-4b3c-8241-ab1c1cb0c1b5"><rect class="56d452bd-0651-4122-9ea5-852f118761c3" x="55.93441" y="83.54143" width="18.86263" height="18.86263"/></clipPath><clipPath id="d200a3e5-be0d-4346-a025-eb16fa9df845"><rect class="56d452bd-0651-4122-9ea5-852f118761c3" x="57.59913" y="15.07159" width="15.53323" height="17.54593"/></clipPath><clipPath id="523cba8f-8188-4b71-b94d-31e994fe98bd"><rect class="56d452bd-0651-4122-9ea5-852f118761c3" x="55.93444" y="14.41326" width="18.86263" height="18.86263"/></clipPath><clipPath id="bb7db09c-2237-4080-b1ca-e40daf75011d"><rect class="56d452bd-0651-4122-9ea5-852f118761c3" x="42.23339" y="66.91775" width="15.53323" height="17.54593"/></clipPath><clipPath id="05539cee-b652-4d76-97ef-36f5992ebede"><rect class="56d452bd-0651-4122-9ea5-852f118761c3" x="40.5687" y="66.25942" width="18.86263" height="18.86263"/></clipPath><clipPath id="8b7e6318-0056-4d12-b8f0-e829f9c66cbb"><rect class="56d452bd-0651-4122-9ea5-852f118761c3" x="57.59913" y="49.6357" width="15.53323" height="17.54593"/></clipPath><clipPath id="5b96bf72-8a56-4b93-9751-a0085037942a"><rect class="56d452bd-0651-4122-9ea5-852f118761c3" x="55.93444" y="48.97737" width="18.86263" height="18.86263"/></clipPath><clipPath id="54b2f443-beff-4d12-a1c5-69dd645a2ec6"><rect class="56d452bd-0651-4122-9ea5-852f118761c3" x="26.86764" y="118.76391" width="15.53323" height="17.54593"/></clipPath><clipPath id="42c06374-12a3-40f8-8677-3397bd3711c7"><rect class="56d452bd-0651-4122-9ea5-852f118761c3" x="25.20293" y="118.10554" width="18.86263" height="18.86263"/></clipPath><clipPath id="ad19674b-5c39-47b8-8178-c80530d4adb5"><rect class="56d452bd-0651-4122-9ea5-852f118761c3" x="26.86764" y="84.1998" width="15.53323" height="17.54593"/></clipPath><clipPath id="7b79aeb0-0c3d-4673-a2ed-97d775a6dbb5"><rect class="56d452bd-0651-4122-9ea5-852f118761c3" x="25.20293" y="83.54143" width="18.86263" height="18.86263"/></clipPath></defs><title>9</title><rect class="e84e0bc1-9f72-4cbf-b317-d8e2a9081410" x="0.5" y="0.5" width="99" height="155" rx="5.5" ry="5.5"/><path class="9f214479-0547-41d0-9c7c-9d1ff11ffc54" d="M94,1a5.00567,5.00567,0,0,1,5,5V150a5.00567,5.00567,0,0,1-5,5H6a5.00567,5.00567,0,0,1-5-5V6A5.00567,5.00567,0,0,1,6,1H94m0-1H6A6,6,0,0,0,0,6V150a6,6,0,0,0,6,6H94a6,6,0,0,0,6-6V6a6,6,0,0,0-6-6Z"/><g class="2e17e9cd-573f-420f-a472-5b8957bfb869"><g class="2e17e9cd-573f-420f-a472-5b8957bfb869"><path class="e59b2770-ba72-4111-9de7-1487f93949c1" d="M10.1333,23.37793a4.7757,4.7757,0,0,0,1.29.84131,3.63992,3.63992,0,0,0,1.48633.30859,4.09208,4.09208,0,0,0,2.59375-.84131,6.24624,6.24624,0,0,0,1.75244-2.20117,11.85619,11.85619,0,0,0,.99561-3.043,17.84822,17.84822,0,0,0,.32275-3.36475h-.05615a5.28811,5.28811,0,0,1-1.75293,1.90674,4.97311,4.97311,0,0,1-2.79.729A5.39713,5.39713,0,0,1,9.979,16.269a5.594,5.594,0,0,1-1.44434-4.13623,6.3913,6.3913,0,0,1,.43457-2.3833,5.4306,5.4306,0,0,1,1.248-1.89307,5.9028,5.9028,0,0,1,1.96289-1.26172,6.855,6.855,0,0,1,2.58008-.46289,6.6525,6.6525,0,0,1,2.39746.43457,5.04227,5.04227,0,0,1,1.99121,1.40234,7.23282,7.23282,0,0,1,1.374,2.49561,11.74993,11.74993,0,0,1,.519,3.74365,16.48994,16.48994,0,0,1-.561,4.375,11.33165,11.33165,0,0,1-1.62646,3.561A7.69246,7.69246,0,0,1,16.26074,24.5a7.12666,7.12666,0,0,1-3.4917.84131,6.31522,6.31522,0,0,1-1.31787-.12646,7.21144,7.21144,0,0,1-.89746-.23828q-.08423-.30835-.23828-.75732a5.03451,5.03451,0,0,0-.32227-.75684Zm8.32861-11.97412A4.74322,4.74322,0,0,0,17.43848,8.249,3.35735,3.35735,0,0,0,14.73242,7.0293a3.22427,3.22427,0,0,0-2.70654,1.35986,6.09871,6.09871,0,0,0-1.02344,3.74365,5.26185,5.26185,0,0,0,.92529,3.4917,3.19114,3.19114,0,0,0,2.52393,1.05127,3.26976,3.26976,0,0,0,1.72461-.44873,4.04762,4.04762,0,0,0,1.248-1.17773,5.55838,5.55838,0,0,0,.771-1.68262A7.25326,7.25326,0,0,0,18.46191,11.40381Z"/></g></g><g class="49e5b482-9c36-4e06-8ed4-a56e2c46e270"><g class="49e5b482-9c36-4e06-8ed4-a56e2c46e270"><path class="e59b2770-ba72-4111-9de7-1487f93949c1" d="M89.86719,132.62207a4.7891,4.7891,0,0,0-1.29-.8418,3.64159,3.64159,0,0,0-1.48633-.30859,4.09433,4.09433,0,0,0-2.59375.8418,6.24843,6.24843,0,0,0-1.75293,2.20117,11.86844,11.86844,0,0,0-.99512,3.043,17.84489,17.84489,0,0,0-.32227,3.36523h.05566a5.29783,5.29783,0,0,1,1.75293-1.90723,4.971,4.971,0,0,1,2.79-.72949,5.4006,5.4006,0,0,1,3.99609,1.44434,5.59792,5.59792,0,0,1,1.44434,4.13672,6.39569,6.39569,0,0,1-.43457,2.38379,5.44893,5.44893,0,0,1-1.248,1.89258,5.9028,5.9028,0,0,1-1.96289,1.26172,6.85674,6.85674,0,0,1-2.58008.46289,6.644,6.644,0,0,1-2.39746-.43457,5.03392,5.03392,0,0,1-1.99121-1.40234,7.21379,7.21379,0,0,1-1.374-2.49609A11.74568,11.74568,0,0,1,78.959,141.792a16.4901,16.4901,0,0,1,.56055-4.375,11.35483,11.35483,0,0,1,1.626-3.56152A7.69892,7.69892,0,0,1,83.74023,131.5a7.12186,7.12186,0,0,1,3.49121-.84082,6.31206,6.31206,0,0,1,1.31738.126,7.27489,7.27489,0,0,1,.89746.23828c.05664.20508.13574.458.23828.75684a5.06643,5.06643,0,0,0,.32324.75781ZM81.53906,144.5957A4.742,4.742,0,0,0,82.5625,147.751a3.35668,3.35668,0,0,0,2.70605,1.21973,3.22384,3.22384,0,0,0,2.70605-1.36035,6.09519,6.09519,0,0,0,1.02344-3.74316,5.25653,5.25653,0,0,0-.92578-3.49121,3.1875,3.1875,0,0,0-2.52344-1.05176,3.2728,3.2728,0,0,0-1.72461.44824,4.053,4.053,0,0,0-1.248,1.17773,5.55287,5.55287,0,0,0-.77148,1.68262A7.29378,7.29378,0,0,0,81.53906,144.5957Z"/></g></g><g class="554b85cc-3939-4c15-9b27-a1177da47c3c"><g class="fafcaa9a-1f6a-40ee-9c1f-0ec01f8603de"><path class="e59b2770-ba72-4111-9de7-1487f93949c1" d="M14.78954,45.33233,8.255,37.98061a.396.396,0,0,1,0-.512L14.78954,30.117a.21812.21812,0,0,1,.33326,0l6.53456,7.35165a.39612.39612,0,0,1,0,.512L15.1228,45.33233a.2182.2182,0,0,1-.33326,0"/></g></g><g class="ca6b0eed-321f-4707-8cc5-533656d66869"><g class="365f3b30-f9bc-4be2-bb4b-f792bdc38a6d"><path class="e59b2770-ba72-4111-9de7-1487f93949c1" d="M85.21046,110.66767l6.53449,7.35172a.396.396,0,0,1,0,.512L85.21046,125.883a.21812.21812,0,0,1-.33326,0l-6.53456-7.35165a.39612.39612,0,0,1,0-.512l6.53456-7.35172a.2182.2182,0,0,1,.33326,0"/></g></g><g class="1930be0b-20c4-4cf6-9ea0-37b7e5051144"><g class="2c2ed990-42f3-4df5-a060-b0409086eee5"><path class="e59b2770-ba72-4111-9de7-1487f93949c1" d="M34.44467,32.50022l-7.4346-8.3644a.4505.4505,0,0,1,0-.58253l7.4346-8.36432a.24816.24816,0,0,1,.37917,0l7.43468,8.36432a.45068.45068,0,0,1,0,.58253l-7.43468,8.3644a.24826.24826,0,0,1-.37917,0"/></g></g><g class="101155b8-7d64-4736-8fa9-9ded5abb0a68"><g class="a9d6beab-fda0-426f-83f1-919fab9c3380"><path class="e59b2770-ba72-4111-9de7-1487f93949c1" d="M34.44467,67.06432l-7.4346-8.3644a.4505.4505,0,0,1,0-.58253l7.4346-8.36432a.24816.24816,0,0,1,.37917,0l7.43468,8.36432a.45068.45068,0,0,1,0,.58253l-7.43468,8.3644a.24826.24826,0,0,1-.37917,0"/></g></g><g class="6126b86e-a2f5-4934-b005-dfbf25a7eecc"><g class="ef4678df-acba-431f-b799-2976c2d70259"><path class="e59b2770-ba72-4111-9de7-1487f93949c1" d="M65.55533,118.88121l7.4346,8.3644a.4505.4505,0,0,1,0,.58253l-7.4346,8.36432a.24816.24816,0,0,1-.37917,0l-7.43468-8.36432a.45068.45068,0,0,1,0-.58253l7.43468-8.3644a.24826.24826,0,0,1,.37917,0"/></g></g><g class="f50a5850-9760-4e34-88f6-d7a0ef6f9e9b"><g class="8093c458-b315-45c0-b858-4eee45c57462"><path class="e59b2770-ba72-4111-9de7-1487f93949c1" d="M65.55533,84.3171l7.4346,8.3644a.4505.4505,0,0,1,0,.58253l-7.4346,8.36432a.24816.24816,0,0,1-.37917,0L57.74148,93.264a.45068.45068,0,0,1,0-.58253l7.43468-8.3644a.24826.24826,0,0,1,.37917,0"/></g></g><g class="5bc68496-ab3d-4403-823a-f6bb69fac6f7"><g class="7d447d35-8398-467d-a5ef-e96b470890c9"><path class="e59b2770-ba72-4111-9de7-1487f93949c1" d="M65.17616,32.50022l-7.4346-8.3644a.4505.4505,0,0,1,0-.58253l7.4346-8.36432a.24816.24816,0,0,1,.37917,0L72.99,23.55329a.45068.45068,0,0,1,0,.58253l-7.43468,8.3644a.24826.24826,0,0,1-.37917,0"/></g></g><g class="6bd1716a-665b-4eab-9b83-2f5606b07e2c"><g class="0e9e7beb-e712-427f-9f6d-b182d5205f21"><path class="e59b2770-ba72-4111-9de7-1487f93949c1" d="M49.81042,84.34638l-7.4346-8.3644a.4505.4505,0,0,1,0-.58253l7.4346-8.36432a.24816.24816,0,0,1,.37917,0l7.43468,8.36432a.45068.45068,0,0,1,0,.58253l-7.43468,8.3644a.24826.24826,0,0,1-.37917,0"/></g></g><g class="eea12750-9b2b-47ab-9aa0-7328d57637e3"><g class="522ed5d4-ef9d-4e33-8257-482b432b93b1"><path class="e59b2770-ba72-4111-9de7-1487f93949c1" d="M65.17616,67.06432l-7.4346-8.3644a.4505.4505,0,0,1,0-.58253l7.4346-8.36432a.24816.24816,0,0,1,.37917,0L72.99,58.1174a.45068.45068,0,0,1,0,.58253l-7.43468,8.3644a.24826.24826,0,0,1-.37917,0"/></g></g><g class="a45e9a15-d88c-4b51-bdeb-ef4d81a7436f"><g class="e29e138b-0935-48b8-a8f2-65ff92a74705"><path class="e59b2770-ba72-4111-9de7-1487f93949c1" d="M34.82384,118.88121l7.4346,8.3644a.4505.4505,0,0,1,0,.58253l-7.4346,8.36432a.24816.24816,0,0,1-.37917,0L27.01,127.82814a.45068.45068,0,0,1,0-.58253l7.43468-8.3644a.24826.24826,0,0,1,.37917,0"/></g></g><g class="04e4a99b-057a-4da4-bcfa-153dab34bcb0"><g class="cb1fa621-ae9a-4cb8-a57b-61083372f49f"><path class="e59b2770-ba72-4111-9de7-1487f93949c1" d="M34.82384,84.3171l7.4346,8.3644a.4505.4505,0,0,1,0,.58253l-7.4346,8.36432a.24816.24816,0,0,1-.37917,0L27.01,93.264a.45068.45068,0,0,1,0-.58253l7.43468-8.3644a.24826.24826,0,0,1,.37917,0"/></g></g></svg>