<svg xmlns="http://www.w3.org/2000/svg" xmlns:xlink="http://www.w3.org/1999/xlink" viewBox="0 0 100 156"><defs><style>.\32 52f55ff-4f55-4934-80ab-0269dbf78513{fill:none;}.e9d89a65-9a5e-4726-aecd-8b3c0b1d164a{isolation:isolate;}.\34 352cbf9-62fd-4c51-964c-a8c460a2cccb{fill:#fff;}.e3a8e6f3-feb5-4f2c-94fd-6cc7892f3a2e{fill:#7f7f7f;}.\38 6e2d679-5d00-4d10-8ca1-62b68dce22c1{clip-path:url(#df2626c4-3a6b-49ee-8743-0803fb2cf21c);}.\34 d49522a-6ffb-41a1-a988-a9789c0ab4fb{fill:#a00;}.\34 1368261-37d0-46cd-8072-ee54f0f07725{clip-path:url(#6e18a6fc-53b3-4e71-8fd4-d040f91fe3ef);}.\39 d981b2c-212d-4e18-a08e-2f6f643a16e6{clip-path:url(#6f5b4699-0a0d-4d75-ae8a-ef0871802c29);}.\31 32cf4b4-e2a1-4bfd-ae66-df32bc8186bb{clip-path:url(#46c3bf68-1b2e-4a9e-bb56-08864d2cc25e);}.bf7eb8c3-67a0-40f6-bd60-ea42b0619e9e{clip-path:url(#cd00bacf-3da5-47c6-84b6-0427a23c3ed3);}.\33 e8e758a-0dc4-46c7-9cb5-c017fd096872{clip-path:url(#5daaebad-49d2-4e5c-953a-ba51141c94af);}.fd906d9e-9ce2-4b2f-b811-2353c65c0791{clip-path:url(#271f2eeb-e335-4351-b5c5-a77c93d99fbe);}.\38 81716b6-d487-4fb9-b041-97d2598be0f3{mix-blend-mode:multiply;}.\31 75419b1-769c-4101-8684-8a285079dc3a{clip-path:url(#3f8f2dfd-4b37-4a67-ab8a-54f2a8f5058a);}.\30 af673ba-12ad-4d92-9a80-4117b26ab3b4{fill:#aa5454;}.\33 cb31ddd-ccb9-4fee-b1a9-753a363185b3{clip-path:url(#3d23a1c5-4f22-48b7-9001-00ff27e0158e);}.c000ebd9-ae30-4805-b897-0cc858070814{clip-path:url(#b1834461-a4f9-40a9-8adb-ad3432d40237);}.b7218a60-9aa6-4796-a5d0-4fc1de9e87cd{clip-path:url(#fd19b90a-bff1-4ff1-96b2-5fa7d1636c9e);}</style><clipPath id="df2626c4-3a6b-49ee-8743-0803fb2cf21c"><rect class="252f55ff-4f55-4934-80ab-0269dbf78513" width="29.91235" height="29.91235"/></clipPath><clipPath id="6e18a6fc-53b3-4e71-8fd4-d040f91fe3ef"><rect class="252f55ff-4f55-4934-80ab-0269dbf78513" x="70.08765" y="126.08765" width="29.91235" height="29.91235"/></clipPath><clipPath id="6f5b4699-0a0d-4d75-ae8a-ef0871802c29"><rect class="252f55ff-4f55-4934-80ab-0269dbf78513" x="8.12987" y="30.01379" width="13.65262" height="15.42164"/></clipPath><clipPath id="46c3bf68-1b2e-4a9e-bb56-08864d2cc25e"><rect class="252f55ff-4f55-4934-80ab-0269dbf78513" x="6.66672" y="29.43517" width="16.57893" height="16.57893"/></clipPath><clipPath id="cd00bacf-3da5-47c6-84b6-0427a23c3ed3"><rect class="252f55ff-4f55-4934-80ab-0269dbf78513" x="78.21752" y="110.56457" width="13.65262" height="15.42164"/></clipPath><clipPath id="5daaebad-49d2-4e5c-953a-ba51141c94af"><rect class="252f55ff-4f55-4934-80ab-0269dbf78513" x="76.75435" y="109.98591" width="16.57893" height="16.57893"/></clipPath><clipPath id="271f2eeb-e335-4351-b5c5-a77c93d99fbe"><rect class="252f55ff-4f55-4934-80ab-0269dbf78513" x="25" y="23" width="50" height="110"/></clipPath><clipPath id="3f8f2dfd-4b37-4a67-ab8a-54f2a8f5058a"><rect class="252f55ff-4f55-4934-80ab-0269dbf78513" x="25.00002" y="78.0001" width="24.99998" height="55.00001"/></clipPath><clipPath id="3d23a1c5-4f22-48b7-9001-00ff27e0158e"><rect class="252f55ff-4f55-4934-80ab-0269dbf78513" x="25" y="23" width="25" height="55.0001"/></clipPath><clipPath id="b1834461-a4f9-40a9-8adb-ad3432d40237"><rect class="252f55ff-4f55-4934-80ab-0269dbf78513" x="50.0001" y="23" width="25" height="55"/></clipPath><clipPath id="fd19b90a-bff1-4ff1-96b2-5fa7d1636c9e"><rect class="252f55ff-4f55-4934-80ab-0269dbf78513" x="50" y="78" width="25.0001" height="55.00014"/></clipPath></defs><title>Q</title><g class="e9d89a65-9a5e-4726-aecd-8b3c0b1d164a"><g id="7d3bb6f1-bd40-4b15-bea6-edfa325b7aa3" data-name="レイヤー 1"><rect class="4352cbf9-62fd-4c51-964c-a8c460a2cccb" x="0.5" y="0.5" width="99" height="155" rx="5.5" ry="5.5"/><path class="e3a8e6f3-feb5-4f2c-94fd-6cc7892f3a2e" d="M94,1a5.00567,5.00567,0,0,1,5,5V150a5.00567,5.00567,0,0,1-5,5H6a5.00567,5.00567,0,0,1-5-5V6A5.00567,5.00567,0,0,1,6,1H94m0-1H6A6,6,0,0,0,0,6V150a6,6,0,0,0,6,6H94a6,6,0,0,0,6-6V6a6,6,0,0,0-6-6Z"/><g class="86e2d679-5d00-4d10-8ca1-62b68dce22c1"><g class="86e2d679-5d00-4d10-8ca1-62b68dce22c1"><path class="4d49522a-6ffb-41a1-a988-a9789c0ab4fb" d="M4.45459,15.44189a11.0278,11.0278,0,0,1,.77148-4.24854A8.85919,8.85919,0,0,1,7.38525,8.03857,9.31085,9.31085,0,0,1,10.708,6.07568a12.81257,12.81257,0,0,1,4.23486-.67285,12.901,12.901,0,0,1,4.26221.67285,9.30874,9.30874,0,0,1,3.32324,1.96289,8.87171,8.87171,0,0,1,2.15918,3.15479,11.037,11.037,0,0,1,.771,4.24854,11.35341,11.35341,0,0,1-.53271,3.57568,9.46343,9.46343,0,0,1-1.5,2.86035,8.32087,8.32087,0,0,1-2.32764,2.061,9.05064,9.05064,0,0,1-3.04248,1.12158q1.51392,1.20557,3.07031,2.41162,1.5564,1.20557,3.26709,2.41211a3.06694,3.06694,0,0,0-1.34619.42041,2.39579,2.39579,0,0,0-.84131.729q-1.54248-1.42969-3.11279-2.832-1.57031-1.40259-3.33691-2.83252a2.34264,2.34264,0,0,1-.42041.02783h-.39258a13.587,13.587,0,0,1-4.23486-.63086,8.65166,8.65166,0,0,1-5.48193-5.07568A11.02433,11.02433,0,0,1,4.45459,15.44189Zm18.25586,0a12.30279,12.30279,0,0,0-.58887-4.02393A7.65086,7.65086,0,0,0,20.481,8.61377a6.54084,6.54084,0,0,0-2.46777-1.64063,9.03547,9.03547,0,0,0-6.11328,0A6.54084,6.54084,0,0,0,9.43213,8.61377,7.65008,7.65008,0,0,0,7.792,11.418a12.28907,12.28907,0,0,0-.58936,4.02393A12.286,12.286,0,0,0,7.792,19.46631a7.642,7.642,0,0,0,1.64014,2.8042,6.52943,6.52943,0,0,0,2.46777,1.64063,9.03547,9.03547,0,0,0,6.11328,0A6.52943,6.52943,0,0,0,20.481,22.27051a7.64281,7.64281,0,0,0,1.64063-2.8042A12.29972,12.29972,0,0,0,22.71045,15.44189Z"/></g></g><g class="41368261-37d0-46cd-8072-ee54f0f07725"><g class="41368261-37d0-46cd-8072-ee54f0f07725"><path class="4d49522a-6ffb-41a1-a988-a9789c0ab4fb" d="M95.5459,140.55762a11.03207,11.03207,0,0,1-.77148,4.249,8.84864,8.84864,0,0,1-2.15918,3.1543,9.28334,9.28334,0,0,1-3.32324,1.96289,13.73043,13.73043,0,0,1-8.49707,0,9.27911,9.27911,0,0,1-3.32227-1.96289,8.86339,8.86339,0,0,1-2.16016-3.1543,11.05052,11.05052,0,0,1-.77051-4.249,11.36893,11.36893,0,0,1,.53223-3.5752,9.47128,9.47128,0,0,1,1.501-2.86035,8.336,8.336,0,0,1,2.32715-2.06152,9.04873,9.04873,0,0,1,3.043-1.12109q-1.51465-1.20557-3.07129-2.41211-1.55566-1.20557-3.2666-2.41113a3.06551,3.06551,0,0,0,1.3457-.4209,2.39454,2.39454,0,0,0,.8418-.72949q1.54248,1.43115,3.1123,2.833,1.57178,1.40186,3.33691,2.832a2.33929,2.33929,0,0,1,.4209-.02832h.39258a13.61253,13.61253,0,0,1,4.23438.63086,8.65,8.65,0,0,1,5.48242,5.07617A11.02354,11.02354,0,0,1,95.5459,140.55762Zm-18.25586,0a12.30177,12.30177,0,0,0,.58887,4.02441,7.65708,7.65708,0,0,0,1.64063,2.80469,6.54085,6.54085,0,0,0,2.46777,1.64063,9.04327,9.04327,0,0,0,6.11328,0,6.54085,6.54085,0,0,0,2.46777-1.64062A7.65708,7.65708,0,0,0,92.209,144.582a14.04285,14.04285,0,0,0,0-8.04785,7.641,7.641,0,0,0-1.64062-2.80469,6.54084,6.54084,0,0,0-2.46777-1.64062,9.04327,9.04327,0,0,0-6.11328,0,6.54084,6.54084,0,0,0-2.46777,1.64063,7.641,7.641,0,0,0-1.64062,2.80469A12.2956,12.2956,0,0,0,77.29,140.55762Z"/></g></g><g class="9d981b2c-212d-4e18-a08e-2f6f643a16e6"><g class="132cf4b4-e2a1-4bfd-ae66-df32bc8186bb"><path class="4d49522a-6ffb-41a1-a988-a9789c0ab4fb" d="M14.78954,45.33233,8.255,37.98061a.396.396,0,0,1,0-.512L14.78954,30.117a.21812.21812,0,0,1,.33326,0l6.53456,7.35165a.39612.39612,0,0,1,0,.512L15.1228,45.33233a.2182.2182,0,0,1-.33326,0"/></g></g><g class="bf7eb8c3-67a0-40f6-bd60-ea42b0619e9e"><g class="3e8e758a-0dc4-46c7-9cb5-c017fd096872"><path class="4d49522a-6ffb-41a1-a988-a9789c0ab4fb" d="M85.21046,110.66767l6.53449,7.35172a.396.396,0,0,1,0,.512L85.21046,125.883a.21812.21812,0,0,1-.33326,0l-6.53456-7.35165a.39612.39612,0,0,1,0-.512l6.53456-7.35172a.2182.2182,0,0,1,.33326,0"/></g></g></g><g id="b9b4b11d-2b46-4b52-b00d-78e3e91fed96" data-name="レイヤー 2"><g class="fd906d9e-9ce2-4b2f-b811-2353c65c0791"><g class="fd906d9e-9ce2-4b2f-b811-2353c65c0791"><g class="fd906d9e-9ce2-4b2f-b811-2353c65c0791"><g class="881716b6-d487-4fb9-b041-97d2598be0f3"><g class="175419b1-769c-4101-8684-8a285079dc3a"><polyline class="0af673ba-12ad-4d92-9a80-4117b26ab3b4" points="50 133 25 133 25 78"/></g></g><g class="881716b6-d487-4fb9-b041-97d2598be0f3"><g class="3cb31ddd-ccb9-4fee-b1a9-753a363185b3"><polyline class="0af673ba-12ad-4d92-9a80-4117b26ab3b4" points="50 23 25 23 25 78"/></g></g><g class="881716b6-d487-4fb9-b041-97d2598be0f3"><g class="c000ebd9-ae30-4805-b897-0cc858070814"><polyline class="0af673ba-12ad-4d92-9a80-4117b26ab3b4" points="50 23 75 23 75 78"/></g></g><g class="881716b6-d487-4fb9-b041-97d2598be0f3"><g class="b7218a60-9aa6-4796-a5d0-4fc1de9e87cd"><polyline class="0af673ba-12ad-4d92-9a80-4117b26ab3b4" points="50 133 75 133 75 78"/></g></g><g class="881716b6-d487-4fb9-b041-97d2598be0f3"><g class="b7218a60-9aa6-4796-a5d0-4fc1de9e87cd"><polyline class="0af673ba-12ad-4d92-9a80-4117b26ab3b4" points="50 133 75 133 75 78"/></g></g></g></g></g></g></g></svg>