<svg id="52674cae-3d3e-4298-892b-b5e0f0547c2d" data-name="レイヤー 1" xmlns="http://www.w3.org/2000/svg" xmlns:xlink="http://www.w3.org/1999/xlink" viewBox="0 0 100 156"><defs><style>.ff7440ad-a777-45eb-932a-686b1c3d5a1a{fill:none;}.d50476bd-7c73-41c9-ab99-be5de9c7f4be{fill:#fff;}.a6fdb9c2-4873-414c-a83f-f62d550ae7c0{fill:#7f7f7f;}.\36 226b2f4-9e33-414b-9a9f-cf8c5aa9e40a{clip-path:url(#0a0d5e18-f462-4e81-864f-5688a41d5fa2);}.\37 2a1d879-3fa7-43d7-af61-61f951861109{clip-path:url(#de5db662-76d1-4dda-91e3-3133621193f0);}.f4e29e7e-401f-4890-9392-d046bc71d0b9{clip-path:url(#6f31e17c-695e-4383-94ce-a9b824ff6027);}.e66a79b8-1c16-4ffe-8f69-612bac1e1429{clip-path:url(#ab28c414-4eb7-4a74-b5e1-0d02a83673e8);}.\39 845ae10-9972-4eed-a35e-ac5aed16cd43{clip-path:url(#87b66cc2-28a2-49d7-8cae-6763f9884ad8);}.\35 3b44206-3583-44c2-b9e8-453eb569a7c2{clip-path:url(#428d7355-3613-4438-8375-10d5cd9b53d8);}.f1e8d9b7-efe9-4f05-8c43-906821d5b5ed{clip-path:url(#3bb91f92-9085-46b9-90b1-a222c4d43042);}.a4a004c5-6720-4276-8577-8a761aa09829{clip-path:url(#e538791e-be8c-4871-b5ac-650336874ffe);}.d282973b-2485-455d-b71a-7b2b31300368{clip-path:url(#8ef247aa-cf97-4528-a8a1-8a8ad10f47a6);}.\30 828ee6c-babf-4792-9d95-f1961b958db7{clip-path:url(#77a9e064-c716-4b6e-9077-42c703de0e23);}.f34e9eb9-aaf2-41c8-9994-ca7eb4cf8b74{clip-path:url(#9e81c839-cb6f-4e66-96c0-35e44d5f1991);}.ac6e6eb6-0180-4868-80a1-84a943c39301{clip-path:url(#733d89c9-d48d-49ec-81b2-b42db764d02e);}.\32 0a62be5-e742-4efc-887c-d35173fad976{clip-path:url(#b5bc1793-e806-4c6b-a6c5-afb0581a8273);}.f2dc32ac-3958-46db-a6bb-9a9d21c644ba{clip-path:url(#00a278dd-6b84-4ab0-8a52-556f7a08541d);}.bfee8f6b-df3a-4c33-b18d-d1ce1ac94202{clip-path:url(#f73c760f-aec3-49ff-92a5-550d72f1967e);}.\39 41a252c-2dd5-4727-8f9e-8427acb73b3b{clip-path:url(#6f0cccf1-c7c5-440d-b3f7-86ff56a519d8);}.\34 772db4b-8d2d-4abd-b1e7-641fd38980c7{clip-path:url(#a04018d4-82c0-4828-8bc9-9162227c7be8);}.\36 974d586-7e4a-4c73-90c7-e7fdfa1eea54{clip-path:url(#c841848f-5d1f-42d3-a423-34bb7c0bb511);}.\31 9f574cf-d543-4b19-9d2a-7cbe3ca91cb5{clip-path:url(#b4b7aa45-488e-4923-8ecd-c4ba1ac8cf29);}.f3b1b7dc-98d2-44cb-9b7c-0d7e666bb93b{clip-path:url(#4862af5a-7fdd-4510-85da-269a3a255a85);}.e631a2cd-b24c-4e6d-9485-565bca779a56{clip-path:url(#117a67a8-6d79-45a6-98a2-6cc5d19b51f7);}.\32 f6f749f-6bd8-40d7-aa08-1418cc5bef8a{clip-path:url(#3932a9e2-bb71-4122-b23b-3ac56ee5dcd3);}.\36 8e26390-641f-4a42-9a1c-96e647c6ae97{clip-path:url(#c866488d-2081-4223-97c6-9e0ffee44e50);}.\31 2010e02-20af-44e3-b7cd-d8e6724c8424{clip-path:url(#e07e4e78-a8f8-4aee-91b8-4d4d3c65b1c3);}.\31 24b5d21-09ad-4355-8b3f-7893c61b909e{clip-path:url(#1ca62b51-270e-46c0-a796-8ba5d2f0d130);}.\38 8aa4293-523d-4dc6-b853-4188db4a70a6{clip-path:url(#6bb7cf42-7f64-4177-91b9-f1be19be0f94);}</style><clipPath id="0a0d5e18-f462-4e81-864f-5688a41d5fa2"><rect class="ff7440ad-a777-45eb-932a-686b1c3d5a1a" width="29.91235" height="29.91235"/></clipPath><clipPath id="de5db662-76d1-4dda-91e3-3133621193f0"><rect class="ff7440ad-a777-45eb-932a-686b1c3d5a1a" x="70.08765" y="126.08765" width="29.91235" height="29.91235"/></clipPath><clipPath id="6f31e17c-695e-4383-94ce-a9b824ff6027"><rect class="ff7440ad-a777-45eb-932a-686b1c3d5a1a" x="8.2462" y="29.91235" width="13.41995" height="15.62453"/></clipPath><clipPath id="ab28c414-4eb7-4a74-b5e1-0d02a83673e8"><rect class="ff7440ad-a777-45eb-932a-686b1c3d5a1a" x="6.32111" y="29.04849" width="17.27228" height="17.27228"/></clipPath><clipPath id="87b66cc2-28a2-49d7-8cae-6763f9884ad8"><rect class="ff7440ad-a777-45eb-932a-686b1c3d5a1a" x="78.33385" y="110.46313" width="13.41995" height="15.62453"/></clipPath><clipPath id="428d7355-3613-4438-8375-10d5cd9b53d8"><rect class="ff7440ad-a777-45eb-932a-686b1c3d5a1a" x="76.40661" y="109.67923" width="17.27228" height="17.27228"/></clipPath><clipPath id="3bb91f92-9085-46b9-90b1-a222c4d43042"><rect class="ff7440ad-a777-45eb-932a-686b1c3d5a1a" x="27" y="14.95617" width="15.26852" height="17.77676"/></clipPath><clipPath id="e538791e-be8c-4871-b5ac-650336874ffe"><rect class="ff7440ad-a777-45eb-932a-686b1c3d5a1a" x="24.80973" y="13.97332" width="19.65149" height="19.65149"/></clipPath><clipPath id="8ef247aa-cf97-4528-a8a1-8a8ad10f47a6"><rect class="ff7440ad-a777-45eb-932a-686b1c3d5a1a" x="27" y="49.52028" width="15.26852" height="17.77676"/></clipPath><clipPath id="77a9e064-c716-4b6e-9077-42c703de0e23"><rect class="ff7440ad-a777-45eb-932a-686b1c3d5a1a" x="24.80973" y="48.53742" width="19.65149" height="19.65149"/></clipPath><clipPath id="9e81c839-cb6f-4e66-96c0-35e44d5f1991"><rect class="ff7440ad-a777-45eb-932a-686b1c3d5a1a" x="57.73148" y="118.64849" width="15.26852" height="17.77676"/></clipPath><clipPath id="733d89c9-d48d-49ec-81b2-b42db764d02e"><rect class="ff7440ad-a777-45eb-932a-686b1c3d5a1a" x="55.53878" y="117.75662" width="19.65149" height="19.65149"/></clipPath><clipPath id="b5bc1793-e806-4c6b-a6c5-afb0581a8273"><rect class="ff7440ad-a777-45eb-932a-686b1c3d5a1a" x="57.73148" y="84.08439" width="15.26852" height="17.77676"/></clipPath><clipPath id="00a278dd-6b84-4ab0-8a52-556f7a08541d"><rect class="ff7440ad-a777-45eb-932a-686b1c3d5a1a" x="55.53878" y="83.19252" width="19.65149" height="19.65149"/></clipPath><clipPath id="f73c760f-aec3-49ff-92a5-550d72f1967e"><rect class="ff7440ad-a777-45eb-932a-686b1c3d5a1a" x="57.73148" y="14.95617" width="15.26852" height="17.77676"/></clipPath><clipPath id="6f0cccf1-c7c5-440d-b3f7-86ff56a519d8"><rect class="ff7440ad-a777-45eb-932a-686b1c3d5a1a" x="55.54122" y="13.97332" width="19.65149" height="19.65149"/></clipPath><clipPath id="a04018d4-82c0-4828-8bc9-9162227c7be8"><rect class="ff7440ad-a777-45eb-932a-686b1c3d5a1a" x="42.36574" y="32.73293" width="15.26852" height="17.77676"/></clipPath><clipPath id="c841848f-5d1f-42d3-a423-34bb7c0bb511"><rect class="ff7440ad-a777-45eb-932a-686b1c3d5a1a" x="40.17548" y="31.75008" width="19.65149" height="19.65149"/></clipPath><clipPath id="b4b7aa45-488e-4923-8ecd-c4ba1ac8cf29"><rect class="ff7440ad-a777-45eb-932a-686b1c3d5a1a" x="57.73148" y="49.52028" width="15.26852" height="17.77676"/></clipPath><clipPath id="4862af5a-7fdd-4510-85da-269a3a255a85"><rect class="ff7440ad-a777-45eb-932a-686b1c3d5a1a" x="55.54122" y="48.53742" width="19.65149" height="19.65149"/></clipPath><clipPath id="117a67a8-6d79-45a6-98a2-6cc5d19b51f7"><rect class="ff7440ad-a777-45eb-932a-686b1c3d5a1a" x="27" y="118.64849" width="15.26852" height="17.77676"/></clipPath><clipPath id="3932a9e2-bb71-4122-b23b-3ac56ee5dcd3"><rect class="ff7440ad-a777-45eb-932a-686b1c3d5a1a" x="24.80729" y="117.75662" width="19.65149" height="19.65149"/></clipPath><clipPath id="c866488d-2081-4223-97c6-9e0ffee44e50"><rect class="ff7440ad-a777-45eb-932a-686b1c3d5a1a" x="42.36574" y="100.87173" width="15.26852" height="17.77676"/></clipPath><clipPath id="e07e4e78-a8f8-4aee-91b8-4d4d3c65b1c3"><rect class="ff7440ad-a777-45eb-932a-686b1c3d5a1a" x="40.17304" y="99.97986" width="19.65149" height="19.65149"/></clipPath><clipPath id="1ca62b51-270e-46c0-a796-8ba5d2f0d130"><rect class="ff7440ad-a777-45eb-932a-686b1c3d5a1a" x="27" y="84.08439" width="15.26852" height="17.77676"/></clipPath><clipPath id="6bb7cf42-7f64-4177-91b9-f1be19be0f94"><rect class="ff7440ad-a777-45eb-932a-686b1c3d5a1a" x="24.80729" y="83.19252" width="19.65149" height="19.65149"/></clipPath></defs><title>10</title><rect class="d50476bd-7c73-41c9-ab99-be5de9c7f4be" x="0.5" y="0.5" width="99" height="155" rx="5.5" ry="5.5"/><path class="a6fdb9c2-4873-414c-a83f-f62d550ae7c0" d="M94,1a5.00567,5.00567,0,0,1,5,5V150a5.00567,5.00567,0,0,1-5,5H6a5.00567,5.00567,0,0,1-5-5V6A5.00567,5.00567,0,0,1,6,1H94m0-1H6A6,6,0,0,0,0,6V150a6,6,0,0,0,6,6H94a6,6,0,0,0,6-6V6a6,6,0,0,0-6-6Z"/><g class="6226b2f4-9e33-414b-9a9f-cf8c5aa9e40a"><g class="6226b2f4-9e33-414b-9a9f-cf8c5aa9e40a"><path d="M4.25,9.77734a2.43964,2.43964,0,0,0-.84131-.89746V8.68359q1.59814-.64453,3.2666-1.416,1.66846-.77124,3.127-1.50049l.19629.14014q-.11206,1.85083-.16846,3.65967-.0564,1.80908-.05566,3.65967v4.68311q0,1.85083.05566,3.63184.0564,1.78052.16846,3.49121a3.98406,3.98406,0,0,0-.65918-.05615H8.02148a3.98406,3.98406,0,0,0-.65918.05615q.14063-1.73877.18262-3.50537.04175-1.7666.042-3.61768V7.92676Z"/><path d="M13.11133,15.77832a19.86847,19.86847,0,0,1,.33643-3.74365A9.46639,9.46639,0,0,1,14.55566,8.978a5.92578,5.92578,0,0,1,2.0332-2.0752,5.81213,5.81213,0,0,1,3.08447-.771,6.30148,6.30148,0,0,1,3.29492.771A5.55686,5.55686,0,0,1,24.97363,8.978a8.99427,8.99427,0,0,1,.99512,3.05664,24.92032,24.92032,0,0,1,.2666,3.74365,16.64294,16.64294,0,0,1-.39258,3.67383,10.187,10.187,0,0,1-1.19189,3.05664,6.086,6.086,0,0,1-2.0332,2.0752,5.51986,5.51986,0,0,1-2.94434.75732,6.58757,6.58757,0,0,1-3.29492-.72949A5.23819,5.23819,0,0,1,14.373,22.5791a8.96952,8.96952,0,0,1-.99512-3.05664A24.85354,24.85354,0,0,1,13.11133,15.77832Zm2.29932,0a26.50886,26.50886,0,0,0,.21045,3.44922,10.52738,10.52738,0,0,0,.71533,2.77637A4.79764,4.79764,0,0,0,17.6543,23.855a3.05979,3.05979,0,0,0,2.019.67285,3.06161,3.06161,0,0,0,2.019-.67285,4.80271,4.80271,0,0,0,1.31787-1.85107,10.52738,10.52738,0,0,0,.71533-2.77637,26.50886,26.50886,0,0,0,.21045-3.44922,26.51429,26.51429,0,0,0-.21045-3.44922,10.52857,10.52857,0,0,0-.71533-2.77588,4.799,4.799,0,0,0-1.31787-1.85107,3.06161,3.06161,0,0,0-2.019-.67285,3.24391,3.24391,0,0,0-2.019.6167,4.35183,4.35183,0,0,0-1.31787,1.7666,10.14822,10.14822,0,0,0-.71533,2.76221A28.05816,28.05816,0,0,0,15.41064,15.77832Z"/></g></g><g class="72a1d879-3fa7-43d7-af61-61f951861109"><g class="72a1d879-3fa7-43d7-af61-61f951861109"><path d="M95.751,146.22266a2.42923,2.42923,0,0,0,.8418.89746v.19629q-1.59814.64453-3.26758,1.416-1.667.77051-3.127,1.5l-.19629-.13965q.11279-1.85156.16895-3.66016.05566-1.80762.05566-3.65918v-4.68359q0-1.8501-.05566-3.63086-.05566-1.78125-.16895-3.49121a4.04044,4.04044,0,0,0,.65918.05566h1.31836a4.04044,4.04044,0,0,0,.65918-.05566q-.14062,1.7373-.18262,3.50488-.04248,1.7666-.042,3.61719v9.9834Z"/><path d="M86.88965,140.22168a19.81431,19.81431,0,0,1-.33691,3.74316,9.47621,9.47621,0,0,1-1.10742,3.05664,5.92192,5.92192,0,0,1-2.0332,2.0752,5.80627,5.80627,0,0,1-3.085.77148,6.29326,6.29326,0,0,1-3.29492-.77148,5.54129,5.54129,0,0,1-2.00488-2.0752,8.97347,8.97347,0,0,1-.99609-3.05664,25.03317,25.03317,0,0,1-.2666-3.74316,16.64226,16.64226,0,0,1,.39355-3.67383,10.16594,10.16594,0,0,1,1.19141-3.05664,6.0948,6.0948,0,0,1,2.0332-2.0752,5.51968,5.51968,0,0,1,2.94434-.75684,6.59956,6.59956,0,0,1,3.29492.72852,5.2382,5.2382,0,0,1,2.00488,2.0332,8.98056,8.98056,0,0,1,.99609,3.05664A24.90812,24.90812,0,0,1,86.88965,140.22168Zm-2.2998,0a26.4144,26.4144,0,0,0-.21094-3.44922,10.5141,10.5141,0,0,0-.71484-2.77637,4.7912,4.7912,0,0,0-1.31738-1.85059,3.36328,3.36328,0,0,0-4.03906,0,4.7912,4.7912,0,0,0-1.31738,1.85059,10.5141,10.5141,0,0,0-.71484,2.77637,28.306,28.306,0,0,0,0,6.89844,10.5141,10.5141,0,0,0,.71484,2.77637,4.7912,4.7912,0,0,0,1.31738,1.85059,3.06646,3.06646,0,0,0,2.01953.67285,3.24659,3.24659,0,0,0,2.01953-.61719,4.34437,4.34437,0,0,0,1.31738-1.7666,10.12746,10.12746,0,0,0,.71484-2.76172A27.95929,27.95929,0,0,0,84.58984,140.22168Z"/></g></g><g class="f4e29e7e-401f-4890-9392-d046bc71d0b9"><g class="e66a79b8-1c16-4ffe-8f69-612bac1e1429"><path d="M15.10727,30.00235a.20294.20294,0,0,0-.30227,0C11.92148,33.206,8.2462,35.113,8.2462,39.135c0,3.995,4.27415,4.70811,6.54687,1.65531a.20281.20281,0,0,1,.32622,0c2.27259,3.05281,6.54687,2.33972,6.54687-1.65531,0-4.022-3.67535-5.929-6.55888-9.13265"/><path d="M14.85,39.71254a10.74666,10.74666,0,0,1-2.57991,5.64358.10746.10746,0,0,0,.079.18075h5.21407a.10747.10747,0,0,0,.079-.18075,10.74666,10.74666,0,0,1-2.57991-5.64358.10731.10731,0,0,0-.21226,0"/></g></g><g class="9845ae10-9972-4eed-a35e-ac5aed16cd43"><g class="53b44206-3583-44c2-b9e8-453eb569a7c2"><path d="M84.89273,125.99765a.20294.20294,0,0,0,.30227,0c2.88353-3.20367,6.55881-5.11064,6.55881-9.13265,0-3.995-4.27415-4.70811-6.54687-1.65531a.20281.20281,0,0,1-.32622,0c-2.27259-3.05281-6.54687-2.33972-6.54687,1.65531,0,4.022,3.67535,5.929,6.55888,9.13265"/><path d="M85.15,116.28746a10.74666,10.74666,0,0,1,2.57991-5.64358.10746.10746,0,0,0-.079-.18075H82.43683a.10747.10747,0,0,0-.079.18075,10.74666,10.74666,0,0,1,2.57991,5.64358.10731.10731,0,0,0,.21226,0"/></g></g><g class="f1e8d9b7-efe9-4f05-8c43-906821d5b5ed"><g class="a4a004c5-6720-4276-8577-8a761aa09829"><path d="M34.80617,15.05858a.23089.23089,0,0,0-.3439,0C31.18154,18.70355,27,20.87319,27,25.44922c0,4.54533,4.8629,5.35664,7.44868,1.88332a.23075.23075,0,0,1,.37115,0c2.58563,3.47332,7.44868,2.662,7.44868-1.88332,0-4.576-4.18162-6.74568-7.46234-10.39065"/><path d="M34.51347,26.10631a12.227,12.227,0,0,1-2.93529,6.421.12226.12226,0,0,0,.08989.20565h5.93229a.12228.12228,0,0,0,.08989-.20565,12.227,12.227,0,0,1-2.93529-6.421.12209.12209,0,0,0-.2415,0"/></g></g><g class="d282973b-2485-455d-b71a-7b2b31300368"><g class="0828ee6c-babf-4792-9d95-f1961b958db7"><path d="M34.80617,49.62268a.23089.23089,0,0,0-.3439,0C31.18154,53.26765,27,55.4373,27,60.01333c0,4.54533,4.8629,5.35664,7.44868,1.88332a.23075.23075,0,0,1,.37115,0c2.58563,3.47332,7.44868,2.662,7.44868-1.88332,0-4.576-4.18162-6.74568-7.46234-10.39065"/><path d="M34.51347,60.67042a12.227,12.227,0,0,1-2.93529,6.421.12226.12226,0,0,0,.08989.20565h5.93229a.12228.12228,0,0,0,.08989-.20565,12.227,12.227,0,0,1-2.93529-6.421.12209.12209,0,0,0-.2415,0"/></g></g><g class="f34e9eb9-aaf2-41c8-9994-ca7eb4cf8b74"><g class="ac6e6eb6-0180-4868-80a1-84a943c39301"><path d="M65.19383,136.32285a.23089.23089,0,0,0,.3439,0C68.81846,132.67788,73,130.50823,73,125.9322c0-4.54533-4.8629-5.35664-7.44868-1.88332a.23075.23075,0,0,1-.37115,0c-2.58563-3.47332-7.44868-2.662-7.44868,1.88332,0,4.576,4.18162,6.74568,7.46234,10.39065"/><path d="M65.48653,125.27511a12.227,12.227,0,0,1,2.93529-6.421.12226.12226,0,0,0-.08989-.20565H62.39963a.12228.12228,0,0,0-.08989.20565,12.227,12.227,0,0,1,2.93529,6.421.12209.12209,0,0,0,.2415,0"/></g></g><g class="20a62be5-e742-4efc-887c-d35173fad976"><g class="f2dc32ac-3958-46db-a6bb-9a9d21c644ba"><path d="M65.19383,101.75874a.23089.23089,0,0,0,.3439,0C68.81846,98.11378,73,95.94413,73,91.3681c0-4.54533-4.8629-5.35664-7.44868-1.88332a.23075.23075,0,0,1-.37115,0c-2.58563-3.47332-7.44868-2.662-7.44868,1.88332,0,4.576,4.18162,6.74568,7.46234,10.39065"/><path d="M65.48653,90.711a12.227,12.227,0,0,1,2.93529-6.421.12226.12226,0,0,0-.08989-.20565H62.39963a.12228.12228,0,0,0-.08989.20565A12.227,12.227,0,0,1,65.245,90.711a.12209.12209,0,0,0,.2415,0"/></g></g><g class="bfee8f6b-df3a-4c33-b18d-d1ce1ac94202"><g class="941a252c-2dd5-4727-8f9e-8427acb73b3b"><path d="M65.53765,15.05858a.23089.23089,0,0,0-.3439,0c-3.28072,3.645-7.46227,5.81462-7.46227,10.39065,0,4.54533,4.8629,5.35664,7.44868,1.88332a.23075.23075,0,0,1,.37115,0C68.13695,30.80587,73,29.99455,73,25.44922c0-4.576-4.18162-6.74568-7.46234-10.39065"/><path d="M65.245,26.10631a12.227,12.227,0,0,1-2.93529,6.421.12226.12226,0,0,0,.08989.20565h5.93229a.12228.12228,0,0,0,.08989-.20565,12.227,12.227,0,0,1-2.93529-6.421.12209.12209,0,0,0-.2415,0"/></g></g><g class="4772db4b-8d2d-4abd-b1e7-641fd38980c7"><g class="6974d586-7e4a-4c73-90c7-e7fdfa1eea54"><path d="M50.17191,32.83534a.23089.23089,0,0,0-.3439,0c-3.28072,3.645-7.46227,5.81462-7.46227,10.39065,0,4.54533,4.8629,5.35664,7.44868,1.88332a.23075.23075,0,0,1,.37115,0c2.58563,3.47332,7.44868,2.662,7.44868-1.88332,0-4.576-4.18162-6.74568-7.46234-10.39065"/><path d="M49.87921,43.88308a12.227,12.227,0,0,1-2.93529,6.421.12226.12226,0,0,0,.08989.20565h5.93229A.12228.12228,0,0,0,53.056,50.304a12.227,12.227,0,0,1-2.93529-6.421.12209.12209,0,0,0-.2415,0"/></g></g><g class="19f574cf-d543-4b19-9d2a-7cbe3ca91cb5"><g class="f3b1b7dc-98d2-44cb-9b7c-0d7e666bb93b"><path d="M65.53765,49.62268a.23089.23089,0,0,0-.3439,0c-3.28072,3.645-7.46227,5.81462-7.46227,10.39065,0,4.54533,4.8629,5.35664,7.44868,1.88332a.23075.23075,0,0,1,.37115,0C68.13695,65.37,73,64.55866,73,60.01333c0-4.576-4.18162-6.74568-7.46234-10.39065"/><path d="M65.245,60.67042a12.227,12.227,0,0,1-2.93529,6.421.12226.12226,0,0,0,.08989.20565h5.93229a.12228.12228,0,0,0,.08989-.20565,12.227,12.227,0,0,1-2.93529-6.421.12209.12209,0,0,0-.2415,0"/></g></g><g class="e631a2cd-b24c-4e6d-9485-565bca779a56"><g class="2f6f749f-6bd8-40d7-aa08-1418cc5bef8a"><path d="M34.46235,136.32285a.23089.23089,0,0,0,.3439,0c3.28072-3.645,7.46227-5.81462,7.46227-10.39065,0-4.54533-4.8629-5.35664-7.44868-1.88332a.23075.23075,0,0,1-.37115,0C31.86305,120.57556,27,121.38687,27,125.9322c0,4.576,4.18162,6.74568,7.46234,10.39065"/><path d="M34.755,125.27511a12.227,12.227,0,0,1,2.93529-6.421.12226.12226,0,0,0-.08989-.20565H31.66815a.12228.12228,0,0,0-.08989.20565,12.227,12.227,0,0,1,2.93529,6.421.12209.12209,0,0,0,.2415,0"/></g></g><g class="68e26390-641f-4a42-9a1c-96e647c6ae97"><g class="12010e02-20af-44e3-b7cd-d8e6724c8424"><path d="M49.82809,118.54609a.23089.23089,0,0,0,.3439,0c3.28072-3.645,7.46227-5.81462,7.46227-10.39065,0-4.54533-4.8629-5.35664-7.44868-1.88332a.23075.23075,0,0,1-.37115,0c-2.58563-3.47332-7.44868-2.662-7.44868,1.88332,0,4.576,4.18162,6.74568,7.46234,10.39065"/><path d="M50.12079,107.49835a12.227,12.227,0,0,1,2.93529-6.421.12226.12226,0,0,0-.08989-.20565H47.03389a.12228.12228,0,0,0-.08989.20565,12.227,12.227,0,0,1,2.93529,6.421.12209.12209,0,0,0,.2415,0"/></g></g><g class="124b5d21-09ad-4355-8b3f-7893c61b909e"><g class="88aa4293-523d-4dc6-b853-4188db4a70a6"><path d="M34.46235,101.75874a.23089.23089,0,0,0,.3439,0c3.28072-3.645,7.46227-5.81462,7.46227-10.39065,0-4.54533-4.8629-5.35664-7.44868-1.88332a.23075.23075,0,0,1-.37115,0C31.86305,86.01145,27,86.82277,27,91.3681c0,4.576,4.18162,6.74568,7.46234,10.39065"/><path d="M34.755,90.711a12.227,12.227,0,0,1,2.93529-6.421.12226.12226,0,0,0-.08989-.20565H31.66815a.12228.12228,0,0,0-.08989.20565,12.227,12.227,0,0,1,2.93529,6.421.12209.12209,0,0,0,.2415,0"/></g></g></svg>