<svg id="ff22fa41-313b-4ca3-92f4-c16f59939dbd" data-name="レイヤー 1" xmlns="http://www.w3.org/2000/svg" xmlns:xlink="http://www.w3.org/1999/xlink" viewBox="0 0 100 156"><defs><style>.\37 f34c677-cd26-4281-8db4-358ff76774c3{fill:none;}.\31 c3230b2-5d82-439b-9e4b-0c39ab33a3ff{fill:#fff;}.\30 f3341df-59bf-4d9f-b076-c2e5f32efb6b{fill:#7f7f7f;}.db706f04-8c41-47da-bc04-7c9f18a2b631{clip-path:url(#4739bef0-a7b9-4318-a653-fa16964fe72b);}.\30 61b4735-033c-4a12-8832-0dc323f3c101{clip-path:url(#af848387-c9e0-4c9c-a66b-f742d2dbfa25);}.\33 bd16bef-12f3-4a22-a556-d9b4e2f4fc0e{clip-path:url(#b1fd6131-a1f5-42e2-b8e6-c6c42443f74c);}.\39 ea18347-1038-4823-ac9d-2143f879b1af{clip-path:url(#7ab75837-f6b1-49d9-bc7a-06d7a112bd67);}.\35 0ca50b1-38b1-4e92-b7f9-918cca458dce{clip-path:url(#cc8064ac-26ef-4003-b00d-5a993d5abb41);}.\38 a541cd5-95e0-4f32-8852-1d887e13c966{clip-path:url(#675e1661-9cb1-41b7-914a-89b58ab4ab45);}.c243afad-ffe9-4663-88da-144d5e225770{clip-path:url(#4c670042-8598-43e7-8d76-e93c9d21fac6);}.\34 953f4da-c926-49db-832f-bcabc71da6e8{clip-path:url(#f5205219-82db-4993-a232-2bc4fe24280e);}.b77b32de-6516-4107-ba5d-6c3501c02df3{clip-path:url(#a863e4aa-cbc7-442f-89b6-996844d638f8);}.f6a722ea-d9a3-4eb2-9fb3-a8d7ce28badf{clip-path:url(#0cfff12e-f50e-4d2a-b112-e6ed0deeeac1);}</style><clipPath id="4739bef0-a7b9-4318-a653-fa16964fe72b"><rect class="7f34c677-cd26-4281-8db4-358ff76774c3" width="29.91235" height="29.91235"/></clipPath><clipPath id="af848387-c9e0-4c9c-a66b-f742d2dbfa25"><rect class="7f34c677-cd26-4281-8db4-358ff76774c3" x="70.08765" y="126.08765" width="29.91235" height="29.91235"/></clipPath><clipPath id="b1fd6131-a1f5-42e2-b8e6-c6c42443f74c"><rect class="7f34c677-cd26-4281-8db4-358ff76774c3" x="8.2462" y="29.91235" width="13.41995" height="15.62453"/></clipPath><clipPath id="7ab75837-f6b1-49d9-bc7a-06d7a112bd67"><rect class="7f34c677-cd26-4281-8db4-358ff76774c3" x="6.32111" y="29.04849" width="17.27228" height="17.27228"/></clipPath><clipPath id="cc8064ac-26ef-4003-b00d-5a993d5abb41"><rect class="7f34c677-cd26-4281-8db4-358ff76774c3" x="78.33385" y="110.46313" width="13.41995" height="15.62453"/></clipPath><clipPath id="675e1661-9cb1-41b7-914a-89b58ab4ab45"><rect class="7f34c677-cd26-4281-8db4-358ff76774c3" x="76.40661" y="109.67923" width="17.27228" height="17.27228"/></clipPath><clipPath id="4c670042-8598-43e7-8d76-e93c9d21fac6"><rect class="7f34c677-cd26-4281-8db4-358ff76774c3" x="42.36574" y="14.95617" width="15.26852" height="17.77676"/></clipPath><clipPath id="f5205219-82db-4993-a232-2bc4fe24280e"><rect class="7f34c677-cd26-4281-8db4-358ff76774c3" x="40.17548" y="13.97332" width="19.65149" height="19.65149"/></clipPath><clipPath id="a863e4aa-cbc7-442f-89b6-996844d638f8"><rect class="7f34c677-cd26-4281-8db4-358ff76774c3" x="42.36574" y="118.64849" width="15.26852" height="17.77676"/></clipPath><clipPath id="0cfff12e-f50e-4d2a-b112-e6ed0deeeac1"><rect class="7f34c677-cd26-4281-8db4-358ff76774c3" x="40.17304" y="117.75662" width="19.65149" height="19.65149"/></clipPath></defs><title>2</title><rect class="1c3230b2-5d82-439b-9e4b-0c39ab33a3ff" x="0.5" y="0.5" width="99" height="155" rx="5.5" ry="5.5"/><path class="0f3341df-59bf-4d9f-b076-c2e5f32efb6b" d="M94,1a5.00567,5.00567,0,0,1,5,5V150a5.00567,5.00567,0,0,1-5,5H6a5.00567,5.00567,0,0,1-5-5V6A5.00567,5.00567,0,0,1,6,1H94m0-1H6A6,6,0,0,0,0,6V150a6,6,0,0,0,6,6H94a6,6,0,0,0,6-6V6a6,6,0,0,0-6-6Z"/><g class="db706f04-8c41-47da-bc04-7c9f18a2b631"><g class="db706f04-8c41-47da-bc04-7c9f18a2b631"><path d="M11.08643,6.80469a6.19082,6.19082,0,0,1,3.001-.67285,7.53849,7.53849,0,0,1,2.0752.28027,4.30168,4.30168,0,0,1,2.832,2.43994,5.40021,5.40021,0,0,1,.4209,2.24316,6.78668,6.78668,0,0,1-.22461,1.78076,7.252,7.252,0,0,1-.65869,1.61279,10.576,10.576,0,0,1-1.09375,1.584q-.65918.7998-1.55664,1.69678l-1.23389,1.23389q-.70093.70166-1.416,1.44434-.71484.74341-1.35986,1.47217-.646.72949-1.09375,1.34619h2.66406q2.01855,0,3.5752-.07031,1.5564-.06958,2.73438-.1543a4.81482,4.81482,0,0,0-.14014,1.0376,4.02495,4.02495,0,0,0,.14014.95361q-1.51465-.0564-3.00049-.05615H10.73633q-1.50073,0-3.01465.05615v-.33643q1.96216-1.93506,3.40723-3.40723,1.4436-1.47217,2.45361-2.65039a22.11462,22.11462,0,0,0,1.64063-2.13086,11.45233,11.45233,0,0,0,.99512-1.80908,6.95328,6.95328,0,0,0,.49072-1.68262,11.7717,11.7717,0,0,0,.12646-1.78076A4.34365,4.34365,0,0,0,15.896,8.165a2.9352,2.9352,0,0,0-2.20117-.99561,3.42178,3.42178,0,0,0-1.54248.32227,3.60316,3.60316,0,0,0-1.06592.78516,3.49563,3.49563,0,0,0-.64453.99561,5.05427,5.05427,0,0,0-.30859.95361l-.19629.05615-.98145-1.374A5.86291,5.86291,0,0,1,11.08643,6.80469Z"/></g></g><g class="061b4735-033c-4a12-8832-0dc323f3c101"><g class="061b4735-033c-4a12-8832-0dc323f3c101"><path d="M88.91406,149.19531a6.195,6.195,0,0,1-3.001.67285,7.54359,7.54359,0,0,1-2.0752-.28027,4.30266,4.30266,0,0,1-2.832-2.43945,5.405,5.405,0,0,1-.4209-2.24414,6.78027,6.78027,0,0,1,.22461-1.78027,7.1854,7.1854,0,0,1,.65918-1.6123,10.535,10.535,0,0,1,1.09375-1.585q.65918-.79834,1.55566-1.69629.5332-.5332,1.23438-1.23437.70166-.7002,1.416-1.44336.71484-.74414,1.36035-1.47266.64453-.72949,1.09375-1.3457H86.55859q-2.02,0-3.57617.06934-1.55566.07031-2.7334.1543a4.80235,4.80235,0,0,0,.13965-1.03711,4.01415,4.01415,0,0,0-.13965-.95312q1.51318.05566,3,.05566h6.01563q1.5,0,3.01465-.05566v.33594q-1.96289,1.93506-3.40723,3.40723t-2.4541,2.65039a22.11462,22.11462,0,0,0-1.64062,2.13086,11.43112,11.43112,0,0,0-.99512,1.80859,6.96145,6.96145,0,0,0-.49121,1.68262,11.85376,11.85376,0,0,0-.126,1.78125,4.34528,4.34528,0,0,0,.93945,3.07031,2.939,2.939,0,0,0,2.20117.99609,3.42024,3.42024,0,0,0,1.543-.32324,3.58387,3.58387,0,0,0,1.06543-.78516,3.50015,3.50015,0,0,0,.64453-.99512,4.98081,4.98081,0,0,0,.30859-.95312l.19629-.05664.98145,1.374A5.86291,5.86291,0,0,1,88.91406,149.19531Z"/></g></g><g class="3bd16bef-12f3-4a22-a556-d9b4e2f4fc0e"><g class="9ea18347-1038-4823-ac9d-2143f879b1af"><path d="M15.10727,30.00235a.20294.20294,0,0,0-.30227,0C11.92148,33.206,8.2462,35.113,8.2462,39.135c0,3.995,4.27415,4.70811,6.54687,1.65531a.20281.20281,0,0,1,.32622,0c2.27259,3.05281,6.54687,2.33972,6.54687-1.65531,0-4.022-3.67535-5.929-6.55888-9.13265"/><path d="M14.85,39.71254a10.74666,10.74666,0,0,1-2.57991,5.64358.10746.10746,0,0,0,.079.18075h5.21407a.10747.10747,0,0,0,.079-.18075,10.74666,10.74666,0,0,1-2.57991-5.64358.10731.10731,0,0,0-.21226,0"/></g></g><g class="50ca50b1-38b1-4e92-b7f9-918cca458dce"><g class="8a541cd5-95e0-4f32-8852-1d887e13c966"><path d="M84.89273,125.99765a.20294.20294,0,0,0,.30227,0c2.88353-3.20367,6.55881-5.11064,6.55881-9.13265,0-3.995-4.27415-4.70811-6.54687-1.65531a.20281.20281,0,0,1-.32622,0c-2.27259-3.05281-6.54687-2.33972-6.54687,1.65531,0,4.022,3.67535,5.929,6.55888,9.13265"/><path d="M85.15,116.28746a10.74666,10.74666,0,0,1,2.57991-5.64358.10746.10746,0,0,0-.079-.18075H82.43683a.10747.10747,0,0,0-.079.18075,10.74666,10.74666,0,0,1,2.57991,5.64358.10731.10731,0,0,0,.21226,0"/></g></g><g class="c243afad-ffe9-4663-88da-144d5e225770"><g class="4953f4da-c926-49db-832f-bcabc71da6e8"><path d="M50.17191,15.05858a.23089.23089,0,0,0-.3439,0c-3.28072,3.645-7.46227,5.81462-7.46227,10.39065,0,4.54533,4.8629,5.35664,7.44868,1.88332a.23075.23075,0,0,1,.37115,0c2.58563,3.47332,7.44868,2.662,7.44868-1.88332,0-4.576-4.18162-6.74568-7.46234-10.39065"/><path d="M49.87921,26.10631a12.227,12.227,0,0,1-2.93529,6.421.12226.12226,0,0,0,.08989.20565h5.93229a.12228.12228,0,0,0,.08989-.20565,12.227,12.227,0,0,1-2.93529-6.421.12209.12209,0,0,0-.2415,0"/></g></g><g class="b77b32de-6516-4107-ba5d-6c3501c02df3"><g class="f6a722ea-d9a3-4eb2-9fb3-a8d7ce28badf"><path d="M49.82809,136.32285a.23089.23089,0,0,0,.3439,0c3.28072-3.645,7.46227-5.81462,7.46227-10.39065,0-4.54533-4.8629-5.35664-7.44868-1.88332a.23075.23075,0,0,1-.37115,0c-2.58563-3.47332-7.44868-2.662-7.44868,1.88332,0,4.576,4.18162,6.74568,7.46234,10.39065"/><path d="M50.12079,125.27511a12.227,12.227,0,0,1,2.93529-6.421.12226.12226,0,0,0-.08989-.20565H47.03389a.12228.12228,0,0,0-.08989.20565,12.227,12.227,0,0,1,2.93529,6.421.12209.12209,0,0,0,.2415,0"/></g></g></svg>