<svg id="9842365b-df0c-4a94-aace-cf00e182e9ef" data-name="レイヤー 1" xmlns="http://www.w3.org/2000/svg" xmlns:xlink="http://www.w3.org/1999/xlink" viewBox="0 0 100 156"><defs><style>.bd9aab42-397c-45c3-8f59-905ace690c2f{fill:none;}.e9b1e497-a59c-4cf3-b172-c194e648616a{fill:#fff;}.\35 f3e1ce4-e515-46c8-957a-778c3092bf49{fill:#7f7f7f;}.abdc17fd-f566-45a4-8dd2-2a7e9dfc8d51{clip-path:url(#10504b1b-6f9b-4bb2-bc12-2afa6b0ceb48);}.e89279f8-85cb-4261-9821-2fdcd96b4573{clip-path:url(#abb4ae49-fec1-47d3-92ad-38f4d3ad3871);}.\33 db1ed91-3af7-4fe7-946f-bdea5511e390{clip-path:url(#541d1d1d-2514-477b-a2a0-15c02c0bcb0f);}.e515ff36-b594-400d-9f2e-b572f335e9ca{clip-path:url(#c6349a66-6774-47fd-b9d2-4969f5814010);}.f011f8a1-2c5d-4076-a90e-58a85e7ed7e8{clip-path:url(#d0101a01-ac81-44d9-8284-7b2517dd86a6);}.\31 24e2c5f-d43a-4e16-9474-61dd3970c3b4{clip-path:url(#2a5698e7-c5a3-460b-9290-da5ff00c1cb8);}.\31 4c0de1f-c09e-4f14-b487-f1b739c3ac95{clip-path:url(#b674b26f-c12c-4524-b137-e3e684dfcda4);}.e9fcc05c-28dc-4f09-a7cc-5733fb106168{clip-path:url(#cbd51ccd-ef56-437f-9f1f-f602d201c985);}.\34 a50db36-eb5e-4071-b88d-ee759380e77e{clip-path:url(#a03d15b4-e2cd-4f53-8097-bcf9ebf6e808);}.dc83b738-9018-4e12-a74b-f2bb2a0ef38e{clip-path:url(#23cfd5cd-7c9b-4388-98d8-1b9dae1edcd9);}.\33 7d15c43-f8bf-4164-a920-7cc1c747392e{clip-path:url(#00abbc1c-66a7-4967-8da8-5b95da5227cd);}.\38 1ba331c-c21d-4095-ab31-b204125e986e{clip-path:url(#0f4393c1-0422-438c-be9b-19f936df047e);}.\32 e331675-1137-4c44-bd96-89f2112b179b{clip-path:url(#37298a05-42fd-43fa-b245-c452f22ab46a);}.\33 73f37de-a97a-43b0-8300-4b24ce5e1791{clip-path:url(#2cbe0c06-d2bb-428b-a03c-fa1f6fec61df);}.c890105d-30d4-4a58-b3e1-7376fc8f9294{clip-path:url(#4da46c0f-8a3f-440f-98d4-3fea6fe202cb);}.\30 7398b5c-0ed6-487e-a930-4453443e69b2{clip-path:url(#d50e28d4-c537-4cd3-88ce-c39f41e3accc);}.\33 fbd0505-5b3d-4f45-a485-6b672d5eef9f{clip-path:url(#8269a37c-ffae-48d8-a9ae-49b882704ecc);}.\37 12979f5-b08b-4f8c-b72c-7c60cb16c2da{clip-path:url(#5e6701b6-e7f5-4b66-b8d2-1c7f008c6371);}.ea07b669-cf87-4159-a10d-75e400383dd6{clip-path:url(#816abcc6-7807-4e92-a51a-f2e137bd09c8);}.\37 e02282c-a19c-4797-9ca6-418a33e64bd5{clip-path:url(#47053cfd-d77c-41e7-bea2-740b821dc9a6);}.\37 ab47884-78a8-4242-b22e-fe96b7b03b2a{clip-path:url(#43140f99-86f1-4339-9884-b37f5dfb44a0);}.\35 e960a54-a0e8-4a6c-8292-8ebed84c0935{clip-path:url(#6ada36af-380a-4889-b61b-8a839ad997c1);}</style><clipPath id="10504b1b-6f9b-4bb2-bc12-2afa6b0ceb48" transform="translate(0 0)"><rect class="bd9aab42-397c-45c3-8f59-905ace690c2f" width="29.91235" height="29.91235"/></clipPath><clipPath id="abb4ae49-fec1-47d3-92ad-38f4d3ad3871" transform="translate(0 0)"><rect class="bd9aab42-397c-45c3-8f59-905ace690c2f" x="70.08765" y="126.08765" width="29.91235" height="29.91235"/></clipPath><clipPath id="541d1d1d-2514-477b-a2a0-15c02c0bcb0f" transform="translate(0 0)"><rect class="bd9aab42-397c-45c3-8f59-905ace690c2f" x="8.2462" y="29.91235" width="13.41995" height="15.62453"/></clipPath><clipPath id="c6349a66-6774-47fd-b9d2-4969f5814010" transform="translate(0 0)"><rect class="bd9aab42-397c-45c3-8f59-905ace690c2f" x="6.32111" y="29.04849" width="17.27228" height="17.27228"/></clipPath><clipPath id="d0101a01-ac81-44d9-8284-7b2517dd86a6" transform="translate(0 0)"><rect class="bd9aab42-397c-45c3-8f59-905ace690c2f" x="78.33385" y="110.46313" width="13.41995" height="15.62453"/></clipPath><clipPath id="2a5698e7-c5a3-460b-9290-da5ff00c1cb8" transform="translate(0 0)"><rect class="bd9aab42-397c-45c3-8f59-905ace690c2f" x="76.40661" y="109.67923" width="17.27228" height="17.27228"/></clipPath><clipPath id="b674b26f-c12c-4524-b137-e3e684dfcda4" transform="translate(0 0)"><rect class="bd9aab42-397c-45c3-8f59-905ace690c2f" x="27" y="14.95617" width="15.26852" height="17.77676"/></clipPath><clipPath id="cbd51ccd-ef56-437f-9f1f-f602d201c985" transform="translate(0 0)"><rect class="bd9aab42-397c-45c3-8f59-905ace690c2f" x="24.80973" y="13.97332" width="19.65149" height="19.65149"/></clipPath><clipPath id="a03d15b4-e2cd-4f53-8097-bcf9ebf6e808" transform="translate(0 0)"><rect class="bd9aab42-397c-45c3-8f59-905ace690c2f" x="27" y="66.80233" width="15.26852" height="17.77676"/></clipPath><clipPath id="23cfd5cd-7c9b-4388-98d8-1b9dae1edcd9" transform="translate(0 0)"><rect class="bd9aab42-397c-45c3-8f59-905ace690c2f" x="24.80973" y="65.81948" width="19.65149" height="19.65149"/></clipPath><clipPath id="00abbc1c-66a7-4967-8da8-5b95da5227cd" transform="translate(0 0)"><rect class="bd9aab42-397c-45c3-8f59-905ace690c2f" x="57.73148" y="118.64849" width="15.26852" height="17.77676"/></clipPath><clipPath id="0f4393c1-0422-438c-be9b-19f936df047e" transform="translate(0 0)"><rect class="bd9aab42-397c-45c3-8f59-905ace690c2f" x="55.53878" y="117.75662" width="19.65149" height="19.65149"/></clipPath><clipPath id="37298a05-42fd-43fa-b245-c452f22ab46a" transform="translate(0 0)"><rect class="bd9aab42-397c-45c3-8f59-905ace690c2f" x="42.36617" y="40.87881" width="15.26852" height="17.77676"/></clipPath><clipPath id="2cbe0c06-d2bb-428b-a03c-fa1f6fec61df" transform="translate(0 0)"><rect class="bd9aab42-397c-45c3-8f59-905ace690c2f" x="40.1759" y="39.89596" width="19.65149" height="19.65149"/></clipPath><clipPath id="4da46c0f-8a3f-440f-98d4-3fea6fe202cb" transform="translate(0 0)"><rect class="bd9aab42-397c-45c3-8f59-905ace690c2f" x="57.73148" y="14.95617" width="15.26852" height="17.77676"/></clipPath><clipPath id="d50e28d4-c537-4cd3-88ce-c39f41e3accc" transform="translate(0 0)"><rect class="bd9aab42-397c-45c3-8f59-905ace690c2f" x="55.54122" y="13.97332" width="19.65149" height="19.65149"/></clipPath><clipPath id="8269a37c-ffae-48d8-a9ae-49b882704ecc" transform="translate(0 0)"><rect class="bd9aab42-397c-45c3-8f59-905ace690c2f" x="57.73148" y="66.80233" width="15.26852" height="17.77676"/></clipPath><clipPath id="5e6701b6-e7f5-4b66-b8d2-1c7f008c6371" transform="translate(0 0)"><rect class="bd9aab42-397c-45c3-8f59-905ace690c2f" x="55.54122" y="65.81948" width="19.65149" height="19.65149"/></clipPath><clipPath id="816abcc6-7807-4e92-a51a-f2e137bd09c8" transform="translate(0 0)"><rect class="bd9aab42-397c-45c3-8f59-905ace690c2f" x="27" y="118.64849" width="15.26852" height="17.77676"/></clipPath><clipPath id="47053cfd-d77c-41e7-bea2-740b821dc9a6" transform="translate(0 0)"><rect class="bd9aab42-397c-45c3-8f59-905ace690c2f" x="24.80729" y="117.75662" width="19.65149" height="19.65149"/></clipPath><clipPath id="43140f99-86f1-4339-9884-b37f5dfb44a0" transform="translate(0 0)"><rect class="bd9aab42-397c-45c3-8f59-905ace690c2f" x="42.36574" y="92.72541" width="15.26852" height="17.77676"/></clipPath><clipPath id="6ada36af-380a-4889-b61b-8a839ad997c1" transform="translate(0 0)"><rect class="bd9aab42-397c-45c3-8f59-905ace690c2f" x="40.17304" y="91.83354" width="19.65149" height="19.65149"/></clipPath></defs><title>8</title><rect class="e9b1e497-a59c-4cf3-b172-c194e648616a" x="0.5" y="0.5" width="99" height="155" rx="5.5" ry="5.5"/><path class="5f3e1ce4-e515-46c8-957a-778c3092bf49" d="M94,1a5.00567,5.00567,0,0,1,5,5V150a5.00567,5.00567,0,0,1-5,5H6a5.00567,5.00567,0,0,1-5-5V6A5.00567,5.00567,0,0,1,6,1H94m0-1H6A6,6,0,0,0,0,6V150a6,6,0,0,0,6,6H94a6,6,0,0,0,6-6V6a6,6,0,0,0-6-6Z" transform="translate(0 0)"/><g class="abdc17fd-f566-45a4-8dd2-2a7e9dfc8d51"><g class="abdc17fd-f566-45a4-8dd2-2a7e9dfc8d51"><path d="M8.70313,19.957a5.6004,5.6004,0,0,1,.93945-3.14111A5.74015,5.74015,0,0,1,12.769,14.65674v-.19629a3.56585,3.56585,0,0,1-1.07959-.43457,4.30329,4.30329,0,0,1-.99561-.81348,3.94608,3.94608,0,0,1-.729-1.16357,3.75139,3.75139,0,0,1-.28027-1.458A3.91412,3.91412,0,0,1,10.063,8.894a4.44828,4.44828,0,0,1,1.06592-1.416,5.1767,5.1767,0,0,1,1.6543-.98145,6.12265,6.12265,0,0,1,2.17334-.36475,7.37183,7.37183,0,0,1,2.41162.35059,4.99772,4.99772,0,0,1,1.65479.91113,3.64668,3.64668,0,0,1,.96729,1.3042,3.87139,3.87139,0,0,1,.32227,1.55615,4.22268,4.22268,0,0,1-.79883,2.48193,4.44616,4.44616,0,0,1-2.3418,1.64063v.19629a6.74476,6.74476,0,0,1,1.17773.35059,4.45168,4.45168,0,0,1,1.332.813A4.50432,4.50432,0,0,1,21.21,19.312a6.23345,6.23345,0,0,1-.49072,2.52393,5.75352,5.75352,0,0,1-1.3457,1.9209,5.52907,5.52907,0,0,1-1.99121,1.19189,7.38831,7.38831,0,0,1-2.42578.39258,9.10882,9.10882,0,0,1-2.46777-.32275,5.303,5.303,0,0,1-1.99121-1.02344,4.95132,4.95132,0,0,1-1.31787-1.71045A5.39219,5.39219,0,0,1,8.70313,19.957Zm10.03906-.14014a6.35954,6.35954,0,0,0-.26611-1.89307,4.66927,4.66927,0,0,0-.75732-1.48633,3.49422,3.49422,0,0,0-5.52441,0,4.64943,4.64943,0,0,0-.75732,1.48633,6.86473,6.86473,0,0,0,0,3.78564,4.63925,4.63925,0,0,0,.75732,1.48633,3.49422,3.49422,0,0,0,5.52441,0,4.659,4.659,0,0,0,.75732-1.48633A6.35161,6.35161,0,0,0,18.74219,19.81689Zm-.729-9.19824a5.42162,5.42162,0,0,0-.16846-1.374,3.12828,3.12828,0,0,0-.54639-1.13574,2.83949,2.83949,0,0,0-.93945-.78516,2.93189,2.93189,0,0,0-1.37451-.29443,2.946,2.946,0,0,0-1.35986.29443,2.657,2.657,0,0,0-.93945.78516,3.26237,3.26237,0,0,0-.53271,1.13574,5.63011,5.63011,0,0,0,0,2.73389,3.25079,3.25079,0,0,0,.53271,1.1499,2.657,2.657,0,0,0,.93945.78516,2.946,2.946,0,0,0,1.35986.29443,2.93189,2.93189,0,0,0,1.37451-.29443,2.83949,2.83949,0,0,0,.93945-.78516,3.11856,3.11856,0,0,0,.54639-1.1499A5.46666,5.46666,0,0,0,18.01318,10.61865Z" transform="translate(0 0)"/></g></g><g class="e89279f8-85cb-4261-9821-2fdcd96b4573"><g class="e89279f8-85cb-4261-9821-2fdcd96b4573"><path d="M91.29785,136.043a5.60421,5.60421,0,0,1-.93945,3.14063,5.74018,5.74018,0,0,1-3.127,2.15918v.19629a3.5695,3.5695,0,0,1,1.0791.43555,4.26853,4.26853,0,0,1,.99609.8125,3.97025,3.97025,0,0,1,.72852,1.16406,3.74124,3.74124,0,0,1,.28125,1.458,3.92368,3.92368,0,0,1-.37891,1.69727,4.47734,4.47734,0,0,1-1.06543,1.416,5.18159,5.18159,0,0,1-1.65527.98145,6.14186,6.14186,0,0,1-2.17285.36426,7.39209,7.39209,0,0,1-2.41211-.35059,4.98264,4.98264,0,0,1-1.6543-.91113,3.64792,3.64792,0,0,1-.96777-1.30371,3.892,3.892,0,0,1-.32227-1.55664,4.22285,4.22285,0,0,1,.7998-2.48242,4.44021,4.44021,0,0,1,2.34082-1.63965v-.19629a6.90078,6.90078,0,0,1-1.17773-.35059,4.48573,4.48573,0,0,1-1.332-.81348,4.50633,4.50633,0,0,1-1.52832-3.5752,6.23589,6.23589,0,0,1,.49121-2.52441,5.76051,5.76051,0,0,1,1.3457-1.9209,5.53485,5.53485,0,0,1,1.99121-1.19141,7.37553,7.37553,0,0,1,2.42578-.39258,9.109,9.109,0,0,1,2.46777.32227,5.29963,5.29963,0,0,1,1.99121,1.02344,4.94139,4.94139,0,0,1,1.31738,1.71094A5.3814,5.3814,0,0,1,91.29785,136.043Zm-10.04.14063a6.34016,6.34016,0,0,0,.2666,1.89258,4.66842,4.66842,0,0,0,.75684,1.48633,3.49545,3.49545,0,0,0,5.52539,0,4.64858,4.64858,0,0,0,.75684-1.48633,6.85438,6.85438,0,0,0,0-3.78613,4.64858,4.64858,0,0,0-.75684-1.48633,3.49545,3.49545,0,0,0-5.52539,0,4.66842,4.66842,0,0,0-.75684,1.48633A6.34217,6.34217,0,0,0,81.25781,136.18359Zm.72949,9.19824a5.42733,5.42733,0,0,0,.168,1.374,3.1486,3.1486,0,0,0,.54688,1.13574,2.85119,2.85119,0,0,0,.93945.78516,3.32641,3.32641,0,0,0,2.73438,0,2.66713,2.66713,0,0,0,.93945-.78516,3.27562,3.27562,0,0,0,.5332-1.13574,5.648,5.648,0,0,0,0-2.73437,3.25792,3.25792,0,0,0-.5332-1.15039,2.657,2.657,0,0,0-.93945-.78516,3.32641,3.32641,0,0,0-2.73437,0,2.83949,2.83949,0,0,0-.93945.78516,3.133,3.133,0,0,0-.54687,1.15039A5.46461,5.46461,0,0,0,81.9873,145.38184Z" transform="translate(0 0)"/></g></g><g class="3db1ed91-3af7-4fe7-946f-bdea5511e390"><g class="e515ff36-b594-400d-9f2e-b572f335e9ca"><path d="M15.10727,30.00235a.20294.20294,0,0,0-.30227,0C11.92148,33.206,8.2462,35.113,8.2462,39.135c0,3.995,4.27415,4.70811,6.54687,1.65531a.20281.20281,0,0,1,.32622,0c2.27259,3.05281,6.54687,2.33972,6.54687-1.65531,0-4.022-3.67535-5.929-6.55888-9.13265" transform="translate(0 0)"/><path d="M14.85,39.71254a10.74666,10.74666,0,0,1-2.57991,5.64358.10746.10746,0,0,0,.079.18075h5.21407a.10747.10747,0,0,0,.079-.18075,10.74666,10.74666,0,0,1-2.57991-5.64358.10731.10731,0,0,0-.21226,0" transform="translate(0 0)"/></g></g><g class="f011f8a1-2c5d-4076-a90e-58a85e7ed7e8"><g class="124e2c5f-d43a-4e16-9474-61dd3970c3b4"><path d="M84.89273,125.99765a.20294.20294,0,0,0,.30227,0c2.88353-3.20367,6.55881-5.11064,6.55881-9.13265,0-3.995-4.27415-4.70811-6.54687-1.65531a.20281.20281,0,0,1-.32622,0c-2.27259-3.05281-6.54687-2.33972-6.54687,1.65531,0,4.022,3.67535,5.929,6.55888,9.13265" transform="translate(0 0)"/><path d="M85.15,116.28746a10.74666,10.74666,0,0,1,2.57991-5.64358.10746.10746,0,0,0-.079-.18075H82.43683a.10747.10747,0,0,0-.079.18075,10.74666,10.74666,0,0,1,2.57991,5.64358.10731.10731,0,0,0,.21226,0" transform="translate(0 0)"/></g></g><g class="14c0de1f-c09e-4f14-b487-f1b739c3ac95"><g class="e9fcc05c-28dc-4f09-a7cc-5733fb106168"><path d="M34.80617,15.05858a.23089.23089,0,0,0-.3439,0C31.18154,18.70355,27,20.87319,27,25.44922c0,4.54533,4.8629,5.35664,7.44868,1.88332a.23075.23075,0,0,1,.37115,0c2.58563,3.47332,7.44868,2.662,7.44868-1.88332,0-4.576-4.18162-6.74568-7.46234-10.39065" transform="translate(0 0)"/><path d="M34.51347,26.10631a12.227,12.227,0,0,1-2.93529,6.421.12226.12226,0,0,0,.08989.20565h5.93229a.12228.12228,0,0,0,.08989-.20565,12.227,12.227,0,0,1-2.93529-6.421.12209.12209,0,0,0-.2415,0" transform="translate(0 0)"/></g></g><g class="4a50db36-eb5e-4071-b88d-ee759380e77e"><g class="dc83b738-9018-4e12-a74b-f2bb2a0ef38e"><path d="M34.80617,66.90474a.23089.23089,0,0,0-.3439,0C31.18154,70.5497,27,72.71935,27,77.29538c0,4.54533,4.8629,5.35664,7.44868,1.88332a.23075.23075,0,0,1,.37115,0c2.58563,3.47332,7.44868,2.662,7.44868-1.88332,0-4.576-4.18162-6.74568-7.46234-10.39065" transform="translate(0 0)"/><path d="M34.51347,77.95247a12.227,12.227,0,0,1-2.93529,6.421.12226.12226,0,0,0,.08989.20565h5.93229a.12228.12228,0,0,0,.08989-.20565,12.227,12.227,0,0,1-2.93529-6.421.12209.12209,0,0,0-.2415,0" transform="translate(0 0)"/></g></g><g class="37d15c43-f8bf-4164-a920-7cc1c747392e"><g class="81ba331c-c21d-4095-ab31-b204125e986e"><path d="M65.19383,136.32285a.23089.23089,0,0,0,.3439,0C68.81846,132.67788,73,130.50823,73,125.9322c0-4.54533-4.8629-5.35664-7.44868-1.88332a.23075.23075,0,0,1-.37115,0c-2.58563-3.47332-7.44868-2.662-7.44868,1.88332,0,4.576,4.18162,6.74568,7.46234,10.39065" transform="translate(0 0)"/><path d="M65.48653,125.27511a12.227,12.227,0,0,1,2.93529-6.421.12226.12226,0,0,0-.08989-.20565H62.39963a.12228.12228,0,0,0-.08989.20565,12.227,12.227,0,0,1,2.93529,6.421.12209.12209,0,0,0,.2415,0" transform="translate(0 0)"/></g></g><g class="2e331675-1137-4c44-bd96-89f2112b179b"><g class="373f37de-a97a-43b0-8300-4b24ce5e1791"><path d="M50.17234,40.98122a.23089.23089,0,0,0-.3439,0c-3.28072,3.645-7.46227,5.81462-7.46227,10.39065,0,4.54533,4.8629,5.35664,7.44868,1.88332a.23075.23075,0,0,1,.37115,0c2.58563,3.47332,7.44868,2.662,7.44868-1.88332,0-4.576-4.18162-6.74568-7.46234-10.39065" transform="translate(0 0)"/><path d="M49.87964,52.029a12.227,12.227,0,0,1-2.93529,6.421.12226.12226,0,0,0,.08989.20565h5.93229a.12228.12228,0,0,0,.08989-.20565,12.227,12.227,0,0,1-2.93529-6.421.12209.12209,0,0,0-.2415,0" transform="translate(0 0)"/></g></g><g class="c890105d-30d4-4a58-b3e1-7376fc8f9294"><g class="07398b5c-0ed6-487e-a930-4453443e69b2"><path d="M65.53765,15.05858a.23089.23089,0,0,0-.3439,0c-3.28072,3.645-7.46227,5.81462-7.46227,10.39065,0,4.54533,4.8629,5.35664,7.44868,1.88332a.23075.23075,0,0,1,.37115,0C68.13695,30.80587,73,29.99455,73,25.44922c0-4.576-4.18162-6.74568-7.46234-10.39065" transform="translate(0 0)"/><path d="M65.245,26.10631a12.227,12.227,0,0,1-2.93529,6.421.12226.12226,0,0,0,.08989.20565h5.93229a.12228.12228,0,0,0,.08989-.20565,12.227,12.227,0,0,1-2.93529-6.421.12209.12209,0,0,0-.2415,0" transform="translate(0 0)"/></g></g><g class="3fbd0505-5b3d-4f45-a485-6b672d5eef9f"><g class="712979f5-b08b-4f8c-b72c-7c60cb16c2da"><path d="M65.53765,66.90474a.23089.23089,0,0,0-.3439,0c-3.28072,3.645-7.46227,5.81462-7.46227,10.39065,0,4.54533,4.8629,5.35664,7.44868,1.88332a.23075.23075,0,0,1,.37115,0C68.13695,82.652,73,81.84071,73,77.29538c0-4.576-4.18162-6.74568-7.46234-10.39065" transform="translate(0 0)"/><path d="M65.245,77.95247a12.227,12.227,0,0,1-2.93529,6.421.12226.12226,0,0,0,.08989.20565h5.93229a.12228.12228,0,0,0,.08989-.20565,12.227,12.227,0,0,1-2.93529-6.421.12209.12209,0,0,0-.2415,0" transform="translate(0 0)"/></g></g><g class="ea07b669-cf87-4159-a10d-75e400383dd6"><g class="7e02282c-a19c-4797-9ca6-418a33e64bd5"><path d="M34.46235,136.32285a.23089.23089,0,0,0,.3439,0c3.28072-3.645,7.46227-5.81462,7.46227-10.39065,0-4.54533-4.8629-5.35664-7.44868-1.88332a.23075.23075,0,0,1-.37115,0C31.86305,120.57556,27,121.38687,27,125.9322c0,4.576,4.18162,6.74568,7.46234,10.39065" transform="translate(0 0)"/><path d="M34.755,125.27511a12.227,12.227,0,0,1,2.93529-6.421.12226.12226,0,0,0-.08989-.20565H31.66815a.12228.12228,0,0,0-.08989.20565,12.227,12.227,0,0,1,2.93529,6.421.12209.12209,0,0,0,.2415,0" transform="translate(0 0)"/></g></g><g class="7ab47884-78a8-4242-b22e-fe96b7b03b2a"><g class="5e960a54-a0e8-4a6c-8292-8ebed84c0935"><path d="M49.82809,110.39977a.23089.23089,0,0,0,.3439,0c3.28072-3.645,7.46227-5.81462,7.46227-10.39065,0-4.54533-4.8629-5.35664-7.44868-1.88332a.23075.23075,0,0,1-.37115,0c-2.58563-3.47332-7.44868-2.662-7.44868,1.88332,0,4.576,4.18162,6.74568,7.46234,10.39065" transform="translate(0 0)"/><path d="M50.12079,99.352a12.227,12.227,0,0,1,2.93529-6.421.12226.12226,0,0,0-.08989-.20565H47.03389a.12228.12228,0,0,0-.08989.20565,12.227,12.227,0,0,1,2.93529,6.421.12209.12209,0,0,0,.2415,0" transform="translate(0 0)"/></g></g></svg>