<svg id="a757ed41-d338-4dc7-9781-2f75d2241a5d" data-name="レイヤー 1" xmlns="http://www.w3.org/2000/svg" xmlns:xlink="http://www.w3.org/1999/xlink" viewBox="0 0 100 156"><defs><style>.\30 8e3d498-9dc2-4a38-acc0-5528c322be7a{fill:none;}.\31 6c4677b-9eee-439c-b5db-ba0e150cd284{fill:#fff;}.\37 f7243c8-b335-4585-add0-407d4d532ec4{fill:#7f7f7f;}.\38 4ed1c78-1612-4577-bcf6-5da163aaf83c{clip-path:url(#24c85c25-af21-480f-b080-aba85901725f);}.\30 95da34b-0af2-4ade-9725-cdfc609b54fb{clip-path:url(#ea87865f-2f65-48d8-9f9f-a42175d77d36);}.\36 0bb941f-c37a-4b45-93e2-82081cff56bb{clip-path:url(#e41de494-23c6-4a4a-96ec-ea79e8d65e05);}.ee730b90-2768-4f4d-87e3-2c8a1ed9051a{clip-path:url(#8e57d90a-644a-40e0-873e-308f06fc6e3b);}.dc4f4925-fa70-4021-becf-1d93ddf2148d{clip-path:url(#03869bab-6db2-40c9-b817-50aaef6557d5);}.d8f1cd4e-faa6-4cc2-83ac-28e7f25f5bb1{clip-path:url(#3f161d19-0ac9-4ac4-b5d6-5fb9c5ffefac);}.\37 fe0ec2e-d463-41d6-a968-41c61dbfc568{clip-path:url(#65c3601c-70b6-417e-bc9c-8c4283b4e2aa);}.\34 d376b6e-5b79-4dcf-bbbb-64bbf18d3f0c{clip-path:url(#26cc6d67-670a-4d9e-bf81-35a8fb216e8e);}.\34 d0aee9e-8743-4d10-9eef-5df46421259d{clip-path:url(#960a3011-bca4-4ddf-ba11-b57b6e29071e);}.f3cc7187-3b08-43f2-b446-dee77bf70003{clip-path:url(#20f00764-dd9f-4f88-8bf7-e4c98e361715);}.\31 517b3ba-3fed-47ef-a96b-58da11f760c9{clip-path:url(#37e88774-273a-4b13-9f2d-bf03981a4913);}.fe973fc6-845e-46b4-8e24-573ee5ced458{clip-path:url(#b204b157-7dfb-4c45-9d10-eefec9ef3ba9);}.e3f921b6-55fa-49f5-9175-36d9b4c9dd53{clip-path:url(#fb5f9e46-d01a-40d7-a493-df52fea8e20f);}.\39 fdcffdf-8760-4f77-9fa7-91521a44a3fa{clip-path:url(#b4b50756-4ad8-429a-8397-8e2be431908f);}.\38 0bd7dc1-b362-43f4-8600-6be2d1cc9f9d{clip-path:url(#1ec85985-d904-456e-99e0-2349278ad0b5);}.\33 735e889-3058-44e8-89d3-f297e1bfe40b{clip-path:url(#0e61ebe6-4a01-40bd-9bdf-c6be2ea5e476);}.e3883737-cbf3-480d-a7f7-64459bbc53c6{clip-path:url(#8d31ff68-a518-4b75-bdd2-73c30afedef5);}.fce630f6-79fe-48d6-a4e8-f324ad70a2e4{clip-path:url(#b3907e8e-e5c5-4023-bd49-eaac17a97fbb);}.\33 96828c7-fbdb-4d5e-ab58-1496c79c09a5{clip-path:url(#e75e17a3-ac7c-40a1-a6c1-a0d0f1a47d60);}.be5c7325-a798-4668-9906-22d6d7f5eaa1{clip-path:url(#92344f80-848a-4f9d-a073-12b9452b9461);}.\36 76749b9-5ba8-4120-8e73-9b6469cdb9b5{clip-path:url(#2b1815fd-bf54-4ac5-964f-2a1e27a53490);}.\38 9e46756-ef11-4e56-8437-a44eb0318a6b{clip-path:url(#c4099cb3-ec02-4787-857d-9e9552b99c46);}.\36 22a5bb8-a86d-422f-8990-5f584829e0a1{clip-path:url(#08e43020-435b-4440-a7ca-9d91cb8983d4);}.\30 b91d068-2afb-482a-8fc9-7dad7b1ef482{clip-path:url(#f0a5ea94-6f8c-4d79-80d7-a399138327c2);}</style><clipPath id="24c85c25-af21-480f-b080-aba85901725f"><rect class="08e3d498-9dc2-4a38-acc0-5528c322be7a" width="29.91235" height="29.91235"/></clipPath><clipPath id="ea87865f-2f65-48d8-9f9f-a42175d77d36"><rect class="08e3d498-9dc2-4a38-acc0-5528c322be7a" x="70.08765" y="126.08765" width="29.91235" height="29.91235"/></clipPath><clipPath id="e41de494-23c6-4a4a-96ec-ea79e8d65e05"><rect class="08e3d498-9dc2-4a38-acc0-5528c322be7a" x="8.2462" y="29.91235" width="13.41995" height="15.62453"/></clipPath><clipPath id="8e57d90a-644a-40e0-873e-308f06fc6e3b"><rect class="08e3d498-9dc2-4a38-acc0-5528c322be7a" x="6.32111" y="29.04849" width="17.27228" height="17.27228"/></clipPath><clipPath id="03869bab-6db2-40c9-b817-50aaef6557d5"><rect class="08e3d498-9dc2-4a38-acc0-5528c322be7a" x="78.33385" y="110.46313" width="13.41995" height="15.62453"/></clipPath><clipPath id="3f161d19-0ac9-4ac4-b5d6-5fb9c5ffefac"><rect class="08e3d498-9dc2-4a38-acc0-5528c322be7a" x="76.40661" y="109.67923" width="17.27228" height="17.27228"/></clipPath><clipPath id="65c3601c-70b6-417e-bc9c-8c4283b4e2aa"><rect class="08e3d498-9dc2-4a38-acc0-5528c322be7a" x="27" y="14.95617" width="15.26852" height="17.77676"/></clipPath><clipPath id="26cc6d67-670a-4d9e-bf81-35a8fb216e8e"><rect class="08e3d498-9dc2-4a38-acc0-5528c322be7a" x="24.80973" y="13.97332" width="19.65149" height="19.65149"/></clipPath><clipPath id="960a3011-bca4-4ddf-ba11-b57b6e29071e"><rect class="08e3d498-9dc2-4a38-acc0-5528c322be7a" x="27" y="49.52028" width="15.26852" height="17.77676"/></clipPath><clipPath id="20f00764-dd9f-4f88-8bf7-e4c98e361715"><rect class="08e3d498-9dc2-4a38-acc0-5528c322be7a" x="24.80973" y="48.53742" width="19.65149" height="19.65149"/></clipPath><clipPath id="37e88774-273a-4b13-9f2d-bf03981a4913"><rect class="08e3d498-9dc2-4a38-acc0-5528c322be7a" x="57.73148" y="118.64849" width="15.26852" height="17.77676"/></clipPath><clipPath id="b204b157-7dfb-4c45-9d10-eefec9ef3ba9"><rect class="08e3d498-9dc2-4a38-acc0-5528c322be7a" x="55.53878" y="117.75662" width="19.65149" height="19.65149"/></clipPath><clipPath id="fb5f9e46-d01a-40d7-a493-df52fea8e20f"><rect class="08e3d498-9dc2-4a38-acc0-5528c322be7a" x="57.73148" y="84.08439" width="15.26852" height="17.77676"/></clipPath><clipPath id="b4b50756-4ad8-429a-8397-8e2be431908f"><rect class="08e3d498-9dc2-4a38-acc0-5528c322be7a" x="55.53878" y="83.19252" width="19.65149" height="19.65149"/></clipPath><clipPath id="1ec85985-d904-456e-99e0-2349278ad0b5"><rect class="08e3d498-9dc2-4a38-acc0-5528c322be7a" x="57.73148" y="14.95617" width="15.26852" height="17.77676"/></clipPath><clipPath id="0e61ebe6-4a01-40bd-9bdf-c6be2ea5e476"><rect class="08e3d498-9dc2-4a38-acc0-5528c322be7a" x="55.54122" y="13.97332" width="19.65149" height="19.65149"/></clipPath><clipPath id="8d31ff68-a518-4b75-bdd2-73c30afedef5"><rect class="08e3d498-9dc2-4a38-acc0-5528c322be7a" x="42.36574" y="66.80233" width="15.26852" height="17.77676"/></clipPath><clipPath id="b3907e8e-e5c5-4023-bd49-eaac17a97fbb"><rect class="08e3d498-9dc2-4a38-acc0-5528c322be7a" x="40.17548" y="65.81948" width="19.65149" height="19.65149"/></clipPath><clipPath id="e75e17a3-ac7c-40a1-a6c1-a0d0f1a47d60"><rect class="08e3d498-9dc2-4a38-acc0-5528c322be7a" x="57.73148" y="49.52028" width="15.26852" height="17.77676"/></clipPath><clipPath id="92344f80-848a-4f9d-a073-12b9452b9461"><rect class="08e3d498-9dc2-4a38-acc0-5528c322be7a" x="55.54122" y="48.53742" width="19.65149" height="19.65149"/></clipPath><clipPath id="2b1815fd-bf54-4ac5-964f-2a1e27a53490"><rect class="08e3d498-9dc2-4a38-acc0-5528c322be7a" x="27" y="118.64849" width="15.26852" height="17.77676"/></clipPath><clipPath id="c4099cb3-ec02-4787-857d-9e9552b99c46"><rect class="08e3d498-9dc2-4a38-acc0-5528c322be7a" x="24.80729" y="117.75662" width="19.65149" height="19.65149"/></clipPath><clipPath id="08e43020-435b-4440-a7ca-9d91cb8983d4"><rect class="08e3d498-9dc2-4a38-acc0-5528c322be7a" x="27" y="84.08439" width="15.26852" height="17.77676"/></clipPath><clipPath id="f0a5ea94-6f8c-4d79-80d7-a399138327c2"><rect class="08e3d498-9dc2-4a38-acc0-5528c322be7a" x="24.80729" y="83.19252" width="19.65149" height="19.65149"/></clipPath></defs><title>9</title><rect class="16c4677b-9eee-439c-b5db-ba0e150cd284" x="0.5" y="0.5" width="99" height="155" rx="5.5" ry="5.5"/><path class="7f7243c8-b335-4585-add0-407d4d532ec4" d="M94,1a5.00567,5.00567,0,0,1,5,5V150a5.00567,5.00567,0,0,1-5,5H6a5.00567,5.00567,0,0,1-5-5V6A5.00567,5.00567,0,0,1,6,1H94m0-1H6A6,6,0,0,0,0,6V150a6,6,0,0,0,6,6H94a6,6,0,0,0,6-6V6a6,6,0,0,0-6-6Z"/><g class="84ed1c78-1612-4577-bcf6-5da163aaf83c"><g class="84ed1c78-1612-4577-bcf6-5da163aaf83c"><path d="M10.1333,23.37793a4.7757,4.7757,0,0,0,1.29.84131,3.63992,3.63992,0,0,0,1.48633.30859,4.09208,4.09208,0,0,0,2.59375-.84131,6.24624,6.24624,0,0,0,1.75244-2.20117,11.85619,11.85619,0,0,0,.99561-3.043,17.84822,17.84822,0,0,0,.32275-3.36475h-.05615a5.28811,5.28811,0,0,1-1.75293,1.90674,4.97311,4.97311,0,0,1-2.79.729A5.39713,5.39713,0,0,1,9.979,16.269a5.594,5.594,0,0,1-1.44434-4.13623,6.3913,6.3913,0,0,1,.43457-2.3833,5.4306,5.4306,0,0,1,1.248-1.89307,5.9028,5.9028,0,0,1,1.96289-1.26172,6.855,6.855,0,0,1,2.58008-.46289,6.6525,6.6525,0,0,1,2.39746.43457,5.04227,5.04227,0,0,1,1.99121,1.40234,7.23282,7.23282,0,0,1,1.374,2.49561,11.74993,11.74993,0,0,1,.519,3.74365,16.48994,16.48994,0,0,1-.561,4.375,11.33165,11.33165,0,0,1-1.62646,3.561A7.69246,7.69246,0,0,1,16.26074,24.5a7.12666,7.12666,0,0,1-3.4917.84131,6.31522,6.31522,0,0,1-1.31787-.12646,7.21144,7.21144,0,0,1-.89746-.23828q-.08423-.30835-.23828-.75732a5.03451,5.03451,0,0,0-.32227-.75684Zm8.32861-11.97412A4.74322,4.74322,0,0,0,17.43848,8.249,3.35735,3.35735,0,0,0,14.73242,7.0293a3.22427,3.22427,0,0,0-2.70654,1.35986,6.09871,6.09871,0,0,0-1.02344,3.74365,5.26185,5.26185,0,0,0,.92529,3.4917,3.19114,3.19114,0,0,0,2.52393,1.05127,3.26976,3.26976,0,0,0,1.72461-.44873,4.04762,4.04762,0,0,0,1.248-1.17773,5.55838,5.55838,0,0,0,.771-1.68262A7.25326,7.25326,0,0,0,18.46191,11.40381Z"/></g></g><g class="095da34b-0af2-4ade-9725-cdfc609b54fb"><g class="095da34b-0af2-4ade-9725-cdfc609b54fb"><path d="M89.86719,132.62207a4.7891,4.7891,0,0,0-1.29-.8418,3.64159,3.64159,0,0,0-1.48633-.30859,4.09433,4.09433,0,0,0-2.59375.8418,6.24843,6.24843,0,0,0-1.75293,2.20117,11.86844,11.86844,0,0,0-.99512,3.043,17.84489,17.84489,0,0,0-.32227,3.36523h.05566a5.29783,5.29783,0,0,1,1.75293-1.90723,4.971,4.971,0,0,1,2.79-.72949,5.4006,5.4006,0,0,1,3.99609,1.44434,5.59792,5.59792,0,0,1,1.44434,4.13672,6.39569,6.39569,0,0,1-.43457,2.38379,5.44893,5.44893,0,0,1-1.248,1.89258,5.9028,5.9028,0,0,1-1.96289,1.26172,6.85674,6.85674,0,0,1-2.58008.46289,6.644,6.644,0,0,1-2.39746-.43457,5.03392,5.03392,0,0,1-1.99121-1.40234,7.21379,7.21379,0,0,1-1.374-2.49609A11.74568,11.74568,0,0,1,78.959,141.792a16.4901,16.4901,0,0,1,.56055-4.375,11.35483,11.35483,0,0,1,1.626-3.56152A7.69892,7.69892,0,0,1,83.74023,131.5a7.12186,7.12186,0,0,1,3.49121-.84082,6.31206,6.31206,0,0,1,1.31738.126,7.27489,7.27489,0,0,1,.89746.23828c.05664.20508.13574.458.23828.75684a5.06643,5.06643,0,0,0,.32324.75781ZM81.53906,144.5957A4.742,4.742,0,0,0,82.5625,147.751a3.35668,3.35668,0,0,0,2.70605,1.21973,3.22384,3.22384,0,0,0,2.70605-1.36035,6.09519,6.09519,0,0,0,1.02344-3.74316,5.25653,5.25653,0,0,0-.92578-3.49121,3.1875,3.1875,0,0,0-2.52344-1.05176,3.2728,3.2728,0,0,0-1.72461.44824,4.053,4.053,0,0,0-1.248,1.17773,5.55287,5.55287,0,0,0-.77148,1.68262A7.29378,7.29378,0,0,0,81.53906,144.5957Z"/></g></g><g class="60bb941f-c37a-4b45-93e2-82081cff56bb"><g class="ee730b90-2768-4f4d-87e3-2c8a1ed9051a"><path d="M15.10727,30.00235a.20294.20294,0,0,0-.30227,0C11.92148,33.206,8.2462,35.113,8.2462,39.135c0,3.995,4.27415,4.70811,6.54687,1.65531a.20281.20281,0,0,1,.32622,0c2.27259,3.05281,6.54687,2.33972,6.54687-1.65531,0-4.022-3.67535-5.929-6.55888-9.13265"/><path d="M14.85,39.71254a10.74666,10.74666,0,0,1-2.57991,5.64358.10746.10746,0,0,0,.079.18075h5.21407a.10747.10747,0,0,0,.079-.18075,10.74666,10.74666,0,0,1-2.57991-5.64358.10731.10731,0,0,0-.21226,0"/></g></g><g class="dc4f4925-fa70-4021-becf-1d93ddf2148d"><g class="d8f1cd4e-faa6-4cc2-83ac-28e7f25f5bb1"><path d="M84.89273,125.99765a.20294.20294,0,0,0,.30227,0c2.88353-3.20367,6.55881-5.11064,6.55881-9.13265,0-3.995-4.27415-4.70811-6.54687-1.65531a.20281.20281,0,0,1-.32622,0c-2.27259-3.05281-6.54687-2.33972-6.54687,1.65531,0,4.022,3.67535,5.929,6.55888,9.13265"/><path d="M85.15,116.28746a10.74666,10.74666,0,0,1,2.57991-5.64358.10746.10746,0,0,0-.079-.18075H82.43683a.10747.10747,0,0,0-.079.18075,10.74666,10.74666,0,0,1,2.57991,5.64358.10731.10731,0,0,0,.21226,0"/></g></g><g class="7fe0ec2e-d463-41d6-a968-41c61dbfc568"><g class="4d376b6e-5b79-4dcf-bbbb-64bbf18d3f0c"><path d="M34.80617,15.05858a.23089.23089,0,0,0-.3439,0C31.18154,18.70355,27,20.87319,27,25.44922c0,4.54533,4.8629,5.35664,7.44868,1.88332a.23075.23075,0,0,1,.37115,0c2.58563,3.47332,7.44868,2.662,7.44868-1.88332,0-4.576-4.18162-6.74568-7.46234-10.39065"/><path d="M34.51347,26.10631a12.227,12.227,0,0,1-2.93529,6.421.12226.12226,0,0,0,.08989.20565h5.93229a.12228.12228,0,0,0,.08989-.20565,12.227,12.227,0,0,1-2.93529-6.421.12209.12209,0,0,0-.2415,0"/></g></g><g class="4d0aee9e-8743-4d10-9eef-5df46421259d"><g class="f3cc7187-3b08-43f2-b446-dee77bf70003"><path d="M34.80617,49.62268a.23089.23089,0,0,0-.3439,0C31.18154,53.26765,27,55.4373,27,60.01333c0,4.54533,4.8629,5.35664,7.44868,1.88332a.23075.23075,0,0,1,.37115,0c2.58563,3.47332,7.44868,2.662,7.44868-1.88332,0-4.576-4.18162-6.74568-7.46234-10.39065"/><path d="M34.51347,60.67042a12.227,12.227,0,0,1-2.93529,6.421.12226.12226,0,0,0,.08989.20565h5.93229a.12228.12228,0,0,0,.08989-.20565,12.227,12.227,0,0,1-2.93529-6.421.12209.12209,0,0,0-.2415,0"/></g></g><g class="1517b3ba-3fed-47ef-a96b-58da11f760c9"><g class="fe973fc6-845e-46b4-8e24-573ee5ced458"><path d="M65.19383,136.32285a.23089.23089,0,0,0,.3439,0C68.81846,132.67788,73,130.50823,73,125.9322c0-4.54533-4.8629-5.35664-7.44868-1.88332a.23075.23075,0,0,1-.37115,0c-2.58563-3.47332-7.44868-2.662-7.44868,1.88332,0,4.576,4.18162,6.74568,7.46234,10.39065"/><path d="M65.48653,125.27511a12.227,12.227,0,0,1,2.93529-6.421.12226.12226,0,0,0-.08989-.20565H62.39963a.12228.12228,0,0,0-.08989.20565,12.227,12.227,0,0,1,2.93529,6.421.12209.12209,0,0,0,.2415,0"/></g></g><g class="e3f921b6-55fa-49f5-9175-36d9b4c9dd53"><g class="9fdcffdf-8760-4f77-9fa7-91521a44a3fa"><path d="M65.19383,101.75874a.23089.23089,0,0,0,.3439,0C68.81846,98.11378,73,95.94413,73,91.3681c0-4.54533-4.8629-5.35664-7.44868-1.88332a.23075.23075,0,0,1-.37115,0c-2.58563-3.47332-7.44868-2.662-7.44868,1.88332,0,4.576,4.18162,6.74568,7.46234,10.39065"/><path d="M65.48653,90.711a12.227,12.227,0,0,1,2.93529-6.421.12226.12226,0,0,0-.08989-.20565H62.39963a.12228.12228,0,0,0-.08989.20565A12.227,12.227,0,0,1,65.245,90.711a.12209.12209,0,0,0,.2415,0"/></g></g><g class="80bd7dc1-b362-43f4-8600-6be2d1cc9f9d"><g class="3735e889-3058-44e8-89d3-f297e1bfe40b"><path d="M65.53765,15.05858a.23089.23089,0,0,0-.3439,0c-3.28072,3.645-7.46227,5.81462-7.46227,10.39065,0,4.54533,4.8629,5.35664,7.44868,1.88332a.23075.23075,0,0,1,.37115,0C68.13695,30.80587,73,29.99455,73,25.44922c0-4.576-4.18162-6.74568-7.46234-10.39065"/><path d="M65.245,26.10631a12.227,12.227,0,0,1-2.93529,6.421.12226.12226,0,0,0,.08989.20565h5.93229a.12228.12228,0,0,0,.08989-.20565,12.227,12.227,0,0,1-2.93529-6.421.12209.12209,0,0,0-.2415,0"/></g></g><g class="e3883737-cbf3-480d-a7f7-64459bbc53c6"><g class="fce630f6-79fe-48d6-a4e8-f324ad70a2e4"><path d="M50.17191,66.90474a.23089.23089,0,0,0-.3439,0c-3.28072,3.645-7.46227,5.81462-7.46227,10.39065,0,4.54533,4.8629,5.35664,7.44868,1.88332a.23075.23075,0,0,1,.37115,0c2.58563,3.47332,7.44868,2.662,7.44868-1.88332,0-4.576-4.18162-6.74568-7.46234-10.39065"/><path d="M49.87921,77.95247a12.227,12.227,0,0,1-2.93529,6.421.12226.12226,0,0,0,.08989.20565h5.93229a.12228.12228,0,0,0,.08989-.20565,12.227,12.227,0,0,1-2.93529-6.421.12209.12209,0,0,0-.2415,0"/></g></g><g class="396828c7-fbdb-4d5e-ab58-1496c79c09a5"><g class="be5c7325-a798-4668-9906-22d6d7f5eaa1"><path d="M65.53765,49.62268a.23089.23089,0,0,0-.3439,0c-3.28072,3.645-7.46227,5.81462-7.46227,10.39065,0,4.54533,4.8629,5.35664,7.44868,1.88332a.23075.23075,0,0,1,.37115,0C68.13695,65.37,73,64.55866,73,60.01333c0-4.576-4.18162-6.74568-7.46234-10.39065"/><path d="M65.245,60.67042a12.227,12.227,0,0,1-2.93529,6.421.12226.12226,0,0,0,.08989.20565h5.93229a.12228.12228,0,0,0,.08989-.20565,12.227,12.227,0,0,1-2.93529-6.421.12209.12209,0,0,0-.2415,0"/></g></g><g class="676749b9-5ba8-4120-8e73-9b6469cdb9b5"><g class="89e46756-ef11-4e56-8437-a44eb0318a6b"><path d="M34.46235,136.32285a.23089.23089,0,0,0,.3439,0c3.28072-3.645,7.46227-5.81462,7.46227-10.39065,0-4.54533-4.8629-5.35664-7.44868-1.88332a.23075.23075,0,0,1-.37115,0C31.86305,120.57556,27,121.38687,27,125.9322c0,4.576,4.18162,6.74568,7.46234,10.39065"/><path d="M34.755,125.27511a12.227,12.227,0,0,1,2.93529-6.421.12226.12226,0,0,0-.08989-.20565H31.66815a.12228.12228,0,0,0-.08989.20565,12.227,12.227,0,0,1,2.93529,6.421.12209.12209,0,0,0,.2415,0"/></g></g><g class="622a5bb8-a86d-422f-8990-5f584829e0a1"><g class="0b91d068-2afb-482a-8fc9-7dad7b1ef482"><path d="M34.46235,101.75874a.23089.23089,0,0,0,.3439,0c3.28072-3.645,7.46227-5.81462,7.46227-10.39065,0-4.54533-4.8629-5.35664-7.44868-1.88332a.23075.23075,0,0,1-.37115,0C31.86305,86.01145,27,86.82277,27,91.3681c0,4.576,4.18162,6.74568,7.46234,10.39065"/><path d="M34.755,90.711a12.227,12.227,0,0,1,2.93529-6.421.12226.12226,0,0,0-.08989-.20565H31.66815a.12228.12228,0,0,0-.08989.20565,12.227,12.227,0,0,1,2.93529,6.421.12209.12209,0,0,0,.2415,0"/></g></g></svg>