<svg xmlns="http://www.w3.org/2000/svg" xmlns:xlink="http://www.w3.org/1999/xlink" viewBox="0 0 100 156"><defs><style>.\37 a4922a8-d4e8-4a8a-bae0-0dfdaa78694f{fill:none;}.\33 e0b5feb-0b23-49ef-8d4b-7583adbe8899{isolation:isolate;}.\31 7a441d4-da3d-41ad-8e16-482953c9c946{fill:#fff;}.fe12e934-8729-4c0e-be70-dccd6c45a517{fill:#7f7f7f;}.f349bebe-e813-413d-83c6-269fcef5c5ab{clip-path:url(#9a92eeed-7967-4517-bd01-b8a90b4781f1);}.\32 4d13385-f188-4b9d-9bd7-270a8fe5a15d{clip-path:url(#e170d3fa-3585-4bb4-a999-c8c24f236a91);}.\35 38df740-0490-4c63-8753-af98b84e6393{clip-path:url(#4a80e5cd-9b57-43e8-b5f6-ceabf0b0cb0c);}.\35 ce62571-75ea-46cc-878c-b3108ec7be8d{clip-path:url(#6bb97321-b5e8-4960-bb80-e1bb46c9b061);}.\37 4e9a211-41b1-495d-9c35-15a89b245074{clip-path:url(#7d3b9878-3940-4c51-9639-73db877f4d33);}.\36 ccc9c35-b73a-4c6b-95fc-1ed13792744b{clip-path:url(#0061066d-90e7-4cc9-a7d1-182572c288f1);}.\30 ce6c9ae-48f4-4f2e-bd62-7257ddedcc87{clip-path:url(#10568664-4231-41c3-aee4-14d04eba7612);}.\38 4235653-f7d4-4a93-a1ec-cdf1fed06ed7{mix-blend-mode:multiply;}.dccd67b3-1898-4e72-a5cd-6576bd189ed3{fill:#545454;}</style><clipPath id="9a92eeed-7967-4517-bd01-b8a90b4781f1"><rect class="7a4922a8-d4e8-4a8a-bae0-0dfdaa78694f" width="29.91235" height="29.91235"/></clipPath><clipPath id="e170d3fa-3585-4bb4-a999-c8c24f236a91"><rect class="7a4922a8-d4e8-4a8a-bae0-0dfdaa78694f" x="70.08765" y="126.08765" width="29.91235" height="29.91235"/></clipPath><clipPath id="4a80e5cd-9b57-43e8-b5f6-ceabf0b0cb0c"><rect class="7a4922a8-d4e8-4a8a-bae0-0dfdaa78694f" x="8.2462" y="29.91235" width="13.41995" height="15.62453"/></clipPath><clipPath id="6bb97321-b5e8-4960-bb80-e1bb46c9b061"><rect class="7a4922a8-d4e8-4a8a-bae0-0dfdaa78694f" x="6.32111" y="29.04849" width="17.27228" height="17.27228"/></clipPath><clipPath id="7d3b9878-3940-4c51-9639-73db877f4d33"><rect class="7a4922a8-d4e8-4a8a-bae0-0dfdaa78694f" x="78.33385" y="110.46313" width="13.41995" height="15.62453"/></clipPath><clipPath id="0061066d-90e7-4cc9-a7d1-182572c288f1"><rect class="7a4922a8-d4e8-4a8a-bae0-0dfdaa78694f" x="76.40661" y="109.67923" width="17.27228" height="17.27228"/></clipPath><clipPath id="10568664-4231-41c3-aee4-14d04eba7612"><rect class="7a4922a8-d4e8-4a8a-bae0-0dfdaa78694f" x="25" y="23" width="50" height="110"/></clipPath></defs><title>K</title><g class="3e0b5feb-0b23-49ef-8d4b-7583adbe8899"><g id="2ff6966b-775b-48c3-a0e5-2ead37bd099a" data-name="レイヤー 1"><rect class="17a441d4-da3d-41ad-8e16-482953c9c946" x="0.5" y="0.5" width="99" height="155" rx="5.5" ry="5.5"/><path class="fe12e934-8729-4c0e-be70-dccd6c45a517" d="M94,1a5.00567,5.00567,0,0,1,5,5V150a5.00567,5.00567,0,0,1-5,5H6a5.00567,5.00567,0,0,1-5-5V6A5.00567,5.00567,0,0,1,6,1H94m0-1H6A6,6,0,0,0,0,6V150a6,6,0,0,0,6,6H94a6,6,0,0,0,6-6V6a6,6,0,0,0-6-6Z"/><g class="f349bebe-e813-413d-83c6-269fcef5c5ab"><g class="f349bebe-e813-413d-83c6-269fcef5c5ab"><path d="M8.91357,25.03271q.08423-1.73877.1543-3.53369.06958-1.7937.06982-3.64551V13.03027q0-1.85083-.06982-3.63135-.07031-1.78052-.1543-3.63184.364.0564.70117.09814a5.41163,5.41163,0,0,0,1.3457,0q.33691-.04175.70117-.09814-.08423,1.85083-.1543,3.63184-.07031,1.78125-.06982,3.63135v1.54248c0,.1499.05615.22412.168.22412q.11206,0,.39258-.25244.98145-.84082,2.06152-1.90674,1.07886-1.06567,2.17334-2.21533,1.09351-1.1499,2.15918-2.3418Q19.457,6.88892,20.439,5.76709q.30835.0564.58887.09814a3.74121,3.74121,0,0,0,.561.042,5.36512,5.36512,0,0,0,.67285-.042q.33691-.04175.67334-.09814-.98218.84155-2.21533,1.99121-1.23486,1.1499-2.48193,2.35547-1.248,1.2063-2.38379,2.36963-1.13525,1.16382-1.89258,2.0332,2.27124,2.55176,4.585,5.20215,2.313,2.6499,4.69678,5.314a6.31692,6.31692,0,0,0-.84082-.05615H20.78955a5.41552,5.41552,0,0,0-.771.05615q-1.01-1.1499-2.22949-2.63623-1.22021-1.48608-2.38379-2.874-1.16382-1.38867-2.103-2.49609-.9397-1.10742-1.38818-1.55615c-.1499-.14941-.26221-.22461-.33643-.22461-.09375,0-.14014.05615-.14014.16846v2.43945q0,1.85083.06982,3.64551.06958,1.79517.1543,3.53369-.64526-.0564-1.374-.05615Q9.55811,24.97656,8.91357,25.03271Z"/></g></g><g class="24d13385-f188-4b9d-9bd7-270a8fe5a15d"><g class="24d13385-f188-4b9d-9bd7-270a8fe5a15d"><path d="M91.08789,130.96777q-.085,1.7373-.1543,3.5332-.07031,1.79443-.07031,3.64551v4.82324q0,1.8501.07031,3.63184.07031,1.77979.1543,3.63086c-.24316-.03711-.47754-.06934-.70117-.09766a5.41945,5.41945,0,0,0-1.34668,0c-.22363.02832-.458.06055-.70117.09766q.085-1.8501.1543-3.63086.07031-1.78125.07031-3.63184v-1.542c0-.15039-.05566-.22461-.168-.22461-.07422,0-.20605.084-.39258.252q-.98145.84229-2.06152,1.90723-1.07959,1.06494-2.17285,2.21582-1.09424,1.14844-2.15918,2.34082-1.06641,1.19238-2.04785,2.31348-.30762-.05566-.58887-.09766a3.72519,3.72519,0,0,0-.56055-.042,5.36512,5.36512,0,0,0-.67285.042q-.33691.04248-.67285.09766.98145-.84082,2.21484-1.99023,1.23486-1.15137,2.48242-2.35645,1.248-1.20557,2.38281-2.36914,1.13672-1.16455,1.89355-2.0332-2.272-2.55176-4.585-5.20215-2.31445-2.6499-4.69727-5.31348a6.39911,6.39911,0,0,0,.84082.05566h1.6123a5.48787,5.48787,0,0,0,.77148-.05566q1.00928,1.14844,2.22949,2.63574,1.22021,1.48535,2.38379,2.874,1.16309,1.38867,2.10352,2.49609.939,1.10742,1.3877,1.55664c.14941.14941.26172.22363.33691.22363.09375,0,.13965-.05566.13965-.168v-2.43945q0-1.85156-.07031-3.64551-.06885-1.7959-.1543-3.5332.646.05566,1.374.05566C90.2002,131.02344,90.65723,131.00488,91.08789,130.96777Z"/></g></g><g class="538df740-0490-4c63-8753-af98b84e6393"><g class="5ce62571-75ea-46cc-878c-b3108ec7be8d"><path d="M15.10727,30.00235a.20294.20294,0,0,0-.30227,0C11.92148,33.206,8.2462,35.113,8.2462,39.135c0,3.995,4.27415,4.70811,6.54687,1.65531a.20281.20281,0,0,1,.32622,0c2.27259,3.05281,6.54687,2.33972,6.54687-1.65531,0-4.022-3.67535-5.929-6.55888-9.13265"/><path d="M14.85,39.71254a10.74666,10.74666,0,0,1-2.57991,5.64358.10746.10746,0,0,0,.079.18075h5.21407a.10747.10747,0,0,0,.079-.18075,10.74666,10.74666,0,0,1-2.57991-5.64358.10731.10731,0,0,0-.21226,0"/></g></g><g class="74e9a211-41b1-495d-9c35-15a89b245074"><g class="6ccc9c35-b73a-4c6b-95fc-1ed13792744b"><path d="M84.89273,125.99765a.20294.20294,0,0,0,.30227,0c2.88353-3.20367,6.55881-5.11064,6.55881-9.13265,0-3.995-4.27415-4.70811-6.54687-1.65531a.20281.20281,0,0,1-.32622,0c-2.27259-3.05281-6.54687-2.33972-6.54687,1.65531,0,4.022,3.67535,5.929,6.55888,9.13265"/><path d="M85.15,116.28746a10.74666,10.74666,0,0,1,2.57991-5.64358.10746.10746,0,0,0-.079-.18075H82.43683a.10747.10747,0,0,0-.079.18075,10.74666,10.74666,0,0,1,2.57991,5.64358.10731.10731,0,0,0,.21226,0"/></g></g></g><g id="de260cef-1e1f-46e4-bf6e-72e7a722bfe0" data-name="レイヤー 2"><g class="0ce6c9ae-48f4-4f2e-bd62-7257ddedcc87"><g class="0ce6c9ae-48f4-4f2e-bd62-7257ddedcc87"><g class="0ce6c9ae-48f4-4f2e-bd62-7257ddedcc87"><g class="84235653-f7d4-4a93-a1ec-cdf1fed06ed7"><g class="0ce6c9ae-48f4-4f2e-bd62-7257ddedcc87"><polyline class="dccd67b3-1898-4e72-a5cd-6576bd189ed3" points="75 133 25 133 25 23"/></g></g><g class="84235653-f7d4-4a93-a1ec-cdf1fed06ed7"><g class="0ce6c9ae-48f4-4f2e-bd62-7257ddedcc87"><polyline class="dccd67b3-1898-4e72-a5cd-6576bd189ed3" points="75 23 25 23 25 133"/></g></g></g></g></g></g></g></svg>