<svg id="96ccb911-294e-4a18-9c94-182579dd3b45" data-name="レイヤー 1" xmlns="http://www.w3.org/2000/svg" xmlns:xlink="http://www.w3.org/1999/xlink" viewBox="0 0 100 156"><defs><style>.c00ea783-ca1d-4515-8476-14d65cf15784{fill:none;}.\32 c003e26-a41d-4b54-8f67-fa0239b3a197{fill:#fff;}.e20eaff6-ce30-4bb1-9bcd-819f4e0da1d5{fill:#7f7f7f;}.\31 8b85169-f419-4b2e-bb9c-22e68dcad0fc{clip-path:url(#4548a979-3efd-412b-9ad5-ff742c89f909);}.aef1bda0-71cc-4021-95bb-455beb4def33{clip-path:url(#c7076b8a-32cc-4584-bc7c-cb27270cb2f8);}.edea2dfb-8aa5-45a3-9970-b0e60197dbdd{clip-path:url(#0b721f69-448e-4ed4-8ef6-65a8e195281b);}.e154eda6-bc2a-44e8-8c02-590aecf69c18{clip-path:url(#9276fe82-198c-4d88-9e69-74380647d46f);}.eceaef23-8fa4-4b72-823f-69913ddd861d{clip-path:url(#e8191530-9016-40a7-8704-1702e7261d91);}.f1161858-bbbd-4065-84d5-8ff82510ab87{clip-path:url(#c2fd5987-a699-4730-b6c8-794e32b8e33f);}.cd391a53-6760-41bf-af13-05cafe3f62e2{clip-path:url(#7f2ffc56-7034-49b7-a550-b57a2d27142f);}.\32 de8e822-3e10-4e5a-a963-2373114a81fe{clip-path:url(#dc1bbf8e-363a-432e-b537-a96154b50d6e);}.bf541bd5-37ec-4676-836e-e589d0cde0d7{clip-path:url(#aab75ff0-5334-41a6-abe0-d79302df4756);}.\38 20e850d-fdc1-431b-8d34-ef6e0cd2b692{clip-path:url(#520f7080-ec64-455a-bf91-9b87872e61cf);}.\32 4eba050-793b-4fd8-9174-bc813a14718d{clip-path:url(#e1c4c861-c04b-49a7-a07e-4f712f24dc04);}.\32 a2a5b65-d3ca-4b6d-b637-99f794cf440b{clip-path:url(#7295c395-a91b-4937-a06f-2f2527dbb505);}</style><clipPath id="4548a979-3efd-412b-9ad5-ff742c89f909"><rect class="c00ea783-ca1d-4515-8476-14d65cf15784" width="29.91235" height="29.91235"/></clipPath><clipPath id="c7076b8a-32cc-4584-bc7c-cb27270cb2f8"><rect class="c00ea783-ca1d-4515-8476-14d65cf15784" x="70.08765" y="126.08765" width="29.91235" height="29.91235"/></clipPath><clipPath id="0b721f69-448e-4ed4-8ef6-65a8e195281b"><rect class="c00ea783-ca1d-4515-8476-14d65cf15784" x="7.66032" y="30.45647" width="14.5917" height="14.53628"/></clipPath><clipPath id="9276fe82-198c-4d88-9e69-74380647d46f"><rect class="c00ea783-ca1d-4515-8476-14d65cf15784" x="6.8531" y="29.72091" width="16.20824" height="16.20824"/></clipPath><clipPath id="e8191530-9016-40a7-8704-1702e7261d91"><rect class="c00ea783-ca1d-4515-8476-14d65cf15784" x="77.74798" y="111.00725" width="14.5917" height="14.53628"/></clipPath><clipPath id="c2fd5987-a699-4730-b6c8-794e32b8e33f"><rect class="c00ea783-ca1d-4515-8476-14d65cf15784" x="76.93865" y="110.07085" width="16.20824" height="16.20824"/></clipPath><clipPath id="7f2ffc56-7034-49b7-a550-b57a2d27142f"><rect class="c00ea783-ca1d-4515-8476-14d65cf15784" x="41.69917" y="15.57525" width="16.60167" height="16.53861"/></clipPath><clipPath id="dc1bbf8e-363a-432e-b537-a96154b50d6e"><rect class="c00ea783-ca1d-4515-8476-14d65cf15784" x="40.78075" y="14.73837" width="18.44088" height="18.44088"/></clipPath><clipPath id="aab75ff0-5334-41a6-abe0-d79302df4756"><rect class="c00ea783-ca1d-4515-8476-14d65cf15784" x="41.69917" y="67.42141" width="16.60167" height="16.53861"/></clipPath><clipPath id="520f7080-ec64-455a-bf91-9b87872e61cf"><rect class="c00ea783-ca1d-4515-8476-14d65cf15784" x="40.78075" y="66.58453" width="18.44088" height="18.44088"/></clipPath><clipPath id="e1c4c861-c04b-49a7-a07e-4f712f24dc04"><rect class="c00ea783-ca1d-4515-8476-14d65cf15784" x="41.69917" y="119.26757" width="16.60167" height="16.53861"/></clipPath><clipPath id="7295c395-a91b-4937-a06f-2f2527dbb505"><rect class="c00ea783-ca1d-4515-8476-14d65cf15784" x="40.77836" y="118.20218" width="18.44088" height="18.44088"/></clipPath></defs><title>3</title><rect class="2c003e26-a41d-4b54-8f67-fa0239b3a197" x="0.5" y="0.5" width="99" height="155" rx="5.5" ry="5.5"/><path class="e20eaff6-ce30-4bb1-9bcd-819f4e0da1d5" d="M94,1a5.00567,5.00567,0,0,1,5,5V150a5.00567,5.00567,0,0,1-5,5H6a5.00567,5.00567,0,0,1-5-5V6A5.00567,5.00567,0,0,1,6,1H94m0-1H6A6,6,0,0,0,0,6V150a6,6,0,0,0,6,6H94a6,6,0,0,0,6-6V6a6,6,0,0,0-6-6Z"/><g class="18b85169-f419-4b2e-bb9c-22e68dcad0fc"><g class="18b85169-f419-4b2e-bb9c-22e68dcad0fc"><path d="M10.93262,6.69287a5.12229,5.12229,0,0,1,2.5376-.561,8.29808,8.29808,0,0,1,2.0752.25244,5.28808,5.28808,0,0,1,1.71045.75684,3.63805,3.63805,0,0,1,1.1499,1.29,3.93093,3.93093,0,0,1,.4209,1.87891,4.31888,4.31888,0,0,1-.36475,1.80908,4.95915,4.95915,0,0,1-.91162,1.374,4.87874,4.87874,0,0,1-1.21973.93945,6.09859,6.09859,0,0,1-1.29.53271v.168a8.99016,8.99016,0,0,1,1.54248.2666,4.65293,4.65293,0,0,1,1.51416.70117,3.9413,3.9413,0,0,1,1.16406,1.30371,4.15826,4.15826,0,0,1,.4624,2.0752,5.39846,5.39846,0,0,1-.51855,2.36963,5.5282,5.5282,0,0,1-1.4585,1.86523,6.6079,6.6079,0,0,1-2.25732,1.20557,9.5617,9.5617,0,0,1-2.9165.4209,9.82835,9.82835,0,0,1-2.46777-.2666,9.88587,9.88587,0,0,1-1.7666-.63086,3.11059,3.11059,0,0,0,.21045-.74316,7.91254,7.91254,0,0,0,.126-.93945l.16846-.1123q.252.28052.6167.61719a4.66651,4.66651,0,0,0,.85547.6167,5.47367,5.47367,0,0,0,1.06543.46289,4.10778,4.10778,0,0,0,1.248.18213,4.99676,4.99676,0,0,0,1.89307-.33643,4.03061,4.03061,0,0,0,1.416-.95361,4.10875,4.10875,0,0,0,.89746-1.48633,5.66491,5.66491,0,0,0,.30859-1.90674,5.66818,5.66818,0,0,0-.29443-1.94922,3.32019,3.32019,0,0,0-.81348-1.28955,3.12772,3.12772,0,0,0-1.248-.71533,5.42126,5.42126,0,0,0-1.59814-.22412,4.15322,4.15322,0,0,0-.65918.05615q-.35083.0564-.603.11182a2.92311,2.92311,0,0,0,.04248-.29443c.00879-.10254.01367-.20068.01367-.29443,0-.09326-.00488-.19141-.01367-.29443a2.96429,2.96429,0,0,0-.04248-.29443,6.43153,6.43153,0,0,0,1.26221.1123,2.85064,2.85064,0,0,0,1.59814-.40674,2.93354,2.93354,0,0,0,.96777-1.0376,4.28579,4.28579,0,0,0,.47656-1.38818,8.88777,8.88777,0,0,0,.12646-1.458,4.14941,4.14941,0,0,0-.2666-1.55664,3.2093,3.2093,0,0,0-.687-1.07959,2.62,2.62,0,0,0-.95361-.6167,3.14109,3.14109,0,0,0-1.09375-.19629,3.0345,3.0345,0,0,0-2.00488.687,3.58448,3.58448,0,0,0-1.13574,1.55615l-.19629.05615L9.376,7.81445A7.208,7.208,0,0,1,10.93262,6.69287Z"/></g></g><g class="aef1bda0-71cc-4021-95bb-455beb4def33"><g class="aef1bda0-71cc-4021-95bb-455beb4def33"><path d="M89.06836,149.30762a5.13761,5.13761,0,0,1-2.53809.56055,8.31526,8.31526,0,0,1-2.0752-.252,5.30254,5.30254,0,0,1-1.71094-.75781,3.63358,3.63358,0,0,1-1.14941-1.29,3.92822,3.92822,0,0,1-.4209-1.87891,4.3107,4.3107,0,0,1,.36523-1.80859,4.94715,4.94715,0,0,1,.91113-1.374,4.89289,4.89289,0,0,1,1.21973-.93945,6.03424,6.03424,0,0,1,1.29-.53223v-.16895a8.85518,8.85518,0,0,1-1.543-.2666,4.6629,4.6629,0,0,1-1.51367-.7002,3.95986,3.95986,0,0,1-1.16406-1.30469,4.1556,4.1556,0,0,1-.46289-2.0752,5.40147,5.40147,0,0,1,.51953-2.36914,5.53152,5.53152,0,0,1,1.458-1.86523,6.62308,6.62308,0,0,1,2.25684-1.20605,9.56774,9.56774,0,0,1,2.917-.41992,9.24632,9.24632,0,0,1,4.23438.89746,3.108,3.108,0,0,0-.21.74316,8.11047,8.11047,0,0,0-.127.93945l-.168.11133q-.252-.27979-.61719-.61621a4.57982,4.57982,0,0,0-.85547-.61719,5.37755,5.37755,0,0,0-1.06543-.46289,4.08812,4.08812,0,0,0-1.248-.18262,4.98637,4.98637,0,0,0-1.89258.33691,4.04042,4.04042,0,0,0-1.416.95313A4.12118,4.12118,0,0,0,83.165,134.248a6.30953,6.30953,0,0,0-.01367,3.85645,3.32425,3.32425,0,0,0,.8125,1.29,3.15431,3.15431,0,0,0,1.248.71484,5.42434,5.42434,0,0,0,1.59863.22461,4.2146,4.2146,0,0,0,.65918-.05664c.23438-.03711.43457-.07422.60254-.1123a2.93578,2.93578,0,0,0-.042.29492c-.00879.10254-.01367.2002-.01367.29395s.00488.19141.01367.29492a2.95637,2.95637,0,0,0,.042.29395,6.49918,6.49918,0,0,0-1.26172-.11133,2.85454,2.85454,0,0,0-1.59863.40625,2.9331,2.9331,0,0,0-.9668,1.03711,4.29392,4.29392,0,0,0-.47754,1.38867,8.8811,8.8811,0,0,0-.126,1.458,4.138,4.138,0,0,0,.2666,1.55664,3.19288,3.19288,0,0,0,.6875,1.0791,2.60289,2.60289,0,0,0,.95313.61719,3.14109,3.14109,0,0,0,1.09375.19629,3.03839,3.03839,0,0,0,2.00488-.68652,3.58744,3.58744,0,0,0,1.13574-1.55664l.19629-.05664.64453,1.51465A7.19924,7.19924,0,0,1,89.06836,149.30762Z"/></g></g><g class="edea2dfb-8aa5-45a3-9970-b0e60197dbdd"><g class="e154eda6-bc2a-44e8-8c02-590aecf69c18"><path d="M14.85632,39.17836a10.66025,10.66025,0,0,1-2.57369,5.64414.1012.1012,0,0,0,.0742.17025h5.19873a.10119.10119,0,0,0,.0742-.17025,10.66025,10.66025,0,0,1-2.57369-5.64414.101.101,0,0,0-.19975,0"/><path d="M18.227,34.09788c0,2.01109-3.27071,4.57946-3.27071,4.57946s-3.26862-2.56837-3.26862-4.57946a3.47058,3.47058,0,0,1,3.26963-3.64141,3.47059,3.47059,0,0,1,3.2697,3.64141"/><path d="M18.82942,42.07347c-1.89029,0-3.8732-1.39049-3.8732-3.10445s1.98291-3.10249,3.8732-3.10249a3.11835,3.11835,0,1,1,0,6.20693"/><path d="M11.083,35.86652c1.89029,0,3.8732,1.39043,3.8732,3.10445s-1.98291,3.10249-3.8732,3.10249a3.11835,3.11835,0,1,1,0-6.20693"/><path d="M16.36917,37.825a1.41189,1.41189,0,1,1-1.41189-1.41189A1.41193,1.41193,0,0,1,16.36917,37.825"/></g></g><g class="eceaef23-8fa4-4b72-823f-69913ddd861d"><g class="f1161858-bbbd-4065-84d5-8ff82510ab87"><path d="M85.14368,116.82164a10.66025,10.66025,0,0,1,2.57369-5.64414.1012.1012,0,0,0-.0742-.17025H82.44444a.10119.10119,0,0,0-.0742.17025,10.66025,10.66025,0,0,1,2.57369,5.64414.101.101,0,0,0,.19975,0"/><path d="M81.773,121.90212c0-2.01109,3.27071-4.57946,3.27071-4.57946s3.26862,2.56837,3.26862,4.57946a3.28864,3.28864,0,1,1-6.53933,0"/><path d="M81.17058,113.92653c1.89029,0,3.8732,1.39049,3.8732,3.10445s-1.98291,3.10249-3.8732,3.10249a3.11835,3.11835,0,1,1,0-6.20693"/><path d="M88.917,120.13348c-1.89029,0-3.8732-1.39043-3.8732-3.10445s1.98291-3.10249,3.8732-3.10249a3.11835,3.11835,0,1,1,0,6.20693"/><path d="M83.63083,118.175a1.41189,1.41189,0,1,1,1.41189,1.41189,1.41193,1.41193,0,0,1-1.41189-1.41189"/></g></g><g class="cd391a53-6760-41bf-af13-05cafe3f62e2"><g class="2de8e822-3e10-4e5a-a963-2373114a81fe"><path d="M49.88639,25.49855a12.12867,12.12867,0,0,1-2.92821,6.42161.11514.11514,0,0,0,.08442.1937h5.91484a.11512.11512,0,0,0,.08443-.1937,12.12867,12.12867,0,0,1-2.92821-6.42161.1149.1149,0,0,0-.22727,0"/><path d="M53.72133,19.71826c0,2.28811-3.72124,5.21027-3.72124,5.21027s-3.71886-2.92216-3.71886-5.21027a3.74164,3.74164,0,1,1,7.4401,0"/><path d="M54.40678,28.79245c-2.15067,0-4.40672-1.582-4.40672-3.53208s2.25605-3.52984,4.40672-3.52984a3.72588,3.72588,0,0,1,3.89405,3.53093,3.72589,3.72589,0,0,1-3.89405,3.531"/><path d="M45.59329,21.73052C47.744,21.73052,50,23.31247,50,25.26259s-2.25605,3.52984-4.40672,3.52984a3.726,3.726,0,0,1-3.89412-3.53093,3.726,3.726,0,0,1,3.89412-3.531"/><path d="M51.60763,23.95881a1.60637,1.60637,0,1,1-1.60637-1.60637,1.60642,1.60642,0,0,1,1.60637,1.60637"/></g></g><g class="bf541bd5-37ec-4676-836e-e589d0cde0d7"><g class="820e850d-fdc1-431b-8d34-ef6e0cd2b692"><path d="M49.88639,77.34471a12.12867,12.12867,0,0,1-2.92821,6.42161.11514.11514,0,0,0,.08442.1937h5.91484a.11512.11512,0,0,0,.08443-.1937,12.12867,12.12867,0,0,1-2.92821-6.42161.1149.1149,0,0,0-.22727,0"/><path d="M53.72133,71.56442c0,2.28811-3.72124,5.21027-3.72124,5.21027s-3.71886-2.92216-3.71886-5.21027a3.74164,3.74164,0,1,1,7.4401,0"/><path d="M54.40678,80.63861c-2.15067,0-4.40672-1.582-4.40672-3.53208s2.25605-3.52984,4.40672-3.52984a3.54789,3.54789,0,1,1,0,7.06192"/><path d="M45.59329,73.57668C47.744,73.57668,50,75.15863,50,77.10875S47.744,80.6386,45.59329,80.6386a3.5479,3.5479,0,1,1,0-7.06192"/><path d="M51.60763,75.805a1.60637,1.60637,0,1,1-1.60637-1.60637A1.60642,1.60642,0,0,1,51.60763,75.805"/></g></g><g class="24eba050-793b-4fd8-9174-bc813a14718d"><g class="2a2a5b65-d3ca-4b6d-b637-99f794cf440b"><path d="M50.11361,125.88288a12.12867,12.12867,0,0,1,2.92821-6.42161.11514.11514,0,0,0-.08442-.1937H47.04255a.11512.11512,0,0,0-.08443.1937,12.12867,12.12867,0,0,1,2.92821,6.42161.1149.1149,0,0,0,.22727,0"/><path d="M46.27867,131.66317c0-2.28811,3.72124-5.21027,3.72124-5.21027s3.71886,2.92216,3.71886,5.21027a3.74164,3.74164,0,1,1-7.4401,0"/><path d="M45.59322,122.589c2.15067,0,4.40672,1.582,4.40672,3.53208s-2.25605,3.52984-4.40672,3.52984a3.54789,3.54789,0,1,1,0-7.06192"/><path d="M54.40671,129.65091C52.256,129.65091,50,128.069,50,126.11883S52.256,122.589,54.40671,122.589a3.5479,3.5479,0,1,1,0,7.06192"/><path d="M48.39237,127.42262a1.60637,1.60637,0,1,1,1.60637,1.60637,1.60642,1.60642,0,0,1-1.60637-1.60637"/></g></g></svg>