<svg id="b61df3b7-1993-45e0-b89a-6d7f42bb6061" data-name="レイヤー 1" xmlns="http://www.w3.org/2000/svg" xmlns:xlink="http://www.w3.org/1999/xlink" viewBox="0 0 100 156"><defs><style>.f920e012-f264-42ff-9ce6-ca42c9cd9882{fill:none;}.dfd45d1b-19a0-476c-af6c-846a0454c80e{fill:#fff;}.f4a35748-f013-4d54-acc9-1588dcff8bc2{fill:#7f7f7f;}.fa5e0ded-3f36-4d9e-9399-629be8050135{clip-path:url(#acddb3b8-da5a-40de-b221-fc602ea1e55e);}.\38 0e80aec-5673-417f-b305-212f8dbd3317{clip-path:url(#33190519-d3d8-4255-9539-2bf58d75b69f);}.\37 c5e1470-5f27-41ac-8c38-3d1bba16b142{clip-path:url(#b71d595c-140f-4e12-9437-414665dce3b7);}.\32 190cf73-b7e0-46e6-83cf-12703441288e{clip-path:url(#862173ee-bb5c-4f28-9bf7-c991543a5e1b);}.\32 ddbcf73-c0e9-4f51-901a-80e6872eff2b{clip-path:url(#eded8183-52dd-4e13-a976-0f2e5e9d5bad);}.\31 b2d9bd3-ce76-47e1-96b7-3e081bdfc1f3{clip-path:url(#b0665597-a1db-49fd-9395-23229ecf74df);}.\35 38200cf-b145-43d5-ad7f-aef9dbe1f449{clip-path:url(#bf407b3b-dea9-4481-b188-49f8e9279fe2);}.\35 f949a8a-b851-44e2-8594-0716297dbb74{clip-path:url(#017e134d-aba3-4f22-b87f-67be6c95c292);}.\35 cdddc14-2ac1-4bf4-bbf4-b4fd1c507221{clip-path:url(#d28d754c-5290-4eff-9246-a208ebf93fb6);}.\31 32b2701-a7b9-45ed-a126-8f3c39f85158{clip-path:url(#2fb4353e-7a70-42d7-9ba1-2326d3e0e587);}.\39 faa9d4b-b569-4546-81e3-db10a4b385dc{clip-path:url(#ef705f6a-e770-4b0c-9521-635531bb022d);}.dc7df898-245f-490d-9713-a17a00242910{clip-path:url(#41446545-b8a4-4993-897f-b089290073c2);}.\30 e317149-e5be-46d0-84dc-1713ece5973a{clip-path:url(#24deb47b-ba33-471b-9d84-8f0f02141c0c);}.\36 cf8990b-a8ef-4bd0-9394-9e77aeec4611{clip-path:url(#34b8de27-7853-4cc4-a5b0-8e144267113f);}.\35 1db0e4a-f6c8-4f61-9b89-7555bc86507e{clip-path:url(#325898d1-0022-4540-a2bc-8bb17d3b0b8f);}.\38 3c31420-d5b6-4d80-ab50-d2863c0bf9e5{clip-path:url(#686c38ba-830b-4c01-bf72-12cd77788b31);}</style><clipPath id="acddb3b8-da5a-40de-b221-fc602ea1e55e"><rect class="f920e012-f264-42ff-9ce6-ca42c9cd9882" width="29.91235" height="29.91235"/></clipPath><clipPath id="33190519-d3d8-4255-9539-2bf58d75b69f"><rect class="f920e012-f264-42ff-9ce6-ca42c9cd9882" x="70.08765" y="126.08765" width="29.91235" height="29.91235"/></clipPath><clipPath id="b71d595c-140f-4e12-9437-414665dce3b7"><rect class="f920e012-f264-42ff-9ce6-ca42c9cd9882" x="7.66032" y="30.45647" width="14.5917" height="14.53628"/></clipPath><clipPath id="862173ee-bb5c-4f28-9bf7-c991543a5e1b"><rect class="f920e012-f264-42ff-9ce6-ca42c9cd9882" x="6.8531" y="29.72091" width="16.20824" height="16.20824"/></clipPath><clipPath id="eded8183-52dd-4e13-a976-0f2e5e9d5bad"><rect class="f920e012-f264-42ff-9ce6-ca42c9cd9882" x="77.74798" y="111.00725" width="14.5917" height="14.53628"/></clipPath><clipPath id="b0665597-a1db-49fd-9395-23229ecf74df"><rect class="f920e012-f264-42ff-9ce6-ca42c9cd9882" x="76.93865" y="110.07085" width="16.20824" height="16.20824"/></clipPath><clipPath id="bf407b3b-dea9-4481-b188-49f8e9279fe2"><rect class="f920e012-f264-42ff-9ce6-ca42c9cd9882" x="26.33343" y="15.57525" width="16.60167" height="16.53861"/></clipPath><clipPath id="017e134d-aba3-4f22-b87f-67be6c95c292"><rect class="f920e012-f264-42ff-9ce6-ca42c9cd9882" x="25.41501" y="14.73837" width="18.44088" height="18.44088"/></clipPath><clipPath id="d28d754c-5290-4eff-9246-a208ebf93fb6"><rect class="f920e012-f264-42ff-9ce6-ca42c9cd9882" x="41.69917" y="67.42141" width="16.60167" height="16.53861"/></clipPath><clipPath id="2fb4353e-7a70-42d7-9ba1-2326d3e0e587"><rect class="f920e012-f264-42ff-9ce6-ca42c9cd9882" x="40.78075" y="66.58453" width="18.44088" height="18.44088"/></clipPath><clipPath id="ef705f6a-e770-4b0c-9521-635531bb022d"><rect class="f920e012-f264-42ff-9ce6-ca42c9cd9882" x="57.06491" y="119.26757" width="16.60167" height="16.53861"/></clipPath><clipPath id="41446545-b8a4-4993-897f-b089290073c2"><rect class="f920e012-f264-42ff-9ce6-ca42c9cd9882" x="56.1441" y="118.20218" width="18.44088" height="18.44088"/></clipPath><clipPath id="24deb47b-ba33-471b-9d84-8f0f02141c0c"><rect class="f920e012-f264-42ff-9ce6-ca42c9cd9882" x="57.06491" y="15.57525" width="16.60167" height="16.53861"/></clipPath><clipPath id="34b8de27-7853-4cc4-a5b0-8e144267113f"><rect class="f920e012-f264-42ff-9ce6-ca42c9cd9882" x="56.1465" y="14.73837" width="18.44088" height="18.44088"/></clipPath><clipPath id="325898d1-0022-4540-a2bc-8bb17d3b0b8f"><rect class="f920e012-f264-42ff-9ce6-ca42c9cd9882" x="26.33343" y="119.26757" width="16.60167" height="16.53861"/></clipPath><clipPath id="686c38ba-830b-4c01-bf72-12cd77788b31"><rect class="f920e012-f264-42ff-9ce6-ca42c9cd9882" x="25.41262" y="118.20218" width="18.44088" height="18.44088"/></clipPath></defs><title>5</title><rect class="dfd45d1b-19a0-476c-af6c-846a0454c80e" x="0.5" y="0.5" width="99" height="155" rx="5.5" ry="5.5"/><path class="f4a35748-f013-4d54-acc9-1588dcff8bc2" d="M94,1a5.00567,5.00567,0,0,1,5,5V150a5.00567,5.00567,0,0,1-5,5H6a5.00567,5.00567,0,0,1-5-5V6A5.00567,5.00567,0,0,1,6,1H94m0-1H6A6,6,0,0,0,0,6V150a6,6,0,0,0,6,6H94a6,6,0,0,0,6-6V6a6,6,0,0,0-6-6Z"/><g class="fa5e0ded-3f36-4d9e-9399-629be8050135"><g class="fa5e0ded-3f36-4d9e-9399-629be8050135"><path d="M12.811,13.96973a6.68768,6.68768,0,0,1,1.92139-.21045,5.66828,5.66828,0,0,1,2.229.4209,5.04634,5.04634,0,0,1,1.69678,1.14941,5.15357,5.15357,0,0,1,1.07959,1.68262,5.42145,5.42145,0,0,1,.37842,2.019,6.16706,6.16706,0,0,1-.50439,2.48193,5.93892,5.93892,0,0,1-1.43018,2.019,6.59789,6.59789,0,0,1-2.20166,1.332,8.079,8.079,0,0,1-2.84619.47705,13.62372,13.62372,0,0,1-2.42578-.21045,5.232,5.232,0,0,1-2.061-.82715V24.0791a6.81592,6.81592,0,0,0,.25244-.82715q.11133-.46289.168-.79932h.19629a3.026,3.026,0,0,0,.687.89746,4.19184,4.19184,0,0,0,.98193.65918,4.90869,4.90869,0,0,0,1.14941.39258,5.68485,5.68485,0,0,0,1.16406.126,4.29646,4.29646,0,0,0,1.6123-.30859,3.67005,3.67005,0,0,0,1.35986-.95312,4.92619,4.92619,0,0,0,.95361-1.62646,6.60441,6.60441,0,0,0,.36475-2.2998,5.43909,5.43909,0,0,0-.33643-2.019,3.92382,3.92382,0,0,0-.88379-1.374,3.287,3.287,0,0,0-1.24756-.771,4.508,4.508,0,0,0-1.4585-.23877,4.13939,4.13939,0,0,0-1.90674.37891q-.72949.37866-.98145.54688l-.30859-.19629a16.32044,16.32044,0,0,0,.23828-2.31348q.04248-1.22021.042-2.42578,0-1.17773-.042-2.42578a19.94075,19.94075,0,0,0-.18213-2.20166l.25244-.168q.47607.08423,1.57031.168,1.2334.08423,3.42139.08447,1.34546,0,2.3833-.01416,1.03711-.01392,1.54248-.042l.14014.1123a4.05339,4.05339,0,0,0-.1543.771,7.82492,7.82492,0,0,0-.042.79932,2.19161,2.19161,0,0,0,.02832.47656,15.70682,15.70682,0,0,0-1.64062-.18213q-1.02393-.06958-2.14551-.1123-1.12134-.04175-2.15918-.05615Q12.62866,8.1228,11.98389,8.123l-.39258,6.36572A6.838,6.838,0,0,1,12.811,13.96973Z"/></g></g><g class="80e80aec-5673-417f-b305-212f8dbd3317"><g class="80e80aec-5673-417f-b305-212f8dbd3317"><path d="M87.18945,142.03027a6.67179,6.67179,0,0,1-1.9209.21,5.68107,5.68107,0,0,1-2.22949-.41992,5.05789,5.05789,0,0,1-1.69727-1.15039,5.14206,5.14206,0,0,1-1.0791-1.68262,5.40953,5.40953,0,0,1-.37891-2.01855,6.1831,6.1831,0,0,1,.50488-2.48242,5.94113,5.94113,0,0,1,1.43066-2.01855,6.59388,6.59388,0,0,1,2.20117-1.332,8.09294,8.09294,0,0,1,2.84668-.47656,13.57194,13.57194,0,0,1,2.4248.21,5.23556,5.23556,0,0,1,2.06152.82715v.22461a6.54326,6.54326,0,0,0-.252.82715c-.0752.30859-.13086.5752-.16895.79883h-.19629a3.0061,3.0061,0,0,0-.68652-.89648,4.15419,4.15419,0,0,0-.98145-.65918,4.90913,4.90913,0,0,0-1.15039-.39258,5.6788,5.6788,0,0,0-1.16309-.127,4.29777,4.29777,0,0,0-1.61328.30859,3.675,3.675,0,0,0-1.35937.9541,4.91947,4.91947,0,0,0-.9541,1.626,6.61628,6.61628,0,0,0-.36426,2.2998,5.42422,5.42422,0,0,0,.33691,2.01855,3.91074,3.91074,0,0,0,.88281,1.375,3.30725,3.30725,0,0,0,1.248.77051,4.49155,4.49155,0,0,0,1.458.23828,4.15,4.15,0,0,0,1.90723-.37793q.72949-.37939.98145-.54687l.30859.19629a16.298,16.298,0,0,0-.23828,2.31348q-.04248,1.21875-.042,2.42578,0,1.17773.042,2.42578a19.92164,19.92164,0,0,0,.18262,2.20117l-.25293.168q-.47607-.0835-1.57031-.168-1.2334-.085-3.4209-.084-1.34619,0-2.38379.01367-1.03711.01318-1.543.042l-.13965-.1123a4.01339,4.01339,0,0,0,.1543-.77148,7.67156,7.67156,0,0,0,.042-.79883,2.2228,2.2228,0,0,0-.02832-.47656,15.65514,15.65514,0,0,0,1.64063.18262q1.02393.06885,2.14551.11133,1.12207.04248,2.15918.05664,1.03711.01318,1.68262.01367l.39258-6.36523A6.90891,6.90891,0,0,1,87.18945,142.03027Z"/></g></g><g class="7c5e1470-5f27-41ac-8c38-3d1bba16b142"><g class="2190cf73-b7e0-46e6-83cf-12703441288e"><path d="M14.85632,39.17836a10.66025,10.66025,0,0,1-2.57369,5.64414.1012.1012,0,0,0,.0742.17025h5.19873a.10119.10119,0,0,0,.0742-.17025,10.66025,10.66025,0,0,1-2.57369-5.64414.101.101,0,0,0-.19975,0"/><path d="M18.227,34.09788c0,2.01109-3.27071,4.57946-3.27071,4.57946s-3.26862-2.56837-3.26862-4.57946a3.47058,3.47058,0,0,1,3.26963-3.64141,3.47059,3.47059,0,0,1,3.2697,3.64141"/><path d="M18.82942,42.07347c-1.89029,0-3.8732-1.39049-3.8732-3.10445s1.98291-3.10249,3.8732-3.10249a3.11835,3.11835,0,1,1,0,6.20693"/><path d="M11.083,35.86652c1.89029,0,3.8732,1.39043,3.8732,3.10445s-1.98291,3.10249-3.8732,3.10249a3.11835,3.11835,0,1,1,0-6.20693"/><path d="M16.36917,37.825a1.41189,1.41189,0,1,1-1.41189-1.41189A1.41193,1.41193,0,0,1,16.36917,37.825"/></g></g><g class="2ddbcf73-c0e9-4f51-901a-80e6872eff2b"><g class="1b2d9bd3-ce76-47e1-96b7-3e081bdfc1f3"><path d="M85.14368,116.82164a10.66025,10.66025,0,0,1,2.57369-5.64414.1012.1012,0,0,0-.0742-.17025H82.44444a.10119.10119,0,0,0-.0742.17025,10.66025,10.66025,0,0,1,2.57369,5.64414.101.101,0,0,0,.19975,0"/><path d="M81.773,121.90212c0-2.01109,3.27071-4.57946,3.27071-4.57946s3.26862,2.56837,3.26862,4.57946a3.28864,3.28864,0,1,1-6.53933,0"/><path d="M81.17058,113.92653c1.89029,0,3.8732,1.39049,3.8732,3.10445s-1.98291,3.10249-3.8732,3.10249a3.11835,3.11835,0,1,1,0-6.20693"/><path d="M88.917,120.13348c-1.89029,0-3.8732-1.39043-3.8732-3.10445s1.98291-3.10249,3.8732-3.10249a3.11835,3.11835,0,1,1,0,6.20693"/><path d="M83.63083,118.175a1.41189,1.41189,0,1,1,1.41189,1.41189,1.41193,1.41193,0,0,1-1.41189-1.41189"/></g></g><g class="538200cf-b145-43d5-ad7f-aef9dbe1f449"><g class="5f949a8a-b851-44e2-8594-0716297dbb74"><path d="M34.52065,25.49855a12.12867,12.12867,0,0,1-2.92821,6.42161.11514.11514,0,0,0,.08442.1937h5.91484a.11512.11512,0,0,0,.08443-.1937,12.12867,12.12867,0,0,1-2.92821-6.42161.1149.1149,0,0,0-.22727,0"/><path d="M38.35559,19.71826c0,2.28811-3.72124,5.21027-3.72124,5.21027s-3.71886-2.92216-3.71886-5.21027a3.94865,3.94865,0,0,1,3.72-4.143,3.94866,3.94866,0,0,1,3.72009,4.143"/><path d="M39.041,28.79245c-2.15067,0-4.40672-1.582-4.40672-3.53208s2.25605-3.52984,4.40672-3.52984a3.72588,3.72588,0,0,1,3.89405,3.53093,3.72589,3.72589,0,0,1-3.89405,3.531"/><path d="M30.22755,21.73052c2.15067,0,4.40672,1.582,4.40672,3.53208s-2.25605,3.52984-4.40672,3.52984a3.726,3.726,0,0,1-3.89412-3.53093,3.726,3.726,0,0,1,3.89412-3.531"/><path d="M36.24189,23.95881a1.60637,1.60637,0,1,1-1.60637-1.60637,1.60642,1.60642,0,0,1,1.60637,1.60637"/></g></g><g class="5cdddc14-2ac1-4bf4-bbf4-b4fd1c507221"><g class="132b2701-a7b9-45ed-a126-8f3c39f85158"><path d="M49.88639,77.34471a12.12867,12.12867,0,0,1-2.92821,6.42161.11514.11514,0,0,0,.08442.1937h5.91484a.11512.11512,0,0,0,.08443-.1937,12.12867,12.12867,0,0,1-2.92821-6.42161.1149.1149,0,0,0-.22727,0"/><path d="M53.72133,71.56442c0,2.28811-3.72124,5.21027-3.72124,5.21027s-3.71886-2.92216-3.71886-5.21027a3.74164,3.74164,0,1,1,7.4401,0"/><path d="M54.40678,80.63861c-2.15067,0-4.40672-1.582-4.40672-3.53208s2.25605-3.52984,4.40672-3.52984a3.54789,3.54789,0,1,1,0,7.06192"/><path d="M45.59329,73.57668C47.744,73.57668,50,75.15863,50,77.10875S47.744,80.6386,45.59329,80.6386a3.5479,3.5479,0,1,1,0-7.06192"/><path d="M51.60763,75.805a1.60637,1.60637,0,1,1-1.60637-1.60637A1.60642,1.60642,0,0,1,51.60763,75.805"/></g></g><g class="9faa9d4b-b569-4546-81e3-db10a4b385dc"><g class="dc7df898-245f-490d-9713-a17a00242910"><path d="M65.47935,125.88288a12.12867,12.12867,0,0,1,2.92821-6.42161.11514.11514,0,0,0-.08442-.1937H62.40829a.11512.11512,0,0,0-.08443.1937,12.12867,12.12867,0,0,1,2.92821,6.42161.1149.1149,0,0,0,.22727,0"/><path d="M61.64441,131.66317c0-2.28811,3.72124-5.21027,3.72124-5.21027s3.71886,2.92216,3.71886,5.21027a3.74164,3.74164,0,1,1-7.4401,0"/><path d="M60.959,122.589c2.15067,0,4.40672,1.582,4.40672,3.53208s-2.25605,3.52984-4.40672,3.52984a3.54789,3.54789,0,1,1,0-7.06192"/><path d="M69.77245,129.65091c-2.15067,0-4.40672-1.582-4.40672-3.53208s2.25605-3.52984,4.40672-3.52984a3.5479,3.5479,0,1,1,0,7.06192"/><path d="M63.75812,127.42262a1.60637,1.60637,0,1,1,1.60637,1.60637,1.60642,1.60642,0,0,1-1.60637-1.60637"/></g></g><g class="0e317149-e5be-46d0-84dc-1713ece5973a"><g class="6cf8990b-a8ef-4bd0-9394-9e77aeec4611"><path d="M65.25214,25.49855a12.12867,12.12867,0,0,1-2.92821,6.42161.11514.11514,0,0,0,.08442.1937h5.91484a.11512.11512,0,0,0,.08443-.1937,12.12867,12.12867,0,0,1-2.92821-6.42161.1149.1149,0,0,0-.22727,0"/><path d="M69.08707,19.71826c0,2.28811-3.72124,5.21027-3.72124,5.21027S61.647,22.00637,61.647,19.71826a3.74164,3.74164,0,1,1,7.4401,0"/><path d="M69.77252,28.79245c-2.15067,0-4.40672-1.582-4.40672-3.53208s2.25605-3.52984,4.40672-3.52984a3.72588,3.72588,0,0,1,3.89405,3.53093,3.72589,3.72589,0,0,1-3.89405,3.531"/><path d="M60.959,21.73052c2.15067,0,4.40672,1.582,4.40672,3.53208S63.1097,28.79244,60.959,28.79244a3.726,3.726,0,0,1-3.89412-3.53093,3.726,3.726,0,0,1,3.89412-3.531"/><path d="M66.97337,23.95881A1.60637,1.60637,0,1,1,65.367,22.35244a1.60642,1.60642,0,0,1,1.60637,1.60637"/></g></g><g class="51db0e4a-f6c8-4f61-9b89-7555bc86507e"><g class="83c31420-d5b6-4d80-ab50-d2863c0bf9e5"><path d="M34.74786,125.88288a12.12867,12.12867,0,0,1,2.92821-6.42161.11514.11514,0,0,0-.08442-.1937H31.67681a.11512.11512,0,0,0-.08443.1937,12.12867,12.12867,0,0,1,2.92821,6.42161.1149.1149,0,0,0,.22727,0"/><path d="M30.91293,131.66317c0-2.28811,3.72124-5.21027,3.72124-5.21027s3.71886,2.92216,3.71886,5.21027a3.94865,3.94865,0,0,1-3.72,4.143,3.94866,3.94866,0,0,1-3.72009-4.143"/><path d="M30.22748,122.589c2.15067,0,4.40672,1.582,4.40672,3.53208s-2.25605,3.52984-4.40672,3.52984a3.54789,3.54789,0,1,1,0-7.06192"/><path d="M39.041,129.65091c-2.15067,0-4.40672-1.582-4.40672-3.53208S36.8903,122.589,39.041,122.589a3.5479,3.5479,0,1,1,0,7.06192"/><path d="M33.02663,127.42262A1.60637,1.60637,0,1,1,34.633,129.029a1.60642,1.60642,0,0,1-1.60637-1.60637"/></g></g></svg>