<svg id="b5ec430d-0cf6-456e-b9c6-53955f95e780" data-name="レイヤー 1" xmlns="http://www.w3.org/2000/svg" xmlns:xlink="http://www.w3.org/1999/xlink" viewBox="0 0 100 156"><defs><style>.bc4067c3-3a25-40f7-97d7-25dbd2161723{fill:none;}.b815d6ad-5f0f-422a-bae1-81707eadeb8e{fill:#fff;}.\34 4365437-37e4-4ff5-be0f-0c0fb47ef24e{fill:#7f7f7f;}.cd79643a-4c2d-4837-b02a-ea7e70c7c1b5{clip-path:url(#b8bb644a-1cba-4b4d-a883-ef175c79f950);}.de6f13c2-d56d-4fe0-8d30-59c36ec89a7a{clip-path:url(#b871efea-657f-4dc3-9508-ef5b05b2f1d1);}.\36 b493abe-d00d-4ce8-bf4c-caf48c3d36f9{clip-path:url(#8eb61b3f-efca-4b5b-98d5-74084e31cba8);}.\32 e8b0d3e-b74b-4908-8fad-ef2b76b9306c{clip-path:url(#ccc24f3f-953c-4b46-8ca2-6bc0368874d4);}.\35 db381f6-b01d-4590-baba-a4cdcc75c6c1{clip-path:url(#e6827790-16f5-4d0b-b516-408d55a3871a);}.\34 ec8c37d-1059-468c-8136-e94df401fb85{clip-path:url(#35db5129-492d-4fcc-be12-e19ecbdd1af0);}.\32 5843385-6aca-4049-b991-fbb14a2e3172{clip-path:url(#7fad16c0-0ee2-473d-928b-b2c59d074404);}.d9400c05-92bb-49b9-bd00-2deda33cdb79{clip-path:url(#cc00eec4-689e-4a57-93f4-2ef803ef5a77);}.b0138d80-4da8-4192-9e99-22cf37251802{clip-path:url(#6012497a-4698-4bef-9ab5-6d9fca58a60b);}.ce24c693-8e72-45e7-b393-fa4dd0a2296f{clip-path:url(#548f54c4-1950-4803-90ef-fc7be7060727);}.c8e48faa-6689-48a4-8a31-091047faf654{clip-path:url(#5e9e912c-fd46-490f-bb89-22b0144f839f);}.\36 4e85718-3a71-42ec-a5b6-1853797d6070{clip-path:url(#d21edfe4-104f-4b72-83dc-3d62491e9107);}.\30 7f24db7-6f46-4c5d-9e0b-8bdeb0546b2e{clip-path:url(#243f5145-6257-49ba-a656-d5605a4b65b9);}.\36 1e2a31c-ac9d-40ae-a5f1-a97fc2182bbc{clip-path:url(#b650c59b-0b98-4326-84e8-c59df5d61038);}.\33 704e8c9-1155-4f49-b3aa-2a8a783c7898{clip-path:url(#34282cc0-ba9c-4211-8a89-cd6d6c311647);}.\37 dbdf83c-ab96-49e7-aadb-ef0ddd6d4290{clip-path:url(#fb3cf7fc-c927-4cf4-9cc6-0ae06f0db688);}.\39 d446d42-834c-45d0-a97b-269d94850534{clip-path:url(#22e75ab2-63bd-46d0-9936-cd1b1c768cb1);}.\33 d1add2a-e82a-47e9-9b24-8754691b7da5{clip-path:url(#cc42cbb7-9aa8-458a-950b-a91ad4b7616e);}</style><clipPath id="b8bb644a-1cba-4b4d-a883-ef175c79f950"><rect class="bc4067c3-3a25-40f7-97d7-25dbd2161723" width="29.91235" height="29.91235"/></clipPath><clipPath id="b871efea-657f-4dc3-9508-ef5b05b2f1d1"><rect class="bc4067c3-3a25-40f7-97d7-25dbd2161723" x="70.08765" y="126.08765" width="29.91235" height="29.91235"/></clipPath><clipPath id="8eb61b3f-efca-4b5b-98d5-74084e31cba8"><rect class="bc4067c3-3a25-40f7-97d7-25dbd2161723" x="7.66032" y="30.45647" width="14.5917" height="14.53628"/></clipPath><clipPath id="ccc24f3f-953c-4b46-8ca2-6bc0368874d4"><rect class="bc4067c3-3a25-40f7-97d7-25dbd2161723" x="6.8531" y="29.72091" width="16.20824" height="16.20824"/></clipPath><clipPath id="e6827790-16f5-4d0b-b516-408d55a3871a"><rect class="bc4067c3-3a25-40f7-97d7-25dbd2161723" x="77.74798" y="111.00725" width="14.5917" height="14.53628"/></clipPath><clipPath id="35db5129-492d-4fcc-be12-e19ecbdd1af0"><rect class="bc4067c3-3a25-40f7-97d7-25dbd2161723" x="76.93865" y="110.07085" width="16.20824" height="16.20824"/></clipPath><clipPath id="7fad16c0-0ee2-473d-928b-b2c59d074404"><rect class="bc4067c3-3a25-40f7-97d7-25dbd2161723" x="26.33343" y="15.57525" width="16.60167" height="16.53861"/></clipPath><clipPath id="cc00eec4-689e-4a57-93f4-2ef803ef5a77"><rect class="bc4067c3-3a25-40f7-97d7-25dbd2161723" x="25.41501" y="14.73837" width="18.44088" height="18.44088"/></clipPath><clipPath id="6012497a-4698-4bef-9ab5-6d9fca58a60b"><rect class="bc4067c3-3a25-40f7-97d7-25dbd2161723" x="26.33343" y="67.42141" width="16.60167" height="16.53861"/></clipPath><clipPath id="548f54c4-1950-4803-90ef-fc7be7060727"><rect class="bc4067c3-3a25-40f7-97d7-25dbd2161723" x="25.41501" y="66.58453" width="18.44088" height="18.44088"/></clipPath><clipPath id="5e9e912c-fd46-490f-bb89-22b0144f839f"><rect class="bc4067c3-3a25-40f7-97d7-25dbd2161723" x="57.06491" y="119.26757" width="16.60167" height="16.53861"/></clipPath><clipPath id="d21edfe4-104f-4b72-83dc-3d62491e9107"><rect class="bc4067c3-3a25-40f7-97d7-25dbd2161723" x="56.1441" y="118.20218" width="18.44088" height="18.44088"/></clipPath><clipPath id="243f5145-6257-49ba-a656-d5605a4b65b9"><rect class="bc4067c3-3a25-40f7-97d7-25dbd2161723" x="57.06491" y="15.57525" width="16.60167" height="16.53861"/></clipPath><clipPath id="b650c59b-0b98-4326-84e8-c59df5d61038"><rect class="bc4067c3-3a25-40f7-97d7-25dbd2161723" x="56.1465" y="14.73837" width="18.44088" height="18.44088"/></clipPath><clipPath id="34282cc0-ba9c-4211-8a89-cd6d6c311647"><rect class="bc4067c3-3a25-40f7-97d7-25dbd2161723" x="57.06491" y="67.42141" width="16.60167" height="16.53861"/></clipPath><clipPath id="fb3cf7fc-c927-4cf4-9cc6-0ae06f0db688"><rect class="bc4067c3-3a25-40f7-97d7-25dbd2161723" x="56.1465" y="66.58453" width="18.44088" height="18.44088"/></clipPath><clipPath id="22e75ab2-63bd-46d0-9936-cd1b1c768cb1"><rect class="bc4067c3-3a25-40f7-97d7-25dbd2161723" x="26.33343" y="119.26757" width="16.60167" height="16.53861"/></clipPath><clipPath id="cc42cbb7-9aa8-458a-950b-a91ad4b7616e"><rect class="bc4067c3-3a25-40f7-97d7-25dbd2161723" x="25.41262" y="118.20218" width="18.44088" height="18.44088"/></clipPath></defs><title>6</title><rect class="b815d6ad-5f0f-422a-bae1-81707eadeb8e" x="0.5" y="0.5" width="99" height="155" rx="5.5" ry="5.5"/><path class="44365437-37e4-4ff5-be0f-0c0fb47ef24e" d="M94,1a5.00567,5.00567,0,0,1,5,5V150a5.00567,5.00567,0,0,1-5,5H6a5.00567,5.00567,0,0,1-5-5V6A5.00567,5.00567,0,0,1,6,1H94m0-1H6A6,6,0,0,0,0,6V150a6,6,0,0,0,6,6H94a6,6,0,0,0,6-6V6a6,6,0,0,0-6-6Z"/><g class="cd79643a-4c2d-4837-b02a-ea7e70c7c1b5"><g class="cd79643a-4c2d-4837-b02a-ea7e70c7c1b5"><path d="M18.71436,7.22559q-.30908-.08423-.645-.14014a5.01847,5.01847,0,0,0-.81348-.05615,4.11635,4.11635,0,0,0-1.96289.4624,5.42162,5.42162,0,0,0-1.54248,1.23389,7.7924,7.7924,0,0,0-1.14941,1.76709,13.30351,13.30351,0,0,0-.78516,2.061,14.59921,14.59921,0,0,0-.44873,2.08887,13.98575,13.98575,0,0,0-.14014,1.89307h.05566a7.43482,7.43482,0,0,1,.67334-.95361,4.862,4.862,0,0,1,3.8418-1.7666,7.47161,7.47161,0,0,1,1.68262.22461,5.33088,5.33088,0,0,1,1.80859.813,4.85291,4.85291,0,0,1,1.44434,1.6123,5.21251,5.21251,0,0,1,.58887,2.62207,7.284,7.284,0,0,1-.43457,2.56592,5.58823,5.58823,0,0,1-1.248,1.99121,5.37767,5.37767,0,0,1-1.96289,1.26172,7.24719,7.24719,0,0,1-2.58008.43506,6.78952,6.78952,0,0,1-2.32764-.40674A4.86145,4.86145,0,0,1,10.792,23.57422a6.90072,6.90072,0,0,1-1.35986-2.48145,12.04911,12.04911,0,0,1-.50488-3.74365,17.06708,17.06708,0,0,1,.54688-4.38867,11.46529,11.46529,0,0,1,1.59863-3.58984,7.69626,7.69626,0,0,1,2.60791-2.39746,7.008,7.008,0,0,1,3.5752-.84131q.47681,0,.71533.01416a2.53887,2.53887,0,0,1,.46289.06982l.42041.89746Zm.14014,12.45068a6.23056,6.23056,0,0,0-.8833-3.47705A2.98552,2.98552,0,0,0,15.293,14.853a3.43024,3.43024,0,0,0-1.52832.35059,3.61593,3.61593,0,0,0-1.23389.99561,5.08572,5.08572,0,0,0-.82715,1.52832,5.86833,5.86833,0,0,0-.30859,1.94873,6.53593,6.53593,0,0,0,.28076,1.96338,4.776,4.776,0,0,0,.78516,1.542,3.546,3.546,0,0,0,1.19141.99561,3.19164,3.19164,0,0,0,1.47266.35059,3.43519,3.43519,0,0,0,1.584-.35059,3.29425,3.29425,0,0,0,1.16406-.99561,4.70492,4.70492,0,0,0,.729-1.542A7.22369,7.22369,0,0,0,18.85449,19.67627Z"/></g></g><g class="de6f13c2-d56d-4fe0-8d30-59c36ec89a7a"><g class="de6f13c2-d56d-4fe0-8d30-59c36ec89a7a"><path d="M81.28613,148.77441a6.59176,6.59176,0,0,0,.64551.14063,5.06308,5.06308,0,0,0,.8125.05566,4.10819,4.10819,0,0,0,1.96289-.46289,5.42184,5.42184,0,0,0,1.543-1.2334,7.79994,7.79994,0,0,0,1.14941-1.7666,13.29725,13.29725,0,0,0,.78516-2.06152,14.698,14.698,0,0,0,.44922-2.08887,13.97067,13.97067,0,0,0,.13965-1.89355h-.05566a7.39941,7.39941,0,0,1-.67285.9541,4.92774,4.92774,0,0,1-2.20215,1.51367,4.89635,4.89635,0,0,1-1.63965.25293,7.46811,7.46811,0,0,1-1.68262-.22461,5.3315,5.3315,0,0,1-1.80957-.81348,4.85622,4.85622,0,0,1-1.44336-1.6123,5.20849,5.20849,0,0,1-.58984-2.62207,7.27212,7.27212,0,0,1,.43555-2.56543,5.58184,5.58184,0,0,1,1.24707-1.99121,5.37527,5.37527,0,0,1,1.96387-1.26172,7.24181,7.24181,0,0,1,2.5791-.43457,6.79183,6.79183,0,0,1,2.32813.40625,4.84554,4.84554,0,0,1,1.97656,1.36035,6.90866,6.90866,0,0,1,1.36035,2.48145,12.03356,12.03356,0,0,1,.50488,3.74414,17.06708,17.06708,0,0,1-.54687,4.38867,11.44352,11.44352,0,0,1-1.59863,3.58887,7.69733,7.69733,0,0,1-2.60742,2.39844,7.01023,7.01023,0,0,1-3.57617.84082q-.47607,0-.71484-.01367a2.59572,2.59572,0,0,1-.46289-.07031l-.4209-.89746Zm-.14062-12.45117a6.23118,6.23118,0,0,0,.88379,3.47754,2.98432,2.98432,0,0,0,2.67773,1.3457,3.41416,3.41416,0,0,0,1.52832-.35059,3.60127,3.60127,0,0,0,1.23438-.99512,5.09163,5.09163,0,0,0,.82715-1.52832,5.86716,5.86716,0,0,0,.30859-1.94922,6.5709,6.5709,0,0,0-.28027-1.96289,4.79043,4.79043,0,0,0-.78516-1.542,3.55739,3.55739,0,0,0-1.19238-.99609,3.1952,3.1952,0,0,0-1.47168-.35059,3.44691,3.44691,0,0,0-1.585.35059,3.2941,3.2941,0,0,0-1.16309.99609,4.69108,4.69108,0,0,0-.72949,1.542A7.24646,7.24646,0,0,0,81.14551,136.32324Z"/></g></g><g class="6b493abe-d00d-4ce8-bf4c-caf48c3d36f9"><g class="2e8b0d3e-b74b-4908-8fad-ef2b76b9306c"><path d="M14.85632,39.17836a10.66025,10.66025,0,0,1-2.57369,5.64414.1012.1012,0,0,0,.0742.17025h5.19873a.10119.10119,0,0,0,.0742-.17025,10.66025,10.66025,0,0,1-2.57369-5.64414.101.101,0,0,0-.19975,0"/><path d="M18.227,34.09788c0,2.01109-3.27071,4.57946-3.27071,4.57946s-3.26862-2.56837-3.26862-4.57946a3.47058,3.47058,0,0,1,3.26963-3.64141,3.47059,3.47059,0,0,1,3.2697,3.64141"/><path d="M18.82942,42.07347c-1.89029,0-3.8732-1.39049-3.8732-3.10445s1.98291-3.10249,3.8732-3.10249a3.11835,3.11835,0,1,1,0,6.20693"/><path d="M11.083,35.86652c1.89029,0,3.8732,1.39043,3.8732,3.10445s-1.98291,3.10249-3.8732,3.10249a3.11835,3.11835,0,1,1,0-6.20693"/><path d="M16.36917,37.825a1.41189,1.41189,0,1,1-1.41189-1.41189A1.41193,1.41193,0,0,1,16.36917,37.825"/></g></g><g class="5db381f6-b01d-4590-baba-a4cdcc75c6c1"><g class="4ec8c37d-1059-468c-8136-e94df401fb85"><path d="M85.14368,116.82164a10.66025,10.66025,0,0,1,2.57369-5.64414.1012.1012,0,0,0-.0742-.17025H82.44444a.10119.10119,0,0,0-.0742.17025,10.66025,10.66025,0,0,1,2.57369,5.64414.101.101,0,0,0,.19975,0"/><path d="M81.773,121.90212c0-2.01109,3.27071-4.57946,3.27071-4.57946s3.26862,2.56837,3.26862,4.57946a3.28864,3.28864,0,1,1-6.53933,0"/><path d="M81.17058,113.92653c1.89029,0,3.8732,1.39049,3.8732,3.10445s-1.98291,3.10249-3.8732,3.10249a3.11835,3.11835,0,1,1,0-6.20693"/><path d="M88.917,120.13348c-1.89029,0-3.8732-1.39043-3.8732-3.10445s1.98291-3.10249,3.8732-3.10249a3.11835,3.11835,0,1,1,0,6.20693"/><path d="M83.63083,118.175a1.41189,1.41189,0,1,1,1.41189,1.41189,1.41193,1.41193,0,0,1-1.41189-1.41189"/></g></g><g class="25843385-6aca-4049-b991-fbb14a2e3172"><g class="d9400c05-92bb-49b9-bd00-2deda33cdb79"><path d="M34.52065,25.49855a12.12867,12.12867,0,0,1-2.92821,6.42161.11514.11514,0,0,0,.08442.1937h5.91484a.11512.11512,0,0,0,.08443-.1937,12.12867,12.12867,0,0,1-2.92821-6.42161.1149.1149,0,0,0-.22727,0"/><path d="M38.35559,19.71826c0,2.28811-3.72124,5.21027-3.72124,5.21027s-3.71886-2.92216-3.71886-5.21027a3.94865,3.94865,0,0,1,3.72-4.143,3.94866,3.94866,0,0,1,3.72009,4.143"/><path d="M39.041,28.79245c-2.15067,0-4.40672-1.582-4.40672-3.53208s2.25605-3.52984,4.40672-3.52984a3.72588,3.72588,0,0,1,3.89405,3.53093,3.72589,3.72589,0,0,1-3.89405,3.531"/><path d="M30.22755,21.73052c2.15067,0,4.40672,1.582,4.40672,3.53208s-2.25605,3.52984-4.40672,3.52984a3.726,3.726,0,0,1-3.89412-3.53093,3.726,3.726,0,0,1,3.89412-3.531"/><path d="M36.24189,23.95881a1.60637,1.60637,0,1,1-1.60637-1.60637,1.60642,1.60642,0,0,1,1.60637,1.60637"/></g></g><g class="b0138d80-4da8-4192-9e99-22cf37251802"><g class="ce24c693-8e72-45e7-b393-fa4dd0a2296f"><path d="M34.52065,77.34471a12.12867,12.12867,0,0,1-2.92821,6.42161.11514.11514,0,0,0,.08442.1937h5.91484a.11512.11512,0,0,0,.08443-.1937,12.12867,12.12867,0,0,1-2.92821-6.42161.1149.1149,0,0,0-.22727,0"/><path d="M38.35559,71.56442c0,2.28811-3.72124,5.21027-3.72124,5.21027s-3.71886-2.92216-3.71886-5.21027a3.94865,3.94865,0,0,1,3.72-4.143,3.94866,3.94866,0,0,1,3.72009,4.143"/><path d="M39.041,80.63861c-2.15067,0-4.40672-1.582-4.40672-3.53208s2.25605-3.52984,4.40672-3.52984a3.54789,3.54789,0,1,1,0,7.06192"/><path d="M30.22755,73.57668c2.15067,0,4.40672,1.582,4.40672,3.53208s-2.25605,3.52984-4.40672,3.52984a3.5479,3.5479,0,1,1,0-7.06192"/><path d="M36.24189,75.805a1.60637,1.60637,0,1,1-1.60637-1.60637A1.60642,1.60642,0,0,1,36.24189,75.805"/></g></g><g class="c8e48faa-6689-48a4-8a31-091047faf654"><g class="64e85718-3a71-42ec-a5b6-1853797d6070"><path d="M65.47935,125.88288a12.12867,12.12867,0,0,1,2.92821-6.42161.11514.11514,0,0,0-.08442-.1937H62.40829a.11512.11512,0,0,0-.08443.1937,12.12867,12.12867,0,0,1,2.92821,6.42161.1149.1149,0,0,0,.22727,0"/><path d="M61.64441,131.66317c0-2.28811,3.72124-5.21027,3.72124-5.21027s3.71886,2.92216,3.71886,5.21027a3.74164,3.74164,0,1,1-7.4401,0"/><path d="M60.959,122.589c2.15067,0,4.40672,1.582,4.40672,3.53208s-2.25605,3.52984-4.40672,3.52984a3.54789,3.54789,0,1,1,0-7.06192"/><path d="M69.77245,129.65091c-2.15067,0-4.40672-1.582-4.40672-3.53208s2.25605-3.52984,4.40672-3.52984a3.5479,3.5479,0,1,1,0,7.06192"/><path d="M63.75812,127.42262a1.60637,1.60637,0,1,1,1.60637,1.60637,1.60642,1.60642,0,0,1-1.60637-1.60637"/></g></g><g class="07f24db7-6f46-4c5d-9e0b-8bdeb0546b2e"><g class="61e2a31c-ac9d-40ae-a5f1-a97fc2182bbc"><path d="M65.25214,25.49855a12.12867,12.12867,0,0,1-2.92821,6.42161.11514.11514,0,0,0,.08442.1937h5.91484a.11512.11512,0,0,0,.08443-.1937,12.12867,12.12867,0,0,1-2.92821-6.42161.1149.1149,0,0,0-.22727,0"/><path d="M69.08707,19.71826c0,2.28811-3.72124,5.21027-3.72124,5.21027S61.647,22.00637,61.647,19.71826a3.74164,3.74164,0,1,1,7.4401,0"/><path d="M69.77252,28.79245c-2.15067,0-4.40672-1.582-4.40672-3.53208s2.25605-3.52984,4.40672-3.52984a3.72588,3.72588,0,0,1,3.89405,3.53093,3.72589,3.72589,0,0,1-3.89405,3.531"/><path d="M60.959,21.73052c2.15067,0,4.40672,1.582,4.40672,3.53208S63.1097,28.79244,60.959,28.79244a3.726,3.726,0,0,1-3.89412-3.53093,3.726,3.726,0,0,1,3.89412-3.531"/><path d="M66.97337,23.95881A1.60637,1.60637,0,1,1,65.367,22.35244a1.60642,1.60642,0,0,1,1.60637,1.60637"/></g></g><g class="3704e8c9-1155-4f49-b3aa-2a8a783c7898"><g class="7dbdf83c-ab96-49e7-aadb-ef0ddd6d4290"><path d="M65.25214,77.34471a12.12867,12.12867,0,0,1-2.92821,6.42161.11514.11514,0,0,0,.08442.1937h5.91484a.11512.11512,0,0,0,.08443-.1937,12.12867,12.12867,0,0,1-2.92821-6.42161.1149.1149,0,0,0-.22727,0"/><path d="M69.08707,71.56442c0,2.28811-3.72124,5.21027-3.72124,5.21027S61.647,73.85253,61.647,71.56442a3.74164,3.74164,0,1,1,7.4401,0"/><path d="M69.77252,80.63861c-2.15067,0-4.40672-1.582-4.40672-3.53208s2.25605-3.52984,4.40672-3.52984a3.54789,3.54789,0,1,1,0,7.06192"/><path d="M60.959,73.57668c2.15067,0,4.40672,1.582,4.40672,3.53208S63.1097,80.6386,60.959,80.6386a3.5479,3.5479,0,1,1,0-7.06192"/><path d="M66.97337,75.805A1.60637,1.60637,0,1,1,65.367,74.1986,1.60642,1.60642,0,0,1,66.97337,75.805"/></g></g><g class="9d446d42-834c-45d0-a97b-269d94850534"><g class="3d1add2a-e82a-47e9-9b24-8754691b7da5"><path d="M34.74786,125.88288a12.12867,12.12867,0,0,1,2.92821-6.42161.11514.11514,0,0,0-.08442-.1937H31.67681a.11512.11512,0,0,0-.08443.1937,12.12867,12.12867,0,0,1,2.92821,6.42161.1149.1149,0,0,0,.22727,0"/><path d="M30.91293,131.66317c0-2.28811,3.72124-5.21027,3.72124-5.21027s3.71886,2.92216,3.71886,5.21027a3.94865,3.94865,0,0,1-3.72,4.143,3.94866,3.94866,0,0,1-3.72009-4.143"/><path d="M30.22748,122.589c2.15067,0,4.40672,1.582,4.40672,3.53208s-2.25605,3.52984-4.40672,3.52984a3.54789,3.54789,0,1,1,0-7.06192"/><path d="M39.041,129.65091c-2.15067,0-4.40672-1.582-4.40672-3.53208S36.8903,122.589,39.041,122.589a3.5479,3.5479,0,1,1,0,7.06192"/><path d="M33.02663,127.42262A1.60637,1.60637,0,1,1,34.633,129.029a1.60642,1.60642,0,0,1-1.60637-1.60637"/></g></g></svg>