<svg id="7c006bdd-9b2e-4e82-a89b-62388233a59e" data-name="レイヤー 1" xmlns="http://www.w3.org/2000/svg" xmlns:xlink="http://www.w3.org/1999/xlink" viewBox="0 0 100 156"><defs><style>.\34 6de26e3-d786-41d9-9e98-a5b97390cef6{fill:none;}.ac58f3b1-44ca-45ba-ae1a-a183be132840{fill:#fff;}.\38 b054dbd-6f79-4201-b624-38321d8cb9b8{fill:#7f7f7f;}.dc210b50-ad94-4adc-95d9-d9f53d8d8793{clip-path:url(#215cd5db-9e45-4695-9f12-f97940132327);}.a676d490-2ea4-4cb9-b9e8-a1c80ec6da96{clip-path:url(#93fc07a4-1f5e-447f-a23b-6a281abcad0d);}.\39 b41fd3d-313c-4002-99aa-d573049b41f6{clip-path:url(#1c9837a4-79f3-40c1-bb8b-70402980cf55);}.\35 76ec8b4-4dab-429f-ae40-1249cde117dc{clip-path:url(#3b231337-e9b7-43ca-b73b-7ac919e7bb9d);}.\31 8852dab-a231-4557-9a63-5121230f7f7f{clip-path:url(#6e49cf9f-90d3-48d6-b908-b2b4286e4501);}.e990c373-d9eb-4b64-9313-7e8a95de0753{clip-path:url(#f5b2fceb-4aa5-4bdd-aeac-4556d38f68d1);}.\35 9fed3a9-c8ae-45b7-b7a7-57b92b54090b{clip-path:url(#111f9caa-be3b-4b75-aa38-f1b90c656b4d);}.\32 9b172db-d1dc-4a74-97e3-43fa2d0b42c1{clip-path:url(#59d13771-37ce-4333-91ea-9f87f31a48ed);}.\30 c20e0ee-202e-4b70-adc7-615cd0f1993a{clip-path:url(#d181e658-35a7-4137-adda-437158899f54);}.\37 8a176cf-8655-40a0-9846-603db35533a6{clip-path:url(#75ecfc6f-121c-4e49-8c1a-e72c634d0399);}.\32 c6b414e-fa9d-4a27-b43c-493ad66a00ba{clip-path:url(#5fae03cf-a4de-4991-9426-39b8b36d6151);}.\38 33539f6-73ed-4efc-97f7-d77b7b2bc0ee{clip-path:url(#ac720f68-a033-4c10-9b89-d75a838871a5);}.f257e293-3af7-433f-bcb9-3b11ae5e24ab{clip-path:url(#b94a5bd5-9178-4dbe-8163-ac22932f5d60);}.db2116c2-45e0-4f01-9f84-e7a209e65ced{clip-path:url(#ded235e4-2065-45ae-8595-d41794b71be3);}.cb891adf-3257-4fc1-8473-1170deae9504{clip-path:url(#3fdf5f1f-31b4-4589-ac6a-d34fb1ddfe3b);}.e315e181-bd69-44ef-96dc-7c1bbdc2edc1{clip-path:url(#600f5208-db73-43b4-89fc-6cb774c8c8b3);}.\31 40b7148-8788-4b61-b8d1-9f2d0c7db0a2{clip-path:url(#4e281946-a7ef-4fde-a8a9-fd7d340fce5d);}.\35 d386290-4780-4df2-918b-38611b198a5a{clip-path:url(#86576e03-4fde-401a-b918-58dbbe5fc4fd);}.\31 0738448-6d7f-41dd-b903-f68b3521d63d{clip-path:url(#2534a59d-c24e-43ff-aef3-24fcebcbbce6);}.e158cdbf-60b7-4524-b5e0-d5d5d3d96d16{clip-path:url(#a7ab02bf-4dcc-4307-863d-a7cc64da8af1);}.\32 5b63f21-fd7e-4928-b830-db3e1dc87d76{clip-path:url(#7f8cf9e8-051f-449f-af0a-0436038b39eb);}.\38 f97ceac-a618-4416-86e1-6cdec0cc9fb7{clip-path:url(#0f702fa3-89e5-4053-9aba-5ca21839e6e3);}</style><clipPath id="215cd5db-9e45-4695-9f12-f97940132327" transform="translate(0 0)"><rect class="46de26e3-d786-41d9-9e98-a5b97390cef6" width="29.91235" height="29.91235"/></clipPath><clipPath id="93fc07a4-1f5e-447f-a23b-6a281abcad0d" transform="translate(0 0)"><rect class="46de26e3-d786-41d9-9e98-a5b97390cef6" x="70.08765" y="126.08765" width="29.91235" height="29.91235"/></clipPath><clipPath id="1c9837a4-79f3-40c1-bb8b-70402980cf55" transform="translate(0 0)"><rect class="46de26e3-d786-41d9-9e98-a5b97390cef6" x="7.66032" y="30.45647" width="14.5917" height="14.53628"/></clipPath><clipPath id="3b231337-e9b7-43ca-b73b-7ac919e7bb9d" transform="translate(0 0)"><rect class="46de26e3-d786-41d9-9e98-a5b97390cef6" x="6.8531" y="29.72091" width="16.20824" height="16.20824"/></clipPath><clipPath id="6e49cf9f-90d3-48d6-b908-b2b4286e4501" transform="translate(0 0)"><rect class="46de26e3-d786-41d9-9e98-a5b97390cef6" x="77.74798" y="111.00725" width="14.5917" height="14.53628"/></clipPath><clipPath id="f5b2fceb-4aa5-4bdd-aeac-4556d38f68d1" transform="translate(0 0)"><rect class="46de26e3-d786-41d9-9e98-a5b97390cef6" x="76.93865" y="110.07085" width="16.20824" height="16.20824"/></clipPath><clipPath id="111f9caa-be3b-4b75-aa38-f1b90c656b4d" transform="translate(0 0)"><rect class="46de26e3-d786-41d9-9e98-a5b97390cef6" x="26.33343" y="15.57525" width="16.60167" height="16.53861"/></clipPath><clipPath id="59d13771-37ce-4333-91ea-9f87f31a48ed" transform="translate(0 0)"><rect class="46de26e3-d786-41d9-9e98-a5b97390cef6" x="25.41501" y="14.73837" width="18.44088" height="18.44088"/></clipPath><clipPath id="d181e658-35a7-4137-adda-437158899f54" transform="translate(0 0)"><rect class="46de26e3-d786-41d9-9e98-a5b97390cef6" x="26.33343" y="67.42141" width="16.60167" height="16.53861"/></clipPath><clipPath id="75ecfc6f-121c-4e49-8c1a-e72c634d0399" transform="translate(0 0)"><rect class="46de26e3-d786-41d9-9e98-a5b97390cef6" x="25.41501" y="66.58453" width="18.44088" height="18.44088"/></clipPath><clipPath id="5fae03cf-a4de-4991-9426-39b8b36d6151" transform="translate(0 0)"><rect class="46de26e3-d786-41d9-9e98-a5b97390cef6" x="57.06491" y="119.26757" width="16.60167" height="16.53861"/></clipPath><clipPath id="ac720f68-a033-4c10-9b89-d75a838871a5" transform="translate(0 0)"><rect class="46de26e3-d786-41d9-9e98-a5b97390cef6" x="56.1441" y="118.20218" width="18.44088" height="18.44088"/></clipPath><clipPath id="b94a5bd5-9178-4dbe-8163-ac22932f5d60" transform="translate(0 0)"><rect class="46de26e3-d786-41d9-9e98-a5b97390cef6" x="41.69959" y="41.49789" width="16.60167" height="16.53861"/></clipPath><clipPath id="ded235e4-2065-45ae-8595-d41794b71be3" transform="translate(0 0)"><rect class="46de26e3-d786-41d9-9e98-a5b97390cef6" x="40.78118" y="40.66101" width="18.44088" height="18.44088"/></clipPath><clipPath id="3fdf5f1f-31b4-4589-ac6a-d34fb1ddfe3b" transform="translate(0 0)"><rect class="46de26e3-d786-41d9-9e98-a5b97390cef6" x="57.06491" y="15.57525" width="16.60167" height="16.53861"/></clipPath><clipPath id="600f5208-db73-43b4-89fc-6cb774c8c8b3" transform="translate(0 0)"><rect class="46de26e3-d786-41d9-9e98-a5b97390cef6" x="56.1465" y="14.73837" width="18.44088" height="18.44088"/></clipPath><clipPath id="4e281946-a7ef-4fde-a8a9-fd7d340fce5d" transform="translate(0 0)"><rect class="46de26e3-d786-41d9-9e98-a5b97390cef6" x="57.06491" y="67.42141" width="16.60167" height="16.53861"/></clipPath><clipPath id="86576e03-4fde-401a-b918-58dbbe5fc4fd" transform="translate(0 0)"><rect class="46de26e3-d786-41d9-9e98-a5b97390cef6" x="56.1465" y="66.58453" width="18.44088" height="18.44088"/></clipPath><clipPath id="2534a59d-c24e-43ff-aef3-24fcebcbbce6" transform="translate(0 0)"><rect class="46de26e3-d786-41d9-9e98-a5b97390cef6" x="26.33343" y="119.26757" width="16.60167" height="16.53861"/></clipPath><clipPath id="a7ab02bf-4dcc-4307-863d-a7cc64da8af1" transform="translate(0 0)"><rect class="46de26e3-d786-41d9-9e98-a5b97390cef6" x="25.41262" y="118.20218" width="18.44088" height="18.44088"/></clipPath><clipPath id="7f8cf9e8-051f-449f-af0a-0436038b39eb" transform="translate(0 0)"><rect class="46de26e3-d786-41d9-9e98-a5b97390cef6" x="41.69917" y="93.34449" width="16.60167" height="16.53861"/></clipPath><clipPath id="0f702fa3-89e5-4053-9aba-5ca21839e6e3" transform="translate(0 0)"><rect class="46de26e3-d786-41d9-9e98-a5b97390cef6" x="40.77836" y="92.2791" width="18.44088" height="18.44088"/></clipPath></defs><title>8</title><rect class="ac58f3b1-44ca-45ba-ae1a-a183be132840" x="0.5" y="0.5" width="99" height="155" rx="5.5" ry="5.5"/><path class="8b054dbd-6f79-4201-b624-38321d8cb9b8" d="M94,1a5.00567,5.00567,0,0,1,5,5V150a5.00567,5.00567,0,0,1-5,5H6a5.00567,5.00567,0,0,1-5-5V6A5.00567,5.00567,0,0,1,6,1H94m0-1H6A6,6,0,0,0,0,6V150a6,6,0,0,0,6,6H94a6,6,0,0,0,6-6V6a6,6,0,0,0-6-6Z" transform="translate(0 0)"/><g class="dc210b50-ad94-4adc-95d9-d9f53d8d8793"><g class="dc210b50-ad94-4adc-95d9-d9f53d8d8793"><path d="M8.70313,19.957a5.6004,5.6004,0,0,1,.93945-3.14111A5.74015,5.74015,0,0,1,12.769,14.65674v-.19629a3.56585,3.56585,0,0,1-1.07959-.43457,4.30329,4.30329,0,0,1-.99561-.81348,3.94608,3.94608,0,0,1-.729-1.16357,3.75139,3.75139,0,0,1-.28027-1.458A3.91412,3.91412,0,0,1,10.063,8.894a4.44828,4.44828,0,0,1,1.06592-1.416,5.1767,5.1767,0,0,1,1.6543-.98145,6.12265,6.12265,0,0,1,2.17334-.36475,7.37183,7.37183,0,0,1,2.41162.35059,4.99772,4.99772,0,0,1,1.65479.91113,3.64668,3.64668,0,0,1,.96729,1.3042,3.87139,3.87139,0,0,1,.32227,1.55615,4.22268,4.22268,0,0,1-.79883,2.48193,4.44616,4.44616,0,0,1-2.3418,1.64063v.19629a6.74476,6.74476,0,0,1,1.17773.35059,4.45168,4.45168,0,0,1,1.332.813A4.50432,4.50432,0,0,1,21.21,19.312a6.23345,6.23345,0,0,1-.49072,2.52393,5.75352,5.75352,0,0,1-1.3457,1.9209,5.52907,5.52907,0,0,1-1.99121,1.19189,7.38831,7.38831,0,0,1-2.42578.39258,9.10882,9.10882,0,0,1-2.46777-.32275,5.303,5.303,0,0,1-1.99121-1.02344,4.95132,4.95132,0,0,1-1.31787-1.71045A5.39219,5.39219,0,0,1,8.70313,19.957Zm10.03906-.14014a6.35954,6.35954,0,0,0-.26611-1.89307,4.66927,4.66927,0,0,0-.75732-1.48633,3.49422,3.49422,0,0,0-5.52441,0,4.64943,4.64943,0,0,0-.75732,1.48633,6.86473,6.86473,0,0,0,0,3.78564,4.63925,4.63925,0,0,0,.75732,1.48633,3.49422,3.49422,0,0,0,5.52441,0,4.659,4.659,0,0,0,.75732-1.48633A6.35161,6.35161,0,0,0,18.74219,19.81689Zm-.729-9.19824a5.42162,5.42162,0,0,0-.16846-1.374,3.12828,3.12828,0,0,0-.54639-1.13574,2.83949,2.83949,0,0,0-.93945-.78516,2.93189,2.93189,0,0,0-1.37451-.29443,2.946,2.946,0,0,0-1.35986.29443,2.657,2.657,0,0,0-.93945.78516,3.26237,3.26237,0,0,0-.53271,1.13574,5.63011,5.63011,0,0,0,0,2.73389,3.25079,3.25079,0,0,0,.53271,1.1499,2.657,2.657,0,0,0,.93945.78516,2.946,2.946,0,0,0,1.35986.29443,2.93189,2.93189,0,0,0,1.37451-.29443,2.83949,2.83949,0,0,0,.93945-.78516,3.11856,3.11856,0,0,0,.54639-1.1499A5.46666,5.46666,0,0,0,18.01318,10.61865Z" transform="translate(0 0)"/></g></g><g class="a676d490-2ea4-4cb9-b9e8-a1c80ec6da96"><g class="a676d490-2ea4-4cb9-b9e8-a1c80ec6da96"><path d="M91.29785,136.043a5.60421,5.60421,0,0,1-.93945,3.14063,5.74018,5.74018,0,0,1-3.127,2.15918v.19629a3.5695,3.5695,0,0,1,1.0791.43555,4.26853,4.26853,0,0,1,.99609.8125,3.97025,3.97025,0,0,1,.72852,1.16406,3.74124,3.74124,0,0,1,.28125,1.458,3.92368,3.92368,0,0,1-.37891,1.69727,4.47734,4.47734,0,0,1-1.06543,1.416,5.18159,5.18159,0,0,1-1.65527.98145,6.14186,6.14186,0,0,1-2.17285.36426,7.39209,7.39209,0,0,1-2.41211-.35059,4.98264,4.98264,0,0,1-1.6543-.91113,3.64792,3.64792,0,0,1-.96777-1.30371,3.892,3.892,0,0,1-.32227-1.55664,4.22285,4.22285,0,0,1,.7998-2.48242,4.44021,4.44021,0,0,1,2.34082-1.63965v-.19629a6.90078,6.90078,0,0,1-1.17773-.35059,4.48573,4.48573,0,0,1-1.332-.81348,4.50633,4.50633,0,0,1-1.52832-3.5752,6.23589,6.23589,0,0,1,.49121-2.52441,5.76051,5.76051,0,0,1,1.3457-1.9209,5.53485,5.53485,0,0,1,1.99121-1.19141,7.37553,7.37553,0,0,1,2.42578-.39258,9.109,9.109,0,0,1,2.46777.32227,5.29963,5.29963,0,0,1,1.99121,1.02344,4.94139,4.94139,0,0,1,1.31738,1.71094A5.3814,5.3814,0,0,1,91.29785,136.043Zm-10.04.14063a6.34016,6.34016,0,0,0,.2666,1.89258,4.66842,4.66842,0,0,0,.75684,1.48633,3.49545,3.49545,0,0,0,5.52539,0,4.64858,4.64858,0,0,0,.75684-1.48633,6.85438,6.85438,0,0,0,0-3.78613,4.64858,4.64858,0,0,0-.75684-1.48633,3.49545,3.49545,0,0,0-5.52539,0,4.66842,4.66842,0,0,0-.75684,1.48633A6.34217,6.34217,0,0,0,81.25781,136.18359Zm.72949,9.19824a5.42733,5.42733,0,0,0,.168,1.374,3.1486,3.1486,0,0,0,.54688,1.13574,2.85119,2.85119,0,0,0,.93945.78516,3.32641,3.32641,0,0,0,2.73438,0,2.66713,2.66713,0,0,0,.93945-.78516,3.27562,3.27562,0,0,0,.5332-1.13574,5.648,5.648,0,0,0,0-2.73437,3.25792,3.25792,0,0,0-.5332-1.15039,2.657,2.657,0,0,0-.93945-.78516,3.32641,3.32641,0,0,0-2.73437,0,2.83949,2.83949,0,0,0-.93945.78516,3.133,3.133,0,0,0-.54687,1.15039A5.46461,5.46461,0,0,0,81.9873,145.38184Z" transform="translate(0 0)"/></g></g><g class="9b41fd3d-313c-4002-99aa-d573049b41f6"><g class="576ec8b4-4dab-429f-ae40-1249cde117dc"><path d="M14.85632,39.17836a10.66025,10.66025,0,0,1-2.57369,5.64414.1012.1012,0,0,0,.0742.17025h5.19873a.10119.10119,0,0,0,.0742-.17025,10.66025,10.66025,0,0,1-2.57369-5.64414.101.101,0,0,0-.19975,0" transform="translate(0 0)"/><path d="M18.227,34.09788c0,2.01109-3.27071,4.57946-3.27071,4.57946s-3.26862-2.56837-3.26862-4.57946a3.47058,3.47058,0,0,1,3.26963-3.64141,3.47059,3.47059,0,0,1,3.2697,3.64141" transform="translate(0 0)"/><path d="M18.82942,42.07347c-1.89029,0-3.8732-1.39049-3.8732-3.10445s1.98291-3.10249,3.8732-3.10249a3.11835,3.11835,0,1,1,0,6.20693" transform="translate(0 0)"/><path d="M11.083,35.86652c1.89029,0,3.8732,1.39043,3.8732,3.10445s-1.98291,3.10249-3.8732,3.10249a3.11835,3.11835,0,1,1,0-6.20693" transform="translate(0 0)"/><path d="M16.36917,37.825a1.41189,1.41189,0,1,1-1.41189-1.41189A1.41193,1.41193,0,0,1,16.36917,37.825" transform="translate(0 0)"/></g></g><g class="18852dab-a231-4557-9a63-5121230f7f7f"><g class="e990c373-d9eb-4b64-9313-7e8a95de0753"><path d="M85.14368,116.82164a10.66025,10.66025,0,0,1,2.57369-5.64414.1012.1012,0,0,0-.0742-.17025H82.44444a.10119.10119,0,0,0-.0742.17025,10.66025,10.66025,0,0,1,2.57369,5.64414.101.101,0,0,0,.19975,0" transform="translate(0 0)"/><path d="M81.773,121.90212c0-2.01109,3.27071-4.57946,3.27071-4.57946s3.26862,2.56837,3.26862,4.57946a3.28864,3.28864,0,1,1-6.53933,0" transform="translate(0 0)"/><path d="M81.17058,113.92653c1.89029,0,3.8732,1.39049,3.8732,3.10445s-1.98291,3.10249-3.8732,3.10249a3.11835,3.11835,0,1,1,0-6.20693" transform="translate(0 0)"/><path d="M88.917,120.13348c-1.89029,0-3.8732-1.39043-3.8732-3.10445s1.98291-3.10249,3.8732-3.10249a3.11835,3.11835,0,1,1,0,6.20693" transform="translate(0 0)"/><path d="M83.63083,118.175a1.41189,1.41189,0,1,1,1.41189,1.41189,1.41193,1.41193,0,0,1-1.41189-1.41189" transform="translate(0 0)"/></g></g><g class="59fed3a9-c8ae-45b7-b7a7-57b92b54090b"><g class="29b172db-d1dc-4a74-97e3-43fa2d0b42c1"><path d="M34.52065,25.49855a12.12867,12.12867,0,0,1-2.92821,6.42161.11514.11514,0,0,0,.08442.1937h5.91484a.11512.11512,0,0,0,.08443-.1937,12.12867,12.12867,0,0,1-2.92821-6.42161.1149.1149,0,0,0-.22727,0" transform="translate(0 0)"/><path d="M38.35559,19.71826c0,2.28811-3.72124,5.21027-3.72124,5.21027s-3.71886-2.92216-3.71886-5.21027a3.94865,3.94865,0,0,1,3.72-4.143,3.94866,3.94866,0,0,1,3.72009,4.143" transform="translate(0 0)"/><path d="M39.041,28.79245c-2.15067,0-4.40672-1.582-4.40672-3.53208s2.25605-3.52984,4.40672-3.52984a3.72588,3.72588,0,0,1,3.89405,3.53093,3.72589,3.72589,0,0,1-3.89405,3.531" transform="translate(0 0)"/><path d="M30.22755,21.73052c2.15067,0,4.40672,1.582,4.40672,3.53208s-2.25605,3.52984-4.40672,3.52984a3.726,3.726,0,0,1-3.89412-3.53093,3.726,3.726,0,0,1,3.89412-3.531" transform="translate(0 0)"/><path d="M36.24189,23.95881a1.60637,1.60637,0,1,1-1.60637-1.60637,1.60642,1.60642,0,0,1,1.60637,1.60637" transform="translate(0 0)"/></g></g><g class="0c20e0ee-202e-4b70-adc7-615cd0f1993a"><g class="78a176cf-8655-40a0-9846-603db35533a6"><path d="M34.52065,77.34471a12.12867,12.12867,0,0,1-2.92821,6.42161.11514.11514,0,0,0,.08442.1937h5.91484a.11512.11512,0,0,0,.08443-.1937,12.12867,12.12867,0,0,1-2.92821-6.42161.1149.1149,0,0,0-.22727,0" transform="translate(0 0)"/><path d="M38.35559,71.56442c0,2.28811-3.72124,5.21027-3.72124,5.21027s-3.71886-2.92216-3.71886-5.21027a3.94865,3.94865,0,0,1,3.72-4.143,3.94866,3.94866,0,0,1,3.72009,4.143" transform="translate(0 0)"/><path d="M39.041,80.63861c-2.15067,0-4.40672-1.582-4.40672-3.53208s2.25605-3.52984,4.40672-3.52984a3.54789,3.54789,0,1,1,0,7.06192" transform="translate(0 0)"/><path d="M30.22755,73.57668c2.15067,0,4.40672,1.582,4.40672,3.53208s-2.25605,3.52984-4.40672,3.52984a3.5479,3.5479,0,1,1,0-7.06192" transform="translate(0 0)"/><path d="M36.24189,75.805a1.60637,1.60637,0,1,1-1.60637-1.60637A1.60642,1.60642,0,0,1,36.24189,75.805" transform="translate(0 0)"/></g></g><g class="2c6b414e-fa9d-4a27-b43c-493ad66a00ba"><g class="833539f6-73ed-4efc-97f7-d77b7b2bc0ee"><path d="M65.47935,125.88288a12.12867,12.12867,0,0,1,2.92821-6.42161.11514.11514,0,0,0-.08442-.1937H62.40829a.11512.11512,0,0,0-.08443.1937,12.12867,12.12867,0,0,1,2.92821,6.42161.1149.1149,0,0,0,.22727,0" transform="translate(0 0)"/><path d="M61.64441,131.66317c0-2.28811,3.72124-5.21027,3.72124-5.21027s3.71886,2.92216,3.71886,5.21027a3.74164,3.74164,0,1,1-7.4401,0" transform="translate(0 0)"/><path d="M60.959,122.589c2.15067,0,4.40672,1.582,4.40672,3.53208s-2.25605,3.52984-4.40672,3.52984a3.54789,3.54789,0,1,1,0-7.06192" transform="translate(0 0)"/><path d="M69.77245,129.65091c-2.15067,0-4.40672-1.582-4.40672-3.53208s2.25605-3.52984,4.40672-3.52984a3.5479,3.5479,0,1,1,0,7.06192" transform="translate(0 0)"/><path d="M63.75812,127.42262a1.60637,1.60637,0,1,1,1.60637,1.60637,1.60642,1.60642,0,0,1-1.60637-1.60637" transform="translate(0 0)"/></g></g><g class="f257e293-3af7-433f-bcb9-3b11ae5e24ab"><g class="db2116c2-45e0-4f01-9f84-e7a209e65ced"><path d="M49.88682,51.42119a12.12867,12.12867,0,0,1-2.92821,6.42161.11514.11514,0,0,0,.08442.1937h5.91484a.11512.11512,0,0,0,.08443-.1937,12.12867,12.12867,0,0,1-2.92821-6.42161.1149.1149,0,0,0-.22727,0" transform="translate(0 0)"/><path d="M53.72175,45.6409c0,2.28811-3.72124,5.21027-3.72124,5.21027S46.28165,47.929,46.28165,45.6409a3.74164,3.74164,0,1,1,7.4401,0" transform="translate(0 0)"/><path d="M54.40721,54.71509c-2.15067,0-4.40672-1.582-4.40672-3.53208s2.25605-3.52984,4.40672-3.52984a3.54789,3.54789,0,1,1,0,7.06192" transform="translate(0 0)"/><path d="M45.59372,47.65316c2.15067,0,4.40672,1.582,4.40672,3.53208s-2.25605,3.52984-4.40672,3.52984a3.5479,3.5479,0,1,1,0-7.06192" transform="translate(0 0)"/><path d="M51.60805,49.88145a1.60637,1.60637,0,1,1-1.60637-1.60637,1.60642,1.60642,0,0,1,1.60637,1.60637" transform="translate(0 0)"/></g></g><g class="cb891adf-3257-4fc1-8473-1170deae9504"><g class="e315e181-bd69-44ef-96dc-7c1bbdc2edc1"><path d="M65.25214,25.49855a12.12867,12.12867,0,0,1-2.92821,6.42161.11514.11514,0,0,0,.08442.1937h5.91484a.11512.11512,0,0,0,.08443-.1937,12.12867,12.12867,0,0,1-2.92821-6.42161.1149.1149,0,0,0-.22727,0" transform="translate(0 0)"/><path d="M69.08707,19.71826c0,2.28811-3.72124,5.21027-3.72124,5.21027S61.647,22.00637,61.647,19.71826a3.74164,3.74164,0,1,1,7.4401,0" transform="translate(0 0)"/><path d="M69.77252,28.79245c-2.15067,0-4.40672-1.582-4.40672-3.53208s2.25605-3.52984,4.40672-3.52984a3.72588,3.72588,0,0,1,3.89405,3.53093,3.72589,3.72589,0,0,1-3.89405,3.531" transform="translate(0 0)"/><path d="M60.959,21.73052c2.15067,0,4.40672,1.582,4.40672,3.53208S63.1097,28.79244,60.959,28.79244a3.726,3.726,0,0,1-3.89412-3.53093,3.726,3.726,0,0,1,3.89412-3.531" transform="translate(0 0)"/><path d="M66.97337,23.95881A1.60637,1.60637,0,1,1,65.367,22.35244a1.60642,1.60642,0,0,1,1.60637,1.60637" transform="translate(0 0)"/></g></g><g class="140b7148-8788-4b61-b8d1-9f2d0c7db0a2"><g class="5d386290-4780-4df2-918b-38611b198a5a"><path d="M65.25214,77.34471a12.12867,12.12867,0,0,1-2.92821,6.42161.11514.11514,0,0,0,.08442.1937h5.91484a.11512.11512,0,0,0,.08443-.1937,12.12867,12.12867,0,0,1-2.92821-6.42161.1149.1149,0,0,0-.22727,0" transform="translate(0 0)"/><path d="M69.08707,71.56442c0,2.28811-3.72124,5.21027-3.72124,5.21027S61.647,73.85253,61.647,71.56442a3.74164,3.74164,0,1,1,7.4401,0" transform="translate(0 0)"/><path d="M69.77252,80.63861c-2.15067,0-4.40672-1.582-4.40672-3.53208s2.25605-3.52984,4.40672-3.52984a3.54789,3.54789,0,1,1,0,7.06192" transform="translate(0 0)"/><path d="M60.959,73.57668c2.15067,0,4.40672,1.582,4.40672,3.53208S63.1097,80.6386,60.959,80.6386a3.5479,3.5479,0,1,1,0-7.06192" transform="translate(0 0)"/><path d="M66.97337,75.805A1.60637,1.60637,0,1,1,65.367,74.1986,1.60642,1.60642,0,0,1,66.97337,75.805" transform="translate(0 0)"/></g></g><g class="10738448-6d7f-41dd-b903-f68b3521d63d"><g class="e158cdbf-60b7-4524-b5e0-d5d5d3d96d16"><path d="M34.74786,125.88288a12.12867,12.12867,0,0,1,2.92821-6.42161.11514.11514,0,0,0-.08442-.1937H31.67681a.11512.11512,0,0,0-.08443.1937,12.12867,12.12867,0,0,1,2.92821,6.42161.1149.1149,0,0,0,.22727,0" transform="translate(0 0)"/><path d="M30.91293,131.66317c0-2.28811,3.72124-5.21027,3.72124-5.21027s3.71886,2.92216,3.71886,5.21027a3.94865,3.94865,0,0,1-3.72,4.143,3.94866,3.94866,0,0,1-3.72009-4.143" transform="translate(0 0)"/><path d="M30.22748,122.589c2.15067,0,4.40672,1.582,4.40672,3.53208s-2.25605,3.52984-4.40672,3.52984a3.54789,3.54789,0,1,1,0-7.06192" transform="translate(0 0)"/><path d="M39.041,129.65091c-2.15067,0-4.40672-1.582-4.40672-3.53208S36.8903,122.589,39.041,122.589a3.5479,3.5479,0,1,1,0,7.06192" transform="translate(0 0)"/><path d="M33.02663,127.42262A1.60637,1.60637,0,1,1,34.633,129.029a1.60642,1.60642,0,0,1-1.60637-1.60637" transform="translate(0 0)"/></g></g><g class="25b63f21-fd7e-4928-b830-db3e1dc87d76"><g class="8f97ceac-a618-4416-86e1-6cdec0cc9fb7"><path d="M50.11361,99.9598a12.12867,12.12867,0,0,1,2.92821-6.42161.11514.11514,0,0,0-.08442-.1937H47.04255a.11512.11512,0,0,0-.08443.1937,12.12867,12.12867,0,0,1,2.92821,6.42161.1149.1149,0,0,0,.22727,0" transform="translate(0 0)"/><path d="M46.27867,105.74009c0-2.28811,3.72124-5.21027,3.72124-5.21027s3.71886,2.92216,3.71886,5.21027a3.74164,3.74164,0,1,1-7.4401,0" transform="translate(0 0)"/><path d="M45.59322,96.66589c2.15067,0,4.40672,1.582,4.40672,3.53208s-2.25605,3.52984-4.40672,3.52984a3.54789,3.54789,0,1,1,0-7.06192" transform="translate(0 0)"/><path d="M54.40671,103.72783c-2.15067,0-4.40672-1.582-4.40672-3.53208s2.25605-3.52984,4.40672-3.52984a3.5479,3.5479,0,1,1,0,7.06192" transform="translate(0 0)"/><path d="M48.39237,101.49954a1.60637,1.60637,0,1,1,1.60637,1.60637,1.60642,1.60642,0,0,1-1.60637-1.60637" transform="translate(0 0)"/></g></g></svg>