<svg id="bd69fac2-42a6-4037-9cce-dfb5dbaf0e87" data-name="レイヤー 1" xmlns="http://www.w3.org/2000/svg" xmlns:xlink="http://www.w3.org/1999/xlink" viewBox="0 0 100 156"><defs><style>.bbf81340-8f6d-4d14-9c5a-234896e491be{fill:none;}.\33 58e0915-dd10-4cb2-93b7-bf2461415d88{fill:#fff;}.\38 737d84a-4c23-4018-9d4a-0feb1a270c19{fill:#7f7f7f;}.\35 32e724e-01f3-4d39-b848-18f109a138fd{clip-path:url(#6531d377-1646-466d-b42f-1d2ede85ea4d);}.\39 fdd42d7-38d8-420c-b196-90665815aa1d{fill:#a00;}.\31 1b8da9f-17ef-4ba6-94a6-0773f5927b6a{clip-path:url(#a81cdfc0-c0dd-4b11-9baa-6d28414412e9);}.\33 2607d31-132e-4238-aac9-28f826826e5e{clip-path:url(#84cc5adb-d2d7-4881-8f53-4b61e416a97b);}.\37 09d2503-22ee-406c-a625-26159864617f{clip-path:url(#10f958a4-9931-40f3-a5fc-b7d03441fc55);}.\33 e19a6bd-d49c-4480-921b-414c8a984e23{clip-path:url(#10be2beb-f91f-4d59-86bf-5061651b9534);}.eee3dd3d-41af-4bc7-a7bf-b64bfb1809e1{clip-path:url(#bdab507c-a8da-4e96-85bf-ad9ea0c8b38a);}.\32 d20c4bd-4a6c-4236-b5f8-5f7946ae6ca4{clip-path:url(#b1dd3a7f-e0d6-4f4e-82b8-2ea1217dfd59);}.beefede7-35c2-4563-ae77-24525a5b9122{clip-path:url(#87e01446-e447-4977-a351-5989478a907c);}.\32 e3c1640-9c57-44ba-9d77-eee4a5624395{clip-path:url(#bc5e704b-be25-446a-91bb-d4de128863c9);}.adce7023-3678-47be-b27a-6b7a7b725715{clip-path:url(#a52e70f5-e169-4663-a17b-00870dd29063);}</style><clipPath id="6531d377-1646-466d-b42f-1d2ede85ea4d"><rect class="bbf81340-8f6d-4d14-9c5a-234896e491be" width="29.91235" height="29.91235"/></clipPath><clipPath id="a81cdfc0-c0dd-4b11-9baa-6d28414412e9"><rect class="bbf81340-8f6d-4d14-9c5a-234896e491be" x="70.08765" y="126.08765" width="29.91235" height="29.91235"/></clipPath><clipPath id="84cc5adb-d2d7-4881-8f53-4b61e416a97b"><rect class="bbf81340-8f6d-4d14-9c5a-234896e491be" x="8.12987" y="30.01379" width="13.65262" height="15.42164"/></clipPath><clipPath id="10f958a4-9931-40f3-a5fc-b7d03441fc55"><rect class="bbf81340-8f6d-4d14-9c5a-234896e491be" x="6.66672" y="29.43517" width="16.57893" height="16.57893"/></clipPath><clipPath id="10be2beb-f91f-4d59-86bf-5061651b9534"><rect class="bbf81340-8f6d-4d14-9c5a-234896e491be" x="78.21752" y="110.56457" width="13.65262" height="15.42164"/></clipPath><clipPath id="bdab507c-a8da-4e96-85bf-ad9ea0c8b38a"><rect class="bbf81340-8f6d-4d14-9c5a-234896e491be" x="76.75435" y="109.98591" width="16.57893" height="16.57893"/></clipPath><clipPath id="b1dd3a7f-e0d6-4f4e-82b8-2ea1217dfd59"><rect class="bbf81340-8f6d-4d14-9c5a-234896e491be" x="42.23339" y="15.07159" width="15.53323" height="17.54593"/></clipPath><clipPath id="87e01446-e447-4977-a351-5989478a907c"><rect class="bbf81340-8f6d-4d14-9c5a-234896e491be" x="40.5687" y="14.41326" width="18.86263" height="18.86263"/></clipPath><clipPath id="bc5e704b-be25-446a-91bb-d4de128863c9"><rect class="bbf81340-8f6d-4d14-9c5a-234896e491be" x="42.23339" y="118.76391" width="15.53323" height="17.54593"/></clipPath><clipPath id="a52e70f5-e169-4663-a17b-00870dd29063"><rect class="bbf81340-8f6d-4d14-9c5a-234896e491be" x="40.56867" y="118.10554" width="18.86263" height="18.86263"/></clipPath></defs><title>2</title><rect class="358e0915-dd10-4cb2-93b7-bf2461415d88" x="0.5" y="0.5" width="99" height="155" rx="5.5" ry="5.5"/><path class="8737d84a-4c23-4018-9d4a-0feb1a270c19" d="M94,1a5.00567,5.00567,0,0,1,5,5V150a5.00567,5.00567,0,0,1-5,5H6a5.00567,5.00567,0,0,1-5-5V6A5.00567,5.00567,0,0,1,6,1H94m0-1H6A6,6,0,0,0,0,6V150a6,6,0,0,0,6,6H94a6,6,0,0,0,6-6V6a6,6,0,0,0-6-6Z"/><g class="532e724e-01f3-4d39-b848-18f109a138fd"><g class="532e724e-01f3-4d39-b848-18f109a138fd"><path class="9fdd42d7-38d8-420c-b196-90665815aa1d" d="M11.08643,6.80469a6.19082,6.19082,0,0,1,3.001-.67285,7.53849,7.53849,0,0,1,2.0752.28027,4.30168,4.30168,0,0,1,2.832,2.43994,5.40021,5.40021,0,0,1,.4209,2.24316,6.78668,6.78668,0,0,1-.22461,1.78076,7.252,7.252,0,0,1-.65869,1.61279,10.576,10.576,0,0,1-1.09375,1.584q-.65918.7998-1.55664,1.69678l-1.23389,1.23389q-.70093.70166-1.416,1.44434-.71484.74341-1.35986,1.47217-.646.72949-1.09375,1.34619h2.66406q2.01855,0,3.5752-.07031,1.5564-.06958,2.73438-.1543a4.81482,4.81482,0,0,0-.14014,1.0376,4.02495,4.02495,0,0,0,.14014.95361q-1.51465-.0564-3.00049-.05615H10.73633q-1.50073,0-3.01465.05615v-.33643q1.96216-1.93506,3.40723-3.40723,1.4436-1.47217,2.45361-2.65039a22.11462,22.11462,0,0,0,1.64063-2.13086,11.45233,11.45233,0,0,0,.99512-1.80908,6.95328,6.95328,0,0,0,.49072-1.68262,11.7717,11.7717,0,0,0,.12646-1.78076A4.34365,4.34365,0,0,0,15.896,8.165a2.9352,2.9352,0,0,0-2.20117-.99561,3.42178,3.42178,0,0,0-1.54248.32227,3.60316,3.60316,0,0,0-1.06592.78516,3.49563,3.49563,0,0,0-.64453.99561,5.05427,5.05427,0,0,0-.30859.95361l-.19629.05615-.98145-1.374A5.86291,5.86291,0,0,1,11.08643,6.80469Z"/></g></g><g class="11b8da9f-17ef-4ba6-94a6-0773f5927b6a"><g class="11b8da9f-17ef-4ba6-94a6-0773f5927b6a"><path class="9fdd42d7-38d8-420c-b196-90665815aa1d" d="M88.91406,149.19531a6.195,6.195,0,0,1-3.001.67285,7.54359,7.54359,0,0,1-2.0752-.28027,4.30266,4.30266,0,0,1-2.832-2.43945,5.405,5.405,0,0,1-.4209-2.24414,6.78027,6.78027,0,0,1,.22461-1.78027,7.1854,7.1854,0,0,1,.65918-1.6123,10.535,10.535,0,0,1,1.09375-1.585q.65918-.79834,1.55566-1.69629.5332-.5332,1.23438-1.23437.70166-.7002,1.416-1.44336.71484-.74414,1.36035-1.47266.64453-.72949,1.09375-1.3457H86.55859q-2.02,0-3.57617.06934-1.55566.07031-2.7334.1543a4.80235,4.80235,0,0,0,.13965-1.03711,4.01415,4.01415,0,0,0-.13965-.95312q1.51318.05566,3,.05566h6.01563q1.5,0,3.01465-.05566v.33594q-1.96289,1.93506-3.40723,3.40723t-2.4541,2.65039a22.11462,22.11462,0,0,0-1.64062,2.13086,11.43112,11.43112,0,0,0-.99512,1.80859,6.96145,6.96145,0,0,0-.49121,1.68262,11.85376,11.85376,0,0,0-.126,1.78125,4.34528,4.34528,0,0,0,.93945,3.07031,2.939,2.939,0,0,0,2.20117.99609,3.42024,3.42024,0,0,0,1.543-.32324,3.58387,3.58387,0,0,0,1.06543-.78516,3.50015,3.50015,0,0,0,.64453-.99512,4.98081,4.98081,0,0,0,.30859-.95312l.19629-.05664.98145,1.374A5.86291,5.86291,0,0,1,88.91406,149.19531Z"/></g></g><g class="32607d31-132e-4238-aac9-28f826826e5e"><g class="709d2503-22ee-406c-a625-26159864617f"><path class="9fdd42d7-38d8-420c-b196-90665815aa1d" d="M14.78954,45.33233,8.255,37.98061a.396.396,0,0,1,0-.512L14.78954,30.117a.21812.21812,0,0,1,.33326,0l6.53456,7.35165a.39612.39612,0,0,1,0,.512L15.1228,45.33233a.2182.2182,0,0,1-.33326,0"/></g></g><g class="3e19a6bd-d49c-4480-921b-414c8a984e23"><g class="eee3dd3d-41af-4bc7-a7bf-b64bfb1809e1"><path class="9fdd42d7-38d8-420c-b196-90665815aa1d" d="M85.21046,110.66767l6.53449,7.35172a.396.396,0,0,1,0,.512L85.21046,125.883a.21812.21812,0,0,1-.33326,0l-6.53456-7.35165a.39612.39612,0,0,1,0-.512l6.53456-7.35172a.2182.2182,0,0,1,.33326,0"/></g></g><g class="2d20c4bd-4a6c-4236-b5f8-5f7946ae6ca4"><g class="beefede7-35c2-4563-ae77-24525a5b9122"><path class="9fdd42d7-38d8-420c-b196-90665815aa1d" d="M49.81042,32.50022l-7.4346-8.3644a.4505.4505,0,0,1,0-.58253l7.4346-8.36432a.24816.24816,0,0,1,.37917,0l7.43468,8.36432a.45068.45068,0,0,1,0,.58253l-7.43468,8.3644a.24826.24826,0,0,1-.37917,0"/></g></g><g class="2e3c1640-9c57-44ba-9d77-eee4a5624395"><g class="adce7023-3678-47be-b27a-6b7a7b725715"><path class="9fdd42d7-38d8-420c-b196-90665815aa1d" d="M50.18958,118.88121l7.4346,8.3644a.4505.4505,0,0,1,0,.58253l-7.4346,8.36432a.24816.24816,0,0,1-.37917,0l-7.43468-8.36432a.45068.45068,0,0,1,0-.58253l7.43468-8.3644a.24826.24826,0,0,1,.37917,0"/></g></g></svg>