<svg id="acf18314-e2c5-46c5-9226-71301de0d41f" data-name="レイヤー 1" xmlns="http://www.w3.org/2000/svg" xmlns:xlink="http://www.w3.org/1999/xlink" viewBox="0 0 100 156"><defs><style>.\33 9e63510-c1f0-41e0-91e9-07f2679c262d{fill:none;}.cfcfc9e0-935f-4bd8-989e-3b4484a9bd98{fill:#fff;}.\34 dfd6000-28ab-4969-93c4-c9fce3fd8fbf{fill:#7f7f7f;}.\31 273dbb2-428f-4478-b0b3-ebf9ca938847{clip-path:url(#26a098e6-7620-4697-bbb8-a62e5775aad0);}.ee1ffa21-d89f-41ee-a89d-19f275206027{fill:#a00;}.\33 9a8fe7c-0b93-441f-9673-ac21991b7511{clip-path:url(#7035db83-47e6-4243-9003-035a38385f15);}.bb2ae64b-e90d-4df7-865c-8e0220b525ab{clip-path:url(#25c1426e-aae0-4cb7-9400-388940ca2b83);}.f3f40d7e-f97a-41bb-8358-ade0e0eb6da0{clip-path:url(#e1e58535-c484-48d7-8a4b-f8de358b966c);}.b592a721-08d7-401b-a03a-a880c0554663{clip-path:url(#61fe91c7-e783-40b5-82c6-19e2f6d8769f);}.\31 72d19ef-5ce1-42b5-a7f9-1c324c38ff25{clip-path:url(#21300855-f5bd-4d32-a929-dd07cfebdc33);}.\39 accb195-90fa-4649-8d0e-95398d8e498a{clip-path:url(#7cd50147-c827-4e6e-b334-263e5b7cdf94);}.\39 cc9cec1-cb7b-4aac-97ed-486ad29bf5a3{clip-path:url(#979c035a-eff2-408a-b6f6-3d618c2bb0bb);}.ba18d5d4-8be7-48b3-a084-a59e5e940046{clip-path:url(#7b68a157-a55a-409c-a3aa-2bc5817929ae);}.\32 9c3afec-18f1-44b1-8fa4-0ddd31b7ed9f{clip-path:url(#6ed3a122-3187-40ed-be6e-ce9af245ae7d);}.\39 2c69ef9-e6eb-42a9-94a6-2efa3495a6f6{clip-path:url(#57ab7ac9-fb01-4f93-b945-d08cfc6e5f32);}.\32 e392088-49f8-47b9-8419-c083b57bb2e3{clip-path:url(#2765e794-c402-4b91-893e-95833db94e22);}.\39 5f2bedc-87b3-4aa6-aba5-a500ecf95f30{clip-path:url(#93595227-82a3-4ca5-927e-d1865eb25cb5);}.\31 2a7e8fd-4fdd-4ea1-aca9-ee9adfdafc46{clip-path:url(#b9db2230-7151-471a-b65e-f33fa4c79ce8);}</style><clipPath id="26a098e6-7620-4697-bbb8-a62e5775aad0"><rect class="39e63510-c1f0-41e0-91e9-07f2679c262d" width="29.91235" height="29.91235"/></clipPath><clipPath id="7035db83-47e6-4243-9003-035a38385f15"><rect class="39e63510-c1f0-41e0-91e9-07f2679c262d" x="70.08765" y="126.08765" width="29.91235" height="29.91235"/></clipPath><clipPath id="25c1426e-aae0-4cb7-9400-388940ca2b83"><rect class="39e63510-c1f0-41e0-91e9-07f2679c262d" x="8.12987" y="30.01379" width="13.65262" height="15.42164"/></clipPath><clipPath id="e1e58535-c484-48d7-8a4b-f8de358b966c"><rect class="39e63510-c1f0-41e0-91e9-07f2679c262d" x="6.66672" y="29.43517" width="16.57893" height="16.57893"/></clipPath><clipPath id="61fe91c7-e783-40b5-82c6-19e2f6d8769f"><rect class="39e63510-c1f0-41e0-91e9-07f2679c262d" x="78.21752" y="110.56457" width="13.65262" height="15.42164"/></clipPath><clipPath id="21300855-f5bd-4d32-a929-dd07cfebdc33"><rect class="39e63510-c1f0-41e0-91e9-07f2679c262d" x="76.75435" y="109.98591" width="16.57893" height="16.57893"/></clipPath><clipPath id="7cd50147-c827-4e6e-b334-263e5b7cdf94"><rect class="39e63510-c1f0-41e0-91e9-07f2679c262d" x="26.86764" y="15.07159" width="15.53323" height="17.54593"/></clipPath><clipPath id="979c035a-eff2-408a-b6f6-3d618c2bb0bb"><rect class="39e63510-c1f0-41e0-91e9-07f2679c262d" x="25.20296" y="14.41326" width="18.86263" height="18.86263"/></clipPath><clipPath id="7b68a157-a55a-409c-a3aa-2bc5817929ae"><rect class="39e63510-c1f0-41e0-91e9-07f2679c262d" x="57.59913" y="118.76391" width="15.53323" height="17.54593"/></clipPath><clipPath id="6ed3a122-3187-40ed-be6e-ce9af245ae7d"><rect class="39e63510-c1f0-41e0-91e9-07f2679c262d" x="55.93441" y="118.10554" width="18.86263" height="18.86263"/></clipPath><clipPath id="57ab7ac9-fb01-4f93-b945-d08cfc6e5f32"><rect class="39e63510-c1f0-41e0-91e9-07f2679c262d" x="57.59913" y="15.07159" width="15.53323" height="17.54593"/></clipPath><clipPath id="2765e794-c402-4b91-893e-95833db94e22"><rect class="39e63510-c1f0-41e0-91e9-07f2679c262d" x="55.93444" y="14.41326" width="18.86263" height="18.86263"/></clipPath><clipPath id="93595227-82a3-4ca5-927e-d1865eb25cb5"><rect class="39e63510-c1f0-41e0-91e9-07f2679c262d" x="26.86764" y="118.76391" width="15.53323" height="17.54593"/></clipPath><clipPath id="b9db2230-7151-471a-b65e-f33fa4c79ce8"><rect class="39e63510-c1f0-41e0-91e9-07f2679c262d" x="25.20293" y="118.10554" width="18.86263" height="18.86263"/></clipPath></defs><title>4</title><rect class="cfcfc9e0-935f-4bd8-989e-3b4484a9bd98" x="0.5" y="0.5" width="99" height="155" rx="5.5" ry="5.5"/><path class="4dfd6000-28ab-4969-93c4-c9fce3fd8fbf" d="M94,1a5.00567,5.00567,0,0,1,5,5V150a5.00567,5.00567,0,0,1-5,5H6a5.00567,5.00567,0,0,1-5-5V6A5.00567,5.00567,0,0,1,6,1H94m0-1H6A6,6,0,0,0,0,6V150a6,6,0,0,0,6,6H94a6,6,0,0,0,6-6V6a6,6,0,0,0-6-6Z"/><g class="1273dbb2-428f-4478-b0b3-ebf9ca938847"><g class="1273dbb2-428f-4478-b0b3-ebf9ca938847"><path class="ee1ffa21-d89f-41ee-a89d-19f275206027" d="M7.74951,19.45215q1.2334-1.73877,2.56592-3.61768Q11.647,13.95654,12.89551,12.189q1.24731-1.7666,2.29932-3.29492,1.05176-1.52783,1.72461-2.59424a4.00362,4.00362,0,0,0,.95361.14063,3.371,3.371,0,0,0,.89746-.14062q-.08423,1.85083-.14014,4.16455-.05713,2.31372-.05615,4.75342v3.08447q.813,0,1.542-.06982.72949-.06958,1.20605-.1543a3.95866,3.95866,0,0,0-.14014.92529,3.95151,3.95151,0,0,0,.14014.92529,10.63036,10.63036,0,0,0-1.20605-.126q-.72949-.04248-1.542-.042v1.17773q0,1.09351.05615,2.25732.05566,1.16382.11182,1.83691-.561-.0564-1.23389-.05615-.6731,0-1.23389.05615.0564-.72876.14014-1.87891.08423-1.1499.08447-2.21533V19.76074q-.64526,0-1.86475.01367-1.22021.01465-2.55225.04248-1.33228.02783-2.5376.06982-1.2063.04248-1.79492.07031ZM16.44287,8.87988q-.58887.81372-1.48633,2.08936Q14.05859,12.24585,13.106,13.605q-.95435,1.36084-1.80908,2.62207-.85547,1.262-1.332,2.0752H16.499V8.87988Z"/></g></g><g class="39a8fe7c-0b93-441f-9673-ac21991b7511"><g class="39a8fe7c-0b93-441f-9673-ac21991b7511"><path class="ee1ffa21-d89f-41ee-a89d-19f275206027" d="M92.251,136.54785q-1.2334,1.73877-2.56641,3.61719-1.33154,1.87939-2.5791,3.64551-1.248,1.7666-2.2998,3.2959-1.05176,1.52783-1.72461,2.59375a4.02863,4.02863,0,0,0-.95312-.14062,3.388,3.388,0,0,0-.89746.14063q.0835-1.85156.13965-4.165.05713-2.313.05664-4.75293v-3.085q-.813,0-1.543.07031-.728.07031-1.20605.1543a3.11446,3.11446,0,0,0,0-1.85059,10.89992,10.89992,0,0,0,1.20605.126q.72949.04248,1.543.042v-1.17773q0-1.09424-.05664-2.25781-.05566-1.16309-.1123-1.83594c.375.03711.78516.05566,1.23438.05566.44824,0,.86035-.01855,1.2334-.05566q-.05566.728-.13965,1.87891-.085,1.14844-.084,2.21484v1.17773q.64453,0,1.86426-.01367,1.22021-.01465,2.55176-.042,1.333-.0293,2.53809-.07031,1.20557-.04248,1.79492-.07031Zm-8.69336,10.57227q.58887-.81445,1.48633-2.08887.89795-1.27734,1.85059-2.63672.95361-1.35937,1.80859-2.62207.85693-1.26123,1.332-2.0752H83.502v9.42285Z"/></g></g><g class="bb2ae64b-e90d-4df7-865c-8e0220b525ab"><g class="f3f40d7e-f97a-41bb-8358-ade0e0eb6da0"><path class="ee1ffa21-d89f-41ee-a89d-19f275206027" d="M14.78954,45.33233,8.255,37.98061a.396.396,0,0,1,0-.512L14.78954,30.117a.21812.21812,0,0,1,.33326,0l6.53456,7.35165a.39612.39612,0,0,1,0,.512L15.1228,45.33233a.2182.2182,0,0,1-.33326,0"/></g></g><g class="b592a721-08d7-401b-a03a-a880c0554663"><g class="172d19ef-5ce1-42b5-a7f9-1c324c38ff25"><path class="ee1ffa21-d89f-41ee-a89d-19f275206027" d="M85.21046,110.66767l6.53449,7.35172a.396.396,0,0,1,0,.512L85.21046,125.883a.21812.21812,0,0,1-.33326,0l-6.53456-7.35165a.39612.39612,0,0,1,0-.512l6.53456-7.35172a.2182.2182,0,0,1,.33326,0"/></g></g><g class="9accb195-90fa-4649-8d0e-95398d8e498a"><g class="9cc9cec1-cb7b-4aac-97ed-486ad29bf5a3"><path class="ee1ffa21-d89f-41ee-a89d-19f275206027" d="M34.44467,32.50022l-7.4346-8.3644a.4505.4505,0,0,1,0-.58253l7.4346-8.36432a.24816.24816,0,0,1,.37917,0l7.43468,8.36432a.45068.45068,0,0,1,0,.58253l-7.43468,8.3644a.24826.24826,0,0,1-.37917,0"/></g></g><g class="ba18d5d4-8be7-48b3-a084-a59e5e940046"><g class="29c3afec-18f1-44b1-8fa4-0ddd31b7ed9f"><path class="ee1ffa21-d89f-41ee-a89d-19f275206027" d="M65.55533,118.88121l7.4346,8.3644a.4505.4505,0,0,1,0,.58253l-7.4346,8.36432a.24816.24816,0,0,1-.37917,0l-7.43468-8.36432a.45068.45068,0,0,1,0-.58253l7.43468-8.3644a.24826.24826,0,0,1,.37917,0"/></g></g><g class="92c69ef9-e6eb-42a9-94a6-2efa3495a6f6"><g class="2e392088-49f8-47b9-8419-c083b57bb2e3"><path class="ee1ffa21-d89f-41ee-a89d-19f275206027" d="M65.17616,32.50022l-7.4346-8.3644a.4505.4505,0,0,1,0-.58253l7.4346-8.36432a.24816.24816,0,0,1,.37917,0L72.99,23.55329a.45068.45068,0,0,1,0,.58253l-7.43468,8.3644a.24826.24826,0,0,1-.37917,0"/></g></g><g class="95f2bedc-87b3-4aa6-aba5-a500ecf95f30"><g class="12a7e8fd-4fdd-4ea1-aca9-ee9adfdafc46"><path class="ee1ffa21-d89f-41ee-a89d-19f275206027" d="M34.82384,118.88121l7.4346,8.3644a.4505.4505,0,0,1,0,.58253l-7.4346,8.36432a.24816.24816,0,0,1-.37917,0L27.01,127.82814a.45068.45068,0,0,1,0-.58253l7.43468-8.3644a.24826.24826,0,0,1,.37917,0"/></g></g></svg>