<svg id="370ad20b-06d9-4a00-a53e-f2c2a163dc50" data-name="レイヤー 1" xmlns="http://www.w3.org/2000/svg" xmlns:xlink="http://www.w3.org/1999/xlink" viewBox="0 0 100 156"><defs><style>.\37 dbc350a-9dd6-46ca-9b5f-962cae0b2042{fill:none;}.\32 a0c35ce-aef7-4c1f-a2b3-d1a3d4b0b97b{fill:#fff;}.\33 5f76661-f1b7-4ab3-93d0-785ed63e1814{fill:#7f7f7f;}.dd233c54-43d2-44bf-a622-670a344d000f{clip-path:url(#17acd5cd-0ef3-428c-92fe-3abc710d9683);}.aed8d69e-d1b0-40e5-bd51-a74f4e678ff6{fill:#a00;}.\39 4885b08-06e6-479f-846e-120709471373{clip-path:url(#1c325bdb-eeb1-42ab-80d1-f533324e0f75);}.e354da7e-b4b1-4206-a3f7-256388c7ad62{clip-path:url(#c405a283-bc2d-42fc-91b9-3fa929447e82);}.\31 3877c49-d4f8-402e-8654-0741c95d696c{clip-path:url(#440a2cb9-1cd0-4bd0-95dc-a3cf9a29067a);}.\35 1c4bc38-48bc-4ac6-b905-ec154736c1fa{clip-path:url(#32f62799-8c09-4710-b877-709276efcfb4);}.ce231b42-7dcc-4219-9df8-f179b8139aea{clip-path:url(#e18c708f-8ec6-49a4-b1f1-04059b90cb64);}.\31 ba082f6-22c5-4bc9-82ad-bb5d169206bb{clip-path:url(#df439ba1-89db-4fb4-8329-93b275c972d4);}.\39 70b85b1-7420-42a7-b258-8a7984c97aa9{clip-path:url(#02d75fe5-8e17-4357-a790-ed707f75e481);}.\35 24ec72d-0899-4556-bac9-ade0392935a0{clip-path:url(#0568b21b-faa2-492f-9c83-36d5ace851e7);}.\35 222401d-58c2-4b40-919c-c2efc0f53f75{clip-path:url(#ed2a0ba0-f3fe-44fe-aad4-fb26ce96a0c9);}.\37 e5f007c-082e-40cf-9954-cce2b5b602db{clip-path:url(#03304ccb-f97f-4552-8ebc-22a807eca4b0);}.\31 e5e53ca-2a52-4586-90a8-80642679922c{clip-path:url(#e896bf57-0980-4379-9bff-b020b9042f85);}.\37 543db0e-0326-427a-bfb6-74c7b6d32f80{clip-path:url(#6cd925e5-a235-4f4e-847e-3f1616327147);}.\34 9f99fc7-9a81-4567-8dd1-7a16d9ea3bf2{clip-path:url(#ea60d902-0383-428e-983a-a55351ef682f);}.\35 0f54d0b-d23e-4683-a934-85dbdd21de6f{clip-path:url(#3916147e-3829-432e-b745-ac6842bc891a);}.\35 8e69676-f53e-4d37-bf3f-966cc6118221{clip-path:url(#923c4780-78d8-4b9c-b64b-731c84dc84c9);}.\33 7c6f28f-fb93-4478-9816-b2068500dfe8{clip-path:url(#df3e9d2e-6d86-40d7-b9b9-a3aa0350d862);}.f333f883-12ad-4ddb-850a-04256c29042c{clip-path:url(#04341fc8-c2d6-411d-ab9a-85573c5eee53);}</style><clipPath id="17acd5cd-0ef3-428c-92fe-3abc710d9683"><rect class="7dbc350a-9dd6-46ca-9b5f-962cae0b2042" width="29.91235" height="29.91235"/></clipPath><clipPath id="1c325bdb-eeb1-42ab-80d1-f533324e0f75"><rect class="7dbc350a-9dd6-46ca-9b5f-962cae0b2042" x="70.08765" y="126.08765" width="29.91235" height="29.91235"/></clipPath><clipPath id="c405a283-bc2d-42fc-91b9-3fa929447e82"><rect class="7dbc350a-9dd6-46ca-9b5f-962cae0b2042" x="8.12987" y="30.01379" width="13.65262" height="15.42164"/></clipPath><clipPath id="440a2cb9-1cd0-4bd0-95dc-a3cf9a29067a"><rect class="7dbc350a-9dd6-46ca-9b5f-962cae0b2042" x="6.66672" y="29.43517" width="16.57893" height="16.57893"/></clipPath><clipPath id="32f62799-8c09-4710-b877-709276efcfb4"><rect class="7dbc350a-9dd6-46ca-9b5f-962cae0b2042" x="78.21752" y="110.56457" width="13.65262" height="15.42164"/></clipPath><clipPath id="e18c708f-8ec6-49a4-b1f1-04059b90cb64"><rect class="7dbc350a-9dd6-46ca-9b5f-962cae0b2042" x="76.75435" y="109.98591" width="16.57893" height="16.57893"/></clipPath><clipPath id="df439ba1-89db-4fb4-8329-93b275c972d4"><rect class="7dbc350a-9dd6-46ca-9b5f-962cae0b2042" x="26.86764" y="15.07159" width="15.53323" height="17.54593"/></clipPath><clipPath id="02d75fe5-8e17-4357-a790-ed707f75e481"><rect class="7dbc350a-9dd6-46ca-9b5f-962cae0b2042" x="25.20296" y="14.41326" width="18.86263" height="18.86263"/></clipPath><clipPath id="0568b21b-faa2-492f-9c83-36d5ace851e7"><rect class="7dbc350a-9dd6-46ca-9b5f-962cae0b2042" x="26.86764" y="66.91775" width="15.53323" height="17.54593"/></clipPath><clipPath id="ed2a0ba0-f3fe-44fe-aad4-fb26ce96a0c9"><rect class="7dbc350a-9dd6-46ca-9b5f-962cae0b2042" x="25.20296" y="66.25942" width="18.86263" height="18.86263"/></clipPath><clipPath id="03304ccb-f97f-4552-8ebc-22a807eca4b0"><rect class="7dbc350a-9dd6-46ca-9b5f-962cae0b2042" x="57.59913" y="118.76391" width="15.53323" height="17.54593"/></clipPath><clipPath id="e896bf57-0980-4379-9bff-b020b9042f85"><rect class="7dbc350a-9dd6-46ca-9b5f-962cae0b2042" x="55.93441" y="118.10554" width="18.86263" height="18.86263"/></clipPath><clipPath id="6cd925e5-a235-4f4e-847e-3f1616327147"><rect class="7dbc350a-9dd6-46ca-9b5f-962cae0b2042" x="57.59913" y="15.07159" width="15.53323" height="17.54593"/></clipPath><clipPath id="ea60d902-0383-428e-983a-a55351ef682f"><rect class="7dbc350a-9dd6-46ca-9b5f-962cae0b2042" x="55.93444" y="14.41326" width="18.86263" height="18.86263"/></clipPath><clipPath id="3916147e-3829-432e-b745-ac6842bc891a"><rect class="7dbc350a-9dd6-46ca-9b5f-962cae0b2042" x="57.59913" y="66.91775" width="15.53323" height="17.54593"/></clipPath><clipPath id="923c4780-78d8-4b9c-b64b-731c84dc84c9"><rect class="7dbc350a-9dd6-46ca-9b5f-962cae0b2042" x="55.93444" y="66.25942" width="18.86263" height="18.86263"/></clipPath><clipPath id="df3e9d2e-6d86-40d7-b9b9-a3aa0350d862"><rect class="7dbc350a-9dd6-46ca-9b5f-962cae0b2042" x="26.86764" y="118.76391" width="15.53323" height="17.54593"/></clipPath><clipPath id="04341fc8-c2d6-411d-ab9a-85573c5eee53"><rect class="7dbc350a-9dd6-46ca-9b5f-962cae0b2042" x="25.20293" y="118.10554" width="18.86263" height="18.86263"/></clipPath></defs><title>6</title><rect class="2a0c35ce-aef7-4c1f-a2b3-d1a3d4b0b97b" x="0.5" y="0.5" width="99" height="155" rx="5.5" ry="5.5"/><path class="35f76661-f1b7-4ab3-93d0-785ed63e1814" d="M94,1a5.00567,5.00567,0,0,1,5,5V150a5.00567,5.00567,0,0,1-5,5H6a5.00567,5.00567,0,0,1-5-5V6A5.00567,5.00567,0,0,1,6,1H94m0-1H6A6,6,0,0,0,0,6V150a6,6,0,0,0,6,6H94a6,6,0,0,0,6-6V6a6,6,0,0,0-6-6Z"/><g class="dd233c54-43d2-44bf-a622-670a344d000f"><g class="dd233c54-43d2-44bf-a622-670a344d000f"><path class="aed8d69e-d1b0-40e5-bd51-a74f4e678ff6" d="M18.71436,7.22559q-.30908-.08423-.645-.14014a5.01847,5.01847,0,0,0-.81348-.05615,4.11635,4.11635,0,0,0-1.96289.4624,5.42162,5.42162,0,0,0-1.54248,1.23389,7.7924,7.7924,0,0,0-1.14941,1.76709,13.30351,13.30351,0,0,0-.78516,2.061,14.59921,14.59921,0,0,0-.44873,2.08887,13.98575,13.98575,0,0,0-.14014,1.89307h.05566a7.43482,7.43482,0,0,1,.67334-.95361,4.862,4.862,0,0,1,3.8418-1.7666,7.47161,7.47161,0,0,1,1.68262.22461,5.33088,5.33088,0,0,1,1.80859.813,4.85291,4.85291,0,0,1,1.44434,1.6123,5.21251,5.21251,0,0,1,.58887,2.62207,7.284,7.284,0,0,1-.43457,2.56592,5.58823,5.58823,0,0,1-1.248,1.99121,5.37767,5.37767,0,0,1-1.96289,1.26172,7.24719,7.24719,0,0,1-2.58008.43506,6.78952,6.78952,0,0,1-2.32764-.40674A4.86145,4.86145,0,0,1,10.792,23.57422a6.90072,6.90072,0,0,1-1.35986-2.48145,12.04911,12.04911,0,0,1-.50488-3.74365,17.06708,17.06708,0,0,1,.54688-4.38867,11.46529,11.46529,0,0,1,1.59863-3.58984,7.69626,7.69626,0,0,1,2.60791-2.39746,7.008,7.008,0,0,1,3.5752-.84131q.47681,0,.71533.01416a2.53887,2.53887,0,0,1,.46289.06982l.42041.89746Zm.14014,12.45068a6.23056,6.23056,0,0,0-.8833-3.47705A2.98552,2.98552,0,0,0,15.293,14.853a3.43024,3.43024,0,0,0-1.52832.35059,3.61593,3.61593,0,0,0-1.23389.99561,5.08572,5.08572,0,0,0-.82715,1.52832,5.86833,5.86833,0,0,0-.30859,1.94873,6.53593,6.53593,0,0,0,.28076,1.96338,4.776,4.776,0,0,0,.78516,1.542,3.546,3.546,0,0,0,1.19141.99561,3.19164,3.19164,0,0,0,1.47266.35059,3.43519,3.43519,0,0,0,1.584-.35059,3.29425,3.29425,0,0,0,1.16406-.99561,4.70492,4.70492,0,0,0,.729-1.542A7.22369,7.22369,0,0,0,18.85449,19.67627Z"/></g></g><g class="94885b08-06e6-479f-846e-120709471373"><g class="94885b08-06e6-479f-846e-120709471373"><path class="aed8d69e-d1b0-40e5-bd51-a74f4e678ff6" d="M81.28613,148.77441a6.59176,6.59176,0,0,0,.64551.14063,5.06308,5.06308,0,0,0,.8125.05566,4.10819,4.10819,0,0,0,1.96289-.46289,5.42184,5.42184,0,0,0,1.543-1.2334,7.79994,7.79994,0,0,0,1.14941-1.7666,13.29725,13.29725,0,0,0,.78516-2.06152,14.698,14.698,0,0,0,.44922-2.08887,13.97067,13.97067,0,0,0,.13965-1.89355h-.05566a7.39941,7.39941,0,0,1-.67285.9541,4.92774,4.92774,0,0,1-2.20215,1.51367,4.89635,4.89635,0,0,1-1.63965.25293,7.46811,7.46811,0,0,1-1.68262-.22461,5.3315,5.3315,0,0,1-1.80957-.81348,4.85622,4.85622,0,0,1-1.44336-1.6123,5.20849,5.20849,0,0,1-.58984-2.62207,7.27212,7.27212,0,0,1,.43555-2.56543,5.58184,5.58184,0,0,1,1.24707-1.99121,5.37527,5.37527,0,0,1,1.96387-1.26172,7.24181,7.24181,0,0,1,2.5791-.43457,6.79183,6.79183,0,0,1,2.32813.40625,4.84554,4.84554,0,0,1,1.97656,1.36035,6.90866,6.90866,0,0,1,1.36035,2.48145,12.03356,12.03356,0,0,1,.50488,3.74414,17.06708,17.06708,0,0,1-.54687,4.38867,11.44352,11.44352,0,0,1-1.59863,3.58887,7.69733,7.69733,0,0,1-2.60742,2.39844,7.01023,7.01023,0,0,1-3.57617.84082q-.47607,0-.71484-.01367a2.59572,2.59572,0,0,1-.46289-.07031l-.4209-.89746Zm-.14062-12.45117a6.23118,6.23118,0,0,0,.88379,3.47754,2.98432,2.98432,0,0,0,2.67773,1.3457,3.41416,3.41416,0,0,0,1.52832-.35059,3.60127,3.60127,0,0,0,1.23438-.99512,5.09163,5.09163,0,0,0,.82715-1.52832,5.86716,5.86716,0,0,0,.30859-1.94922,6.5709,6.5709,0,0,0-.28027-1.96289,4.79043,4.79043,0,0,0-.78516-1.542,3.55739,3.55739,0,0,0-1.19238-.99609,3.1952,3.1952,0,0,0-1.47168-.35059,3.44691,3.44691,0,0,0-1.585.35059,3.2941,3.2941,0,0,0-1.16309.99609,4.69108,4.69108,0,0,0-.72949,1.542A7.24646,7.24646,0,0,0,81.14551,136.32324Z"/></g></g><g class="e354da7e-b4b1-4206-a3f7-256388c7ad62"><g class="13877c49-d4f8-402e-8654-0741c95d696c"><path class="aed8d69e-d1b0-40e5-bd51-a74f4e678ff6" d="M14.78954,45.33233,8.255,37.98061a.396.396,0,0,1,0-.512L14.78954,30.117a.21812.21812,0,0,1,.33326,0l6.53456,7.35165a.39612.39612,0,0,1,0,.512L15.1228,45.33233a.2182.2182,0,0,1-.33326,0"/></g></g><g class="51c4bc38-48bc-4ac6-b905-ec154736c1fa"><g class="ce231b42-7dcc-4219-9df8-f179b8139aea"><path class="aed8d69e-d1b0-40e5-bd51-a74f4e678ff6" d="M85.21046,110.66767l6.53449,7.35172a.396.396,0,0,1,0,.512L85.21046,125.883a.21812.21812,0,0,1-.33326,0l-6.53456-7.35165a.39612.39612,0,0,1,0-.512l6.53456-7.35172a.2182.2182,0,0,1,.33326,0"/></g></g><g class="1ba082f6-22c5-4bc9-82ad-bb5d169206bb"><g class="970b85b1-7420-42a7-b258-8a7984c97aa9"><path class="aed8d69e-d1b0-40e5-bd51-a74f4e678ff6" d="M34.44467,32.50022l-7.4346-8.3644a.4505.4505,0,0,1,0-.58253l7.4346-8.36432a.24816.24816,0,0,1,.37917,0l7.43468,8.36432a.45068.45068,0,0,1,0,.58253l-7.43468,8.3644a.24826.24826,0,0,1-.37917,0"/></g></g><g class="524ec72d-0899-4556-bac9-ade0392935a0"><g class="5222401d-58c2-4b40-919c-c2efc0f53f75"><path class="aed8d69e-d1b0-40e5-bd51-a74f4e678ff6" d="M34.44467,84.34638l-7.4346-8.3644a.4505.4505,0,0,1,0-.58253l7.4346-8.36432a.24816.24816,0,0,1,.37917,0l7.43468,8.36432a.45068.45068,0,0,1,0,.58253l-7.43468,8.3644a.24826.24826,0,0,1-.37917,0"/></g></g><g class="7e5f007c-082e-40cf-9954-cce2b5b602db"><g class="1e5e53ca-2a52-4586-90a8-80642679922c"><path class="aed8d69e-d1b0-40e5-bd51-a74f4e678ff6" d="M65.55533,118.88121l7.4346,8.3644a.4505.4505,0,0,1,0,.58253l-7.4346,8.36432a.24816.24816,0,0,1-.37917,0l-7.43468-8.36432a.45068.45068,0,0,1,0-.58253l7.43468-8.3644a.24826.24826,0,0,1,.37917,0"/></g></g><g class="7543db0e-0326-427a-bfb6-74c7b6d32f80"><g class="49f99fc7-9a81-4567-8dd1-7a16d9ea3bf2"><path class="aed8d69e-d1b0-40e5-bd51-a74f4e678ff6" d="M65.17616,32.50022l-7.4346-8.3644a.4505.4505,0,0,1,0-.58253l7.4346-8.36432a.24816.24816,0,0,1,.37917,0L72.99,23.55329a.45068.45068,0,0,1,0,.58253l-7.43468,8.3644a.24826.24826,0,0,1-.37917,0"/></g></g><g class="50f54d0b-d23e-4683-a934-85dbdd21de6f"><g class="58e69676-f53e-4d37-bf3f-966cc6118221"><path class="aed8d69e-d1b0-40e5-bd51-a74f4e678ff6" d="M65.17616,84.34638l-7.4346-8.3644a.4505.4505,0,0,1,0-.58253l7.4346-8.36432a.24816.24816,0,0,1,.37917,0L72.99,75.39945a.45068.45068,0,0,1,0,.58253l-7.43468,8.3644a.24826.24826,0,0,1-.37917,0"/></g></g><g class="37c6f28f-fb93-4478-9816-b2068500dfe8"><g class="f333f883-12ad-4ddb-850a-04256c29042c"><path class="aed8d69e-d1b0-40e5-bd51-a74f4e678ff6" d="M34.82384,118.88121l7.4346,8.3644a.4505.4505,0,0,1,0,.58253l-7.4346,8.36432a.24816.24816,0,0,1-.37917,0L27.01,127.82814a.45068.45068,0,0,1,0-.58253l7.43468-8.3644a.24826.24826,0,0,1,.37917,0"/></g></g></svg>