<svg id="f91730ae-1ae6-419e-a50b-424f81bb3ea7" data-name="レイヤー 1" xmlns="http://www.w3.org/2000/svg" xmlns:xlink="http://www.w3.org/1999/xlink" viewBox="0 0 100 156"><defs><style>.b38cf7f3-92f4-4a3e-9ac6-a05dcb6e7ffc{fill:none;}.f355cc77-343c-4e6d-8969-ec3b8cba1161{fill:#fff;}.b7cd8e00-1b69-4013-a6fa-a6e5dd309946{fill:#7f7f7f;}.ebeb0931-1689-43b5-b6cf-ff34c84840d7{clip-path:url(#b6f576d9-a8f0-4dc8-a3dd-f65f2a66535c);}.e398bc31-00d7-4265-9d93-16e2c51844b4{fill:#a00;}.\39 145b311-dcad-40c3-bd43-584c893a143e{clip-path:url(#2c2111ba-9625-4deb-9105-3f3889b7719e);}.eb2df7ab-c9f6-4340-a217-2f7bd5b6af61{clip-path:url(#59b1d01c-831a-469b-9caa-56d3141091ad);}.a1cc75f1-cb3c-4582-bcbf-aeebbc4de729{clip-path:url(#7207019f-6aab-411e-9adc-ee3951c32b0a);}.\32 40389a1-0582-4110-9ad4-c85101013d10{clip-path:url(#9778191e-d951-4221-9dbb-d058c09abfb0);}.\34 46aeb9a-7a29-496a-a84e-bb138d829093{clip-path:url(#b963ad9e-6e23-43df-90b1-869e78a24d71);}.\32 302df86-78df-43e6-9ab2-b1a01f2e23cb{clip-path:url(#412a8314-4dfc-4ac8-adc7-5851f049ed9a);}.\36 75297cf-5762-4965-bd83-e7d923810df9{clip-path:url(#86c3b93e-8c7f-40c7-b5ca-443348fd9fec);}.efc5ee5a-02cd-47dc-a440-81fe2ea5f904{clip-path:url(#646005d0-08a7-4e12-a41d-4e8689dcaa64);}.\33 1e13a67-231f-4a5e-a7f3-a650fb3826f0{clip-path:url(#21a19b3a-1130-4bd4-83c7-b73403ec8bd3);}.\31 88484a2-8834-4d86-851f-563d6d8e675a{clip-path:url(#4c317616-b0a5-4b4d-b11c-229c1106e356);}.\34 15946e1-51f9-4042-bdcf-e3c86bd822af{clip-path:url(#bcb1dec0-e02f-4b60-bd5e-cc49230dd117);}.\36 232527d-f5f3-499c-a60b-3f914e5aa59b{clip-path:url(#4a5a01d0-e812-4082-a4bf-dd0613292306);}.\33 79b3dc3-4e3a-4bb3-83e9-40790ac3f630{clip-path:url(#cf8b6f7c-c832-45cc-a29b-a6bc3bbfb7f3);}.\32 cbc0875-0f82-4744-a582-dff06d9bddb5{clip-path:url(#58b50825-dce7-43e6-81ce-970fb37b96a6);}.\32 376524b-bb96-4ac8-aac7-4ee780fde745{clip-path:url(#c4e2625a-ee5f-4857-bf31-ddef67928e41);}.\30 7d027ef-0410-4557-a928-32630246ff48{clip-path:url(#105c969a-05d8-4ffd-82b6-9e02d6d74e78);}.\38 d8c65ae-c561-4b28-ba40-daa0afbeb162{clip-path:url(#05c4af16-dc44-4579-a2c1-408d4a908374);}.\36 bd760be-61b6-4e55-88ac-4c957ac2e0ff{clip-path:url(#3ad8d7a6-d5ba-463c-82b7-e10b0f81dfe4);}.\32 f0e686c-d941-4fe5-8620-8bfe3bceb2c0{clip-path:url(#00a0b857-31ba-48ef-9374-25b19b5a7896);}</style><clipPath id="b6f576d9-a8f0-4dc8-a3dd-f65f2a66535c"><rect class="b38cf7f3-92f4-4a3e-9ac6-a05dcb6e7ffc" width="29.91235" height="29.91235"/></clipPath><clipPath id="2c2111ba-9625-4deb-9105-3f3889b7719e"><rect class="b38cf7f3-92f4-4a3e-9ac6-a05dcb6e7ffc" x="70.08765" y="126.08765" width="29.91235" height="29.91235"/></clipPath><clipPath id="59b1d01c-831a-469b-9caa-56d3141091ad"><rect class="b38cf7f3-92f4-4a3e-9ac6-a05dcb6e7ffc" x="8.12987" y="30.01379" width="13.65262" height="15.42164"/></clipPath><clipPath id="7207019f-6aab-411e-9adc-ee3951c32b0a"><rect class="b38cf7f3-92f4-4a3e-9ac6-a05dcb6e7ffc" x="6.66672" y="29.43517" width="16.57893" height="16.57893"/></clipPath><clipPath id="9778191e-d951-4221-9dbb-d058c09abfb0"><rect class="b38cf7f3-92f4-4a3e-9ac6-a05dcb6e7ffc" x="78.21752" y="110.56457" width="13.65262" height="15.42164"/></clipPath><clipPath id="b963ad9e-6e23-43df-90b1-869e78a24d71"><rect class="b38cf7f3-92f4-4a3e-9ac6-a05dcb6e7ffc" x="76.75435" y="109.98591" width="16.57893" height="16.57893"/></clipPath><clipPath id="412a8314-4dfc-4ac8-adc7-5851f049ed9a"><rect class="b38cf7f3-92f4-4a3e-9ac6-a05dcb6e7ffc" x="26.86764" y="15.07159" width="15.53323" height="17.54593"/></clipPath><clipPath id="86c3b93e-8c7f-40c7-b5ca-443348fd9fec"><rect class="b38cf7f3-92f4-4a3e-9ac6-a05dcb6e7ffc" x="25.20296" y="14.41326" width="18.86263" height="18.86263"/></clipPath><clipPath id="646005d0-08a7-4e12-a41d-4e8689dcaa64"><rect class="b38cf7f3-92f4-4a3e-9ac6-a05dcb6e7ffc" x="26.86764" y="66.91775" width="15.53323" height="17.54593"/></clipPath><clipPath id="21a19b3a-1130-4bd4-83c7-b73403ec8bd3"><rect class="b38cf7f3-92f4-4a3e-9ac6-a05dcb6e7ffc" x="25.20296" y="66.25942" width="18.86263" height="18.86263"/></clipPath><clipPath id="4c317616-b0a5-4b4d-b11c-229c1106e356"><rect class="b38cf7f3-92f4-4a3e-9ac6-a05dcb6e7ffc" x="57.59913" y="118.76391" width="15.53323" height="17.54593"/></clipPath><clipPath id="bcb1dec0-e02f-4b60-bd5e-cc49230dd117"><rect class="b38cf7f3-92f4-4a3e-9ac6-a05dcb6e7ffc" x="55.93441" y="118.10554" width="18.86263" height="18.86263"/></clipPath><clipPath id="4a5a01d0-e812-4082-a4bf-dd0613292306"><rect class="b38cf7f3-92f4-4a3e-9ac6-a05dcb6e7ffc" x="42.23381" y="40.99423" width="15.53323" height="17.54593"/></clipPath><clipPath id="cf8b6f7c-c832-45cc-a29b-a6bc3bbfb7f3"><rect class="b38cf7f3-92f4-4a3e-9ac6-a05dcb6e7ffc" x="40.56912" y="40.3359" width="18.86263" height="18.86263"/></clipPath><clipPath id="58b50825-dce7-43e6-81ce-970fb37b96a6"><rect class="b38cf7f3-92f4-4a3e-9ac6-a05dcb6e7ffc" x="57.59913" y="15.07159" width="15.53323" height="17.54593"/></clipPath><clipPath id="c4e2625a-ee5f-4857-bf31-ddef67928e41"><rect class="b38cf7f3-92f4-4a3e-9ac6-a05dcb6e7ffc" x="55.93444" y="14.41326" width="18.86263" height="18.86263"/></clipPath><clipPath id="105c969a-05d8-4ffd-82b6-9e02d6d74e78"><rect class="b38cf7f3-92f4-4a3e-9ac6-a05dcb6e7ffc" x="57.59913" y="66.91775" width="15.53323" height="17.54593"/></clipPath><clipPath id="05c4af16-dc44-4579-a2c1-408d4a908374"><rect class="b38cf7f3-92f4-4a3e-9ac6-a05dcb6e7ffc" x="55.93444" y="66.25942" width="18.86263" height="18.86263"/></clipPath><clipPath id="3ad8d7a6-d5ba-463c-82b7-e10b0f81dfe4"><rect class="b38cf7f3-92f4-4a3e-9ac6-a05dcb6e7ffc" x="26.86764" y="118.76391" width="15.53323" height="17.54593"/></clipPath><clipPath id="00a0b857-31ba-48ef-9374-25b19b5a7896"><rect class="b38cf7f3-92f4-4a3e-9ac6-a05dcb6e7ffc" x="25.20293" y="118.10554" width="18.86263" height="18.86263"/></clipPath></defs><title>7</title><rect class="f355cc77-343c-4e6d-8969-ec3b8cba1161" x="0.5" y="0.5" width="99" height="155" rx="5.5" ry="5.5"/><path class="b7cd8e00-1b69-4013-a6fa-a6e5dd309946" d="M94,1a5.00567,5.00567,0,0,1,5,5V150a5.00567,5.00567,0,0,1-5,5H6a5.00567,5.00567,0,0,1-5-5V6A5.00567,5.00567,0,0,1,6,1H94m0-1H6A6,6,0,0,0,0,6V150a6,6,0,0,0,6,6H94a6,6,0,0,0,6-6V6a6,6,0,0,0-6-6Z"/><g class="ebeb0931-1689-43b5-b6cf-ff34c84840d7"><g class="ebeb0931-1689-43b5-b6cf-ff34c84840d7"><path class="e398bc31-00d7-4265-9d93-16e2c51844b4" d="M16.23242,15.93262q-2.59424,4.61353-4.89355,9.1001a8.69281,8.69281,0,0,0-1.06543-.05615,8.60484,8.60484,0,0,0-1.00977.05615q1.31836-2.04712,2.76221-4.417,1.44434-2.36938,2.79053-4.627,1.34619-2.25659,2.49561-4.22021,1.1499-1.96289,1.87891-3.25293-1.262,0-3.71582.02783-2.45361.02856-6.0708.25244a6.50937,6.50937,0,0,0,.11182-1.26221A6.35528,6.35528,0,0,0,9.4043,6.2998q1.17773.08423,2.08887.14063t1.69678.084q.64453,0,1.78076.02783,1.13525.02856,2.20117.02832h1.31787q.86938,0,1.51465-.01416.64453-.01392,1.374-.01416V7.001Q18.82593,11.32007,16.23242,15.93262Z"/></g></g><g class="9145b311-dcad-40c3-bd43-584c893a143e"><g class="9145b311-dcad-40c3-bd43-584c893a143e"><path class="e398bc31-00d7-4265-9d93-16e2c51844b4" d="M83.76758,140.06738q2.59424-4.61279,4.89355-9.09961a8.82406,8.82406,0,0,0,1.06641.05566,8.70408,8.70408,0,0,0,1.00879-.05566q-1.31689,2.04639-2.76172,4.416-1.44434,2.37012-2.79,4.627-1.34619,2.25732-2.49609,4.2207-1.1499,1.96289-1.87891,3.25293,1.26123,0,3.71582-.02832,2.45361-.02783,6.07129-.252a6.4334,6.4334,0,0,0-.1123,1.26172,6.27282,6.27282,0,0,0,.1123,1.23438q-1.17773-.085-2.08984-.14062-.90967-.05566-1.69629-.084-.64453,0-1.78027-.02832-1.13672-.02783-2.20215-.02734H81.51074q-.86865,0-1.51465.01367-.64453.01318-1.374.01367V148.999Q81.17383,144.68066,83.76758,140.06738Z"/></g></g><g class="eb2df7ab-c9f6-4340-a217-2f7bd5b6af61"><g class="a1cc75f1-cb3c-4582-bcbf-aeebbc4de729"><path class="e398bc31-00d7-4265-9d93-16e2c51844b4" d="M14.78954,45.33233,8.255,37.98061a.396.396,0,0,1,0-.512L14.78954,30.117a.21812.21812,0,0,1,.33326,0l6.53456,7.35165a.39612.39612,0,0,1,0,.512L15.1228,45.33233a.2182.2182,0,0,1-.33326,0"/></g></g><g class="240389a1-0582-4110-9ad4-c85101013d10"><g class="446aeb9a-7a29-496a-a84e-bb138d829093"><path class="e398bc31-00d7-4265-9d93-16e2c51844b4" d="M85.21046,110.66767l6.53449,7.35172a.396.396,0,0,1,0,.512L85.21046,125.883a.21812.21812,0,0,1-.33326,0l-6.53456-7.35165a.39612.39612,0,0,1,0-.512l6.53456-7.35172a.2182.2182,0,0,1,.33326,0"/></g></g><g class="2302df86-78df-43e6-9ab2-b1a01f2e23cb"><g class="675297cf-5762-4965-bd83-e7d923810df9"><path class="e398bc31-00d7-4265-9d93-16e2c51844b4" d="M34.44467,32.50022l-7.4346-8.3644a.4505.4505,0,0,1,0-.58253l7.4346-8.36432a.24816.24816,0,0,1,.37917,0l7.43468,8.36432a.45068.45068,0,0,1,0,.58253l-7.43468,8.3644a.24826.24826,0,0,1-.37917,0"/></g></g><g class="efc5ee5a-02cd-47dc-a440-81fe2ea5f904"><g class="31e13a67-231f-4a5e-a7f3-a650fb3826f0"><path class="e398bc31-00d7-4265-9d93-16e2c51844b4" d="M34.44467,84.34638l-7.4346-8.3644a.4505.4505,0,0,1,0-.58253l7.4346-8.36432a.24816.24816,0,0,1,.37917,0l7.43468,8.36432a.45068.45068,0,0,1,0,.58253l-7.43468,8.3644a.24826.24826,0,0,1-.37917,0"/></g></g><g class="188484a2-8834-4d86-851f-563d6d8e675a"><g class="415946e1-51f9-4042-bdcf-e3c86bd822af"><path class="e398bc31-00d7-4265-9d93-16e2c51844b4" d="M65.55533,118.88121l7.4346,8.3644a.4505.4505,0,0,1,0,.58253l-7.4346,8.36432a.24816.24816,0,0,1-.37917,0l-7.43468-8.36432a.45068.45068,0,0,1,0-.58253l7.43468-8.3644a.24826.24826,0,0,1,.37917,0"/></g></g><g class="6232527d-f5f3-499c-a60b-3f914e5aa59b"><g class="379b3dc3-4e3a-4bb3-83e9-40790ac3f630"><path class="e398bc31-00d7-4265-9d93-16e2c51844b4" d="M49.81084,58.42286l-7.4346-8.3644a.4505.4505,0,0,1,0-.58253l7.4346-8.36432a.24816.24816,0,0,1,.37917,0l7.43468,8.36432a.45068.45068,0,0,1,0,.58253L50.19,58.42286a.24826.24826,0,0,1-.37917,0"/></g></g><g class="2cbc0875-0f82-4744-a582-dff06d9bddb5"><g class="2376524b-bb96-4ac8-aac7-4ee780fde745"><path class="e398bc31-00d7-4265-9d93-16e2c51844b4" d="M65.17616,32.50022l-7.4346-8.3644a.4505.4505,0,0,1,0-.58253l7.4346-8.36432a.24816.24816,0,0,1,.37917,0L72.99,23.55329a.45068.45068,0,0,1,0,.58253l-7.43468,8.3644a.24826.24826,0,0,1-.37917,0"/></g></g><g class="07d027ef-0410-4557-a928-32630246ff48"><g class="8d8c65ae-c561-4b28-ba40-daa0afbeb162"><path class="e398bc31-00d7-4265-9d93-16e2c51844b4" d="M65.17616,84.34638l-7.4346-8.3644a.4505.4505,0,0,1,0-.58253l7.4346-8.36432a.24816.24816,0,0,1,.37917,0L72.99,75.39945a.45068.45068,0,0,1,0,.58253l-7.43468,8.3644a.24826.24826,0,0,1-.37917,0"/></g></g><g class="6bd760be-61b6-4e55-88ac-4c957ac2e0ff"><g class="2f0e686c-d941-4fe5-8620-8bfe3bceb2c0"><path class="e398bc31-00d7-4265-9d93-16e2c51844b4" d="M34.82384,118.88121l7.4346,8.3644a.4505.4505,0,0,1,0,.58253l-7.4346,8.36432a.24816.24816,0,0,1-.37917,0L27.01,127.82814a.45068.45068,0,0,1,0-.58253l7.43468-8.3644a.24826.24826,0,0,1,.37917,0"/></g></g></svg>