<svg id="fc2ae3e4-8aa8-4975-a394-fbe2b06e4169" data-name="レイヤー 1" xmlns="http://www.w3.org/2000/svg" xmlns:xlink="http://www.w3.org/1999/xlink" viewBox="0 0 100 156"><defs><style>.e71c702c-aaf5-4243-970f-a8e87eeeb6a5{fill:none;}.a867c246-dafb-495b-a988-e2abf9e96a6d{fill:#fff;}.\35 a2dbbe2-23f0-4d5d-9a20-4c80c33ac4c8{fill:#7f7f7f;}.\39 76b11a6-6303-41a2-aff1-2e13b4b0773b{clip-path:url(#da855a75-3824-4c01-9d70-3a348bb1bc1f);}.e4b47b4d-a27d-4462-ae78-decf80270ccc{fill:#a00;}.\35 1842ea6-f5b1-4899-a40d-0f1ba8a89743{clip-path:url(#73cee105-df41-4714-ab8a-34e27bbce2c8);}.ab6ea698-98f6-496f-a6ac-f451993ef357{clip-path:url(#cc1a9a78-2774-4cf4-96b0-049c3d32f844);}.\33 962575b-ca8b-466f-b91f-61dacdca7c8b{clip-path:url(#aba408f9-c78f-4e49-9aab-eaa40f886164);}.\35 b332d04-1c8a-4a81-9ac4-a58bdfec98f6{clip-path:url(#57083fc9-d2ee-4024-9ae8-c25089b2e708);}.\30 3521dd2-ad1f-4aa2-bd2d-e009869fcfe0{clip-path:url(#5c7880ce-0258-45ae-a3f6-45e2c6344bd4);}.b89243db-bc2b-41c9-9234-e558cf048ff7{clip-path:url(#fb95d688-95ef-4692-b6c3-94203857ccb3);}.\39 3ef5a22-7519-44d2-bc9d-f79438b0c346{clip-path:url(#968ca2c8-399b-439a-b7d2-fac9bfda8f9a);}</style><clipPath id="da855a75-3824-4c01-9d70-3a348bb1bc1f"><rect class="e71c702c-aaf5-4243-970f-a8e87eeeb6a5" width="29.91235" height="29.91235"/></clipPath><clipPath id="73cee105-df41-4714-ab8a-34e27bbce2c8"><rect class="e71c702c-aaf5-4243-970f-a8e87eeeb6a5" x="70.08765" y="126.08765" width="29.91235" height="29.91235"/></clipPath><clipPath id="cc1a9a78-2774-4cf4-96b0-049c3d32f844"><rect class="e71c702c-aaf5-4243-970f-a8e87eeeb6a5" x="8.12987" y="30.01379" width="13.65262" height="15.42164"/></clipPath><clipPath id="aba408f9-c78f-4e49-9aab-eaa40f886164"><rect class="e71c702c-aaf5-4243-970f-a8e87eeeb6a5" x="6.66672" y="29.43517" width="16.57893" height="16.57893"/></clipPath><clipPath id="57083fc9-d2ee-4024-9ae8-c25089b2e708"><rect class="e71c702c-aaf5-4243-970f-a8e87eeeb6a5" x="78.21752" y="110.56457" width="13.65262" height="15.42164"/></clipPath><clipPath id="5c7880ce-0258-45ae-a3f6-45e2c6344bd4"><rect class="e71c702c-aaf5-4243-970f-a8e87eeeb6a5" x="76.75435" y="109.98591" width="16.57893" height="16.57893"/></clipPath><clipPath id="fb95d688-95ef-4692-b6c3-94203857ccb3"><rect class="e71c702c-aaf5-4243-970f-a8e87eeeb6a5" x="42.23339" y="69.22704" width="15.53323" height="17.54593"/></clipPath><clipPath id="968ca2c8-399b-439a-b7d2-fac9bfda8f9a"><rect class="e71c702c-aaf5-4243-970f-a8e87eeeb6a5" x="40.5687" y="68.56871" width="18.86263" height="18.86263"/></clipPath></defs><title>A</title><rect class="a867c246-dafb-495b-a988-e2abf9e96a6d" x="0.5" y="0.5" width="99" height="155" rx="5.5" ry="5.5"/><path class="5a2dbbe2-23f0-4d5d-9a20-4c80c33ac4c8" d="M94,1a5.00567,5.00567,0,0,1,5,5V150a5.00567,5.00567,0,0,1-5,5H6a5.00567,5.00567,0,0,1-5-5V6A5.00567,5.00567,0,0,1,6,1H94m0-1H6A6,6,0,0,0,0,6V150a6,6,0,0,0,6,6H94a6,6,0,0,0,6-6V6a6,6,0,0,0-6-6Z"/><g class="976b11a6-6303-41a2-aff1-2e13b4b0773b"><g class="976b11a6-6303-41a2-aff1-2e13b4b0773b"><path class="e4b47b4d-a27d-4462-ae78-decf80270ccc" d="M23.98682,25.03271a5.24335,5.24335,0,0,0-.74316-.05615H21.75732a5.23279,5.23279,0,0,0-.74316.05615q-.19629-.64453-.53271-1.55664-.33691-.9104-.74316-1.90674-.40723-.99536-.82764-2.019-.42041-1.02319-.78516-1.94922-.89722-.0271-1.82275-.042-.925-.01392-1.85059-.01367-.86938,0-1.71094.01367-.84082.01465-1.71045.042-.89795,2.18774-1.62646,4.16455-.72949,1.97681-1.09375,3.26709a8.86418,8.86418,0,0,0-1.0376-.05615,8.86418,8.86418,0,0,0-1.0376.05615q2.272-4.90723,4.43115-9.75879Q12.825,10.42236,15.0127,5.40283h.5332q.6731,1.62671,1.458,3.519.78516,1.89331,1.59863,3.82813.813,1.93506,1.62646,3.8418.813,1.90723,1.52832,3.54736.71484,1.64063,1.29,2.93066Q23.62158,24.35962,23.98682,25.03271ZM11.56348,16.31152q.72949,0,1.51465.02783.78442.02856,1.51416.02783.78442,0,1.57031-.01367.78516-.01392,1.57031-.042l-3.11279-7.123Z"/></g></g><g class="51842ea6-f5b1-4899-a40d-0f1ba8a89743"><g class="51842ea6-f5b1-4899-a40d-0f1ba8a89743"><path class="e4b47b4d-a27d-4462-ae78-decf80270ccc" d="M76.01465,130.96777a5.30744,5.30744,0,0,0,.74316.05566h1.48633a5.30744,5.30744,0,0,0,.74316-.05566q.19629.64453.53223,1.55566.33691.91113.74316,1.90723.40723.99463.82715,2.01953.42041,1.02246.78516,1.94824.89795.02783,1.82324.042.92578.01465,1.85059.01465c.58008,0,1.14941-.00488,1.71094-.01465q.84082-.01465,1.71-.042.89795-2.187,1.627-4.16406.72949-1.97754,1.09375-3.2666a9.69842,9.69842,0,0,0,2.0752,0q-2.272,4.90576-4.43066,9.75879-2.15918,4.8501-4.34668,9.87109h-.5332q-.67236-1.62744-1.458-3.51953-.78516-1.89258-1.59863-3.82812-.813-1.93506-1.626-3.8418-.813-1.90723-1.52832-3.54785-.71631-1.63916-1.29-2.92969Q76.37988,131.64014,76.01465,130.96777Zm12.42285,8.7207q-.72949,0-1.51465-.02832-.78516-.02783-1.51367-.02734-.78516,0-1.57129.01367-.78369.01465-1.57031.042l3.11328,7.123Z"/></g></g><g class="ab6ea698-98f6-496f-a6ac-f451993ef357"><g class="3962575b-ca8b-466f-b91f-61dacdca7c8b"><path class="e4b47b4d-a27d-4462-ae78-decf80270ccc" d="M14.78954,45.33233,8.255,37.98061a.396.396,0,0,1,0-.512L14.78954,30.117a.21812.21812,0,0,1,.33326,0l6.53456,7.35165a.39612.39612,0,0,1,0,.512L15.1228,45.33233a.2182.2182,0,0,1-.33326,0"/></g></g><g class="5b332d04-1c8a-4a81-9ac4-a58bdfec98f6"><g class="03521dd2-ad1f-4aa2-bd2d-e009869fcfe0"><path class="e4b47b4d-a27d-4462-ae78-decf80270ccc" d="M85.21046,110.66767l6.53449,7.35172a.396.396,0,0,1,0,.512L85.21046,125.883a.21812.21812,0,0,1-.33326,0l-6.53456-7.35165a.39612.39612,0,0,1,0-.512l6.53456-7.35172a.2182.2182,0,0,1,.33326,0"/></g></g><g class="b89243db-bc2b-41c9-9234-e558cf048ff7"><g class="93ef5a22-7519-44d2-bc9d-f79438b0c346"><path class="e4b47b4d-a27d-4462-ae78-decf80270ccc" d="M49.81042,86.65566l-7.4346-8.3644a.4505.4505,0,0,1,0-.58253l7.4346-8.36432a.24816.24816,0,0,1,.37917,0l7.43468,8.36432a.45068.45068,0,0,1,0,.58253l-7.43468,8.3644a.24826.24826,0,0,1-.37917,0"/></g></g></svg>