<svg xmlns="http://www.w3.org/2000/svg" xmlns:xlink="http://www.w3.org/1999/xlink" viewBox="0 0 100 156"><defs><style>.d519ee3b-f506-4105-bccb-50ce3589b1bc{fill:none;}.bb03e48d-f84e-4f4c-88d2-fe30bef3cfbf{isolation:isolate;}.b4596e1d-cd7d-410a-8e48-5e408c968ec7{fill:#fff;}.\39 a75c8d9-236b-4384-aa09-21257700a445{fill:#7f7f7f;}.\38 ae9e495-8fbc-4510-bcb3-9fa2b34408b5{clip-path:url(#8b360baf-97b6-4c28-b3f1-d2bc01cb9459);}.d7926c23-f038-4941-9d92-b85d45d7465b{fill:#a00;}.\33 ce093a6-279c-4ae7-9cdb-dfde98498c75{clip-path:url(#3059d760-3797-4360-ae66-f992531edc30);}.e6be678d-727a-49c0-8062-1f86031a6512{clip-path:url(#ebfa889e-db33-4d38-89f8-2c1bd189e50d);}.fac14c0c-6517-4961-a1ac-86d16bd4331a{clip-path:url(#5a885b1e-9046-4220-92c9-0e7d218435c2);}.\34 c8b69db-15d0-42a6-92ec-86d49d501c9c{clip-path:url(#81dfa3ad-ed46-4af1-978b-eef374b98a9f);}.\33 14c644d-a6f7-486c-a3bd-a0f4993572c8{clip-path:url(#4d2ff629-6f2b-44dc-929c-86d846a3fd28);}.fa56981a-afb7-4c0d-a065-d9dffe21833f{clip-path:url(#ce3b53f8-c74c-44ed-9c9f-e90bbee38190);}.\39 c03c166-90a7-4110-b539-956d65b31596{mix-blend-mode:multiply;}.\34 b2d84bf-0909-4409-9be0-3cab64ec5c66{clip-path:url(#4ff29c41-ee1b-48ca-b677-8c4691f27c45);}.\32 2ddb42b-ec9d-4493-9d3d-9b1212e29dfc{fill:#aa5454;}.\34 8e29913-13e4-4cea-af33-8b7e34afbbed{clip-path:url(#0a225726-f687-4649-9d19-7e673260c5f4);}</style><clipPath id="8b360baf-97b6-4c28-b3f1-d2bc01cb9459"><rect class="d519ee3b-f506-4105-bccb-50ce3589b1bc" width="29.91235" height="29.91235"/></clipPath><clipPath id="3059d760-3797-4360-ae66-f992531edc30"><rect class="d519ee3b-f506-4105-bccb-50ce3589b1bc" x="70.08765" y="126.08765" width="29.91235" height="29.91235"/></clipPath><clipPath id="ebfa889e-db33-4d38-89f8-2c1bd189e50d"><rect class="d519ee3b-f506-4105-bccb-50ce3589b1bc" x="8.12987" y="30.01379" width="13.65262" height="15.42164"/></clipPath><clipPath id="5a885b1e-9046-4220-92c9-0e7d218435c2"><rect class="d519ee3b-f506-4105-bccb-50ce3589b1bc" x="6.66672" y="29.43517" width="16.57893" height="16.57893"/></clipPath><clipPath id="81dfa3ad-ed46-4af1-978b-eef374b98a9f"><rect class="d519ee3b-f506-4105-bccb-50ce3589b1bc" x="78.21752" y="110.56457" width="13.65262" height="15.42164"/></clipPath><clipPath id="4d2ff629-6f2b-44dc-929c-86d846a3fd28"><rect class="d519ee3b-f506-4105-bccb-50ce3589b1bc" x="76.75435" y="109.98591" width="16.57893" height="16.57893"/></clipPath><clipPath id="ce3b53f8-c74c-44ed-9c9f-e90bbee38190"><rect class="d519ee3b-f506-4105-bccb-50ce3589b1bc" x="25" y="23" width="50" height="110"/></clipPath><clipPath id="4ff29c41-ee1b-48ca-b677-8c4691f27c45"><rect class="d519ee3b-f506-4105-bccb-50ce3589b1bc" x="50" y="23" width="25" height="110"/></clipPath><clipPath id="0a225726-f687-4649-9d19-7e673260c5f4"><rect class="d519ee3b-f506-4105-bccb-50ce3589b1bc" x="25" y="78" width="25" height="55"/></clipPath></defs><title>J</title><g class="bb03e48d-f84e-4f4c-88d2-fe30bef3cfbf"><g id="433be8f3-5c11-474e-ac1a-ec6f12038081" data-name="レイヤー 1"><rect class="b4596e1d-cd7d-410a-8e48-5e408c968ec7" x="0.5" y="0.5" width="99" height="155" rx="5.5" ry="5.5"/><path class="9a75c8d9-236b-4384-aa09-21257700a445" d="M94,1a5.00567,5.00567,0,0,1,5,5V150a5.00567,5.00567,0,0,1-5,5H6a5.00567,5.00567,0,0,1-5-5V6A5.00567,5.00567,0,0,1,6,1H94m0-1H6A6,6,0,0,0,0,6V150a6,6,0,0,0,6,6H94a6,6,0,0,0,6-6V6a6,6,0,0,0-6-6Z"/><g class="8ae9e495-8fbc-4510-bcb3-9fa2b34408b5"><g class="8ae9e495-8fbc-4510-bcb3-9fa2b34408b5"><path class="d7926c23-f038-4941-9d92-b85d45d7465b" d="M12.55859,27.59863a3.371,3.371,0,0,0,1.06592-1.52832,8.49582,8.49582,0,0,0,.4624-2.32764q.09814-1.34619.09814-3.00049V13.03027q0-1.85083-.06982-3.63135-.07031-1.78052-.1543-3.63184.364.0564.70117.09814a5.41163,5.41163,0,0,0,1.3457,0q.33691-.04175.70117-.09814-.08423,1.85083-.1543,3.63184-.07031,1.78125-.06982,3.63135,0,1.262.01367,2.60791.01392,1.34619.02832,2.65039.01392,1.30371.02783,2.50977.01392,1.20557.01416,2.21533a6.366,6.366,0,0,1-.40674,2.31348,5.75472,5.75472,0,0,1-1.16357,1.86475,5.43247,5.43247,0,0,1-1.80908,1.27588,5.60782,5.60782,0,0,1-2.28516.46289l-.22461-.78516A2.976,2.976,0,0,0,12.55859,27.59863Z"/></g></g><g class="3ce093a6-279c-4ae7-9cdb-dfde98498c75"><g class="3ce093a6-279c-4ae7-9cdb-dfde98498c75"><path class="d7926c23-f038-4941-9d92-b85d45d7465b" d="M87.44141,128.40137a3.37129,3.37129,0,0,0-1.06543,1.52832,8.54993,8.54993,0,0,0-.46289,2.32715q-.09814,1.34619-.09766,3.001v7.71191q0,1.8501.07031,3.63184.07031,1.77979.1543,3.63086c-.24316-.03711-.47754-.06934-.70117-.09766a5.41945,5.41945,0,0,0-1.34668,0c-.22363.02832-.458.06055-.70117.09766q.085-1.8501.1543-3.63086.07031-1.78125.07031-3.63184,0-1.2627-.01367-2.6084-.01465-1.34619-.02832-2.64941-.01318-1.30371-.02832-2.50977-.01318-1.207-.01367-2.21582a6.37814,6.37814,0,0,1,.40625-2.31348,5.7717,5.7717,0,0,1,1.16406-1.86523,5.42919,5.42919,0,0,1,1.80859-1.27539,5.6108,5.6108,0,0,1,2.28613-.46289l.22363.78516A2.97691,2.97691,0,0,0,87.44141,128.40137Z"/></g></g><g class="e6be678d-727a-49c0-8062-1f86031a6512"><g class="fac14c0c-6517-4961-a1ac-86d16bd4331a"><path class="d7926c23-f038-4941-9d92-b85d45d7465b" d="M14.78954,45.33233,8.255,37.98061a.396.396,0,0,1,0-.512L14.78954,30.117a.21812.21812,0,0,1,.33326,0l6.53456,7.35165a.39612.39612,0,0,1,0,.512L15.1228,45.33233a.2182.2182,0,0,1-.33326,0"/></g></g><g class="4c8b69db-15d0-42a6-92ec-86d49d501c9c"><g class="314c644d-a6f7-486c-a3bd-a0f4993572c8"><path class="d7926c23-f038-4941-9d92-b85d45d7465b" d="M85.21046,110.66767l6.53449,7.35172a.396.396,0,0,1,0,.512L85.21046,125.883a.21812.21812,0,0,1-.33326,0l-6.53456-7.35165a.39612.39612,0,0,1,0-.512l6.53456-7.35172a.2182.2182,0,0,1,.33326,0"/></g></g></g><g id="6b1736b2-cfb6-49e3-90fa-f708f7c100a2" data-name="レイヤー 2"><g class="fa56981a-afb7-4c0d-a065-d9dffe21833f"><g class="fa56981a-afb7-4c0d-a065-d9dffe21833f"><g class="fa56981a-afb7-4c0d-a065-d9dffe21833f"><g class="9c03c166-90a7-4110-b539-956d65b31596"><g class="4b2d84bf-0909-4409-9be0-3cab64ec5c66"><polyline class="22ddb42b-ec9d-4493-9d3d-9b1212e29dfc" points="50 23 75 23 75 133"/></g></g><g class="9c03c166-90a7-4110-b539-956d65b31596"><g class="48e29913-13e4-4cea-af33-8b7e34afbbed"><polyline class="22ddb42b-ec9d-4493-9d3d-9b1212e29dfc" points="50 133 25 133 25 78"/></g></g><g class="9c03c166-90a7-4110-b539-956d65b31596"><g class="4b2d84bf-0909-4409-9be0-3cab64ec5c66"><polyline class="22ddb42b-ec9d-4493-9d3d-9b1212e29dfc" points="50 133 75 133 75 23"/></g></g></g></g></g></g></g></svg>