<svg xmlns="http://www.w3.org/2000/svg" xmlns:xlink="http://www.w3.org/1999/xlink" viewBox="0 0 100 156"><defs><style>.\32 b27d589-16d6-46be-8e77-41e72a0fc36d{fill:none;}.\35 8850c34-7435-479b-b9b5-1506fedeb4f6{isolation:isolate;}.d9ed7e06-1765-4ce0-8380-632c308190d6{fill:#fff;}.\30 d4a1657-ae55-4fbe-b644-e370562285f1{fill:#7f7f7f;}.ef4b92ec-83b3-400b-962c-5e82f963abfd{clip-path:url(#8a4efecb-6984-4965-9d98-28bdaaec83f2);}.\39 8fe61c5-ebbd-4a6b-b0a6-d4f5d3043139{fill:#a00;}.\30 a291cf2-9b0d-4b66-b6ba-08c080188ab0{clip-path:url(#6b4ce94c-3291-4b5e-a469-17af8465dd47);}.cfc5e28f-bd84-4987-b028-8bd4e31bb0dc{clip-path:url(#97688071-4b71-4ede-8848-66efd09c7020);}.\34 a9ac474-8514-49fd-b867-4fdb9db9c994{clip-path:url(#5570427a-b909-4cef-b6c9-20005ec49def);}.\39 4f24a5c-2c51-47c6-9386-aa5efa9fad9e{clip-path:url(#387ed0b1-71d3-4e0b-a5d0-5856967c2539);}.\31 c4f5ccc-8e70-49ce-a611-a39e72f1d46f{clip-path:url(#92d7036d-61fd-4993-bcf2-3d0cab70e2e8);}.\35 fdce864-ad90-43e7-8640-384b26b8b1b7{clip-path:url(#5e72fe20-12e5-425b-8086-c62ff40436e9);}.\37 ca8fa6c-5b96-459c-9e1c-c1786f4dbcb3{mix-blend-mode:multiply;}.\32 29d0c5b-2587-451b-a4ec-b25fd6717352{fill:#aa5454;}</style><clipPath id="8a4efecb-6984-4965-9d98-28bdaaec83f2"><rect class="2b27d589-16d6-46be-8e77-41e72a0fc36d" width="29.91235" height="29.91235"/></clipPath><clipPath id="6b4ce94c-3291-4b5e-a469-17af8465dd47"><rect class="2b27d589-16d6-46be-8e77-41e72a0fc36d" x="70.08765" y="126.08765" width="29.91235" height="29.91235"/></clipPath><clipPath id="97688071-4b71-4ede-8848-66efd09c7020"><rect class="2b27d589-16d6-46be-8e77-41e72a0fc36d" x="8.12987" y="30.01379" width="13.65262" height="15.42164"/></clipPath><clipPath id="5570427a-b909-4cef-b6c9-20005ec49def"><rect class="2b27d589-16d6-46be-8e77-41e72a0fc36d" x="6.66672" y="29.43517" width="16.57893" height="16.57893"/></clipPath><clipPath id="387ed0b1-71d3-4e0b-a5d0-5856967c2539"><rect class="2b27d589-16d6-46be-8e77-41e72a0fc36d" x="78.21752" y="110.56457" width="13.65262" height="15.42164"/></clipPath><clipPath id="92d7036d-61fd-4993-bcf2-3d0cab70e2e8"><rect class="2b27d589-16d6-46be-8e77-41e72a0fc36d" x="76.75435" y="109.98591" width="16.57893" height="16.57893"/></clipPath><clipPath id="5e72fe20-12e5-425b-8086-c62ff40436e9"><rect class="2b27d589-16d6-46be-8e77-41e72a0fc36d" x="25" y="23" width="50" height="110"/></clipPath></defs><title>K</title><g class="58850c34-7435-479b-b9b5-1506fedeb4f6"><g id="3ac93146-d1b8-4195-a1b9-e49b26e2d9c0" data-name="レイヤー 1"><rect class="d9ed7e06-1765-4ce0-8380-632c308190d6" x="0.5" y="0.5" width="99" height="155" rx="5.5" ry="5.5"/><path class="0d4a1657-ae55-4fbe-b644-e370562285f1" d="M94,1a5.00567,5.00567,0,0,1,5,5V150a5.00567,5.00567,0,0,1-5,5H6a5.00567,5.00567,0,0,1-5-5V6A5.00567,5.00567,0,0,1,6,1H94m0-1H6A6,6,0,0,0,0,6V150a6,6,0,0,0,6,6H94a6,6,0,0,0,6-6V6a6,6,0,0,0-6-6Z"/><g class="ef4b92ec-83b3-400b-962c-5e82f963abfd"><g class="ef4b92ec-83b3-400b-962c-5e82f963abfd"><path class="98fe61c5-ebbd-4a6b-b0a6-d4f5d3043139" d="M8.91357,25.03271q.08423-1.73877.1543-3.53369.06958-1.7937.06982-3.64551V13.03027q0-1.85083-.06982-3.63135-.07031-1.78052-.1543-3.63184.364.0564.70117.09814a5.41163,5.41163,0,0,0,1.3457,0q.33691-.04175.70117-.09814-.08423,1.85083-.1543,3.63184-.07031,1.78125-.06982,3.63135v1.54248c0,.1499.05615.22412.168.22412q.11206,0,.39258-.25244.98145-.84082,2.06152-1.90674,1.07886-1.06567,2.17334-2.21533,1.09351-1.1499,2.15918-2.3418Q19.457,6.88892,20.439,5.76709q.30835.0564.58887.09814a3.74121,3.74121,0,0,0,.561.042,5.36512,5.36512,0,0,0,.67285-.042q.33691-.04175.67334-.09814-.98218.84155-2.21533,1.99121-1.23486,1.1499-2.48193,2.35547-1.248,1.2063-2.38379,2.36963-1.13525,1.16382-1.89258,2.0332,2.27124,2.55176,4.585,5.20215,2.313,2.6499,4.69678,5.314a6.31692,6.31692,0,0,0-.84082-.05615H20.78955a5.41552,5.41552,0,0,0-.771.05615q-1.01-1.1499-2.22949-2.63623-1.22021-1.48608-2.38379-2.874-1.16382-1.38867-2.103-2.49609-.9397-1.10742-1.38818-1.55615c-.1499-.14941-.26221-.22461-.33643-.22461-.09375,0-.14014.05615-.14014.16846v2.43945q0,1.85083.06982,3.64551.06958,1.79517.1543,3.53369-.64526-.0564-1.374-.05615Q9.55811,24.97656,8.91357,25.03271Z"/></g></g><g class="0a291cf2-9b0d-4b66-b6ba-08c080188ab0"><g class="0a291cf2-9b0d-4b66-b6ba-08c080188ab0"><path class="98fe61c5-ebbd-4a6b-b0a6-d4f5d3043139" d="M91.08789,130.96777q-.085,1.7373-.1543,3.5332-.07031,1.79443-.07031,3.64551v4.82324q0,1.8501.07031,3.63184.07031,1.77979.1543,3.63086c-.24316-.03711-.47754-.06934-.70117-.09766a5.41945,5.41945,0,0,0-1.34668,0c-.22363.02832-.458.06055-.70117.09766q.085-1.8501.1543-3.63086.07031-1.78125.07031-3.63184v-1.542c0-.15039-.05566-.22461-.168-.22461-.07422,0-.20605.084-.39258.252q-.98145.84229-2.06152,1.90723-1.07959,1.06494-2.17285,2.21582-1.09424,1.14844-2.15918,2.34082-1.06641,1.19238-2.04785,2.31348-.30762-.05566-.58887-.09766a3.72519,3.72519,0,0,0-.56055-.042,5.36512,5.36512,0,0,0-.67285.042q-.33691.04248-.67285.09766.98145-.84082,2.21484-1.99023,1.23486-1.15137,2.48242-2.35645,1.248-1.20557,2.38281-2.36914,1.13672-1.16455,1.89355-2.0332-2.272-2.55176-4.585-5.20215-2.31445-2.6499-4.69727-5.31348a6.39911,6.39911,0,0,0,.84082.05566h1.6123a5.48787,5.48787,0,0,0,.77148-.05566q1.00928,1.14844,2.22949,2.63574,1.22021,1.48535,2.38379,2.874,1.16309,1.38867,2.10352,2.49609.939,1.10742,1.3877,1.55664c.14941.14941.26172.22363.33691.22363.09375,0,.13965-.05566.13965-.168v-2.43945q0-1.85156-.07031-3.64551-.06885-1.7959-.1543-3.5332.646.05566,1.374.05566C90.2002,131.02344,90.65723,131.00488,91.08789,130.96777Z"/></g></g><g class="cfc5e28f-bd84-4987-b028-8bd4e31bb0dc"><g class="4a9ac474-8514-49fd-b867-4fdb9db9c994"><path class="98fe61c5-ebbd-4a6b-b0a6-d4f5d3043139" d="M14.78954,45.33233,8.255,37.98061a.396.396,0,0,1,0-.512L14.78954,30.117a.21812.21812,0,0,1,.33326,0l6.53456,7.35165a.39612.39612,0,0,1,0,.512L15.1228,45.33233a.2182.2182,0,0,1-.33326,0"/></g></g><g class="94f24a5c-2c51-47c6-9386-aa5efa9fad9e"><g class="1c4f5ccc-8e70-49ce-a611-a39e72f1d46f"><path class="98fe61c5-ebbd-4a6b-b0a6-d4f5d3043139" d="M85.21046,110.66767l6.53449,7.35172a.396.396,0,0,1,0,.512L85.21046,125.883a.21812.21812,0,0,1-.33326,0l-6.53456-7.35165a.39612.39612,0,0,1,0-.512l6.53456-7.35172a.2182.2182,0,0,1,.33326,0"/></g></g></g><g id="08498059-1d29-41d9-8448-4a559fbe31c4" data-name="レイヤー 2"><g class="5fdce864-ad90-43e7-8640-384b26b8b1b7"><g class="5fdce864-ad90-43e7-8640-384b26b8b1b7"><g class="5fdce864-ad90-43e7-8640-384b26b8b1b7"><g class="7ca8fa6c-5b96-459c-9e1c-c1786f4dbcb3"><g class="5fdce864-ad90-43e7-8640-384b26b8b1b7"><polyline class="229d0c5b-2587-451b-a4ec-b25fd6717352" points="75 133 25 133 25 23"/></g></g><g class="7ca8fa6c-5b96-459c-9e1c-c1786f4dbcb3"><g class="5fdce864-ad90-43e7-8640-384b26b8b1b7"><polyline class="229d0c5b-2587-451b-a4ec-b25fd6717352" points="75 23 25 23 25 133"/></g></g></g></g></g></g></g></svg>