<svg id="f507cb14-29cd-42ca-a94c-ea61e47f77a6" data-name="レイヤー 1" xmlns="http://www.w3.org/2000/svg" xmlns:xlink="http://www.w3.org/1999/xlink" viewBox="0 0 100 156"><defs><style>.ad28ff00-eea6-449e-8f56-87d2a05d678a{fill:none;}.\35 348fac0-3fa3-40a2-bbad-c162a7567f9d{fill:#fff;}.\37 202b2dd-5956-4e6d-9fbb-4e24f0fcae2d{fill:#7f7f7f;}.d4dcaa9a-4dee-43c8-96e0-84cc97143b5b{clip-path:url(#072a2df2-b1ed-43ae-8837-efe26192d246);}.\37 cbbaf8c-8eba-478b-a852-b65411fbe456{clip-path:url(#a0dbfd5b-136c-4682-8322-e323f71836b8);}.\38 b5ca4bd-5878-4f74-bec7-24a213ca4f21{clip-path:url(#0af6e23d-a005-45fe-860d-8e37dbe48d57);}.\36 afaec3e-8283-4c41-b380-e2a8e776a06e{clip-path:url(#cf29cab2-c345-40ce-999e-a730e4c72295);}.e99148c8-cd4d-4b91-9fd8-5e3665202d72{clip-path:url(#4eb61223-bc82-4971-b367-ec9f71b91ee9);}.\32 e57d184-9432-4b15-9e74-639e58fb14f4{clip-path:url(#779a6d66-6186-43c5-8ea6-f0e2f4d0fc5b);}.b686f19d-6808-4100-860e-83e21066c9e6{clip-path:url(#d53fea11-7860-411b-b196-58342bdd7750);}.eb626e78-d932-4f95-8d1a-ed0cad43873f{clip-path:url(#93d97d0f-6292-49bf-96ff-ab358bfc461b);}.\30 4830506-7316-4540-903c-62c6d9dc9a21{clip-path:url(#4cd7e7d2-f1d9-44d0-b7d4-f64cb632a4cf);}.e3b84ca2-c6fe-4170-a6b1-3afb4d055da1{clip-path:url(#08ef8015-c1b1-40ff-81d3-5caa3d7ce753);}.\38 cd4dacc-c340-45df-a177-f560f858c40c{clip-path:url(#e4a99670-1b7e-4867-8c94-f1351985ee8e);}.\37 0854433-0b9b-4b51-b66a-21f3c40de68a{clip-path:url(#8c620546-93a9-404e-bbd8-2d8d2bfca73a);}.e7fb2c9b-54e5-42dd-8415-f9d2ecc5ab83{clip-path:url(#66ea4347-8a54-4d67-a70f-4449c730d6bc);}.e48387ce-3fa5-4482-afbb-d6a2260b872a{clip-path:url(#c6bdac01-c0a1-41bc-9fe7-ec74a9cad74f);}.\32 243bb26-300b-4d73-968d-3f6808dc365f{clip-path:url(#814eca48-32ab-499d-9ebf-cdeb37e214b4);}.bbb23a38-9b79-4ed1-9fe7-1500e0bae192{clip-path:url(#a393275b-d015-4702-95c6-1c1cce2bf642);}.\37 d4693b5-3781-4336-84c8-74aa8ddad1af{clip-path:url(#86b0ee43-8417-4eb5-80a9-4c5f35e90b03);}.\34 3045606-0979-4f05-a2a7-428fbafeaa8d{clip-path:url(#31eb6644-1ae7-4c19-b08c-9181cfdce79b);}.b610d212-36bc-4a90-8914-d362c295737b{clip-path:url(#9727e0c4-0e81-4195-9e0b-40fe3308e922);}.c77e96b6-9707-4e4f-a91e-04487e30a187{clip-path:url(#c2c45df2-cf0b-4f53-bd68-552005c14ce4);}.b6d1b2db-7ad4-41fd-94d0-8e23c37c7f21{clip-path:url(#693e52ec-ab4b-4a07-a73b-1b0eb336de72);}.\33 9ea6944-7ff2-43a1-b591-22c9f3965b8e{clip-path:url(#dfd75567-2b10-4f84-9c48-4571cd31653f);}.\38 531f56a-c905-438b-be69-d0e094254f1c{clip-path:url(#3ec99202-6782-4c5c-954e-7b4088ac887e);}.a38281c2-474f-49fc-b924-bd9816ffc8f2{clip-path:url(#d1673a3f-e32a-4fe6-8c23-c9390756b612);}.\38 c663158-ffb5-4472-aed5-264b575b1f41{clip-path:url(#45ae9f77-8cd1-4d53-af01-7b87b6cceb51);}.e1e8b5aa-16f3-467b-aac4-2d1b5270c9da{clip-path:url(#e61630e2-5747-43a7-b3c0-1109876d30f1);}</style><clipPath id="072a2df2-b1ed-43ae-8837-efe26192d246"><rect class="ad28ff00-eea6-449e-8f56-87d2a05d678a" width="29.91235" height="29.91235"/></clipPath><clipPath id="a0dbfd5b-136c-4682-8322-e323f71836b8"><rect class="ad28ff00-eea6-449e-8f56-87d2a05d678a" x="70.08765" y="126.08765" width="29.91235" height="29.91235"/></clipPath><clipPath id="0af6e23d-a005-45fe-860d-8e37dbe48d57"><rect class="ad28ff00-eea6-449e-8f56-87d2a05d678a" x="7.66032" y="30.45647" width="14.5917" height="14.53628"/></clipPath><clipPath id="cf29cab2-c345-40ce-999e-a730e4c72295"><rect class="ad28ff00-eea6-449e-8f56-87d2a05d678a" x="6.8531" y="29.72091" width="16.20824" height="16.20824"/></clipPath><clipPath id="4eb61223-bc82-4971-b367-ec9f71b91ee9"><rect class="ad28ff00-eea6-449e-8f56-87d2a05d678a" x="77.74798" y="111.00725" width="14.5917" height="14.53628"/></clipPath><clipPath id="779a6d66-6186-43c5-8ea6-f0e2f4d0fc5b"><rect class="ad28ff00-eea6-449e-8f56-87d2a05d678a" x="76.93865" y="110.07085" width="16.20824" height="16.20824"/></clipPath><clipPath id="d53fea11-7860-411b-b196-58342bdd7750"><rect class="ad28ff00-eea6-449e-8f56-87d2a05d678a" x="26.33343" y="15.57525" width="16.60167" height="16.53861"/></clipPath><clipPath id="93d97d0f-6292-49bf-96ff-ab358bfc461b"><rect class="ad28ff00-eea6-449e-8f56-87d2a05d678a" x="25.41501" y="14.73837" width="18.44088" height="18.44088"/></clipPath><clipPath id="4cd7e7d2-f1d9-44d0-b7d4-f64cb632a4cf"><rect class="ad28ff00-eea6-449e-8f56-87d2a05d678a" x="26.33343" y="50.13936" width="16.60167" height="16.53861"/></clipPath><clipPath id="08ef8015-c1b1-40ff-81d3-5caa3d7ce753"><rect class="ad28ff00-eea6-449e-8f56-87d2a05d678a" x="25.41501" y="49.30247" width="18.44088" height="18.44088"/></clipPath><clipPath id="e4a99670-1b7e-4867-8c94-f1351985ee8e"><rect class="ad28ff00-eea6-449e-8f56-87d2a05d678a" x="57.06491" y="119.26757" width="16.60167" height="16.53861"/></clipPath><clipPath id="8c620546-93a9-404e-bbd8-2d8d2bfca73a"><rect class="ad28ff00-eea6-449e-8f56-87d2a05d678a" x="56.1441" y="118.20218" width="18.44088" height="18.44088"/></clipPath><clipPath id="66ea4347-8a54-4d67-a70f-4449c730d6bc"><rect class="ad28ff00-eea6-449e-8f56-87d2a05d678a" x="57.06491" y="84.70346" width="16.60167" height="16.53861"/></clipPath><clipPath id="c6bdac01-c0a1-41bc-9fe7-ec74a9cad74f"><rect class="ad28ff00-eea6-449e-8f56-87d2a05d678a" x="56.1441" y="83.63807" width="18.44088" height="18.44088"/></clipPath><clipPath id="814eca48-32ab-499d-9ebf-cdeb37e214b4"><rect class="ad28ff00-eea6-449e-8f56-87d2a05d678a" x="57.06491" y="15.57525" width="16.60167" height="16.53861"/></clipPath><clipPath id="a393275b-d015-4702-95c6-1c1cce2bf642"><rect class="ad28ff00-eea6-449e-8f56-87d2a05d678a" x="56.1465" y="14.73837" width="18.44088" height="18.44088"/></clipPath><clipPath id="86b0ee43-8417-4eb5-80a9-4c5f35e90b03"><rect class="ad28ff00-eea6-449e-8f56-87d2a05d678a" x="41.69917" y="33.35201" width="16.60167" height="16.53861"/></clipPath><clipPath id="31eb6644-1ae7-4c19-b08c-9181cfdce79b"><rect class="ad28ff00-eea6-449e-8f56-87d2a05d678a" x="40.78075" y="32.51513" width="18.44088" height="18.44088"/></clipPath><clipPath id="9727e0c4-0e81-4195-9e0b-40fe3308e922"><rect class="ad28ff00-eea6-449e-8f56-87d2a05d678a" x="57.06491" y="50.13936" width="16.60167" height="16.53861"/></clipPath><clipPath id="c2c45df2-cf0b-4f53-bd68-552005c14ce4"><rect class="ad28ff00-eea6-449e-8f56-87d2a05d678a" x="56.1465" y="49.30247" width="18.44088" height="18.44088"/></clipPath><clipPath id="693e52ec-ab4b-4a07-a73b-1b0eb336de72"><rect class="ad28ff00-eea6-449e-8f56-87d2a05d678a" x="26.33343" y="119.26757" width="16.60167" height="16.53861"/></clipPath><clipPath id="dfd75567-2b10-4f84-9c48-4571cd31653f"><rect class="ad28ff00-eea6-449e-8f56-87d2a05d678a" x="25.41262" y="118.20218" width="18.44088" height="18.44088"/></clipPath><clipPath id="3ec99202-6782-4c5c-954e-7b4088ac887e"><rect class="ad28ff00-eea6-449e-8f56-87d2a05d678a" x="41.69917" y="101.49081" width="16.60167" height="16.53861"/></clipPath><clipPath id="d1673a3f-e32a-4fe6-8c23-c9390756b612"><rect class="ad28ff00-eea6-449e-8f56-87d2a05d678a" x="40.77836" y="100.42542" width="18.44088" height="18.44088"/></clipPath><clipPath id="45ae9f77-8cd1-4d53-af01-7b87b6cceb51"><rect class="ad28ff00-eea6-449e-8f56-87d2a05d678a" x="26.33343" y="84.70346" width="16.60167" height="16.53861"/></clipPath><clipPath id="e61630e2-5747-43a7-b3c0-1109876d30f1"><rect class="ad28ff00-eea6-449e-8f56-87d2a05d678a" x="25.41262" y="83.63807" width="18.44088" height="18.44088"/></clipPath></defs><title>10</title><rect class="5348fac0-3fa3-40a2-bbad-c162a7567f9d" x="0.5" y="0.5" width="99" height="155" rx="5.5" ry="5.5"/><path class="7202b2dd-5956-4e6d-9fbb-4e24f0fcae2d" d="M94,1a5.00567,5.00567,0,0,1,5,5V150a5.00567,5.00567,0,0,1-5,5H6a5.00567,5.00567,0,0,1-5-5V6A5.00567,5.00567,0,0,1,6,1H94m0-1H6A6,6,0,0,0,0,6V150a6,6,0,0,0,6,6H94a6,6,0,0,0,6-6V6a6,6,0,0,0-6-6Z"/><g class="d4dcaa9a-4dee-43c8-96e0-84cc97143b5b"><g class="d4dcaa9a-4dee-43c8-96e0-84cc97143b5b"><path d="M4.25,9.77734a2.43964,2.43964,0,0,0-.84131-.89746V8.68359q1.59814-.64453,3.2666-1.416,1.66846-.77124,3.127-1.50049l.19629.14014q-.11206,1.85083-.16846,3.65967-.0564,1.80908-.05566,3.65967v4.68311q0,1.85083.05566,3.63184.0564,1.78052.16846,3.49121a3.98406,3.98406,0,0,0-.65918-.05615H8.02148a3.98406,3.98406,0,0,0-.65918.05615q.14063-1.73877.18262-3.50537.04175-1.7666.042-3.61768V7.92676Z"/><path d="M13.11133,15.77832a19.86847,19.86847,0,0,1,.33643-3.74365A9.46639,9.46639,0,0,1,14.55566,8.978a5.92578,5.92578,0,0,1,2.0332-2.0752,5.81213,5.81213,0,0,1,3.08447-.771,6.30148,6.30148,0,0,1,3.29492.771A5.55686,5.55686,0,0,1,24.97363,8.978a8.99427,8.99427,0,0,1,.99512,3.05664,24.92032,24.92032,0,0,1,.2666,3.74365,16.64294,16.64294,0,0,1-.39258,3.67383,10.187,10.187,0,0,1-1.19189,3.05664,6.086,6.086,0,0,1-2.0332,2.0752,5.51986,5.51986,0,0,1-2.94434.75732,6.58757,6.58757,0,0,1-3.29492-.72949A5.23819,5.23819,0,0,1,14.373,22.5791a8.96952,8.96952,0,0,1-.99512-3.05664A24.85354,24.85354,0,0,1,13.11133,15.77832Zm2.29932,0a26.50886,26.50886,0,0,0,.21045,3.44922,10.52738,10.52738,0,0,0,.71533,2.77637A4.79764,4.79764,0,0,0,17.6543,23.855a3.05979,3.05979,0,0,0,2.019.67285,3.06161,3.06161,0,0,0,2.019-.67285,4.80271,4.80271,0,0,0,1.31787-1.85107,10.52738,10.52738,0,0,0,.71533-2.77637,26.50886,26.50886,0,0,0,.21045-3.44922,26.51429,26.51429,0,0,0-.21045-3.44922,10.52857,10.52857,0,0,0-.71533-2.77588,4.799,4.799,0,0,0-1.31787-1.85107,3.06161,3.06161,0,0,0-2.019-.67285,3.24391,3.24391,0,0,0-2.019.6167,4.35183,4.35183,0,0,0-1.31787,1.7666,10.14822,10.14822,0,0,0-.71533,2.76221A28.05816,28.05816,0,0,0,15.41064,15.77832Z"/></g></g><g class="7cbbaf8c-8eba-478b-a852-b65411fbe456"><g class="7cbbaf8c-8eba-478b-a852-b65411fbe456"><path d="M95.751,146.22266a2.42923,2.42923,0,0,0,.8418.89746v.19629q-1.59814.64453-3.26758,1.416-1.667.77051-3.127,1.5l-.19629-.13965q.11279-1.85156.16895-3.66016.05566-1.80762.05566-3.65918v-4.68359q0-1.8501-.05566-3.63086-.05566-1.78125-.16895-3.49121a4.04044,4.04044,0,0,0,.65918.05566h1.31836a4.04044,4.04044,0,0,0,.65918-.05566q-.14062,1.7373-.18262,3.50488-.04248,1.7666-.042,3.61719v9.9834Z"/><path d="M86.88965,140.22168a19.81431,19.81431,0,0,1-.33691,3.74316,9.47621,9.47621,0,0,1-1.10742,3.05664,5.92192,5.92192,0,0,1-2.0332,2.0752,5.80627,5.80627,0,0,1-3.085.77148,6.29326,6.29326,0,0,1-3.29492-.77148,5.54129,5.54129,0,0,1-2.00488-2.0752,8.97347,8.97347,0,0,1-.99609-3.05664,25.03317,25.03317,0,0,1-.2666-3.74316,16.64226,16.64226,0,0,1,.39355-3.67383,10.16594,10.16594,0,0,1,1.19141-3.05664,6.0948,6.0948,0,0,1,2.0332-2.0752,5.51968,5.51968,0,0,1,2.94434-.75684,6.59956,6.59956,0,0,1,3.29492.72852,5.2382,5.2382,0,0,1,2.00488,2.0332,8.98056,8.98056,0,0,1,.99609,3.05664A24.90812,24.90812,0,0,1,86.88965,140.22168Zm-2.2998,0a26.4144,26.4144,0,0,0-.21094-3.44922,10.5141,10.5141,0,0,0-.71484-2.77637,4.7912,4.7912,0,0,0-1.31738-1.85059,3.36328,3.36328,0,0,0-4.03906,0,4.7912,4.7912,0,0,0-1.31738,1.85059,10.5141,10.5141,0,0,0-.71484,2.77637,28.306,28.306,0,0,0,0,6.89844,10.5141,10.5141,0,0,0,.71484,2.77637,4.7912,4.7912,0,0,0,1.31738,1.85059,3.06646,3.06646,0,0,0,2.01953.67285,3.24659,3.24659,0,0,0,2.01953-.61719,4.34437,4.34437,0,0,0,1.31738-1.7666,10.12746,10.12746,0,0,0,.71484-2.76172A27.95929,27.95929,0,0,0,84.58984,140.22168Z"/></g></g><g class="8b5ca4bd-5878-4f74-bec7-24a213ca4f21"><g class="6afaec3e-8283-4c41-b380-e2a8e776a06e"><path d="M14.85632,39.17836a10.66025,10.66025,0,0,1-2.57369,5.64414.1012.1012,0,0,0,.0742.17025h5.19873a.10119.10119,0,0,0,.0742-.17025,10.66025,10.66025,0,0,1-2.57369-5.64414.101.101,0,0,0-.19975,0"/><path d="M18.227,34.09788c0,2.01109-3.27071,4.57946-3.27071,4.57946s-3.26862-2.56837-3.26862-4.57946a3.47058,3.47058,0,0,1,3.26963-3.64141,3.47059,3.47059,0,0,1,3.2697,3.64141"/><path d="M18.82942,42.07347c-1.89029,0-3.8732-1.39049-3.8732-3.10445s1.98291-3.10249,3.8732-3.10249a3.11835,3.11835,0,1,1,0,6.20693"/><path d="M11.083,35.86652c1.89029,0,3.8732,1.39043,3.8732,3.10445s-1.98291,3.10249-3.8732,3.10249a3.11835,3.11835,0,1,1,0-6.20693"/><path d="M16.36917,37.825a1.41189,1.41189,0,1,1-1.41189-1.41189A1.41193,1.41193,0,0,1,16.36917,37.825"/></g></g><g class="e99148c8-cd4d-4b91-9fd8-5e3665202d72"><g class="2e57d184-9432-4b15-9e74-639e58fb14f4"><path d="M85.14368,116.82164a10.66025,10.66025,0,0,1,2.57369-5.64414.1012.1012,0,0,0-.0742-.17025H82.44444a.10119.10119,0,0,0-.0742.17025,10.66025,10.66025,0,0,1,2.57369,5.64414.101.101,0,0,0,.19975,0"/><path d="M81.773,121.90212c0-2.01109,3.27071-4.57946,3.27071-4.57946s3.26862,2.56837,3.26862,4.57946a3.28864,3.28864,0,1,1-6.53933,0"/><path d="M81.17058,113.92653c1.89029,0,3.8732,1.39049,3.8732,3.10445s-1.98291,3.10249-3.8732,3.10249a3.11835,3.11835,0,1,1,0-6.20693"/><path d="M88.917,120.13348c-1.89029,0-3.8732-1.39043-3.8732-3.10445s1.98291-3.10249,3.8732-3.10249a3.11835,3.11835,0,1,1,0,6.20693"/><path d="M83.63083,118.175a1.41189,1.41189,0,1,1,1.41189,1.41189,1.41193,1.41193,0,0,1-1.41189-1.41189"/></g></g><g class="b686f19d-6808-4100-860e-83e21066c9e6"><g class="eb626e78-d932-4f95-8d1a-ed0cad43873f"><path d="M34.52065,25.49855a12.12867,12.12867,0,0,1-2.92821,6.42161.11514.11514,0,0,0,.08442.1937h5.91484a.11512.11512,0,0,0,.08443-.1937,12.12867,12.12867,0,0,1-2.92821-6.42161.1149.1149,0,0,0-.22727,0"/><path d="M38.35559,19.71826c0,2.28811-3.72124,5.21027-3.72124,5.21027s-3.71886-2.92216-3.71886-5.21027a3.94865,3.94865,0,0,1,3.72-4.143,3.94866,3.94866,0,0,1,3.72009,4.143"/><path d="M39.041,28.79245c-2.15067,0-4.40672-1.582-4.40672-3.53208s2.25605-3.52984,4.40672-3.52984a3.72588,3.72588,0,0,1,3.89405,3.53093,3.72589,3.72589,0,0,1-3.89405,3.531"/><path d="M30.22755,21.73052c2.15067,0,4.40672,1.582,4.40672,3.53208s-2.25605,3.52984-4.40672,3.52984a3.726,3.726,0,0,1-3.89412-3.53093,3.726,3.726,0,0,1,3.89412-3.531"/><path d="M36.24189,23.95881a1.60637,1.60637,0,1,1-1.60637-1.60637,1.60642,1.60642,0,0,1,1.60637,1.60637"/></g></g><g class="04830506-7316-4540-903c-62c6d9dc9a21"><g class="e3b84ca2-c6fe-4170-a6b1-3afb4d055da1"><path d="M34.52065,60.06266a12.12867,12.12867,0,0,1-2.92821,6.42161.11514.11514,0,0,0,.08442.1937h5.91484a.11512.11512,0,0,0,.08443-.1937,12.12867,12.12867,0,0,1-2.92821-6.42161.1149.1149,0,0,0-.22727,0"/><path d="M38.35559,54.28236c0,2.28811-3.72124,5.21027-3.72124,5.21027s-3.71886-2.92216-3.71886-5.21027a3.94865,3.94865,0,0,1,3.72-4.143,3.94866,3.94866,0,0,1,3.72009,4.143"/><path d="M39.041,63.35656c-2.15067,0-4.40672-1.582-4.40672-3.53208s2.25605-3.52984,4.40672-3.52984a3.54789,3.54789,0,1,1,0,7.06192"/><path d="M30.22755,56.29462c2.15067,0,4.40672,1.582,4.40672,3.53208s-2.25605,3.52984-4.40672,3.52984a3.5479,3.5479,0,1,1,0-7.06192"/><path d="M36.24189,58.52292a1.60637,1.60637,0,1,1-1.60637-1.60637,1.60642,1.60642,0,0,1,1.60637,1.60637"/></g></g><g class="8cd4dacc-c340-45df-a177-f560f858c40c"><g class="70854433-0b9b-4b51-b66a-21f3c40de68a"><path d="M65.47935,125.88288a12.12867,12.12867,0,0,1,2.92821-6.42161.11514.11514,0,0,0-.08442-.1937H62.40829a.11512.11512,0,0,0-.08443.1937,12.12867,12.12867,0,0,1,2.92821,6.42161.1149.1149,0,0,0,.22727,0"/><path d="M61.64441,131.66317c0-2.28811,3.72124-5.21027,3.72124-5.21027s3.71886,2.92216,3.71886,5.21027a3.74164,3.74164,0,1,1-7.4401,0"/><path d="M60.959,122.589c2.15067,0,4.40672,1.582,4.40672,3.53208s-2.25605,3.52984-4.40672,3.52984a3.54789,3.54789,0,1,1,0-7.06192"/><path d="M69.77245,129.65091c-2.15067,0-4.40672-1.582-4.40672-3.53208s2.25605-3.52984,4.40672-3.52984a3.5479,3.5479,0,1,1,0,7.06192"/><path d="M63.75812,127.42262a1.60637,1.60637,0,1,1,1.60637,1.60637,1.60642,1.60642,0,0,1-1.60637-1.60637"/></g></g><g class="e7fb2c9b-54e5-42dd-8415-f9d2ecc5ab83"><g class="e48387ce-3fa5-4482-afbb-d6a2260b872a"><path d="M65.47935,91.31877a12.12867,12.12867,0,0,1,2.92821-6.42161.11514.11514,0,0,0-.08442-.1937H62.40829a.11512.11512,0,0,0-.08443.1937,12.12867,12.12867,0,0,1,2.92821,6.42161.1149.1149,0,0,0,.22727,0"/><path d="M61.64441,97.09907c0-2.28811,3.72124-5.21027,3.72124-5.21027s3.71886,2.92216,3.71886,5.21027a3.74164,3.74164,0,1,1-7.4401,0"/><path d="M60.959,88.02487c2.15067,0,4.40672,1.582,4.40672,3.53208s-2.25605,3.52984-4.40672,3.52984a3.54789,3.54789,0,1,1,0-7.06192"/><path d="M69.77245,95.0868c-2.15067,0-4.40672-1.582-4.40672-3.53208s2.25605-3.52984,4.40672-3.52984a3.5479,3.5479,0,1,1,0,7.06192"/><path d="M63.75812,92.85851a1.60637,1.60637,0,1,1,1.60637,1.60637,1.60642,1.60642,0,0,1-1.60637-1.60637"/></g></g><g class="2243bb26-300b-4d73-968d-3f6808dc365f"><g class="bbb23a38-9b79-4ed1-9fe7-1500e0bae192"><path d="M65.25214,25.49855a12.12867,12.12867,0,0,1-2.92821,6.42161.11514.11514,0,0,0,.08442.1937h5.91484a.11512.11512,0,0,0,.08443-.1937,12.12867,12.12867,0,0,1-2.92821-6.42161.1149.1149,0,0,0-.22727,0"/><path d="M69.08707,19.71826c0,2.28811-3.72124,5.21027-3.72124,5.21027S61.647,22.00637,61.647,19.71826a3.74164,3.74164,0,1,1,7.4401,0"/><path d="M69.77252,28.79245c-2.15067,0-4.40672-1.582-4.40672-3.53208s2.25605-3.52984,4.40672-3.52984a3.72588,3.72588,0,0,1,3.89405,3.53093,3.72589,3.72589,0,0,1-3.89405,3.531"/><path d="M60.959,21.73052c2.15067,0,4.40672,1.582,4.40672,3.53208S63.1097,28.79244,60.959,28.79244a3.726,3.726,0,0,1-3.89412-3.53093,3.726,3.726,0,0,1,3.89412-3.531"/><path d="M66.97337,23.95881A1.60637,1.60637,0,1,1,65.367,22.35244a1.60642,1.60642,0,0,1,1.60637,1.60637"/></g></g><g class="7d4693b5-3781-4336-84c8-74aa8ddad1af"><g class="43045606-0979-4f05-a2a7-428fbafeaa8d"><path d="M49.88639,43.27531a12.12867,12.12867,0,0,1-2.92821,6.42161.11514.11514,0,0,0,.08442.1937h5.91484a.11512.11512,0,0,0,.08443-.1937,12.12867,12.12867,0,0,1-2.92821-6.42161.1149.1149,0,0,0-.22727,0"/><path d="M53.72133,37.495c0,2.28811-3.72124,5.21027-3.72124,5.21027s-3.71886-2.92216-3.71886-5.21027a3.74164,3.74164,0,1,1,7.4401,0"/><path d="M54.40678,46.56921c-2.15067,0-4.40672-1.582-4.40672-3.53208s2.25605-3.52984,4.40672-3.52984a3.54789,3.54789,0,1,1,0,7.06192"/><path d="M45.59329,39.50728C47.744,39.50728,50,41.08923,50,43.03935S47.744,46.5692,45.59329,46.5692a3.5479,3.5479,0,1,1,0-7.06192"/><path d="M51.60763,41.73557a1.60637,1.60637,0,1,1-1.60637-1.60637,1.60642,1.60642,0,0,1,1.60637,1.60637"/></g></g><g class="b610d212-36bc-4a90-8914-d362c295737b"><g class="c77e96b6-9707-4e4f-a91e-04487e30a187"><path d="M65.25214,60.06266a12.12867,12.12867,0,0,1-2.92821,6.42161.11514.11514,0,0,0,.08442.1937h5.91484a.11512.11512,0,0,0,.08443-.1937,12.12867,12.12867,0,0,1-2.92821-6.42161.1149.1149,0,0,0-.22727,0"/><path d="M69.08707,54.28236c0,2.28811-3.72124,5.21027-3.72124,5.21027S61.647,56.57047,61.647,54.28236a3.74164,3.74164,0,1,1,7.4401,0"/><path d="M69.77252,63.35656c-2.15067,0-4.40672-1.582-4.40672-3.53208s2.25605-3.52984,4.40672-3.52984a3.54789,3.54789,0,1,1,0,7.06192"/><path d="M60.959,56.29462c2.15067,0,4.40672,1.582,4.40672,3.53208S63.1097,63.35655,60.959,63.35655a3.5479,3.5479,0,1,1,0-7.06192"/><path d="M66.97337,58.52292A1.60637,1.60637,0,1,1,65.367,56.91654a1.60642,1.60642,0,0,1,1.60637,1.60637"/></g></g><g class="b6d1b2db-7ad4-41fd-94d0-8e23c37c7f21"><g class="39ea6944-7ff2-43a1-b591-22c9f3965b8e"><path d="M34.74786,125.88288a12.12867,12.12867,0,0,1,2.92821-6.42161.11514.11514,0,0,0-.08442-.1937H31.67681a.11512.11512,0,0,0-.08443.1937,12.12867,12.12867,0,0,1,2.92821,6.42161.1149.1149,0,0,0,.22727,0"/><path d="M30.91293,131.66317c0-2.28811,3.72124-5.21027,3.72124-5.21027s3.71886,2.92216,3.71886,5.21027a3.94865,3.94865,0,0,1-3.72,4.143,3.94866,3.94866,0,0,1-3.72009-4.143"/><path d="M30.22748,122.589c2.15067,0,4.40672,1.582,4.40672,3.53208s-2.25605,3.52984-4.40672,3.52984a3.54789,3.54789,0,1,1,0-7.06192"/><path d="M39.041,129.65091c-2.15067,0-4.40672-1.582-4.40672-3.53208S36.8903,122.589,39.041,122.589a3.5479,3.5479,0,1,1,0,7.06192"/><path d="M33.02663,127.42262A1.60637,1.60637,0,1,1,34.633,129.029a1.60642,1.60642,0,0,1-1.60637-1.60637"/></g></g><g class="8531f56a-c905-438b-be69-d0e094254f1c"><g class="a38281c2-474f-49fc-b924-bd9816ffc8f2"><path d="M50.11361,108.10612a12.12867,12.12867,0,0,1,2.92821-6.42161.11514.11514,0,0,0-.08442-.1937H47.04255a.11512.11512,0,0,0-.08443.1937,12.12867,12.12867,0,0,1,2.92821,6.42161.1149.1149,0,0,0,.22727,0"/><path d="M46.27867,113.88641c0-2.28811,3.72124-5.21027,3.72124-5.21027s3.71886,2.92216,3.71886,5.21027a3.74164,3.74164,0,1,1-7.4401,0"/><path d="M45.59322,104.81221c2.15067,0,4.40672,1.582,4.40672,3.53208s-2.25605,3.52984-4.40672,3.52984a3.54789,3.54789,0,1,1,0-7.06192"/><path d="M54.40671,111.87415c-2.15067,0-4.40672-1.582-4.40672-3.53208s2.25605-3.52984,4.40672-3.52984a3.5479,3.5479,0,1,1,0,7.06192"/><path d="M48.39237,109.64586a1.60637,1.60637,0,1,1,1.60637,1.60637,1.60642,1.60642,0,0,1-1.60637-1.60637"/></g></g><g class="8c663158-ffb5-4472-aed5-264b575b1f41"><g class="e1e8b5aa-16f3-467b-aac4-2d1b5270c9da"><path d="M34.74786,91.31877a12.12867,12.12867,0,0,1,2.92821-6.42161.11514.11514,0,0,0-.08442-.1937H31.67681a.11512.11512,0,0,0-.08443.1937,12.12867,12.12867,0,0,1,2.92821,6.42161.1149.1149,0,0,0,.22727,0"/><path d="M30.91293,97.09907c0-2.28811,3.72124-5.21027,3.72124-5.21027S38.353,94.811,38.353,97.09907a3.94865,3.94865,0,0,1-3.72,4.143,3.94866,3.94866,0,0,1-3.72009-4.143"/><path d="M30.22748,88.02487c2.15067,0,4.40672,1.582,4.40672,3.53208s-2.25605,3.52984-4.40672,3.52984a3.54789,3.54789,0,1,1,0-7.06192"/><path d="M39.041,95.0868c-2.15067,0-4.40672-1.582-4.40672-3.53208s2.25605-3.52984,4.40672-3.52984a3.5479,3.5479,0,1,1,0,7.06192"/><path d="M33.02663,92.85851A1.60637,1.60637,0,1,1,34.633,94.46489a1.60642,1.60642,0,0,1-1.60637-1.60637"/></g></g></svg>