<svg id="dc395208-f72e-480e-a617-991fcfe826aa" data-name="レイヤー 1" xmlns="http://www.w3.org/2000/svg" xmlns:xlink="http://www.w3.org/1999/xlink" viewBox="0 0 100 156"><defs><style>.\30 f554745-a2c9-4375-9055-09ffae0f248b{fill:none;}.cf220bd4-288a-4947-8c40-8d15008427be{fill:#fff;}.\31 c9f7c5c-cf69-420c-bc45-7d939508f083{fill:#7f7f7f;}.\38 53c4c7f-6998-43fb-91d2-9cc7fa555cfb{clip-path:url(#59e6ae50-39b3-4235-9dd3-a68337106b9a);}.\31 a17f152-07e4-43bb-8d01-9b4726d21cc8{clip-path:url(#0a07111c-c709-4cc8-9119-b34467b4606f);}.\36 cd950e9-9935-4b0f-8c15-6758b2331f49{clip-path:url(#a9cc29dd-d7c4-4020-a630-67eda73b281e);}.\31 0b4945b-c730-435d-967e-d2a42e633bf7{clip-path:url(#69483768-9efc-4cd5-977e-1855e5dd8b88);}.\38 491045b-7aa4-4ce8-8d1c-380049e7afd6{clip-path:url(#21014ec0-37b3-4615-b768-ae8f8d57a128);}.\31 8d71fcc-2374-4c86-a437-856a95b6454a{clip-path:url(#8c71b4fa-6f29-471d-a489-4bd649c520f6);}.d2d6f503-e623-4613-9250-3329b2bd20d6{clip-path:url(#e64af240-c2b0-455f-b72b-6887c8653d4b);}.e4cfdab8-4784-48e3-b9cd-05ae7c777404{clip-path:url(#b2e080e5-a54b-48c5-a477-fe42ed3ae12c);}.\35 3b81b48-5161-4271-be46-fd9db4365de3{clip-path:url(#777a9454-7494-4397-805e-98c9da05907f);}.c9432204-fe59-4518-9d89-5c30d2829efd{clip-path:url(#950d4edc-2b18-4320-941d-53dbabe261ca);}</style><clipPath id="59e6ae50-39b3-4235-9dd3-a68337106b9a"><rect class="0f554745-a2c9-4375-9055-09ffae0f248b" width="29.91235" height="29.91235"/></clipPath><clipPath id="0a07111c-c709-4cc8-9119-b34467b4606f"><rect class="0f554745-a2c9-4375-9055-09ffae0f248b" x="70.08765" y="126.08765" width="29.91235" height="29.91235"/></clipPath><clipPath id="a9cc29dd-d7c4-4020-a630-67eda73b281e"><rect class="0f554745-a2c9-4375-9055-09ffae0f248b" x="7.66032" y="30.45647" width="14.5917" height="14.53628"/></clipPath><clipPath id="69483768-9efc-4cd5-977e-1855e5dd8b88"><rect class="0f554745-a2c9-4375-9055-09ffae0f248b" x="6.8531" y="29.72091" width="16.20824" height="16.20824"/></clipPath><clipPath id="21014ec0-37b3-4615-b768-ae8f8d57a128"><rect class="0f554745-a2c9-4375-9055-09ffae0f248b" x="77.74798" y="111.00725" width="14.5917" height="14.53628"/></clipPath><clipPath id="8c71b4fa-6f29-471d-a489-4bd649c520f6"><rect class="0f554745-a2c9-4375-9055-09ffae0f248b" x="76.93865" y="110.07085" width="16.20824" height="16.20824"/></clipPath><clipPath id="e64af240-c2b0-455f-b72b-6887c8653d4b"><rect class="0f554745-a2c9-4375-9055-09ffae0f248b" x="41.69917" y="15.57525" width="16.60167" height="16.53861"/></clipPath><clipPath id="b2e080e5-a54b-48c5-a477-fe42ed3ae12c"><rect class="0f554745-a2c9-4375-9055-09ffae0f248b" x="40.78075" y="14.73837" width="18.44088" height="18.44088"/></clipPath><clipPath id="777a9454-7494-4397-805e-98c9da05907f"><rect class="0f554745-a2c9-4375-9055-09ffae0f248b" x="41.69917" y="119.26757" width="16.60167" height="16.53861"/></clipPath><clipPath id="950d4edc-2b18-4320-941d-53dbabe261ca"><rect class="0f554745-a2c9-4375-9055-09ffae0f248b" x="40.77836" y="118.20218" width="18.44088" height="18.44088"/></clipPath></defs><title>2</title><rect class="cf220bd4-288a-4947-8c40-8d15008427be" x="0.5" y="0.5" width="99" height="155" rx="5.5" ry="5.5"/><path class="1c9f7c5c-cf69-420c-bc45-7d939508f083" d="M94,1a5.00567,5.00567,0,0,1,5,5V150a5.00567,5.00567,0,0,1-5,5H6a5.00567,5.00567,0,0,1-5-5V6A5.00567,5.00567,0,0,1,6,1H94m0-1H6A6,6,0,0,0,0,6V150a6,6,0,0,0,6,6H94a6,6,0,0,0,6-6V6a6,6,0,0,0-6-6Z"/><g class="853c4c7f-6998-43fb-91d2-9cc7fa555cfb"><g class="853c4c7f-6998-43fb-91d2-9cc7fa555cfb"><path d="M11.08643,6.80469a6.19082,6.19082,0,0,1,3.001-.67285,7.53849,7.53849,0,0,1,2.0752.28027,4.30168,4.30168,0,0,1,2.832,2.43994,5.40021,5.40021,0,0,1,.4209,2.24316,6.78668,6.78668,0,0,1-.22461,1.78076,7.252,7.252,0,0,1-.65869,1.61279,10.576,10.576,0,0,1-1.09375,1.584q-.65918.7998-1.55664,1.69678l-1.23389,1.23389q-.70093.70166-1.416,1.44434-.71484.74341-1.35986,1.47217-.646.72949-1.09375,1.34619h2.66406q2.01855,0,3.5752-.07031,1.5564-.06958,2.73438-.1543a4.81482,4.81482,0,0,0-.14014,1.0376,4.02495,4.02495,0,0,0,.14014.95361q-1.51465-.0564-3.00049-.05615H10.73633q-1.50073,0-3.01465.05615v-.33643q1.96216-1.93506,3.40723-3.40723,1.4436-1.47217,2.45361-2.65039a22.11462,22.11462,0,0,0,1.64063-2.13086,11.45233,11.45233,0,0,0,.99512-1.80908,6.95328,6.95328,0,0,0,.49072-1.68262,11.7717,11.7717,0,0,0,.12646-1.78076A4.34365,4.34365,0,0,0,15.896,8.165a2.9352,2.9352,0,0,0-2.20117-.99561,3.42178,3.42178,0,0,0-1.54248.32227,3.60316,3.60316,0,0,0-1.06592.78516,3.49563,3.49563,0,0,0-.64453.99561,5.05427,5.05427,0,0,0-.30859.95361l-.19629.05615-.98145-1.374A5.86291,5.86291,0,0,1,11.08643,6.80469Z"/></g></g><g class="1a17f152-07e4-43bb-8d01-9b4726d21cc8"><g class="1a17f152-07e4-43bb-8d01-9b4726d21cc8"><path d="M88.91406,149.19531a6.195,6.195,0,0,1-3.001.67285,7.54359,7.54359,0,0,1-2.0752-.28027,4.30266,4.30266,0,0,1-2.832-2.43945,5.405,5.405,0,0,1-.4209-2.24414,6.78027,6.78027,0,0,1,.22461-1.78027,7.1854,7.1854,0,0,1,.65918-1.6123,10.535,10.535,0,0,1,1.09375-1.585q.65918-.79834,1.55566-1.69629.5332-.5332,1.23438-1.23437.70166-.7002,1.416-1.44336.71484-.74414,1.36035-1.47266.64453-.72949,1.09375-1.3457H86.55859q-2.02,0-3.57617.06934-1.55566.07031-2.7334.1543a4.80235,4.80235,0,0,0,.13965-1.03711,4.01415,4.01415,0,0,0-.13965-.95312q1.51318.05566,3,.05566h6.01563q1.5,0,3.01465-.05566v.33594q-1.96289,1.93506-3.40723,3.40723t-2.4541,2.65039a22.11462,22.11462,0,0,0-1.64062,2.13086,11.43112,11.43112,0,0,0-.99512,1.80859,6.96145,6.96145,0,0,0-.49121,1.68262,11.85376,11.85376,0,0,0-.126,1.78125,4.34528,4.34528,0,0,0,.93945,3.07031,2.939,2.939,0,0,0,2.20117.99609,3.42024,3.42024,0,0,0,1.543-.32324,3.58387,3.58387,0,0,0,1.06543-.78516,3.50015,3.50015,0,0,0,.64453-.99512,4.98081,4.98081,0,0,0,.30859-.95312l.19629-.05664.98145,1.374A5.86291,5.86291,0,0,1,88.91406,149.19531Z"/></g></g><g class="6cd950e9-9935-4b0f-8c15-6758b2331f49"><g class="10b4945b-c730-435d-967e-d2a42e633bf7"><path d="M14.85632,39.17836a10.66025,10.66025,0,0,1-2.57369,5.64414.1012.1012,0,0,0,.0742.17025h5.19873a.10119.10119,0,0,0,.0742-.17025,10.66025,10.66025,0,0,1-2.57369-5.64414.101.101,0,0,0-.19975,0"/><path d="M18.227,34.09788c0,2.01109-3.27071,4.57946-3.27071,4.57946s-3.26862-2.56837-3.26862-4.57946a3.47058,3.47058,0,0,1,3.26963-3.64141,3.47059,3.47059,0,0,1,3.2697,3.64141"/><path d="M18.82942,42.07347c-1.89029,0-3.8732-1.39049-3.8732-3.10445s1.98291-3.10249,3.8732-3.10249a3.11835,3.11835,0,1,1,0,6.20693"/><path d="M11.083,35.86652c1.89029,0,3.8732,1.39043,3.8732,3.10445s-1.98291,3.10249-3.8732,3.10249a3.11835,3.11835,0,1,1,0-6.20693"/><path d="M16.36917,37.825a1.41189,1.41189,0,1,1-1.41189-1.41189A1.41193,1.41193,0,0,1,16.36917,37.825"/></g></g><g class="8491045b-7aa4-4ce8-8d1c-380049e7afd6"><g class="18d71fcc-2374-4c86-a437-856a95b6454a"><path d="M85.14368,116.82164a10.66025,10.66025,0,0,1,2.57369-5.64414.1012.1012,0,0,0-.0742-.17025H82.44444a.10119.10119,0,0,0-.0742.17025,10.66025,10.66025,0,0,1,2.57369,5.64414.101.101,0,0,0,.19975,0"/><path d="M81.773,121.90212c0-2.01109,3.27071-4.57946,3.27071-4.57946s3.26862,2.56837,3.26862,4.57946a3.28864,3.28864,0,1,1-6.53933,0"/><path d="M81.17058,113.92653c1.89029,0,3.8732,1.39049,3.8732,3.10445s-1.98291,3.10249-3.8732,3.10249a3.11835,3.11835,0,1,1,0-6.20693"/><path d="M88.917,120.13348c-1.89029,0-3.8732-1.39043-3.8732-3.10445s1.98291-3.10249,3.8732-3.10249a3.11835,3.11835,0,1,1,0,6.20693"/><path d="M83.63083,118.175a1.41189,1.41189,0,1,1,1.41189,1.41189,1.41193,1.41193,0,0,1-1.41189-1.41189"/></g></g><g class="d2d6f503-e623-4613-9250-3329b2bd20d6"><g class="e4cfdab8-4784-48e3-b9cd-05ae7c777404"><path d="M49.88639,25.49855a12.12867,12.12867,0,0,1-2.92821,6.42161.11514.11514,0,0,0,.08442.1937h5.91484a.11512.11512,0,0,0,.08443-.1937,12.12867,12.12867,0,0,1-2.92821-6.42161.1149.1149,0,0,0-.22727,0"/><path d="M53.72133,19.71826c0,2.28811-3.72124,5.21027-3.72124,5.21027s-3.71886-2.92216-3.71886-5.21027a3.74164,3.74164,0,1,1,7.4401,0"/><path d="M54.40678,28.79245c-2.15067,0-4.40672-1.582-4.40672-3.53208s2.25605-3.52984,4.40672-3.52984a3.72588,3.72588,0,0,1,3.89405,3.53093,3.72589,3.72589,0,0,1-3.89405,3.531"/><path d="M45.59329,21.73052C47.744,21.73052,50,23.31247,50,25.26259s-2.25605,3.52984-4.40672,3.52984a3.726,3.726,0,0,1-3.89412-3.53093,3.726,3.726,0,0,1,3.89412-3.531"/><path d="M51.60763,23.95881a1.60637,1.60637,0,1,1-1.60637-1.60637,1.60642,1.60642,0,0,1,1.60637,1.60637"/></g></g><g class="53b81b48-5161-4271-be46-fd9db4365de3"><g class="c9432204-fe59-4518-9d89-5c30d2829efd"><path d="M50.11361,125.88288a12.12867,12.12867,0,0,1,2.92821-6.42161.11514.11514,0,0,0-.08442-.1937H47.04255a.11512.11512,0,0,0-.08443.1937,12.12867,12.12867,0,0,1,2.92821,6.42161.1149.1149,0,0,0,.22727,0"/><path d="M46.27867,131.66317c0-2.28811,3.72124-5.21027,3.72124-5.21027s3.71886,2.92216,3.71886,5.21027a3.74164,3.74164,0,1,1-7.4401,0"/><path d="M45.59322,122.589c2.15067,0,4.40672,1.582,4.40672,3.53208s-2.25605,3.52984-4.40672,3.52984a3.54789,3.54789,0,1,1,0-7.06192"/><path d="M54.40671,129.65091C52.256,129.65091,50,128.069,50,126.11883S52.256,122.589,54.40671,122.589a3.5479,3.5479,0,1,1,0,7.06192"/><path d="M48.39237,127.42262a1.60637,1.60637,0,1,1,1.60637,1.60637,1.60642,1.60642,0,0,1-1.60637-1.60637"/></g></g></svg>