<svg id="8913e8cc-15f8-45fc-814d-d1b695bcc382" data-name="レイヤー 1" xmlns="http://www.w3.org/2000/svg" xmlns:xlink="http://www.w3.org/1999/xlink" viewBox="0 0 100 156"><defs><style>.\36 d23e3cc-314e-46c3-921c-c72cb060d824{fill:none;}.\32 114a25c-4cf8-4fd8-9790-a9e88a6abbc0{fill:#fff;}.e32d1ee6-0569-415f-81cf-8528e3101106{fill:#7f7f7f;}.ac476694-b3f5-4aad-ab0d-b56c4dc358f1{clip-path:url(#12dc37db-a412-450d-89af-adb68a8afe94);}.\38 d11414f-1154-4f44-b7c2-80c1e8633543{clip-path:url(#df475b3d-e2d6-4575-874a-e7d18763daad);}.\34 64c1a6c-c2f8-4a32-8bb5-a4c90dda032e{clip-path:url(#f57511b8-5368-42db-b5a7-d61097f9ef13);}.\36 322c417-06c6-44a3-9981-7668d1ed318d{clip-path:url(#0a6321a8-fa74-413a-a2b4-a5f68a61d8b1);}.a4cfb7d5-ecfb-499f-a725-7385e01f7f12{clip-path:url(#ef3feeb9-a7fa-42f1-a671-0295f3c89c81);}.\39 ad67ec1-79ce-4ea4-8657-902df0dcae92{clip-path:url(#6af1371e-ca51-48f5-9b35-04a8c9c8413f);}.a9abaf9a-1e09-4ba1-9ac4-e88134040c42{clip-path:url(#7ff1f956-225f-49ef-af9d-0fc85d1d26c8);}.d03de3d2-4351-48cd-b92f-c7d58b81fcc3{clip-path:url(#89a54540-197d-4dcf-b3a3-b7c5453e180a);}.\32 0350d4b-2904-41d4-b3de-cb0cf61e4f76{clip-path:url(#3f6b1848-c961-4693-89c0-93d40b133acb);}.\33 f6088cf-5e32-4bb9-b278-32134a131604{clip-path:url(#346124be-9165-4cb9-9ee4-ce5ad3d81431);}.a2f09242-aba9-4c09-b728-b67d268fd2cc{clip-path:url(#4d004d1d-c080-4ae1-9349-852902c2dbac);}.\33 308312d-7701-4ada-b1b7-1ee030ca8373{clip-path:url(#fb77666d-b3ac-4b13-bc7f-816268c9c7da);}.\38 00303c7-687d-47dc-b570-0009dd4716c7{clip-path:url(#436853cf-17d6-4233-a8ff-2e8feef1eace);}.ec55bf84-02b2-4f54-b3d6-3bc71df598cd{clip-path:url(#308aeecd-332b-42a9-9dcd-c9f696884d75);}</style><clipPath id="12dc37db-a412-450d-89af-adb68a8afe94"><rect class="6d23e3cc-314e-46c3-921c-c72cb060d824" width="29.91235" height="29.91235"/></clipPath><clipPath id="df475b3d-e2d6-4575-874a-e7d18763daad"><rect class="6d23e3cc-314e-46c3-921c-c72cb060d824" x="70.08765" y="126.08765" width="29.91235" height="29.91235"/></clipPath><clipPath id="f57511b8-5368-42db-b5a7-d61097f9ef13"><rect class="6d23e3cc-314e-46c3-921c-c72cb060d824" x="7.66032" y="30.45647" width="14.5917" height="14.53628"/></clipPath><clipPath id="0a6321a8-fa74-413a-a2b4-a5f68a61d8b1"><rect class="6d23e3cc-314e-46c3-921c-c72cb060d824" x="6.8531" y="29.72091" width="16.20824" height="16.20824"/></clipPath><clipPath id="ef3feeb9-a7fa-42f1-a671-0295f3c89c81"><rect class="6d23e3cc-314e-46c3-921c-c72cb060d824" x="77.74798" y="111.00725" width="14.5917" height="14.53628"/></clipPath><clipPath id="6af1371e-ca51-48f5-9b35-04a8c9c8413f"><rect class="6d23e3cc-314e-46c3-921c-c72cb060d824" x="76.93865" y="110.07085" width="16.20824" height="16.20824"/></clipPath><clipPath id="7ff1f956-225f-49ef-af9d-0fc85d1d26c8"><rect class="6d23e3cc-314e-46c3-921c-c72cb060d824" x="26.33343" y="15.57525" width="16.60167" height="16.53861"/></clipPath><clipPath id="89a54540-197d-4dcf-b3a3-b7c5453e180a"><rect class="6d23e3cc-314e-46c3-921c-c72cb060d824" x="25.41501" y="14.73837" width="18.44088" height="18.44088"/></clipPath><clipPath id="3f6b1848-c961-4693-89c0-93d40b133acb"><rect class="6d23e3cc-314e-46c3-921c-c72cb060d824" x="57.06491" y="119.26757" width="16.60167" height="16.53861"/></clipPath><clipPath id="346124be-9165-4cb9-9ee4-ce5ad3d81431"><rect class="6d23e3cc-314e-46c3-921c-c72cb060d824" x="56.1441" y="118.20218" width="18.44088" height="18.44088"/></clipPath><clipPath id="4d004d1d-c080-4ae1-9349-852902c2dbac"><rect class="6d23e3cc-314e-46c3-921c-c72cb060d824" x="57.06491" y="15.57525" width="16.60167" height="16.53861"/></clipPath><clipPath id="fb77666d-b3ac-4b13-bc7f-816268c9c7da"><rect class="6d23e3cc-314e-46c3-921c-c72cb060d824" x="56.1465" y="14.73837" width="18.44088" height="18.44088"/></clipPath><clipPath id="436853cf-17d6-4233-a8ff-2e8feef1eace"><rect class="6d23e3cc-314e-46c3-921c-c72cb060d824" x="26.33343" y="119.26757" width="16.60167" height="16.53861"/></clipPath><clipPath id="308aeecd-332b-42a9-9dcd-c9f696884d75"><rect class="6d23e3cc-314e-46c3-921c-c72cb060d824" x="25.41262" y="118.20218" width="18.44088" height="18.44088"/></clipPath></defs><title>4</title><rect class="2114a25c-4cf8-4fd8-9790-a9e88a6abbc0" x="0.5" y="0.5" width="99" height="155" rx="5.5" ry="5.5"/><path class="e32d1ee6-0569-415f-81cf-8528e3101106" d="M94,1a5.00567,5.00567,0,0,1,5,5V150a5.00567,5.00567,0,0,1-5,5H6a5.00567,5.00567,0,0,1-5-5V6A5.00567,5.00567,0,0,1,6,1H94m0-1H6A6,6,0,0,0,0,6V150a6,6,0,0,0,6,6H94a6,6,0,0,0,6-6V6a6,6,0,0,0-6-6Z"/><g class="ac476694-b3f5-4aad-ab0d-b56c4dc358f1"><g class="ac476694-b3f5-4aad-ab0d-b56c4dc358f1"><path d="M7.74951,19.45215q1.2334-1.73877,2.56592-3.61768Q11.647,13.95654,12.89551,12.189q1.24731-1.7666,2.29932-3.29492,1.05176-1.52783,1.72461-2.59424a4.00362,4.00362,0,0,0,.95361.14063,3.371,3.371,0,0,0,.89746-.14062q-.08423,1.85083-.14014,4.16455-.05713,2.31372-.05615,4.75342v3.08447q.813,0,1.542-.06982.72949-.06958,1.20605-.1543a3.95866,3.95866,0,0,0-.14014.92529,3.95151,3.95151,0,0,0,.14014.92529,10.63036,10.63036,0,0,0-1.20605-.126q-.72949-.04248-1.542-.042v1.17773q0,1.09351.05615,2.25732.05566,1.16382.11182,1.83691-.561-.0564-1.23389-.05615-.6731,0-1.23389.05615.0564-.72876.14014-1.87891.08423-1.1499.08447-2.21533V19.76074q-.64526,0-1.86475.01367-1.22021.01465-2.55225.04248-1.33228.02783-2.5376.06982-1.2063.04248-1.79492.07031ZM16.44287,8.87988q-.58887.81372-1.48633,2.08936Q14.05859,12.24585,13.106,13.605q-.95435,1.36084-1.80908,2.62207-.85547,1.262-1.332,2.0752H16.499V8.87988Z"/></g></g><g class="8d11414f-1154-4f44-b7c2-80c1e8633543"><g class="8d11414f-1154-4f44-b7c2-80c1e8633543"><path d="M92.251,136.54785q-1.2334,1.73877-2.56641,3.61719-1.33154,1.87939-2.5791,3.64551-1.248,1.7666-2.2998,3.2959-1.05176,1.52783-1.72461,2.59375a4.02863,4.02863,0,0,0-.95312-.14062,3.388,3.388,0,0,0-.89746.14063q.0835-1.85156.13965-4.165.05713-2.313.05664-4.75293v-3.085q-.813,0-1.543.07031-.728.07031-1.20605.1543a3.11446,3.11446,0,0,0,0-1.85059,10.89992,10.89992,0,0,0,1.20605.126q.72949.04248,1.543.042v-1.17773q0-1.09424-.05664-2.25781-.05566-1.16309-.1123-1.83594c.375.03711.78516.05566,1.23438.05566.44824,0,.86035-.01855,1.2334-.05566q-.05566.728-.13965,1.87891-.085,1.14844-.084,2.21484v1.17773q.64453,0,1.86426-.01367,1.22021-.01465,2.55176-.042,1.333-.0293,2.53809-.07031,1.20557-.04248,1.79492-.07031Zm-8.69336,10.57227q.58887-.81445,1.48633-2.08887.89795-1.27734,1.85059-2.63672.95361-1.35937,1.80859-2.62207.85693-1.26123,1.332-2.0752H83.502v9.42285Z"/></g></g><g class="464c1a6c-c2f8-4a32-8bb5-a4c90dda032e"><g class="6322c417-06c6-44a3-9981-7668d1ed318d"><path d="M14.85632,39.17836a10.66025,10.66025,0,0,1-2.57369,5.64414.1012.1012,0,0,0,.0742.17025h5.19873a.10119.10119,0,0,0,.0742-.17025,10.66025,10.66025,0,0,1-2.57369-5.64414.101.101,0,0,0-.19975,0"/><path d="M18.227,34.09788c0,2.01109-3.27071,4.57946-3.27071,4.57946s-3.26862-2.56837-3.26862-4.57946a3.47058,3.47058,0,0,1,3.26963-3.64141,3.47059,3.47059,0,0,1,3.2697,3.64141"/><path d="M18.82942,42.07347c-1.89029,0-3.8732-1.39049-3.8732-3.10445s1.98291-3.10249,3.8732-3.10249a3.11835,3.11835,0,1,1,0,6.20693"/><path d="M11.083,35.86652c1.89029,0,3.8732,1.39043,3.8732,3.10445s-1.98291,3.10249-3.8732,3.10249a3.11835,3.11835,0,1,1,0-6.20693"/><path d="M16.36917,37.825a1.41189,1.41189,0,1,1-1.41189-1.41189A1.41193,1.41193,0,0,1,16.36917,37.825"/></g></g><g class="a4cfb7d5-ecfb-499f-a725-7385e01f7f12"><g class="9ad67ec1-79ce-4ea4-8657-902df0dcae92"><path d="M85.14368,116.82164a10.66025,10.66025,0,0,1,2.57369-5.64414.1012.1012,0,0,0-.0742-.17025H82.44444a.10119.10119,0,0,0-.0742.17025,10.66025,10.66025,0,0,1,2.57369,5.64414.101.101,0,0,0,.19975,0"/><path d="M81.773,121.90212c0-2.01109,3.27071-4.57946,3.27071-4.57946s3.26862,2.56837,3.26862,4.57946a3.28864,3.28864,0,1,1-6.53933,0"/><path d="M81.17058,113.92653c1.89029,0,3.8732,1.39049,3.8732,3.10445s-1.98291,3.10249-3.8732,3.10249a3.11835,3.11835,0,1,1,0-6.20693"/><path d="M88.917,120.13348c-1.89029,0-3.8732-1.39043-3.8732-3.10445s1.98291-3.10249,3.8732-3.10249a3.11835,3.11835,0,1,1,0,6.20693"/><path d="M83.63083,118.175a1.41189,1.41189,0,1,1,1.41189,1.41189,1.41193,1.41193,0,0,1-1.41189-1.41189"/></g></g><g class="a9abaf9a-1e09-4ba1-9ac4-e88134040c42"><g class="d03de3d2-4351-48cd-b92f-c7d58b81fcc3"><path d="M34.52065,25.49855a12.12867,12.12867,0,0,1-2.92821,6.42161.11514.11514,0,0,0,.08442.1937h5.91484a.11512.11512,0,0,0,.08443-.1937,12.12867,12.12867,0,0,1-2.92821-6.42161.1149.1149,0,0,0-.22727,0"/><path d="M38.35559,19.71826c0,2.28811-3.72124,5.21027-3.72124,5.21027s-3.71886-2.92216-3.71886-5.21027a3.94865,3.94865,0,0,1,3.72-4.143,3.94866,3.94866,0,0,1,3.72009,4.143"/><path d="M39.041,28.79245c-2.15067,0-4.40672-1.582-4.40672-3.53208s2.25605-3.52984,4.40672-3.52984a3.72588,3.72588,0,0,1,3.89405,3.53093,3.72589,3.72589,0,0,1-3.89405,3.531"/><path d="M30.22755,21.73052c2.15067,0,4.40672,1.582,4.40672,3.53208s-2.25605,3.52984-4.40672,3.52984a3.726,3.726,0,0,1-3.89412-3.53093,3.726,3.726,0,0,1,3.89412-3.531"/><path d="M36.24189,23.95881a1.60637,1.60637,0,1,1-1.60637-1.60637,1.60642,1.60642,0,0,1,1.60637,1.60637"/></g></g><g class="20350d4b-2904-41d4-b3de-cb0cf61e4f76"><g class="3f6088cf-5e32-4bb9-b278-32134a131604"><path d="M65.47935,125.88288a12.12867,12.12867,0,0,1,2.92821-6.42161.11514.11514,0,0,0-.08442-.1937H62.40829a.11512.11512,0,0,0-.08443.1937,12.12867,12.12867,0,0,1,2.92821,6.42161.1149.1149,0,0,0,.22727,0"/><path d="M61.64441,131.66317c0-2.28811,3.72124-5.21027,3.72124-5.21027s3.71886,2.92216,3.71886,5.21027a3.74164,3.74164,0,1,1-7.4401,0"/><path d="M60.959,122.589c2.15067,0,4.40672,1.582,4.40672,3.53208s-2.25605,3.52984-4.40672,3.52984a3.54789,3.54789,0,1,1,0-7.06192"/><path d="M69.77245,129.65091c-2.15067,0-4.40672-1.582-4.40672-3.53208s2.25605-3.52984,4.40672-3.52984a3.5479,3.5479,0,1,1,0,7.06192"/><path d="M63.75812,127.42262a1.60637,1.60637,0,1,1,1.60637,1.60637,1.60642,1.60642,0,0,1-1.60637-1.60637"/></g></g><g class="a2f09242-aba9-4c09-b728-b67d268fd2cc"><g class="3308312d-7701-4ada-b1b7-1ee030ca8373"><path d="M65.25214,25.49855a12.12867,12.12867,0,0,1-2.92821,6.42161.11514.11514,0,0,0,.08442.1937h5.91484a.11512.11512,0,0,0,.08443-.1937,12.12867,12.12867,0,0,1-2.92821-6.42161.1149.1149,0,0,0-.22727,0"/><path d="M69.08707,19.71826c0,2.28811-3.72124,5.21027-3.72124,5.21027S61.647,22.00637,61.647,19.71826a3.74164,3.74164,0,1,1,7.4401,0"/><path d="M69.77252,28.79245c-2.15067,0-4.40672-1.582-4.40672-3.53208s2.25605-3.52984,4.40672-3.52984a3.72588,3.72588,0,0,1,3.89405,3.53093,3.72589,3.72589,0,0,1-3.89405,3.531"/><path d="M60.959,21.73052c2.15067,0,4.40672,1.582,4.40672,3.53208S63.1097,28.79244,60.959,28.79244a3.726,3.726,0,0,1-3.89412-3.53093,3.726,3.726,0,0,1,3.89412-3.531"/><path d="M66.97337,23.95881A1.60637,1.60637,0,1,1,65.367,22.35244a1.60642,1.60642,0,0,1,1.60637,1.60637"/></g></g><g class="800303c7-687d-47dc-b570-0009dd4716c7"><g class="ec55bf84-02b2-4f54-b3d6-3bc71df598cd"><path d="M34.74786,125.88288a12.12867,12.12867,0,0,1,2.92821-6.42161.11514.11514,0,0,0-.08442-.1937H31.67681a.11512.11512,0,0,0-.08443.1937,12.12867,12.12867,0,0,1,2.92821,6.42161.1149.1149,0,0,0,.22727,0"/><path d="M30.91293,131.66317c0-2.28811,3.72124-5.21027,3.72124-5.21027s3.71886,2.92216,3.71886,5.21027a3.94865,3.94865,0,0,1-3.72,4.143,3.94866,3.94866,0,0,1-3.72009-4.143"/><path d="M30.22748,122.589c2.15067,0,4.40672,1.582,4.40672,3.53208s-2.25605,3.52984-4.40672,3.52984a3.54789,3.54789,0,1,1,0-7.06192"/><path d="M39.041,129.65091c-2.15067,0-4.40672-1.582-4.40672-3.53208S36.8903,122.589,39.041,122.589a3.5479,3.5479,0,1,1,0,7.06192"/><path d="M33.02663,127.42262A1.60637,1.60637,0,1,1,34.633,129.029a1.60642,1.60642,0,0,1-1.60637-1.60637"/></g></g></svg>