<svg id="e5c84db4-e404-428a-b5bf-f15f68dc7953" data-name="レイヤー 1" xmlns="http://www.w3.org/2000/svg" xmlns:xlink="http://www.w3.org/1999/xlink" viewBox="0 0 100 156"><defs><style>.\39 61343fa-968b-47e4-85f7-01757b3c949d{fill:none;}.\31 086e448-9fbc-4873-b17d-3e7ca1e8f888{fill:#fff;}.e54b9e7e-31fb-48de-8027-90c0d6695d0e{fill:#7f7f7f;}.\37 7231c27-a647-4c80-b4a2-0638cdb8e4fd{clip-path:url(#b749108c-68a7-4e31-be34-ae74527b2731);}.a8222b84-5367-4ca0-bf60-be4472b8b9ee{clip-path:url(#902bbd51-15f3-41c4-a81e-f7b7719251d3);}.\38 baaebfb-9269-44eb-89e7-953331a6926e{clip-path:url(#9649d8c6-1391-4b23-a7a5-c837313c4b41);}.bd67cb44-17fd-493e-8992-a69122f24905{clip-path:url(#a35b20e3-32bd-4847-a108-d615690e4da5);}.f9cce32c-7897-448b-ad45-dac2de2a6a6b{clip-path:url(#fb1651d6-b24f-4a27-ba1a-7d1e086707c9);}.e91b66b2-d4a1-4fe2-904e-000131dc4884{clip-path:url(#3e82b84a-840b-42cf-b4f6-3ee3a79655f7);}.\36 0c3702c-2360-4474-b1be-48658a38b97a{clip-path:url(#7d7de067-d3a1-4301-8b6f-cca5673f287b);}.cdb3688a-079e-47f5-b885-dda6980d692f{clip-path:url(#1579ead4-798a-42e1-b902-621e7549f23a);}.\33 727ab36-d5bf-4074-86d2-6ccea6c08ccc{clip-path:url(#e9fe67d4-0cf0-4a9f-bf5f-c3a7e8a7d292);}.\33 5634548-f92b-4ca1-b107-e2eb0e09b47f{clip-path:url(#406f04f6-ba53-4e73-bd52-81fe9fa20ed3);}.\38 e97b393-33e2-42a4-ad8a-0ed0eafeb697{clip-path:url(#60e9b629-854a-4171-b758-f8d7d993542f);}.\30 ff985aa-7d2e-4619-90ef-30f5153098c8{clip-path:url(#3586026b-d6b4-464c-86fc-216374796a7c);}.d1cba575-5744-48a2-9e70-5bee715d3d67{clip-path:url(#2e5bb748-ff5e-4048-9b3d-87c33703baf5);}.\30 5943e8e-a861-4d80-ad93-75b582e1d9db{clip-path:url(#0d97ce7b-70de-4d51-8652-10894e2a1748);}.\37 915f8c5-31ba-4f97-806c-f8fb730cf44a{clip-path:url(#522772cf-9205-4fdd-a73e-fb83bd7c9d2c);}.\30 f9360ec-2a38-4646-9571-a55e467352d8{clip-path:url(#ef465728-0abd-4541-a6f0-717bc7d78f7f);}.b3151490-7a9f-459d-937f-b6f97d559e9b{clip-path:url(#c250186d-8cd5-482c-80c5-da764221ca3e);}.\31 7e73e2f-fcb1-4d45-9aab-ee5e917016cd{clip-path:url(#6fcf9c97-7b1d-4caa-a603-c8684ee44a43);}.c16f82bd-bcde-4105-ab91-36c878b3e26e{clip-path:url(#62f5f1dc-e996-4cdc-8c3d-98511d7e6b41);}.\38 ca3f39f-550d-4008-b7d4-6a01564d0ea6{clip-path:url(#a06afb0f-f1af-4ccf-900c-680a13b2becc);}</style><clipPath id="b749108c-68a7-4e31-be34-ae74527b2731"><rect class="961343fa-968b-47e4-85f7-01757b3c949d" width="29.91235" height="29.91235"/></clipPath><clipPath id="902bbd51-15f3-41c4-a81e-f7b7719251d3"><rect class="961343fa-968b-47e4-85f7-01757b3c949d" x="70.08765" y="126.08765" width="29.91235" height="29.91235"/></clipPath><clipPath id="9649d8c6-1391-4b23-a7a5-c837313c4b41"><rect class="961343fa-968b-47e4-85f7-01757b3c949d" x="7.66032" y="30.45647" width="14.5917" height="14.53628"/></clipPath><clipPath id="a35b20e3-32bd-4847-a108-d615690e4da5"><rect class="961343fa-968b-47e4-85f7-01757b3c949d" x="6.8531" y="29.72091" width="16.20824" height="16.20824"/></clipPath><clipPath id="fb1651d6-b24f-4a27-ba1a-7d1e086707c9"><rect class="961343fa-968b-47e4-85f7-01757b3c949d" x="77.74798" y="111.00725" width="14.5917" height="14.53628"/></clipPath><clipPath id="3e82b84a-840b-42cf-b4f6-3ee3a79655f7"><rect class="961343fa-968b-47e4-85f7-01757b3c949d" x="76.93865" y="110.07085" width="16.20824" height="16.20824"/></clipPath><clipPath id="7d7de067-d3a1-4301-8b6f-cca5673f287b"><rect class="961343fa-968b-47e4-85f7-01757b3c949d" x="26.33343" y="15.57525" width="16.60167" height="16.53861"/></clipPath><clipPath id="1579ead4-798a-42e1-b902-621e7549f23a"><rect class="961343fa-968b-47e4-85f7-01757b3c949d" x="25.41501" y="14.73837" width="18.44088" height="18.44088"/></clipPath><clipPath id="e9fe67d4-0cf0-4a9f-bf5f-c3a7e8a7d292"><rect class="961343fa-968b-47e4-85f7-01757b3c949d" x="26.33343" y="67.42141" width="16.60167" height="16.53861"/></clipPath><clipPath id="406f04f6-ba53-4e73-bd52-81fe9fa20ed3"><rect class="961343fa-968b-47e4-85f7-01757b3c949d" x="25.41501" y="66.58453" width="18.44088" height="18.44088"/></clipPath><clipPath id="60e9b629-854a-4171-b758-f8d7d993542f"><rect class="961343fa-968b-47e4-85f7-01757b3c949d" x="57.06491" y="119.26757" width="16.60167" height="16.53861"/></clipPath><clipPath id="3586026b-d6b4-464c-86fc-216374796a7c"><rect class="961343fa-968b-47e4-85f7-01757b3c949d" x="56.1441" y="118.20218" width="18.44088" height="18.44088"/></clipPath><clipPath id="2e5bb748-ff5e-4048-9b3d-87c33703baf5"><rect class="961343fa-968b-47e4-85f7-01757b3c949d" x="41.69959" y="41.49789" width="16.60167" height="16.53861"/></clipPath><clipPath id="0d97ce7b-70de-4d51-8652-10894e2a1748"><rect class="961343fa-968b-47e4-85f7-01757b3c949d" x="40.78118" y="40.66101" width="18.44088" height="18.44088"/></clipPath><clipPath id="522772cf-9205-4fdd-a73e-fb83bd7c9d2c"><rect class="961343fa-968b-47e4-85f7-01757b3c949d" x="57.06491" y="15.57525" width="16.60167" height="16.53861"/></clipPath><clipPath id="ef465728-0abd-4541-a6f0-717bc7d78f7f"><rect class="961343fa-968b-47e4-85f7-01757b3c949d" x="56.1465" y="14.73837" width="18.44088" height="18.44088"/></clipPath><clipPath id="c250186d-8cd5-482c-80c5-da764221ca3e"><rect class="961343fa-968b-47e4-85f7-01757b3c949d" x="57.06491" y="67.42141" width="16.60167" height="16.53861"/></clipPath><clipPath id="6fcf9c97-7b1d-4caa-a603-c8684ee44a43"><rect class="961343fa-968b-47e4-85f7-01757b3c949d" x="56.1465" y="66.58453" width="18.44088" height="18.44088"/></clipPath><clipPath id="62f5f1dc-e996-4cdc-8c3d-98511d7e6b41"><rect class="961343fa-968b-47e4-85f7-01757b3c949d" x="26.33343" y="119.26757" width="16.60167" height="16.53861"/></clipPath><clipPath id="a06afb0f-f1af-4ccf-900c-680a13b2becc"><rect class="961343fa-968b-47e4-85f7-01757b3c949d" x="25.41262" y="118.20218" width="18.44088" height="18.44088"/></clipPath></defs><title>7</title><rect class="1086e448-9fbc-4873-b17d-3e7ca1e8f888" x="0.5" y="0.5" width="99" height="155" rx="5.5" ry="5.5"/><path class="e54b9e7e-31fb-48de-8027-90c0d6695d0e" d="M94,1a5.00567,5.00567,0,0,1,5,5V150a5.00567,5.00567,0,0,1-5,5H6a5.00567,5.00567,0,0,1-5-5V6A5.00567,5.00567,0,0,1,6,1H94m0-1H6A6,6,0,0,0,0,6V150a6,6,0,0,0,6,6H94a6,6,0,0,0,6-6V6a6,6,0,0,0-6-6Z"/><g class="77231c27-a647-4c80-b4a2-0638cdb8e4fd"><g class="77231c27-a647-4c80-b4a2-0638cdb8e4fd"><path d="M16.23242,15.93262q-2.59424,4.61353-4.89355,9.1001a8.69281,8.69281,0,0,0-1.06543-.05615,8.60484,8.60484,0,0,0-1.00977.05615q1.31836-2.04712,2.76221-4.417,1.44434-2.36938,2.79053-4.627,1.34619-2.25659,2.49561-4.22021,1.1499-1.96289,1.87891-3.25293-1.262,0-3.71582.02783-2.45361.02856-6.0708.25244a6.50937,6.50937,0,0,0,.11182-1.26221A6.35528,6.35528,0,0,0,9.4043,6.2998q1.17773.08423,2.08887.14063t1.69678.084q.64453,0,1.78076.02783,1.13525.02856,2.20117.02832h1.31787q.86938,0,1.51465-.01416.64453-.01392,1.374-.01416V7.001Q18.82593,11.32007,16.23242,15.93262Z"/></g></g><g class="a8222b84-5367-4ca0-bf60-be4472b8b9ee"><g class="a8222b84-5367-4ca0-bf60-be4472b8b9ee"><path d="M83.76758,140.06738q2.59424-4.61279,4.89355-9.09961a8.82406,8.82406,0,0,0,1.06641.05566,8.70408,8.70408,0,0,0,1.00879-.05566q-1.31689,2.04639-2.76172,4.416-1.44434,2.37012-2.79,4.627-1.34619,2.25732-2.49609,4.2207-1.1499,1.96289-1.87891,3.25293,1.26123,0,3.71582-.02832,2.45361-.02783,6.07129-.252a6.4334,6.4334,0,0,0-.1123,1.26172,6.27282,6.27282,0,0,0,.1123,1.23438q-1.17773-.085-2.08984-.14062-.90967-.05566-1.69629-.084-.64453,0-1.78027-.02832-1.13672-.02783-2.20215-.02734H81.51074q-.86865,0-1.51465.01367-.64453.01318-1.374.01367V148.999Q81.17383,144.68066,83.76758,140.06738Z"/></g></g><g class="8baaebfb-9269-44eb-89e7-953331a6926e"><g class="bd67cb44-17fd-493e-8992-a69122f24905"><path d="M14.85632,39.17836a10.66025,10.66025,0,0,1-2.57369,5.64414.1012.1012,0,0,0,.0742.17025h5.19873a.10119.10119,0,0,0,.0742-.17025,10.66025,10.66025,0,0,1-2.57369-5.64414.101.101,0,0,0-.19975,0"/><path d="M18.227,34.09788c0,2.01109-3.27071,4.57946-3.27071,4.57946s-3.26862-2.56837-3.26862-4.57946a3.47058,3.47058,0,0,1,3.26963-3.64141,3.47059,3.47059,0,0,1,3.2697,3.64141"/><path d="M18.82942,42.07347c-1.89029,0-3.8732-1.39049-3.8732-3.10445s1.98291-3.10249,3.8732-3.10249a3.11835,3.11835,0,1,1,0,6.20693"/><path d="M11.083,35.86652c1.89029,0,3.8732,1.39043,3.8732,3.10445s-1.98291,3.10249-3.8732,3.10249a3.11835,3.11835,0,1,1,0-6.20693"/><path d="M16.36917,37.825a1.41189,1.41189,0,1,1-1.41189-1.41189A1.41193,1.41193,0,0,1,16.36917,37.825"/></g></g><g class="f9cce32c-7897-448b-ad45-dac2de2a6a6b"><g class="e91b66b2-d4a1-4fe2-904e-000131dc4884"><path d="M85.14368,116.82164a10.66025,10.66025,0,0,1,2.57369-5.64414.1012.1012,0,0,0-.0742-.17025H82.44444a.10119.10119,0,0,0-.0742.17025,10.66025,10.66025,0,0,1,2.57369,5.64414.101.101,0,0,0,.19975,0"/><path d="M81.773,121.90212c0-2.01109,3.27071-4.57946,3.27071-4.57946s3.26862,2.56837,3.26862,4.57946a3.28864,3.28864,0,1,1-6.53933,0"/><path d="M81.17058,113.92653c1.89029,0,3.8732,1.39049,3.8732,3.10445s-1.98291,3.10249-3.8732,3.10249a3.11835,3.11835,0,1,1,0-6.20693"/><path d="M88.917,120.13348c-1.89029,0-3.8732-1.39043-3.8732-3.10445s1.98291-3.10249,3.8732-3.10249a3.11835,3.11835,0,1,1,0,6.20693"/><path d="M83.63083,118.175a1.41189,1.41189,0,1,1,1.41189,1.41189,1.41193,1.41193,0,0,1-1.41189-1.41189"/></g></g><g class="60c3702c-2360-4474-b1be-48658a38b97a"><g class="cdb3688a-079e-47f5-b885-dda6980d692f"><path d="M34.52065,25.49855a12.12867,12.12867,0,0,1-2.92821,6.42161.11514.11514,0,0,0,.08442.1937h5.91484a.11512.11512,0,0,0,.08443-.1937,12.12867,12.12867,0,0,1-2.92821-6.42161.1149.1149,0,0,0-.22727,0"/><path d="M38.35559,19.71826c0,2.28811-3.72124,5.21027-3.72124,5.21027s-3.71886-2.92216-3.71886-5.21027a3.94865,3.94865,0,0,1,3.72-4.143,3.94866,3.94866,0,0,1,3.72009,4.143"/><path d="M39.041,28.79245c-2.15067,0-4.40672-1.582-4.40672-3.53208s2.25605-3.52984,4.40672-3.52984a3.72588,3.72588,0,0,1,3.89405,3.53093,3.72589,3.72589,0,0,1-3.89405,3.531"/><path d="M30.22755,21.73052c2.15067,0,4.40672,1.582,4.40672,3.53208s-2.25605,3.52984-4.40672,3.52984a3.726,3.726,0,0,1-3.89412-3.53093,3.726,3.726,0,0,1,3.89412-3.531"/><path d="M36.24189,23.95881a1.60637,1.60637,0,1,1-1.60637-1.60637,1.60642,1.60642,0,0,1,1.60637,1.60637"/></g></g><g class="3727ab36-d5bf-4074-86d2-6ccea6c08ccc"><g class="35634548-f92b-4ca1-b107-e2eb0e09b47f"><path d="M34.52065,77.34471a12.12867,12.12867,0,0,1-2.92821,6.42161.11514.11514,0,0,0,.08442.1937h5.91484a.11512.11512,0,0,0,.08443-.1937,12.12867,12.12867,0,0,1-2.92821-6.42161.1149.1149,0,0,0-.22727,0"/><path d="M38.35559,71.56442c0,2.28811-3.72124,5.21027-3.72124,5.21027s-3.71886-2.92216-3.71886-5.21027a3.94865,3.94865,0,0,1,3.72-4.143,3.94866,3.94866,0,0,1,3.72009,4.143"/><path d="M39.041,80.63861c-2.15067,0-4.40672-1.582-4.40672-3.53208s2.25605-3.52984,4.40672-3.52984a3.54789,3.54789,0,1,1,0,7.06192"/><path d="M30.22755,73.57668c2.15067,0,4.40672,1.582,4.40672,3.53208s-2.25605,3.52984-4.40672,3.52984a3.5479,3.5479,0,1,1,0-7.06192"/><path d="M36.24189,75.805a1.60637,1.60637,0,1,1-1.60637-1.60637A1.60642,1.60642,0,0,1,36.24189,75.805"/></g></g><g class="8e97b393-33e2-42a4-ad8a-0ed0eafeb697"><g class="0ff985aa-7d2e-4619-90ef-30f5153098c8"><path d="M65.47935,125.88288a12.12867,12.12867,0,0,1,2.92821-6.42161.11514.11514,0,0,0-.08442-.1937H62.40829a.11512.11512,0,0,0-.08443.1937,12.12867,12.12867,0,0,1,2.92821,6.42161.1149.1149,0,0,0,.22727,0"/><path d="M61.64441,131.66317c0-2.28811,3.72124-5.21027,3.72124-5.21027s3.71886,2.92216,3.71886,5.21027a3.74164,3.74164,0,1,1-7.4401,0"/><path d="M60.959,122.589c2.15067,0,4.40672,1.582,4.40672,3.53208s-2.25605,3.52984-4.40672,3.52984a3.54789,3.54789,0,1,1,0-7.06192"/><path d="M69.77245,129.65091c-2.15067,0-4.40672-1.582-4.40672-3.53208s2.25605-3.52984,4.40672-3.52984a3.5479,3.5479,0,1,1,0,7.06192"/><path d="M63.75812,127.42262a1.60637,1.60637,0,1,1,1.60637,1.60637,1.60642,1.60642,0,0,1-1.60637-1.60637"/></g></g><g class="d1cba575-5744-48a2-9e70-5bee715d3d67"><g class="05943e8e-a861-4d80-ad93-75b582e1d9db"><path d="M49.88682,51.42119a12.12867,12.12867,0,0,1-2.92821,6.42161.11514.11514,0,0,0,.08442.1937h5.91484a.11512.11512,0,0,0,.08443-.1937,12.12867,12.12867,0,0,1-2.92821-6.42161.1149.1149,0,0,0-.22727,0"/><path d="M53.72175,45.6409c0,2.28811-3.72124,5.21027-3.72124,5.21027S46.28165,47.929,46.28165,45.6409a3.74164,3.74164,0,1,1,7.4401,0"/><path d="M54.40721,54.71509c-2.15067,0-4.40672-1.582-4.40672-3.53208s2.25605-3.52984,4.40672-3.52984a3.54789,3.54789,0,1,1,0,7.06192"/><path d="M45.59372,47.65316c2.15067,0,4.40672,1.582,4.40672,3.53208s-2.25605,3.52984-4.40672,3.52984a3.5479,3.5479,0,1,1,0-7.06192"/><path d="M51.60805,49.88145a1.60637,1.60637,0,1,1-1.60637-1.60637,1.60642,1.60642,0,0,1,1.60637,1.60637"/></g></g><g class="7915f8c5-31ba-4f97-806c-f8fb730cf44a"><g class="0f9360ec-2a38-4646-9571-a55e467352d8"><path d="M65.25214,25.49855a12.12867,12.12867,0,0,1-2.92821,6.42161.11514.11514,0,0,0,.08442.1937h5.91484a.11512.11512,0,0,0,.08443-.1937,12.12867,12.12867,0,0,1-2.92821-6.42161.1149.1149,0,0,0-.22727,0"/><path d="M69.08707,19.71826c0,2.28811-3.72124,5.21027-3.72124,5.21027S61.647,22.00637,61.647,19.71826a3.74164,3.74164,0,1,1,7.4401,0"/><path d="M69.77252,28.79245c-2.15067,0-4.40672-1.582-4.40672-3.53208s2.25605-3.52984,4.40672-3.52984a3.72588,3.72588,0,0,1,3.89405,3.53093,3.72589,3.72589,0,0,1-3.89405,3.531"/><path d="M60.959,21.73052c2.15067,0,4.40672,1.582,4.40672,3.53208S63.1097,28.79244,60.959,28.79244a3.726,3.726,0,0,1-3.89412-3.53093,3.726,3.726,0,0,1,3.89412-3.531"/><path d="M66.97337,23.95881A1.60637,1.60637,0,1,1,65.367,22.35244a1.60642,1.60642,0,0,1,1.60637,1.60637"/></g></g><g class="b3151490-7a9f-459d-937f-b6f97d559e9b"><g class="17e73e2f-fcb1-4d45-9aab-ee5e917016cd"><path d="M65.25214,77.34471a12.12867,12.12867,0,0,1-2.92821,6.42161.11514.11514,0,0,0,.08442.1937h5.91484a.11512.11512,0,0,0,.08443-.1937,12.12867,12.12867,0,0,1-2.92821-6.42161.1149.1149,0,0,0-.22727,0"/><path d="M69.08707,71.56442c0,2.28811-3.72124,5.21027-3.72124,5.21027S61.647,73.85253,61.647,71.56442a3.74164,3.74164,0,1,1,7.4401,0"/><path d="M69.77252,80.63861c-2.15067,0-4.40672-1.582-4.40672-3.53208s2.25605-3.52984,4.40672-3.52984a3.54789,3.54789,0,1,1,0,7.06192"/><path d="M60.959,73.57668c2.15067,0,4.40672,1.582,4.40672,3.53208S63.1097,80.6386,60.959,80.6386a3.5479,3.5479,0,1,1,0-7.06192"/><path d="M66.97337,75.805A1.60637,1.60637,0,1,1,65.367,74.1986,1.60642,1.60642,0,0,1,66.97337,75.805"/></g></g><g class="c16f82bd-bcde-4105-ab91-36c878b3e26e"><g class="8ca3f39f-550d-4008-b7d4-6a01564d0ea6"><path d="M34.74786,125.88288a12.12867,12.12867,0,0,1,2.92821-6.42161.11514.11514,0,0,0-.08442-.1937H31.67681a.11512.11512,0,0,0-.08443.1937,12.12867,12.12867,0,0,1,2.92821,6.42161.1149.1149,0,0,0,.22727,0"/><path d="M30.91293,131.66317c0-2.28811,3.72124-5.21027,3.72124-5.21027s3.71886,2.92216,3.71886,5.21027a3.94865,3.94865,0,0,1-3.72,4.143,3.94866,3.94866,0,0,1-3.72009-4.143"/><path d="M30.22748,122.589c2.15067,0,4.40672,1.582,4.40672,3.53208s-2.25605,3.52984-4.40672,3.52984a3.54789,3.54789,0,1,1,0-7.06192"/><path d="M39.041,129.65091c-2.15067,0-4.40672-1.582-4.40672-3.53208S36.8903,122.589,39.041,122.589a3.5479,3.5479,0,1,1,0,7.06192"/><path d="M33.02663,127.42262A1.60637,1.60637,0,1,1,34.633,129.029a1.60642,1.60642,0,0,1-1.60637-1.60637"/></g></g></svg>