<svg id="169550f6-b332-43cd-acf6-afe897619f83" data-name="レイヤー 1" xmlns="http://www.w3.org/2000/svg" xmlns:xlink="http://www.w3.org/1999/xlink" viewBox="0 0 100 156"><defs><style>.be20d1b6-56cf-4368-9360-a11f2fa3711f{fill:none;}.\33 bda6868-38c1-4552-b6eb-affb2c0706cf{fill:#fff;}.fe353bca-e03c-42ef-9478-af3c3f392df6{fill:#7f7f7f;}.b4542aba-4b3e-4515-bf8f-c4ccebe77a81{clip-path:url(#a3fdaa01-d352-4c4e-acf3-44aac8d3dc16);}.\39 40bf93c-0724-4b62-87a0-9ddd3f502af6{clip-path:url(#64f30d60-2c1a-4286-b17e-eaa81507a5d1);}.\39 57e8d40-66cb-4277-bcdf-7d4fe74c68fb{clip-path:url(#be2e72a8-ee7a-4f23-aa1a-5e8ca0903a59);}.aecd6380-e540-4e40-9f7f-207da7939fdd{clip-path:url(#fa6aef4d-d64d-43f3-bf1d-29b4cfe71103);}.\31 14d7f4d-13b4-42f7-8855-3255ed728dab{clip-path:url(#d9fec525-a486-4f9e-bdd0-27f21c57c08a);}.c9cdd901-5098-42af-8000-e16223ffeeee{clip-path:url(#ae1e051e-aa5b-4857-bdd3-b332e98b8767);}.fb64c9ae-d69e-401c-8f1b-e9cab08de89e{clip-path:url(#f8474ff3-06c4-4320-b51d-83d5d67c56b3);}.\30 793f27a-8a03-46d1-9f88-12625562de6d{clip-path:url(#a105ebb7-e030-4f6f-803c-a4229aaefc14);}.\36 0209dd4-966f-401a-9c8d-02215908ff2a{clip-path:url(#7a1965a0-ffaa-48d4-a14f-c88367d5b485);}.ae5e2515-1f9c-4424-92c8-0c1093fef6fb{clip-path:url(#cad72661-fc10-4556-9b28-39e8d3a466bc);}.d62f090b-1e37-4382-adf9-e5c317f986de{clip-path:url(#a6218e49-367b-4c4f-9ba2-b1bc13f13109);}.\37 96f6e3b-e108-48e9-a790-0972835c4953{clip-path:url(#41f52f6b-0cc1-422a-a7a4-bb0bc38508d3);}.f1e28907-8bd7-4579-aeae-7a1120e6871c{clip-path:url(#a3bb84c3-590c-4118-a944-23a868a17775);}.\39 a79d3be-8cb2-405e-9f60-81bb5ff6a4b0{clip-path:url(#4222489d-9b1a-4f80-862c-976f66ce58e1);}.\37 be8febf-cfc2-4192-b414-a33d5a8494c4{clip-path:url(#cdeca213-79db-45a1-901b-0a994921d97f);}.ba45e86f-b210-4488-a7ea-9784b38ecfdd{clip-path:url(#265286de-066b-4247-951b-2ded93dc9b18);}.\30 cbfc002-cfbf-4883-a358-ce0c02e97ebc{clip-path:url(#663ab68e-f3de-44e6-a255-2c4e8abf07c4);}.\37 8a0a8ca-a3d9-4c93-900c-a19962e578c2{clip-path:url(#a2b768ef-3091-4200-b0c0-a712192c1b44);}.a400a0df-cd09-40ca-aaf8-05758c514c12{clip-path:url(#3cc9eb28-8e49-4d0a-838c-ed247ba1d5d0);}.\33 6fb3d16-573f-47e0-aaff-bcaabdf45da9{clip-path:url(#0bcfb262-4b8e-4be6-9fb1-5eb282543125);}.a9be9f13-6c97-49ac-b339-f52635ebb5e5{clip-path:url(#6494eca0-bfa8-4e39-bfd4-a82f4f64dc48);}.\35 1fd56bd-7a4b-4f44-94d8-019dfbff3c1b{clip-path:url(#35cc974b-70a8-4275-a12f-f2e872692633);}.a7a7d4df-c44f-4b16-bb98-adf9cf731ef1{clip-path:url(#cdfbc824-a458-40de-9904-6215134ce492);}.\31 1d878b8-e591-455a-9135-021a880179c0{clip-path:url(#39ba5a85-d73e-41c6-99d4-6c38b661cfae);}</style><clipPath id="a3fdaa01-d352-4c4e-acf3-44aac8d3dc16"><rect class="be20d1b6-56cf-4368-9360-a11f2fa3711f" width="29.91235" height="29.91235"/></clipPath><clipPath id="64f30d60-2c1a-4286-b17e-eaa81507a5d1"><rect class="be20d1b6-56cf-4368-9360-a11f2fa3711f" x="70.08765" y="126.08765" width="29.91235" height="29.91235"/></clipPath><clipPath id="be2e72a8-ee7a-4f23-aa1a-5e8ca0903a59"><rect class="be20d1b6-56cf-4368-9360-a11f2fa3711f" x="7.66032" y="30.45647" width="14.5917" height="14.53628"/></clipPath><clipPath id="fa6aef4d-d64d-43f3-bf1d-29b4cfe71103"><rect class="be20d1b6-56cf-4368-9360-a11f2fa3711f" x="6.8531" y="29.72091" width="16.20824" height="16.20824"/></clipPath><clipPath id="d9fec525-a486-4f9e-bdd0-27f21c57c08a"><rect class="be20d1b6-56cf-4368-9360-a11f2fa3711f" x="77.74798" y="111.00725" width="14.5917" height="14.53628"/></clipPath><clipPath id="ae1e051e-aa5b-4857-bdd3-b332e98b8767"><rect class="be20d1b6-56cf-4368-9360-a11f2fa3711f" x="76.93865" y="110.07085" width="16.20824" height="16.20824"/></clipPath><clipPath id="f8474ff3-06c4-4320-b51d-83d5d67c56b3"><rect class="be20d1b6-56cf-4368-9360-a11f2fa3711f" x="26.33343" y="15.57525" width="16.60167" height="16.53861"/></clipPath><clipPath id="a105ebb7-e030-4f6f-803c-a4229aaefc14"><rect class="be20d1b6-56cf-4368-9360-a11f2fa3711f" x="25.41501" y="14.73837" width="18.44088" height="18.44088"/></clipPath><clipPath id="7a1965a0-ffaa-48d4-a14f-c88367d5b485"><rect class="be20d1b6-56cf-4368-9360-a11f2fa3711f" x="26.33343" y="50.13936" width="16.60167" height="16.53861"/></clipPath><clipPath id="cad72661-fc10-4556-9b28-39e8d3a466bc"><rect class="be20d1b6-56cf-4368-9360-a11f2fa3711f" x="25.41501" y="49.30247" width="18.44088" height="18.44088"/></clipPath><clipPath id="a6218e49-367b-4c4f-9ba2-b1bc13f13109"><rect class="be20d1b6-56cf-4368-9360-a11f2fa3711f" x="57.06491" y="119.26757" width="16.60167" height="16.53861"/></clipPath><clipPath id="41f52f6b-0cc1-422a-a7a4-bb0bc38508d3"><rect class="be20d1b6-56cf-4368-9360-a11f2fa3711f" x="56.1441" y="118.20218" width="18.44088" height="18.44088"/></clipPath><clipPath id="a3bb84c3-590c-4118-a944-23a868a17775"><rect class="be20d1b6-56cf-4368-9360-a11f2fa3711f" x="57.06491" y="84.70346" width="16.60167" height="16.53861"/></clipPath><clipPath id="4222489d-9b1a-4f80-862c-976f66ce58e1"><rect class="be20d1b6-56cf-4368-9360-a11f2fa3711f" x="56.1441" y="83.63807" width="18.44088" height="18.44088"/></clipPath><clipPath id="cdeca213-79db-45a1-901b-0a994921d97f"><rect class="be20d1b6-56cf-4368-9360-a11f2fa3711f" x="57.06491" y="15.57525" width="16.60167" height="16.53861"/></clipPath><clipPath id="265286de-066b-4247-951b-2ded93dc9b18"><rect class="be20d1b6-56cf-4368-9360-a11f2fa3711f" x="56.1465" y="14.73837" width="18.44088" height="18.44088"/></clipPath><clipPath id="663ab68e-f3de-44e6-a255-2c4e8abf07c4"><rect class="be20d1b6-56cf-4368-9360-a11f2fa3711f" x="41.69917" y="67.42141" width="16.60167" height="16.53861"/></clipPath><clipPath id="a2b768ef-3091-4200-b0c0-a712192c1b44"><rect class="be20d1b6-56cf-4368-9360-a11f2fa3711f" x="40.78075" y="66.58453" width="18.44088" height="18.44088"/></clipPath><clipPath id="3cc9eb28-8e49-4d0a-838c-ed247ba1d5d0"><rect class="be20d1b6-56cf-4368-9360-a11f2fa3711f" x="57.06491" y="50.13936" width="16.60167" height="16.53861"/></clipPath><clipPath id="0bcfb262-4b8e-4be6-9fb1-5eb282543125"><rect class="be20d1b6-56cf-4368-9360-a11f2fa3711f" x="56.1465" y="49.30247" width="18.44088" height="18.44088"/></clipPath><clipPath id="6494eca0-bfa8-4e39-bfd4-a82f4f64dc48"><rect class="be20d1b6-56cf-4368-9360-a11f2fa3711f" x="26.33343" y="119.26757" width="16.60167" height="16.53861"/></clipPath><clipPath id="35cc974b-70a8-4275-a12f-f2e872692633"><rect class="be20d1b6-56cf-4368-9360-a11f2fa3711f" x="25.41262" y="118.20218" width="18.44088" height="18.44088"/></clipPath><clipPath id="cdfbc824-a458-40de-9904-6215134ce492"><rect class="be20d1b6-56cf-4368-9360-a11f2fa3711f" x="26.33343" y="84.70346" width="16.60167" height="16.53861"/></clipPath><clipPath id="39ba5a85-d73e-41c6-99d4-6c38b661cfae"><rect class="be20d1b6-56cf-4368-9360-a11f2fa3711f" x="25.41262" y="83.63807" width="18.44088" height="18.44088"/></clipPath></defs><title>9</title><rect class="3bda6868-38c1-4552-b6eb-affb2c0706cf" x="0.5" y="0.5" width="99" height="155" rx="5.5" ry="5.5"/><path class="fe353bca-e03c-42ef-9478-af3c3f392df6" d="M94,1a5.00567,5.00567,0,0,1,5,5V150a5.00567,5.00567,0,0,1-5,5H6a5.00567,5.00567,0,0,1-5-5V6A5.00567,5.00567,0,0,1,6,1H94m0-1H6A6,6,0,0,0,0,6V150a6,6,0,0,0,6,6H94a6,6,0,0,0,6-6V6a6,6,0,0,0-6-6Z"/><g class="b4542aba-4b3e-4515-bf8f-c4ccebe77a81"><g class="b4542aba-4b3e-4515-bf8f-c4ccebe77a81"><path d="M10.1333,23.37793a4.7757,4.7757,0,0,0,1.29.84131,3.63992,3.63992,0,0,0,1.48633.30859,4.09208,4.09208,0,0,0,2.59375-.84131,6.24624,6.24624,0,0,0,1.75244-2.20117,11.85619,11.85619,0,0,0,.99561-3.043,17.84822,17.84822,0,0,0,.32275-3.36475h-.05615a5.28811,5.28811,0,0,1-1.75293,1.90674,4.97311,4.97311,0,0,1-2.79.729A5.39713,5.39713,0,0,1,9.979,16.269a5.594,5.594,0,0,1-1.44434-4.13623,6.3913,6.3913,0,0,1,.43457-2.3833,5.4306,5.4306,0,0,1,1.248-1.89307,5.9028,5.9028,0,0,1,1.96289-1.26172,6.855,6.855,0,0,1,2.58008-.46289,6.6525,6.6525,0,0,1,2.39746.43457,5.04227,5.04227,0,0,1,1.99121,1.40234,7.23282,7.23282,0,0,1,1.374,2.49561,11.74993,11.74993,0,0,1,.519,3.74365,16.48994,16.48994,0,0,1-.561,4.375,11.33165,11.33165,0,0,1-1.62646,3.561A7.69246,7.69246,0,0,1,16.26074,24.5a7.12666,7.12666,0,0,1-3.4917.84131,6.31522,6.31522,0,0,1-1.31787-.12646,7.21144,7.21144,0,0,1-.89746-.23828q-.08423-.30835-.23828-.75732a5.03451,5.03451,0,0,0-.32227-.75684Zm8.32861-11.97412A4.74322,4.74322,0,0,0,17.43848,8.249,3.35735,3.35735,0,0,0,14.73242,7.0293a3.22427,3.22427,0,0,0-2.70654,1.35986,6.09871,6.09871,0,0,0-1.02344,3.74365,5.26185,5.26185,0,0,0,.92529,3.4917,3.19114,3.19114,0,0,0,2.52393,1.05127,3.26976,3.26976,0,0,0,1.72461-.44873,4.04762,4.04762,0,0,0,1.248-1.17773,5.55838,5.55838,0,0,0,.771-1.68262A7.25326,7.25326,0,0,0,18.46191,11.40381Z"/></g></g><g class="940bf93c-0724-4b62-87a0-9ddd3f502af6"><g class="940bf93c-0724-4b62-87a0-9ddd3f502af6"><path d="M89.86719,132.62207a4.7891,4.7891,0,0,0-1.29-.8418,3.64159,3.64159,0,0,0-1.48633-.30859,4.09433,4.09433,0,0,0-2.59375.8418,6.24843,6.24843,0,0,0-1.75293,2.20117,11.86844,11.86844,0,0,0-.99512,3.043,17.84489,17.84489,0,0,0-.32227,3.36523h.05566a5.29783,5.29783,0,0,1,1.75293-1.90723,4.971,4.971,0,0,1,2.79-.72949,5.4006,5.4006,0,0,1,3.99609,1.44434,5.59792,5.59792,0,0,1,1.44434,4.13672,6.39569,6.39569,0,0,1-.43457,2.38379,5.44893,5.44893,0,0,1-1.248,1.89258,5.9028,5.9028,0,0,1-1.96289,1.26172,6.85674,6.85674,0,0,1-2.58008.46289,6.644,6.644,0,0,1-2.39746-.43457,5.03392,5.03392,0,0,1-1.99121-1.40234,7.21379,7.21379,0,0,1-1.374-2.49609A11.74568,11.74568,0,0,1,78.959,141.792a16.4901,16.4901,0,0,1,.56055-4.375,11.35483,11.35483,0,0,1,1.626-3.56152A7.69892,7.69892,0,0,1,83.74023,131.5a7.12186,7.12186,0,0,1,3.49121-.84082,6.31206,6.31206,0,0,1,1.31738.126,7.27489,7.27489,0,0,1,.89746.23828c.05664.20508.13574.458.23828.75684a5.06643,5.06643,0,0,0,.32324.75781ZM81.53906,144.5957A4.742,4.742,0,0,0,82.5625,147.751a3.35668,3.35668,0,0,0,2.70605,1.21973,3.22384,3.22384,0,0,0,2.70605-1.36035,6.09519,6.09519,0,0,0,1.02344-3.74316,5.25653,5.25653,0,0,0-.92578-3.49121,3.1875,3.1875,0,0,0-2.52344-1.05176,3.2728,3.2728,0,0,0-1.72461.44824,4.053,4.053,0,0,0-1.248,1.17773,5.55287,5.55287,0,0,0-.77148,1.68262A7.29378,7.29378,0,0,0,81.53906,144.5957Z"/></g></g><g class="957e8d40-66cb-4277-bcdf-7d4fe74c68fb"><g class="aecd6380-e540-4e40-9f7f-207da7939fdd"><path d="M14.85632,39.17836a10.66025,10.66025,0,0,1-2.57369,5.64414.1012.1012,0,0,0,.0742.17025h5.19873a.10119.10119,0,0,0,.0742-.17025,10.66025,10.66025,0,0,1-2.57369-5.64414.101.101,0,0,0-.19975,0"/><path d="M18.227,34.09788c0,2.01109-3.27071,4.57946-3.27071,4.57946s-3.26862-2.56837-3.26862-4.57946a3.47058,3.47058,0,0,1,3.26963-3.64141,3.47059,3.47059,0,0,1,3.2697,3.64141"/><path d="M18.82942,42.07347c-1.89029,0-3.8732-1.39049-3.8732-3.10445s1.98291-3.10249,3.8732-3.10249a3.11835,3.11835,0,1,1,0,6.20693"/><path d="M11.083,35.86652c1.89029,0,3.8732,1.39043,3.8732,3.10445s-1.98291,3.10249-3.8732,3.10249a3.11835,3.11835,0,1,1,0-6.20693"/><path d="M16.36917,37.825a1.41189,1.41189,0,1,1-1.41189-1.41189A1.41193,1.41193,0,0,1,16.36917,37.825"/></g></g><g class="114d7f4d-13b4-42f7-8855-3255ed728dab"><g class="c9cdd901-5098-42af-8000-e16223ffeeee"><path d="M85.14368,116.82164a10.66025,10.66025,0,0,1,2.57369-5.64414.1012.1012,0,0,0-.0742-.17025H82.44444a.10119.10119,0,0,0-.0742.17025,10.66025,10.66025,0,0,1,2.57369,5.64414.101.101,0,0,0,.19975,0"/><path d="M81.773,121.90212c0-2.01109,3.27071-4.57946,3.27071-4.57946s3.26862,2.56837,3.26862,4.57946a3.28864,3.28864,0,1,1-6.53933,0"/><path d="M81.17058,113.92653c1.89029,0,3.8732,1.39049,3.8732,3.10445s-1.98291,3.10249-3.8732,3.10249a3.11835,3.11835,0,1,1,0-6.20693"/><path d="M88.917,120.13348c-1.89029,0-3.8732-1.39043-3.8732-3.10445s1.98291-3.10249,3.8732-3.10249a3.11835,3.11835,0,1,1,0,6.20693"/><path d="M83.63083,118.175a1.41189,1.41189,0,1,1,1.41189,1.41189,1.41193,1.41193,0,0,1-1.41189-1.41189"/></g></g><g class="fb64c9ae-d69e-401c-8f1b-e9cab08de89e"><g class="0793f27a-8a03-46d1-9f88-12625562de6d"><path d="M34.52065,25.49855a12.12867,12.12867,0,0,1-2.92821,6.42161.11514.11514,0,0,0,.08442.1937h5.91484a.11512.11512,0,0,0,.08443-.1937,12.12867,12.12867,0,0,1-2.92821-6.42161.1149.1149,0,0,0-.22727,0"/><path d="M38.35559,19.71826c0,2.28811-3.72124,5.21027-3.72124,5.21027s-3.71886-2.92216-3.71886-5.21027a3.94865,3.94865,0,0,1,3.72-4.143,3.94866,3.94866,0,0,1,3.72009,4.143"/><path d="M39.041,28.79245c-2.15067,0-4.40672-1.582-4.40672-3.53208s2.25605-3.52984,4.40672-3.52984a3.72588,3.72588,0,0,1,3.89405,3.53093,3.72589,3.72589,0,0,1-3.89405,3.531"/><path d="M30.22755,21.73052c2.15067,0,4.40672,1.582,4.40672,3.53208s-2.25605,3.52984-4.40672,3.52984a3.726,3.726,0,0,1-3.89412-3.53093,3.726,3.726,0,0,1,3.89412-3.531"/><path d="M36.24189,23.95881a1.60637,1.60637,0,1,1-1.60637-1.60637,1.60642,1.60642,0,0,1,1.60637,1.60637"/></g></g><g class="60209dd4-966f-401a-9c8d-02215908ff2a"><g class="ae5e2515-1f9c-4424-92c8-0c1093fef6fb"><path d="M34.52065,60.06266a12.12867,12.12867,0,0,1-2.92821,6.42161.11514.11514,0,0,0,.08442.1937h5.91484a.11512.11512,0,0,0,.08443-.1937,12.12867,12.12867,0,0,1-2.92821-6.42161.1149.1149,0,0,0-.22727,0"/><path d="M38.35559,54.28236c0,2.28811-3.72124,5.21027-3.72124,5.21027s-3.71886-2.92216-3.71886-5.21027a3.94865,3.94865,0,0,1,3.72-4.143,3.94866,3.94866,0,0,1,3.72009,4.143"/><path d="M39.041,63.35656c-2.15067,0-4.40672-1.582-4.40672-3.53208s2.25605-3.52984,4.40672-3.52984a3.54789,3.54789,0,1,1,0,7.06192"/><path d="M30.22755,56.29462c2.15067,0,4.40672,1.582,4.40672,3.53208s-2.25605,3.52984-4.40672,3.52984a3.5479,3.5479,0,1,1,0-7.06192"/><path d="M36.24189,58.52292a1.60637,1.60637,0,1,1-1.60637-1.60637,1.60642,1.60642,0,0,1,1.60637,1.60637"/></g></g><g class="d62f090b-1e37-4382-adf9-e5c317f986de"><g class="796f6e3b-e108-48e9-a790-0972835c4953"><path d="M65.47935,125.88288a12.12867,12.12867,0,0,1,2.92821-6.42161.11514.11514,0,0,0-.08442-.1937H62.40829a.11512.11512,0,0,0-.08443.1937,12.12867,12.12867,0,0,1,2.92821,6.42161.1149.1149,0,0,0,.22727,0"/><path d="M61.64441,131.66317c0-2.28811,3.72124-5.21027,3.72124-5.21027s3.71886,2.92216,3.71886,5.21027a3.74164,3.74164,0,1,1-7.4401,0"/><path d="M60.959,122.589c2.15067,0,4.40672,1.582,4.40672,3.53208s-2.25605,3.52984-4.40672,3.52984a3.54789,3.54789,0,1,1,0-7.06192"/><path d="M69.77245,129.65091c-2.15067,0-4.40672-1.582-4.40672-3.53208s2.25605-3.52984,4.40672-3.52984a3.5479,3.5479,0,1,1,0,7.06192"/><path d="M63.75812,127.42262a1.60637,1.60637,0,1,1,1.60637,1.60637,1.60642,1.60642,0,0,1-1.60637-1.60637"/></g></g><g class="f1e28907-8bd7-4579-aeae-7a1120e6871c"><g class="9a79d3be-8cb2-405e-9f60-81bb5ff6a4b0"><path d="M65.47935,91.31877a12.12867,12.12867,0,0,1,2.92821-6.42161.11514.11514,0,0,0-.08442-.1937H62.40829a.11512.11512,0,0,0-.08443.1937,12.12867,12.12867,0,0,1,2.92821,6.42161.1149.1149,0,0,0,.22727,0"/><path d="M61.64441,97.09907c0-2.28811,3.72124-5.21027,3.72124-5.21027s3.71886,2.92216,3.71886,5.21027a3.74164,3.74164,0,1,1-7.4401,0"/><path d="M60.959,88.02487c2.15067,0,4.40672,1.582,4.40672,3.53208s-2.25605,3.52984-4.40672,3.52984a3.54789,3.54789,0,1,1,0-7.06192"/><path d="M69.77245,95.0868c-2.15067,0-4.40672-1.582-4.40672-3.53208s2.25605-3.52984,4.40672-3.52984a3.5479,3.5479,0,1,1,0,7.06192"/><path d="M63.75812,92.85851a1.60637,1.60637,0,1,1,1.60637,1.60637,1.60642,1.60642,0,0,1-1.60637-1.60637"/></g></g><g class="7be8febf-cfc2-4192-b414-a33d5a8494c4"><g class="ba45e86f-b210-4488-a7ea-9784b38ecfdd"><path d="M65.25214,25.49855a12.12867,12.12867,0,0,1-2.92821,6.42161.11514.11514,0,0,0,.08442.1937h5.91484a.11512.11512,0,0,0,.08443-.1937,12.12867,12.12867,0,0,1-2.92821-6.42161.1149.1149,0,0,0-.22727,0"/><path d="M69.08707,19.71826c0,2.28811-3.72124,5.21027-3.72124,5.21027S61.647,22.00637,61.647,19.71826a3.74164,3.74164,0,1,1,7.4401,0"/><path d="M69.77252,28.79245c-2.15067,0-4.40672-1.582-4.40672-3.53208s2.25605-3.52984,4.40672-3.52984a3.72588,3.72588,0,0,1,3.89405,3.53093,3.72589,3.72589,0,0,1-3.89405,3.531"/><path d="M60.959,21.73052c2.15067,0,4.40672,1.582,4.40672,3.53208S63.1097,28.79244,60.959,28.79244a3.726,3.726,0,0,1-3.89412-3.53093,3.726,3.726,0,0,1,3.89412-3.531"/><path d="M66.97337,23.95881A1.60637,1.60637,0,1,1,65.367,22.35244a1.60642,1.60642,0,0,1,1.60637,1.60637"/></g></g><g class="0cbfc002-cfbf-4883-a358-ce0c02e97ebc"><g class="78a0a8ca-a3d9-4c93-900c-a19962e578c2"><path d="M49.88639,77.34471a12.12867,12.12867,0,0,1-2.92821,6.42161.11514.11514,0,0,0,.08442.1937h5.91484a.11512.11512,0,0,0,.08443-.1937,12.12867,12.12867,0,0,1-2.92821-6.42161.1149.1149,0,0,0-.22727,0"/><path d="M53.72133,71.56442c0,2.28811-3.72124,5.21027-3.72124,5.21027s-3.71886-2.92216-3.71886-5.21027a3.74164,3.74164,0,1,1,7.4401,0"/><path d="M54.40678,80.63861c-2.15067,0-4.40672-1.582-4.40672-3.53208s2.25605-3.52984,4.40672-3.52984a3.54789,3.54789,0,1,1,0,7.06192"/><path d="M45.59329,73.57668C47.744,73.57668,50,75.15863,50,77.10875S47.744,80.6386,45.59329,80.6386a3.5479,3.5479,0,1,1,0-7.06192"/><path d="M51.60763,75.805a1.60637,1.60637,0,1,1-1.60637-1.60637A1.60642,1.60642,0,0,1,51.60763,75.805"/></g></g><g class="a400a0df-cd09-40ca-aaf8-05758c514c12"><g class="36fb3d16-573f-47e0-aaff-bcaabdf45da9"><path d="M65.25214,60.06266a12.12867,12.12867,0,0,1-2.92821,6.42161.11514.11514,0,0,0,.08442.1937h5.91484a.11512.11512,0,0,0,.08443-.1937,12.12867,12.12867,0,0,1-2.92821-6.42161.1149.1149,0,0,0-.22727,0"/><path d="M69.08707,54.28236c0,2.28811-3.72124,5.21027-3.72124,5.21027S61.647,56.57047,61.647,54.28236a3.74164,3.74164,0,1,1,7.4401,0"/><path d="M69.77252,63.35656c-2.15067,0-4.40672-1.582-4.40672-3.53208s2.25605-3.52984,4.40672-3.52984a3.54789,3.54789,0,1,1,0,7.06192"/><path d="M60.959,56.29462c2.15067,0,4.40672,1.582,4.40672,3.53208S63.1097,63.35655,60.959,63.35655a3.5479,3.5479,0,1,1,0-7.06192"/><path d="M66.97337,58.52292A1.60637,1.60637,0,1,1,65.367,56.91654a1.60642,1.60642,0,0,1,1.60637,1.60637"/></g></g><g class="a9be9f13-6c97-49ac-b339-f52635ebb5e5"><g class="51fd56bd-7a4b-4f44-94d8-019dfbff3c1b"><path d="M34.74786,125.88288a12.12867,12.12867,0,0,1,2.92821-6.42161.11514.11514,0,0,0-.08442-.1937H31.67681a.11512.11512,0,0,0-.08443.1937,12.12867,12.12867,0,0,1,2.92821,6.42161.1149.1149,0,0,0,.22727,0"/><path d="M30.91293,131.66317c0-2.28811,3.72124-5.21027,3.72124-5.21027s3.71886,2.92216,3.71886,5.21027a3.94865,3.94865,0,0,1-3.72,4.143,3.94866,3.94866,0,0,1-3.72009-4.143"/><path d="M30.22748,122.589c2.15067,0,4.40672,1.582,4.40672,3.53208s-2.25605,3.52984-4.40672,3.52984a3.54789,3.54789,0,1,1,0-7.06192"/><path d="M39.041,129.65091c-2.15067,0-4.40672-1.582-4.40672-3.53208S36.8903,122.589,39.041,122.589a3.5479,3.5479,0,1,1,0,7.06192"/><path d="M33.02663,127.42262A1.60637,1.60637,0,1,1,34.633,129.029a1.60642,1.60642,0,0,1-1.60637-1.60637"/></g></g><g class="a7a7d4df-c44f-4b16-bb98-adf9cf731ef1"><g class="11d878b8-e591-455a-9135-021a880179c0"><path d="M34.74786,91.31877a12.12867,12.12867,0,0,1,2.92821-6.42161.11514.11514,0,0,0-.08442-.1937H31.67681a.11512.11512,0,0,0-.08443.1937,12.12867,12.12867,0,0,1,2.92821,6.42161.1149.1149,0,0,0,.22727,0"/><path d="M30.91293,97.09907c0-2.28811,3.72124-5.21027,3.72124-5.21027S38.353,94.811,38.353,97.09907a3.94865,3.94865,0,0,1-3.72,4.143,3.94866,3.94866,0,0,1-3.72009-4.143"/><path d="M30.22748,88.02487c2.15067,0,4.40672,1.582,4.40672,3.53208s-2.25605,3.52984-4.40672,3.52984a3.54789,3.54789,0,1,1,0-7.06192"/><path d="M39.041,95.0868c-2.15067,0-4.40672-1.582-4.40672-3.53208s2.25605-3.52984,4.40672-3.52984a3.5479,3.5479,0,1,1,0,7.06192"/><path d="M33.02663,92.85851A1.60637,1.60637,0,1,1,34.633,94.46489a1.60642,1.60642,0,0,1-1.60637-1.60637"/></g></g></svg>