<svg id="f05854a0-fd54-4be2-a2b1-8f4c49b76659" data-name="レイヤー 1" xmlns="http://www.w3.org/2000/svg" xmlns:xlink="http://www.w3.org/1999/xlink" viewBox="0 0 100 156"><defs><style>.b4cef8af-b820-406a-a82e-5b1453467b0b{fill:none;}.ddd76e86-d24a-4172-affd-5a52c65fad4e{fill:#fff;}.a4b235da-31c3-43d5-8406-75c59d92a3b8{fill:#7f7f7f;}.d668978f-c7a1-4d96-9ece-d8271dabb7eb{clip-path:url(#a95f5692-b8f5-4cf1-a5d7-34bcf3f443c2);}.b1207820-6513-404f-9cb2-b1a16a5fb3c0{clip-path:url(#f5531cb8-3c7f-4658-9e9f-8ace284b9d90);}.\36 f866e4d-8563-445b-a32c-f8d9b1f3e6c5{clip-path:url(#c905aa2b-cf60-4fb1-a4bc-b29efb3f6371);}.\30 ca204bf-3f55-4965-b421-50f027014c4c{clip-path:url(#6e6eb4a9-e423-4dfa-aca6-a7e4003e784f);}.\35 2176c1a-128e-4b03-b01a-604acb15d981{clip-path:url(#7f6f0236-773a-45d1-aec0-974f1f479531);}.b17a695e-b38b-4c89-b046-25bc9379f84f{clip-path:url(#ee30cc85-f89e-4372-886a-e5561e9bf345);}.\32 b1b2ac7-1405-4e24-9f61-5112e638a854{clip-path:url(#f5dec900-9e19-4643-8e9a-63d03a146ce7);}.\30 46fd47b-1d1e-48d3-b52c-984832327391{clip-path:url(#050a6de8-441f-4b97-befc-24ceea5ab590);}</style><clipPath id="a95f5692-b8f5-4cf1-a5d7-34bcf3f443c2"><rect class="b4cef8af-b820-406a-a82e-5b1453467b0b" width="29.91235" height="29.91235"/></clipPath><clipPath id="f5531cb8-3c7f-4658-9e9f-8ace284b9d90"><rect class="b4cef8af-b820-406a-a82e-5b1453467b0b" x="70.08765" y="126.08765" width="29.91235" height="29.91235"/></clipPath><clipPath id="c905aa2b-cf60-4fb1-a4bc-b29efb3f6371"><rect class="b4cef8af-b820-406a-a82e-5b1453467b0b" x="7.66032" y="30.45647" width="14.5917" height="14.53628"/></clipPath><clipPath id="6e6eb4a9-e423-4dfa-aca6-a7e4003e784f"><rect class="b4cef8af-b820-406a-a82e-5b1453467b0b" x="6.8531" y="29.72091" width="16.20824" height="16.20824"/></clipPath><clipPath id="7f6f0236-773a-45d1-aec0-974f1f479531"><rect class="b4cef8af-b820-406a-a82e-5b1453467b0b" x="77.74798" y="111.00725" width="14.5917" height="14.53628"/></clipPath><clipPath id="ee30cc85-f89e-4372-886a-e5561e9bf345"><rect class="b4cef8af-b820-406a-a82e-5b1453467b0b" x="76.93865" y="110.07085" width="16.20824" height="16.20824"/></clipPath><clipPath id="f5dec900-9e19-4643-8e9a-63d03a146ce7"><rect class="b4cef8af-b820-406a-a82e-5b1453467b0b" x="41.69917" y="69.7307" width="16.60167" height="16.53861"/></clipPath><clipPath id="050a6de8-441f-4b97-befc-24ceea5ab590"><rect class="b4cef8af-b820-406a-a82e-5b1453467b0b" x="40.78075" y="68.89381" width="18.44088" height="18.44088"/></clipPath></defs><title>A</title><rect class="ddd76e86-d24a-4172-affd-5a52c65fad4e" x="0.5" y="0.5" width="99" height="155" rx="5.5" ry="5.5"/><path class="a4b235da-31c3-43d5-8406-75c59d92a3b8" d="M94,1a5.00567,5.00567,0,0,1,5,5V150a5.00567,5.00567,0,0,1-5,5H6a5.00567,5.00567,0,0,1-5-5V6A5.00567,5.00567,0,0,1,6,1H94m0-1H6A6,6,0,0,0,0,6V150a6,6,0,0,0,6,6H94a6,6,0,0,0,6-6V6a6,6,0,0,0-6-6Z"/><g class="d668978f-c7a1-4d96-9ece-d8271dabb7eb"><g class="d668978f-c7a1-4d96-9ece-d8271dabb7eb"><path d="M23.98682,25.03271a5.24335,5.24335,0,0,0-.74316-.05615H21.75732a5.23279,5.23279,0,0,0-.74316.05615q-.19629-.64453-.53271-1.55664-.33691-.9104-.74316-1.90674-.40723-.99536-.82764-2.019-.42041-1.02319-.78516-1.94922-.89722-.0271-1.82275-.042-.925-.01392-1.85059-.01367-.86938,0-1.71094.01367-.84082.01465-1.71045.042-.89795,2.18774-1.62646,4.16455-.72949,1.97681-1.09375,3.26709a8.86418,8.86418,0,0,0-1.0376-.05615,8.86418,8.86418,0,0,0-1.0376.05615q2.272-4.90723,4.43115-9.75879Q12.825,10.42236,15.0127,5.40283h.5332q.6731,1.62671,1.458,3.519.78516,1.89331,1.59863,3.82813.813,1.93506,1.62646,3.8418.813,1.90723,1.52832,3.54736.71484,1.64063,1.29,2.93066Q23.62158,24.35962,23.98682,25.03271ZM11.56348,16.31152q.72949,0,1.51465.02783.78442.02856,1.51416.02783.78442,0,1.57031-.01367.78516-.01392,1.57031-.042l-3.11279-7.123Z"/></g></g><g class="b1207820-6513-404f-9cb2-b1a16a5fb3c0"><g class="b1207820-6513-404f-9cb2-b1a16a5fb3c0"><path d="M76.01465,130.96777a5.30744,5.30744,0,0,0,.74316.05566h1.48633a5.30744,5.30744,0,0,0,.74316-.05566q.19629.64453.53223,1.55566.33691.91113.74316,1.90723.40723.99463.82715,2.01953.42041,1.02246.78516,1.94824.89795.02783,1.82324.042.92578.01465,1.85059.01465c.58008,0,1.14941-.00488,1.71094-.01465q.84082-.01465,1.71-.042.89795-2.187,1.627-4.16406.72949-1.97754,1.09375-3.2666a9.69842,9.69842,0,0,0,2.0752,0q-2.272,4.90576-4.43066,9.75879-2.15918,4.8501-4.34668,9.87109h-.5332q-.67236-1.62744-1.458-3.51953-.78516-1.89258-1.59863-3.82812-.813-1.93506-1.626-3.8418-.813-1.90723-1.52832-3.54785-.71631-1.63916-1.29-2.92969Q76.37988,131.64014,76.01465,130.96777Zm12.42285,8.7207q-.72949,0-1.51465-.02832-.78516-.02783-1.51367-.02734-.78516,0-1.57129.01367-.78369.01465-1.57031.042l3.11328,7.123Z"/></g></g><g class="6f866e4d-8563-445b-a32c-f8d9b1f3e6c5"><g class="0ca204bf-3f55-4965-b421-50f027014c4c"><path d="M14.85632,39.17836a10.66025,10.66025,0,0,1-2.57369,5.64414.1012.1012,0,0,0,.0742.17025h5.19873a.10119.10119,0,0,0,.0742-.17025,10.66025,10.66025,0,0,1-2.57369-5.64414.101.101,0,0,0-.19975,0"/><path d="M18.227,34.09788c0,2.01109-3.27071,4.57946-3.27071,4.57946s-3.26862-2.56837-3.26862-4.57946a3.47058,3.47058,0,0,1,3.26963-3.64141,3.47059,3.47059,0,0,1,3.2697,3.64141"/><path d="M18.82942,42.07347c-1.89029,0-3.8732-1.39049-3.8732-3.10445s1.98291-3.10249,3.8732-3.10249a3.11835,3.11835,0,1,1,0,6.20693"/><path d="M11.083,35.86652c1.89029,0,3.8732,1.39043,3.8732,3.10445s-1.98291,3.10249-3.8732,3.10249a3.11835,3.11835,0,1,1,0-6.20693"/><path d="M16.36917,37.825a1.41189,1.41189,0,1,1-1.41189-1.41189A1.41193,1.41193,0,0,1,16.36917,37.825"/></g></g><g class="52176c1a-128e-4b03-b01a-604acb15d981"><g class="b17a695e-b38b-4c89-b046-25bc9379f84f"><path d="M85.14368,116.82164a10.66025,10.66025,0,0,1,2.57369-5.64414.1012.1012,0,0,0-.0742-.17025H82.44444a.10119.10119,0,0,0-.0742.17025,10.66025,10.66025,0,0,1,2.57369,5.64414.101.101,0,0,0,.19975,0"/><path d="M81.773,121.90212c0-2.01109,3.27071-4.57946,3.27071-4.57946s3.26862,2.56837,3.26862,4.57946a3.28864,3.28864,0,1,1-6.53933,0"/><path d="M81.17058,113.92653c1.89029,0,3.8732,1.39049,3.8732,3.10445s-1.98291,3.10249-3.8732,3.10249a3.11835,3.11835,0,1,1,0-6.20693"/><path d="M88.917,120.13348c-1.89029,0-3.8732-1.39043-3.8732-3.10445s1.98291-3.10249,3.8732-3.10249a3.11835,3.11835,0,1,1,0,6.20693"/><path d="M83.63083,118.175a1.41189,1.41189,0,1,1,1.41189,1.41189,1.41193,1.41193,0,0,1-1.41189-1.41189"/></g></g><g class="2b1b2ac7-1405-4e24-9f61-5112e638a854"><g class="046fd47b-1d1e-48d3-b52c-984832327391"><path d="M49.88639,79.654a12.12867,12.12867,0,0,1-2.92821,6.42161.11514.11514,0,0,0,.08442.1937h5.91484a.11512.11512,0,0,0,.08443-.1937A12.12867,12.12867,0,0,1,50.11366,79.654a.1149.1149,0,0,0-.22727,0"/><path d="M53.72133,73.8737c0,2.28811-3.72124,5.21027-3.72124,5.21027s-3.71886-2.92216-3.71886-5.21027a3.74164,3.74164,0,1,1,7.4401,0"/><path d="M54.40678,82.9479c-2.15067,0-4.40672-1.582-4.40672-3.53208S52.25611,75.886,54.40678,75.886a3.54789,3.54789,0,1,1,0,7.06192"/><path d="M45.59329,75.886C47.744,75.886,50,77.46792,50,79.418s-2.25605,3.52984-4.40672,3.52984a3.5479,3.5479,0,1,1,0-7.06192"/><path d="M51.60763,78.11425a1.60637,1.60637,0,1,1-1.60637-1.60637,1.60642,1.60642,0,0,1,1.60637,1.60637"/></g></g></svg>