<svg xmlns="http://www.w3.org/2000/svg" xmlns:xlink="http://www.w3.org/1999/xlink" viewBox="0 0 100 156"><defs><style>.e1c712b3-b069-4f53-a86a-6cae36925d2e{fill:none;}.\38 9f864b0-6ee1-416f-8618-3aa5b469be04{isolation:isolate;}.\33 96c6136-8780-40df-9455-b0cfedfe086d{fill:#fff;}.\31 07d6c50-e5f2-4031-badf-e96f91f88af2{fill:#7f7f7f;}.d38d4768-8c4b-43a8-b551-4693f2e5073d{clip-path:url(#5787fbd3-1047-4d2b-9568-85fb30a7b86a);}.e0294a9d-8af6-4fbf-af8f-20faf6dece93{clip-path:url(#97bebeeb-1a64-4cc1-a7a8-70076571d5bf);}.fe6be5a0-7d0d-483b-a13a-3b2c00804dcf{clip-path:url(#c843a375-aac2-4271-b7fb-860c713b9bbd);}.\33 74bc004-e654-4ce3-b853-63d0fa456579{clip-path:url(#5687a17c-b7e5-4409-bc2f-952c22b44012);}.\38 df90e63-4ac6-4eed-a909-4bba52d4fe25{clip-path:url(#b01bf648-87f2-4cce-a13a-c1e1426c6690);}.\38 93c95ce-f99e-4c0d-b310-1ec38b867f42{clip-path:url(#4e82346a-914c-44dc-8109-c11aefe019a2);}.\35 285ac24-2d41-4ad0-badd-d14352e7c1b9{clip-path:url(#2d628c24-c87b-4280-8913-c49e805fa1a4);}.\37 0cb9101-71bf-4975-bbeb-e3211e683c22{mix-blend-mode:multiply;}.cdb642ff-69fc-4683-8a6e-c06bcf49bbe8{clip-path:url(#c22228fe-107b-4a67-a661-c65877dba246);}.\30 0731d51-7223-4d2a-8580-0d3ada254fab{fill:#545454;}.\39 1c9b59e-7069-4708-86c6-a27f5c53a77c{clip-path:url(#cc71c6c4-e5b8-4b0e-a442-e0cd66bbed0f);}</style><clipPath id="5787fbd3-1047-4d2b-9568-85fb30a7b86a"><rect class="e1c712b3-b069-4f53-a86a-6cae36925d2e" width="29.91235" height="29.91235"/></clipPath><clipPath id="97bebeeb-1a64-4cc1-a7a8-70076571d5bf"><rect class="e1c712b3-b069-4f53-a86a-6cae36925d2e" x="70.08765" y="126.08765" width="29.91235" height="29.91235"/></clipPath><clipPath id="c843a375-aac2-4271-b7fb-860c713b9bbd"><rect class="e1c712b3-b069-4f53-a86a-6cae36925d2e" x="7.66032" y="30.45647" width="14.5917" height="14.53628"/></clipPath><clipPath id="5687a17c-b7e5-4409-bc2f-952c22b44012"><rect class="e1c712b3-b069-4f53-a86a-6cae36925d2e" x="6.8531" y="29.72091" width="16.20824" height="16.20824"/></clipPath><clipPath id="b01bf648-87f2-4cce-a13a-c1e1426c6690"><rect class="e1c712b3-b069-4f53-a86a-6cae36925d2e" x="77.74798" y="111.00725" width="14.5917" height="14.53628"/></clipPath><clipPath id="4e82346a-914c-44dc-8109-c11aefe019a2"><rect class="e1c712b3-b069-4f53-a86a-6cae36925d2e" x="76.93865" y="110.07085" width="16.20824" height="16.20824"/></clipPath><clipPath id="2d628c24-c87b-4280-8913-c49e805fa1a4"><rect class="e1c712b3-b069-4f53-a86a-6cae36925d2e" x="25" y="23" width="50" height="110"/></clipPath><clipPath id="c22228fe-107b-4a67-a661-c65877dba246"><rect class="e1c712b3-b069-4f53-a86a-6cae36925d2e" x="50" y="23" width="25" height="110"/></clipPath><clipPath id="cc71c6c4-e5b8-4b0e-a442-e0cd66bbed0f"><rect class="e1c712b3-b069-4f53-a86a-6cae36925d2e" x="25" y="78" width="25" height="55"/></clipPath></defs><title>J</title><g class="89f864b0-6ee1-416f-8618-3aa5b469be04"><g id="b0b4326c-5370-4d50-bbaf-74f187ba2a82" data-name="レイヤー 1"><rect class="396c6136-8780-40df-9455-b0cfedfe086d" x="0.5" y="0.5" width="99" height="155" rx="5.5" ry="5.5"/><path class="107d6c50-e5f2-4031-badf-e96f91f88af2" d="M94,1a5.00567,5.00567,0,0,1,5,5V150a5.00567,5.00567,0,0,1-5,5H6a5.00567,5.00567,0,0,1-5-5V6A5.00567,5.00567,0,0,1,6,1H94m0-1H6A6,6,0,0,0,0,6V150a6,6,0,0,0,6,6H94a6,6,0,0,0,6-6V6a6,6,0,0,0-6-6Z"/><g class="d38d4768-8c4b-43a8-b551-4693f2e5073d"><g class="d38d4768-8c4b-43a8-b551-4693f2e5073d"><path d="M12.55859,27.59863a3.371,3.371,0,0,0,1.06592-1.52832,8.49582,8.49582,0,0,0,.4624-2.32764q.09814-1.34619.09814-3.00049V13.03027q0-1.85083-.06982-3.63135-.07031-1.78052-.1543-3.63184.364.0564.70117.09814a5.41163,5.41163,0,0,0,1.3457,0q.33691-.04175.70117-.09814-.08423,1.85083-.1543,3.63184-.07031,1.78125-.06982,3.63135,0,1.262.01367,2.60791.01392,1.34619.02832,2.65039.01392,1.30371.02783,2.50977.01392,1.20557.01416,2.21533a6.366,6.366,0,0,1-.40674,2.31348,5.75472,5.75472,0,0,1-1.16357,1.86475,5.43247,5.43247,0,0,1-1.80908,1.27588,5.60782,5.60782,0,0,1-2.28516.46289l-.22461-.78516A2.976,2.976,0,0,0,12.55859,27.59863Z"/></g></g><g class="e0294a9d-8af6-4fbf-af8f-20faf6dece93"><g class="e0294a9d-8af6-4fbf-af8f-20faf6dece93"><path d="M87.44141,128.40137a3.37129,3.37129,0,0,0-1.06543,1.52832,8.54993,8.54993,0,0,0-.46289,2.32715q-.09814,1.34619-.09766,3.001v7.71191q0,1.8501.07031,3.63184.07031,1.77979.1543,3.63086c-.24316-.03711-.47754-.06934-.70117-.09766a5.41945,5.41945,0,0,0-1.34668,0c-.22363.02832-.458.06055-.70117.09766q.085-1.8501.1543-3.63086.07031-1.78125.07031-3.63184,0-1.2627-.01367-2.6084-.01465-1.34619-.02832-2.64941-.01318-1.30371-.02832-2.50977-.01318-1.207-.01367-2.21582a6.37814,6.37814,0,0,1,.40625-2.31348,5.7717,5.7717,0,0,1,1.16406-1.86523,5.42919,5.42919,0,0,1,1.80859-1.27539,5.6108,5.6108,0,0,1,2.28613-.46289l.22363.78516A2.97691,2.97691,0,0,0,87.44141,128.40137Z"/></g></g><g class="fe6be5a0-7d0d-483b-a13a-3b2c00804dcf"><g class="374bc004-e654-4ce3-b853-63d0fa456579"><path d="M14.85632,39.17836a10.66025,10.66025,0,0,1-2.57369,5.64414.1012.1012,0,0,0,.0742.17025h5.19873a.10119.10119,0,0,0,.0742-.17025,10.66025,10.66025,0,0,1-2.57369-5.64414.101.101,0,0,0-.19975,0"/><path d="M18.227,34.09788c0,2.01109-3.27071,4.57946-3.27071,4.57946s-3.26862-2.56837-3.26862-4.57946a3.47058,3.47058,0,0,1,3.26963-3.64141,3.47059,3.47059,0,0,1,3.2697,3.64141"/><path d="M18.82942,42.07347c-1.89029,0-3.8732-1.39049-3.8732-3.10445s1.98291-3.10249,3.8732-3.10249a3.11835,3.11835,0,1,1,0,6.20693"/><path d="M11.083,35.86652c1.89029,0,3.8732,1.39043,3.8732,3.10445s-1.98291,3.10249-3.8732,3.10249a3.11835,3.11835,0,1,1,0-6.20693"/><path d="M16.36917,37.825a1.41189,1.41189,0,1,1-1.41189-1.41189A1.41193,1.41193,0,0,1,16.36917,37.825"/></g></g><g class="8df90e63-4ac6-4eed-a909-4bba52d4fe25"><g class="893c95ce-f99e-4c0d-b310-1ec38b867f42"><path d="M85.14368,116.82164a10.66025,10.66025,0,0,1,2.57369-5.64414.1012.1012,0,0,0-.0742-.17025H82.44444a.10119.10119,0,0,0-.0742.17025,10.66025,10.66025,0,0,1,2.57369,5.64414.101.101,0,0,0,.19975,0"/><path d="M81.773,121.90212c0-2.01109,3.27071-4.57946,3.27071-4.57946s3.26862,2.56837,3.26862,4.57946a3.28864,3.28864,0,1,1-6.53933,0"/><path d="M81.17058,113.92653c1.89029,0,3.8732,1.39049,3.8732,3.10445s-1.98291,3.10249-3.8732,3.10249a3.11835,3.11835,0,1,1,0-6.20693"/><path d="M88.917,120.13348c-1.89029,0-3.8732-1.39043-3.8732-3.10445s1.98291-3.10249,3.8732-3.10249a3.11835,3.11835,0,1,1,0,6.20693"/><path d="M83.63083,118.175a1.41189,1.41189,0,1,1,1.41189,1.41189,1.41193,1.41193,0,0,1-1.41189-1.41189"/></g></g></g><g id="f736b12a-f020-4818-8c04-ab55bcbc53b3" data-name="レイヤー 2"><g class="5285ac24-2d41-4ad0-badd-d14352e7c1b9"><g class="5285ac24-2d41-4ad0-badd-d14352e7c1b9"><g class="5285ac24-2d41-4ad0-badd-d14352e7c1b9"><g class="70cb9101-71bf-4975-bbeb-e3211e683c22"><g class="cdb642ff-69fc-4683-8a6e-c06bcf49bbe8"><polyline class="00731d51-7223-4d2a-8580-0d3ada254fab" points="50 23 75 23 75 133"/></g></g><g class="70cb9101-71bf-4975-bbeb-e3211e683c22"><g class="91c9b59e-7069-4708-86c6-a27f5c53a77c"><polyline class="00731d51-7223-4d2a-8580-0d3ada254fab" points="50 133 25 133 25 78"/></g></g><g class="70cb9101-71bf-4975-bbeb-e3211e683c22"><g class="cdb642ff-69fc-4683-8a6e-c06bcf49bbe8"><polyline class="00731d51-7223-4d2a-8580-0d3ada254fab" points="50 133 75 133 75 23"/></g></g></g></g></g></g></g></svg>