<svg xmlns="http://www.w3.org/2000/svg" xmlns:xlink="http://www.w3.org/1999/xlink" viewBox="0 0 100 156"><defs><style>.ec63f995-08de-42b6-abb6-bd486eedf366{fill:none;}.d9993af8-551e-4902-bf4a-fb8cd10c0d50{isolation:isolate;}.c67943fa-55ae-44b0-a64b-9a5e3a6d4784{fill:#fff;}.\32 9e572aa-f65c-4c3b-bd11-daa486ba6f12{fill:#7f7f7f;}.\30 7b57641-b753-4164-86e0-41d71877c65f{clip-path:url(#4d9c48be-bdb8-44f6-b0a3-f24fc47db862);}.\39 0eeb130-96ef-4daa-955e-390263514bcc{clip-path:url(#25efcbcb-f7b1-492c-9348-ea93dc09a745);}.\36 72208f7-10d5-484a-b660-3d1b44f586a4{clip-path:url(#99f28827-570b-43c0-b197-414636e0e9f1);}.dd9a7b1c-7cbd-469c-85e4-8dae1ecfd0ca{clip-path:url(#ca3281de-d17a-43e1-9121-a25fa6f2e679);}.\37 17ae5ff-f1d2-4dc1-bf8c-9e3ca493fa78{clip-path:url(#72899ae7-2e48-4cdf-bc83-7549822dec64);}.\37 0bb199a-cf0e-430a-acce-e245c7d7bf49{clip-path:url(#84d79f53-7294-4971-ae8d-9ae6b965ccc3);}.\37 20e378e-5f13-40aa-9b69-5646cd9a80e8{clip-path:url(#80945a00-2de2-448d-b69f-22f0f200eee7);}.\31 27c24f0-a724-41b1-8612-4501403e0af8{mix-blend-mode:multiply;}.c24df1dc-387f-4a83-ac8f-c4df13dd0408{fill:#545454;}</style><clipPath id="4d9c48be-bdb8-44f6-b0a3-f24fc47db862"><rect class="ec63f995-08de-42b6-abb6-bd486eedf366" width="29.91235" height="29.91235"/></clipPath><clipPath id="25efcbcb-f7b1-492c-9348-ea93dc09a745"><rect class="ec63f995-08de-42b6-abb6-bd486eedf366" x="70.08765" y="126.08765" width="29.91235" height="29.91235"/></clipPath><clipPath id="99f28827-570b-43c0-b197-414636e0e9f1"><rect class="ec63f995-08de-42b6-abb6-bd486eedf366" x="7.66032" y="30.45647" width="14.5917" height="14.53628"/></clipPath><clipPath id="ca3281de-d17a-43e1-9121-a25fa6f2e679"><rect class="ec63f995-08de-42b6-abb6-bd486eedf366" x="6.8531" y="29.72091" width="16.20824" height="16.20824"/></clipPath><clipPath id="72899ae7-2e48-4cdf-bc83-7549822dec64"><rect class="ec63f995-08de-42b6-abb6-bd486eedf366" x="77.74798" y="111.00725" width="14.5917" height="14.53628"/></clipPath><clipPath id="84d79f53-7294-4971-ae8d-9ae6b965ccc3"><rect class="ec63f995-08de-42b6-abb6-bd486eedf366" x="76.93865" y="110.07085" width="16.20824" height="16.20824"/></clipPath><clipPath id="80945a00-2de2-448d-b69f-22f0f200eee7"><rect class="ec63f995-08de-42b6-abb6-bd486eedf366" x="25" y="23" width="50" height="110"/></clipPath></defs><title>K</title><g class="d9993af8-551e-4902-bf4a-fb8cd10c0d50"><g id="68a51c76-605d-4e2e-a057-0f673531fe0d" data-name="レイヤー 1"><rect class="c67943fa-55ae-44b0-a64b-9a5e3a6d4784" x="0.5" y="0.5" width="99" height="155" rx="5.5" ry="5.5"/><path class="29e572aa-f65c-4c3b-bd11-daa486ba6f12" d="M94,1a5.00567,5.00567,0,0,1,5,5V150a5.00567,5.00567,0,0,1-5,5H6a5.00567,5.00567,0,0,1-5-5V6A5.00567,5.00567,0,0,1,6,1H94m0-1H6A6,6,0,0,0,0,6V150a6,6,0,0,0,6,6H94a6,6,0,0,0,6-6V6a6,6,0,0,0-6-6Z"/><g class="07b57641-b753-4164-86e0-41d71877c65f"><g class="07b57641-b753-4164-86e0-41d71877c65f"><path d="M8.91357,25.03271q.08423-1.73877.1543-3.53369.06958-1.7937.06982-3.64551V13.03027q0-1.85083-.06982-3.63135-.07031-1.78052-.1543-3.63184.364.0564.70117.09814a5.41163,5.41163,0,0,0,1.3457,0q.33691-.04175.70117-.09814-.08423,1.85083-.1543,3.63184-.07031,1.78125-.06982,3.63135v1.54248c0,.1499.05615.22412.168.22412q.11206,0,.39258-.25244.98145-.84082,2.06152-1.90674,1.07886-1.06567,2.17334-2.21533,1.09351-1.1499,2.15918-2.3418Q19.457,6.88892,20.439,5.76709q.30835.0564.58887.09814a3.74121,3.74121,0,0,0,.561.042,5.36512,5.36512,0,0,0,.67285-.042q.33691-.04175.67334-.09814-.98218.84155-2.21533,1.99121-1.23486,1.1499-2.48193,2.35547-1.248,1.2063-2.38379,2.36963-1.13525,1.16382-1.89258,2.0332,2.27124,2.55176,4.585,5.20215,2.313,2.6499,4.69678,5.314a6.31692,6.31692,0,0,0-.84082-.05615H20.78955a5.41552,5.41552,0,0,0-.771.05615q-1.01-1.1499-2.22949-2.63623-1.22021-1.48608-2.38379-2.874-1.16382-1.38867-2.103-2.49609-.9397-1.10742-1.38818-1.55615c-.1499-.14941-.26221-.22461-.33643-.22461-.09375,0-.14014.05615-.14014.16846v2.43945q0,1.85083.06982,3.64551.06958,1.79517.1543,3.53369-.64526-.0564-1.374-.05615Q9.55811,24.97656,8.91357,25.03271Z"/></g></g><g class="90eeb130-96ef-4daa-955e-390263514bcc"><g class="90eeb130-96ef-4daa-955e-390263514bcc"><path d="M91.08789,130.96777q-.085,1.7373-.1543,3.5332-.07031,1.79443-.07031,3.64551v4.82324q0,1.8501.07031,3.63184.07031,1.77979.1543,3.63086c-.24316-.03711-.47754-.06934-.70117-.09766a5.41945,5.41945,0,0,0-1.34668,0c-.22363.02832-.458.06055-.70117.09766q.085-1.8501.1543-3.63086.07031-1.78125.07031-3.63184v-1.542c0-.15039-.05566-.22461-.168-.22461-.07422,0-.20605.084-.39258.252q-.98145.84229-2.06152,1.90723-1.07959,1.06494-2.17285,2.21582-1.09424,1.14844-2.15918,2.34082-1.06641,1.19238-2.04785,2.31348-.30762-.05566-.58887-.09766a3.72519,3.72519,0,0,0-.56055-.042,5.36512,5.36512,0,0,0-.67285.042q-.33691.04248-.67285.09766.98145-.84082,2.21484-1.99023,1.23486-1.15137,2.48242-2.35645,1.248-1.20557,2.38281-2.36914,1.13672-1.16455,1.89355-2.0332-2.272-2.55176-4.585-5.20215-2.31445-2.6499-4.69727-5.31348a6.39911,6.39911,0,0,0,.84082.05566h1.6123a5.48787,5.48787,0,0,0,.77148-.05566q1.00928,1.14844,2.22949,2.63574,1.22021,1.48535,2.38379,2.874,1.16309,1.38867,2.10352,2.49609.939,1.10742,1.3877,1.55664c.14941.14941.26172.22363.33691.22363.09375,0,.13965-.05566.13965-.168v-2.43945q0-1.85156-.07031-3.64551-.06885-1.7959-.1543-3.5332.646.05566,1.374.05566C90.2002,131.02344,90.65723,131.00488,91.08789,130.96777Z"/></g></g><g class="672208f7-10d5-484a-b660-3d1b44f586a4"><g class="dd9a7b1c-7cbd-469c-85e4-8dae1ecfd0ca"><path d="M14.85632,39.17836a10.66025,10.66025,0,0,1-2.57369,5.64414.1012.1012,0,0,0,.0742.17025h5.19873a.10119.10119,0,0,0,.0742-.17025,10.66025,10.66025,0,0,1-2.57369-5.64414.101.101,0,0,0-.19975,0"/><path d="M18.227,34.09788c0,2.01109-3.27071,4.57946-3.27071,4.57946s-3.26862-2.56837-3.26862-4.57946a3.47058,3.47058,0,0,1,3.26963-3.64141,3.47059,3.47059,0,0,1,3.2697,3.64141"/><path d="M18.82942,42.07347c-1.89029,0-3.8732-1.39049-3.8732-3.10445s1.98291-3.10249,3.8732-3.10249a3.11835,3.11835,0,1,1,0,6.20693"/><path d="M11.083,35.86652c1.89029,0,3.8732,1.39043,3.8732,3.10445s-1.98291,3.10249-3.8732,3.10249a3.11835,3.11835,0,1,1,0-6.20693"/><path d="M16.36917,37.825a1.41189,1.41189,0,1,1-1.41189-1.41189A1.41193,1.41193,0,0,1,16.36917,37.825"/></g></g><g class="717ae5ff-f1d2-4dc1-bf8c-9e3ca493fa78"><g class="70bb199a-cf0e-430a-acce-e245c7d7bf49"><path d="M85.14368,116.82164a10.66025,10.66025,0,0,1,2.57369-5.64414.1012.1012,0,0,0-.0742-.17025H82.44444a.10119.10119,0,0,0-.0742.17025,10.66025,10.66025,0,0,1,2.57369,5.64414.101.101,0,0,0,.19975,0"/><path d="M81.773,121.90212c0-2.01109,3.27071-4.57946,3.27071-4.57946s3.26862,2.56837,3.26862,4.57946a3.28864,3.28864,0,1,1-6.53933,0"/><path d="M81.17058,113.92653c1.89029,0,3.8732,1.39049,3.8732,3.10445s-1.98291,3.10249-3.8732,3.10249a3.11835,3.11835,0,1,1,0-6.20693"/><path d="M88.917,120.13348c-1.89029,0-3.8732-1.39043-3.8732-3.10445s1.98291-3.10249,3.8732-3.10249a3.11835,3.11835,0,1,1,0,6.20693"/><path d="M83.63083,118.175a1.41189,1.41189,0,1,1,1.41189,1.41189,1.41193,1.41193,0,0,1-1.41189-1.41189"/></g></g></g><g id="d2463b8c-6eeb-4c69-a88e-ffe9788201c9" data-name="レイヤー 2"><g class="720e378e-5f13-40aa-9b69-5646cd9a80e8"><g class="720e378e-5f13-40aa-9b69-5646cd9a80e8"><g class="720e378e-5f13-40aa-9b69-5646cd9a80e8"><g class="127c24f0-a724-41b1-8612-4501403e0af8"><g class="720e378e-5f13-40aa-9b69-5646cd9a80e8"><polyline class="c24df1dc-387f-4a83-ac8f-c4df13dd0408" points="75 133 25 133 25 23"/></g></g><g class="127c24f0-a724-41b1-8612-4501403e0af8"><g class="720e378e-5f13-40aa-9b69-5646cd9a80e8"><polyline class="c24df1dc-387f-4a83-ac8f-c4df13dd0408" points="75 23 25 23 25 133"/></g></g></g></g></g></g></g></svg>