<svg xmlns="http://www.w3.org/2000/svg" xmlns:xlink="http://www.w3.org/1999/xlink" viewBox="0 0 100 156"><defs><style>.\34 e6fa89d-f750-419b-a043-3cc170780f2f{fill:none;}.f6ccad72-9b84-4ce8-9a09-482bad5d119c{isolation:isolate;}.d053f6ff-3130-44b6-bbeb-30de9687e2a8{fill:#fff;}.\32 ee7bb41-7c12-482a-9b07-dcf408fadccb{fill:#7f7f7f;}.\33 0245d2d-9b4e-4ffd-894b-bf54c465a3d1{clip-path:url(#c836e1ef-8cdf-493f-8018-ffac4e2c83b4);}.e0870c9c-4686-4745-956f-89c6c4ed7706{clip-path:url(#efc9248a-4cc0-4e6b-a025-c79df71746a6);}.\31 b04cdce-651b-45d4-9193-5d30f8f1c97b{clip-path:url(#6a9b92a9-67a9-4bbf-9636-e4a0e433d704);}.\35 18b94ef-03be-43c0-ab5e-09b688544648{clip-path:url(#4afcf7d6-15cf-4ca3-b415-6cbe96faf879);}.\30 9de6c17-f2b9-4c66-a75f-0f242cfd6da5{clip-path:url(#0248c278-4176-4e97-839f-64bb9b93b4ec);}.afc10751-3cf8-4565-8feb-852d6ea3927b{clip-path:url(#8e736de8-de3c-48fc-b990-84e6c5e6166c);}.d1e7c7c6-8eb1-49e3-8c6e-641d2ea17e55{clip-path:url(#533dd9d5-355b-40f9-a0bb-d2e5d9ced72a);}.\31 81f0e21-cc12-4f0b-9d6f-9db426ff4d3a{mix-blend-mode:multiply;}.a44b514b-445b-4200-b973-8b7affeb816f{clip-path:url(#e45ffcab-c2dc-486e-90cf-7a1a76bf78e2);}.\39 cf9cf4b-8f9d-425d-911d-87ba514a271e{fill:#545454;}.\35 eae206d-22da-40e8-bc94-d718bb00a020{clip-path:url(#71ad0459-971e-4ff9-96ca-448a2c9e5220);}.b481e579-5e24-4fd3-82e1-e1464c251dc7{clip-path:url(#1e339acb-2fd8-4674-95da-3d98ae1bfe84);}.e7ac74c6-3443-4bad-a182-3608453c167a{clip-path:url(#d0f8bacf-f236-418e-b949-8f4407cf856a);}</style><clipPath id="c836e1ef-8cdf-493f-8018-ffac4e2c83b4"><rect class="4e6fa89d-f750-419b-a043-3cc170780f2f" width="29.91235" height="29.91235"/></clipPath><clipPath id="efc9248a-4cc0-4e6b-a025-c79df71746a6"><rect class="4e6fa89d-f750-419b-a043-3cc170780f2f" x="70.08765" y="126.08765" width="29.91235" height="29.91235"/></clipPath><clipPath id="6a9b92a9-67a9-4bbf-9636-e4a0e433d704"><rect class="4e6fa89d-f750-419b-a043-3cc170780f2f" x="7.66032" y="30.45647" width="14.5917" height="14.53628"/></clipPath><clipPath id="4afcf7d6-15cf-4ca3-b415-6cbe96faf879"><rect class="4e6fa89d-f750-419b-a043-3cc170780f2f" x="6.8531" y="29.72091" width="16.20824" height="16.20824"/></clipPath><clipPath id="0248c278-4176-4e97-839f-64bb9b93b4ec"><rect class="4e6fa89d-f750-419b-a043-3cc170780f2f" x="77.74798" y="111.00725" width="14.5917" height="14.53628"/></clipPath><clipPath id="8e736de8-de3c-48fc-b990-84e6c5e6166c"><rect class="4e6fa89d-f750-419b-a043-3cc170780f2f" x="76.93865" y="110.07085" width="16.20824" height="16.20824"/></clipPath><clipPath id="533dd9d5-355b-40f9-a0bb-d2e5d9ced72a"><rect class="4e6fa89d-f750-419b-a043-3cc170780f2f" x="25" y="23" width="50" height="110"/></clipPath><clipPath id="e45ffcab-c2dc-486e-90cf-7a1a76bf78e2"><rect class="4e6fa89d-f750-419b-a043-3cc170780f2f" x="25.00002" y="78.0001" width="24.99998" height="55.00001"/></clipPath><clipPath id="71ad0459-971e-4ff9-96ca-448a2c9e5220"><rect class="4e6fa89d-f750-419b-a043-3cc170780f2f" x="25" y="23" width="25" height="55.0001"/></clipPath><clipPath id="1e339acb-2fd8-4674-95da-3d98ae1bfe84"><rect class="4e6fa89d-f750-419b-a043-3cc170780f2f" x="50.0001" y="23" width="25" height="55"/></clipPath><clipPath id="d0f8bacf-f236-418e-b949-8f4407cf856a"><rect class="4e6fa89d-f750-419b-a043-3cc170780f2f" x="50" y="78" width="25.0001" height="55.00014"/></clipPath></defs><title>Q</title><g class="f6ccad72-9b84-4ce8-9a09-482bad5d119c"><g id="a6f33427-14f7-47e6-abfc-32b263f44446" data-name="レイヤー 1"><rect class="d053f6ff-3130-44b6-bbeb-30de9687e2a8" x="0.5" y="0.5" width="99" height="155" rx="5.5" ry="5.5"/><path class="2ee7bb41-7c12-482a-9b07-dcf408fadccb" d="M94,1a5.00567,5.00567,0,0,1,5,5V150a5.00567,5.00567,0,0,1-5,5H6a5.00567,5.00567,0,0,1-5-5V6A5.00567,5.00567,0,0,1,6,1H94m0-1H6A6,6,0,0,0,0,6V150a6,6,0,0,0,6,6H94a6,6,0,0,0,6-6V6a6,6,0,0,0-6-6Z"/><g class="30245d2d-9b4e-4ffd-894b-bf54c465a3d1"><g class="30245d2d-9b4e-4ffd-894b-bf54c465a3d1"><path d="M4.45459,15.44189a11.0278,11.0278,0,0,1,.77148-4.24854A8.85919,8.85919,0,0,1,7.38525,8.03857,9.31085,9.31085,0,0,1,10.708,6.07568a12.81257,12.81257,0,0,1,4.23486-.67285,12.901,12.901,0,0,1,4.26221.67285,9.30874,9.30874,0,0,1,3.32324,1.96289,8.87171,8.87171,0,0,1,2.15918,3.15479,11.037,11.037,0,0,1,.771,4.24854,11.35341,11.35341,0,0,1-.53271,3.57568,9.46343,9.46343,0,0,1-1.5,2.86035,8.32087,8.32087,0,0,1-2.32764,2.061,9.05064,9.05064,0,0,1-3.04248,1.12158q1.51392,1.20557,3.07031,2.41162,1.5564,1.20557,3.26709,2.41211a3.06694,3.06694,0,0,0-1.34619.42041,2.39579,2.39579,0,0,0-.84131.729q-1.54248-1.42969-3.11279-2.832-1.57031-1.40259-3.33691-2.83252a2.34264,2.34264,0,0,1-.42041.02783h-.39258a13.587,13.587,0,0,1-4.23486-.63086,8.65166,8.65166,0,0,1-5.48193-5.07568A11.02433,11.02433,0,0,1,4.45459,15.44189Zm18.25586,0a12.30279,12.30279,0,0,0-.58887-4.02393A7.65086,7.65086,0,0,0,20.481,8.61377a6.54084,6.54084,0,0,0-2.46777-1.64063,9.03547,9.03547,0,0,0-6.11328,0A6.54084,6.54084,0,0,0,9.43213,8.61377,7.65008,7.65008,0,0,0,7.792,11.418a12.28907,12.28907,0,0,0-.58936,4.02393A12.286,12.286,0,0,0,7.792,19.46631a7.642,7.642,0,0,0,1.64014,2.8042,6.52943,6.52943,0,0,0,2.46777,1.64063,9.03547,9.03547,0,0,0,6.11328,0A6.52943,6.52943,0,0,0,20.481,22.27051a7.64281,7.64281,0,0,0,1.64063-2.8042A12.29972,12.29972,0,0,0,22.71045,15.44189Z"/></g></g><g class="e0870c9c-4686-4745-956f-89c6c4ed7706"><g class="e0870c9c-4686-4745-956f-89c6c4ed7706"><path d="M95.5459,140.55762a11.03207,11.03207,0,0,1-.77148,4.249,8.84864,8.84864,0,0,1-2.15918,3.1543,9.28334,9.28334,0,0,1-3.32324,1.96289,13.73043,13.73043,0,0,1-8.49707,0,9.27911,9.27911,0,0,1-3.32227-1.96289,8.86339,8.86339,0,0,1-2.16016-3.1543,11.05052,11.05052,0,0,1-.77051-4.249,11.36893,11.36893,0,0,1,.53223-3.5752,9.47128,9.47128,0,0,1,1.501-2.86035,8.336,8.336,0,0,1,2.32715-2.06152,9.04873,9.04873,0,0,1,3.043-1.12109q-1.51465-1.20557-3.07129-2.41211-1.55566-1.20557-3.2666-2.41113a3.06551,3.06551,0,0,0,1.3457-.4209,2.39454,2.39454,0,0,0,.8418-.72949q1.54248,1.43115,3.1123,2.833,1.57178,1.40186,3.33691,2.832a2.33929,2.33929,0,0,1,.4209-.02832h.39258a13.61253,13.61253,0,0,1,4.23438.63086,8.65,8.65,0,0,1,5.48242,5.07617A11.02354,11.02354,0,0,1,95.5459,140.55762Zm-18.25586,0a12.30177,12.30177,0,0,0,.58887,4.02441,7.65708,7.65708,0,0,0,1.64063,2.80469,6.54085,6.54085,0,0,0,2.46777,1.64063,9.04327,9.04327,0,0,0,6.11328,0,6.54085,6.54085,0,0,0,2.46777-1.64062A7.65708,7.65708,0,0,0,92.209,144.582a14.04285,14.04285,0,0,0,0-8.04785,7.641,7.641,0,0,0-1.64062-2.80469,6.54084,6.54084,0,0,0-2.46777-1.64062,9.04327,9.04327,0,0,0-6.11328,0,6.54084,6.54084,0,0,0-2.46777,1.64063,7.641,7.641,0,0,0-1.64062,2.80469A12.2956,12.2956,0,0,0,77.29,140.55762Z"/></g></g><g class="1b04cdce-651b-45d4-9193-5d30f8f1c97b"><g class="518b94ef-03be-43c0-ab5e-09b688544648"><path d="M14.85632,39.17836a10.66025,10.66025,0,0,1-2.57369,5.64414.1012.1012,0,0,0,.0742.17025h5.19873a.10119.10119,0,0,0,.0742-.17025,10.66025,10.66025,0,0,1-2.57369-5.64414.101.101,0,0,0-.19975,0"/><path d="M18.227,34.09788c0,2.01109-3.27071,4.57946-3.27071,4.57946s-3.26862-2.56837-3.26862-4.57946a3.47058,3.47058,0,0,1,3.26963-3.64141,3.47059,3.47059,0,0,1,3.2697,3.64141"/><path d="M18.82942,42.07347c-1.89029,0-3.8732-1.39049-3.8732-3.10445s1.98291-3.10249,3.8732-3.10249a3.11835,3.11835,0,1,1,0,6.20693"/><path d="M11.083,35.86652c1.89029,0,3.8732,1.39043,3.8732,3.10445s-1.98291,3.10249-3.8732,3.10249a3.11835,3.11835,0,1,1,0-6.20693"/><path d="M16.36917,37.825a1.41189,1.41189,0,1,1-1.41189-1.41189A1.41193,1.41193,0,0,1,16.36917,37.825"/></g></g><g class="09de6c17-f2b9-4c66-a75f-0f242cfd6da5"><g class="afc10751-3cf8-4565-8feb-852d6ea3927b"><path d="M85.14368,116.82164a10.66025,10.66025,0,0,1,2.57369-5.64414.1012.1012,0,0,0-.0742-.17025H82.44444a.10119.10119,0,0,0-.0742.17025,10.66025,10.66025,0,0,1,2.57369,5.64414.101.101,0,0,0,.19975,0"/><path d="M81.773,121.90212c0-2.01109,3.27071-4.57946,3.27071-4.57946s3.26862,2.56837,3.26862,4.57946a3.28864,3.28864,0,1,1-6.53933,0"/><path d="M81.17058,113.92653c1.89029,0,3.8732,1.39049,3.8732,3.10445s-1.98291,3.10249-3.8732,3.10249a3.11835,3.11835,0,1,1,0-6.20693"/><path d="M88.917,120.13348c-1.89029,0-3.8732-1.39043-3.8732-3.10445s1.98291-3.10249,3.8732-3.10249a3.11835,3.11835,0,1,1,0,6.20693"/><path d="M83.63083,118.175a1.41189,1.41189,0,1,1,1.41189,1.41189,1.41193,1.41193,0,0,1-1.41189-1.41189"/></g></g></g><g id="71f6accc-3ae5-4244-b965-2f1b22c319e0" data-name="レイヤー 2"><g class="d1e7c7c6-8eb1-49e3-8c6e-641d2ea17e55"><g class="d1e7c7c6-8eb1-49e3-8c6e-641d2ea17e55"><g class="d1e7c7c6-8eb1-49e3-8c6e-641d2ea17e55"><g class="181f0e21-cc12-4f0b-9d6f-9db426ff4d3a"><g class="a44b514b-445b-4200-b973-8b7affeb816f"><polyline class="9cf9cf4b-8f9d-425d-911d-87ba514a271e" points="50 133 25 133 25 78"/></g></g><g class="181f0e21-cc12-4f0b-9d6f-9db426ff4d3a"><g class="5eae206d-22da-40e8-bc94-d718bb00a020"><polyline class="9cf9cf4b-8f9d-425d-911d-87ba514a271e" points="50 23 25 23 25 78"/></g></g><g class="181f0e21-cc12-4f0b-9d6f-9db426ff4d3a"><g class="b481e579-5e24-4fd3-82e1-e1464c251dc7"><polyline class="9cf9cf4b-8f9d-425d-911d-87ba514a271e" points="50 23 75 23 75 78"/></g></g><g class="181f0e21-cc12-4f0b-9d6f-9db426ff4d3a"><g class="e7ac74c6-3443-4bad-a182-3608453c167a"><polyline class="9cf9cf4b-8f9d-425d-911d-87ba514a271e" points="50 133 75 133 75 78"/></g></g><g class="181f0e21-cc12-4f0b-9d6f-9db426ff4d3a"><g class="e7ac74c6-3443-4bad-a182-3608453c167a"><polyline class="9cf9cf4b-8f9d-425d-911d-87ba514a271e" points="50 133 75 133 75 78"/></g></g></g></g></g></g></g></svg>